<svg width="49" height="70" viewBox="0 0 49 70" fill="none" xmlns="http://www.w3.org/2000/svg">
<path d="M42.7424 24.0488C46.308 21.7055 48.6664 17.6709 48.6664 13.0963C48.6664 5.8748 42.7902 0 35.5688 0H13.0977C5.87617 0 0 5.8748 0 13.0963C0 17.6709 2.3584 21.7055 5.92402 24.0488C2.3584 26.3908 0 30.4254 0 35C0 39.5746 2.3584 43.6092 5.92402 45.9525C2.3584 48.2932 0 52.3291 0 56.9037C0 64.1252 5.90762 70 13.1674 70C20.5064 70 26.4783 64.0609 26.4783 56.7615V44.6838C28.8053 46.8043 31.8965 48.0963 35.2844 48.0963H35.5688C42.7902 48.0963 48.6664 42.2215 48.6664 35C48.6664 30.4254 46.308 26.3908 42.7424 24.0488ZM26.4783 4.29023H35.5688C40.425 4.29023 44.3762 8.24004 44.3762 13.0963C44.3762 17.9525 40.425 21.9037 35.5688 21.9037H26.4783V4.29023ZM4.29024 13.0963C4.29024 8.24004 8.24141 4.29023 13.0977 4.29023H22.1881V21.9037H13.0977C8.24141 21.9037 4.29024 17.9525 4.29024 13.0963ZM4.29024 35C4.29024 30.1437 8.24141 26.1939 13.0977 26.1939H22.1881V43.8074H13.0416C8.21133 43.7773 4.29024 39.8371 4.29024 35ZM22.1881 56.7615C22.1881 61.6957 18.1412 65.7098 13.1674 65.7098C8.27285 65.7098 4.29024 61.76 4.29024 56.9037C4.29024 52.0475 8.24141 48.0963 13.0977 48.0963H22.1881V56.7615ZM35.5688 43.8074H35.2844C30.4281 43.8074 26.4783 39.8563 26.4783 35C26.4783 30.1437 30.4281 26.1939 35.2844 26.1939H35.5688C40.425 26.1939 44.3762 30.1437 44.3762 35C44.3762 39.8563 40.425 43.8074 35.5688 43.8074Z" fill="white"/>
<path d="M13.099 43.8062C13.0799 43.8062 13.0621 43.8062 13.043 43.8075H22.1895V43.8062H13.099Z" fill="white"/>
</svg>
