<svg width="56" height="70" viewBox="0 0 56 70" fill="none" xmlns="http://www.w3.org/2000/svg">
<path d="M41.6583 0.341688C41.55 0.233354 41.4214 0.14742 41.2798 0.0887932C41.1383 0.0301663 40.9865 -5.58184e-06 40.8333 7.74558e-10H8.16667C6.00149 0.00247026 3.9257 0.863678 2.39469 2.39469C0.863678 3.9257 0.00247025 6.00149 0 8.16667V61.8333C0.00247025 63.9985 0.863678 66.0743 2.39469 67.6053C3.9257 69.1363 6.00149 69.9975 8.16667 70H47.8333C49.9985 69.9975 52.0743 69.1363 53.6053 67.6053C55.1363 66.0743 55.9975 63.9985 56 61.8333V15.1667C56 15.0135 55.9698 14.8617 55.9112 14.7202C55.8526 14.5786 55.7666 14.45 55.6583 14.3417L41.6583 0.341688ZM42 3.98315L52.0169 14H47.8333C46.2868 13.9983 44.804 13.3831 43.7105 12.2895C42.6169 11.196 42.0017 9.71323 42 8.16667V3.98315ZM8.16667 2.33333H39.6667V8.16667C39.6691 10.3318 40.5303 12.4076 42.0614 13.9386C43.5924 15.4697 45.6682 16.3309 47.8333 16.3333H53.6667V49H2.33333V8.16667C2.33507 6.6201 2.95021 5.13738 4.0438 4.0438C5.13738 2.95021 6.6201 2.33507 8.16667 2.33333ZM47.8333 67.6667H8.16667C6.6201 67.6649 5.13738 67.0498 4.0438 65.9562C2.95021 64.8626 2.33507 63.3799 2.33333 61.8333V51.3333H53.6667V61.8333C53.6649 63.3799 53.0498 64.8626 51.9562 65.9562C50.8626 67.0498 49.3799 67.6649 47.8333 67.6667ZM16.3333 54.8333V64.1667C16.3333 64.4761 16.2104 64.7728 15.9916 64.9916C15.7728 65.2104 15.4761 65.3333 15.1667 65.3333C14.8572 65.3333 14.5605 65.2104 14.3417 64.9916C14.1229 64.7728 14 64.4761 14 64.1667V60.6667H11.6667V64.1667C11.6667 64.4761 11.5438 64.7728 11.325 64.9916C11.1062 65.2104 10.8094 65.3333 10.5 65.3333C10.1906 65.3333 9.89383 65.2104 9.67504 64.9916C9.45625 64.7728 9.33333 64.4761 9.33333 64.1667V54.8333C9.33333 54.5239 9.45625 54.2272 9.67504 54.0084C9.89383 53.7896 10.1906 53.6667 10.5 53.6667C10.8094 53.6667 11.1062 53.7896 11.325 54.0084C11.5438 54.2272 11.6667 54.5239 11.6667 54.8333V58.3333H14V54.8333C14 54.5239 14.1229 54.2272 14.3417 54.0084C14.5605 53.7896 14.8572 53.6667 15.1667 53.6667C15.4761 53.6667 15.7728 53.7896 15.9916 54.0084C16.2104 54.2272 16.3333 54.5239 16.3333 54.8333ZM25.6667 54.8333C25.6667 55.1427 25.5438 55.4395 25.325 55.6583C25.1062 55.8771 24.8094 56 24.5 56H23.3333V64.1667C23.3333 64.4761 23.2104 64.7728 22.9916 64.9916C22.7728 65.2104 22.4761 65.3333 22.1667 65.3333C21.8572 65.3333 21.5605 65.2104 21.3417 64.9916C21.1229 64.7728 21 64.4761 21 64.1667V56H19.8333C19.5239 56 19.2272 55.8771 19.0084 55.6583C18.7896 55.4395 18.6667 55.1427 18.6667 54.8333C18.6667 54.5239 18.7896 54.2272 19.0084 54.0084C19.2272 53.7896 19.5239 53.6667 19.8333 53.6667H24.5C24.8094 53.6667 25.1062 53.7896 25.325 54.0084C25.5438 54.2272 25.6667 54.5239 25.6667 54.8333ZM37.3333 54.8333V64.1667C37.3333 64.4761 37.2104 64.7728 36.9916 64.9916C36.7728 65.2104 36.4761 65.3333 36.1667 65.3333C35.8572 65.3333 35.5605 65.2104 35.3417 64.9916C35.1229 64.7728 35 64.4761 35 64.1667V59.7755L33.7101 62.3551C33.6132 62.5489 33.4643 62.7118 33.28 62.8257C33.0957 62.9396 32.8833 62.9999 32.6667 62.9999C32.45 62.9999 32.2377 62.9396 32.0534 62.8257C31.8691 62.7118 31.7201 62.5489 31.6232 62.3551L30.3333 59.7755V64.1667C30.3333 64.4761 30.2104 64.7728 29.9916 64.9916C29.7728 65.2104 29.4761 65.3333 29.1667 65.3333C28.8572 65.3333 28.5605 65.2104 28.3417 64.9916C28.1229 64.7728 28 64.4761 28 64.1667V54.8333C28 54.5705 28.0888 54.3154 28.2519 54.1094C28.4149 53.9033 28.6428 53.7583 28.8986 53.698C29.1544 53.6376 29.423 53.6653 29.6611 53.7767C29.8991 53.888 30.0925 54.0765 30.2101 54.3115L32.6667 59.2245L35.1232 54.3115C35.2408 54.0765 35.4342 53.888 35.6723 53.7767C35.9103 53.6653 36.179 53.6376 36.4347 53.698C36.6905 53.7583 36.9184 53.9033 37.0815 54.1094C37.2446 54.3154 37.3333 54.5705 37.3333 54.8333ZM46.6667 64.1667C46.6667 64.4761 46.5438 64.7728 46.325 64.9916C46.1062 65.2104 45.8094 65.3333 45.5 65.3333H40.8333C40.5239 65.3333 40.2272 65.2104 40.0084 64.9916C39.7896 64.7728 39.6667 64.4761 39.6667 64.1667V54.8333C39.6667 54.5239 39.7896 54.2272 40.0084 54.0084C40.2272 53.7896 40.5239 53.6667 40.8333 53.6667C41.1427 53.6667 41.4395 53.7896 41.6583 54.0084C41.8771 54.2272 42 54.5239 42 54.8333V63H45.5C45.8094 63 46.1062 63.1229 46.325 63.3417C46.5438 63.5605 46.6667 63.8572 46.6667 64.1667ZM12.0084 28.825C11.9 28.7166 11.8141 28.588 11.7554 28.4465C11.6968 28.3049 11.6666 28.1532 11.6666 28C11.6666 27.8468 11.6968 27.6951 11.7554 27.5535C11.8141 27.412 11.9 27.2834 12.0084 27.175L19.0084 20.175C19.2272 19.9562 19.5239 19.8333 19.8333 19.8333C20.1428 19.8333 20.4395 19.9562 20.6583 20.175C20.8771 20.3938 21 20.6906 21 21C21 21.3094 20.8771 21.6062 20.6583 21.825L14.4831 28L20.6583 34.175C20.8771 34.3938 21 34.6906 21 35C21 35.3094 20.8771 35.6062 20.6583 35.825C20.4395 36.0438 20.1428 36.1667 19.8333 36.1667C19.5239 36.1667 19.2272 36.0438 19.0084 35.825L12.0084 28.825ZM35.3417 34.175L41.5169 28L35.3417 21.825C35.1229 21.6062 35 21.3094 35 21C35 20.6906 35.1229 20.3938 35.3417 20.175C35.5605 19.9562 35.8572 19.8333 36.1667 19.8333C36.4761 19.8333 36.7728 19.9562 36.9916 20.175L43.9916 27.175C44.1 27.2834 44.1859 27.412 44.2446 27.5535C44.3032 27.6951 44.3334 27.8468 44.3334 28C44.3334 28.1532 44.3032 28.3049 44.2446 28.4465C44.1859 28.588 44.1 28.7166 43.9916 28.825L36.9916 35.825C36.7728 36.0438 36.4761 36.1667 36.1667 36.1667C35.8572 36.1667 35.5605 36.0438 35.3417 35.825C35.1229 35.6062 35 35.3094 35 35C35 34.6906 35.1229 34.3938 35.3417 34.175ZM23.3933 38.131L30.3933 17.131C30.4406 16.9843 30.5165 16.8484 30.6167 16.7312C30.7168 16.614 30.8392 16.5178 30.9768 16.4482C31.1144 16.3786 31.2644 16.3369 31.4181 16.3256C31.5719 16.3143 31.7263 16.3336 31.8726 16.3823C32.0189 16.4311 32.154 16.5084 32.2702 16.6097C32.3864 16.711 32.4814 16.8343 32.5497 16.9725C32.618 17.1108 32.6581 17.2612 32.6679 17.415C32.6777 17.5689 32.6569 17.7232 32.6067 17.869L25.6067 38.869C25.5066 39.1596 25.2959 39.3991 25.0202 39.5352C24.7445 39.6713 24.4263 39.6931 24.1346 39.5959C23.843 39.4987 23.6015 39.2903 23.4627 39.016C23.3239 38.7416 23.2989 38.4236 23.3933 38.131Z" fill="white"/>
</svg>
