<svg width="63" height="72" viewBox="0 0 63 72" fill="none" xmlns="http://www.w3.org/2000/svg">
<path d="M56.4457 72.0002H6.29821C5.61602 72.0002 5.0625 71.4467 5.0625 70.7645V63.2889C5.0625 62.6067 5.61602 62.0532 6.29821 62.0532C6.98041 62.0532 7.53393 62.6067 7.53393 63.2889V69.5288H55.21V63.2889C55.21 62.6067 55.7635 62.0532 56.4457 62.0532C57.1279 62.0532 57.6814 62.6067 57.6814 63.2889V70.7645C57.6814 71.4467 57.1279 72.0002 56.4457 72.0002Z" fill="white"/>
<path d="M56.4457 45.4558C55.7635 45.4558 55.21 44.9023 55.21 44.2201V16.0866H42.5975C41.9153 16.0866 41.3618 15.5331 41.3618 14.8509V2.47338H7.53393V44.218C7.53393 44.9002 6.98041 45.4537 6.29821 45.4537C5.61602 45.4537 5.0625 44.9002 5.0625 44.218V1.23767C5.0625 0.555471 5.61602 0.00195312 6.29821 0.00195312H42.5975C43.2797 0.00195312 43.8333 0.555471 43.8333 1.23767V13.6132H56.4457C57.1279 13.6132 57.6814 14.1667 57.6814 14.8489V44.218C57.6814 44.9023 57.1279 45.4558 56.4457 45.4558Z" fill="white"/>
<path d="M56.443 16.0865C56.1305 16.0865 55.818 15.9681 55.577 15.7311L41.7289 2.11787C41.2427 1.63992 41.2346 0.857644 41.7146 0.369486C42.1925 -0.116629 42.9748 -0.124799 43.4629 0.355189L57.3111 13.9685C57.7972 14.4464 57.8054 15.2287 57.3254 15.7168C57.0823 15.9619 56.7637 16.0865 56.443 16.0865Z" fill="white"/>
<path d="M60.168 64.5222H2.57764C1.15606 64.5222 0 63.3662 0 61.9446V45.5576C0 44.136 1.15606 42.98 2.57764 42.98H60.168C61.5896 42.98 62.7456 44.136 62.7456 45.5576V61.9446C62.7436 63.3662 61.5875 64.5222 60.168 64.5222ZM2.57764 45.4555C2.52045 45.4555 2.47347 45.5025 2.47347 45.5597V61.9466C2.47347 62.0038 2.52045 62.0508 2.57764 62.0508H60.168C60.2252 62.0508 60.2722 62.0038 60.2722 61.9466V45.5597C60.2722 45.5025 60.2252 45.4555 60.168 45.4555H2.57764Z" fill="white"/>
<path d="M41.1978 35.8604C40.8914 35.8604 40.585 35.748 40.344 35.5193C39.8497 35.0475 39.8313 34.2652 40.3031 33.7709L44.3432 29.5347L40.3031 25.2986C39.8313 24.8043 39.8497 24.022 40.344 23.5502C40.8383 23.0784 41.6206 23.0968 42.0924 23.5911L46.9474 28.681C47.4029 29.1589 47.4029 29.9106 46.9474 30.3865L42.0924 35.4764C41.8493 35.7317 41.5246 35.8604 41.1978 35.8604Z" fill="white"/>
<path d="M21.5522 35.86C21.2254 35.86 20.9006 35.7314 20.6576 35.4781L15.8025 30.3882C15.3471 29.9102 15.3471 29.1586 15.8025 28.6827L20.6576 23.5928C21.1294 23.0985 21.9117 23.0801 22.406 23.5519C22.9002 24.0237 22.9186 24.806 22.4468 25.3003L18.4067 29.5364L22.4468 33.7726C22.9186 34.2669 22.9002 35.0492 22.406 35.521C22.1649 35.7457 21.8586 35.86 21.5522 35.86Z" fill="white"/>
<path d="M29.2286 36.9654C29.0938 36.9654 28.959 36.9429 28.8242 36.898C28.1787 36.6753 27.8376 35.9707 28.0603 35.3252L32.3454 22.9375C32.5681 22.292 33.2727 21.9509 33.9182 22.1736C34.5636 22.3962 34.9047 23.1009 34.6821 23.7463L30.3969 36.1341C30.2192 36.6447 29.7413 36.9654 29.2286 36.9654Z" fill="white"/>
<path d="M25.213 60.4045C22.8988 60.4045 21.0156 58.5213 21.0156 56.2071C21.0156 55.5249 21.5691 54.9714 22.2513 54.9714C22.9335 54.9714 23.4871 55.5249 23.4871 56.2071C23.4871 57.1589 24.2612 57.933 25.213 57.933C26.1648 57.933 26.9389 57.1589 26.9389 56.2071V48.3353C26.9389 47.6531 27.4924 47.0996 28.1746 47.0996C28.8568 47.0996 29.4103 47.6531 29.4103 48.3353V56.2071C29.4103 58.5213 27.5271 60.4045 25.213 60.4045Z" fill="white"/>
<path d="M28.1782 49.573H23.556C22.8738 49.573 22.3203 49.0195 22.3203 48.3373C22.3203 47.6551 22.8738 47.1016 23.556 47.1016H28.1782C28.8604 47.1016 29.4139 47.6551 29.4139 48.3373C29.4139 49.0195 28.8604 49.573 28.1782 49.573Z" fill="white"/>
<path d="M37.7756 60.4045H33.9623C33.2801 60.4045 32.7266 59.8509 32.7266 59.1687C32.7266 58.4866 33.2801 57.933 33.9623 57.933H37.7756C38.1678 57.933 38.5375 57.7799 38.8173 57.5C39.0971 57.2202 39.2503 56.8505 39.2503 56.4584C39.2503 55.6454 38.5906 54.9837 37.7797 54.9837H36.6727C34.4974 54.9837 32.7266 53.2149 32.7266 51.0416C32.7266 48.8684 34.4974 47.0996 36.6727 47.0996H40.486C41.1682 47.0996 41.7217 47.6531 41.7217 48.3353C41.7217 49.0175 41.1682 49.571 40.486 49.571H36.6727C35.8598 49.571 35.198 50.2308 35.198 51.0416C35.198 51.8525 35.8598 52.5122 36.6727 52.5122H37.7797C39.9529 52.5122 41.7217 54.2831 41.7217 56.4584C41.7217 57.5102 41.3112 58.5009 40.5657 59.2484C39.8181 59.9939 38.8275 60.4045 37.7756 60.4045Z" fill="white"/>
</svg>
