<svg width="70" height="50" viewBox="0 0 70 50" fill="none" xmlns="http://www.w3.org/2000/svg">
<path d="M43.3404 38.9895H15.6677C15.1371 38.9895 14.707 38.5594 14.707 38.0288C14.707 37.4981 15.1371 37.0681 15.6677 37.0681H43.3404C43.871 37.0681 44.3011 37.4981 44.3011 38.0288C44.3011 38.5594 43.8665 38.9895 43.3404 38.9895Z" fill="white"/>
<path d="M5.87476 22.2876C5.34409 22.2876 4.91406 21.8576 4.91406 21.327V3.41268C4.91406 1.5325 6.4466 0 8.32682 0H56.8329C58.7131 0 60.2456 1.5325 60.2456 3.41268V14.3461C60.2456 14.8767 59.8156 15.3067 59.2849 15.3067C58.7543 15.3067 58.3242 14.8767 58.3242 14.3461V3.41268C58.3242 2.58924 57.6563 1.92135 56.8329 1.92135H8.32682C7.50337 1.92135 6.83546 2.58924 6.83546 3.41268V21.327C6.83546 21.8576 6.40543 22.2876 5.87476 22.2876Z" fill="white"/>
<path d="M43.3404 30.8059H15.6677C15.1371 30.8059 14.707 30.3759 14.707 29.8452C14.707 29.3145 15.1371 28.8845 15.6677 28.8845H43.3404C43.871 28.8845 44.3011 29.3145 44.3011 29.8452C44.3011 30.3759 43.8665 30.8059 43.3404 30.8059Z" fill="white"/>
<path d="M32.5833 35.1197C33.2377 35.1197 33.7682 34.5892 33.7682 33.9348C33.7682 33.2805 33.2377 32.75 32.5833 32.75C31.9289 32.75 31.3984 33.2805 31.3984 33.9348C31.3984 34.5892 31.9289 35.1197 32.5833 35.1197Z" fill="white"/>
<path d="M28.6521 44.232C28.1214 44.232 27.6914 43.802 27.6914 43.2713V38.0288C27.6914 37.4981 28.1214 37.0681 28.6521 37.0681C29.1828 37.0681 29.6128 37.4981 29.6128 38.0288V43.2713C29.6128 43.802 29.1828 44.232 28.6521 44.232Z" fill="white"/>
<path d="M36.5193 44.232C35.9886 44.232 35.5586 43.802 35.5586 43.2713V38.0288C35.5586 37.4981 35.9886 37.0681 36.5193 37.0681C37.05 37.0681 37.48 37.4981 37.48 38.0288V43.2713C37.48 43.802 37.05 44.232 36.5193 44.232Z" fill="white"/>
<path d="M44.2611 49.4196H18.7615C18.2308 49.4196 17.8008 48.9896 17.8008 48.4589V47.8459C17.8008 44.9502 20.1568 42.5942 23.0526 42.5942H42.1293C42.6371 42.5942 43.1403 42.6674 43.6207 42.8092C44.1285 42.9602 44.4212 43.4954 44.2703 44.0032C44.1193 44.511 43.5841 44.8038 43.0763 44.6528C42.7698 44.5613 42.4541 44.5156 42.1293 44.5156H23.0526C21.3325 44.5156 19.9143 45.8239 19.7405 47.4982H44.2611C44.7918 47.4982 45.2218 47.9283 45.2218 48.4589C45.2218 48.9896 44.7918 49.4196 44.2611 49.4196Z" fill="white"/>
<path d="M14.9365 49.4197H1.68808C0.754833 49.4197 0 48.6603 0 47.7317V22.0543C0 21.121 0.759408 20.3662 1.68808 20.3662H14.932C15.8652 20.3662 16.6201 21.1256 16.6201 22.0543V47.7271C16.6246 48.6649 15.8652 49.4197 14.9365 49.4197ZM1.92139 47.4984H14.7032V22.2876H1.92139V47.4984Z" fill="white"/>
<path d="M15.6639 26.2446H0.960697C0.430026 26.2446 0 25.8146 0 25.2839C0 24.7533 0.430026 24.3232 0.960697 24.3232H15.6639C16.1946 24.3232 16.6246 24.7533 16.6246 25.2839C16.6246 25.8146 16.1946 26.2446 15.6639 26.2446Z" fill="white"/>
<path d="M15.6639 45.4629H0.960697C0.430026 45.4629 0 45.0328 0 44.5022C0 43.9715 0.430026 43.5415 0.960697 43.5415H15.6639C16.1946 43.5415 16.6246 43.9715 16.6246 44.5022C16.6246 45.0328 16.1946 45.4629 15.6639 45.4629Z" fill="white"/>
<path d="M68.1249 49.4195H44.2585C43.2246 49.4195 42.3828 48.5778 42.3828 47.5439V15.2652C42.3828 14.2314 43.2246 13.3896 44.2585 13.3896H68.1249C69.1588 13.3896 70.0006 14.2314 70.0006 15.2652V47.5439C70.0006 48.5778 69.1588 49.4195 68.1249 49.4195ZM44.3042 47.4981H68.0792V15.3064H44.2996V47.4981H44.3042Z" fill="white"/>
<path d="M65.839 44.3369H46.5427C46.0121 44.3369 45.582 43.9069 45.582 43.3762V17.5478C45.582 17.0172 46.0121 16.5872 46.5427 16.5872H65.839C66.3697 16.5872 66.7997 17.0172 66.7997 17.5478V43.3762C66.7997 43.9069 66.3697 44.3369 65.839 44.3369ZM47.508 42.4156H64.8783V18.5085H47.5034V42.4156H47.508Z" fill="white"/>
<path d="M56.1877 46.83C56.6905 46.83 57.0981 46.4224 57.0981 45.9196C57.0981 45.4169 56.6905 45.0093 56.1877 45.0093C55.6849 45.0093 55.2773 45.4169 55.2773 45.9196C55.2773 46.4224 55.6849 46.83 56.1877 46.83Z" fill="white"/>
</svg>
