<svg width="70" height="63" viewBox="0 0 70 63" fill="none" xmlns="http://www.w3.org/2000/svg">
<g opacity="0.7">
<path fill-rule="evenodd" clip-rule="evenodd" d="M53.679 39.3673C53.3509 39.3673 53.0228 39.2443 52.8178 38.9162L50.3574 35.4716L47.7739 38.9572C46.9537 40.0644 45.2724 38.7932 46.0926 37.686L49.0861 33.6673L46.1746 29.6075C45.3544 28.5003 47.0767 27.2291 47.8969 28.3773L50.3984 31.9039L52.9408 28.5003C53.761 27.3931 55.4423 28.6643 54.6221 29.7715L51.7106 33.7083L54.5401 37.686C55.0322 38.3831 54.4991 39.3673 53.679 39.3673ZM55.2783 14.4757H14.6807C13.3275 14.4757 13.3275 12.3843 14.6807 12.3843H55.2783C56.6725 12.3843 56.6725 14.4757 55.2783 14.4757ZM55.2783 20.4218H14.6807C13.3275 20.4218 13.3275 18.2894 14.6807 18.2894H55.2783C56.6725 18.2894 56.6725 20.4218 55.2783 20.4218ZM62.9467 49.8243V12.5073C62.9467 6.76626 59.6251 2.1324 55.5653 2.1324H14.4347C10.3339 2.1324 7.05331 6.76626 7.05331 12.5073V49.8243H28.7873H28.8284H28.8694H28.9104H28.9514H28.9924L29.0334 49.8653H29.0744H29.1154L29.1564 49.9063H29.1974H29.2384V49.9473H29.2794L29.3204 49.9883H29.3615L29.4025 50.0293L29.4435 50.0703H29.4845V50.1113H29.5255C29.5255 50.1523 29.8125 50.5624 29.8125 50.8904V54.048H40.1465V50.8904C40.1465 50.1113 40.5565 50.0703 41.0076 49.8243H41.1716H41.2127H41.2537H62.9467ZM4.92091 49.8243V12.5073C4.92091 5.61804 9.18571 0 14.4347 0H55.5653C60.8143 0 65.0791 5.61804 65.0791 12.5073V49.8243H68.9338C69.5079 49.8243 70 50.2753 70 50.8904C70 57.3697 64.71 62.6596 58.1898 62.6596H11.8102C5.28998 62.6596 0 57.3697 0 50.8904C0 50.2753 0.492091 49.8243 1.0662 49.8243H4.92091ZM27.7211 51.9156H2.1734C2.7065 56.7545 6.80726 60.5682 11.8102 60.5682H58.1898C63.1517 60.5682 67.2935 56.7545 67.8266 51.9156H42.2789V55.1142C42.2789 55.6883 41.7868 56.1804 41.2127 56.1804H28.7463C28.1722 56.1804 27.7211 55.7294 27.7211 55.1142V51.9156ZM29.5665 41.6637C28.8694 41.6637 28.3363 41.0076 28.5413 40.3105L32.437 25.7118C32.8061 24.3995 34.8565 24.9736 34.4874 26.2859L30.5917 40.8846C30.4687 41.3357 30.0176 41.6637 29.5665 41.6637ZM39.9824 39.4083C37.645 39.4083 35.8817 37.891 36.0047 35.4716V28.9514C36.0047 27.5981 38.0961 27.5981 38.0961 28.9514C38.0961 30.2636 38.1781 34.6924 38.0961 35.6356C37.891 37.85 42.0328 37.85 41.8278 35.6356C41.7458 34.7335 41.8278 30.2226 41.8278 28.9514C41.8278 27.5981 43.9602 27.5981 43.9602 28.9514V35.4716C44.0422 37.891 42.2789 39.4083 39.9824 39.4083ZM19.1506 38.7112C16.8131 38.7112 15.0498 37.1939 15.1728 34.7745V28.2542C15.1728 26.901 17.2642 26.901 17.2642 28.2542C17.2642 29.6075 17.3462 33.9133 17.2642 34.9385C17.1002 37.1529 21.2009 37.1529 20.9959 34.9385C20.9139 33.9133 20.9959 29.6075 20.9959 28.2542C20.9959 26.901 23.1283 26.901 23.1283 28.2542V34.7745C23.2103 37.1939 21.447 38.7112 19.1506 38.7112ZM26.2449 38.6702C25.6708 38.6702 25.1787 38.2191 25.1787 37.604V28.2953C25.1787 26.901 27.3111 26.901 27.3111 28.2953V37.604C27.3111 38.2191 26.819 38.6702 26.2449 38.6702Z" fill="white"/>
</g>
</svg>
