<svg width="25" height="18" viewBox="0 0 25 18" fill="none" xmlns="http://www.w3.org/2000/svg">
<path d="M23.6518 2.39499H1.20009C0.601377 2.39499 0.152344 1.79624 0.152344 1.19749C0.152344 0.598747 0.601377 0 1.34977 0H23.8014C24.4001 0 24.9989 0.44906 24.9989 1.19749C24.9989 1.94593 24.2505 2.39499 23.6518 2.39499Z" fill="#C17CF0"/>
<path d="M16.1652 9.87933H1.19742C0.598711 9.87933 0 9.43027 0 8.68184C0 7.9334 0.449033 7.48434 1.19742 7.48434H16.1652C16.7639 7.48434 17.3626 7.9334 17.3626 8.68184C17.3626 9.43027 16.7639 9.87933 16.1652 9.87933Z" fill="#C17CF0"/>
<path d="M7.18453 17.3636H1.19742C0.598711 17.3636 0 16.9146 0 16.1661C0 15.4177 0.449033 14.9687 1.19742 14.9687H7.18453C7.78324 14.9687 8.38196 15.4177 8.38196 16.1661C8.38196 16.9146 7.78324 17.3636 7.18453 17.3636Z" fill="#C17CF0"/>
</svg>
