<svg width="89" height="89" viewBox="0 0 89 89" fill="none" xmlns="http://www.w3.org/2000/svg">
<circle opacity="0.38" cx="44.5" cy="44.5" r="44.5" fill="#D9D9D9"/>
<path d="M44.5 12C26.5508 12 12 26.5508 12 44.5C12 62.4492 26.5508 77 44.5 77C62.4492 77 77 62.4492 77 44.5C76.981 26.5588 62.4414 12.0192 44.5 12ZM58.187 45.5355C57.962 45.9869 57.5963 46.3527 57.1448 46.5777V46.5893L38.5734 55.8751C37.4265 56.4481 36.0323 55.9831 35.4591 54.8361C35.2961 54.5101 35.2122 54.1502 35.2142 53.7858V35.2144C35.2137 33.9322 36.2525 32.8925 37.5346 32.8918C37.8952 32.8917 38.2509 32.9755 38.5734 33.1366L57.1448 42.4224C58.2923 42.9942 58.759 44.3881 58.187 45.5355Z" fill="white"/>
</svg>
