<svg width="33" height="32" viewBox="0 0 33 32" fill="none" xmlns="http://www.w3.org/2000/svg">
<path fill-rule="evenodd" clip-rule="evenodd" d="M18.7854 14.9104C18.7854 14.7053 18.9563 14.5344 19.1614 14.5344C19.3665 14.5344 19.5374 14.7053 19.5374 14.9104C19.5374 15.5735 20.5764 15.9153 21.1643 15.4163C21.3216 15.2864 21.4173 15.1018 21.4173 14.9104C21.4173 13.6389 18.7854 14.719 18.7854 12.6546C18.7854 12.2376 18.9837 11.8411 19.3049 11.5813C19.5237 11.3967 19.7971 11.26 20.1048 11.1985V10.679C20.1048 10.4739 20.2757 10.303 20.4807 10.303C20.6858 10.303 20.8567 10.4739 20.8567 10.679V11.1985C21.1643 11.26 21.4378 11.3967 21.6565 11.5813C21.9778 11.8547 22.176 12.2376 22.176 12.6614C22.176 12.8665 22.0051 13.0374 21.8001 13.0374C21.595 13.0374 21.4241 12.8665 21.4241 12.6614C21.4241 12.47 21.3284 12.2854 21.1712 12.1555C20.7883 11.8342 20.1663 11.8411 19.7903 12.1555C19.6331 12.2854 19.5374 12.47 19.5374 12.6614C19.5374 13.9124 22.1692 12.8391 22.1692 14.9172C22.1692 15.6624 21.5676 16.2297 20.8567 16.3733V16.8928C20.8567 17.0979 20.6858 17.2688 20.4807 17.2688C20.2757 17.2688 20.1048 17.0979 20.1048 16.8928V16.3733C19.3801 16.2229 18.7854 15.6487 18.7854 14.9104ZM6.56276 24.0295L8.84596 27.8645C10.6712 26.3264 11.6555 26.6477 13.5491 27.2766C14.3147 27.5295 15.2444 27.8372 16.4612 28.0696C16.468 28.0696 16.4749 28.0696 16.4817 28.0764C17.4661 28.3225 20.679 27.3108 22.2102 26.8049C22.2239 26.7981 22.2376 26.7981 22.2444 26.7913C23.1126 26.5315 23.5569 26.217 23.6936 25.9368C23.7415 25.8411 23.7415 25.7864 23.6663 25.7249C23.5091 25.595 23.1878 25.5403 22.7503 25.636C22.7434 25.636 22.7366 25.636 22.7229 25.6428C22.2581 25.7317 21.8616 25.8206 21.4993 25.9026C20.6243 26.1008 19.9339 26.2649 18.6077 26.2717C18.5735 26.2717 18.5393 26.2649 18.512 26.2581C17.8147 26.1008 15.6477 25.3489 14.5403 24.9729C14.3147 24.8977 14.1917 24.6448 14.2669 24.4192C14.3421 24.1936 14.5882 24.0706 14.8206 24.1458C15.2581 24.262 15.7844 24.2893 16.3382 24.2415C16.9807 24.1868 17.6507 24.0432 18.2591 23.845C18.6966 23.5852 18.9016 23.3186 18.9495 23.0794C19.0247 22.7034 18.676 22.4299 18.2932 22.5188L17.5755 22.6213C16.2356 22.8128 14.6702 23.0383 12.6262 22.6145C12.5784 22.6077 12.5374 22.5872 12.5032 22.5667C11.6419 22.136 10.8215 22.0608 9.87819 22.3206C8.96217 22.5667 7.89577 23.1409 6.56276 24.0295ZM5.9817 31.2415L2.22877 24.9456C2.10573 24.7405 2.17409 24.4739 2.37916 24.344L5.22975 22.6419C5.43483 22.5188 5.70143 22.5872 5.83131 22.7922L6.11842 23.2776C7.50612 22.3616 8.63405 21.76 9.65944 21.4729C10.8147 21.1585 11.8128 21.2473 12.8655 21.7669C14.7317 22.1428 16.2083 21.9309 17.4661 21.7463C17.6643 21.719 17.8489 21.6917 18.1292 21.6575C18.6008 21.5549 19.0383 21.678 19.3528 21.9378C19.7356 22.2522 19.9133 22.7376 19.8108 23.2434C19.7151 23.7083 19.3733 24.2073 18.676 24.6106C18.4846 24.7268 17.5823 24.9319 17.3157 24.9866L18.6624 25.4036C19.8518 25.3899 20.4944 25.2463 21.3079 25.0549C21.6702 24.9729 22.0598 24.884 22.5657 24.7883C24.0764 24.4807 24.9309 25.4104 24.4729 26.3333C24.2405 26.8049 23.6184 27.2971 22.4905 27.6389C20.6448 28.2337 17.6165 29.2317 16.2698 28.9378C14.9983 28.6917 14.0481 28.3772 13.262 28.1174C11.6487 27.5842 10.8215 27.3108 9.2903 28.637L9.57057 29.1018C9.69362 29.3069 9.62526 29.5735 9.42018 29.7034L6.56959 31.4055C6.37819 31.5149 6.10475 31.4465 5.9817 31.2415ZM3.19948 24.8704L5.30495 23.6194L5.55104 24.0364C5.61256 24.1799 5.57155 24.1047 5.65358 24.2141L8.6067 29.1702L6.50807 30.4212L3.19948 24.8704ZM7.18483 29.1428C7.01393 29.3137 6.73366 29.3069 6.56959 29.136C6.16627 28.719 6.8362 28.0628 7.24635 28.4797C7.41725 28.6506 7.41041 28.9309 7.23952 29.095L7.18483 29.1428ZM23.2835 3.24146L23.6799 2.48951L22.593 2.33228L22.1282 4.10963C22.0735 4.30787 21.8684 4.43092 21.6702 4.37623C21.4719 4.32154 21.3489 4.11646 21.4036 3.91822L22.2307 0.780526L19.1272 0.978768L19.5989 2.16139L20.2073 3.77467C20.2825 3.96607 20.1799 4.18482 19.9885 4.26002C19.7971 4.33521 19.5784 4.23267 19.5032 4.04127L19.0725 2.87232L18.1907 3.50807L18.7649 5.35377H22.1692L23.2835 3.24146ZM20.5012 6.10572L22.4016 6.85084C22.47 6.83033 22.5315 6.79615 22.5794 6.74146C22.8049 6.49537 22.6272 6.10572 22.2991 6.10572H20.5012ZM18.471 6.83033C18.5462 6.54322 18.7102 6.29029 18.9426 6.10572C18.7171 6.10572 18.5257 6.07154 18.3821 6.2151C18.1702 6.42701 18.3001 6.83033 18.4026 6.844C18.4299 6.844 18.4505 6.83717 18.471 6.83033ZM25.4299 10.6243C23.6389 10.7405 23.263 10.4944 22.0188 9.68775C21.8958 9.60572 21.7591 9.52369 21.513 9.36646L19.2092 8.3274C18.8401 8.1565 18.6145 7.8899 18.5051 7.59596C16.8577 8.01978 15.4085 9.31861 15.4085 11.0754C15.4085 11.7727 15.4426 12.3401 15.4905 13.0305C15.634 15.2659 15.7571 17.2278 14.0755 19.1487C13.7131 19.5657 14.1848 19.9827 14.5676 20.1331C14.9026 20.2629 15.2991 20.2629 15.5657 20.01C16.9055 18.7385 18.8128 19.6272 20.4329 19.6272C20.9182 19.6272 21.4241 19.552 21.9163 19.4768C23.1604 19.2854 24.343 19.1077 25.3001 20.01C25.7717 20.4544 26.6604 20.1262 26.8792 19.6409C26.9475 19.4905 26.9339 19.3128 26.7903 19.1487C25.1087 17.2278 25.2385 15.2659 25.3753 13.0305C25.4163 12.4905 25.512 11.1917 25.4299 10.6243ZM28.0413 11.0891L27.8089 11.677L29.7776 12.4495L31.9651 6.87135L29.9964 6.09889L28.0413 11.0891ZM22.7708 7.50709C22.6751 7.63697 22.4973 7.69166 22.3333 7.63014L19.8723 6.66627C19.2229 6.41334 18.8743 7.34986 19.51 7.63697L21.8889 8.71705C22.0188 8.79908 22.2239 8.9358 22.4153 9.05885C23.5637 9.80396 23.8645 10.0022 25.6966 9.85182C25.7649 9.84498 25.8264 9.85865 25.8811 9.886L27.4671 10.4739L28.9026 6.80299L27.4055 6.2151C27.3782 6.20142 27.3508 6.18775 27.3235 6.17408L24.719 4.31471C24.4661 4.13697 24.1174 3.97975 23.7962 3.86353L22.9075 5.54517C23.6526 6.03053 23.5706 7.13111 22.7708 7.50709ZM16.6936 7.57545C15.4905 8.35474 14.6565 9.59889 14.6565 11.0686C14.6565 11.7112 14.6975 12.4358 14.7385 13.0715C14.8684 15.1428 14.9846 16.9612 13.5081 18.6497C13.1321 19.0735 13.1116 19.5383 13.303 19.9485C13.7268 20.8645 15.2102 21.3772 16.0784 20.5432C16.2219 20.4065 16.3792 20.304 16.5432 20.2288C17.1995 19.9348 18.0676 20.0852 18.8333 20.2014C20.2483 20.4202 20.6106 20.4202 22.0188 20.2014C23.0784 20.0374 24.0901 19.887 24.7737 20.5364C25.4505 21.179 26.5032 21.0217 27.1458 20.468C27.6926 19.9963 27.8909 19.2649 27.344 18.6428C25.8674 16.9544 25.9837 15.136 26.1135 13.0647C26.1477 12.5178 26.2298 11.3489 26.1887 10.7952L27.1868 11.1643L27.0637 11.4719C26.9202 11.8137 27.0911 12.2034 27.4397 12.3264L29.593 13.1741C29.9212 13.304 30.2903 13.1399 30.4133 12.8118L32.6829 7.02174C32.8128 6.69361 32.6487 6.32447 32.3206 6.20142L30.1399 5.34693C29.8118 5.21705 29.4426 5.38111 29.3196 5.70924L29.1624 6.11256L27.7063 5.53834L25.136 3.70631C24.8557 3.50807 24.4866 3.33033 24.1311 3.19361L24.5549 2.38697C24.6848 2.15455 24.5618 1.86744 24.2883 1.82642L22.7639 1.60084L23.0579 0.479745C23.1331 0.219979 22.928 -0.0192784 22.6751 0.00122941L18.5393 0.260995C18.2932 0.274667 18.1223 0.534432 18.218 0.77369L18.7717 2.15455L17.5276 3.05689C17.3909 3.14576 17.3225 3.31666 17.3772 3.48072L17.6848 4.4651L15.9758 4.89576C14.8958 5.1692 14.6702 6.31764 15.2102 7.06275C15.5383 7.49342 16.0305 7.71217 16.6936 7.57545ZM17.9173 5.17603L18.0335 5.54517C17.6643 5.79127 17.4866 6.18775 17.5276 6.63892L16.4954 6.85084C15.6546 7.02174 15.3401 5.82545 16.1673 5.61353L17.9173 5.17603ZM4.41627 9.85182C5.40065 8.8401 7.01393 8.81959 8.02565 9.80396C9.03737 10.7883 9.05788 12.4016 8.0735 13.4133C7.08913 14.4251 5.47584 14.4456 4.46413 13.4612C3.45241 12.4768 3.4319 10.8635 4.41627 9.85182ZM6.22096 9.83131C4.62135 9.85182 3.83522 11.8069 4.98366 12.928C6.13209 14.0491 8.06666 13.2151 8.04616 11.6155C8.03249 10.6174 7.21901 9.81764 6.22096 9.83131ZM7.92311 7.5481C7.78639 7.49342 7.64967 7.44557 7.50612 7.40455C7.3694 7.37037 7.25319 7.26783 7.22584 7.11744L7.01393 6.14674L5.41432 6.16724L5.23659 7.09693C5.21608 7.24049 5.12038 7.36353 4.96998 7.40455C4.72389 7.47974 4.35475 7.6233 4.136 7.74635C4.01979 7.82154 3.86256 7.82154 3.73268 7.74635L2.90553 7.19947L1.78444 8.34791L2.32448 9.14088C2.40651 9.25025 2.42018 9.40748 2.35182 9.53736C2.22194 9.78346 2.07838 10.1116 2.00319 10.3782C1.96901 10.5149 1.85963 10.6243 1.71608 10.6516L0.745375 10.8635L0.765883 12.4631L1.69557 12.6409C1.83913 12.6614 1.96217 12.7571 2.00319 12.9075C2.07838 13.1536 2.22194 13.5227 2.34498 13.7415C2.42018 13.8577 2.42018 14.0149 2.34498 14.1448L1.81178 14.9719L2.96022 16.093L3.75319 15.553C3.86256 15.471 4.01979 15.4573 4.14967 15.5256C4.38209 15.6487 4.73756 15.8059 4.98366 15.8743C5.12038 15.9085 5.23659 16.011 5.26393 16.1614L5.47584 17.1321L7.07545 17.1116L7.25319 16.1819C7.2737 16.0383 7.3694 15.9153 7.51979 15.8743C7.76588 15.7991 8.13502 15.6555 8.35377 15.5325C8.46999 15.4573 8.62721 15.4573 8.7571 15.5325L9.59108 16.0725L10.7122 14.9241L10.1721 14.1311C10.0901 14.0217 10.0764 13.8645 10.1448 13.7346C10.2678 13.5022 10.4251 13.1467 10.4866 12.9006C10.5208 12.7639 10.6233 12.6477 10.7737 12.6204L11.7444 12.4085L11.7239 10.8088L10.7942 10.6311C10.6506 10.6106 10.5276 10.5149 10.4866 10.3645C10.4114 10.1184 10.2678 9.74928 10.1448 9.53053C10.0696 9.41432 10.0696 9.25709 10.1448 9.12721L10.6848 8.29322L9.52956 7.17896L8.73659 7.719C8.62721 7.80103 8.46999 7.81471 8.3401 7.74635C8.20338 7.67115 8.05983 7.60279 7.92311 7.5481ZM7.91627 6.74146L7.69069 5.68189C7.65651 5.51099 7.49928 5.38111 7.32155 5.38795L5.12721 5.41529C4.94264 5.40846 4.77858 5.53834 4.7444 5.72291L4.54616 6.75514L3.97194 6.99439L3.06276 6.4065C2.9192 6.3108 2.72096 6.33131 2.59108 6.46119L1.05299 8.03346C0.923109 8.1565 0.895766 8.36158 0.998305 8.51881L1.59303 9.38697L1.35377 9.96803L0.294203 10.1936C0.123305 10.2278 -0.00657808 10.385 0.000257863 10.5628L0.0276016 12.7571C0.0207657 12.9417 0.150648 13.1057 0.335219 13.1399L1.36745 13.3381L1.6067 13.9124L1.01881 14.8215C0.923109 14.9651 0.943617 15.1633 1.0735 15.2932L2.64577 16.8313C2.76881 16.9612 2.97389 16.9885 3.13112 16.886L3.99928 16.2913L4.58034 16.5305L4.80592 17.5901C4.8401 17.761 4.99733 17.8909 5.17506 17.884L7.3694 17.8567C7.55397 17.8635 7.71803 17.7337 7.75221 17.5491L7.95045 16.5169L8.52467 16.2776L9.43385 16.8655C9.57741 16.9612 9.77565 16.9407 9.90553 16.8108L11.4436 15.2385C11.5735 15.1155 11.6008 14.9104 11.4983 14.7532L10.9036 13.885L11.1428 13.304L12.2024 13.0784C12.3733 13.0442 12.5032 12.887 12.4964 12.7092L12.469 10.5149C12.4758 10.3303 12.346 10.1663 12.1614 10.1321L11.1292 9.93385L10.8899 9.35963L11.4778 8.45045C11.5735 8.30689 11.553 8.10865 11.4231 7.97877L9.85085 6.44068C9.7278 6.3108 9.52272 6.28346 9.36549 6.38599L8.49733 6.98072L7.91627 6.74146Z" fill="white"/>
</svg>
