<svg width="33" height="34" viewBox="0 0 33 34" fill="none" xmlns="http://www.w3.org/2000/svg">
<path fill-rule="evenodd" clip-rule="evenodd" d="M5.76343 3.22242C5.67337 3.22242 5.59766 3.14725 5.59766 3.05704V1.04637C5.59766 0.956227 5.67321 0.880981 5.76343 0.880981H12.3474C12.4376 0.880981 12.5137 0.955682 12.5137 1.04637V3.05704C12.5137 3.14772 12.4376 3.22242 12.3474 3.22242H5.76343ZM26.1652 11.0315C26.1652 10.8932 26.2796 10.7793 26.4179 10.7793H30.2679L28.5607 13.1253L27.868 12.2012C27.7447 12.0367 27.5106 12.0032 27.3463 12.1266C27.1815 12.2502 27.1481 12.4837 27.2717 12.6485L28.2677 13.9768C28.418 14.1772 28.7199 14.1746 28.8673 13.9721L30.6271 11.5525V14.9884C30.6271 15.1267 30.513 15.2412 30.3748 15.2412H26.418C26.2793 15.2412 26.1653 15.1271 26.1653 14.9884V11.0315H26.1652ZM26.4179 7.32166C26.2797 7.32166 26.1652 7.20797 26.1652 7.06964V3.11271C26.1652 2.97407 26.2792 2.85976 26.4179 2.85976H30.2679L28.5608 5.20635L27.8681 4.28226C27.7445 4.11742 27.5111 4.08413 27.3464 4.20779C27.1816 4.33139 27.1481 4.56484 27.2717 4.72968L28.2678 6.05721C28.4181 6.25753 28.72 6.25535 28.8673 6.05277L30.6272 3.6339V7.06972C30.6272 7.20758 30.5127 7.32174 30.3748 7.32174L26.4179 7.32166ZM30.2679 18.6989L28.5607 21.0449L27.868 20.1207C27.7445 19.9559 27.511 19.9225 27.3463 20.0462C27.1815 20.1698 27.148 20.4033 27.2717 20.5681L28.2677 21.8957C28.4177 22.0955 28.7201 22.0941 28.8673 21.8918L30.6271 19.4722V22.9081C30.6271 23.0461 30.5127 23.1602 30.3748 23.1602H26.418C26.2797 23.1602 26.1653 23.0465 26.1653 22.9081V18.951C26.1653 18.8127 26.2797 18.6989 26.418 18.6989H30.2679ZM19.7338 21.4292C19.6759 21.5427 19.6802 21.6788 19.7452 21.7885C20.0426 22.2906 20.2672 22.8331 20.4124 23.3983C20.4441 23.5218 20.5371 23.6208 20.6583 23.6602L22.1068 24.1303V25.7674L20.6584 26.2377C20.5372 26.277 20.4441 26.3761 20.4124 26.4996C20.2672 27.065 20.0425 27.6068 19.7452 28.1093C19.6804 28.219 19.6759 28.3551 19.7339 28.4687L20.4257 29.8263L19.2686 30.9835L17.9107 30.2916C17.7971 30.2337 17.6612 30.238 17.5514 30.3031C17.0496 30.6004 16.5069 30.8253 15.9419 30.9702C15.8182 31.002 15.7195 31.0948 15.68 31.2164L15.2097 32.6648H13.5726L13.1024 31.2164C13.0629 31.095 12.9641 31.002 12.8405 30.9702C12.2755 30.8251 11.7327 30.6002 11.2307 30.3031C11.1209 30.2382 10.985 30.2337 10.8714 30.2916L9.51427 30.9835L8.35634 29.8263L9.04814 28.4686C9.106 28.355 9.10163 28.2189 9.03675 28.1092C8.73967 27.6071 8.51471 27.0646 8.3696 26.4995C8.33786 26.3758 8.24507 26.2771 8.12359 26.2376L6.6752 25.7673V24.1302L8.12366 23.6601C8.24531 23.6206 8.33778 23.5221 8.3696 23.3982C8.51479 22.8329 8.73959 22.2909 9.03675 21.7885C9.10163 21.6788 9.10607 21.5427 9.04822 21.4291L8.35642 20.072L9.51427 18.9142L10.8714 19.6061C10.985 19.664 11.1209 19.6595 11.2307 19.5946C11.733 19.2973 12.2751 19.0724 12.8405 18.9273C12.9641 18.8955 13.0629 18.8027 13.1024 18.6812L13.5726 17.2329H15.2097L15.68 18.6812C15.7195 18.8027 15.8182 18.8955 15.9419 18.9273C16.5071 19.0723 17.0492 19.2973 17.5513 19.5946C17.661 19.6595 17.797 19.664 17.9106 19.6061L19.2686 18.9142L20.4257 20.0721L19.7338 21.4292ZM14.3915 19.8903C11.6017 19.8903 9.33244 22.1594 9.33244 24.9492C9.33244 27.7388 11.6021 30.0076 14.3915 30.0076C17.1806 30.0076 19.4496 27.7381 19.4496 24.9492C19.4496 22.16 17.181 19.8903 14.3915 19.8903Z" fill="#1C5540"/>
<path fill-rule="evenodd" clip-rule="evenodd" d="M30.4891 11.9694L28.9744 14.052C28.773 14.3283 28.3613 14.3315 28.1569 14.0582L27.1609 12.7299C26.9921 12.5056 27.0382 12.1871 27.2626 12.0183C27.4869 11.8503 27.806 11.8957 27.9741 12.1201L28.5567 12.8973L29.9992 10.9151H26.4154C26.3514 10.9151 26.2982 10.9685 26.2982 11.0316V14.9886C26.2982 15.0523 26.3514 15.1059 26.4154 15.1059H30.3722C30.4355 15.1059 30.489 15.0523 30.489 14.9886L30.4891 11.9694ZM26.2983 22.9082C26.2983 22.9713 26.3515 23.0248 26.4155 23.0248H30.3723C30.4356 23.0248 30.4891 22.9713 30.4891 22.9082V19.889L28.9744 21.9715C28.7736 22.247 28.3612 22.2502 28.1569 21.9769L27.1609 20.6493C26.9921 20.4244 27.0382 20.1058 27.2626 19.9377C27.4869 19.769 27.806 19.8144 27.9741 20.0393L28.5567 20.8167L29.9992 18.8345H26.4154C26.3514 18.8345 26.2982 18.8879 26.2982 18.951V22.9082H26.2983ZM17.9698 19.727C17.8149 19.8063 17.6297 19.8003 17.4799 19.7114C16.9874 19.42 16.4578 19.2004 15.9059 19.0587C15.737 19.0154 15.6027 18.8887 15.5487 18.7233L15.1089 17.3686H13.6688L13.229 18.7233C13.1747 18.8887 13.0403 19.0154 12.8719 19.0587C12.3195 19.2003 11.79 19.4199 11.2974 19.7114C11.1476 19.8002 10.9629 19.8057 10.8075 19.727L9.53817 19.0798L8.51958 20.0984L9.16669 21.3677C9.24591 21.523 9.24007 21.708 9.15117 21.8576C8.86001 22.3504 8.64028 22.8797 8.4986 23.4321C8.45509 23.6008 8.329 23.7349 8.16323 23.7892L6.80849 24.2289V25.6689L8.16323 26.1088C8.32861 26.163 8.45517 26.2973 8.4986 26.4659C8.64028 27.0183 8.8604 27.5483 9.15117 28.0403C9.24007 28.1899 9.24591 28.375 9.16669 28.5302L8.51958 29.8001L9.53817 30.8181L10.8075 30.1709C10.9628 30.0916 11.1476 30.0977 11.2974 30.1865C11.79 30.4778 12.3203 30.6974 12.8719 30.839C13.0403 30.8823 13.1747 31.0091 13.229 31.1746L13.6688 32.5292H15.1089L15.5487 31.1746C15.6027 31.0091 15.737 30.8824 15.9059 30.839C16.4578 30.6974 16.9881 30.4778 17.4799 30.1865C17.6298 30.0977 17.8149 30.0916 17.9698 30.1709L19.2399 30.8181L20.2577 29.8001L19.6106 28.5302C19.5315 28.375 19.5376 28.1899 19.6261 28.0403C19.9177 27.5475 20.137 27.0183 20.2787 26.4659C20.3222 26.2973 20.4491 26.163 20.6141 26.1088L21.9688 25.6689V24.2289L20.6141 23.7892C20.4491 23.7349 20.3221 23.6007 20.2787 23.4321C20.137 22.8797 19.9177 22.3497 19.6261 21.8576C19.5376 21.708 19.5314 21.523 19.6106 21.3677L20.2577 20.0984L19.2399 19.0798L17.9698 19.727ZM2.27672 23.3533C1.58188 23.3533 1.01664 22.7888 1.01664 22.0941V4.11569C1.01664 3.42101 1.58181 2.85592 2.27672 2.85592H4.71415V3.0571C4.71415 3.6338 5.18387 4.10352 5.76104 4.10352H12.345C12.9227 4.10352 13.392 3.6338 13.392 3.0571V2.85592H15.8298C16.5243 2.85592 17.0899 3.42101 17.0899 4.11569V18.3838C16.8741 18.295 16.6547 18.217 16.4316 18.1501L15.9615 16.7039C15.8935 16.4938 15.6983 16.3521 15.4782 16.3521H13.2993C13.0792 16.3521 12.8839 16.4937 12.816 16.7039L12.3459 18.1501C11.889 18.287 11.4472 18.4706 11.0265 18.6976L9.67018 18.0064C9.47376 17.9069 9.23578 17.9448 9.08014 18.0998L7.53982 19.6402C7.38457 19.7961 7.34652 20.0341 7.44625 20.2305L8.13757 21.5866C7.91051 22.0073 7.72649 22.4492 7.5898 22.9067L6.21408 23.3533L2.27672 23.3533ZM5.73071 3.0571C5.73071 3.07269 5.74584 3.08696 5.76097 3.08696H12.345C12.3605 3.08696 12.3756 3.07269 12.3756 3.0571V1.04643C12.3756 1.03083 12.3605 1.01656 12.345 1.01656H5.76097C5.74584 1.01656 5.73071 1.03083 5.73071 1.04643V3.0571ZM26.2983 7.06978C26.2983 7.13271 26.3515 7.1862 26.4155 7.1862H30.3723C30.4356 7.1862 30.4891 7.13263 30.4891 7.06978V4.05058L28.9744 6.13252C28.7733 6.40902 28.3612 6.41183 28.1569 6.1386L27.1609 4.81107C26.9921 4.58604 27.0382 4.26743 27.2626 4.09947C27.4869 3.93065 27.806 3.97604 27.9741 4.20107L28.5567 4.97833L29.9992 2.99542H26.4154C26.3514 2.99542 26.2982 3.04914 26.2982 3.11277V7.06978H26.2983ZM32.1793 9.64562L31.4417 10.6602C31.4825 10.7766 31.5053 10.9014 31.5053 11.0315V14.9886C31.5053 15.6141 30.9972 16.1223 30.3722 16.1223H26.4154C25.7897 16.1223 25.2815 15.6141 25.2815 14.9886V13.5593H23.1772V20.5382H25.2815V18.951C25.2815 18.3261 25.7897 17.8179 26.4154 17.8179H30.3722C30.4868 17.8179 30.5981 17.8349 30.7025 17.8673L31.357 16.9674C31.5216 16.7404 31.8395 16.6902 32.0665 16.8549C32.2936 17.0204 32.3437 17.3382 32.1791 17.5652L31.4416 18.579C31.4823 18.6957 31.5052 18.821 31.5052 18.9511V22.9082C31.5052 23.5331 30.997 24.0413 30.3721 24.0413H26.4153C25.7895 24.0413 25.2814 23.5331 25.2814 22.9082V21.5549H22.6689C22.3882 21.5549 22.1603 21.3271 22.1603 21.0465V13.5593H18.1058V18.5166L19.1069 18.0064C19.3033 17.9068 19.5413 17.9447 19.6969 18.0998L21.2376 19.6402C21.3933 19.796 21.4306 20.034 21.3312 20.2304L20.6399 21.5865C20.867 22.0073 21.0498 22.4491 21.1872 22.9066L22.6343 23.3762C22.8435 23.444 22.9852 23.6391 22.9852 23.8593V26.0382C22.9852 26.2585 22.8435 26.4536 22.6343 26.5214L21.1872 26.9911C21.0506 27.4485 20.867 27.8903 20.6399 28.3112L21.3312 29.6672C21.4306 29.8637 21.3934 30.1016 21.2376 30.2576L19.6969 31.7981C19.5413 31.9538 19.3033 31.9911 19.1069 31.8915L17.751 31.2003C17.3298 31.4273 16.888 31.6101 16.4312 31.7479L15.9611 33.1948C15.8931 33.404 15.6979 33.5458 15.4778 33.5458H13.2989C13.0788 33.5458 12.8835 33.404 12.8156 33.1948L12.3455 31.7479C11.8894 31.6109 11.4468 31.4273 11.0261 31.2003L9.66979 31.8915C9.47337 31.9911 9.23539 31.9538 9.07975 31.7981L7.53943 30.2576C7.38418 30.1017 7.34613 29.8638 7.44586 29.6672L8.13718 28.3112C7.91012 27.8903 7.72688 27.4485 7.58941 26.9918L6.14304 26.5214C5.93384 26.4536 5.79138 26.2585 5.79138 26.0382V24.3698H2.27672C1.02132 24.3698 0 23.3485 0 22.094V4.11569C0 2.8606 1.02132 1.83936 2.27672 1.83936H4.71415V1.04643C4.71415 0.469801 5.18387 0 5.76104 0H12.345C12.9227 0 13.392 0.469801 13.392 1.04643V1.83936H15.8298C17.0848 1.83936 18.1062 2.8606 18.1062 4.11569V12.5427H22.1607V5.09077C22.1607 4.81021 22.3886 4.58245 22.6693 4.58245H25.2818V3.11277C25.2818 2.48788 25.7899 1.97901 26.4157 1.97901H30.3724C30.487 1.97901 30.5983 1.99656 30.7027 2.02845L31.3572 1.12854C31.5218 0.901394 31.8397 0.851334 32.0668 1.01664C32.2938 1.18203 32.344 1.49993 32.1794 1.72692L31.4418 2.74075C31.4826 2.85732 31.5054 2.98201 31.5054 3.11285V7.06986C31.5054 7.6946 30.9973 8.20292 30.3723 8.20292H26.4155C25.7898 8.20292 25.2816 7.6946 25.2816 7.06986V5.59909H23.1773V12.5427H25.2816V11.0315C25.2816 10.4067 25.7898 9.89833 26.4155 9.89833H30.3723C30.4868 9.89833 30.5982 9.91611 30.7026 9.94793L31.357 9.04778C31.5216 8.82079 31.8396 8.77058 32.0666 8.93604C32.2938 9.1008 32.3439 9.41863 32.1793 9.64562ZM14.3892 20.7713C16.6926 20.7713 18.5665 22.6452 18.5665 24.9493C18.5665 27.2527 16.6927 29.1266 14.3892 29.1266C12.0849 29.1266 10.2112 27.2527 10.2112 24.9493C10.2112 22.6452 12.0849 20.7713 14.3892 20.7713ZM14.3892 19.7548C17.2528 19.7548 19.5827 22.0848 19.5827 24.9493C19.5827 27.8132 17.2528 30.1432 14.3892 30.1432C11.5244 30.1432 9.19453 27.8131 9.19453 24.9493C9.19453 22.0848 11.5244 19.7548 14.3892 19.7548ZM13.8807 22.2846C13.8807 22.0041 14.1077 21.7764 14.3892 21.7764C14.6694 21.7764 14.8973 22.0041 14.8973 22.2846V22.4364C15.367 22.4927 15.7917 22.6127 16.1857 22.7997C16.4396 22.9203 16.5475 23.2232 16.4268 23.4774C16.3061 23.7309 16.0033 23.8386 15.7498 23.7179C15.399 23.5513 14.8648 23.4153 14.3931 23.4184C13.6186 23.4235 12.8458 23.9237 13.7309 24.3123C14.2019 24.5191 14.8411 24.3613 15.4824 24.6566C16.2649 25.0069 16.4586 25.5456 16.4831 25.9367C16.4847 25.9598 16.4847 25.9821 16.4823 26.0051C16.4178 26.7506 15.8376 27.2882 14.8974 27.4527V27.6133C14.8974 27.8938 14.6696 28.1216 14.3892 28.1216C14.1078 28.1216 13.8808 27.8939 13.8808 27.6133V27.4627C13.4328 27.4085 13.0011 27.2879 12.592 27.1015C12.3362 26.9857 12.2232 26.6842 12.3389 26.4286C12.455 26.1732 12.7566 26.06 13.012 26.1761C13.5873 26.4376 14.4592 26.6137 15.0771 26.3488C15.4017 26.2079 15.4537 26.0547 15.4653 25.9672C15.4545 25.8859 15.4008 25.7355 15.0736 25.5871C14.5706 25.3702 14.0609 25.5556 13.3136 25.2394C11.7863 24.5634 12.0458 22.7784 13.8807 22.4488V22.2846ZM10.3831 16.1163C10.6641 16.1163 10.8913 15.8885 10.8913 15.6081C10.8913 15.3268 10.6642 15.0998 10.3831 15.0998H4.63376C4.35312 15.0998 4.1252 15.3268 4.1252 15.6081C4.1252 15.8886 4.35305 16.1163 4.63376 16.1163H10.3831ZM4.63376 12.1938H13.4727C13.7534 12.1938 13.9809 11.966 13.9809 11.6854C13.9809 11.4048 13.7534 11.1772 13.4727 11.1772H4.63376C4.35312 11.1772 4.1252 11.4048 4.1252 11.6854C4.1252 11.9661 4.35305 12.1938 4.63376 12.1938ZM4.1252 7.76306C4.1252 8.04416 4.35305 8.2713 4.63376 8.2713H13.4727C13.7534 8.2713 13.9809 8.04416 13.9809 7.76306C13.9809 7.48235 13.7534 7.25474 13.4727 7.25474H4.63376C4.35305 7.25474 4.1252 7.48235 4.1252 7.76306Z" fill="white"/>
</svg>
