<svg width="35" height="35" viewBox="0 0 35 35" fill="none" xmlns="http://www.w3.org/2000/svg">
<path d="M14.998 33.8332H2.91676C1.95423 33.8332 1.16671 33.0457 1.16671 32.0832V2.91666C1.16671 1.95416 1.95423 1.16666 2.91676 1.16666H23.9175C24.88 1.16666 25.6675 1.95416 25.6675 2.91666V16.9574C25.6675 17.2783 25.93 17.5408 26.2509 17.5408C26.5717 17.5408 26.8342 17.2783 26.8342 16.9574V2.91666C26.8342 1.30666 25.5275 0 23.9175 0H2.91676C1.30671 0 0 1.30666 0 2.91666V32.0832C0 33.6932 1.30671 34.9999 2.91676 34.9999H14.998C15.3188 34.9999 15.5813 34.7374 15.5813 34.4165C15.5813 34.0957 15.3188 33.8332 14.998 33.8332Z" fill="white"/>
<path d="M34.6694 31.4417L27.7567 19.8392C27.3191 19.1042 26.5374 18.6667 25.6683 18.6667C24.7991 18.6667 24.0174 19.1042 23.5799 19.8392L16.6671 31.4417C16.2354 32.1709 16.2238 33.0459 16.6438 33.7809C17.0755 34.545 17.8688 35 18.7555 35H32.581C33.4735 35 34.261 34.545 34.6927 33.7809C35.1127 33.0459 35.1011 32.1709 34.6694 31.4417ZM33.6777 33.2092C33.456 33.6 33.0418 33.8334 32.5751 33.8334H18.7497C18.283 33.8334 17.8747 33.6 17.6472 33.2092C17.4372 32.8359 17.4372 32.41 17.6588 32.0425L24.5716 20.4401C24.7991 20.0609 25.2016 19.8334 25.6566 19.8334C26.1116 19.8334 26.5199 20.0609 26.7416 20.4401L33.6543 32.0425C33.876 32.41 33.876 32.8359 33.666 33.2092H33.6777Z" fill="white"/>
<path d="M25.6693 21.5833C25.3484 21.5833 25.0859 21.8458 25.0859 22.1666V27.9999C25.0859 28.3207 25.3484 28.5832 25.6693 28.5832C25.9901 28.5832 26.2526 28.3207 26.2526 27.9999V22.1666C26.2526 21.8458 25.9901 21.5833 25.6693 21.5833Z" fill="white"/>
<path d="M25.6693 29.7498C25.3484 29.7498 25.0859 30.0123 25.0859 30.3331V31.4997C25.0859 31.8206 25.3484 32.0831 25.6693 32.0831C25.9901 32.0831 26.2526 31.8206 26.2526 31.4997V30.3331C26.2526 30.0123 25.9901 29.7498 25.6693 29.7498Z" fill="white"/>
<path d="M8.75144 6.99991C9.07228 6.99991 9.33479 6.73742 9.33479 6.41658C9.33479 6.09575 9.07228 5.83325 8.75144 5.83325H5.83467C5.19299 5.83325 4.66797 6.35825 4.66797 6.99991V11.6666C4.66797 12.3082 5.19299 12.8332 5.83467 12.8332H10.5015C11.1432 12.8332 11.6682 12.3082 11.6682 11.6666V10.4999C11.6682 10.1791 11.4057 9.91657 11.0848 9.91657C10.764 9.91657 10.5015 10.1791 10.5015 10.4999V11.6666H5.83467V6.99991H8.75144Z" fill="white"/>
<path d="M12.6659 6.00266C12.4384 5.77516 12.0708 5.77516 11.8433 6.00266L8.7574 9.08848L8.00488 8.33598C7.77737 8.10848 7.40986 8.10848 7.18235 8.33598C6.95484 8.56348 6.95484 8.93098 7.18235 9.15848L8.34905 10.3251C8.46572 10.4418 8.61156 10.4943 8.76323 10.4943C8.91491 10.4943 9.06074 10.436 9.17741 10.3251L12.6775 6.82515C12.905 6.59765 12.905 6.23015 12.6775 6.00266H12.6659Z" fill="white"/>
<path d="M4.66797 21.5836C4.66797 22.2252 5.19299 22.7502 5.83467 22.7502H10.5015C11.1432 22.7502 11.6682 22.2252 11.6682 21.5836V20.4169C11.6682 20.0961 11.4057 19.8336 11.0848 19.8336C10.764 19.8336 10.5015 20.0961 10.5015 20.4169V21.5836H5.83467V16.9169H8.75144C9.07228 16.9169 9.33479 16.6544 9.33479 16.3336C9.33479 16.0127 9.07228 15.7502 8.75144 15.7502H5.83467C5.19299 15.7502 4.66797 16.2752 4.66797 16.9169V21.5836Z" fill="white"/>
<path d="M12.6659 15.9192C12.4384 15.6917 12.0708 15.6917 11.8433 15.9192L8.7574 19.005L8.00488 18.2525C7.77737 18.025 7.40986 18.025 7.18235 18.2525C6.95484 18.48 6.95484 18.8475 7.18235 19.075L8.34905 20.2416C8.46572 20.3583 8.61156 20.4108 8.76323 20.4108C8.91491 20.4108 9.06074 20.3525 9.17741 20.2416L12.6775 16.7417C12.905 16.5142 12.905 16.1467 12.6775 15.9192H12.6659Z" fill="white"/>
<path d="M14.5794 11.6664H18.0796C18.4004 11.6664 18.6629 11.4039 18.6629 11.0831C18.6629 10.7623 18.4004 10.4998 18.0796 10.4998H14.5794C14.2586 10.4998 13.9961 10.7623 13.9961 11.0831C13.9961 11.4039 14.2586 11.6664 14.5794 11.6664Z" fill="white"/>
<path d="M21.5797 7H14.5794C14.2586 7 13.9961 7.2625 13.9961 7.58333C13.9961 7.90416 14.2586 8.16666 14.5794 8.16666H21.5797C21.9005 8.16666 22.163 7.90416 22.163 7.58333C22.163 7.2625 21.9005 7 21.5797 7Z" fill="white"/>
<path d="M14.5794 20.4167C14.2586 20.4167 13.9961 20.6792 13.9961 21.0001C13.9961 21.3209 14.2586 21.5834 14.5794 21.5834H18.0796C18.4004 21.5834 18.6629 21.3209 18.6629 21.0001C18.6629 20.6792 18.4004 20.4167 18.0796 20.4167H14.5794Z" fill="white"/>
<path d="M22.163 17.5001C22.163 17.1792 21.9005 16.9167 21.5797 16.9167H14.5794C14.2586 16.9167 13.9961 17.1792 13.9961 17.5001C13.9961 17.8209 14.2586 18.0834 14.5794 18.0834H21.5797C21.9005 18.0834 22.163 17.8209 22.163 17.5001Z" fill="white"/>
</svg>
