<svg width="35" height="35" viewBox="0 0 35 35" fill="none" xmlns="http://www.w3.org/2000/svg">
<path d="M23.5902 9.8911C23.3444 9.8911 23.1032 9.77241 22.9564 9.55252L19.9129 4.9873C19.6801 4.6373 19.7744 4.16556 20.1236 3.93197C20.4729 3.69839 20.9454 3.79273 21.179 4.14273L24.2225 8.70795C24.4553 9.05795 24.3609 9.52969 24.0117 9.76328C23.8823 9.84926 23.7355 9.8911 23.5902 9.8911Z" fill="white"/>
<path d="M20.5452 9.8911C20.4006 9.8911 20.2538 9.84926 20.1236 9.76328C19.7744 9.52969 19.6801 9.05795 19.9129 8.70795L22.9564 4.14273C23.1892 3.79273 23.6609 3.69839 24.0117 3.93197C24.3609 4.16556 24.4553 4.6373 24.2225 4.9873L21.179 9.55252C21.0321 9.77241 20.7909 9.8911 20.5452 9.8911Z" fill="white"/>
<path d="M18.2614 7.60878H15.2179C14.7979 7.60878 14.457 7.26867 14.457 6.84791C14.457 6.42714 14.7979 6.08704 15.2179 6.08704H18.2614C18.6814 6.08704 19.0222 6.42714 19.0222 6.84791C19.0222 7.26867 18.6814 7.60878 18.2614 7.60878Z" fill="white"/>
<path d="M18.2585 9.89128C17.8385 9.89128 17.4977 9.55117 17.4977 9.13041V5.47823C17.5038 5.36791 17.4695 5.32682 17.4231 5.32226L15.9759 5.32606C16.0033 5.32682 15.9698 5.36867 15.9736 5.41584L15.9759 9.13041C15.9759 9.55117 15.6351 9.89128 15.2151 9.89128C14.7951 9.89128 14.4542 9.55117 14.4542 9.13041V5.47823C14.3857 4.67019 15.0332 3.89334 15.9014 3.80813L17.4977 3.80432C18.4411 3.89334 19.0886 4.67095 19.0171 5.54139L19.0194 9.13041C19.0194 9.55117 18.6785 9.89128 18.2585 9.89128Z" fill="white"/>
<path d="M11.4132 9.89128C10.9932 9.89128 10.6523 9.55117 10.6523 9.13041V4.56519C10.6523 4.14443 10.9932 3.80432 11.4132 3.80432C11.8332 3.80432 12.1741 4.14443 12.1741 4.56519V9.13041C12.1741 9.55117 11.8332 9.89128 11.4132 9.89128Z" fill="white"/>
<path d="M12.9372 5.32606H9.89368C9.47368 5.32606 9.13281 4.98595 9.13281 4.56519C9.13281 4.14443 9.47368 3.80432 9.89368 3.80432H12.9372C13.3572 3.80432 13.698 4.14443 13.698 4.56519C13.698 4.98595 13.3572 5.32606 12.9372 5.32606Z" fill="white"/>
<path d="M23.5901 23.587H9.89368C9.47368 23.587 9.13281 23.2469 9.13281 22.8262C9.13281 22.4054 9.47368 22.0653 9.89368 22.0653H23.5901C24.0101 22.0653 24.351 22.4054 24.351 22.8262C24.351 23.2469 24.0101 23.587 23.5901 23.587Z" fill="white"/>
<path d="M23.5901 18.2609H9.89368C9.47368 18.2609 9.13281 17.9208 9.13281 17.5C9.13281 17.0792 9.47368 16.7391 9.89368 16.7391H23.5901C24.0101 16.7391 24.351 17.0792 24.351 17.5C24.351 17.9208 24.0101 18.2609 23.5901 18.2609Z" fill="white"/>
<path d="M23.5901 12.9347H9.89368C9.47368 12.9347 9.13281 12.5946 9.13281 12.1738C9.13281 11.7531 9.47368 11.413 9.89368 11.413H23.5901C24.0101 11.413 24.351 11.7531 24.351 12.1738C24.351 12.5946 24.0101 12.9347 23.5901 12.9347Z" fill="white"/>
<path d="M31.1971 1.52174H8.37024C7.95024 1.52174 7.60938 1.18163 7.60938 0.76087C7.60938 0.340109 7.95024 0 8.37024 0H31.1971C31.6171 0 31.958 0.340109 31.958 0.76087C31.958 1.18163 31.6171 1.52174 31.1971 1.52174Z" fill="white"/>
<path d="M5.32337 27.3913C4.90337 27.3913 4.5625 27.0512 4.5625 26.6304V3.80433C4.5625 3.38357 4.90337 3.04346 5.32337 3.04346C5.74337 3.04346 6.08424 3.38357 6.08424 3.80433V26.6304C6.08424 27.0512 5.74337 27.3913 5.32337 27.3913Z" fill="white"/>
<path d="M5.32337 4.56522C4.90337 4.56522 4.5625 4.22511 4.5625 3.80435C4.5625 1.70663 6.26913 0 8.36685 0C8.78685 0 9.12772 0.340109 9.12772 0.76087C9.12772 1.18163 8.78685 1.52174 8.36685 1.52174C7.10837 1.52174 6.08424 2.54587 6.08424 3.80435C6.08424 4.22511 5.74337 4.56522 5.32337 4.56522Z" fill="white"/>
<path d="M3.80435 35C1.70663 35 0 33.2934 0 31.1957C0 30.7749 0.34087 30.4348 0.76087 30.4348C1.18087 30.4348 1.52174 30.7749 1.52174 31.1957C1.52174 32.4542 2.54587 33.4783 3.80435 33.4783C4.22435 33.4783 4.56522 33.8184 4.56522 34.2392C4.56522 34.6599 4.22435 35 3.80435 35Z" fill="white"/>
<path d="M25.1082 35H3.80384C3.38384 35 3.04297 34.6599 3.04297 34.2391C3.04297 33.8184 3.38384 33.4783 3.80384 33.4783H25.1082C25.5282 33.4783 25.8691 33.8184 25.8691 34.2391C25.8691 34.6599 25.5282 35 25.1082 35Z" fill="white"/>
<path d="M22.0652 27.3912H0.76087C0.34087 27.3912 0 27.0511 0 26.6304C0 26.2096 0.34087 25.8695 0.76087 25.8695H22.0652C22.4852 25.8695 22.8261 26.2096 22.8261 26.6304C22.8261 27.0511 22.4852 27.3912 22.0652 27.3912Z" fill="white"/>
<path d="M22.0656 31.9566C21.6456 31.9566 21.3047 31.6165 21.3047 31.1957V26.6305C21.3047 26.2097 21.6456 25.8696 22.0656 25.8696C22.4856 25.8696 22.8264 26.2097 22.8264 26.6305V31.1957C22.8264 31.6165 22.4856 31.9566 22.0656 31.9566Z" fill="white"/>
<path d="M25.109 34.9999C23.0471 34.9999 21.3047 33.2575 21.3047 31.1956C21.3047 30.7748 21.6456 30.4347 22.0656 30.4347C22.4856 30.4347 22.8264 30.7748 22.8264 31.1956C22.8264 32.4327 23.8719 33.4782 25.109 33.4782C26.3462 33.4782 27.3916 32.4327 27.3916 31.1956C27.3916 30.7748 27.7325 30.4347 28.1525 30.4347C28.5725 30.4347 28.9134 30.7748 28.9134 31.1956C28.9134 33.2575 27.171 34.9999 25.109 34.9999Z" fill="white"/>
<path d="M0.76087 31.9565C0.34087 31.9565 0 31.6164 0 31.1956V26.6304C0 26.2096 0.34087 25.8695 0.76087 25.8695C1.18087 25.8695 1.52174 26.2096 1.52174 26.6304V31.1956C1.52174 31.6164 1.18087 31.9565 0.76087 31.9565Z" fill="white"/>
<path d="M34.2385 9.1305H28.1515C27.7315 9.1305 27.3906 8.7904 27.3906 8.36963C27.3906 7.94887 27.7315 7.60876 28.1515 7.60876H34.2385C34.6585 7.60876 34.9993 7.94887 34.9993 8.36963C34.9993 8.7904 34.6585 9.1305 34.2385 9.1305Z" fill="white"/>
<path d="M28.1515 31.9565C27.7315 31.9565 27.3906 31.6164 27.3906 31.1956V3.80433C27.3906 3.38357 27.7315 3.04346 28.1515 3.04346C28.5715 3.04346 28.9124 3.38357 28.9124 3.80433V31.1956C28.9124 31.6164 28.5715 31.9565 28.1515 31.9565Z" fill="white"/>
<path d="M34.2385 4.56522C33.8185 4.56522 33.4776 4.22511 33.4776 3.80435C33.4776 2.56717 32.4321 1.52174 31.195 1.52174C29.9578 1.52174 28.9124 2.56717 28.9124 3.80435C28.9124 4.22511 28.5715 4.56522 28.1515 4.56522C27.7315 4.56522 27.3906 4.22511 27.3906 3.80435C27.3906 1.74239 29.133 0 31.195 0C33.2569 0 34.9993 1.74239 34.9993 3.80435C34.9993 4.22511 34.6585 4.56522 34.2385 4.56522Z" fill="white"/>
<path d="M34.2413 9.13041C33.8213 9.13041 33.4805 8.7903 33.4805 8.36954V3.80433C33.4805 3.38357 33.8213 3.04346 34.2413 3.04346C34.6613 3.04346 35.0022 3.38357 35.0022 3.80433V8.36954C35.0022 8.7903 34.6613 9.13041 34.2413 9.13041Z" fill="white"/>
</svg>
