<svg width="82" height="51" viewBox="0 0 82 51" fill="none" xmlns="http://www.w3.org/2000/svg">
<path d="M68.8358 25.7012C70.1376 25.7012 71.4103 26.0872 72.4928 26.8105C73.5753 27.5338 74.419 28.5619 74.9172 29.7647C75.4154 30.9675 75.5458 32.291 75.2918 33.5679C75.0378 34.8448 74.4109 36.0176 73.4903 36.9382C72.5697 37.8588 71.3968 38.4857 70.1199 38.7397C68.8431 38.9937 67.5195 38.8633 66.3167 38.3651C65.1139 37.8669 64.0859 37.0232 63.3626 35.9407C62.6393 34.8582 62.2532 33.5856 62.2532 32.2837C62.2551 30.5385 62.9492 28.8652 64.1832 27.6312C65.4173 26.3971 67.0905 25.703 68.8358 25.7012Z" fill="#EDEDED"/>
<path d="M68.8353 19.1172C71.4391 19.1172 73.9844 19.8893 76.1494 21.3359C78.3143 22.7825 80.0017 24.8386 80.9982 27.2442C81.9946 29.6498 82.2553 32.2968 81.7473 34.8506C81.2394 37.4043 79.9855 39.7501 78.1443 41.5913C76.3032 43.4325 73.9574 44.6863 71.4036 45.1943C68.8499 45.7022 66.2028 45.4415 63.7972 44.4451C61.3916 43.4487 59.3355 41.7613 57.8889 39.5963C56.4424 37.4313 55.6702 34.886 55.6702 32.2822C55.6745 28.7919 57.0629 25.4458 59.5309 22.9778C61.9989 20.5098 65.345 19.1214 68.8353 19.1172ZM68.8353 40.7866C70.5173 40.7866 72.1615 40.2878 73.5601 39.3534C74.9586 38.4189 76.0486 37.0907 76.6923 35.5367C77.336 33.9827 77.5044 32.2728 77.1763 30.6231C76.8481 28.9734 76.0382 27.458 74.8488 26.2687C73.6594 25.0793 72.1441 24.2694 70.4944 23.9412C68.8447 23.6131 67.1347 23.7815 65.5808 24.4252C64.0268 25.0688 62.6986 26.1589 61.7641 27.5574C60.8296 28.956 60.3309 30.6002 60.3309 32.2822C60.3333 34.537 61.2301 36.6987 62.8245 38.293C64.4188 39.8874 66.5805 40.7842 68.8353 40.7866Z" fill="#EDEDED"/>
<path d="M13.1663 38.8652C9.53115 38.8652 6.58428 35.9184 6.58428 32.2832C6.58428 28.6481 9.53115 25.7012 13.1663 25.7012C16.8015 25.7012 19.7483 28.6481 19.7483 32.2832C19.7483 35.9184 16.8015 38.8652 13.1663 38.8652Z" fill="#EDEDED"/>
<path d="M13.1653 19.1172C15.7691 19.1172 18.3145 19.8893 20.4794 21.3359C22.6444 22.7825 24.3318 24.8386 25.3282 27.2442C26.3247 29.6498 26.5854 32.2968 26.0774 34.8506C25.5694 37.4043 24.3156 39.7501 22.4744 41.5913C20.6333 43.4325 18.2875 44.6863 15.7337 45.1943C13.1799 45.7022 10.5329 45.4415 8.12731 44.4451C5.72171 43.4487 3.66562 41.7613 2.21903 39.5963C0.772436 37.4313 0.000318527 34.886 0.000318527 32.2822C0.00455666 28.7919 1.39294 25.4458 3.86094 22.9778C6.32895 20.5098 9.67507 19.1214 13.1653 19.1172ZM13.1653 40.7866C14.8474 40.7866 16.4916 40.2878 17.8901 39.3534C19.2887 38.4189 20.3787 37.0907 21.0224 35.5367C21.6661 33.9827 21.8345 32.2728 21.5063 30.6231C21.1782 28.9734 20.3682 27.458 19.1789 26.2687C17.9895 25.0793 16.4742 24.2694 14.8245 23.9412C13.1748 23.6131 11.4648 23.7815 9.91085 24.4252C8.35687 25.0688 7.02866 26.1589 6.09418 27.5574C5.1597 28.956 4.66093 30.6002 4.66093 32.2822C4.66339 34.537 5.56018 36.6987 7.15453 38.293C8.74889 39.8874 10.9106 40.7842 13.1653 40.7866Z" fill="#EDEDED"/>
<path d="M61.5655 23.441C61.7347 23.4408 61.9008 23.396 62.0471 23.3111C62.1933 23.2263 62.3146 23.1043 62.3987 22.9575C62.4827 22.8107 62.5265 22.6443 62.5257 22.4752C62.5248 22.3061 62.4794 22.1402 62.3939 21.9942L49.7963 0.47551C49.7116 0.330777 49.5904 0.210736 49.445 0.127316C49.2995 0.0438962 49.1347 3.65712e-06 48.967 0H42.1047C41.8498 0 41.6054 0.101242 41.4252 0.281455C41.245 0.461668 41.1437 0.706091 41.1437 0.960951C41.1437 1.21581 41.245 1.46023 41.4252 1.64044C41.6054 1.82066 41.8498 1.9219 42.1047 1.9219H48.416L60.7354 22.9653C60.8202 23.1102 60.9414 23.2303 61.0871 23.3138C61.2327 23.3972 61.3977 23.4411 61.5655 23.441Z" fill="#EDEDED"/>
<path d="M65.8273 21.4133C65.9965 21.4132 66.1625 21.3684 66.3088 21.2835C66.4551 21.1986 66.5763 21.0767 66.6604 20.9299C66.7444 20.7832 66.7882 20.6168 66.7874 20.4477C66.7866 20.2786 66.7411 20.1127 66.6557 19.9668L55.245 0.475509C55.1603 0.330777 55.0392 0.210736 54.8937 0.127316C54.7482 0.0438962 54.5834 3.65712e-06 54.4157 0H47.5534C47.2986 0 47.0541 0.101242 46.8739 0.281455C46.6937 0.461668 46.5925 0.706091 46.5925 0.960951C46.5925 1.21581 46.6937 1.46023 46.8739 1.64044C47.0541 1.82066 47.2986 1.9219 47.5534 1.9219H53.8648L64.9972 20.9377C65.082 21.0826 65.2032 21.2027 65.3489 21.2862C65.4945 21.3696 65.6595 21.4135 65.8273 21.4133Z" fill="#EDEDED"/>
<path d="M55.2449 3.31784C55.329 3.1711 55.4504 3.04918 55.5968 2.96439C55.7432 2.8796 55.9093 2.83496 56.0785 2.83496H61.6821C63.2132 2.83421 64.6821 3.44033 65.7672 4.52056C66.8522 5.60078 67.4649 7.06703 67.471 8.5981C67.477 10.1292 66.876 11.6002 65.7995 12.689C64.7231 13.7778 63.259 14.3955 61.7279 14.4069C61.5602 14.4069 61.3954 14.363 61.2499 14.2796C61.1045 14.1962 60.9833 14.0761 60.8986 13.9314L55.2492 4.28135C55.1637 4.13535 55.1183 3.96936 55.1175 3.80018C55.1168 3.63099 55.1607 3.46461 55.2449 3.31784Z" fill="#EDEDED"/>
<path d="M14.3478 5.91994C14.9967 5.55167 15.7332 5.36573 16.4792 5.3818C17.2253 5.39787 17.953 5.61536 18.5856 6.01123L26.5438 10.9169H31.9875H31.9928H40.9981C41.253 10.9169 41.4974 10.8156 41.6776 10.6354C41.8578 10.4552 41.9591 10.2108 41.9591 9.95594C41.9591 9.70108 41.8578 9.45666 41.6776 9.27644C41.4974 9.09623 41.253 8.99499 40.9981 8.99499H33.6898C35.4482 6.36758 38.1373 4.50451 41.215 3.78139C44.2927 3.05827 47.5301 3.52888 50.2745 5.09833L48.4151 1.92239H42.1032C41.8484 1.92239 41.604 1.82115 41.4237 1.64093C41.2435 1.46072 41.1423 1.2163 41.1423 0.961439C41.1423 0.706579 41.2435 0.462157 41.4237 0.281944C41.604 0.10173 41.8484 0.000488352 42.1032 0.000488352H48.966C49.1334 0.000424093 49.2979 0.0441428 49.4431 0.127306C49.5884 0.210469 49.7094 0.330181 49.794 0.474556L54.152 7.91872L62.3921 21.9934C62.4582 22.1024 62.502 22.2233 62.5209 22.3493C62.5398 22.4753 62.5335 22.6038 62.5023 22.7274C62.4711 22.8509 62.4156 22.967 62.3391 23.0689C62.2626 23.1708 62.1666 23.2565 62.0567 23.3209C61.9468 23.3854 61.8252 23.4273 61.6989 23.4443C61.5727 23.4614 61.4443 23.4531 61.3212 23.42C61.1982 23.387 61.0829 23.3298 60.9822 23.2517C60.8815 23.1737 60.7973 23.0765 60.7345 22.9656L58.7277 19.5382L54.6308 27.977C53.494 30.2963 51.7315 32.2517 49.5421 33.6223C47.3528 34.9929 44.8239 35.7241 42.241 35.7334H25.8696C26.1736 34.6087 26.3282 33.4488 26.3292 32.2836C26.3294 31.7725 26.2994 31.2617 26.2395 30.7541C26.1651 30.105 26.0414 29.4625 25.8696 28.8322H27.1556L29.4139 22.8022C29.5955 22.3148 29.6023 21.7795 29.4332 21.2877C29.2641 20.7958 28.9295 20.3778 28.4866 20.1052L12.6597 10.3948C12.52 10.3087 12.4045 10.1883 12.3244 10.0451C12.2442 9.90183 12.202 9.7405 12.2016 9.57636C12.1964 8.83001 12.3931 8.09614 12.7709 7.45246C13.1487 6.80877 13.6936 6.27924 14.3478 5.91994ZM35.1235 21.0977L42.4932 26.1516H38.0581C37.8033 26.1516 37.5588 26.2529 37.3786 26.4331C37.1984 26.6133 37.0972 26.8577 37.0972 27.1126C37.0972 27.3674 37.1984 27.6119 37.3786 27.7921C37.5588 27.9723 37.8033 28.0735 38.0581 28.0735H46.5608C46.5656 28.0735 46.5702 28.0735 46.5749 28.0735H46.5835C47.3726 28.0735 48.1454 27.8494 48.8121 27.4274C49.4788 27.0053 50.0119 26.4026 50.3495 25.6894L52.7017 20.7154C52.771 20.5689 52.8021 20.4073 52.7922 20.2456C52.7823 20.0838 52.7316 19.9272 52.645 19.7903C52.5583 19.6534 52.4384 19.5407 52.2964 19.4625C52.1545 19.3844 51.9951 19.3435 51.833 19.3435H35.6671C35.4619 19.3434 35.2621 19.409 35.0968 19.5308C34.9316 19.6525 34.8097 19.8239 34.749 20.0199C34.6882 20.2159 34.6918 20.4262 34.7592 20.62C34.8266 20.8139 34.9543 20.981 35.1235 21.097V21.0977Z" fill="#EDEDED"/>
<path d="M48.6147 24.8674C48.4759 25.1608 48.2751 25.4205 48.0262 25.6287C47.7772 25.8369 47.4861 25.9886 47.1728 26.0733C46.8595 26.1579 46.5316 26.1736 46.2116 26.1191C45.8917 26.0647 45.5874 25.9414 45.3198 25.7579L38.7693 21.2661H50.3167L48.6147 24.8674Z" fill="#EDEDED"/>
<path d="M0.978447 43.5259H81.0237C81.2786 43.5259 81.523 43.6271 81.7032 43.8073C81.8834 43.9875 81.9847 44.232 81.9847 44.4868V46.2883C81.9834 47.3923 81.5443 48.4508 80.7637 49.2314C79.983 50.0121 78.9246 50.4512 77.8206 50.4524H4.18161C3.0776 50.4512 2.01915 50.0121 1.23849 49.2314C0.45784 48.4508 0.0187225 47.3923 0.0174942 46.2883V44.4868C0.0174942 44.232 0.118736 43.9875 0.29895 43.8073C0.479164 43.6271 0.723587 43.5259 0.978447 43.5259Z" fill="#EDEDED"/>
</svg>
