<svg width="75" height="47" viewBox="0 0 75 47" fill="none" xmlns="http://www.w3.org/2000/svg">
<path d="M62.9599 23.5073C64.1506 23.5073 65.3147 23.8604 66.3047 24.522C67.2948 25.1835 68.0665 26.1238 68.5222 27.2239C68.9779 28.324 69.0971 29.5346 68.8648 30.7025C68.6325 31.8703 68.0591 32.9431 67.2171 33.7851C66.3751 34.6271 65.3023 35.2005 64.1344 35.4328C62.9666 35.6651 61.756 35.5459 60.6559 35.0902C59.5558 34.6345 58.6155 33.8628 57.954 32.8728C57.2924 31.8827 56.9393 30.7187 56.9393 29.5279C56.941 27.9317 57.5758 26.4013 58.7045 25.2726C59.8333 24.1438 61.3636 23.509 62.9599 23.5073Z" fill="#4517FF"/>
<path d="M62.9588 17.4854C65.3404 17.4854 67.6684 18.1916 69.6485 19.5147C71.6287 20.8378 73.172 22.7183 74.0834 24.9186C74.9948 27.1188 75.2332 29.5399 74.7686 31.8756C74.304 34.2114 73.1572 36.3569 71.4732 38.0409C69.7892 39.7249 67.6437 40.8717 65.3079 41.3363C62.9722 41.8009 60.5511 41.5625 58.3509 40.6511C56.1506 39.7397 54.2701 38.1964 52.947 36.2162C51.6239 34.2361 50.9177 31.908 50.9177 29.5265C50.9216 26.3342 52.1914 23.2737 54.4487 21.0164C56.706 18.7591 59.7665 17.4892 62.9588 17.4854ZM62.9588 37.3049C64.4973 37.3049 66.0011 36.8487 67.2803 35.994C68.5594 35.1393 69.5564 33.9245 70.1452 32.5032C70.7339 31.0819 70.8879 29.5179 70.5878 28.009C70.2877 26.5002 69.5468 25.1142 68.459 24.0263C67.3712 22.9385 65.9852 22.1977 64.4763 21.8976C62.9675 21.5974 61.4035 21.7515 59.9822 22.3402C58.5608 22.9289 57.346 23.9259 56.4913 25.2051C55.6366 26.4842 55.1804 27.9881 55.1804 29.5265C55.1827 31.5888 56.0029 33.566 57.4611 35.0242C58.9194 36.4824 60.8966 37.3027 62.9588 37.3049Z" fill="#4517FF"/>
<path d="M12.0404 35.5476C8.71557 35.5476 6.02027 32.8523 6.02027 29.5275C6.02027 26.2026 8.71557 23.5073 12.0404 23.5073C15.3652 23.5073 18.0605 26.2026 18.0605 29.5275C18.0605 32.8523 15.3652 35.5476 12.0404 35.5476Z" fill="#4517FF"/>
<path d="M12.0409 17.4854C14.4224 17.4854 16.7504 18.1916 18.7306 19.5147C20.7107 20.8378 22.2541 22.7183 23.1654 24.9186C24.0768 27.1188 24.3153 29.5399 23.8507 31.8756C23.386 34.2114 22.2392 36.3569 20.5553 38.0409C18.8713 39.7249 16.7257 40.8717 14.39 41.3363C12.0542 41.8009 9.63315 41.5625 7.43291 40.6511C5.23268 39.7397 3.35211 38.1964 2.02901 36.2162C0.705908 34.2361 -0.000295639 31.908 -0.000295639 29.5265C0.003582 26.3342 1.27344 23.2737 3.53076 21.0164C5.78807 18.7591 8.84854 17.4892 12.0409 17.4854ZM12.0409 37.3049C13.5793 37.3049 15.0832 36.8487 16.3623 35.994C17.6415 35.1393 18.6385 33.9245 19.2272 32.5032C19.8159 31.0819 19.97 29.5179 19.6698 28.009C19.3697 26.5002 18.6289 25.1142 17.541 24.0263C16.4532 22.9385 15.0672 22.1977 13.5584 21.8976C12.0495 21.5974 10.4855 21.7515 9.0642 22.3402C7.64288 22.9289 6.42805 23.9259 5.57335 25.2051C4.71865 26.4842 4.26245 27.9881 4.26245 29.5265C4.2647 31.5888 5.08493 33.566 6.54318 35.0242C8.00143 36.4824 9.97859 37.3027 12.0409 37.3049Z" fill="#4517FF"/>
<path d="M56.3093 21.4399C56.464 21.4397 56.6159 21.3988 56.7497 21.3211C56.8835 21.2435 56.9945 21.1319 57.0713 20.9977C57.1482 20.8634 57.1883 20.7113 57.1875 20.5566C57.1867 20.4019 57.1451 20.2501 57.0669 20.1166L45.5448 0.434916C45.4673 0.302539 45.3565 0.192746 45.2234 0.116447C45.0904 0.0401489 44.9397 3.34492e-06 44.7863 0H38.5098C38.2767 0 38.0531 0.0925992 37.8883 0.257428C37.7235 0.422257 37.6309 0.645814 37.6309 0.878917C37.6309 1.11202 37.7235 1.33557 37.8883 1.5004C38.0531 1.66523 38.2767 1.75783 38.5098 1.75783H44.2824L55.5501 21.0048C55.6276 21.1373 55.7385 21.2472 55.8717 21.3235C56.0049 21.3999 56.1558 21.44 56.3093 21.4399Z" fill="#4517FF"/>
<path d="M60.2098 19.5853C60.3645 19.5852 60.5164 19.5442 60.6501 19.4666C60.7839 19.389 60.8948 19.2774 60.9717 19.1432C61.0486 19.009 61.0886 18.8568 61.0879 18.7022C61.0871 18.5475 61.0456 18.3957 60.9674 18.2623L50.5309 0.434916C50.4534 0.302539 50.3426 0.192746 50.2095 0.116447C50.0765 0.0401489 49.9257 3.34492e-06 49.7724 0H43.4959C43.2628 0 43.0392 0.0925992 42.8744 0.257428C42.7095 0.422257 42.6169 0.645813 42.6169 0.878917C42.6169 1.11202 42.7095 1.33557 42.8744 1.5004C43.0392 1.66523 43.2628 1.75783 43.4959 1.75783H49.2684L59.4505 19.1503C59.5281 19.2828 59.639 19.3927 59.7722 19.469C59.9054 19.5453 60.0563 19.5854 60.2098 19.5853Z" fill="#4517FF"/>
<path d="M50.5285 3.03443C50.6055 2.90022 50.7165 2.7887 50.8504 2.71115C50.9843 2.63361 51.1363 2.59277 51.291 2.59277H56.4162C57.8166 2.59208 59.1602 3.14647 60.1526 4.13448C61.145 5.12249 61.7054 6.46356 61.7109 7.86393C61.7164 9.26429 61.1667 10.6098 60.1822 11.6056C59.1976 12.6014 57.8585 13.1664 56.4581 13.1768C56.3047 13.1768 56.154 13.1367 56.021 13.0604C55.8879 12.9841 55.7771 12.8743 55.6996 12.7419L50.5325 3.91569C50.4543 3.78215 50.4128 3.63033 50.4121 3.47559C50.4114 3.32085 50.4515 3.16867 50.5285 3.03443Z" fill="#4517FF"/>
<path d="M13.1249 5.41461C13.7184 5.07778 14.392 4.90771 15.0744 4.92241C15.7567 4.93711 16.4224 5.13603 17.0009 5.49811L24.2798 9.98498H29.2587H29.2635H37.5002C37.7333 9.98498 37.9568 9.89238 38.1216 9.72755C38.2865 9.56272 38.3791 9.33917 38.3791 9.10607C38.3791 8.87296 38.2865 8.64941 38.1216 8.48458C37.9568 8.31975 37.7333 8.22715 37.5002 8.22715H30.8157C32.424 5.82403 34.8835 4.12001 37.6985 3.45862C40.5134 2.79723 43.4745 3.22767 45.9846 4.66314L44.2839 1.75832H38.5109C38.2778 1.75832 38.0543 1.66572 37.8894 1.50089C37.7246 1.33606 37.632 1.11251 37.632 0.879405C37.632 0.646302 37.7246 0.422745 37.8894 0.257916C38.0543 0.0930876 38.2778 0.000488346 38.5109 0.000488346H44.7878C44.9409 0.000429573 45.0914 0.0404161 45.2242 0.11648C45.3571 0.192543 45.4677 0.302036 45.5452 0.434086L49.5311 7.24276L57.0678 20.116C57.1282 20.2156 57.1683 20.3262 57.1856 20.4415C57.2029 20.5567 57.1971 20.6743 57.1685 20.7872C57.14 20.9002 57.0893 21.0064 57.0193 21.0996C56.9493 21.1928 56.8616 21.2712 56.761 21.3301C56.6605 21.3891 56.5493 21.4274 56.4338 21.443C56.3183 21.4586 56.2009 21.451 56.0883 21.4208C55.9758 21.3905 55.8704 21.3382 55.7782 21.2668C55.6861 21.1955 55.6091 21.1065 55.5516 21.0051L53.7162 17.8703L49.9691 25.5887C48.9293 27.71 47.3172 29.4985 45.3148 30.7521C43.3124 32.0057 40.9993 32.6745 38.6369 32.683H23.6631C23.9412 31.6543 24.0825 30.5934 24.0835 29.5277C24.0836 29.0602 24.0562 28.5931 24.0015 28.1288C23.9334 27.5351 23.8202 26.9474 23.6631 26.3709H24.8394L26.9048 20.8557C27.0709 20.4099 27.0772 19.9203 26.9225 19.4704C26.7678 19.0205 26.4618 18.6383 26.0567 18.3889L11.5809 9.50744C11.4531 9.42868 11.3475 9.31858 11.2742 9.18758C11.2009 9.05658 11.1622 8.90902 11.162 8.75889C11.1572 8.07626 11.3371 7.40503 11.6826 6.8163C12.0282 6.22757 12.5265 5.74324 13.1249 5.41461ZM32.127 19.2967L38.8676 23.9192H34.8111C34.578 23.9192 34.3545 24.0118 34.1896 24.1766C34.0248 24.3414 33.9322 24.565 33.9322 24.7981C33.9322 25.0312 34.0248 25.2548 34.1896 25.4196C34.3545 25.5844 34.578 25.677 34.8111 25.677H42.5879C42.5923 25.677 42.5966 25.677 42.6008 25.677H42.6087C43.3304 25.677 44.0373 25.472 44.647 25.086C45.2568 24.7 45.7444 24.1487 46.0532 23.4964L48.2046 18.947C48.268 18.813 48.2965 18.6652 48.2874 18.5173C48.2783 18.3694 48.232 18.2261 48.1527 18.1009C48.0734 17.9757 47.9638 17.8726 47.8339 17.8011C47.7041 17.7297 47.5583 17.6922 47.4101 17.6922H32.6242C32.4365 17.6921 32.2537 17.7522 32.1026 17.8635C31.9515 17.9748 31.84 18.1316 31.7845 18.3109C31.7289 18.4902 31.7322 18.6825 31.7938 18.8598C31.8555 19.0371 31.9722 19.19 32.127 19.2961V19.2967Z" fill="#4517FF"/>
<path d="M44.4628 22.7451C44.3359 23.0134 44.1523 23.251 43.9246 23.4414C43.6969 23.6318 43.4305 23.7705 43.144 23.8479C42.8575 23.9254 42.5575 23.9397 42.2649 23.8899C41.9723 23.8401 41.694 23.7274 41.4492 23.5595L35.4579 19.4512H46.0195L44.4628 22.7451Z" fill="#4517FF"/>
<path d="M0.893448 39.8105H74.1055C74.3386 39.8105 74.5621 39.9031 74.7269 40.068C74.8918 40.2328 74.9844 40.4564 74.9844 40.6895V42.3371C74.9833 43.3469 74.5816 44.315 73.8676 45.029C73.1536 45.743 72.1855 46.1447 71.1757 46.1458H3.82317C2.8134 46.1447 1.84531 45.743 1.1313 45.029C0.41729 44.315 0.0156555 43.3469 0.014534 42.3371V40.6895C0.014534 40.4564 0.10714 40.2328 0.271965 40.068C0.436798 39.9031 0.660347 39.8105 0.893448 39.8105Z" fill="#4517FF"/>
</svg>
