<svg width="75" height="57" viewBox="0 0 75 57" fill="none" xmlns="http://www.w3.org/2000/svg">
<path fill-rule="evenodd" clip-rule="evenodd" d="M13.4883 4.70996V33.2064H60.9065V4.70996H13.4883Z" fill="#4517FF"/>
<path fill-rule="evenodd" clip-rule="evenodd" d="M61.8069 35.0063H12.589C12.0919 35.0063 11.6891 34.6035 11.6891 34.1065V3.80984C11.6891 3.31275 12.0919 2.91015 12.589 2.91015L61.8069 2.9101C62.3039 2.9101 62.7068 3.3129 62.7068 3.8099L62.7068 34.1064C62.7068 34.6035 62.3039 35.0065 61.8069 35.0063ZM8.77739 0.793341L8.77755 37.9182H65.6184V0.79324C65.6184 0.35594 65.2627 0.000152194 64.8252 0.000152194L9.57063 0C9.13328 0 8.77739 0.356041 8.77739 0.793341Z" fill="#4517FF"/>
<path fill-rule="evenodd" clip-rule="evenodd" d="M66.0315 39.7183H8.3831L0.705078 52.2993L74.2395 52.2993L66.0315 39.7183ZM35.2897 43.5226C35.2897 44.0195 34.8867 44.4225 34.3898 44.4224H32.9609C32.4639 44.4224 32.061 44.0196 32.061 43.5226C32.061 43.0256 32.4639 42.6226 32.9609 42.6226L34.3898 42.6225C34.8867 42.6225 35.2897 43.0256 35.2897 43.5226ZM28.2436 43.5226C28.2436 44.0195 27.8409 44.4225 27.3437 44.4224H25.915C25.4181 44.4224 25.0151 44.0196 25.0151 43.5226C25.0151 43.0256 25.418 42.6226 25.915 42.6226L27.3437 42.6225C27.8409 42.6225 28.2436 43.0256 28.2436 43.5226ZM21.1978 43.5226C21.1978 44.0195 20.7949 44.4225 20.2978 44.4224H18.869C18.372 44.4224 17.969 44.0196 17.969 43.5226C17.969 43.0256 18.372 42.6226 18.869 42.6226L20.2978 42.6225C20.7949 42.6225 21.1978 43.0256 21.1978 43.5226ZM14.1519 43.5226C14.1519 44.0195 13.7491 44.4225 13.2521 44.4224H11.8232C11.3262 44.4224 10.9233 44.0196 10.9233 43.5226C10.9233 43.0256 11.3262 42.6226 11.8232 42.6226L13.2521 42.6225C13.7491 42.6225 14.1519 43.0256 14.1519 43.5226ZM9.72828 47.5968C10.2253 47.5968 10.6281 47.9998 10.6281 48.4969C10.6282 48.9937 10.2253 49.3966 9.72828 49.3966H8.29932C7.80232 49.3966 7.39941 48.9938 7.39941 48.4969C7.39941 47.9997 7.80232 47.5969 8.29932 47.5969L9.72828 47.5968ZM40.007 44.4224C39.5099 44.4224 39.107 44.0196 39.107 43.5226C39.107 43.0256 39.5099 42.6226 40.007 42.6226L41.4356 42.6225C41.9326 42.6225 42.3356 43.0256 42.3356 43.5226C42.3356 44.0195 41.9326 44.4225 41.4356 44.4224H40.007ZM56.7227 48.4969C56.7228 47.9997 57.1255 47.5969 57.6226 47.5969L59.0514 47.5968C59.5484 47.5968 59.9513 47.9998 59.9513 48.4969C59.9513 48.9937 59.5484 49.3966 59.0514 49.3966H57.6226C57.1255 49.3966 56.7227 48.9938 56.7227 48.4969ZM64.6684 49.3966C64.1714 49.3966 63.7685 48.9938 63.7685 48.4969C63.7685 47.9997 64.1714 47.5969 64.6684 47.5969L66.0973 47.5968C66.5943 47.5968 66.9972 47.9998 66.9972 48.4969C66.9972 48.9937 66.5943 49.3966 66.0973 49.3966H64.6684ZM29.4389 47.5969L44.9597 47.5968C45.4567 47.5968 45.8594 47.9998 45.8594 48.4969C45.8595 48.9937 45.4567 49.3966 44.9597 49.3966H29.4389C28.9418 49.3966 28.539 48.9938 28.539 48.4969C28.539 47.9997 28.9417 47.5969 29.4389 47.5969ZM24.7199 48.4969C24.7199 48.9937 24.317 49.3966 23.82 49.3966H22.3912C21.8942 49.3966 21.4912 48.9938 21.4912 48.4969C21.4912 47.9997 21.8942 47.5969 22.3912 47.5969L23.82 47.5968C24.317 47.5968 24.7199 47.9998 24.7199 48.4969ZM17.6741 48.4969C17.6741 48.9937 17.2711 49.3966 16.7742 49.3966H15.3453C14.8482 49.3966 14.4453 48.9938 14.4453 48.4969C14.4453 47.9997 14.8482 47.5969 15.3453 47.5969L16.7742 47.5968C17.2712 47.5968 17.6741 47.9998 17.6741 48.4969ZM50.5767 49.3966C50.0797 49.3966 49.6767 48.9938 49.6767 48.4969C49.6767 47.9997 50.0796 47.5969 50.5767 47.5969L52.0055 47.5968C52.5025 47.5968 52.9053 47.9998 52.9053 48.4969C52.9053 48.9937 52.5025 49.3966 52.0055 49.3966H50.5767ZM47.0546 44.4224C46.5575 44.4224 46.1546 44.0196 46.1546 43.5226C46.1546 43.0256 46.5575 42.6226 47.0546 42.6226L48.4816 42.6225C48.9786 42.6225 49.3815 43.0256 49.3815 43.5226C49.3816 44.0195 48.9786 44.4225 48.4816 44.4224H47.0546ZM54.1004 44.4224C53.6034 44.4224 53.2006 44.0196 53.2006 43.5226C53.2006 43.0256 53.6034 42.6226 54.1004 42.6226L55.5292 42.6225C56.0264 42.6225 56.4292 43.0256 56.4292 43.5226C56.4292 44.0195 56.0264 44.4225 55.5292 44.4224H54.1004ZM61.1464 44.4224C60.6494 44.4224 60.2465 44.0196 60.2465 43.5226C60.2465 43.0256 60.6494 42.6226 61.1464 42.6226L62.5752 42.6225C63.0723 42.6225 63.4752 43.0256 63.4752 43.5226C63.4752 44.0195 63.0723 44.4225 62.5752 44.4224H61.1464Z" fill="#4517FF"/>
<path fill-rule="evenodd" clip-rule="evenodd" d="M75 54.0996H0V56.6071C0 56.7947 0.152365 56.9479 0.339577 56.9479L74.6603 56.9478C74.8475 56.9478 74.9999 56.7948 74.9999 56.6073L75 54.0996Z" fill="#4517FF"/>
</svg>
