<svg width="168" height="48" viewBox="0 0 168 48" fill="none" xmlns="http://www.w3.org/2000/svg">
<path d="M9.55912 11.2077C10.994 13.8292 13.9623 16.4531 17.9097 18.2927C20.7716 19.6287 23.74 20.3454 26.3589 20.3454C26.5798 20.3454 26.7957 20.3399 27.0064 20.3298L26.9126 29.8014C26.9104 29.9599 26.8606 30.1145 26.7691 30.2438C26.6775 30.3732 26.5486 30.4722 26.3999 30.527C26.2512 30.5818 26.0887 30.5895 25.9351 30.5505C25.7816 30.5114 25.6431 30.4273 25.5386 30.3083L17.0259 20.5729C16.5263 20.0001 15.8357 19.6275 15.0826 19.5251L2.2681 17.7819C2.11088 17.7608 1.96366 17.6923 1.84623 17.5856C1.72878 17.4789 1.64589 17.3388 1.6099 17.1843C1.57393 17.0296 1.58676 16.8671 1.64505 16.7194C1.70338 16.5719 1.80526 16.4454 1.93705 16.3571L9.55912 11.2077ZM97.1255 17.653L101.502 6.23407H104.71L95.521 28.2565H92.313L95.3579 20.9694L89.4585 6.23407H92.9107L97.1255 17.653ZM68.0913 5.98895C69.505 5.98897 70.765 6.29755 71.8706 6.91375C72.9761 7.52997 73.8374 8.39957 74.4537 9.52313C75.0699 10.6288 75.3775 11.9071 75.3775 13.3571C75.3775 13.919 75.3416 14.4265 75.2691 14.8796H63.8228C63.9134 16.0758 64.3574 17.0364 65.1548 17.7614C65.9523 18.4864 66.9314 18.8493 68.0913 18.8493C69.7588 18.8493 70.9368 18.1512 71.6255 16.7556H74.9703C74.5171 18.1331 73.6919 19.2658 72.4956 20.154C71.3175 21.024 69.8494 21.4596 68.0913 21.4597C66.6595 21.4596 65.3719 21.1419 64.23 20.5075C63.1065 19.855 62.2184 18.9486 61.566 17.7888C60.9316 16.6106 60.6148 15.2512 60.6148 13.7106C60.6148 12.1701 60.9225 10.8198 61.5386 9.65985C62.173 8.48171 63.0526 7.57549 64.1763 6.9411C65.3182 6.30673 66.6232 5.98897 68.0913 5.98895ZM159.401 5.98895C160.815 5.98895 162.075 6.29753 163.18 6.91375C164.286 7.52996 165.147 8.39956 165.763 9.52313C166.379 10.6288 166.688 11.9071 166.688 13.3571C166.688 13.919 166.651 14.4265 166.579 14.8796H155.132C155.223 16.0757 155.667 17.0364 156.464 17.7614C157.262 18.4864 158.241 18.8493 159.401 18.8493C161.068 18.8493 162.246 18.1512 162.935 16.7556H166.28C165.827 18.1331 165.001 19.2658 163.805 20.154C162.627 21.0239 161.159 21.4597 159.401 21.4597C157.969 21.4596 156.682 21.1418 155.541 20.5075C154.417 19.855 153.528 18.9488 152.876 17.7888C152.241 16.6107 151.924 15.2512 151.924 13.7106C151.924 12.1702 152.232 10.8198 152.848 9.65985C153.483 8.48178 154.362 7.57549 155.486 6.9411C156.628 6.30673 157.933 5.98898 159.401 5.98895ZM109.987 14.5807C109.987 15.9219 110.322 16.9554 110.993 17.6804C111.663 18.3871 112.579 18.7409 113.739 18.7409C114.899 18.7409 115.814 18.3872 116.485 17.6804C117.174 16.9554 117.518 15.922 117.518 14.5807V6.23407H120.618V21.2145H117.518V19.447C117.029 20.0632 116.385 20.5532 115.587 20.9157C114.808 21.26 113.974 21.4323 113.086 21.4323C111.908 21.4323 110.847 21.1873 109.905 20.6979C108.981 20.2086 108.246 19.4836 107.703 18.5231C107.177 17.5625 106.915 16.402 106.915 15.0427V6.23407H109.987V14.5807ZM50.9937 2.31903C52.4436 2.31903 53.6677 2.57231 54.6646 3.07977C55.6796 3.58726 56.432 4.26699 56.9214 5.11883C57.4289 5.9706 57.6821 6.92224 57.6822 7.97332C57.6822 9.20587 57.3203 10.3304 56.5952 11.3454C55.8883 12.3423 54.7915 13.022 53.3052 13.3845L57.982 21.2145H54.2837L49.9341 13.6559H47.5689V21.2145H44.4693V2.31903H50.9937ZM87.9703 8.76239L81.1734 18.6862H87.9703V21.2145H77.5845V18.6862L84.4087 8.76239H77.5845V6.23407H87.9703V8.76239ZM142.841 5.98895C144.019 5.98896 145.071 6.23398 145.996 6.72332C146.938 7.2127 147.672 7.93767 148.198 8.89813C148.742 9.85876 149.013 11.0192 149.013 12.3786V21.2145H145.941V12.8405C145.941 11.4993 145.606 10.4751 144.935 9.76825C144.264 9.04333 143.349 8.6804 142.189 8.68036C141.029 8.68038 140.104 9.04325 139.416 9.76825C138.745 10.4751 138.41 11.4993 138.41 12.8405V21.2145H135.337V12.8405C135.337 11.4993 135.002 10.4751 134.332 9.76825C133.661 9.04333 132.745 8.6804 131.585 8.68036C130.426 8.68038 129.501 9.04325 128.812 9.76825C128.141 10.4751 127.806 11.4993 127.806 12.8405V21.2145H124.707V6.23407H127.806V7.94696C128.314 7.33071 128.957 6.84994 129.737 6.50555C130.516 6.16129 131.35 5.98897 132.238 5.98895C133.434 5.98896 134.503 6.2432 135.446 6.75067C136.388 7.25817 137.113 7.9922 137.621 8.95282C138.074 8.04656 138.781 7.33002 139.742 6.80438C140.702 6.26066 141.736 5.98897 142.841 5.98895ZM26.3872 0.000667599C26.5287 -0.00520044 26.6691 0.0277175 26.7935 0.0953942C26.918 0.163229 27.0224 0.264177 27.0943 0.38641C27.1659 0.508546 27.2031 0.648143 27.2017 0.78973L27.1577 5.10028C28.1519 5.75743 29.0925 6.49556 29.9693 7.30828C30.1327 7.46297 30.2287 7.67613 30.2349 7.90106C30.241 8.12597 30.1571 8.3441 30.0025 8.5075C29.8478 8.67086 29.6346 8.76595 29.4097 8.77215C29.1849 8.77828 28.9666 8.69522 28.8033 8.54071C28.2726 8.0495 27.7158 7.58826 27.1372 7.15789L27.0347 17.2761C29.3236 17.1446 30.9135 16.3689 31.5132 15.0817C32.1433 13.7279 31.5332 12.1814 30.9107 11.1237C30.8543 11.0278 30.8177 10.9214 30.8023 10.8112C30.7869 10.701 30.7929 10.5888 30.8208 10.4811C30.8488 10.3733 30.8983 10.2722 30.9654 10.1833C31.0325 10.0944 31.1164 10.0191 31.2124 9.96258C31.3084 9.9062 31.4147 9.86864 31.5249 9.85321C31.6351 9.83783 31.7473 9.84486 31.855 9.87274C32.0727 9.92918 32.2595 10.0696 32.3736 10.2634C33.5452 12.2548 33.7851 14.2211 33.0513 15.7975C32.1682 17.6903 30.0432 18.8345 27.065 18.9763C26.8374 18.9889 26.5992 18.9938 26.3589 18.9938C23.74 18.9938 20.7715 18.278 17.9097 16.9421C11.1787 13.8042 7.28097 8.38335 9.05228 4.60028C10.6524 1.18295 16.2279 0.44576 22.2525 2.64813L25.9898 0.128597C26.1081 0.0507846 26.2458 0.00661605 26.3872 0.000667599ZM67.9556 8.5993C66.8863 8.59933 65.9707 8.9438 65.2095 9.6325C64.4483 10.3031 63.9951 11.2186 63.8501 12.3786H72.1421C72.124 11.2367 71.716 10.3213 70.9185 9.6325C70.1211 8.94389 69.1335 8.59937 67.9556 8.5993ZM159.265 8.5993C158.196 8.59933 157.28 8.94376 156.519 9.6325C155.758 10.3031 155.305 11.2186 155.16 12.3786H163.452C163.434 11.2369 163.026 10.3212 162.229 9.6325C161.432 8.9438 160.443 8.59932 159.265 8.5993ZM47.5689 11.1823H50.9937C52.1536 11.1823 53.024 10.892 53.604 10.3122C54.2022 9.73217 54.5015 8.95211 54.5015 7.97332C54.5014 6.99481 54.2113 6.23379 53.6314 5.69012C53.0514 5.12828 52.1718 4.84735 50.9937 4.84735H47.5689V11.1823ZM20.4683 3.85125C15.8552 2.48616 11.6677 2.99708 10.5855 5.30926C9.99487 6.5717 10.4135 8.20177 11.566 9.85516L20.4683 3.85125Z" fill="url(#paint0_linear_3768_24)"/>
<path d="M83.1207 45V36.672H83.9127L87.4407 42.468H86.9007L90.4287 36.672H91.2207V45H90.0927V38.652L90.3567 38.724L87.5727 43.296H86.7807L83.9967 38.724L84.2487 38.652V45H83.1207ZM95.5991 45.12C95.0391 45.12 94.5351 44.988 94.0871 44.724C93.6391 44.46 93.2831 44.104 93.0191 43.656C92.7551 43.2 92.6231 42.692 92.6231 42.132C92.6231 41.58 92.7551 41.084 93.0191 40.644C93.2831 40.196 93.6391 39.84 94.0871 39.576C94.5351 39.312 95.0391 39.18 95.5991 39.18C96.1511 39.18 96.6511 39.312 97.0991 39.576C97.5551 39.832 97.9151 40.184 98.1791 40.632C98.4431 41.08 98.5751 41.58 98.5751 42.132C98.5751 42.692 98.4431 43.2 98.1791 43.656C97.9151 44.104 97.5551 44.46 97.0991 44.724C96.6511 44.988 96.1511 45.12 95.5991 45.12ZM95.5991 44.076C95.9591 44.076 96.2791 43.992 96.5591 43.824C96.8391 43.656 97.0591 43.428 97.2191 43.14C97.3791 42.844 97.4591 42.508 97.4591 42.132C97.4591 41.764 97.3751 41.436 97.2071 41.148C97.0471 40.86 96.8271 40.636 96.5471 40.476C96.2751 40.308 95.9591 40.224 95.5991 40.224C95.2391 40.224 94.9191 40.308 94.6391 40.476C94.3591 40.636 94.1391 40.86 93.9791 41.148C93.8191 41.436 93.7391 41.764 93.7391 42.132C93.7391 42.508 93.8191 42.844 93.9791 43.14C94.1391 43.428 94.3591 43.656 94.6391 43.824C94.9191 43.992 95.2391 44.076 95.5991 44.076ZM100.492 45V36.912H101.572V45H100.492ZM99.0882 40.284V39.3H102.976V40.284H99.0882ZM104.046 45V39.3H105.126V45H104.046ZM104.586 38.16C104.386 38.16 104.222 38.096 104.094 37.968C103.966 37.832 103.902 37.664 103.902 37.464C103.902 37.272 103.966 37.112 104.094 36.984C104.222 36.848 104.386 36.78 104.586 36.78C104.786 36.78 104.95 36.848 105.078 36.984C105.206 37.112 105.27 37.272 105.27 37.464C105.27 37.664 105.206 37.832 105.078 37.968C104.95 38.096 104.786 38.16 104.586 38.16ZM109.322 45.12C108.762 45.12 108.258 44.988 107.81 44.724C107.362 44.46 107.006 44.104 106.742 43.656C106.478 43.2 106.346 42.692 106.346 42.132C106.346 41.58 106.478 41.084 106.742 40.644C107.006 40.196 107.362 39.84 107.81 39.576C108.258 39.312 108.762 39.18 109.322 39.18C109.874 39.18 110.374 39.312 110.822 39.576C111.278 39.832 111.638 40.184 111.902 40.632C112.166 41.08 112.298 41.58 112.298 42.132C112.298 42.692 112.166 43.2 111.902 43.656C111.638 44.104 111.278 44.46 110.822 44.724C110.374 44.988 109.874 45.12 109.322 45.12ZM109.322 44.076C109.682 44.076 110.002 43.992 110.282 43.824C110.562 43.656 110.782 43.428 110.942 43.14C111.102 42.844 111.182 42.508 111.182 42.132C111.182 41.764 111.098 41.436 110.93 41.148C110.77 40.86 110.55 40.636 110.27 40.476C109.998 40.308 109.682 40.224 109.322 40.224C108.962 40.224 108.642 40.308 108.362 40.476C108.082 40.636 107.862 40.86 107.702 41.148C107.542 41.436 107.462 41.764 107.462 42.132C107.462 42.508 107.542 42.844 107.702 43.14C107.862 43.428 108.082 43.656 108.362 43.824C108.642 43.992 108.962 44.076 109.322 44.076ZM117.547 45V41.676C117.547 41.244 117.411 40.888 117.139 40.608C116.867 40.328 116.515 40.188 116.083 40.188C115.795 40.188 115.539 40.252 115.315 40.38C115.091 40.508 114.915 40.684 114.787 40.908C114.659 41.132 114.595 41.388 114.595 41.676L114.151 41.424C114.151 40.992 114.247 40.608 114.439 40.272C114.631 39.936 114.899 39.672 115.243 39.48C115.587 39.28 115.975 39.18 116.407 39.18C116.839 39.18 117.219 39.288 117.547 39.504C117.883 39.72 118.147 40.004 118.339 40.356C118.531 40.7 118.627 41.068 118.627 41.46V45H117.547ZM113.515 45V39.3H114.595V45H113.515ZM124.997 45.12C124.469 45.12 123.997 44.992 123.581 44.736C123.165 44.472 122.833 44.116 122.585 43.668C122.345 43.22 122.225 42.716 122.225 42.156C122.225 41.596 122.345 41.092 122.585 40.644C122.833 40.196 123.165 39.84 123.581 39.576C123.997 39.312 124.469 39.18 124.997 39.18C125.421 39.18 125.805 39.272 126.149 39.456C126.493 39.632 126.769 39.88 126.977 40.2C127.193 40.512 127.313 40.876 127.337 41.292V43.008C127.313 43.416 127.197 43.78 126.989 44.1C126.781 44.42 126.505 44.672 126.161 44.856C125.817 45.032 125.429 45.12 124.997 45.12ZM125.177 44.1C125.537 44.1 125.849 44.016 126.113 43.848C126.385 43.68 126.597 43.452 126.749 43.164C126.901 42.868 126.977 42.532 126.977 42.156C126.977 41.764 126.897 41.424 126.737 41.136C126.585 40.848 126.373 40.62 126.101 40.452C125.837 40.284 125.525 40.2 125.165 40.2C124.805 40.2 124.489 40.284 124.217 40.452C123.945 40.62 123.729 40.852 123.569 41.148C123.417 41.436 123.341 41.768 123.341 42.144C123.341 42.528 123.417 42.868 123.569 43.164C123.729 43.452 123.945 43.68 124.217 43.848C124.497 44.016 124.817 44.1 125.177 44.1ZM127.997 45H126.905V43.464L127.109 42.072L126.905 40.692V36.432H127.997V45ZM132.209 45.12C131.641 45.12 131.129 44.992 130.673 44.736C130.217 44.472 129.857 44.116 129.593 43.668C129.329 43.22 129.197 42.712 129.197 42.144C129.197 41.584 129.325 41.08 129.581 40.632C129.845 40.184 130.197 39.832 130.637 39.576C131.085 39.312 131.585 39.18 132.137 39.18C132.665 39.18 133.129 39.3 133.529 39.54C133.937 39.78 134.253 40.112 134.477 40.536C134.709 40.96 134.825 41.44 134.825 41.976C134.825 42.056 134.821 42.144 134.813 42.24C134.805 42.328 134.789 42.432 134.765 42.552H129.953V41.652H134.189L133.793 42C133.793 41.616 133.725 41.292 133.589 41.028C133.453 40.756 133.261 40.548 133.013 40.404C132.765 40.252 132.465 40.176 132.113 40.176C131.745 40.176 131.421 40.256 131.141 40.416C130.861 40.576 130.645 40.8 130.493 41.088C130.341 41.376 130.265 41.716 130.265 42.108C130.265 42.508 130.345 42.86 130.505 43.164C130.665 43.46 130.893 43.692 131.189 43.86C131.485 44.02 131.825 44.1 132.209 44.1C132.529 44.1 132.821 44.044 133.085 43.932C133.357 43.82 133.589 43.652 133.781 43.428L134.477 44.136C134.205 44.456 133.869 44.7 133.469 44.868C133.077 45.036 132.657 45.12 132.209 45.12ZM137.815 45.12C137.495 45.12 137.191 45.08 136.903 45C136.623 44.912 136.363 44.792 136.123 44.64C135.883 44.48 135.675 44.292 135.499 44.076L136.195 43.38C136.403 43.636 136.643 43.828 136.915 43.956C137.187 44.076 137.491 44.136 137.827 44.136C138.163 44.136 138.423 44.08 138.607 43.968C138.791 43.848 138.883 43.684 138.883 43.476C138.883 43.268 138.807 43.108 138.655 42.996C138.511 42.876 138.323 42.78 138.091 42.708C137.859 42.628 137.611 42.552 137.347 42.48C137.091 42.4 136.847 42.3 136.615 42.18C136.383 42.06 136.191 41.896 136.039 41.688C135.895 41.48 135.823 41.204 135.823 40.86C135.823 40.516 135.907 40.22 136.075 39.972C136.243 39.716 136.475 39.52 136.771 39.384C137.075 39.248 137.439 39.18 137.863 39.18C138.311 39.18 138.707 39.26 139.051 39.42C139.403 39.572 139.691 39.804 139.915 40.116L139.219 40.812C139.059 40.604 138.859 40.444 138.619 40.332C138.387 40.22 138.123 40.164 137.827 40.164C137.515 40.164 137.275 40.22 137.107 40.332C136.947 40.436 136.867 40.584 136.867 40.776C136.867 40.968 136.939 41.116 137.083 41.22C137.227 41.324 137.415 41.412 137.647 41.484C137.887 41.556 138.135 41.632 138.391 41.712C138.647 41.784 138.891 41.884 139.123 42.012C139.355 42.14 139.543 42.312 139.687 42.528C139.839 42.744 139.915 43.028 139.915 43.38C139.915 43.916 139.723 44.34 139.339 44.652C138.963 44.964 138.455 45.12 137.815 45.12ZM141.136 45V39.3H142.216V45H141.136ZM141.676 38.16C141.476 38.16 141.312 38.096 141.184 37.968C141.056 37.832 140.992 37.664 140.992 37.464C140.992 37.272 141.056 37.112 141.184 36.984C141.312 36.848 141.476 36.78 141.676 36.78C141.876 36.78 142.04 36.848 142.168 36.984C142.296 37.112 142.36 37.272 142.36 37.464C142.36 37.664 142.296 37.832 142.168 37.968C142.04 38.096 141.876 38.16 141.676 38.16ZM146.172 47.508C145.588 47.508 145.068 47.4 144.612 47.184C144.164 46.968 143.804 46.664 143.532 46.272L144.228 45.564C144.46 45.86 144.736 46.084 145.056 46.236C145.376 46.396 145.756 46.476 146.196 46.476C146.78 46.476 147.24 46.32 147.576 46.008C147.92 45.704 148.092 45.292 148.092 44.772V43.356L148.284 42.072L148.092 40.8V39.3H149.172V44.772C149.172 45.316 149.044 45.792 148.788 46.2C148.54 46.608 148.188 46.928 147.732 47.16C147.284 47.392 146.764 47.508 146.172 47.508ZM146.172 44.904C145.652 44.904 145.184 44.78 144.768 44.532C144.36 44.284 144.036 43.944 143.796 43.512C143.556 43.072 143.436 42.58 143.436 42.036C143.436 41.492 143.556 41.008 143.796 40.584C144.036 40.152 144.36 39.812 144.768 39.564C145.184 39.308 145.652 39.18 146.172 39.18C146.62 39.18 147.016 39.268 147.36 39.444C147.704 39.62 147.976 39.868 148.176 40.188C148.384 40.5 148.496 40.868 148.512 41.292V42.804C148.488 43.22 148.372 43.588 148.164 43.908C147.964 44.22 147.692 44.464 147.348 44.64C147.004 44.816 146.612 44.904 146.172 44.904ZM146.388 43.884C146.74 43.884 147.048 43.808 147.312 43.656C147.584 43.504 147.792 43.292 147.936 43.02C148.08 42.74 148.152 42.416 148.152 42.048C148.152 41.68 148.076 41.36 147.924 41.088C147.78 40.808 147.576 40.592 147.312 40.44C147.048 40.28 146.736 40.2 146.376 40.2C146.016 40.2 145.7 40.28 145.428 40.44C145.156 40.592 144.94 40.808 144.78 41.088C144.628 41.36 144.552 41.676 144.552 42.036C144.552 42.396 144.628 42.716 144.78 42.996C144.94 43.276 145.156 43.496 145.428 43.656C145.708 43.808 146.028 43.884 146.388 43.884ZM154.789 45V41.676C154.789 41.244 154.653 40.888 154.381 40.608C154.109 40.328 153.757 40.188 153.325 40.188C153.037 40.188 152.781 40.252 152.557 40.38C152.333 40.508 152.157 40.684 152.029 40.908C151.901 41.132 151.837 41.388 151.837 41.676L151.393 41.424C151.393 40.992 151.489 40.608 151.681 40.272C151.873 39.936 152.141 39.672 152.485 39.48C152.829 39.28 153.217 39.18 153.649 39.18C154.081 39.18 154.461 39.288 154.789 39.504C155.125 39.72 155.389 40.004 155.581 40.356C155.773 40.7 155.869 41.068 155.869 41.46V45H154.789ZM150.757 45V39.3H151.837V45H150.757ZM159.971 45.12C159.403 45.12 158.891 44.992 158.435 44.736C157.979 44.472 157.619 44.116 157.355 43.668C157.091 43.22 156.959 42.712 156.959 42.144C156.959 41.584 157.087 41.08 157.343 40.632C157.607 40.184 157.959 39.832 158.399 39.576C158.847 39.312 159.347 39.18 159.899 39.18C160.427 39.18 160.891 39.3 161.291 39.54C161.699 39.78 162.015 40.112 162.239 40.536C162.471 40.96 162.587 41.44 162.587 41.976C162.587 42.056 162.583 42.144 162.575 42.24C162.567 42.328 162.551 42.432 162.527 42.552H157.715V41.652H161.951L161.555 42C161.555 41.616 161.487 41.292 161.351 41.028C161.215 40.756 161.023 40.548 160.775 40.404C160.527 40.252 160.227 40.176 159.875 40.176C159.507 40.176 159.183 40.256 158.903 40.416C158.623 40.576 158.407 40.8 158.255 41.088C158.103 41.376 158.027 41.716 158.027 42.108C158.027 42.508 158.107 42.86 158.267 43.164C158.427 43.46 158.655 43.692 158.951 43.86C159.247 44.02 159.587 44.1 159.971 44.1C160.291 44.1 160.583 44.044 160.847 43.932C161.119 43.82 161.351 43.652 161.543 43.428L162.239 44.136C161.967 44.456 161.631 44.7 161.231 44.868C160.839 45.036 160.419 45.12 159.971 45.12ZM163.765 45V39.3H164.845V45H163.765ZM164.845 41.748L164.437 41.568C164.437 40.84 164.605 40.26 164.941 39.828C165.277 39.396 165.761 39.18 166.393 39.18C166.681 39.18 166.941 39.232 167.173 39.336C167.405 39.432 167.621 39.596 167.821 39.828L167.113 40.56C166.993 40.432 166.861 40.34 166.717 40.284C166.573 40.228 166.405 40.2 166.213 40.2C165.813 40.2 165.485 40.328 165.229 40.584C164.973 40.84 164.845 41.228 164.845 41.748Z" fill="#BDBDBD"/>
<defs>
<linearGradient id="paint0_linear_3768_24" x1="2" y1="16.5" x2="167" y2="15" gradientUnits="userSpaceOnUse">
<stop offset="0.0808135" stop-color="#B10083"/>
<stop offset="0.480769" stop-color="#E80567"/>
<stop offset="0.952922" stop-color="#B10083"/>
</linearGradient>
</defs>
</svg>
