<svg width="50" height="40" viewBox="0 0 50 40" fill="none" xmlns="http://www.w3.org/2000/svg">
<path d="M21.4287 33.9287C22.908 33.9288 24.1074 35.1281 24.1074 36.6074C24.1073 38.0866 22.9079 39.2861 21.4287 39.2861C19.9495 39.2861 18.7502 38.0866 18.75 36.6074C18.75 35.1281 19.9494 33.9287 21.4287 33.9287ZM17.0537 35.7139C16.9347 36.3032 16.9347 36.9107 17.0537 37.5H0.892578C0.655878 37.4999 0.429096 37.4057 0.261719 37.2383C0.0943417 37.0709 7.35758e-05 36.8441 0 36.6074C0 36.3706 0.0942756 36.143 0.261719 35.9756C0.429076 35.8083 0.655977 35.7139 0.892578 35.7139H17.0537ZM49.1055 35.7139C49.3423 35.7139 49.5699 35.8081 49.7373 35.9756C49.9047 36.143 49.999 36.3706 49.999 36.6074C49.999 36.844 49.9045 37.0709 49.7373 37.2383C49.5699 37.4057 49.3423 37.5 49.1055 37.5H25.8018C25.9208 36.9107 25.9208 36.3032 25.8018 35.7139H49.1055ZM25 21.4287C26.1839 21.4287 27.319 21.8992 28.1562 22.7363C28.9934 23.5735 29.4638 24.7087 29.4639 25.8926C29.4677 26.8591 29.1543 27.8003 28.5713 28.5713H49.1074C49.3441 28.5714 49.5709 28.6657 49.7383 28.833C49.9056 29.0004 49.9999 29.2272 50 29.4639C50 29.7007 49.9057 29.9283 49.7383 30.0957C49.5709 30.263 49.3441 30.3573 49.1074 30.3574H0.892578C0.655944 30.3573 0.429083 30.263 0.261719 30.0957C0.0942756 29.9283 0 29.7007 0 29.4639C0.000110963 29.2272 0.0943744 29.0004 0.261719 28.833C0.429089 28.6657 0.655911 28.5714 0.892578 28.5713H21.4287C20.8457 27.8003 20.5323 26.8591 20.5361 25.8926C20.5362 24.7087 21.0066 23.5735 21.8438 22.7363C22.681 21.8992 23.8161 21.4287 25 21.4287ZM11.1357 11.9023C11.3486 11.7987 11.5945 11.7841 11.8184 11.8613C15.8661 13.2695 19.4175 15.8243 22.04 19.2139C22.1869 19.3995 22.2538 19.636 22.2266 19.8711C22.1992 20.1062 22.08 20.3207 21.8945 20.4678C21.7088 20.6149 21.4716 20.6826 21.2363 20.6553C21.0012 20.6279 20.7867 20.5079 20.6396 20.3223C18.2278 17.2009 14.9601 14.8484 11.2354 13.5498C11.0118 13.4726 10.8283 13.3093 10.7246 13.0967C10.6209 12.8838 10.6054 12.6379 10.6826 12.4141C10.7598 12.1903 10.9229 12.006 11.1357 11.9023ZM38.7441 5.62207C38.8917 5.63479 39.0342 5.68318 39.1592 5.7627C39.2841 5.84221 39.3879 5.95084 39.4619 6.0791C39.5359 6.20743 39.5777 6.35198 39.584 6.5C39.5844 6.68329 39.5287 6.86238 39.4238 7.0127C39.3188 7.1631 39.1694 7.27803 38.9971 7.34082C32.4622 10.3983 28.824 16.1386 27.2354 19.2949C27.1287 19.5064 26.9417 19.667 26.7168 19.7412C26.4919 19.8153 26.2466 19.7969 26.0352 19.6904C25.8237 19.5839 25.6631 19.3977 25.5889 19.1729C25.5147 18.9481 25.5332 18.7027 25.6396 18.4912C27.7158 14.3692 31.5987 8.80217 38.3115 5.68945C38.4482 5.63257 38.5967 5.60938 38.7441 5.62207ZM4.46387 7.14258C6.92942 7.14258 8.92871 9.14186 8.92871 11.6074C8.92856 14.0729 6.92933 16.0713 4.46387 16.0713C1.9986 16.0711 0.000150741 14.0727 0 11.6074C0 9.142 1.9985 7.1428 4.46387 7.14258ZM45.5361 0C48.0014 0.000225204 49.9998 1.99864 50 4.46387C50 6.92929 48.0015 8.92849 45.5361 8.92871C43.0706 8.92871 41.0713 6.92942 41.0713 4.46387C41.0715 1.9985 43.0707 0 45.5361 0Z" fill="url(#paint0_linear_1193_65)"/>
<defs>
<linearGradient id="paint0_linear_1193_65" x1="25" y1="6.25007" x2="25" y2="40.6254" gradientUnits="userSpaceOnUse">
<stop stop-color="#C17CF0"/>
<stop offset="1" stop-color="#8471D6"/>
</linearGradient>
</defs>
</svg>
