<svg width="41" height="50" viewBox="0 0 41 50" fill="none" xmlns="http://www.w3.org/2000/svg">
<path d="M19.7798 5.24032V0.720814C19.7798 0.322925 20.1024 0 20.5 0C20.8976 0 21.2202 0.322925 21.2202 0.720814V5.24032C21.2202 5.63821 20.8976 5.96113 20.5 5.96113C20.1024 5.96113 19.7798 5.63821 19.7798 5.24032ZM6.00509 7.02794C5.72421 6.74682 5.72421 6.28983 6.00509 6.00871C6.28597 5.72759 6.74259 5.72759 7.02347 6.00871L10.2169 9.2048C10.4978 9.48592 10.4978 9.94291 10.2169 10.224C10.0757 10.3653 9.89134 10.4345 9.70696 10.4345C9.52259 10.4345 9.33822 10.3639 9.19705 10.224L6.00509 7.02794ZM0 20.5158C0 20.1179 0.322654 19.795 0.720209 19.795H5.23591C5.63347 19.795 5.95612 20.1179 5.95612 20.5158C5.95612 20.9137 5.63347 21.2366 5.23591 21.2366H0.720209C0.322654 21.2366 0 20.9151 0 20.5158ZM6.00509 34.0051L9.19849 30.809C9.47938 30.5279 9.93599 30.5279 10.2169 30.809C10.4978 31.0902 10.4978 31.5472 10.2169 31.8283L7.02347 35.0244C6.88231 35.1656 6.69793 35.2348 6.51356 35.2348C6.32919 35.2348 6.14481 35.1642 6.00365 35.0244C5.72421 34.7432 5.72421 34.2863 6.00509 34.0051ZM34.9949 34.0051C35.2758 34.2863 35.2758 34.7432 34.9949 35.0244C34.8537 35.1656 34.6694 35.2348 34.485 35.2348C34.3006 35.2348 34.1162 35.1642 33.9751 35.0244L30.7817 31.8283C30.5008 31.5472 30.5008 31.0902 30.7817 30.809C31.0626 30.5279 31.5192 30.5279 31.8001 30.809L34.9949 34.0051ZM35.0439 20.5173C35.0439 20.1194 35.3665 19.7964 35.7641 19.7964H40.2798C40.6773 19.7964 41 20.1194 41 20.5173C41 20.9151 40.6773 21.2381 40.2798 21.2381H35.7641C35.3665 21.2381 35.0439 20.9151 35.0439 20.5173ZM30.7831 10.224C30.5023 9.94291 30.5023 9.48592 30.7831 9.2048L33.9765 6.00871C34.2574 5.72759 34.714 5.72759 34.9949 6.00871C35.2758 6.28983 35.2758 6.74682 34.9949 7.02794L31.8015 10.224C31.6603 10.3653 31.476 10.4345 31.2916 10.4345C31.1087 10.4345 30.9243 10.3653 30.7831 10.224ZM27.3348 42.9346V36.59C27.3348 33.1214 28.5951 31.3497 29.9275 29.4741C31.4385 27.3491 32.9999 25.1521 32.9999 20.6239C32.9999 13.3653 27.3924 7.46043 20.4986 7.46043C13.6047 7.46043 7.99719 13.3653 7.99719 20.6239C7.99719 25.1521 9.5586 27.3491 11.0696 29.4741C12.4034 31.3497 13.6623 33.1214 13.6623 36.59V42.9346C13.6623 46.8299 16.729 50 20.4971 50C24.2652 50 27.3348 46.8299 27.3348 42.9346ZM15.1056 37.3108H25.8944V42.2138H15.1056V37.3108ZM12.245 28.638C10.8017 26.6081 9.43905 24.6922 9.43905 20.6239C9.43905 14.1611 14.4013 8.90206 20.5 8.90206C26.5987 8.90206 31.561 14.1611 31.561 20.6239C31.561 24.6922 30.1983 26.6081 28.755 28.638C27.437 30.4904 26.0773 32.4035 25.9116 35.8692H15.0898C14.9227 32.4035 13.563 30.4904 12.245 28.638ZM20.5 48.5584C17.7603 48.5584 15.4917 46.4176 15.1517 43.6554H25.8483C25.5083 46.4176 23.2397 48.5584 20.5 48.5584ZM17.0632 27.4472L17.9548 26.6946C17.9649 26.686 17.985 26.6672 18.0225 26.6831C18.0585 26.6975 18.0614 26.7249 18.0628 26.7379L18.1708 27.8998C18.2429 28.6668 18.8262 29.2579 19.5925 29.3386C19.895 29.3703 20.199 29.3862 20.5029 29.3862C20.8299 29.3862 21.1568 29.3689 21.4809 29.3314C22.2472 29.2463 22.8263 28.6495 22.8925 27.8811L22.9905 26.7177C22.9919 26.7033 22.9934 26.6773 23.0294 26.6615C23.0654 26.6456 23.0855 26.6629 23.0971 26.673L23.9945 27.4183C24.5865 27.9114 25.4176 27.9143 26.0154 27.4299C26.5051 27.032 26.9531 26.5807 27.3463 26.0863C27.826 25.4837 27.8159 24.6533 27.3189 24.0637L26.567 23.1713C26.5584 23.1598 26.5411 23.1396 26.5555 23.1035C26.5699 23.0675 26.5973 23.0646 26.6103 23.0632L27.7712 22.9551C28.5375 22.883 29.1281 22.2991 29.2088 21.5322C29.2736 20.9051 29.2721 20.2693 29.2016 19.6422C29.1166 18.8767 28.5202 18.2957 27.7525 18.2308L26.5901 18.1328C26.5757 18.1314 26.5498 18.1299 26.5339 18.0939C26.5195 18.0578 26.5353 18.0377 26.5454 18.0261L27.2901 17.128C27.7813 16.5355 27.7856 15.7037 27.3017 15.1054C26.9041 14.6152 26.4532 14.1669 25.9606 13.7733C25.3585 13.2918 24.5274 13.3033 23.9397 13.8007L23.0481 14.5532C23.0366 14.5619 23.0164 14.5792 22.9804 14.5648C22.9444 14.5504 22.9415 14.523 22.9401 14.51L22.832 13.348C22.76 12.5811 22.1766 11.99 21.4103 11.9093C20.7838 11.8444 20.1485 11.8459 19.522 11.9165C18.7571 12.0016 18.1766 12.5984 18.1118 13.3668L18.0138 14.5302C18.0124 14.5446 18.011 14.5705 17.975 14.5864C17.9389 14.6008 17.9188 14.585 17.9073 14.5749L17.0099 13.8295C16.4179 13.3379 15.5867 13.3336 14.989 13.818C14.4992 14.2159 14.0513 14.6686 13.658 15.1616C13.1784 15.7642 13.1884 16.5946 13.6854 17.1842L14.4373 18.0766C14.4459 18.0881 14.4632 18.1083 14.4488 18.1443C14.4344 18.1804 14.407 18.1833 14.3941 18.1847L13.2331 18.2928C12.4668 18.3649 11.8762 18.9488 11.7956 19.7157C11.7307 20.3428 11.7322 20.9786 11.8028 21.6057C11.8878 22.3712 12.4841 22.9522 13.2518 23.017L14.4142 23.1151C14.4286 23.1165 14.4546 23.118 14.4704 23.154C14.4848 23.19 14.469 23.2102 14.4589 23.2218L13.7142 24.1199C13.223 24.7124 13.2187 25.5442 13.7027 26.1425C14.1002 26.6326 14.5511 27.081 15.0451 27.4746C15.6429 27.9546 16.474 27.9431 17.0632 27.4472ZM14.819 25.0396L15.5637 24.1415C15.9238 23.7076 16.0117 23.1151 15.7942 22.5961C15.5767 22.0771 15.0927 21.7253 14.5324 21.6778L13.3699 21.5797C13.2936 21.574 13.2403 21.5221 13.2317 21.4442C13.1726 20.9195 13.1712 20.3875 13.2259 19.8628C13.2345 19.7864 13.2864 19.733 13.3642 19.7258L14.5252 19.6177C15.0855 19.5658 15.5666 19.2097 15.7798 18.6893C15.9929 18.1688 15.8993 17.5778 15.5363 17.1467L14.7844 16.2544C14.734 16.1953 14.734 16.1217 14.7815 16.0612C15.11 15.6489 15.4845 15.2712 15.895 14.9382C15.9555 14.8891 16.0289 14.8906 16.088 14.9396L16.9854 15.6849C17.419 16.0453 18.011 16.1333 18.5295 15.9156C19.0481 15.6979 19.3995 15.2135 19.4471 14.6527L19.545 13.4893C19.5522 13.4129 19.6026 13.3596 19.6804 13.3509C20.2047 13.2918 20.7362 13.2904 21.2605 13.3452C21.3369 13.3524 21.3902 13.4057 21.3959 13.4836L21.504 14.6455C21.5558 15.2063 21.9116 15.6878 22.4316 15.9012C22.9516 16.1145 23.5436 16.0208 23.9728 15.6575L24.8645 14.905C24.9235 14.856 24.997 14.8545 25.0575 14.9021C25.4694 15.2308 25.8468 15.6056 26.1796 16.0165C26.2285 16.077 26.2271 16.1506 26.1781 16.2097L25.4334 17.1078C25.0733 17.5417 24.9855 18.1342 25.203 18.6532C25.4205 19.1722 25.9044 19.524 26.4648 19.5715L27.6272 19.6696C27.7035 19.6753 27.7568 19.7272 27.7655 19.8051C27.8245 20.3298 27.826 20.8618 27.7712 21.3866C27.7626 21.463 27.7107 21.5149 27.6344 21.5221L26.4734 21.6302C25.9131 21.6821 25.432 22.0382 25.2188 22.56C25.0056 23.0805 25.0993 23.6715 25.4622 24.1026L26.2141 24.9935C26.2645 25.0526 26.2645 25.1276 26.217 25.1867C25.8886 25.599 25.5141 25.9767 25.1036 26.3097C25.0431 26.3587 24.9696 26.3573 24.9106 26.3083L24.0132 25.563C23.5796 25.2026 22.9876 25.1146 22.4691 25.3323C21.9505 25.55 21.599 26.0344 21.5515 26.5952L21.4536 27.7586C21.4464 27.835 21.3959 27.8883 21.3182 27.897C20.7938 27.9561 20.2623 27.9575 19.738 27.9027C19.6617 27.8955 19.6084 27.8422 19.6026 27.7658L19.4946 26.6038C19.4427 26.0416 19.087 25.5615 18.567 25.3482C18.3826 25.2717 18.1881 25.2357 17.9966 25.2357C17.648 25.2357 17.3037 25.3582 17.0257 25.5918L16.1341 26.3443C16.075 26.3948 16.0016 26.3948 15.9411 26.3472C15.5291 26.0171 15.1517 25.6422 14.819 25.2328C14.77 25.1737 14.77 25.0988 14.819 25.0396ZM20.5 24.29C22.5195 24.29 24.163 22.6451 24.163 20.6239C24.163 18.6028 22.5195 16.9579 20.5 16.9579C18.4805 16.9579 16.837 18.6028 16.837 20.6239C16.837 22.6451 18.4805 24.29 20.5 24.29ZM20.5 18.3995C21.7258 18.3995 22.7226 19.3971 22.7226 20.6239C22.7226 21.8508 21.7258 22.8484 20.5 22.8484C19.2742 22.8484 18.2774 21.8508 18.2774 20.6239C18.2774 19.3971 19.2742 18.3995 20.5 18.3995Z" fill="url(#paint0_linear_1183_510)"/>
<defs>
<linearGradient id="paint0_linear_1183_510" x1="20.5" y1="32.7731" x2="20.5" y2="61.1345" gradientUnits="userSpaceOnUse">
<stop stop-color="#C17CF0"/>
<stop offset="1" stop-color="#8471D6"/>
</linearGradient>
</defs>
</svg>
