<svg width="50" height="47" viewBox="0 0 50 47" fill="none" xmlns="http://www.w3.org/2000/svg">
<path d="M20.0391 16.1357C20.2505 16.1357 20.454 16.2196 20.6035 16.3691C20.7529 16.5186 20.8369 16.7213 20.8369 16.9326V32.1143H29.165V16.9492C29.1652 16.738 29.2491 16.5351 29.3984 16.3857C29.548 16.2362 29.7514 16.1523 29.9629 16.1523H45.8574C46.0689 16.1523 46.2724 16.2362 46.4219 16.3857C46.5712 16.5351 46.6552 16.738 46.6553 16.9492V32.1143H47.665C48.2852 32.1158 48.8797 32.3634 49.3174 32.8027C49.7551 33.2421 50.0008 33.8378 50 34.458V44.0586C50.0008 44.6788 49.7552 45.2746 49.3174 45.7139C48.8796 46.1531 48.2852 46.4 47.665 46.4014H2.33496C1.71489 46.3999 1.12037 46.153 0.682618 45.7139C0.244849 45.2746 -0.000604276 44.6787 1.11821e-06 44.0586V34.458C-0.000604564 33.8378 0.244866 33.2421 0.682618 32.8027C1.12036 32.3634 1.7148 32.1159 2.33496 32.1143H3.34766V16.9326C3.34768 16.7212 3.43156 16.5186 3.58106 16.3691C3.73056 16.2197 3.93313 16.1357 4.14453 16.1357H20.0391ZM46.0039 33.6943C45.956 33.7033 45.9069 33.709 45.8574 33.709H2.33496C2.23717 33.7095 2.13995 33.7287 2.04981 33.7666C1.95977 33.8045 1.87826 33.8602 1.80957 33.9297C1.74091 33.9991 1.6863 34.0815 1.64942 34.1719C1.61253 34.2624 1.59413 34.3602 1.59473 34.458V44.0586C1.59413 44.1562 1.61263 44.2533 1.64942 44.3438C1.68631 44.4343 1.74081 44.5174 1.80957 44.5869C1.87819 44.6562 1.95991 44.7112 2.04981 44.749C2.13994 44.7869 2.2372 44.8072 2.33496 44.8076H47.665C47.7627 44.8071 47.8592 44.7868 47.9492 44.749C48.0394 44.7112 48.1217 44.6564 48.1904 44.5869C48.2592 44.5174 48.3137 44.4343 48.3506 44.3438C48.3873 44.2534 48.4059 44.1562 48.4053 44.0586V34.458C48.4059 34.3602 48.3875 34.2624 48.3506 34.1719C48.3137 34.0814 48.2591 33.9992 48.1904 33.9297C48.1217 33.8601 48.0394 33.8045 47.9492 33.7666C47.8593 33.7288 47.7626 33.7095 47.665 33.709H46.1504C46.1008 33.709 46.0519 33.7033 46.0039 33.6943ZM4.94141 32.1143H19.2422V17.7295H15.9434L15.9883 23.6562C15.9891 23.7615 15.9684 23.8664 15.9287 23.9639C15.889 24.0611 15.8308 24.15 15.7568 24.2246C15.6827 24.2992 15.5942 24.358 15.4971 24.3984C15.4 24.4389 15.2956 24.46 15.1904 24.46L15.1914 24.4609C15.0834 24.461 14.9763 24.439 14.877 24.3965C14.7776 24.3539 14.6878 24.2912 14.6133 24.2129L12.1162 21.5859L9.56934 24.2178C9.45899 24.3318 9.31731 24.4104 9.16211 24.4434C9.00674 24.4762 8.84447 24.4619 8.69727 24.4023C8.55033 24.3428 8.42462 24.2408 8.33594 24.1094C8.24719 23.9777 8.19918 23.8219 8.19922 23.6631V17.7295H4.94141V32.1143ZM30.7598 32.1143H45.0605V17.7471H41.7568L41.8018 23.7832C41.8026 23.8884 41.7829 23.9934 41.7432 24.0908C41.7035 24.1881 41.6453 24.277 41.5713 24.3516C41.4972 24.4262 41.4086 24.4849 41.3115 24.5254C41.2144 24.5658 41.1101 24.5859 41.0049 24.5859C40.8964 24.5857 40.789 24.5646 40.6895 24.5215C40.5892 24.478 40.4984 24.4138 40.4238 24.334L37.9316 21.6699L35.3887 24.3398C35.2788 24.4552 35.1371 24.5354 34.9814 24.5693C34.8258 24.6033 34.6635 24.5893 34.5156 24.5303C34.3677 24.4711 34.2407 24.3692 34.1514 24.2373C34.062 24.1054 34.0137 23.9494 34.0137 23.79V17.7471H30.7598V32.1143ZM35.6084 21.7969L37.3574 19.958C37.4318 19.8798 37.5219 19.8179 37.6211 19.7754C37.7202 19.7329 37.8267 19.711 37.9346 19.7109H37.9385C38.047 19.7115 38.1545 19.7339 38.2539 19.7773C38.3533 19.8208 38.4425 19.8846 38.5166 19.9639L40.1924 21.7539L40.1621 17.7471H35.6084V21.7969ZM9.79395 21.6934L11.5488 19.8799C11.6231 19.8032 11.7122 19.7419 11.8105 19.7002C11.909 19.6585 12.0152 19.6367 12.1221 19.6367H12.125C12.2327 19.6369 12.3395 19.6596 12.4385 19.7021C12.5374 19.7447 12.6269 19.8068 12.7012 19.8848L14.3809 21.6504L14.3486 17.7295H9.79395V21.6934ZM12.0918 0C15.4699 0 18.2236 2.76756 18.2236 6.16895C18.2236 9.5704 15.4728 12.3389 12.0918 12.3389C8.71089 12.3388 5.96094 9.57094 5.96094 6.16895C5.96102 2.76702 8.71379 5.8779e-05 12.0918 0ZM37.9102 0C41.291 7.80003e-05 44.0409 2.7676 44.041 6.16895C44.041 9.57035 41.291 12.3388 37.9102 12.3389C34.5292 12.3389 31.7793 9.57097 31.7793 6.16895C31.7794 2.76699 34.5293 0 37.9102 0ZM12.0918 1.59473C9.5902 1.59479 7.55574 3.64458 7.55567 6.16895C7.55567 8.69338 9.59016 10.7441 12.0918 10.7441C14.5935 10.7441 16.6279 8.69398 16.6279 6.16895C16.6279 3.64397 14.5934 1.59473 12.0918 1.59473ZM37.9102 1.59473C35.4085 1.59473 33.3741 3.64454 33.374 6.16895C33.374 8.69342 35.4085 10.7441 37.9102 10.7441C40.4118 10.7441 42.4463 8.69394 42.4463 6.16895C42.4462 3.64402 40.4117 1.5948 37.9102 1.59473ZM14.2939 3.96582C14.5057 3.96475 14.7098 4.04729 14.8604 4.19629C15.0108 4.34524 15.0956 4.54808 15.0967 4.75977C15.0977 4.97154 15.0142 5.17567 14.8652 5.32617L11.9609 8.24805C11.887 8.3225 11.799 8.38149 11.7021 8.42188C11.6051 8.46234 11.5007 8.48333 11.3955 8.4834C11.2905 8.48328 11.1867 8.46225 11.0898 8.42188C10.9928 8.38141 10.9041 8.32269 10.8301 8.24805L9.32422 6.73145C9.17532 6.58149 9.09213 6.37831 9.09277 6.16699C9.09352 5.95553 9.17807 5.75251 9.32813 5.60352C9.47813 5.45459 9.68121 5.37137 9.89258 5.37207C10.104 5.37282 10.3071 5.45737 10.4561 5.60742L11.3955 6.55469L13.7305 4.20215C13.8794 4.05171 14.0823 3.96696 14.2939 3.96582ZM40.1113 3.9668C40.3228 3.96605 40.5267 4.04925 40.6768 4.19824C40.8266 4.34715 40.9113 4.5495 40.9121 4.76074C40.9129 4.97204 40.8294 5.17518 40.6807 5.3252L37.7793 8.24805C37.7054 8.32248 37.6173 8.38148 37.5205 8.42188C37.4235 8.46234 37.319 8.48333 37.2139 8.4834C37.1089 8.48331 37.0051 8.46221 36.9082 8.42188C36.8112 8.38145 36.7225 8.32261 36.6484 8.24805L35.1426 6.73145C34.9936 6.58139 34.9104 6.37747 34.9111 6.16602C34.912 5.95472 34.9965 5.7524 35.1465 5.60352C35.2965 5.45459 35.4995 5.37132 35.7109 5.37207C35.9223 5.37283 36.1245 5.45753 36.2734 5.60742L37.2139 6.55469L39.5488 4.20215C39.6977 4.05221 39.9 3.96767 40.1113 3.9668Z" fill="url(#paint0_linear_1193_77)"/>
<defs>
<linearGradient id="paint0_linear_1193_77" x1="25.0013" y1="-3.04824" x2="25.0013" y2="49.4496" gradientUnits="userSpaceOnUse">
<stop stop-color="#C17CF0"/>
<stop offset="1" stop-color="#8471D6"/>
</linearGradient>
</defs>
</svg>
