<svg width="50" height="50" viewBox="0 0 50 50" fill="none" xmlns="http://www.w3.org/2000/svg">
<path d="M27.1475 0C27.4706 0.000141908 27.7334 0.262821 27.7334 0.585938V5.05566H46.8896C47.2129 5.05566 47.4755 5.3184 47.4756 5.6416V34.7168H49.0391C49.3622 34.717 49.625 34.9796 49.625 35.3027V38.6543C49.625 38.9774 49.3621 39.2401 49.0391 39.2402H36.5254L42.2295 49.1211C42.3349 49.3027 42.334 49.5264 42.2295 49.708C42.125 49.8886 41.9316 50 41.7227 50H41.7207L36.0205 49.9863C35.8116 49.9853 35.6191 49.874 35.5146 49.6934L29.4785 39.2402H27.1152V47.5635C27.1152 47.8867 26.8525 48.1494 26.5293 48.1494H22.5078C22.1839 48.1492 21.9219 47.8865 21.9219 47.5635V39.2402H20.1543L14.1191 49.6934C14.0146 49.8739 13.8222 49.9854 13.6133 49.9863L7.91211 50H7.91113C7.70222 49.9999 7.50876 49.8886 7.4043 49.708C7.29886 49.5264 7.29892 49.3027 7.40332 49.1211L13.1084 39.2402H0.585938C0.262716 39.2402 3.2673e-05 38.9775 0 38.6543V35.3027C0 34.9795 0.262696 34.7168 0.585938 34.7168H2.14746V5.6416C2.14751 5.31847 2.41028 5.05577 2.7334 5.05566H21.8896V0.585938C21.8897 0.262734 22.1524 0 22.4756 0H27.1475ZM8.92676 48.8262L13.2734 48.8154L18.8008 39.2402H14.4619L8.92676 48.8262ZM36.3604 48.8154L40.7061 48.8262L35.1719 39.2402H30.832L36.3604 48.8154ZM23.0928 46.9775H25.9434V39.2402H23.0928V46.9775ZM1.17188 38.0684H48.4531V35.8887H1.17188V38.0684ZM3.31934 34.7168H46.3037V6.22754H3.31934V34.7168ZM13.6602 10.9131C15.0021 10.9134 16.0937 12.5133 16.0938 14.4805V26.793C16.0937 28.7602 15.0022 30.361 13.6602 30.3613H7.12598C5.78397 30.361 4.69241 28.7602 4.69238 26.793V14.4805C4.69246 12.5133 5.784 10.9134 7.12598 10.9131H13.6602ZM28.2715 10.9131C29.6924 10.9133 30.8485 12.5132 30.8486 14.4805V26.793C30.8486 28.7603 29.6924 30.3612 28.2715 30.3613H21.3545C19.9335 30.3613 18.7774 28.7604 18.7773 26.793V14.4805C18.7774 12.5131 19.9335 10.9131 21.3545 10.9131H28.2715ZM42.499 10.9131C43.8411 10.9133 44.9325 12.5132 44.9326 14.4805V26.793C44.9326 28.7603 43.8411 30.3612 42.499 30.3613H35.9658C34.6236 30.3613 33.5313 28.7604 33.5312 26.793V14.4805C33.5313 12.5131 34.6236 10.9131 35.9658 10.9131H42.499ZM7.12598 12.5752C6.41019 12.5755 5.82723 13.4312 5.82715 14.4805V26.7939C5.82715 27.8433 6.41014 28.6979 7.12598 28.6982H13.6602C14.376 28.6979 14.958 27.8433 14.958 26.7939V14.4805C14.9579 13.4312 14.3759 12.5755 13.6602 12.5752H7.12598ZM21.3545 12.5752C20.5964 12.5752 19.9796 13.431 19.9795 14.4805V26.7939C19.9795 27.8435 20.5964 28.6982 21.3545 28.6982H28.2715C29.0305 28.6981 29.6475 27.8434 29.6475 26.7939V14.4805C29.6474 13.4311 29.0304 12.5754 28.2715 12.5752H21.3545ZM35.9658 12.5752C35.2489 12.5752 34.6661 13.431 34.666 14.4805V26.7939C34.666 27.8435 35.2488 28.6982 35.9658 28.6982H42.499C43.215 28.6981 43.7979 27.8434 43.7979 26.7939V14.4805C43.7978 13.4311 43.2149 12.5754 42.499 12.5752H35.9658ZM23.0615 5.05566H26.5615V1.17188H23.0615V5.05566Z" fill="url(#paint0_linear_1193_53)"/>
<defs>
<linearGradient id="paint0_linear_1193_53" x1="24.8125" y1="32.7731" x2="24.8125" y2="61.1345" gradientUnits="userSpaceOnUse">
<stop stop-color="#C17CF0"/>
<stop offset="1" stop-color="#8471D6"/>
</linearGradient>
</defs>
</svg>
