<svg width="18" height="18" viewBox="0 0 18 18" fill="none" xmlns="http://www.w3.org/2000/svg">
<path fill-rule="evenodd" clip-rule="evenodd" d="M12.137 8.99997V4.39532C12.137 3.8955 11.9386 3.41662 11.5853 3.06332C11.232 2.71002 10.7531 2.5116 10.2533 2.5116H3.13699C2.32741 2.5116 1.67188 3.16797 1.67188 3.97671V6.06974C1.67188 6.41634 1.95318 6.69764 2.29978 6.69764C2.64639 6.69764 2.92769 6.41634 2.92769 6.06974V3.97671C2.92769 3.86118 3.02146 3.76741 3.13699 3.76741H10.2533C10.4199 3.76741 10.5798 3.83355 10.697 3.9516C10.815 4.06881 10.8812 4.22871 10.8812 4.39532V8.99997C10.8812 9.34657 11.1625 9.62788 11.5091 9.62788C11.8557 9.62788 12.137 9.34657 12.137 8.99997Z" fill="white"/>
<path fill-rule="evenodd" clip-rule="evenodd" d="M16.3271 9V1.46512C16.3271 0.655535 15.6716 0 14.862 0H8.16434C7.35475 0 6.69922 0.655535 6.69922 1.46512V3.13953C6.69922 3.48614 6.98052 3.76744 7.32713 3.76744C7.67373 3.76744 7.95503 3.48614 7.95503 3.13953V1.46512C7.95503 1.34958 8.0488 1.25581 8.16434 1.25581H14.862C14.9775 1.25581 15.0713 1.34958 15.0713 1.46512V9C15.0713 9.34661 15.3526 9.62791 15.6992 9.62791C16.0458 9.62791 16.3271 9.34661 16.3271 9Z" fill="white"/>
<path fill-rule="evenodd" clip-rule="evenodd" d="M3.97947 12.5581H6.4911C6.8377 12.5581 7.119 12.2768 7.119 11.9302C7.119 11.5835 6.8377 11.3022 6.4911 11.3022H3.97947C3.63286 11.3022 3.35156 11.5835 3.35156 11.9302C3.35156 12.2768 3.63286 12.5581 3.97947 12.5581Z" fill="white"/>
<path fill-rule="evenodd" clip-rule="evenodd" d="M3.97947 14.6511H6.4911C6.8377 14.6511 7.119 14.3698 7.119 14.0232C7.119 13.6766 6.8377 13.3953 6.4911 13.3953H3.97947C3.63286 13.3953 3.35156 13.6766 3.35156 14.0232C3.35156 14.3698 3.63286 14.6511 3.97947 14.6511Z" fill="white"/>
<path fill-rule="evenodd" clip-rule="evenodd" d="M15.6977 18C16.9686 18 18 16.9686 18 15.6977V10.6745C18 9.40357 16.9686 8.37213 15.6977 8.37213H11.5359C11.1985 8.37213 10.8812 8.20887 10.6845 7.93427L9.59358 6.40636C9.16074 5.80106 8.46335 5.44189 7.71991 5.44189C5.99944 5.44189 2.30233 5.44189 2.30233 5.44189C1.03144 5.44189 0 6.47334 0 7.74422V15.6977C0 16.9686 1.03144 18 2.30233 18H15.6977ZM15.6977 16.7442H2.30233C1.72465 16.7442 1.25581 16.2754 1.25581 15.6977V7.74422C1.25581 7.16655 1.72465 6.69771 2.30233 6.69771H7.71991C8.0573 6.69771 8.37461 6.86096 8.57135 7.13557L9.66223 8.66348C10.0951 9.26878 10.7925 9.62794 11.5359 9.62794H15.6977C16.2754 9.62794 16.7442 10.0968 16.7442 10.6745V15.6977C16.7442 16.2754 16.2754 16.7442 15.6977 16.7442Z" fill="white"/>
</svg>
