<svg width="72" height="45" viewBox="0 0 72 45" fill="none" xmlns="http://www.w3.org/2000/svg">
<path d="M47.5742 0C47.7208 3.7772e-05 47.8651 0.0384334 47.9922 0.111328C48.1193 0.18425 48.2248 0.289567 48.2988 0.416016L49.5059 2.47852H53.9229C55.2612 2.47792 56.5456 3.00693 57.4941 3.95117C58.4427 4.89553 58.9781 6.1781 58.9834 7.5166C58.9886 8.85495 58.4634 10.141 57.5225 11.0928C56.9057 11.7166 56.1425 12.1617 55.3135 12.3984L57.9668 16.9297C58.6898 16.7874 59.4302 16.7138 60.1777 16.7129C62.4538 16.713 64.6788 17.3879 66.5713 18.6523C68.4639 19.9169 69.9394 21.7145 70.8105 23.8174C71.6816 25.9204 71.9099 28.2352 71.4658 30.4678C71.0217 32.7002 69.925 34.7508 68.3154 36.3604C67.6639 37.0119 66.9391 37.5777 66.1602 38.0518H70.835C71.0576 38.0518 71.2712 38.1395 71.4287 38.2969C71.5863 38.4544 71.6748 38.6688 71.6748 38.8916V40.4658C71.6737 41.4309 71.2898 42.3566 70.6074 43.0391C69.9249 43.7215 68.9993 44.1054 68.0342 44.1064H3.65723C2.69214 44.1053 1.76641 43.7215 1.08398 43.0391C0.401705 42.3566 0.0176761 41.4308 0.0166016 40.4658V38.8916C0.0166016 38.6688 0.105148 38.4544 0.262695 38.2969C0.42024 38.1393 0.634628 38.0518 0.857422 38.0518H5.52441C4.09993 37.1844 2.87385 36.0146 1.93945 34.6162C0.674889 32.7236 0 30.4979 0 28.2217C0.00381236 25.1706 1.21755 22.2454 3.375 20.0879C5.53259 17.9303 8.45847 16.7166 11.5098 16.7129C13.7858 16.713 16.0108 17.3879 17.9033 18.6523C19.7959 19.9169 21.2715 21.7145 22.1426 23.8174C22.3424 24.2997 22.5069 24.7939 22.6387 25.2949C22.6309 25.2654 22.6242 25.2355 22.6162 25.2061H23.7402L25.7148 19.9346C25.8736 19.5085 25.8793 19.0403 25.7314 18.6104C25.5836 18.1804 25.2915 17.8146 24.9043 17.5762L11.0674 9.08789C10.9453 9.01262 10.8445 8.90644 10.7744 8.78125C10.7045 8.65618 10.6673 8.51536 10.667 8.37207C10.6624 7.71971 10.8349 7.07827 11.165 6.51562C11.4953 5.9529 11.972 5.48989 12.5439 5.17578C13.1113 4.85389 13.7551 4.69103 14.4072 4.70508C15.0592 4.71918 15.6953 4.90899 16.248 5.25488L23.2061 9.54395H35.8418C36.0645 9.54395 36.278 9.45526 36.4355 9.29785C36.593 9.14038 36.6816 8.9268 36.6816 8.7041C36.6816 8.4813 36.5931 8.26692 36.4355 8.10938C36.278 7.95208 36.0644 7.86328 35.8418 7.86328H29.4531C30.9903 5.56662 33.3409 3.93783 36.0312 3.30566C38.721 2.67369 41.5504 3.08503 43.9492 4.45605L42.3252 1.68066H36.8076C36.7588 1.68064 36.7106 1.67532 36.6631 1.66699C36.6453 1.6639 36.6279 1.65949 36.6104 1.65527C36.5307 1.63595 36.4544 1.60586 36.3838 1.56445C36.3222 1.52851 36.2642 1.48582 36.2129 1.43457C36.0553 1.27702 35.9668 1.06265 35.9668 0.839844C35.9669 0.617127 36.0554 0.403583 36.2129 0.246094C36.3704 0.0886294 36.5839 0 36.8066 0H47.5742ZM47.7598 24.458C46.766 26.4856 45.2254 28.1953 43.3115 29.3936C41.3976 30.5917 39.1867 31.2311 36.9287 31.2393H22.6162C22.6822 30.9953 22.7402 30.7493 22.79 30.502C22.3415 32.7211 21.2487 34.7591 19.6475 36.3604C18.9959 37.0119 18.2711 37.5777 17.4922 38.0518H54.1924C52.7679 37.1844 51.5418 36.0146 50.6074 34.6162C49.3429 32.7236 48.668 30.4979 48.668 28.2217C48.6718 25.1706 49.8855 22.2454 52.043 20.0879C52.2638 19.8671 52.4942 19.6578 52.7305 19.457L51.3408 17.083L47.7598 24.458ZM12.96 20.9297C11.5178 20.6428 10.0226 20.7908 8.66406 21.3535C7.30562 21.9162 6.14405 22.8692 5.32715 24.0918C4.51044 25.3142 4.0743 26.7515 4.07422 28.2217C4.07637 30.1928 4.86106 32.0827 6.25488 33.4766C7.64871 34.8704 9.5386 35.6551 11.5098 35.6572C12.9799 35.6571 14.4172 35.221 15.6396 34.4043C16.8622 33.5874 17.8152 32.4258 18.3779 31.0674C18.9407 29.7089 19.0877 28.2137 18.8008 26.7715C18.5139 25.3294 17.8063 24.0046 16.7666 22.9648C15.7268 21.9251 14.4021 21.2166 12.96 20.9297ZM61.6279 20.9297C60.1857 20.6428 58.6906 20.7908 57.332 21.3535C55.9736 21.9162 54.812 22.8692 53.9951 24.0918C53.1784 25.3142 52.7423 26.7515 52.7422 28.2217C52.7443 30.1928 53.529 32.0827 54.9229 33.4766C56.3167 34.8704 58.2066 35.6551 60.1777 35.6572C61.6479 35.6571 63.0852 35.221 64.3076 34.4043C65.5302 33.5874 66.4832 32.4258 67.0459 31.0674C67.6086 29.7089 67.7556 28.2137 67.4688 26.7715C67.1818 25.3294 66.4743 24.0046 65.4346 22.9648C64.3948 21.9251 63.0701 21.2166 61.6279 20.9297ZM11.5068 22.4688C14.6846 22.4689 17.2606 25.0449 17.2607 28.2227C17.2607 31.4005 14.6847 33.9774 11.5068 33.9775C8.32889 33.9775 5.75195 31.4006 5.75195 28.2227C5.7521 25.0448 8.32898 22.4688 11.5068 22.4688ZM60.1777 22.4688C61.3158 22.4688 62.4287 22.8062 63.375 23.4385C64.3213 24.0708 65.0586 24.97 65.4941 26.0215C65.9296 27.0729 66.0442 28.2296 65.8223 29.3457C65.6002 30.4619 65.0518 31.4872 64.2471 32.292C63.4423 33.0968 62.417 33.6451 61.3008 33.8672C60.1845 34.0892 59.0271 33.9756 57.9756 33.54C56.9243 33.1045 56.0258 32.367 55.3936 31.4209C54.7613 30.4746 54.4239 29.3617 54.4238 28.2236C54.4254 26.698 55.0317 25.2351 56.1104 24.1562C57.1891 23.0775 58.6521 22.4704 60.1777 22.4688ZM22.9512 29.4443C22.9559 29.4004 22.9607 29.3565 22.9648 29.3125C22.9607 29.3565 22.9559 29.4004 22.9512 29.4443ZM22.9863 29.0498C22.9894 29.0068 22.9925 28.9639 22.9951 28.9209C22.9925 28.9639 22.9894 29.0068 22.9863 29.0498ZM23.0088 28.667C23.0109 28.612 23.0113 28.557 23.0127 28.502C23.0114 28.557 23.0109 28.612 23.0088 28.667ZM23.0166 28.2656C23.0167 28.2516 23.0176 28.2376 23.0176 28.2236C23.0176 28.1762 23.0162 28.1284 23.0156 28.0811C23.0164 28.1426 23.0168 28.2041 23.0166 28.2656ZM22.9775 27.2822C22.9751 27.2533 22.9733 27.2243 22.9707 27.1953C22.9733 27.2243 22.9752 27.2533 22.9775 27.2822ZM22.9443 26.9424C22.9422 26.9237 22.9417 26.9044 22.9395 26.8857C22.937 26.8642 22.9333 26.8428 22.9307 26.8213C22.9356 26.8616 22.9398 26.902 22.9443 26.9424ZM22.8906 26.5234C22.8835 26.4755 22.8759 26.4277 22.8682 26.3799C22.8759 26.4277 22.8835 26.4755 22.8906 26.5234ZM22.8252 26.1318C22.8138 26.0699 22.8015 26.0081 22.7891 25.9463C22.8015 26.0081 22.8137 26.0699 22.8252 26.1318ZM22.7402 25.7148C22.7253 25.648 22.7105 25.5812 22.6943 25.5146C22.7104 25.5812 22.7253 25.648 22.7402 25.7148ZM31.1816 16.9102C31.0022 16.9101 30.8271 16.9678 30.6826 17.0742C30.5383 17.1806 30.432 17.3307 30.3789 17.502C30.3258 17.6732 30.3288 17.857 30.3877 18.0264C30.4466 18.1957 30.5582 18.3419 30.7061 18.4434V18.4443L37.1494 22.8623H33.2715C33.0488 22.8624 32.8352 22.951 32.6777 23.1084C32.5203 23.2658 32.4318 23.4795 32.4316 23.7021C32.4316 23.925 32.5202 24.1393 32.6777 24.2969C32.8352 24.4543 33.0488 24.5429 33.2715 24.543H40.7246C41.4144 24.5429 42.09 24.3465 42.6729 23.9775C43.2557 23.6086 43.7225 23.0815 44.0176 22.458L46.0732 18.1104C46.1338 17.9823 46.161 17.8406 46.1523 17.6992C46.1437 17.5578 46.0992 17.4205 46.0234 17.3008C45.9477 17.1813 45.8427 17.0828 45.7188 17.0146C45.5949 16.9465 45.4558 16.9102 45.3145 16.9102H31.1816ZM42.5029 21.7402C42.3817 21.9964 42.2066 22.2234 41.9893 22.4053C41.7718 22.5872 41.5169 22.7199 41.2432 22.7939C40.9693 22.868 40.682 22.8816 40.4023 22.834C40.1228 22.7864 39.8569 22.6789 39.623 22.5186L33.8965 18.5918H43.9912L42.5029 21.7402ZM47.3418 6.92285L54.0957 18.46C54.7888 18.0278 55.5237 17.6693 56.29 17.3936L53.2402 12.1836C53.2393 12.182 53.2382 12.1803 53.2373 12.1787L48.2988 3.74219C48.296 3.73741 48.2937 3.73237 48.291 3.72754L47.0928 1.67969H44.2715L47.3418 6.92285Z" fill="url(#paint0_linear_1183_1079)"/>
<defs>
<linearGradient id="paint0_linear_1183_1079" x1="35.8437" y1="-4.5" x2="35.8438" y2="49" gradientUnits="userSpaceOnUse">
<stop stop-color="#C17CF0"/>
<stop offset="1" stop-color="#8471D6"/>
</linearGradient>
</defs>
</svg>
