<svg width="169" height="46" viewBox="0 0 169 46" fill="none" xmlns="http://www.w3.org/2000/svg">
<path d="M20.6251 16.7569C23.5048 18.0981 26.4731 18.7636 28.9758 18.632H29.0213L29.201 0.789457C29.2023 0.647654 29.1651 0.508149 29.0933 0.385875C29.0215 0.263602 28.9177 0.163163 28.7932 0.0953123C28.6687 0.0274611 28.5281 -0.00524854 28.3864 0.000684872C28.2447 0.00661828 28.1073 0.0509713 27.9889 0.128996L12.9805 10.251C14.1951 12.5715 17.0014 15.0665 20.6251 16.7569Z" fill="#00AD93"/>
<path d="M28.3585 20.3452C25.7394 20.3452 22.7711 19.629 19.9091 18.2929C15.9615 16.4532 12.9933 13.8291 11.5585 11.2075L3.93661 16.3571C3.80468 16.4455 3.70278 16.5719 3.64447 16.7196C3.58616 16.8673 3.5742 17.0293 3.61019 17.1839C3.64618 17.3386 3.7284 17.4786 3.84593 17.5854C3.96346 17.6922 4.11071 17.7607 4.26811 17.7818L17.0826 19.5253C17.8358 19.6277 18.5263 20 19.026 20.5729L27.5386 30.3077C27.6431 30.4269 27.7814 30.5116 27.935 30.5507C28.0887 30.5897 28.2506 30.5813 28.3994 30.5265C28.5482 30.4717 28.6769 30.3731 28.7685 30.2437C28.8601 30.1143 28.9104 29.9602 28.9126 29.8016L29.0063 20.33C28.7954 20.3401 28.5795 20.3452 28.3585 20.3452Z" fill="#00AD93"/>
<path d="M28.3577 18.9939C25.7387 18.9939 22.7704 18.2778 19.9084 16.9416C13.1773 13.8038 9.28031 8.3835 11.0517 4.6004C12.823 0.8173 19.4656 0.318791 26.1967 3.45661C28.3132 4.42546 30.2617 5.72558 31.9688 7.30803C32.1322 7.46273 32.2275 7.67601 32.2336 7.90095C32.2398 8.12589 32.1564 8.34407 32.0017 8.50749C31.847 8.67091 31.6337 8.76618 31.4088 8.77235C31.1838 8.77852 30.9656 8.69508 30.8022 8.54039C29.23 7.08507 27.4362 5.88922 25.4882 4.99769C19.8072 2.34825 13.901 2.49755 12.5851 5.30894C11.2693 8.12032 14.9512 12.7587 20.6245 15.4056C23.5042 16.7468 26.4725 17.4149 28.9752 17.2807C31.2957 17.1593 32.9076 16.3799 33.5124 15.0817C34.1425 13.7279 33.5326 12.1818 32.9101 11.124C32.8536 11.028 32.8166 10.9218 32.8012 10.8114C32.7857 10.7011 32.7922 10.5888 32.8201 10.4809C32.8481 10.3731 32.897 10.2718 32.9641 10.1828C33.0312 10.0939 33.1152 10.019 33.2112 9.96253C33.3073 9.90603 33.4135 9.86901 33.5239 9.85357C33.6342 9.83813 33.7465 9.84457 33.8544 9.87254C34.0722 9.92901 34.2587 10.0697 34.3727 10.2637C35.5444 12.2552 35.7848 14.2214 35.0509 15.7979C34.1678 17.6907 32.0422 18.8345 29.0638 18.9762C28.836 18.9888 28.5981 18.9939 28.3577 18.9939Z" fill="#00AD93"/>
<path d="M168.314 17.1007C168.314 17.6626 168.278 18.1701 168.205 18.6233H156.759C156.85 19.8196 157.294 20.7802 158.091 21.5053C158.889 22.2303 159.868 22.5928 161.028 22.5928C162.695 22.5928 163.873 21.895 164.562 20.4993H167.906C167.453 21.8768 166.628 23.0097 165.432 23.8979C164.254 24.7679 162.786 25.2029 161.028 25.2029C159.596 25.2029 158.309 24.8857 157.167 24.2513C156.043 23.5988 155.155 22.6925 154.502 21.5325C153.868 20.3543 153.551 18.9949 153.551 17.4542C153.551 15.9135 153.859 14.5631 154.475 13.4031C155.11 12.2249 155.989 11.3186 157.112 10.6842C158.254 10.0498 159.559 9.73264 161.028 9.73264C162.441 9.73264 163.701 10.0408 164.807 10.657C165.912 11.2733 166.773 12.1434 167.39 13.2671C168.006 14.3728 168.314 15.6507 168.314 17.1007ZM165.079 16.1219C165.061 14.98 164.653 14.0647 163.855 13.3759C163.058 12.6871 162.07 12.3427 160.892 12.3427C159.822 12.3427 158.907 12.6871 158.146 13.3759C157.384 14.0465 156.931 14.9619 156.786 16.1219H165.079Z" fill="white"/>
<path d="M144.467 9.73264C145.645 9.73264 146.696 9.97733 147.621 10.4667C148.563 10.9561 149.297 11.6811 149.823 12.6418C150.367 13.6025 150.639 14.7625 150.639 16.1219V24.9582H147.566V16.5841C147.566 15.2428 147.231 14.2187 146.56 13.5118C145.89 12.7868 144.974 12.4243 143.814 12.4243C142.654 12.4243 141.73 12.7868 141.041 13.5118C140.37 14.2187 140.035 15.2428 140.035 16.5841V24.9582H136.963V16.5841C136.963 15.2428 136.627 14.2187 135.957 13.5118C135.286 12.7868 134.371 12.4243 133.211 12.4243C132.051 12.4243 131.126 12.7868 130.438 13.5118C129.767 14.2187 129.432 15.2428 129.432 16.5841V24.9582H126.332V9.97733H129.432V11.6902C129.939 11.0739 130.583 10.5936 131.362 10.2492C132.141 9.90483 132.975 9.73264 133.863 9.73264C135.06 9.73264 136.129 9.98639 137.071 10.4939C138.014 11.0014 138.739 11.7355 139.247 12.6962C139.7 11.7899 140.407 11.0739 141.367 10.5483C142.328 10.0045 143.361 9.73264 144.467 9.73264Z" fill="white"/>
<path d="M122.242 9.97733V24.9582H119.143V23.1909C118.653 23.8072 118.01 24.2966 117.212 24.6591C116.433 25.0035 115.599 25.1757 114.711 25.1757C113.533 25.1757 112.472 24.931 111.53 24.4416C110.605 23.9522 109.871 23.2272 109.328 22.2665C108.802 21.3059 108.539 20.1458 108.539 18.7864V9.97733H111.611V18.3242C111.611 19.6655 111.947 20.6987 112.617 21.4237C113.288 22.1306 114.203 22.484 115.363 22.484C116.523 22.484 117.439 22.1306 118.109 21.4237C118.798 20.6987 119.143 19.6655 119.143 18.3242V9.97733H122.242Z" fill="white"/>
<path d="M106.335 9.97733L97.1451 32H93.9368L96.9819 24.7135L91.082 9.97733H94.535L98.7492 21.3965L103.127 9.97733H106.335Z" fill="white"/>
<path d="M82.7998 22.4297H89.597V24.9582H79.2109V22.4297L86.0353 12.5059H79.2109V9.97733H89.597V12.5059L82.7998 22.4297Z" fill="white"/>
<path d="M77.0016 17.1007C77.0016 17.6626 76.9654 18.1701 76.8929 18.6233H65.4465C65.5372 19.8196 65.9812 20.7802 66.7788 21.5053C67.5763 22.2303 68.5551 22.5928 69.7151 22.5928C71.3827 22.5928 72.5609 21.895 73.2496 20.4993H76.5938C76.1407 21.8768 75.316 23.0097 74.1197 23.8979C72.9415 24.7679 71.4733 25.2029 69.7151 25.2029C68.2832 25.2029 66.9963 24.8857 65.8544 24.2513C64.7306 23.5988 63.8424 22.6925 63.1899 21.5325C62.5555 20.3543 62.2383 18.9949 62.2383 17.4542C62.2383 15.9135 62.5464 14.5631 63.1627 13.4031C63.7971 12.2249 64.6762 11.3186 65.8 10.6842C66.9419 10.0498 68.2469 9.73264 69.7151 9.73264C71.1289 9.73264 72.3887 10.0408 73.4943 10.657C74.6 11.2733 75.461 12.1434 76.0772 13.2671C76.6935 14.3728 77.0016 15.6507 77.0016 17.1007ZM73.7662 16.1219C73.7481 14.98 73.3403 14.0647 72.5427 13.3759C71.7452 12.6871 70.7573 12.3427 69.5792 12.3427C68.5098 12.3427 67.5944 12.6871 66.8331 13.3759C66.0719 14.0465 65.6187 14.9619 65.4737 16.1219H73.7662Z" fill="white"/>
<path d="M55.9088 24.9582L51.5586 17.3998H49.1932V24.9582H46.0938V6.06219H52.619C54.069 6.06219 55.2925 6.31595 56.2894 6.82347C57.3045 7.33099 58.0567 8.01071 58.5461 8.86261C59.0536 9.71452 59.3074 10.6661 59.3074 11.7174C59.3074 12.95 58.9449 14.0737 58.2198 15.0888C57.5129 16.0857 56.4163 16.7654 54.93 17.1279L59.6064 24.9582H55.9088ZM49.1932 14.9257H52.619C53.779 14.9257 54.6491 14.6356 55.2291 14.0556C55.8272 13.4756 56.1263 12.6962 56.1263 11.7174C56.1263 10.7386 55.8363 9.97734 55.2563 9.43357C54.6763 8.87167 53.7972 8.59073 52.619 8.59073H49.1932V14.9257Z" fill="white"/>
<path d="M120.058 45V36.672H121.186V45H120.058ZM120.826 45V43.968H125.602V45H120.826ZM120.826 41.232V40.248H125.206V41.232H120.826ZM120.826 37.704V36.672H125.542V37.704H120.826ZM129.251 45.12C128.723 45.12 128.251 44.992 127.835 44.736C127.419 44.472 127.087 44.116 126.839 43.668C126.599 43.22 126.479 42.716 126.479 42.156C126.479 41.596 126.599 41.092 126.839 40.644C127.087 40.196 127.419 39.84 127.835 39.576C128.251 39.312 128.723 39.18 129.251 39.18C129.675 39.18 130.059 39.272 130.403 39.456C130.747 39.632 131.023 39.88 131.231 40.2C131.447 40.512 131.567 40.876 131.591 41.292V43.008C131.567 43.416 131.451 43.78 131.243 44.1C131.035 44.42 130.759 44.672 130.415 44.856C130.071 45.032 129.683 45.12 129.251 45.12ZM129.431 44.1C129.791 44.1 130.103 44.016 130.367 43.848C130.639 43.68 130.851 43.452 131.003 43.164C131.155 42.868 131.231 42.532 131.231 42.156C131.231 41.764 131.151 41.424 130.991 41.136C130.839 40.848 130.627 40.62 130.355 40.452C130.091 40.284 129.779 40.2 129.419 40.2C129.059 40.2 128.743 40.284 128.471 40.452C128.199 40.62 127.983 40.852 127.823 41.148C127.671 41.436 127.595 41.768 127.595 42.144C127.595 42.528 127.671 42.868 127.823 43.164C127.983 43.452 128.199 43.68 128.471 43.848C128.751 44.016 129.071 44.1 129.431 44.1ZM132.251 45H131.159V43.464L131.363 42.072L131.159 40.692V36.432H132.251V45ZM136.115 45.12C135.651 45.12 135.231 45.016 134.855 44.808C134.487 44.592 134.199 44.296 133.991 43.92C133.783 43.544 133.679 43.108 133.679 42.612V39.3H134.759V42.564C134.759 42.876 134.811 43.148 134.915 43.38C135.027 43.604 135.187 43.776 135.395 43.896C135.603 44.016 135.847 44.076 136.127 44.076C136.551 44.076 136.883 43.944 137.123 43.68C137.363 43.408 137.483 43.036 137.483 42.564V39.3H138.563V42.612C138.563 43.108 138.459 43.544 138.251 43.92C138.043 44.296 137.755 44.592 137.387 44.808C137.027 45.016 136.603 45.12 136.115 45.12ZM142.615 45.12C142.055 45.12 141.547 44.988 141.091 44.724C140.643 44.46 140.287 44.104 140.023 43.656C139.767 43.2 139.639 42.696 139.639 42.144C139.639 41.584 139.767 41.08 140.023 40.632C140.287 40.184 140.643 39.832 141.091 39.576C141.547 39.312 142.055 39.18 142.615 39.18C143.055 39.18 143.463 39.264 143.839 39.432C144.215 39.592 144.539 39.828 144.811 40.14L144.091 40.86C143.915 40.652 143.699 40.496 143.443 40.392C143.195 40.28 142.919 40.224 142.615 40.224C142.255 40.224 141.935 40.308 141.655 40.476C141.375 40.636 141.155 40.86 140.995 41.148C140.835 41.436 140.755 41.768 140.755 42.144C140.755 42.52 140.835 42.852 140.995 43.14C141.155 43.428 141.375 43.656 141.655 43.824C141.935 43.992 142.255 44.076 142.615 44.076C142.919 44.076 143.195 44.024 143.443 43.92C143.699 43.808 143.919 43.648 144.103 43.44L144.811 44.16C144.547 44.464 144.223 44.7 143.839 44.868C143.463 45.036 143.055 45.12 142.615 45.12ZM148.189 45.12C147.669 45.12 147.197 44.992 146.773 44.736C146.349 44.472 146.013 44.116 145.765 43.668C145.525 43.22 145.405 42.716 145.405 42.156C145.405 41.596 145.525 41.092 145.765 40.644C146.013 40.196 146.345 39.84 146.761 39.576C147.185 39.312 147.661 39.18 148.189 39.18C148.621 39.18 149.005 39.272 149.341 39.456C149.685 39.632 149.961 39.88 150.169 40.2C150.377 40.512 150.493 40.876 150.517 41.292V43.008C150.493 43.416 150.377 43.78 150.169 44.1C149.969 44.42 149.697 44.672 149.353 44.856C149.017 45.032 148.629 45.12 148.189 45.12ZM148.369 44.1C148.905 44.1 149.337 43.92 149.665 43.56C149.993 43.192 150.157 42.724 150.157 42.156C150.157 41.764 150.081 41.424 149.929 41.136C149.785 40.84 149.577 40.612 149.305 40.452C149.033 40.284 148.717 40.2 148.357 40.2C147.997 40.2 147.677 40.284 147.397 40.452C147.125 40.62 146.909 40.852 146.749 41.148C146.597 41.436 146.521 41.768 146.521 42.144C146.521 42.528 146.597 42.868 146.749 43.164C146.909 43.452 147.129 43.68 147.409 43.848C147.689 44.016 148.009 44.1 148.369 44.1ZM150.085 45V43.464L150.289 42.072L150.085 40.692V39.3H151.177V45H150.085ZM153.602 45V36.912H154.682V45H153.602ZM152.198 40.284V39.3H156.086V40.284H152.198ZM159.572 45.12C159.012 45.12 158.508 44.988 158.06 44.724C157.612 44.46 157.256 44.104 156.992 43.656C156.728 43.2 156.596 42.692 156.596 42.132C156.596 41.58 156.728 41.084 156.992 40.644C157.256 40.196 157.612 39.84 158.06 39.576C158.508 39.312 159.012 39.18 159.572 39.18C160.124 39.18 160.624 39.312 161.072 39.576C161.528 39.832 161.888 40.184 162.152 40.632C162.416 41.08 162.548 41.58 162.548 42.132C162.548 42.692 162.416 43.2 162.152 43.656C161.888 44.104 161.528 44.46 161.072 44.724C160.624 44.988 160.124 45.12 159.572 45.12ZM159.572 44.076C159.932 44.076 160.252 43.992 160.532 43.824C160.812 43.656 161.032 43.428 161.192 43.14C161.352 42.844 161.432 42.508 161.432 42.132C161.432 41.764 161.348 41.436 161.18 41.148C161.02 40.86 160.8 40.636 160.52 40.476C160.248 40.308 159.932 40.224 159.572 40.224C159.212 40.224 158.892 40.308 158.612 40.476C158.332 40.636 158.112 40.86 157.952 41.148C157.792 41.436 157.712 41.764 157.712 42.132C157.712 42.508 157.792 42.844 157.952 43.14C158.112 43.428 158.332 43.656 158.612 43.824C158.892 43.992 159.212 44.076 159.572 44.076ZM163.765 45V39.3H164.845V45H163.765ZM164.845 41.748L164.437 41.568C164.437 40.84 164.605 40.26 164.941 39.828C165.277 39.396 165.761 39.18 166.393 39.18C166.681 39.18 166.941 39.232 167.173 39.336C167.405 39.432 167.621 39.596 167.821 39.828L167.113 40.56C166.993 40.432 166.861 40.34 166.717 40.284C166.573 40.228 166.405 40.2 166.213 40.2C165.813 40.2 165.485 40.328 165.229 40.584C164.973 40.84 164.845 41.228 164.845 41.748Z" fill="#868686"/>
</svg>
