<svg width="165" height="32" viewBox="0 0 165 32" fill="none" xmlns="http://www.w3.org/2000/svg">
<path d="M17.0353 16.7569C19.915 18.0981 22.8832 18.7636 25.3859 18.632H25.4315L25.6111 0.789457C25.6125 0.647654 25.5753 0.508149 25.5034 0.385875C25.4316 0.263602 25.3279 0.163163 25.2034 0.0953123C25.0788 0.0274611 24.9382 -0.00524854 24.7965 0.000684872C24.6548 0.00661828 24.5174 0.0509713 24.399 0.128996L9.39062 10.251C10.6053 12.5715 13.4116 15.0665 17.0353 16.7569Z" fill="#00AD93"/>
<path d="M24.7686 20.3452C22.1496 20.3452 19.1813 19.629 16.3193 18.2929C12.3717 16.4532 9.40343 13.8291 7.96863 11.2075L0.346767 16.3571C0.214833 16.4455 0.112933 16.5719 0.0546232 16.7196C-0.00368679 16.8673 -0.0156431 17.0293 0.0203448 17.1839C0.0563327 17.3386 0.138559 17.4786 0.256085 17.5854C0.373612 17.6922 0.520867 17.7607 0.678262 17.7818L13.4927 19.5253C14.246 19.6277 14.9365 20 15.4361 20.5729L23.9487 30.3077C24.0533 30.4269 24.1915 30.5116 24.3452 30.5507C24.4989 30.5897 24.6608 30.5813 24.8096 30.5265C24.9583 30.4717 25.087 30.3731 25.1786 30.2437C25.2703 30.1143 25.3205 29.9602 25.3228 29.8016L25.4164 20.33C25.2056 20.3401 24.9896 20.3452 24.7686 20.3452Z" fill="#00AD93"/>
<path d="M24.7679 18.9939C22.1488 18.9939 19.1806 18.2778 16.3186 16.9416C9.58743 13.8038 5.69047 8.3835 7.46182 4.6004C9.23317 0.8173 15.8757 0.318791 22.6069 3.45661C24.7234 4.42546 26.6718 5.72558 28.3789 7.30803C28.5423 7.46273 28.6376 7.67601 28.6438 7.90095C28.65 8.12589 28.5665 8.34407 28.4118 8.50749C28.2571 8.67091 28.0438 8.76618 27.8189 8.77235C27.594 8.77852 27.3758 8.69508 27.2124 8.54039C25.6402 7.08507 23.8464 5.88922 21.8983 4.99769C16.2173 2.34825 10.3112 2.49755 8.9953 5.30894C7.67944 8.12032 11.3613 12.7587 17.0347 15.4056C19.9144 16.7468 22.8827 17.4149 25.3853 17.2807C27.7058 17.1593 29.3177 16.3799 29.9225 15.0817C30.5526 13.7279 29.9428 12.1818 29.3203 11.124C29.2638 11.028 29.2268 10.9218 29.2113 10.8114C29.1959 10.7011 29.2023 10.5888 29.2303 10.4809C29.2582 10.3731 29.3072 10.2718 29.3743 10.1828C29.4414 10.0939 29.5254 10.019 29.6214 9.96253C29.7174 9.90603 29.8237 9.86901 29.934 9.85357C30.0444 9.83813 30.1567 9.84457 30.2645 9.87254C30.4823 9.92901 30.6688 10.0697 30.7829 10.2637C31.9545 12.2552 32.1949 14.2214 31.4611 15.7979C30.5779 17.6907 28.4523 18.8345 25.4739 18.9762C25.2462 18.9888 25.0083 18.9939 24.7679 18.9939Z" fill="#00AD93"/>
<path d="M164.724 17.1007C164.724 17.6626 164.688 18.1701 164.616 18.6233H153.169C153.26 19.8196 153.704 20.7802 154.501 21.5053C155.299 22.2303 156.278 22.5928 157.438 22.5928C159.105 22.5928 160.284 21.895 160.972 20.4993H164.316C163.863 21.8768 163.039 23.0097 161.842 23.8979C160.664 24.7679 159.196 25.2029 157.438 25.2029C156.006 25.2029 154.719 24.8857 153.577 24.2513C152.453 23.5988 151.565 22.6925 150.913 21.5325C150.278 20.3543 149.961 18.9949 149.961 17.4542C149.961 15.9135 150.269 14.5631 150.885 13.4031C151.52 12.2249 152.399 11.3186 153.523 10.6842C154.665 10.0498 155.97 9.73264 157.438 9.73264C158.852 9.73264 160.111 10.0408 161.217 10.657C162.323 11.2733 163.184 12.1434 163.8 13.2671C164.416 14.3728 164.724 15.6507 164.724 17.1007ZM161.489 16.1219C161.471 14.98 161.063 14.0647 160.265 13.3759C159.468 12.6871 158.48 12.3427 157.302 12.3427C156.232 12.3427 155.317 12.6871 154.556 13.3759C153.795 14.0465 153.341 14.9619 153.196 16.1219H161.489Z" fill="white"/>
<path d="M140.877 9.73264C142.055 9.73264 143.106 9.97733 144.031 10.4667C144.973 10.9561 145.707 11.6811 146.233 12.6418C146.777 13.6025 147.049 14.7625 147.049 16.1219V24.9582H143.976V16.5841C143.976 15.2428 143.641 14.2187 142.97 13.5118C142.3 12.7868 141.384 12.4243 140.224 12.4243C139.064 12.4243 138.14 12.7868 137.451 13.5118C136.781 14.2187 136.445 15.2428 136.445 16.5841V24.9582H133.373V16.5841C133.373 15.2428 133.038 14.2187 132.367 13.5118C131.696 12.7868 130.781 12.4243 129.621 12.4243C128.461 12.4243 127.536 12.7868 126.848 13.5118C126.177 14.2187 125.842 15.2428 125.842 16.5841V24.9582H122.742V9.97733H125.842V11.6902C126.349 11.0739 126.993 10.5936 127.772 10.2492C128.551 9.90483 129.385 9.73264 130.273 9.73264C131.47 9.73264 132.539 9.98639 133.482 10.4939C134.424 11.0014 135.149 11.7355 135.657 12.6962C136.11 11.7899 136.817 11.0739 137.777 10.5483C138.738 10.0045 139.771 9.73264 140.877 9.73264Z" fill="white"/>
<path d="M118.652 9.97733V24.9582H115.553V23.1909C115.063 23.8072 114.42 24.2966 113.622 24.6591C112.843 25.0035 112.009 25.1757 111.121 25.1757C109.943 25.1757 108.882 24.931 107.94 24.4416C107.016 23.9522 106.281 23.2272 105.738 22.2665C105.212 21.3059 104.949 20.1458 104.949 18.7864V9.97733H108.022V18.3242C108.022 19.6655 108.357 20.6987 109.027 21.4237C109.698 22.1306 110.613 22.484 111.774 22.484C112.934 22.484 113.849 22.1306 114.52 21.4237C115.208 20.6987 115.553 19.6655 115.553 18.3242V9.97733H118.652Z" fill="white"/>
<path d="M102.745 9.97733L93.5552 32H90.347L93.3921 24.7135L87.4922 9.97733H90.9451L95.1594 21.3965L99.5367 9.97733H102.745Z" fill="white"/>
<path d="M79.21 22.4297H86.0071V24.9582H75.6211V22.4297L82.4454 12.5059H75.6211V9.97733H86.0071V12.5059L79.21 22.4297Z" fill="white"/>
<path d="M73.4118 17.1007C73.4118 17.6626 73.3755 18.1701 73.303 18.6233H61.8567C61.9473 19.8196 62.3914 20.7802 63.1889 21.5053C63.9865 22.2303 64.9652 22.5928 66.1253 22.5928C67.7928 22.5928 68.971 21.895 69.6598 20.4993H73.004C72.5508 21.8768 71.7261 23.0097 70.5298 23.8979C69.3516 24.7679 67.8835 25.2029 66.1253 25.2029C64.6934 25.2029 63.4064 24.8857 62.2645 24.2513C61.1407 23.5988 60.2526 22.6925 59.6 21.5325C58.9656 20.3543 58.6484 18.9949 58.6484 17.4542C58.6484 15.9135 58.9566 14.5631 59.5728 13.4031C60.2072 12.2249 61.0863 11.3186 62.2101 10.6842C63.3521 10.0498 64.6571 9.73264 66.1253 9.73264C67.5391 9.73264 68.7988 10.0408 69.9045 10.657C71.0101 11.2733 71.8711 12.1434 72.4874 13.2671C73.1037 14.3728 73.4118 15.6507 73.4118 17.1007ZM70.1764 16.1219C70.1582 14.98 69.7504 14.0647 68.9529 13.3759C68.1554 12.6871 67.1675 12.3427 65.9893 12.3427C64.9199 12.3427 64.0046 12.6871 63.2433 13.3759C62.482 14.0465 62.0289 14.9619 61.8839 16.1219H70.1764Z" fill="white"/>
<path d="M52.319 24.9582L47.9688 17.3998H45.6034V24.9582H42.5039V6.06219H49.0292C50.4792 6.06219 51.7027 6.31595 52.6996 6.82347C53.7146 7.33099 54.4669 8.01071 54.9562 8.86261C55.4638 9.71452 55.7175 10.6661 55.7175 11.7174C55.7175 12.95 55.355 14.0737 54.63 15.0888C53.9231 16.0857 52.8265 16.7654 51.3402 17.1279L56.0166 24.9582H52.319ZM45.6034 14.9257H49.0292C50.1892 14.9257 51.0592 14.6356 51.6392 14.0556C52.2374 13.4756 52.5365 12.6962 52.5365 11.7174C52.5365 10.7386 52.2465 9.97734 51.6664 9.43357C51.0864 8.87167 50.2073 8.59073 49.0292 8.59073H45.6034V14.9257Z" fill="white"/>
</svg>
