<svg width="40" height="32" viewBox="0 0 40 32" fill="none" xmlns="http://www.w3.org/2000/svg">
<path d="M28.9238 16.9268C28.9991 16.5864 29.0744 16.246 29.1511 15.9064C26.9338 15.4928 26.0334 13.5279 25.7871 12.029C24.9631 12.1185 24.2377 12.1464 23.601 12.1308C21.6909 12.0842 20.5795 11.6466 19.9994 11.3071C19.2255 11.7598 17.5094 12.3875 14.2116 12.029C13.9962 13.3406 13.2799 15.0088 11.6187 15.6825C11.3814 15.7787 11.1248 15.8547 10.8477 15.9064C10.9247 16.246 10.9997 16.5864 11.0747 16.9275C12.1143 21.646 13.0964 26.105 19.9994 27.3312C21.2937 27.1013 22.3799 26.7578 23.2973 26.3201C27.2727 24.4237 28.0794 20.7611 28.9238 16.9268ZM19.0487 23.1874C18.9134 23.3095 18.7425 23.3709 18.5709 23.3709C18.4206 23.3709 18.27 23.3235 18.1423 23.2279L15.2854 21.0852C14.9698 20.8488 14.906 20.401 15.1428 20.0857C15.3796 19.7698 15.8267 19.7063 16.1426 19.9427L18.5298 21.7332L25.2354 15.6978C25.5291 15.4342 25.9797 15.4572 26.244 15.7508C26.5077 16.0438 26.4839 16.4957 26.191 16.7594L19.0487 23.1874Z" fill="#D45B2D"/>
<path d="M25.3557 14.2859L14.2852 19.6426L17.8563 25.3564L27.4984 16.4286L25.3557 14.2859Z" fill="#D45B2D"/>
<path d="M16.0585 9.27711C15.3949 9.27711 14.6597 9.21992 13.874 9.10693C13.7774 9.09367 13.6742 9.086 13.5716 9.086C13.1772 9.086 12.8574 8.76655 12.8574 8.37177C12.8574 7.97699 13.1772 7.65755 13.5716 7.65755C13.7377 7.65755 13.9044 7.6694 14.0711 7.69172C14.7961 7.79635 15.4625 7.84866 16.0585 7.84866C17.0936 7.84866 17.6132 7.69172 17.7869 7.62546C18.2267 7.27811 18.7411 7.04097 19.2851 6.92937L19.2855 5.00012C19.2855 4.60534 19.6053 4.28589 19.9997 4.28589C20.3941 4.28589 20.7139 4.60534 20.7139 5.00012V7.57106C20.7139 7.96583 20.3941 8.28528 19.9997 8.28528C19.4961 8.28528 19.0065 8.46384 18.6211 8.78817C18.5754 8.82653 18.5252 8.85932 18.4715 8.88512C18.2274 9.003 17.5037 9.27711 16.0585 9.27711Z" fill="#EDEDED"/>
<path d="M8.6006 22.1423H4.99877C4.60434 22.1423 4.28454 21.8228 4.28454 21.428C4.28454 21.0333 4.60434 20.7138 4.99877 20.7138H7.62655C7.30466 19.616 7.06717 18.5377 6.85164 17.5612C6.7662 17.1727 6.6839 16.7974 6.5988 16.4285H4.28454C3.89011 16.4285 3.57031 16.109 3.57031 15.7142C3.57031 15.3194 3.89011 15 4.28454 15H7.16342C7.49264 15 7.7793 15.2253 7.85742 15.5447C7.99308 16.1006 8.11689 16.6628 8.24069 17.2257C8.5155 18.4735 8.8203 19.8559 9.27681 21.1979C9.35109 21.4162 9.31552 21.6568 9.18125 21.8438C9.04734 22.0314 8.83112 22.1423 8.6006 22.1423Z" fill="#EDEDED"/>
<path d="M13.6004 29.3809C13.4648 29.3809 13.3274 29.3425 13.2057 29.2616C11.7148 28.2698 10.5207 27.029 9.55606 25.4673C9.34855 25.1318 9.45248 24.6917 9.78832 24.4845C10.1238 24.2767 10.5643 24.3806 10.7711 24.7168C11.6255 26.0992 12.6805 27.197 13.9966 28.0717C14.3251 28.29 14.4144 28.7336 14.1957 29.0621C14.0583 29.2693 13.8317 29.3809 13.6004 29.3809Z" fill="#EDEDED"/>
<path d="M19.9982 31.6279C19.7914 31.6279 19.5881 31.6105 19.3946 31.577C18.2608 31.3838 17.1891 31.1076 16.213 30.7567C15.8416 30.6228 15.6491 30.2141 15.7826 29.8423C15.9162 29.472 16.3249 29.2795 16.6963 29.412C17.5937 29.7349 18.5834 29.9895 19.6376 30.1695C19.7597 30.1904 19.879 30.1994 19.9982 30.1994C20.3927 30.1994 20.7125 30.5189 20.7125 30.9137C20.7125 31.3085 20.3927 31.6279 19.9982 31.6279Z" fill="#EDEDED"/>
<path d="M20.0014 5.71382C21.5793 5.71382 22.8584 4.43474 22.8584 2.85691C22.8584 1.27908 21.5793 0 20.0014 0C18.4236 0 17.1445 1.27908 17.1445 2.85691C17.1445 4.43474 18.4236 5.71382 20.0014 5.71382Z" fill="#EDEDED"/>
<path d="M13.5707 3.57165H7.65817C7.41039 3.14684 6.95484 2.85742 6.42846 2.85742C5.64064 2.85742 5 3.49841 5 4.28588C5 5.07334 5.64064 5.71433 6.42846 5.71433C6.95484 5.71433 7.41039 5.42492 7.65817 5.0001H12.8565V8.57124C12.8565 8.96602 13.1763 9.28547 13.5707 9.28547C13.9652 9.28547 14.285 8.96602 14.285 8.57124V4.28588C14.285 3.8911 13.9652 3.57165 13.5707 3.57165Z" fill="#EDEDED"/>
<path d="M23.9405 9.277C22.4967 9.277 21.772 9.00288 21.5279 8.8857C21.4742 8.8599 21.424 8.82712 21.378 8.78875C20.9923 8.46442 20.5026 8.28587 19.999 8.28517C19.605 8.28447 19.2855 7.96502 19.2855 7.57094L19.2852 5H20.7136V6.92995C21.2573 7.04155 21.772 7.27869 22.2115 7.62534C22.3858 7.69161 22.9062 7.84854 23.9405 7.84854C24.5348 7.84854 25.2016 7.79623 25.9221 7.693C26.0916 7.66929 26.2604 7.65743 26.4271 7.65743C26.8219 7.65743 27.1413 7.97688 27.1413 8.37166C27.1413 8.76643 26.8219 9.08588 26.4271 9.08588C26.3259 9.08588 26.2241 9.09356 26.1223 9.10751C25.3369 9.2198 24.6018 9.277 23.9405 9.277Z" fill="#EDEDED"/>
<path d="M34.9997 22.1423H31.3978C31.1677 22.1423 30.9514 22.0314 30.8168 21.8438C30.6829 21.6568 30.6473 21.4162 30.722 21.1979C31.1809 19.8496 31.4843 18.4686 31.7522 17.2501C31.8882 16.6342 32.0088 16.0867 32.1407 15.5454C32.2188 15.2253 32.5054 15 32.8347 15H35.7139C36.1087 15 36.4281 15.3194 36.4281 15.7142C36.4281 16.109 36.1087 16.4285 35.7139 16.4285H33.3996C33.3187 16.7814 33.2399 17.1357 33.1618 17.4907C32.9358 18.5195 32.6959 19.6097 32.3722 20.7138H34.9997C35.3944 20.7138 35.7139 21.0333 35.7139 21.428C35.7139 21.8228 35.3944 22.1423 34.9997 22.1423Z" fill="#EDEDED"/>
<path d="M26.4007 29.3809C26.1698 29.3809 25.9424 29.2693 25.805 29.0622C25.5867 28.7337 25.676 28.2901 26.0045 28.0718C27.3207 27.1971 28.3759 26.0993 29.2297 24.7168C29.4361 24.3807 29.8762 24.276 30.2124 24.4846C30.5479 24.6917 30.6519 25.1319 30.4447 25.4673C29.4808 27.029 28.2867 28.2698 26.7954 29.2617C26.6741 29.3426 26.5367 29.3809 26.4007 29.3809Z" fill="#EDEDED"/>
<path d="M20.0112 31.6278H19.9963C19.6018 31.6264 19.2834 31.3049 19.2852 30.9108C19.2869 30.5174 19.6064 30.1994 19.9994 30.1994H20.0112C20.1277 30.1994 20.2439 30.1896 20.3593 30.1701C21.416 29.9894 22.4057 29.7348 23.3006 29.4126C23.6738 29.2759 24.0811 29.4712 24.2143 29.8422C24.3482 30.2133 24.1557 30.6227 23.7847 30.756C22.8103 31.1068 21.7389 31.3837 20.5999 31.5776C20.406 31.6111 20.2079 31.6278 20.0112 31.6278Z" fill="#EDEDED"/>
<path d="M33.5713 2.85742C33.0452 2.85742 32.5895 3.14684 32.3417 3.57165H26.4291C26.0343 3.57165 25.7148 3.8911 25.7148 4.28588V8.57124C25.7148 8.96602 26.0343 9.28547 26.4291 9.28547C26.8238 9.28547 27.1433 8.96602 27.1433 8.57124V5.0001H32.3417C32.5895 5.42492 33.0452 5.71433 33.5713 5.71433C34.3588 5.71433 34.9998 5.07334 34.9998 4.28588C34.9998 3.49841 34.3588 2.85742 33.5713 2.85742Z" fill="#EDEDED"/>
<path d="M3.57237 24.2854C4.75574 24.2854 5.71505 23.3261 5.71505 22.1427C5.71505 20.9593 4.75574 20 3.57237 20C2.389 20 1.42969 20.9593 1.42969 22.1427C1.42969 23.3261 2.389 24.2854 3.57237 24.2854Z" fill="#EDEDED"/>
<path d="M2.14268 17.8569C3.32605 17.8569 4.28537 16.8976 4.28537 15.7142C4.28537 14.5308 3.32605 13.5715 2.14268 13.5715C0.959312 13.5715 0 14.5308 0 15.7142C0 16.8976 0.959312 17.8569 2.14268 17.8569Z" fill="#EDEDED"/>
<path d="M36.4278 24.2854C37.6112 24.2854 38.5705 23.3261 38.5705 22.1427C38.5705 20.9593 37.6112 20 36.4278 20C35.2445 20 34.2852 20.9593 34.2852 22.1427C34.2852 23.3261 35.2445 24.2854 36.4278 24.2854Z" fill="#EDEDED"/>
<path d="M37.8556 17.8569C39.0389 17.8569 39.9983 16.8976 39.9983 15.7142C39.9983 14.5308 39.0389 13.5715 37.8556 13.5715C36.6722 13.5715 35.7129 14.5308 35.7129 15.7142C35.7129 16.8976 36.6722 17.8569 37.8556 17.8569Z" fill="#EDEDED"/>
</svg>
