<svg width="40" height="40" viewBox="0 0 40 40" fill="none" xmlns="http://www.w3.org/2000/svg">
<path fill-rule="evenodd" clip-rule="evenodd" d="M16.2326 29.9068C10.7715 29.9068 6.32678 25.4621 6.32678 19.9988C6.32678 14.5356 10.7714 10.0931 16.2326 10.0931C16.578 10.0931 16.8571 10.3721 16.8571 10.7176C16.8571 11.0631 16.578 11.3421 16.2326 11.3421C11.4601 11.3421 7.57584 15.2264 7.57584 19.9988C7.57584 24.7713 11.4601 28.6578 16.2326 28.6578C17.4262 28.6578 18.5844 28.4187 19.674 27.947C19.9907 27.8097 20.3583 27.9559 20.4956 28.2725C20.6329 28.5892 20.4868 28.9568 20.1701 29.0942C18.9233 29.6323 17.599 29.9068 16.2326 29.9068ZM16.2414 35.9991C15.6435 35.9991 15.0455 35.9659 14.4476 35.8994C13.8076 35.8307 13.3226 35.2904 13.3226 34.6415V33.3792C13.3226 33.3659 13.3204 33.3659 13.3115 33.3638C11.7171 33.0138 10.2156 32.3938 8.85139 31.5168C8.84029 31.5102 8.83811 31.5124 8.83146 31.5168L7.93459 32.4137C7.48287 32.8699 6.75646 32.9098 6.25154 32.5045C5.79756 32.1435 5.34803 31.7427 4.92061 31.3152C4.50428 30.9011 4.10342 30.4538 3.72693 29.982C3.32607 29.4771 3.36592 28.7552 3.81772 28.299L4.71459 27.4043C4.72342 27.3932 4.71904 27.3888 4.71678 27.3844C3.83756 26.0135 3.21748 24.5143 2.87201 22.9242C2.86975 22.9153 2.86756 22.9109 2.85428 22.9109H1.58975C0.943105 22.9109 0.402715 22.4259 0.334043 21.7815C0.201152 20.6012 0.201152 19.3986 0.334043 18.2138C0.402715 17.5738 0.943027 17.0888 1.58975 17.0888H2.85428C2.86537 17.0888 2.86756 17.0888 2.87201 17.0734C3.21748 15.4856 3.83756 13.9863 4.71678 12.6177C4.72123 12.6088 4.72342 12.6066 4.71232 12.5956L3.82209 11.7053C3.36584 11.2491 3.32381 10.5249 3.72467 10.02C4.10334 9.54829 4.5042 9.09876 4.92053 8.68462C5.3435 8.26165 5.79303 7.86079 6.25146 7.49321C6.76084 7.09017 7.48498 7.13228 7.93678 7.59063L8.82928 8.47868C8.83811 8.48759 8.84037 8.48978 8.85365 8.48087C10.2112 7.60837 11.7104 6.98603 13.3094 6.63837C13.3204 6.63618 13.3226 6.63392 13.3226 6.62064V5.3561C13.3226 4.70946 13.8076 4.16907 14.4499 4.1004C15.6325 3.96751 16.835 3.96751 18.0197 4.1004C18.6597 4.16907 19.1426 4.70938 19.1426 5.3561V6.62064C19.1426 6.63173 19.1447 6.6361 19.1558 6.63837C20.7481 6.98384 22.2496 7.60392 23.6159 8.48313C23.6248 8.48978 23.627 8.48978 23.6337 8.48313L24.5305 7.58845C24.9868 7.13001 25.7109 7.09017 26.2136 7.49321C26.6697 7.85642 27.1171 8.25728 27.5467 8.68462C27.7903 8.92821 27.7925 9.32462 27.5489 9.56821C27.3053 9.81181 26.9111 9.81399 26.6653 9.5704C26.2689 9.17399 25.8547 8.80415 25.434 8.46751C25.4273 8.46306 25.4207 8.46306 25.4119 8.47196L24.5172 9.36446C24.0964 9.78962 23.4453 9.86056 22.9382 9.53274C21.7002 8.73548 20.3361 8.17298 18.89 7.85853C18.3054 7.73009 17.8934 7.22298 17.8934 6.62056V5.35603C17.8934 5.34493 17.8868 5.34274 17.8823 5.34274C16.7861 5.21876 15.6788 5.21876 14.587 5.34056C14.5782 5.34274 14.5715 5.34501 14.5715 5.35603V6.62056C14.5715 7.2229 14.1619 7.73228 13.5728 7.85853C12.1244 8.17517 10.7603 8.73993 9.52678 9.53274C9.01521 9.85829 8.36631 9.78743 7.94553 9.3622L7.05311 8.47196C7.0442 8.46087 7.03318 8.46532 7.02873 8.4697C6.60795 8.80634 6.19381 9.17837 5.80404 9.57032C5.41873 9.95118 5.04889 10.3653 4.70123 10.7972C4.69678 10.8038 4.69678 10.8127 4.70568 10.8216L5.59818 11.7141C6.01897 12.1392 6.08982 12.7881 5.76873 13.2909C4.96928 14.5355 4.40459 15.8974 4.09232 17.3413C3.96162 17.9304 3.45232 18.3379 2.85436 18.3379H1.58982C1.57873 18.3379 1.57654 18.3445 1.57436 18.3512C1.45256 19.4452 1.45256 20.5525 1.57436 21.6465C1.57654 21.6576 1.581 21.662 1.58982 21.662H2.85436C3.4567 21.662 3.96607 22.0738 4.09232 22.6607C4.40459 24.1024 4.96928 25.4643 5.76654 26.7089C6.08982 27.2094 6.02123 27.8583 5.60045 28.2857L4.70131 29.1804C4.69686 29.1849 4.69686 29.1959 4.7035 29.2048C5.04896 29.6366 5.41881 30.0485 5.80193 30.4294C6.19834 30.8258 6.61021 31.1956 7.031 31.5278C7.04428 31.5389 7.04873 31.5345 7.05092 31.5323L7.94779 30.6354C8.36857 30.2102 9.01959 30.1393 9.52678 30.4671C10.7669 31.2622 12.1289 31.8269 13.5772 32.1435C14.1619 32.2675 14.5716 32.7769 14.5716 33.3792V34.6415C14.5716 34.6459 14.5738 34.657 14.5849 34.6592C15.6878 34.781 16.7972 34.781 17.8802 34.6592C17.8935 34.657 17.8935 34.6459 17.8935 34.6415V33.377C17.8935 32.7768 18.3054 32.2697 18.8901 32.1434C20.3362 31.8267 21.7004 31.262 22.9405 30.467C23.4454 30.1393 24.0965 30.2102 24.5217 30.6398L25.412 31.5278C25.4231 31.5389 25.4275 31.5345 25.4319 31.5323C25.8504 31.1979 26.2646 30.8281 26.6654 30.4294C27.0419 30.0551 27.4095 29.641 27.7639 29.2003C27.9809 28.9324 28.3729 28.8902 28.643 29.1051C28.911 29.3221 28.9553 29.7163 28.7383 29.9843C28.3551 30.4582 27.9565 30.9078 27.549 31.3152C27.1128 31.747 26.6654 32.1479 26.2136 32.5067C25.7132 32.9097 24.989 32.8699 24.5306 32.4136L23.6359 31.5212C23.6271 31.5123 23.6248 31.5101 23.616 31.5167C22.2496 32.3937 20.7504 33.0138 19.1559 33.3637C19.1426 33.3659 19.1426 33.3703 19.1426 33.377V34.6415C19.1426 35.2904 18.6599 35.8307 18.0176 35.8994C17.4308 35.9658 16.8372 35.9991 16.2415 35.9991H16.2414Z" fill="#EDEDED"/>
<path fill-rule="evenodd" clip-rule="evenodd" d="M19.812 19.9502C19.4666 19.9502 19.1875 19.6711 19.1875 19.3257V13.6741C19.1875 13.3286 19.4666 13.0496 19.812 13.0496C20.1575 13.0496 20.4366 13.3286 20.4366 13.6741V19.3257C20.4366 19.6711 20.1576 19.9502 19.812 19.9502ZM37.8851 25.6593C37.5396 25.6593 37.2605 25.3803 37.2605 25.0348V13.6741C37.2605 13.3286 37.5396 13.0496 37.8851 13.0496C38.2305 13.0496 38.5096 13.3286 38.5096 13.6741V25.0348C38.5096 25.3803 38.2306 25.6593 37.8851 25.6593Z" fill="#D45B2D"/>
<path fill-rule="evenodd" clip-rule="evenodd" d="M39.1399 27.5572H21.4566C21.1111 27.5572 20.832 27.2781 20.832 26.9327C20.832 26.5872 21.1111 26.3081 21.4566 26.3081H38.5154V25.6592H23.2924C22.947 25.6592 22.6679 25.3802 22.6679 25.0347C22.6679 24.6892 22.947 24.4102 23.2924 24.4102H39.1398C39.4853 24.4102 39.7644 24.6892 39.7644 25.0347V26.9326C39.7644 27.278 39.4853 27.5571 39.1398 27.5571L39.1399 27.5572Z" fill="#D45B2D"/>
<path fill-rule="evenodd" clip-rule="evenodd" d="M19.1827 13.0496H38.5159V12.4008H19.1827V13.0496ZM39.1403 14.2986H18.5581C18.2127 14.2986 17.9336 14.0195 17.9336 13.674V11.7761C17.9336 11.4307 18.2127 11.1516 18.5581 11.1516H39.1403C39.4858 11.1516 39.7648 11.4307 39.7648 11.7761V13.674C39.7648 14.0195 39.4858 14.2986 39.1403 14.2986Z" fill="#D45B2D"/>
<path fill-rule="evenodd" clip-rule="evenodd" d="M15.168 14.2986C13.8769 14.2986 12.8272 15.3483 12.8272 16.6394C12.8272 17.9305 13.877 18.9802 15.168 18.9802C16.459 18.9802 17.5087 17.9305 17.5087 16.6394C17.5087 15.3483 16.459 14.2986 15.168 14.2986ZM15.168 20.2292C13.1881 20.2292 11.5781 18.6192 11.5781 16.6394C11.5781 14.6596 13.1881 13.0496 15.168 13.0496C17.1478 13.0496 18.7578 14.6596 18.7578 16.6394C18.7578 18.6192 17.1478 20.2292 15.168 20.2292Z" fill="#EDEDED"/>
<path fill-rule="evenodd" clip-rule="evenodd" d="M25.4702 16.6304H23.9155C23.5701 16.6304 23.291 16.3513 23.291 16.0059C23.291 15.6604 23.5701 15.3813 23.9155 15.3813H25.4702C25.8156 15.3813 26.0947 15.6604 26.0947 16.0059C26.0947 16.3513 25.8157 16.6304 25.4702 16.6304Z" fill="#D45B2D"/>
<path fill-rule="evenodd" clip-rule="evenodd" d="M29.6242 16.6304H28.0718C27.7263 16.6304 27.4473 16.3513 27.4473 16.0059C27.4473 15.6604 27.7263 15.3813 28.0718 15.3813H29.6242C29.9697 15.3813 30.2487 15.6604 30.2487 16.0059C30.2487 16.3513 29.9697 16.6304 29.6242 16.6304Z" fill="#D45B2D"/>
<path fill-rule="evenodd" clip-rule="evenodd" d="M33.7807 16.6304H32.2261C31.8806 16.6304 31.6016 16.3513 31.6016 16.0059C31.6016 15.6604 31.8806 15.3813 32.2261 15.3813H33.7807C34.1262 15.3813 34.4052 15.6604 34.4052 16.0059C34.4052 16.3513 34.1263 16.6304 33.7807 16.6304Z" fill="#D45B2D"/>
<path fill-rule="evenodd" clip-rule="evenodd" d="M25.4702 18.865H23.9155C23.5701 18.865 23.291 18.586 23.291 18.2405C23.291 17.895 23.5701 17.616 23.9155 17.616H25.4702C25.8156 17.616 26.0947 17.895 26.0947 18.2405C26.0947 18.586 25.8157 18.865 25.4702 18.865Z" fill="#D45B2D"/>
<path fill-rule="evenodd" clip-rule="evenodd" d="M29.6242 18.865H28.0718C27.7263 18.865 27.4473 18.586 27.4473 18.2405C27.4473 17.895 27.7263 17.616 28.0718 17.616H29.6242C29.9697 17.616 30.2487 17.895 30.2487 18.2405C30.2487 18.586 29.9697 18.865 29.6242 18.865Z" fill="#D45B2D"/>
<path fill-rule="evenodd" clip-rule="evenodd" d="M33.7807 18.865H32.2261C31.8806 18.865 31.6016 18.586 31.6016 18.2405C31.6016 17.895 31.8806 17.616 32.2261 17.616H33.7807C34.1262 17.616 34.4052 17.895 34.4052 18.2405C34.4052 18.586 34.1263 18.865 33.7807 18.865Z" fill="#D45B2D"/>
<path fill-rule="evenodd" clip-rule="evenodd" d="M25.4702 21.0994H23.9155C23.5701 21.0994 23.291 20.8203 23.291 20.4749C23.291 20.1294 23.5701 19.8503 23.9155 19.8503H25.4702C25.8156 19.8503 26.0947 20.1294 26.0947 20.4749C26.0947 20.8203 25.8157 21.0994 25.4702 21.0994Z" fill="#D45B2D"/>
<path fill-rule="evenodd" clip-rule="evenodd" d="M29.6242 21.0994H28.0718C27.7263 21.0994 27.4473 20.8203 27.4473 20.4749C27.4473 20.1294 27.7263 19.8503 28.0718 19.8503H29.6242C29.9697 19.8503 30.2487 20.1294 30.2487 20.4749C30.2487 20.8203 29.9697 21.0994 29.6242 21.0994Z" fill="#D45B2D"/>
<path fill-rule="evenodd" clip-rule="evenodd" d="M33.7807 21.0994H32.2261C31.8806 21.0994 31.6016 20.8203 31.6016 20.4749C31.6016 20.1294 31.8806 19.8503 32.2261 19.8503H33.7807C34.1262 19.8503 34.4052 20.1294 34.4052 20.4749C34.4052 20.8203 34.1263 21.0994 33.7807 21.0994Z" fill="#D45B2D"/>
<path fill-rule="evenodd" clip-rule="evenodd" d="M18.8972 29.5192C18.5517 29.5192 18.2727 29.2401 18.2727 28.8947V25.7677C18.2727 25.5086 18.4321 25.2783 18.6735 25.1853C18.9946 25.0613 19.2914 24.8819 19.5549 24.6494L21.9533 22.5411C22.1172 22.3506 22.1681 22.1601 22.1039 21.9565C22.0241 21.7018 21.7717 21.4737 21.5016 21.4139C21.2802 21.3629 21.0808 21.4316 20.908 21.6198C20.8837 21.6442 20.8593 21.6686 20.8305 21.6907L19.2715 22.9043C19.0899 23.046 18.8463 23.0748 18.6359 22.9818C18.4277 22.8888 18.2838 22.6894 18.2661 22.4591C18.1665 21.2079 17.1056 20.229 15.8523 20.229H14.0385C12.7054 20.229 11.6202 21.3142 11.6202 22.6495V27.6633C11.6202 28.0088 11.3412 28.2879 10.9956 28.2879C10.6501 28.2879 10.3711 28.0088 10.3711 27.6633V22.6495C10.3711 20.6254 12.0166 18.98 14.0384 18.98H15.8522C17.3891 18.98 18.7311 19.95 19.2715 21.3208L20.0267 20.7339C20.4984 20.2467 21.1318 20.0496 21.7762 20.1935C22.4849 20.3529 23.0828 20.8977 23.2955 21.582C23.4948 22.2198 23.3331 22.8864 22.8526 23.409C22.8371 23.4245 22.8216 23.4401 22.8061 23.4555L20.3811 25.5881C20.1154 25.8207 19.8275 26.0155 19.5218 26.1727V28.8944C19.5218 29.2399 19.2428 29.519 18.8973 29.519L18.8972 29.5192Z" fill="#EDEDED"/>
<path fill-rule="evenodd" clip-rule="evenodd" d="M17.7113 26.6116C17.0691 26.6116 16.4247 26.4522 15.8201 26.1355L13.5944 24.9707C13.2888 24.8112 13.1715 24.4325 13.3309 24.1269C13.4904 23.8213 13.8691 23.704 14.1747 23.8634L16.4003 25.0282C17.1289 25.4114 17.9394 25.4645 18.6813 25.1811C19.0047 25.0571 19.3656 25.2187 19.4874 25.5398C19.6114 25.8632 19.4498 26.2241 19.1287 26.3459C18.668 26.5231 18.1897 26.6117 17.7113 26.6117V26.6116Z" fill="#EDEDED"/>
</svg>
