<svg width="40" height="40" viewBox="0 0 40 40" fill="none" xmlns="http://www.w3.org/2000/svg">
<path d="M40.0084 11.6039V14.9969C40.0084 15.3009 39.7985 15.5562 39.5003 15.6151L37.6693 15.9761L36.3507 19.1588L37.3903 20.709C37.5596 20.9615 37.5275 21.2905 37.3126 21.5054L34.9134 23.9046C34.6984 24.1196 34.3695 24.1516 34.117 23.9823L32.5668 22.9427L29.384 24.2613L29.023 26.0923C28.9642 26.3906 28.7088 26.6005 28.4049 26.6005H25.0119C24.7079 26.6005 24.4526 26.3906 24.3937 26.0923L24.0327 24.2612L21.4319 23.1837C21.7656 22.3108 21.949 21.3636 21.949 20.3734C21.949 20.0927 21.9343 19.8155 21.9056 19.5424H22.3048C23.5494 20.422 25.0684 20.939 26.7084 20.939C30.9271 20.939 34.347 17.519 34.347 13.3003C34.347 9.08154 30.9271 5.66161 26.7084 5.66161C23.3824 5.66161 20.5534 7.78759 19.5048 10.7545C18.6003 10.0011 17.5394 9.42979 16.3785 9.10137L17.066 7.44187L16.0264 5.89163C15.857 5.63917 15.8892 5.31018 16.1042 5.09517L18.5034 2.69593C18.7183 2.481 19.0472 2.44894 19.2997 2.61817L20.8499 3.65778L24.0327 2.33919L24.3937 0.508179C24.4526 0.209865 24.7078 0 25.0119 0H28.4049C28.7088 0 28.9642 0.209865 29.023 0.508179L29.384 2.33919L32.5668 3.65778L34.1169 2.61817C34.3695 2.44885 34.6983 2.48092 34.9133 2.69593L37.3126 5.09517C37.5276 5.31018 37.5596 5.63909 37.3903 5.89163L36.3507 7.44187L37.6693 10.6246L39.5002 10.9857C39.7985 11.0445 40.0084 11.2997 40.0084 11.6037V11.6039ZM25.9835 8.0859L22.774 13.625H25.8038L24.0664 18.515L30.6425 11.2552H27.2079L29.0377 8.0859H25.9835ZM20.8065 20.3736C20.8065 20.15 20.7954 19.9291 20.7741 19.7112L20.7715 19.712C20.6066 19.768 20.4414 19.823 20.2758 19.8768L20.2579 19.8826C20.193 19.9037 20.1281 19.9246 20.063 19.9453L20.045 19.951C19.9876 19.9693 19.93 19.9874 19.8724 20.0053L19.8544 20.011L19.7708 20.0368L19.747 20.0442L19.662 20.0702L19.6391 20.0771L19.5562 20.1022L19.5206 20.1129C19.4374 20.1378 19.3542 20.1623 19.2709 20.1864L19.23 20.1982L19.1661 20.2165L19.1213 20.2293L19.0474 20.2502L19.0124 20.26L18.9337 20.2819L18.914 20.2873L18.8278 20.3108C18.7934 20.3202 18.7589 20.3295 18.7245 20.3387L18.6526 20.3578L18.6072 20.3698L18.5445 20.3861L18.4912 20.3999L18.427 20.4163L18.3813 20.4279L18.3126 20.4452L18.2757 20.4544C18.2331 20.4649 18.1905 20.4753 18.1478 20.4856L18.0923 20.499L18.0395 20.5116L17.973 20.5272L17.9189 20.5398L17.8638 20.5524L17.8001 20.5669L17.7438 20.5795L17.6854 20.5924C17.6506 20.6001 17.6158 20.6076 17.581 20.6151L17.5775 20.6158L17.5296 20.626C17.5065 20.6309 17.4835 20.6358 17.4604 20.6406L17.4033 20.6523L17.3455 20.6641L17.2867 20.6758L17.2266 20.6876L17.1698 20.6987L17.0904 20.7138L17.0573 20.7201H17.0572L17.0326 20.7246C17.0022 20.7302 16.9718 20.7359 16.9414 20.7413L16.893 20.75L16.8269 20.7617L16.77 20.7714L16.7061 20.7822L16.6544 20.7909C16.6286 20.7951 16.6027 20.7993 16.5769 20.8034L16.5366 20.8099C16.4984 20.8159 16.46 20.8219 16.4217 20.8277L16.3853 20.8331L16.3037 20.845L16.2575 20.8517L16.1808 20.8623L16.1384 20.8681C16.1122 20.8716 16.0859 20.8752 16.0595 20.8786L16.0153 20.8843C15.9847 20.8882 15.9541 20.892 15.9235 20.8957L15.9003 20.8986L15.8957 20.8991C15.8568 20.9038 15.8178 20.9084 15.7789 20.9127L15.7449 20.9164C15.7163 20.9196 15.6876 20.9227 15.6591 20.9257L15.6157 20.9302C15.5905 20.9328 15.5653 20.9353 15.5402 20.9378L15.4924 20.9425C15.4659 20.945 15.4394 20.9474 15.4129 20.9497L15.3727 20.9534C15.3341 20.9568 15.2954 20.9601 15.2568 20.9632L15.2522 20.9635L15.2344 20.9648C15.2012 20.9674 15.168 20.97 15.1349 20.9723L15.0932 20.9752C15.0671 20.977 15.041 20.9788 15.0148 20.9805L14.9682 20.9834C14.9413 20.9851 14.9145 20.9866 14.8877 20.9882L14.8482 20.9904C14.817 20.992 14.7857 20.9936 14.7544 20.995L14.7263 20.9964C14.687 20.9982 14.6478 20.9998 14.6084 21.0012L14.5676 21.0026C14.5407 21.0035 14.5139 21.0044 14.4869 21.0052L14.4413 21.0064C14.4151 21.0071 14.3889 21.0078 14.3627 21.0082L14.3184 21.0091C14.2919 21.0095 14.2654 21.0099 14.239 21.0102L14.195 21.0107C14.1552 21.0111 14.1154 21.0113 14.0756 21.0113C14.0358 21.0113 13.996 21.011 13.9562 21.0107L13.9123 21.0102C13.8857 21.0099 13.8593 21.0095 13.8329 21.0091L13.7886 21.0082C13.7623 21.0078 13.7361 21.0071 13.7099 21.0064L13.6643 21.0052C13.6374 21.0044 13.6104 21.0036 13.5836 21.0026L13.5428 21.0012C13.5035 20.9998 13.4642 20.9982 13.425 20.9964L13.3966 20.995C13.3654 20.9936 13.3343 20.992 13.3031 20.9904L13.2632 20.9882C13.2365 20.9867 13.2097 20.9851 13.183 20.9835L13.1364 20.9806C13.1102 20.9789 13.0839 20.9771 13.0577 20.9753L13.0165 20.9724C12.9831 20.9701 12.9498 20.9675 12.9165 20.9649L12.8989 20.9636L12.8943 20.9633C12.8557 20.9602 12.8171 20.9569 12.7785 20.9535L12.7379 20.9498C12.7116 20.9475 12.6852 20.945 12.6589 20.9426L12.6108 20.9379L12.5358 20.9304L12.492 20.9258C12.4637 20.9228 12.4354 20.9198 12.4071 20.9166L12.3719 20.9127C12.333 20.9083 12.2943 20.9038 12.2555 20.8991L12.2509 20.8986L12.2269 20.8956C12.1968 20.8919 12.1667 20.8881 12.1366 20.8843L12.0908 20.8783L12.0127 20.868L11.9711 20.8623C11.9449 20.8588 11.9187 20.8551 11.8925 20.8514L11.8482 20.8451L11.7649 20.8329L11.7296 20.8277C11.6915 20.8219 11.6534 20.816 11.6152 20.81L11.5736 20.8033C11.5477 20.7991 11.5219 20.7949 11.4961 20.7907L11.4463 20.7824L11.3814 20.7714L11.3238 20.7614L11.2592 20.75L11.21 20.7413C11.1796 20.7358 11.1492 20.7302 11.1188 20.7245L11.0942 20.72L11.0614 20.7138C11.0347 20.7088 11.008 20.7038 10.9814 20.6987L10.923 20.6872L10.8657 20.676L10.8046 20.6637L10.7485 20.6523L10.6909 20.6405L10.6217 20.6259L10.5736 20.6157L10.5703 20.6149C10.5355 20.6075 10.5007 20.5999 10.4659 20.5923L10.4072 20.5793L10.3502 20.5666L10.2873 20.5523L10.2338 20.54L10.1769 20.5267L10.1124 20.5116L10.0588 20.4988L10.0033 20.4855C9.96383 20.4759 9.92442 20.4662 9.88493 20.4565L9.8372 20.4447L9.76923 20.4276L9.72541 20.4165L9.65736 20.399L9.60905 20.3866L9.5419 20.369L9.50298 20.3587C9.4129 20.3349 9.32298 20.3107 9.23314 20.286L9.21772 20.2817L9.14004 20.2601L9.10283 20.2497L9.02972 20.2291L8.98485 20.2163L8.92128 20.1981L8.87665 20.1852L8.80762 20.1651L8.70481 20.1348L8.63039 20.1126L8.59465 20.102L8.51551 20.078L8.48589 20.0691L8.40421 20.0441L8.37908 20.0364L8.29838 20.0114L8.26762 20.0018C8.21368 19.9849 8.15983 19.968 8.10598 19.9508L8.08794 19.9451C8.02299 19.9245 7.95812 19.9036 7.89342 19.8826L7.87473 19.8765L7.78433 19.847L7.7831 19.8466C7.65051 19.8031 7.51808 19.7588 7.38589 19.714L7.377 19.7109C7.3557 19.9289 7.34452 20.1499 7.34452 20.3733C7.34452 24.0909 10.3582 27.1045 14.0759 27.1045C17.7935 27.1045 20.8071 24.0909 20.8071 20.3733L20.8065 20.3736ZM21.3887 16.4348C21.0477 13.5169 18.9834 11.106 16.2485 10.2549L16.3942 14.1801C16.4053 14.4943 16.1595 14.758 15.8453 14.7691C15.531 14.7802 15.2673 14.5344 15.2562 14.2202L15.2385 13.7425L15.0898 9.7339C14.7537 9.68037 14.4157 9.65475 14.0753 9.65475C13.7349 9.65475 13.397 9.68037 13.0607 9.7339L12.912 13.7425L12.8943 14.2201C12.8832 14.5343 12.6195 14.78 12.3052 14.769C11.991 14.7579 11.7453 14.4942 11.7563 14.18L11.9021 10.2545C9.16713 11.1055 7.10276 13.5168 6.76177 16.4346H21.3887V16.4348ZM21.7822 18.1396V17.5771H6.36839V18.1396C9.36884 19.2499 11.7115 19.8517 14.0753 19.8689C16.439 19.8517 18.7818 19.2499 21.7822 18.1396ZM0 40H4.49593L4.344 31.0354C1.92395 33.3342 0.317 36.481 0 40ZM10.7964 27.5333C10.5178 27.5996 10.2424 27.6741 9.97052 27.7565L12.8664 30.653C13.533 31.3197 14.6185 31.3197 15.2851 30.653L18.1811 27.7568C17.9088 27.6742 17.6331 27.5996 17.3541 27.5333C16.3558 27.9913 15.2455 28.2469 14.0754 28.2469C12.9052 28.2469 11.7947 27.9912 10.7964 27.5332V27.5333ZM22.7246 30.1063L22.8993 40H5.63811L5.46986 30.072C6.4739 29.3002 7.58474 28.6604 8.7762 28.1782L12.0586 31.461C12.615 32.0167 13.3454 32.2948 14.0758 32.2948C14.8061 32.2948 15.5365 32.0167 16.0922 31.461L19.3751 28.1785C20.5838 28.6678 21.7091 29.3194 22.7246 30.1063V30.1063ZM19.0415 34.5507H9.1092V38.5896H19.0414V34.5507H19.0415ZM23.8844 31.1093L24.0414 40H28.1506C27.8369 36.5188 26.2613 33.4013 23.8844 31.1093Z" fill="white"/>
</svg>
