<svg width="25" height="40" viewBox="0 0 25 40" fill="none" xmlns="http://www.w3.org/2000/svg">
<path d="M24.19 25.9414L22.7977 25.2453C22.5277 24.0822 22.0685 22.9914 21.4554 22.0068L21.9485 20.5284C22.0408 20.2522 21.9685 19.9476 21.7623 19.7414L20.2592 18.2384C20.0531 18.0322 19.7485 17.9607 19.4723 18.0522L17.9938 18.5453C17.0092 17.9322 15.9185 17.4738 14.7554 17.203L14.0592 15.8107C13.9285 15.5491 13.6623 15.3845 13.3708 15.3845H11.2446C10.9531 15.3845 10.6869 15.5491 10.5569 15.8099L9.86077 17.2022C8.69769 17.4722 7.60692 17.9314 6.62231 18.5445L5.14385 18.0514C4.86769 17.9591 4.56308 18.0314 4.35692 18.2376L2.85385 19.7407C2.64769 19.9468 2.57615 20.2514 2.66769 20.5276L3.16077 22.0061C2.54769 22.9907 2.08923 24.0814 1.81846 25.2445L0.426155 25.9407C0.164616 26.0714 0 26.3376 0 26.6291V28.7553C0 29.0468 0.164615 29.313 0.425384 29.443L1.81769 30.1391C2.08769 31.3022 2.54692 32.393 3.16 33.3776L2.66692 34.8561C2.57461 35.1322 2.64692 35.4368 2.85308 35.643L4.35615 37.1461C4.56231 37.3522 4.86692 37.4238 5.14308 37.3322L6.62154 36.8391C7.60615 37.4522 8.69692 37.9107 9.86 38.1814L10.5562 39.5738C10.6869 39.8353 10.9531 39.9999 11.2446 39.9999H13.3708C13.6623 39.9999 13.9285 39.8353 14.0585 39.5745L14.7546 38.1822C15.9177 37.9122 17.0085 37.453 17.9931 36.8399L19.4715 37.333C19.7477 37.4253 20.0523 37.353 20.2585 37.1468L21.7615 35.6438C21.9677 35.4376 22.0392 35.133 21.9477 34.8568L21.4546 33.3784C22.0677 32.3938 22.5262 31.303 22.7969 30.1399L24.1892 29.4438C24.4508 29.313 24.6154 29.0468 24.6154 28.7553V26.6291C24.6154 26.3376 24.4508 26.0714 24.19 25.9414Z" fill="#D45B2D"/>
<path d="M12.3075 35.3846C16.5559 35.3846 19.9999 31.9407 19.9999 27.6923C19.9999 23.444 16.5559 20 12.3075 20C8.0592 20 4.61523 23.444 4.61523 27.6923C4.61523 31.9407 8.0592 35.3846 12.3075 35.3846Z" fill="#F0F0F0"/>
<path d="M16.6677 23.6223V4.61538C16.6677 2.06615 14.6015 0 12.0523 0C9.50305 0 7.4369 2.06615 7.4369 4.61538V23.6223C6.47921 24.7069 5.89844 26.1315 5.89844 27.6923C5.89844 31.0908 8.65382 33.8462 12.0523 33.8462C15.4507 33.8462 18.2061 31.0908 18.2061 27.6923C18.2061 26.1315 17.6254 24.7069 16.6677 23.6223Z" fill="#D45B2D"/>
<path d="M8.97596 18.4617V24.204L8.59135 24.6402C7.84673 25.4832 7.4375 26.5678 7.4375 27.6925C7.4375 30.2378 9.5075 32.3078 12.0529 32.3078V15.3848C10.356 15.3848 8.97596 16.7648 8.97596 18.4617Z" fill="#EDEDED"/>
<path d="M15.5143 24.6399L15.1297 24.2037V7.69216C15.1297 5.99523 13.7497 4.61523 12.0527 4.61523V32.3075C14.5981 32.3075 16.6681 30.2375 16.6681 27.6922C16.6681 26.5675 16.2589 25.4829 15.5143 24.6399Z" fill="#EDEDED"/>
</svg>
