<svg width="42" height="39" viewBox="0 0 42 39" fill="none" xmlns="http://www.w3.org/2000/svg">
<path d="M38.1156 18.8854V16.8718C38.1156 16.6023 37.9568 16.2332 37.7609 16.0482L33.7207 12.2322H5.88367L1.37191 16.0675C1.16636 16.2421 1 16.6023 1 16.8718V25.4182C1 25.9579 1.43722 26.3951 1.97687 26.3951H19.2347" stroke="white" stroke-width="2" stroke-miterlimit="10" stroke-linecap="round" stroke-linejoin="round"/>
<path d="M5.63867 12.2323L8.58647 1.92256C8.76384 1.41316 9.34473 1 9.88438 1H28.7412C29.2809 1 29.8776 1.40697 30.0742 1.9095L33.4757 12.2323" stroke="white" stroke-width="2" stroke-miterlimit="10" stroke-linecap="round" stroke-linejoin="round"/>
<path d="M2.95312 26.3953V30.7908C2.95312 31.5965 3.61239 32.2558 4.41809 32.2558H8.81366C9.61936 32.2558 10.2786 31.5965 10.2786 30.7908V26.3953" stroke="white" stroke-width="2" stroke-miterlimit="10" stroke-linecap="round" stroke-linejoin="round"/>
<path d="M6.22227 8.32544H3.93031C2.85582 8.32544 1.97656 9.20469 1.97656 10.2792C1.97656 11.3537 2.85582 12.2329 3.93031 12.2329H7.34901" stroke="white" stroke-width="2" stroke-miterlimit="10" stroke-linecap="round" stroke-linejoin="round"/>
<path d="M32.2014 8.32544H35.1863C36.2608 8.32544 37.14 9.20469 37.14 10.2792C37.14 11.3537 36.2608 12.2329 35.1863 12.2329H31.7676" stroke="white" stroke-width="2" stroke-miterlimit="10" stroke-linecap="round" stroke-linejoin="round"/>
<path d="M7.34808 22.4887C8.69667 22.4887 9.78992 21.3954 9.78992 20.0468C9.78992 18.6982 8.69667 17.605 7.34808 17.605C5.9995 17.605 4.90625 18.6982 4.90625 20.0468C4.90625 21.3954 5.9995 22.4887 7.34808 22.4887Z" stroke="#D45B2D" stroke-width="2" stroke-miterlimit="10" stroke-linecap="round" stroke-linejoin="round"/>
<path d="M14.6738 18.0928H23.179" stroke="#D45B2D" stroke-width="2" stroke-miterlimit="10" stroke-linecap="round" stroke-linejoin="round"/>
<path d="M14.6738 21.5117H20.5591" stroke="#D45B2D" stroke-width="2" stroke-miterlimit="10" stroke-linecap="round" stroke-linejoin="round"/>
<path d="M17.6445 4.0564H21.4716" stroke="#D45B2D" stroke-width="2" stroke-miterlimit="10" stroke-linecap="round" stroke-linejoin="round"/>
<path d="M30.1125 37.683C36.1257 37.683 41.0004 32.8083 41.0004 26.7951C41.0004 20.7819 36.1257 15.9072 30.1125 15.9072C24.0993 15.9072 19.2246 20.7819 19.2246 26.7951C19.2246 32.8083 24.0993 37.683 30.1125 37.683Z" stroke="#D45B2D" stroke-width="2" stroke-miterlimit="10" stroke-linecap="round" stroke-linejoin="round"/>
<path d="M30.1333 35.2743C34.8162 35.2743 38.6124 31.4781 38.6124 26.7952C38.6124 22.1124 34.8162 18.3162 30.1333 18.3162C25.4505 18.3162 21.6543 22.1124 21.6543 26.7952C21.6543 31.4781 25.4505 35.2743 30.1333 35.2743Z" stroke="#D45B2D" stroke-width="2" stroke-miterlimit="10" stroke-linecap="round" stroke-linejoin="round"/>
<path d="M35.9881 26.6582C35.9881 24.2714 34.4736 22.2386 32.3535 21.4673" stroke="#D45B2D" stroke-width="2" stroke-miterlimit="10" stroke-linecap="round" stroke-linejoin="round"/>
<path d="M30.1123 27.9225C30.7125 27.9225 31.1991 27.4359 31.1991 26.8356C31.1991 26.2354 30.7125 25.7488 30.1123 25.7488C29.512 25.7488 29.0254 26.2354 29.0254 26.8356C29.0254 27.4359 29.512 27.9225 30.1123 27.9225Z" stroke="white" stroke-width="2" stroke-miterlimit="10" stroke-linecap="round" stroke-linejoin="round"/>
<path d="M30.1113 31.9814V32.4035" stroke="#D45B2D" stroke-width="2" stroke-miterlimit="10" stroke-linecap="round" stroke-linejoin="round"/>
<path d="M27.8879 31.5398L27.7188 31.9268" stroke="#D45B2D" stroke-width="2" stroke-miterlimit="10" stroke-linecap="round" stroke-linejoin="round"/>
<path d="M26.2029 30.3745L25.9004 30.6687" stroke="#D45B2D" stroke-width="2" stroke-miterlimit="10" stroke-linecap="round" stroke-linejoin="round"/>
<path d="M25.0813 28.6587L24.6895 28.8168" stroke="#D45B2D" stroke-width="2" stroke-miterlimit="10" stroke-linecap="round" stroke-linejoin="round"/>
<path d="M24.6994 26.569L24.2773 26.5601" stroke="#D45B2D" stroke-width="2" stroke-miterlimit="10" stroke-linecap="round" stroke-linejoin="round"/>
<path d="M25.1784 24.5431L24.7969 24.3623" stroke="#D45B2D" stroke-width="2" stroke-miterlimit="10" stroke-linecap="round" stroke-linejoin="round"/>
<path d="M26.4006 22.8863L26.1133 22.5769" stroke="#D45B2D" stroke-width="2" stroke-miterlimit="10" stroke-linecap="round" stroke-linejoin="round"/>
<path d="M28.1562 21.7691L27.998 21.3779" stroke="#D45B2D" stroke-width="2" stroke-miterlimit="10" stroke-linecap="round" stroke-linejoin="round"/>
<path d="M30.1113 25.7546V21.1892" stroke="white" stroke-width="2" stroke-miterlimit="10" stroke-linecap="round" stroke-linejoin="round"/>
<path d="M30.1113 27.9219V28.9943" stroke="white" stroke-width="2" stroke-miterlimit="10" stroke-linecap="round" stroke-linejoin="round"/>
</svg>
