<svg width="40" height="25" viewBox="0 0 40 25" fill="none" xmlns="http://www.w3.org/2000/svg">
<path fill-rule="evenodd" clip-rule="evenodd" d="M8.53043 16.4655C10.2763 16.4655 11.7828 17.503 12.4693 18.9939H26.7776C27.4641 17.5039 28.9706 16.4655 30.7165 16.4655C32.4614 16.4655 33.9689 17.503 34.6553 18.9939H38.5846V16.5118L36.8964 16.0594C36.3365 15.91 35.8885 15.565 35.5985 15.0637L34.9444 13.931C34.7523 13.5982 34.7523 13.2017 34.9444 12.869C35.1365 12.5362 35.4798 12.338 35.8641 12.338H38.5846V11.5764C38.5846 11.1624 38.3575 10.8157 37.9785 10.6506C36.444 9.97989 33.8448 9.57902 31.9505 9.48033C30.5968 9.40958 29.4745 8.72662 28.7898 7.55806L26.216 3.16679C25.9252 2.67072 25.4475 2.39648 24.8719 2.39648H3.34877C3.23698 2.39648 3.14702 2.40871 3.0396 2.43928C2.06842 2.71264 1.41602 3.57727 1.41602 4.59212V13.3956H3.10335C3.39243 13.3956 3.62737 13.6305 3.62737 13.9196V16.4672C3.62737 16.7563 3.39243 16.9912 3.10335 16.9912H1.41689V18.9947H4.59243C5.27802 17.503 6.78457 16.4655 8.53043 16.4655ZM20.3182 11.9476C20.3182 12.2375 20.0841 12.4716 19.7942 12.4716H17.6597C17.3706 12.4716 17.1357 12.2367 17.1357 11.9476C17.1357 11.6585 17.3706 11.4236 17.6597 11.4236H19.7942C20.0833 11.4236 20.3182 11.6585 20.3182 11.9476ZM13.2588 9.84015H6.18545C5.32781 9.84015 4.62999 9.14234 4.62999 8.28469V5.53098C4.62999 4.67334 5.32781 3.97552 6.18545 3.97552H13.2588C14.1165 3.97552 14.8143 4.67334 14.8143 5.53098V8.28469C14.8143 9.14234 14.1165 9.84015 13.2588 9.84015ZM24.9951 9.84015H18.6064C17.7689 9.84015 17.0885 9.15893 17.0885 8.32225V5.49255C17.0885 4.65587 17.7689 3.97465 18.6064 3.97465H23.6169C24.2344 3.97465 24.7776 4.29954 25.0693 4.84365L26.4466 7.4157C26.7261 7.93884 26.7121 8.53011 26.4073 9.03928C26.1025 9.54845 25.5881 9.84015 24.9951 9.84015Z" fill="#D45B2D"/>
<path fill-rule="evenodd" clip-rule="evenodd" d="M1.41602 14.4429H2.57933V15.9424H1.41602V14.4429Z" fill="#EDEDED"/>
<path fill-rule="evenodd" clip-rule="evenodd" d="M4.26376 20.041H0.758952C0.340611 20.041 0 20.3816 0 20.8C0 21.2183 0.340611 21.558 0.758952 21.558H4.26288C4.21921 21.3118 4.19476 21.0585 4.19476 20.8C4.19563 20.5415 4.21921 20.2882 4.26376 20.041Z" fill="#EDEDED"/>
<path fill-rule="evenodd" clip-rule="evenodd" d="M8.5302 19.759C7.95553 19.759 7.48828 20.2263 7.48828 20.801C7.48828 21.3748 7.95553 21.842 8.5302 21.842C9.104 21.842 9.57125 21.3748 9.57125 20.801C9.57125 20.2263 9.104 19.759 8.5302 19.759Z" fill="#EDEDED"/>
<path fill-rule="evenodd" clip-rule="evenodd" d="M6.44152 20.801C6.44152 19.6482 7.37951 18.7111 8.53148 18.7111C9.68344 18.7111 10.6206 19.6482 10.6206 20.801C10.6206 21.953 9.68344 22.8901 8.53148 22.8901C7.37951 22.8901 6.44152 21.9521 6.44152 20.801ZM11.8188 20.801C11.8188 18.9888 10.3437 17.5137 8.53148 17.5137C6.71925 17.5137 5.24414 18.9879 5.24414 20.801C5.24414 22.6132 6.71925 24.0875 8.53148 24.0875C10.3446 24.0875 11.8188 22.6132 11.8188 20.801Z" fill="#EDEDED"/>
<path fill-rule="evenodd" clip-rule="evenodd" d="M12.7969 20.041C12.8405 20.2882 12.865 20.5406 12.865 20.8C12.865 21.0585 12.8405 21.3118 12.7969 21.558H26.4493C26.4056 21.3118 26.3812 21.0585 26.3812 20.8C26.3812 20.5406 26.4056 20.2873 26.4493 20.041H12.7969Z" fill="#EDEDED"/>
<path fill-rule="evenodd" clip-rule="evenodd" d="M30.7158 19.759C30.1411 19.759 29.6738 20.2263 29.6738 20.801C29.6738 21.3748 30.1411 21.842 30.7158 21.842C31.2896 21.842 31.7568 21.3748 31.7568 20.801C31.7568 20.2263 31.2896 19.759 30.7158 19.759Z" fill="#EDEDED"/>
<path fill-rule="evenodd" clip-rule="evenodd" d="M30.717 18.7111C31.869 18.7111 32.8061 19.6482 32.8061 20.801C32.8061 21.953 31.869 22.8901 30.717 22.8901C29.5642 22.8901 28.6271 21.953 28.6271 20.801C28.6271 19.6482 29.5642 18.7111 30.717 18.7111ZM30.717 17.5137C28.9048 17.5137 27.4297 18.9879 27.4297 20.801C27.4297 22.6132 28.9048 24.0875 30.717 24.0875C32.5293 24.0875 34.0035 22.6132 34.0035 20.801C34.0035 18.9879 32.5301 17.5137 30.717 17.5137Z" fill="#EDEDED"/>
<path fill-rule="evenodd" clip-rule="evenodd" d="M34.9824 20.041C35.0261 20.2882 35.0497 20.5406 35.0497 20.8C35.0497 21.0585 35.0261 21.3118 34.9824 21.558H39.2401C39.6584 21.558 39.999 21.2174 39.999 20.8C39.999 20.3816 39.6584 20.041 39.2401 20.041H34.9824Z" fill="#EDEDED"/>
<path fill-rule="evenodd" clip-rule="evenodd" d="M37.1664 15.0464L38.5839 15.4254V13.3853H35.8634C35.859 13.3853 35.8564 13.3853 35.8555 13.3861C35.8546 13.387 35.8538 13.3887 35.8512 13.3922C35.8494 13.3957 35.8485 13.3984 35.8477 13.3992C35.8485 13.4001 35.8494 13.4027 35.8512 13.4053L36.5053 14.539C36.6573 14.8018 36.8739 14.9678 37.1664 15.0464Z" fill="#EDEDED"/>
<path fill-rule="evenodd" clip-rule="evenodd" d="M18.6066 8.79214H24.9952C25.2171 8.79214 25.3944 8.6917 25.5088 8.50131C25.6223 8.31091 25.6275 8.10655 25.5227 7.91091L24.1455 5.33886C24.0363 5.13537 23.8485 5.02271 23.6171 5.02271H18.6066C18.3472 5.02271 18.1367 5.23406 18.1367 5.49345V8.32314C18.1367 8.58166 18.3472 8.79214 18.6066 8.79214Z" fill="#EDEDED"/>
<path fill-rule="evenodd" clip-rule="evenodd" d="M13.7659 8.28471V5.531C13.7659 5.25065 13.5389 5.02271 13.2585 5.02271H6.18516C5.90481 5.02271 5.67773 5.25065 5.67773 5.531V8.28471C5.67773 8.56506 5.90481 8.79214 6.18516 8.79214H13.2585C13.5389 8.79214 13.7659 8.56419 13.7659 8.28471Z" fill="#EDEDED"/>
<path fill-rule="evenodd" clip-rule="evenodd" d="M5.00575 1.3476H20.6215C20.7018 1.21135 20.7464 1.0559 20.7464 0.895196C20.7464 0.401747 20.3446 0 19.8512 0H5.77606C5.28261 0 4.88086 0.401747 4.88086 0.895196C4.88086 1.05677 4.9254 1.21135 5.00575 1.3476Z" fill="#EDEDED"/>
</svg>
