<svg width="30" height="30" viewBox="0 0 30 30" fill="none" xmlns="http://www.w3.org/2000/svg">
<path fill-rule="evenodd" clip-rule="evenodd" d="M30 6.62791C30 4.86977 29.3023 3.18419 28.0591 1.94093C26.8158 0.697674 25.1302 0 23.3721 0H6.62791C4.86977 0 3.18419 0.697674 1.94093 1.94093C0.697674 3.18419 0 4.86977 0 6.62791V23.3721C0 25.1302 0.697674 26.8158 1.94093 28.0591C3.18419 29.3023 4.86977 30 6.62791 30H23.3721C25.1302 30 26.8158 29.3023 28.0591 28.0591C29.3023 26.8158 30 25.1302 30 23.3721V6.62791ZM27.907 6.62791V23.3721C27.907 24.5749 27.4298 25.7288 26.5786 26.5786C25.7288 27.4298 24.5749 27.907 23.3721 27.907H6.62791C5.42512 27.907 4.27116 27.4298 3.4214 26.5786C2.57023 25.7288 2.09302 24.5749 2.09302 23.3721V6.62791C2.09302 5.42512 2.57023 4.27116 3.4214 3.4214C4.27116 2.57023 5.42512 2.09302 6.62791 2.09302H23.3721C24.5749 2.09302 25.7288 2.57023 26.5786 3.4214C27.4298 4.27116 27.907 5.42512 27.907 6.62791Z" fill="#B81DFF"/>
<path fill-rule="evenodd" clip-rule="evenodd" d="M15.681 9.64609L12.3321 19.6926C12.1507 20.241 12.4465 20.834 12.9949 21.0168C13.5433 21.1982 14.1363 20.9024 14.3191 20.354L17.6679 10.3075C17.8493 9.75912 17.5535 9.16609 17.0051 8.9833C16.4568 8.80191 15.8637 9.09772 15.681 9.64609Z" fill="#B81DFF"/>
<path fill-rule="evenodd" clip-rule="evenodd" d="M19.2837 12.3907L21.8916 15L19.2837 17.6093C18.8749 18.0167 18.8749 18.6809 19.2837 19.0884C19.6912 19.4972 20.3554 19.4972 20.7628 19.0884L24.1116 15.7395C24.5205 15.3307 24.5205 14.6693 24.1116 14.2604L20.7628 10.9116C20.3554 10.5028 19.6912 10.5028 19.2837 10.9116C18.8749 11.3191 18.8749 11.9832 19.2837 12.3907Z" fill="#B81DFF"/>
<path fill-rule="evenodd" clip-rule="evenodd" d="M9.23719 10.9116L5.88835 14.2604C5.47952 14.6693 5.47952 15.3307 5.88835 15.7395L9.23719 19.0884C9.64463 19.4972 10.3088 19.4972 10.7163 19.0884C11.1251 18.6809 11.1251 18.0167 10.7163 17.6093L8.10835 15L10.7163 12.3907C11.1251 11.9832 11.1251 11.3191 10.7163 10.9116C10.3088 10.5028 9.64463 10.5028 9.23719 10.9116Z" fill="#B81DFF"/>
</svg>
