<svg width="31" height="27" viewBox="0 0 31 27" fill="none" xmlns="http://www.w3.org/2000/svg">
<path d="M28.6633 0.149658C29.6487 0.149923 30.4504 0.952232 30.4504 1.93774V19.9954C30.4504 20.9809 29.6487 21.7822 28.6633 21.7825H17.967V22.7356H20.3049C21.2503 22.7359 22.0188 23.5052 22.0188 24.4504V25.5305C22.0185 25.8891 21.7282 26.1797 21.3693 26.1799H9.23164C8.87255 26.1799 8.58151 25.8892 8.58125 25.5305V24.4504C8.58126 23.5051 9.35045 22.7356 10.2961 22.7356H12.633V21.7825H1.9377C0.952024 21.7825 0.149612 20.981 0.149612 19.9954V1.93774C0.149612 0.952069 0.952024 0.149658 1.9377 0.149658H28.6633ZM10.2961 24.0364C10.0679 24.0364 9.88106 24.222 9.88106 24.4504V24.8801H20.7189V24.4504C20.7189 24.2222 20.5329 24.0366 20.3049 24.0364H10.2961ZM13.9328 22.7356H16.6672V21.7825H13.9328V22.7356ZM1.45039 19.9954C1.45039 20.2639 1.66902 20.4827 1.9377 20.4827H28.6633C28.9317 20.4824 29.1496 20.2637 29.1496 19.9954V18.4924H1.45039V19.9954ZM1.9377 1.45044C1.66902 1.45044 1.45039 1.66923 1.45039 1.93774V17.1926H29.1496V1.93774C29.1496 1.66939 28.9317 1.4507 28.6633 1.45044H1.9377Z" fill="#B81DFF" stroke="#B81DFF" stroke-width="0.3"/>
</svg>
