<svg width="31" height="31" viewBox="0 0 31 31" fill="none" xmlns="http://www.w3.org/2000/svg">
<path d="M5.54503 4.54443C5.77544 4.54559 5.99613 4.63856 6.15831 4.80225C6.32053 4.96601 6.41133 5.18795 6.41026 5.41846C6.40911 5.64887 6.31613 5.86956 6.15245 6.03174C5.98869 6.19394 5.76674 6.28475 5.53624 6.28369C5.30585 6.28252 5.08513 6.18955 4.92296 6.02588C4.76077 5.86212 4.66994 5.64015 4.67101 5.40967C4.67218 5.17928 4.76515 4.95856 4.92882 4.79639C5.09258 4.63418 5.31453 4.54337 5.54503 4.54443Z" fill="#B81DFF" stroke="#B81DFF" stroke-width="0.3"/>
<path d="M8.39571 4.55591C8.56648 4.55599 8.7333 4.60735 8.8752 4.70239C9.01705 4.79741 9.12751 4.93225 9.19258 5.09009C9.25763 5.24814 9.27434 5.42257 9.24043 5.59009C9.20666 5.75671 9.12351 5.90857 9.00313 6.02856L9.0041 6.02954C8.9247 6.11036 8.82929 6.17517 8.72481 6.21899C8.62057 6.26264 8.50871 6.28535 8.39571 6.2854C8.28251 6.2854 8.17003 6.26273 8.06563 6.21899C7.96114 6.17517 7.86574 6.11036 7.78633 6.02954V6.02856C7.66626 5.90865 7.58371 5.75645 7.55 5.59009C7.5161 5.42257 7.5328 5.24814 7.59785 5.09009C7.66291 4.93227 7.77343 4.79742 7.91524 4.70239C8.05724 4.60728 8.22479 4.55591 8.39571 4.55591Z" fill="#B81DFF" stroke="#B81DFF" stroke-width="0.3"/>
<path d="M25.7717 0.149658C26.9348 0.151365 28.0537 0.583249 28.9152 1.35669L29.0832 1.51587L29.0842 1.51685C29.9571 2.39816 30.4486 3.5879 30.4504 4.82837V25.7717L30.4455 26.0012C30.4212 26.5379 30.3038 27.0669 30.0988 27.5647C29.8646 28.1335 29.5201 28.6502 29.0852 29.0852C28.6502 29.5202 28.1335 29.8647 27.5647 30.0989C27.0668 30.3039 26.5379 30.4213 26.0012 30.4456L25.7717 30.4504H4.82832C4.21334 30.4529 3.60402 30.333 3.03535 30.0989C2.46655 29.8647 1.94982 29.5202 1.51485 29.0852C1.07988 28.6502 0.735396 28.1335 0.501175 27.5647C0.267012 26.996 0.147111 26.3867 0.149612 25.7717V4.82837L0.154495 4.59888C0.178768 4.06219 0.29618 3.53323 0.501175 3.0354C0.735396 2.4666 1.07988 1.94986 1.51485 1.51489C1.94982 1.07992 2.46655 0.735441 3.03535 0.501221C3.60402 0.267058 4.21334 0.147156 4.82832 0.149658H25.7717ZM4.82832 1.87524C4.04511 1.87524 3.29425 2.18666 2.74043 2.74048C2.18662 3.2943 1.8752 4.04515 1.8752 4.82837V25.7717C1.8752 26.5549 2.18662 27.3058 2.74043 27.8596C3.29425 28.4134 4.04511 28.7249 4.82832 28.7249H25.7717C26.5549 28.7249 27.3058 28.4134 27.8596 27.8596C28.4134 27.3058 28.7248 26.5549 28.7248 25.7717V4.82837C28.7248 4.04515 28.4134 3.2943 27.8596 2.74048C27.3058 2.18666 26.5549 1.87524 25.7717 1.87524H4.82832Z" fill="#B81DFF" stroke="#B81DFF" stroke-width="0.3"/>
<path d="M17.1094 10.7966C17.3117 10.698 17.5448 10.6832 17.7579 10.7556C17.9705 10.828 18.1458 10.9814 18.2461 11.1824L20.2022 15.0564H22.9219C23.1504 15.0564 23.3696 15.1469 23.5313 15.3083C23.693 15.4701 23.7842 15.69 23.7842 15.9187C23.7842 16.1479 23.6942 16.3679 23.5332 16.531C23.3722 16.6942 23.1531 16.7878 22.9239 16.7908H7.69536C7.4661 16.7878 7.24705 16.6942 7.08598 16.531C6.92493 16.3678 6.83402 16.148 6.83403 15.9187C6.83403 15.69 6.92521 15.4701 7.08696 15.3083C7.24869 15.1467 7.46865 15.0564 7.69731 15.0564H10.4161L12.3721 11.1824C12.4724 10.9812 12.6485 10.828 12.8614 10.7556C13.0479 10.6923 13.2496 10.6955 13.4327 10.7634L13.5098 10.7966L13.5127 10.7976C13.7114 10.8998 13.8626 11.0754 13.9346 11.2869C14.0066 11.4985 13.9937 11.7302 13.8985 11.9324L13.8965 11.9353L12.3457 15.0378H18.2735L16.7217 11.9353L16.7207 11.9324C16.6255 11.7301 16.6126 11.4985 16.6846 11.2869C16.7567 11.0753 16.9077 10.8998 17.1065 10.7976L17.1094 10.7966Z" fill="#B81DFF" stroke="#B81DFF" stroke-width="0.3"/>
<path d="M9.19518 18.5732C9.30759 18.5576 9.42225 18.5642 9.53209 18.5928C9.64186 18.6214 9.7453 18.6709 9.8358 18.7393C9.92637 18.8077 10.002 18.8943 10.0594 18.9922C10.1167 19.0898 10.1551 19.1975 10.1708 19.3096V19.3135C10.1711 19.316 10.172 19.3202 10.1727 19.3252C10.1741 19.335 10.1759 19.3495 10.1786 19.3682C10.184 19.4062 10.192 19.462 10.202 19.5322C10.2221 19.673 10.2506 19.8734 10.284 20.1084C10.3508 20.5783 10.4378 21.1898 10.5174 21.7568L10.535 21.8486C10.5852 22.0606 10.7002 22.2529 10.8661 22.3965C11.0558 22.5606 11.2988 22.65 11.5497 22.6494H19.1503C19.3706 22.6373 19.5821 22.5544 19.7538 22.4131C19.9496 22.2519 20.0799 22.0249 20.12 21.7744C20.1949 21.2638 20.2723 20.7297 20.3309 20.3232C20.3602 20.12 20.3849 19.9486 20.4022 19.8281C20.4108 19.7679 20.4181 19.72 20.4227 19.6875C20.425 19.6714 20.4264 19.6587 20.4276 19.6504C20.4281 19.6466 20.4293 19.6437 20.4296 19.6416V19.6377C20.445 19.5255 20.4827 19.4171 20.5399 19.3193C20.5973 19.2213 20.6739 19.1359 20.7645 19.0674C20.8552 18.9989 20.9582 18.9484 21.0682 18.9199C21.1509 18.8986 21.2362 18.8899 21.3212 18.8936L21.4051 18.9014L21.4139 18.9023L21.495 18.9229C21.6808 18.9793 21.8428 19.0976 21.954 19.2588C22.0802 19.4419 22.13 19.6663 22.0946 19.8857L22.0956 19.8877L22.0946 19.8896C22.0943 19.8918 22.0942 19.8952 22.0936 19.8994C22.0924 19.9078 22.091 19.9204 22.0887 19.9365C22.0841 19.9693 22.0768 20.0175 22.0682 20.0781C22.0511 20.1994 22.0266 20.3715 21.9979 20.5752C21.9405 20.9829 21.866 21.5174 21.7958 22.0234V22.0244C21.7005 22.6846 21.3702 23.2888 20.8661 23.7256C20.3619 24.1623 19.7167 24.403 19.0497 24.4033H11.5497C10.8782 24.402 10.2302 24.1566 9.72545 23.7139C9.22101 23.2713 8.89357 22.6612 8.80455 21.9961L8.57115 20.3467C8.53778 20.1119 8.50917 19.9122 8.48912 19.7715C8.47912 19.7013 8.47111 19.6454 8.46568 19.6074C8.46302 19.5887 8.46123 19.5743 8.45982 19.5645C8.45912 19.5595 8.45823 19.5553 8.45787 19.5527V19.5488C8.44224 19.4364 8.44884 19.3218 8.4774 19.2119C8.50596 19.1021 8.55552 18.9987 8.62389 18.9082C8.69235 18.8176 8.7789 18.7411 8.87682 18.6836C8.97461 18.6263 9.08289 18.5889 9.19518 18.5732Z" fill="#B81DFF" stroke="#B81DFF" stroke-width="0.3"/>
</svg>
