<svg width="45" height="45" viewBox="0 0 45 45" fill="none" xmlns="http://www.w3.org/2000/svg">
<g clip-path="url(#clip0_60_231)">
<path d="M31.6501 12.5002C31.6501 14.7168 29.847 16.5209 27.6294 16.5209H23.4797V8.47949H27.6294C29.847 8.47949 31.6501 10.2835 31.6501 12.5002Z" fill="black"/>
<path d="M27.6294 18.4793H27.5004C25.2829 18.4793 23.4797 20.2834 23.4797 22.5C23.4797 24.7175 25.2829 26.5207 27.5004 26.5207H27.6294C29.847 26.5207 31.6501 24.7175 31.6501 22.5C31.6501 20.2834 29.847 18.4793 27.6294 18.4793ZM17.3706 8.47942C15.153 8.47942 13.3499 10.2835 13.3499 12.5001C13.3499 14.7167 15.153 16.5208 17.3706 16.5208H21.5203V8.47942H17.3706ZM17.3706 8.47942C15.153 8.47942 13.3499 10.2835 13.3499 12.5001C13.3499 14.7167 15.153 16.5208 17.3706 16.5208H21.5203V8.47942H17.3706ZM27.6294 18.4793H27.5004C25.2829 18.4793 23.4797 20.2834 23.4797 22.5C23.4797 24.7175 25.2829 26.5207 27.5004 26.5207H27.6294C29.847 26.5207 31.6501 24.7175 31.6501 22.5C31.6501 20.2834 29.847 18.4793 27.6294 18.4793ZM17.3706 18.4793C15.153 18.4793 13.3499 20.2834 13.3499 22.5C13.3499 24.7175 15.153 26.5207 17.3706 26.5207H21.5203V18.4793H17.3706ZM17.3706 8.47942C15.153 8.47942 13.3499 10.2835 13.3499 12.5001C13.3499 14.7167 15.153 16.5208 17.3706 16.5208H21.5203V8.47942H17.3706ZM17.3706 8.47942C15.153 8.47942 13.3499 10.2835 13.3499 12.5001C13.3499 14.7167 15.153 16.5208 17.3706 16.5208H21.5203V8.47942H17.3706ZM17.3706 18.4793C15.153 18.4793 13.3499 20.2834 13.3499 22.5C13.3499 24.7175 15.153 26.5207 17.3706 26.5207H21.5203V18.4793H17.3706ZM27.6294 18.4793H27.5004C25.2829 18.4793 23.4797 20.2834 23.4797 22.5C23.4797 24.7175 25.2829 26.5207 27.5004 26.5207H27.6294C29.847 26.5207 31.6501 24.7175 31.6501 22.5C31.6501 20.2834 29.847 18.4793 27.6294 18.4793ZM27.6294 18.4793H27.5004C25.2829 18.4793 23.4797 20.2834 23.4797 22.5C23.4797 24.7175 25.2829 26.5207 27.5004 26.5207H27.6294C29.847 26.5207 31.6501 24.7175 31.6501 22.5C31.6501 20.2834 29.847 18.4793 27.6294 18.4793ZM13.3499 32.4999C13.3499 34.7165 15.168 36.5206 17.4022 36.5206C19.6732 36.5206 21.5203 34.6876 21.5203 32.4349V28.4792H17.3706C15.153 28.4792 13.3499 30.2833 13.3499 32.4999ZM13.3499 22.5C13.3499 24.7175 15.153 26.5207 17.3706 26.5207H21.5203V18.4793H17.3706C15.153 18.4793 13.3499 20.2834 13.3499 22.5ZM13.3499 12.5001C13.3499 14.7167 15.153 16.5208 17.3706 16.5208H21.5203V8.47942H17.3706C15.153 8.47942 13.3499 10.2835 13.3499 12.5001ZM40.1374 0H4.86256C2.17714 0 0 2.17714 0 4.86256V40.1374C0 42.8229 2.17714 45 4.86256 45H40.1374C42.8229 45 45 42.8229 45 40.1374V4.86256C45 2.17714 42.8229 0 40.1374 0ZM33.6087 22.5C33.6087 25.7973 30.9267 28.4792 27.6294 28.4792H27.5004C25.9536 28.4792 24.5419 27.8884 23.4797 26.9219V32.4349C23.4797 35.7674 20.753 38.4791 17.4022 38.4791C14.0873 38.4791 11.3913 35.7972 11.3913 32.4999C11.3913 30.4106 12.4676 28.5688 14.0952 27.5004C12.4676 26.4311 11.3913 24.5893 11.3913 22.5C11.3913 20.4115 12.4676 18.5697 14.0952 17.5005C12.4676 16.4312 11.3913 14.5894 11.3913 12.5001C11.3913 9.20279 14.0733 6.52087 17.3706 6.52087H27.6294C30.9267 6.52087 33.6087 9.20279 33.6087 12.5001C33.6087 14.5894 32.5324 16.4312 30.9048 17.5005C32.5324 18.5697 33.6087 20.4115 33.6087 22.5ZM27.6294 18.4793H27.5004C25.2829 18.4793 23.4797 20.2834 23.4797 22.5C23.4797 24.7175 25.2829 26.5207 27.5004 26.5207H27.6294C29.847 26.5207 31.6501 24.7175 31.6501 22.5C31.6501 20.2834 29.847 18.4793 27.6294 18.4793ZM13.3499 32.4999C13.3499 34.7165 15.168 36.5206 17.4022 36.5206C19.6732 36.5206 21.5203 34.6876 21.5203 32.4349V28.4792H17.3706C15.153 28.4792 13.3499 30.2833 13.3499 32.4999ZM13.3499 22.5C13.3499 24.7175 15.153 26.5207 17.3706 26.5207H21.5203V18.4793H17.3706C15.153 18.4793 13.3499 20.2834 13.3499 22.5ZM13.3499 12.5001C13.3499 14.7167 15.153 16.5208 17.3706 16.5208H21.5203V8.47942H17.3706C15.153 8.47942 13.3499 10.2835 13.3499 12.5001ZM17.3706 8.47942C15.153 8.47942 13.3499 10.2835 13.3499 12.5001C13.3499 14.7167 15.153 16.5208 17.3706 16.5208H21.5203V8.47942H17.3706ZM17.3706 18.4793C15.153 18.4793 13.3499 20.2834 13.3499 22.5C13.3499 24.7175 15.153 26.5207 17.3706 26.5207H21.5203V18.4793H17.3706ZM17.3706 28.4792C15.153 28.4792 13.3499 30.2833 13.3499 32.4999C13.3499 34.7165 15.168 36.5206 17.4022 36.5206C19.6732 36.5206 21.5203 34.6876 21.5203 32.4349V28.4792H17.3706ZM27.6294 18.4793H27.5004C25.2829 18.4793 23.4797 20.2834 23.4797 22.5C23.4797 24.7175 25.2829 26.5207 27.5004 26.5207H27.6294C29.847 26.5207 31.6501 24.7175 31.6501 22.5C31.6501 20.2834 29.847 18.4793 27.6294 18.4793ZM27.6294 18.4793H27.5004C25.2829 18.4793 23.4797 20.2834 23.4797 22.5C23.4797 24.7175 25.2829 26.5207 27.5004 26.5207H27.6294C29.847 26.5207 31.6501 24.7175 31.6501 22.5C31.6501 20.2834 29.847 18.4793 27.6294 18.4793ZM17.3706 18.4793C15.153 18.4793 13.3499 20.2834 13.3499 22.5C13.3499 24.7175 15.153 26.5207 17.3706 26.5207H21.5203V18.4793H17.3706ZM17.3706 8.47942C15.153 8.47942 13.3499 10.2835 13.3499 12.5001C13.3499 14.7167 15.153 16.5208 17.3706 16.5208H21.5203V8.47942H17.3706ZM17.3706 8.47942C15.153 8.47942 13.3499 10.2835 13.3499 12.5001C13.3499 14.7167 15.153 16.5208 17.3706 16.5208H21.5203V8.47942H17.3706ZM17.3706 18.4793C15.153 18.4793 13.3499 20.2834 13.3499 22.5C13.3499 24.7175 15.153 26.5207 17.3706 26.5207H21.5203V18.4793H17.3706ZM27.6294 18.4793H27.5004C25.2829 18.4793 23.4797 20.2834 23.4797 22.5C23.4797 24.7175 25.2829 26.5207 27.5004 26.5207H27.6294C29.847 26.5207 31.6501 24.7175 31.6501 22.5C31.6501 20.2834 29.847 18.4793 27.6294 18.4793ZM17.3706 8.47942C15.153 8.47942 13.3499 10.2835 13.3499 12.5001C13.3499 14.7167 15.153 16.5208 17.3706 16.5208H21.5203V8.47942H17.3706ZM17.3706 8.47942C15.153 8.47942 13.3499 10.2835 13.3499 12.5001C13.3499 14.7167 15.153 16.5208 17.3706 16.5208H21.5203V8.47942H17.3706ZM27.6294 18.4793H27.5004C25.2829 18.4793 23.4797 20.2834 23.4797 22.5C23.4797 24.7175 25.2829 26.5207 27.5004 26.5207H27.6294C29.847 26.5207 31.6501 24.7175 31.6501 22.5C31.6501 20.2834 29.847 18.4793 27.6294 18.4793Z" fill="black"/>
</g>
<defs>
<clipPath id="clip0_60_231">
<rect width="45" height="45" fill="white"/>
</clipPath>
</defs>
</svg>
