<svg width="45" height="45" viewBox="0 0 45 45" fill="none" xmlns="http://www.w3.org/2000/svg">
<g clip-path="url(#clip0_60_236)">
<path d="M18.2812 15.2622H18.2435L15.9187 23.081H20.6815L18.2812 15.2622ZM18.2812 15.2622H18.2435L15.9187 23.081H20.6815L18.2812 15.2622ZM37.031 0.5625H7.96904C3.56221 0.5625 0 4.12471 0 8.53154V36.4685C0 40.8753 3.56221 44.4375 7.96904 44.4375H37.031C41.4378 44.4375 45 40.8753 45 36.4685V8.53154C45 4.12471 41.4378 0.5625 37.031 0.5625ZM27.5625 31.5563H23.6435C23.5125 31.5747 23.3815 31.4815 23.3438 31.3497L21.8065 26.8875H14.8315L13.406 31.2935C13.369 31.4622 13.2188 31.5747 13.05 31.5563H9.52471C9.31904 31.5563 9.26279 31.4438 9.31904 31.2188L15.3562 13.8375C15.4125 13.6503 15.4688 13.4438 15.5435 13.2188C15.619 12.825 15.656 12.4128 15.656 11.9997C15.6375 11.9065 15.7122 11.8125 15.8062 11.794H20.6622C20.8125 11.794 20.8872 11.8503 20.9065 11.9435L27.7497 31.2565C27.806 31.4622 27.7497 31.5563 27.5625 31.5563ZM33.9372 31.275C33.9372 31.4815 33.8625 31.5747 33.6937 31.5747H30.019C29.831 31.5747 29.7378 31.4622 29.7378 31.275V16.8372C29.7378 16.65 29.8125 16.5753 29.9812 16.5753H33.6937C33.8625 16.5753 33.9372 16.6685 33.9372 16.8372V31.275ZM33.5435 14.3438C33.1128 14.7937 32.4747 15.0372 31.8375 15.0003C31.2188 15.0188 30.6185 14.7753 30.1685 14.3438C29.7378 13.8753 29.5128 13.2565 29.5312 12.6185C29.5128 11.9813 29.7562 11.381 30.2062 10.9503C30.6562 10.5187 31.2565 10.2937 31.8753 10.2937C32.6065 10.2937 33.169 10.5187 33.5812 10.9503C33.9935 11.4003 34.2185 11.9997 34.2 12.6185C34.2185 13.2565 33.9935 13.8753 33.5435 14.3438ZM18.2435 15.2622L15.9187 23.081H20.6815L18.2812 15.2622H18.2435Z" fill="black"/>
</g>
<defs>
<clipPath id="clip0_60_236">
<rect width="45" height="45" fill="white"/>
</clipPath>
</defs>
</svg>
