<svg width="17" height="12" viewBox="0 0 17 12" fill="none" xmlns="http://www.w3.org/2000/svg">
<path d="M15.6102 11.9064H0.489304C0.217468 11.9064 0 11.6889 0 11.4171V0.489304C0 0.217468 0.217468 0 0.489304 0H15.6102C15.882 0 16.0995 0.217468 16.0995 0.489304V11.4205C16.0995 11.6889 15.8786 11.9064 15.6102 11.9064ZM0.978608 10.9278H15.1208V0.978608H0.978608V10.9278Z" fill="#03004E"/>
<path d="M8.04973 8.19244C7.9274 8.19244 7.80508 8.14827 7.71333 8.05653L0.156306 0.846091C-0.0407749 0.659204 -0.0475708 0.349991 0.139316 0.152911C0.326203 -0.04417 0.635416 -0.0509659 0.832497 0.135921L8.04973 7.02695L15.267 0.135921C15.464 -0.0509659 15.7733 -0.04417 15.9601 0.152911C16.147 0.349991 16.1402 0.659204 15.9432 0.846091L8.38612 8.05993C8.29438 8.14827 8.17205 8.19244 8.04973 8.19244Z" fill="#03004E"/>
<path d="M0.496097 11.9064C0.366976 11.9064 0.237854 11.8554 0.142711 11.7535C-0.0441757 11.5564 -0.0373798 11.2472 0.159701 11.0603L5.88184 5.59642C6.07892 5.40953 6.38813 5.41633 6.57502 5.61341C6.76191 5.81049 6.75511 6.1197 6.55803 6.30659L0.832494 11.7739C0.737351 11.8622 0.615025 11.9064 0.496097 11.9064Z" fill="#03004E"/>
<path d="M15.6034 11.9064C15.481 11.9064 15.3587 11.8622 15.267 11.7705L9.54482 6.30999C9.34774 6.1231 9.34094 5.81389 9.52783 5.61681C9.71471 5.41973 10.0239 5.41293 10.221 5.59982L15.9431 11.0637C16.1402 11.2506 16.147 11.5598 15.9601 11.7569C15.8616 11.8588 15.7325 11.9064 15.6034 11.9064Z" fill="#03004E"/>
</svg>
