<svg width="14" height="18" viewBox="0 0 14 18" fill="none" xmlns="http://www.w3.org/2000/svg">
<path d="M12.8737 3.87775C11.7505 1.52295 9.43558 0.0348077 6.82991 0.000597552C4.21853 -0.0336126 1.90365 1.40321 0.740502 3.76371C-0.468257 6.20974 -0.183172 9.04348 1.49313 11.1702L5.82071 16.6666C6.04307 16.946 6.37377 17.1057 6.72728 17.1057C7.08078 17.1057 7.41148 16.946 7.63385 16.6666L12.0755 11.022C13.689 8.96936 13.9912 6.23825 12.8737 3.88345V3.87775ZM11.186 10.315L6.72158 15.9596L2.39399 10.4632C0.997078 8.68997 0.757607 6.31237 1.76681 4.27116C2.73609 2.30978 4.58914 1.14664 6.73298 1.14664H6.8185C9.01936 1.18085 10.9009 2.3839 11.8474 4.3738C12.7939 6.36369 12.5487 8.58164 11.186 10.315Z" fill="#03004E"/>
<path d="M6.72728 3.51284C5.01107 3.51284 3.61416 4.90976 3.61416 6.62597C3.61416 8.34218 5.01107 9.73909 6.72728 9.73909C8.44349 9.73909 9.84041 8.34218 9.84041 6.62597C9.84041 4.90976 8.44349 3.51284 6.72728 3.51284ZM6.72728 8.59305C5.63826 8.59305 4.7545 7.70929 4.7545 6.62027C4.7545 5.53124 5.63826 4.64748 6.72728 4.64748C7.81631 4.64748 8.70007 5.53124 8.70007 6.62027C8.70007 7.70929 7.81631 8.59305 6.72728 8.59305Z" fill="#03004E"/>
</svg>
