<svg width="15" height="11" viewBox="0 0 15 11" fill="none" xmlns="http://www.w3.org/2000/svg">
<path d="M14.8526 0.753906L10.3081 5.27379L14.8526 9.79368C14.9347 9.62179 14.9846 9.43177 14.9846 9.22886V1.31872C14.9846 1.11578 14.9347 0.925791 14.8526 0.753906Z" fill="#777777"/>
<path d="M13.6675 0H1.31698C1.11425 0 0.924455 0.0498926 0.752747 0.132129L6.56111 5.91717C7.07469 6.43127 7.90984 6.43127 8.42342 5.91717L14.2318 0.132129C14.0601 0.0498926 13.8703 0 13.6675 0Z" fill="#777777"/>
<path d="M0.131993 0.753906C0.0498413 0.925791 0 1.11578 0 1.31872V9.22886C0 9.4318 0.0498413 9.62182 0.131993 9.79368L4.67651 5.27379L0.131993 0.753906Z" fill="#777777"/>
<path d="M9.68727 5.89453L9.04419 6.53827C8.18846 7.39488 6.79604 7.39488 5.94031 6.53827L5.29726 5.89453L0.752747 10.4144C0.924455 10.4967 1.11425 10.5465 1.31698 10.5465H13.6675C13.8703 10.5465 14.0601 10.4967 14.2318 10.4144L9.68727 5.89453Z" fill="#777777"/>
</svg>
