<svg width="45" height="45" viewBox="0 0 45 45" fill="none" xmlns="http://www.w3.org/2000/svg">
<g clip-path="url(#clip0_60_166)">
<path d="M19.7667 16.866C20.0726 17.3463 20.2323 17.9215 20.2122 18.5248C20.2122 19.3501 20.025 19.9873 19.6312 20.4566C18.7622 21.4925 17.2223 21.7873 15.9372 21.7873H14.944C14.719 21.7873 14.4747 21.7688 14.2128 21.7504V15.4504C14.3437 15.4311 14.6065 15.4126 14.981 15.4311C15.3378 15.4126 15.7685 15.4126 16.2562 15.4126C17.5483 15.4126 19.0234 15.6996 19.7667 16.866Z" fill="black"/>
<path d="M37.031 0.5625H7.96904C3.56221 0.5625 0 4.12471 0 8.53154V36.4685C0 40.8753 3.56221 44.4375 7.96904 44.4375H37.031C41.4378 44.4375 45 40.8753 45 36.4685V8.53154C45 4.12471 41.4378 0.5625 37.031 0.5625ZM23.175 22.406C22.4253 23.4562 21.375 24.2438 20.156 24.6938C18.8815 25.1622 17.4753 25.331 15.9372 25.331C15.4872 25.331 15.1875 25.331 15.0003 25.3125C14.8122 25.294 14.5503 25.294 14.1935 25.294V31.3128C14.2128 31.4437 14.1187 31.5563 13.9878 31.5747H10.35C10.1997 31.5747 10.125 31.5 10.125 31.3313V12.0375C10.125 11.9065 10.1813 11.831 10.3122 11.831C10.6313 11.831 10.931 11.831 11.3625 11.8125C11.8125 11.794 12.281 11.794 12.7872 11.7747C13.2935 11.7562 13.8375 11.7562 14.4185 11.7378C15.0003 11.7185 15.5628 11.7185 16.1253 11.7185C17.6625 11.7185 18.9378 11.9065 19.9872 12.3003C20.925 12.6185 21.7872 13.144 22.5 13.8375C23.1003 14.4378 23.5688 15.169 23.8685 15.975C24.1497 16.7625 24.3 17.5685 24.3 18.4122C24.3 20.025 23.9247 21.3565 23.175 22.406ZM36.4685 29.7C35.9437 30.4497 35.2125 31.0315 34.3688 31.369C33.4503 31.7628 32.3253 31.9685 30.9753 31.9685C30.1122 31.9685 29.2685 31.8938 28.4247 31.725C27.769 31.6125 27.1125 31.406 26.5122 31.1247C26.3812 31.05 26.2872 30.919 26.3065 30.7687V27.5063C26.3065 27.45 26.325 27.3753 26.3813 27.3375C26.4375 27.2997 26.4937 27.319 26.55 27.356C27.2812 27.7875 28.0503 28.0872 28.8747 28.2753C29.5875 28.4625 30.3372 28.5565 31.0878 28.5565C31.7997 28.5565 32.306 28.4625 32.6435 28.2938C32.944 28.1628 33.1497 27.8438 33.1497 27.5063C33.1497 27.2435 33.0003 27 32.6997 26.7565C32.4 26.5122 31.7812 26.231 30.8628 25.875C29.9065 25.5375 29.025 25.0875 28.1997 24.525C27.6187 24.1128 27.131 23.5688 26.775 22.9315C26.4753 22.3313 26.325 21.6747 26.3435 21.019C26.3435 20.2122 26.5685 19.444 26.9815 18.7497C27.45 18 28.1435 17.3997 28.9503 17.0253C29.831 16.5753 30.9375 16.3688 32.269 16.3688C33.0372 16.3688 33.8247 16.425 34.5938 16.5375C35.1562 16.6122 35.7003 16.7625 36.2065 16.969C36.2812 16.9875 36.356 17.0622 36.3937 17.1378C36.4122 17.2125 36.4315 17.2872 36.4315 17.3628V20.4188C36.4315 20.4935 36.3938 20.569 36.3375 20.606C36.1688 20.6438 36.0747 20.6438 36 20.606C35.4375 20.3063 34.8372 20.0997 34.2 19.9688C33.5065 19.8185 32.8122 19.7253 32.1003 19.7253C31.725 19.706 31.3312 19.7622 30.9753 19.8563C30.731 19.9125 30.5253 20.0435 30.3935 20.2315C30.3003 20.381 30.244 20.569 30.244 20.7378C30.244 20.9065 30.3187 21.0753 30.4312 21.2247C30.6 21.4313 30.825 21.6 31.0685 21.731C31.5 21.956 31.95 22.1625 32.4 22.3497C33.4125 22.6872 34.3872 23.1565 35.2872 23.719C35.906 24.1128 36.4122 24.6375 36.769 25.2747C37.0687 25.875 37.219 26.5315 37.1997 27.2065C37.219 28.0872 36.9562 28.9688 36.4685 29.7Z" fill="black"/>
</g>
<defs>
<clipPath id="clip0_60_166">
<rect width="45" height="45" fill="white"/>
</clipPath>
</defs>
</svg>
