<svg width="45" height="45" viewBox="0 0 45 45" fill="none" xmlns="http://www.w3.org/2000/svg">
<g clip-path="url(#clip0_60_243)">
<path d="M0 0V45H45V0H0ZM27.935 11.6036L28.3569 15.4007L24.5598 10.9879L27.935 11.6036ZM27.7876 17.1286H17.217L22.5047 10.9879L27.7876 17.1286ZM20.3192 10.9879L16.1313 16.0242L15.6659 12.3016L20.3192 10.9879ZM14.27 13.4091L14.7353 17.1317H10.2371L14.27 13.4091ZM10.2371 18.6626H15.0765L19.919 31.5692L10.2371 18.6626ZM16.7176 18.6626H28.3166L22.5171 34.0183L16.7176 18.6626ZM25.1151 31.5707L29.9359 18.6626H34.7768L25.1151 31.5707ZM30.091 17.1286L29.6257 12.9081L34.7784 17.1286H30.091Z" fill="black"/>
</g>
<defs>
<clipPath id="clip0_60_243">
<rect width="45" height="45" rx="8" fill="white"/>
</clipPath>
</defs>
</svg>
