<svg width="30" height="27" viewBox="0 0 30 27" fill="none" xmlns="http://www.w3.org/2000/svg">
<path d="M27.381 0H2.61905C1.17467 0 0 1.17467 0 2.61905V17.8571C0 19.3015 1.17467 20.4762 2.61905 20.4762H12.381V24.7619H8.33333C7.93899 24.7619 7.61905 25.0818 7.61905 25.4762C7.61905 25.8705 7.93899 26.1905 8.33333 26.1905H21.6667C22.061 26.1905 22.381 25.8705 22.381 25.4762C22.381 25.0818 22.061 24.7619 21.6667 24.7619H17.619V20.4762H27.381C28.8253 20.4762 30 19.3015 30 17.8571V2.61905C30 1.17467 28.8253 0 27.381 0ZM16.1905 24.7619H13.8095V20.4762H16.1905V24.7619ZM27.381 19.0476H2.61905C1.96243 19.0476 1.42857 18.5138 1.42857 17.8571V2.61905C1.42857 1.96243 1.96243 1.42857 2.61905 1.42857H27.381C28.0376 1.42857 28.5714 1.96243 28.5714 2.61905V17.8571C28.5714 18.5138 28.0376 19.0476 27.381 19.0476Z" fill="#B81DFF"/>
<path d="M20.9886 6.24542L15.2743 3.86447C15.0995 3.79192 14.9005 3.79192 14.7256 3.86447L9.01133 6.24542C8.7444 6.3561 8.57141 6.61651 8.57141 6.90483V13.5715C8.57141 13.8598 8.7444 14.1202 9.01133 14.2309L14.7256 16.6119C14.813 16.6481 14.907 16.6667 15 16.6667C15.093 16.6667 15.1869 16.6481 15.2743 16.6119L20.9886 14.2309C21.2556 14.1202 21.4286 13.8598 21.4286 13.5715V6.90483C21.4286 6.61651 21.2556 6.3561 20.9886 6.24542ZM15 5.29769L18.8572 6.90483L15 8.51197L11.1428 6.90483L15 5.29769ZM9.99998 7.97614L14.2857 9.76186V14.881L9.99998 13.0953V7.97614ZM15.7143 14.881V9.76186L20 7.97614V13.0953L15.7143 14.881Z" fill="#B81DFF"/>
</svg>
