<svg width="45" height="45" viewBox="0 0 45 45" fill="none" xmlns="http://www.w3.org/2000/svg">
<g clip-path="url(#clip0_60_246)">
<path d="M36.2109 0H8.78906C6.45806 0 4.22253 0.925988 2.57426 2.57426C0.925988 4.22253 0 6.45806 0 8.78906L0 36.2109C0 38.5419 0.925988 40.7775 2.57426 42.4257C4.22253 44.074 6.45806 45 8.78906 45H36.2109C38.5419 45 40.7775 44.074 42.4257 42.4257C44.074 40.7775 45 38.5419 45 36.2109V8.78906C45 6.45806 44.074 4.22253 42.4257 2.57426C40.7775 0.925988 38.5419 0 36.2109 0ZM18.9923 30.4866L17.5983 27.6987C17.0271 26.6247 16.6614 25.8249 16.2272 24.9337H16.1815C15.8616 25.8249 15.4731 26.6247 14.9704 27.6987L13.7109 30.4866H9.7374L14.1935 22.6942L9.89736 15.0855H13.8964L15.2446 17.898C15.7017 18.835 16.0444 19.5891 16.4101 20.4565H16.4558C16.8214 19.4748 17.1185 18.7866 17.5104 17.898L18.813 15.0855H22.7883L18.4474 22.6028L23.0177 30.4866H18.9923ZM32.1759 30.4866L32.0388 28.8642H31.9702C31.2847 30.0946 29.9136 30.738 28.4748 30.738C25.824 30.738 23.6988 28.4757 23.6988 25.0022C23.676 21.2317 26.0297 19.0389 28.7033 19.0389C30.0964 19.0389 31.1476 19.5416 31.6503 20.2948H31.696V14.2629H35.1694V27.1503C35.1694 28.4071 35.2151 29.7325 35.2573 30.4901L32.1759 30.4866Z" fill="black"/>
<path d="M29.6191 21.709C28.0204 21.709 27.2206 23.1258 27.2206 24.8854C27.2206 26.782 28.1566 27.9703 29.5937 27.9703C30.0743 27.9734 30.5409 27.808 30.9124 27.503C31.2839 27.198 31.5369 26.7725 31.6274 26.3004C31.6739 26.0363 31.6969 25.7687 31.696 25.5006V24.0425C31.7028 23.8282 31.6874 23.6138 31.6503 23.4026C31.4455 22.4886 30.6914 21.709 29.6191 21.709Z" fill="black"/>
</g>
<defs>
<clipPath id="clip0_60_246">
<rect width="45" height="45" fill="white"/>
</clipPath>
</defs>
</svg>
