<svg width="168" height="49" viewBox="0 0 168 49" fill="none" xmlns="http://www.w3.org/2000/svg">
<path d="M17.3743 17.0902C20.3113 18.458 23.3386 19.1368 25.8911 19.0026H25.9375L26.1208 0.805158C26.1221 0.660535 26.0842 0.518255 26.0109 0.39355C25.9377 0.268844 25.8319 0.166409 25.7049 0.097208C25.5779 0.0280073 25.4344 -0.00535293 25.2899 0.000698494C25.1454 0.00674991 25.0053 0.0519851 24.8845 0.131562L9.57764 10.4549C10.8164 12.8215 13.6786 15.3662 17.3743 17.0902Z" fill="#9CFE4F"/>
<path d="M25.2612 20.7498C22.5901 20.7498 19.5628 20.0194 16.6439 18.6567C12.6178 16.7805 9.59045 14.1042 8.12712 11.4304L0.353664 16.6824C0.219106 16.7725 0.115179 16.9015 0.0557096 17.0521C-0.00376012 17.2028 -0.0159542 17.368 0.0207495 17.5257C0.0574532 17.6835 0.141315 17.8263 0.261179 17.9352C0.381042 18.0441 0.531226 18.1139 0.691753 18.1354L13.7611 19.9136C14.5293 20.0181 15.2336 20.3977 15.7431 20.9821L24.4251 30.9105C24.5317 31.0321 24.6727 31.1185 24.8294 31.1583C24.9861 31.1981 25.1513 31.1895 25.303 31.1336C25.4547 31.0778 25.586 30.9772 25.6794 30.8452C25.7729 30.7132 25.8241 30.556 25.8264 30.3944L25.9219 20.7343C25.7069 20.7446 25.4866 20.7498 25.2612 20.7498Z" fill="#9CFE4F"/>
<path d="M25.2612 19.3716C22.5901 19.3716 19.5627 18.6413 16.6438 17.2786C9.77882 14.0784 5.80435 8.55023 7.61093 4.69189C9.41751 0.833547 16.1922 0.325123 23.0572 3.52535C25.2158 4.51347 27.203 5.83945 28.9441 7.45337C29.1107 7.61115 29.2079 7.82867 29.2142 8.05808C29.2205 8.2875 29.1354 8.51002 28.9776 8.67669C28.8198 8.84336 28.6023 8.94053 28.3729 8.94682C28.1435 8.95311 27.921 8.86801 27.7543 8.71024C26.1508 7.22598 24.3214 6.00634 22.3346 5.09708C16.5406 2.39495 10.5169 2.54722 9.17491 5.41452C7.83288 8.28182 11.588 13.0125 17.3742 15.712C20.3112 17.0799 23.3385 17.7612 25.8909 17.6244C28.2576 17.5005 29.9015 16.7056 30.5184 15.3817C31.161 14.0009 30.539 12.4241 29.9041 11.3453C29.8465 11.2473 29.8088 11.139 29.793 11.0264C29.7773 10.9139 29.7838 10.7994 29.8124 10.6894C29.8409 10.5794 29.8908 10.4761 29.9592 10.3853C30.0277 10.2946 30.1133 10.2183 30.2112 10.1607C30.3092 10.103 30.4175 10.0653 30.5301 10.0495C30.6426 10.0338 30.7572 10.0404 30.8672 10.0689C31.0893 10.1265 31.2795 10.27 31.3958 10.4678C32.5908 12.4989 32.836 14.5042 32.0875 16.1121C31.1868 18.0425 29.0189 19.2091 25.9813 19.3536C25.749 19.3665 25.5064 19.3716 25.2612 19.3716Z" fill="#9CFE4F"/>
<path d="M168 17.4408C168 18.0139 167.963 18.5315 167.889 18.9937H156.215C156.308 20.2138 156.761 21.1935 157.574 21.933C158.388 22.6724 159.386 23.0422 160.569 23.0422C162.27 23.0422 163.471 22.3304 164.174 20.907H167.584C167.122 22.3119 166.281 23.4673 165.061 24.3732C163.859 25.2605 162.362 25.7042 160.569 25.7042C159.109 25.7042 157.796 25.3807 156.631 24.7336C155.485 24.0681 154.579 23.1438 153.914 21.9607C153.267 20.7591 152.943 19.3726 152.943 17.8013C152.943 16.23 153.258 14.8528 153.886 13.6697C154.533 12.4681 155.43 11.5437 156.576 10.8967C157.741 10.2497 159.072 9.92621 160.569 9.92621C162.011 9.92621 163.296 10.2405 164.423 10.869C165.551 11.4975 166.429 12.3849 167.058 13.531C167.686 14.6587 168 15.9619 168 17.4408ZM164.701 16.4426C164.682 15.278 164.266 14.3444 163.453 13.6419C162.639 12.9395 161.632 12.5882 160.43 12.5882C159.34 12.5882 158.406 12.9395 157.63 13.6419C156.853 14.3259 156.391 15.2595 156.243 16.4426H164.701Z" fill="#9CFE4F"/>
<path d="M143.68 9.92621C144.882 9.92621 145.954 10.1758 146.897 10.6749C147.858 11.174 148.607 11.9135 149.143 12.8932C149.697 13.873 149.975 15.0561 149.975 16.4426V25.4546H146.841V16.914C146.841 15.546 146.499 14.5015 145.815 13.7806C145.131 13.0411 144.198 12.6714 143.014 12.6714C141.831 12.6714 140.889 13.0411 140.186 13.7806C139.502 14.5015 139.16 15.546 139.16 16.914V25.4546H136.027V16.914C136.027 15.546 135.685 14.5015 135.001 13.7806C134.317 13.0411 133.383 12.6714 132.2 12.6714C131.017 12.6714 130.074 13.0411 129.372 13.7806C128.688 14.5015 128.346 15.546 128.346 16.914V25.4546H125.185V10.1758H128.346V11.9227C128.863 11.2942 129.52 10.8043 130.314 10.4531C131.109 10.1018 131.96 9.92621 132.866 9.92621C134.086 9.92621 135.176 10.185 136.138 10.7026C137.099 11.2202 137.838 11.9689 138.356 12.9487C138.818 12.0244 139.539 11.2942 140.519 10.7581C141.499 10.2035 142.552 9.92621 143.68 9.92621Z" fill="#9CFE4F"/>
<path d="M121.014 10.1758V25.4546H117.853V23.6522C117.353 24.2807 116.697 24.7798 115.884 25.1496C115.089 25.5008 114.238 25.6764 113.333 25.6764C112.131 25.6764 111.05 25.4268 110.088 24.9277C109.146 24.4286 108.397 23.6891 107.842 22.7094C107.306 21.7296 107.038 20.5465 107.038 19.16V10.1758H110.171V18.6886C110.171 20.0566 110.513 21.1103 111.197 21.8498C111.881 22.5707 112.815 22.9312 113.998 22.9312C115.181 22.9312 116.115 22.5707 116.799 21.8498C117.501 21.1103 117.853 20.0566 117.853 18.6886V10.1758H121.014Z" fill="#9CFE4F"/>
<path d="M104.791 10.1758L95.4185 32.6365H92.1464L95.2521 25.205L89.2349 10.1758H92.7565L97.0545 21.822L101.519 10.1758H104.791Z" fill="#9CFE4F"/>
<path d="M80.7858 22.8758H87.7181V25.4546H77.1255V22.8758L84.0855 12.7546H77.1255V10.1758H87.7181V12.7546L80.7858 22.8758Z" fill="#9CFE4F"/>
<path d="M74.8744 17.4408C74.8744 18.0139 74.8374 18.5315 74.7635 18.9937H63.0894C63.1819 20.2138 63.6348 21.1935 64.4482 21.933C65.2616 22.6724 66.2598 23.0422 67.4429 23.0422C69.1437 23.0422 70.3453 22.3304 71.0477 20.907H74.4584C73.9963 22.3119 73.1552 23.4673 71.9351 24.3732C70.7335 25.2605 69.2361 25.7042 67.4429 25.7042C65.9825 25.7042 64.67 25.3807 63.5054 24.7336C62.3592 24.0681 61.4534 23.1438 60.7879 21.9607C60.1409 20.7591 59.8174 19.3726 59.8174 17.8013C59.8174 16.23 60.1316 14.8528 60.7602 13.6697C61.4072 12.4681 62.3038 11.5437 63.4499 10.8967C64.6145 10.2497 65.9456 9.92621 67.4429 9.92621C68.8849 9.92621 70.1696 10.2405 71.2973 10.869C72.425 11.4975 73.3031 12.3849 73.9316 13.531C74.5601 14.6587 74.8744 15.9619 74.8744 17.4408ZM71.5746 16.4426C71.5561 15.278 71.1402 14.3444 70.3268 13.6419C69.5134 12.9395 68.5059 12.5882 67.3043 12.5882C66.2136 12.5882 65.28 12.9395 64.5036 13.6419C63.7272 14.3259 63.2651 15.2595 63.1172 16.4426H71.5746Z" fill="#9CFE4F"/>
<path d="M53.3609 25.4546L48.9242 17.7458H46.5117V25.4546H43.3506V6.18274H50.0056C51.4845 6.18274 52.7323 6.44155 53.7491 6.95916C54.7843 7.47677 55.5515 8.17 56.0506 9.03886C56.5682 9.90771 56.827 10.8782 56.827 11.9504C56.827 13.2075 56.4573 14.3536 55.7178 15.3889C54.9969 16.4056 53.8785 17.0988 52.3626 17.4686L57.132 25.4546H53.3609ZM46.5117 15.2225H50.0056C51.1887 15.2225 52.0761 14.9267 52.6676 14.3351C53.2777 13.7436 53.5827 12.9487 53.5827 11.9504C53.5827 10.9522 53.2869 10.1758 52.6954 9.62117C52.1038 9.0481 51.2072 8.76156 50.0056 8.76156H46.5117V15.2225Z" fill="#9CFE4F"/>
<path d="M124.58 39.696V48H123.488V41.808L120.728 48H119.96L117.188 41.796V48H116.096V39.696H117.272L120.344 46.56L123.416 39.696H124.58ZM126.024 44.688C126.024 44.016 126.16 43.428 126.432 42.924C126.704 42.412 127.076 42.016 127.548 41.736C128.028 41.456 128.56 41.316 129.144 41.316C129.72 41.316 130.22 41.44 130.644 41.688C131.068 41.936 131.384 42.248 131.592 42.624V41.424H132.696V48H131.592V46.776C131.376 47.16 131.052 47.48 130.62 47.736C130.196 47.984 129.7 48.108 129.132 48.108C128.548 48.108 128.02 47.964 127.548 47.676C127.076 47.388 126.704 46.984 126.432 46.464C126.16 45.944 126.024 45.352 126.024 44.688ZM131.592 44.7C131.592 44.204 131.492 43.772 131.292 43.404C131.092 43.036 130.82 42.756 130.476 42.564C130.14 42.364 129.768 42.264 129.36 42.264C128.952 42.264 128.58 42.36 128.244 42.552C127.908 42.744 127.64 43.024 127.44 43.392C127.24 43.76 127.14 44.192 127.14 44.688C127.14 45.192 127.24 45.632 127.44 46.008C127.64 46.376 127.908 46.66 128.244 46.86C128.58 47.052 128.952 47.148 129.36 47.148C129.768 47.148 130.14 47.052 130.476 46.86C130.82 46.66 131.092 46.376 131.292 46.008C131.492 45.632 131.592 45.196 131.592 44.7ZM135.633 42.492C135.825 42.116 136.097 41.824 136.449 41.616C136.809 41.408 137.245 41.304 137.757 41.304V42.432H137.469C136.245 42.432 135.633 43.096 135.633 44.424V48H134.541V41.424H135.633V42.492ZM142.69 48L140.11 45.096V48H139.018V39.12H140.11V44.34L142.642 41.424H144.166L141.07 44.7L144.178 48H142.69ZM151.194 44.46C151.194 44.668 151.182 44.888 151.158 45.12H145.902C145.942 45.768 146.162 46.276 146.562 46.644C146.97 47.004 147.462 47.184 148.038 47.184C148.51 47.184 148.902 47.076 149.214 46.86C149.534 46.636 149.758 46.34 149.886 45.972H151.062C150.886 46.604 150.534 47.12 150.006 47.52C149.478 47.912 148.822 48.108 148.038 48.108C147.414 48.108 146.854 47.968 146.358 47.688C145.87 47.408 145.486 47.012 145.206 46.5C144.926 45.98 144.786 45.38 144.786 44.7C144.786 44.02 144.922 43.424 145.194 42.912C145.466 42.4 145.846 42.008 146.334 41.736C146.83 41.456 147.398 41.316 148.038 41.316C148.662 41.316 149.214 41.452 149.694 41.724C150.174 41.996 150.542 42.372 150.798 42.852C151.062 43.324 151.194 43.86 151.194 44.46ZM150.066 44.232C150.066 43.816 149.974 43.46 149.79 43.164C149.606 42.86 149.354 42.632 149.034 42.48C148.722 42.32 148.374 42.24 147.99 42.24C147.438 42.24 146.966 42.416 146.574 42.768C146.19 43.12 145.97 43.608 145.914 44.232H150.066ZM153.967 42.324V46.2C153.967 46.52 154.035 46.748 154.171 46.884C154.307 47.012 154.543 47.076 154.879 47.076H155.683V48H154.699C154.091 48 153.635 47.86 153.331 47.58C153.027 47.3 152.875 46.84 152.875 46.2V42.324H152.023V41.424H152.875V39.768H153.967V41.424H155.683V42.324H153.967ZM163.006 44.46C163.006 44.668 162.994 44.888 162.97 45.12H157.714C157.754 45.768 157.974 46.276 158.374 46.644C158.782 47.004 159.274 47.184 159.85 47.184C160.322 47.184 160.714 47.076 161.026 46.86C161.346 46.636 161.57 46.34 161.698 45.972H162.874C162.698 46.604 162.346 47.12 161.818 47.52C161.29 47.912 160.634 48.108 159.85 48.108C159.226 48.108 158.666 47.968 158.17 47.688C157.682 47.408 157.298 47.012 157.018 46.5C156.738 45.98 156.598 45.38 156.598 44.7C156.598 44.02 156.734 43.424 157.006 42.912C157.278 42.4 157.658 42.008 158.146 41.736C158.642 41.456 159.21 41.316 159.85 41.316C160.474 41.316 161.026 41.452 161.506 41.724C161.986 41.996 162.354 42.372 162.61 42.852C162.874 43.324 163.006 43.86 163.006 44.46ZM161.878 44.232C161.878 43.816 161.786 43.46 161.602 43.164C161.418 42.86 161.166 42.632 160.846 42.48C160.534 42.32 160.186 42.24 159.802 42.24C159.25 42.24 158.778 42.416 158.386 42.768C158.002 43.12 157.782 43.608 157.726 44.232H161.878ZM165.539 42.492C165.731 42.116 166.003 41.824 166.355 41.616C166.715 41.408 167.151 41.304 167.663 41.304V42.432H167.375C166.151 42.432 165.539 43.096 165.539 44.424V48H164.447V41.424H165.539V42.492Z" fill="#9CFE4F"/>
</svg>
