<svg width="65" height="75" viewBox="0 0 65 75" fill="none" xmlns="http://www.w3.org/2000/svg">
<path fill-rule="evenodd" clip-rule="evenodd" d="M35.612 48.6866C35.4173 48.6866 35.2235 48.622 35.0653 48.4958L22.2329 38.2962H0.879049C0.393814 38.2962 0 37.902 0 37.4172V0.879049C0 0.393814 0.393814 0 0.879049 0H44.7906C45.2759 0 45.6697 0.393814 45.6697 0.879049V37.4167C45.6697 37.902 45.2754 38.2958 44.7906 38.2958H36.4911V47.8075C36.4911 48.2963 36.0933 48.6866 35.612 48.6866ZM1.75766 36.5377H22.5388C22.737 36.5377 22.93 36.6045 23.0856 36.7284L34.733 45.9857V37.4163C34.733 36.931 35.1272 36.5372 35.612 36.5372L43.9116 36.5377V1.75766H1.75766V36.5377Z" fill="#1D1C1A"/>
<path fill-rule="evenodd" clip-rule="evenodd" d="M28.9966 75.0001C28.5157 75.0001 28.1175 74.6093 28.1175 74.1206V64.6079H19.8175C19.3323 64.6079 18.9385 64.2137 18.9385 63.7289V37.4159C18.9385 36.2586 20.6966 36.2586 20.6966 37.4159V62.8498H28.9966C29.4818 62.8498 29.8756 63.2441 29.8756 63.7289V72.2987L41.5226 63.041C41.6782 62.9171 41.8711 62.8498 42.0693 62.8498H62.8505V28.0707H44.7904C43.6332 28.0707 43.634 26.3126 44.7904 26.3126H63.7291C64.2143 26.3126 64.6081 26.7064 64.6081 27.1917V63.7293C64.6081 64.2146 64.2139 64.6084 63.7291 64.6084H42.3761L29.5433 74.8084C29.3847 74.935 29.1913 74.9996 28.9966 74.9996V75.0001Z" fill="#1D1C1A"/>
<path fill-rule="evenodd" clip-rule="evenodd" d="M34.7096 12.3361H8.89236C7.7351 12.3361 7.7351 10.578 8.89236 10.578H34.7096C35.8669 10.578 35.8669 12.3361 34.7096 12.3361Z" fill="#1D1C1A"/>
<path fill-rule="evenodd" clip-rule="evenodd" d="M34.7096 20.0265H8.89236C7.7351 20.0265 7.7351 18.2688 8.89236 18.2688H34.7096C35.8669 18.2688 35.8669 20.0265 34.7096 20.0265Z" fill="#1D1C1A"/>
<path fill-rule="evenodd" clip-rule="evenodd" d="M34.7096 27.7173H8.89236C7.7351 27.7173 7.7351 25.9592 8.89236 25.9592H34.7096C35.8669 25.9592 35.8669 27.7173 34.7096 27.7173Z" fill="#1D1C1A"/>
<path fill-rule="evenodd" clip-rule="evenodd" d="M54.6824 43.3617H40.858C39.7008 43.3617 39.7012 41.604 40.858 41.604H54.6824C55.8392 41.604 55.8397 43.3617 54.6824 43.3617Z" fill="#1D1C1A"/>
<path fill-rule="evenodd" clip-rule="evenodd" d="M54.6818 51.9688H28.8637C27.7069 51.9688 27.7069 50.2112 28.8637 50.2112H54.6818C55.8386 50.2112 55.8391 51.9688 54.6818 51.9688Z" fill="#1D1C1A"/>
<path fill-rule="evenodd" clip-rule="evenodd" d="M45.6692 28.0712V37.4163C45.6692 37.9016 45.2749 38.2954 44.7901 38.2954H36.4906V47.8071C36.4906 48.2959 36.0928 48.6862 35.6116 48.6862C35.4168 48.6862 35.223 48.6216 35.0648 48.4954L22.2324 38.2958H20.6963V62.8507H28.9963C29.4815 62.8507 29.8753 63.245 29.8753 63.7298V72.2996L41.5223 63.0419C41.6779 62.918 41.8708 62.8507 42.069 62.8507H62.8502V28.0716H45.6692V28.0712ZM40.8577 41.6041H54.6821C55.8389 41.6041 55.8393 43.3618 54.6821 43.3618H40.8577C39.7004 43.3618 39.7009 41.6041 40.8577 41.6041ZM28.8644 50.2113H54.6825C55.8393 50.2113 55.8398 51.969 54.6825 51.969H28.8644C27.7076 51.969 27.7076 50.2113 28.8644 50.2113Z" fill="#F2F2F2"/>
</svg>
