<svg width="69" height="64" viewBox="0 0 69 64" fill="none" xmlns="http://www.w3.org/2000/svg">
<path d="M1.96777 46.8651L5.36998 43.4629L17.1192 55.2121L13.717 58.6143L1.96777 46.8651Z" fill="#1D1C1A"/>
<path d="M51.4707 8.26955L63.3239 20.1263L66.7591 16.6911L54.9022 4.83789L51.4707 8.26955Z" fill="#1D1C1A"/>
<path d="M13.1482 60.3576C13.3018 60.5111 13.5098 60.5973 13.7268 60.5973C13.9435 60.5936 14.1522 60.511 14.3057 60.3573L18.8639 55.7953C19.1832 55.4758 19.1832 54.9577 18.8636 54.6382L18.1733 53.9477L18.4789 53.5968C19.1956 52.7782 20.1094 52.3631 21.1948 52.3631H36.9781C39.906 52.3631 42.5103 50.9953 44.3114 48.5117L52.4718 37.2596C53.5506 35.7727 52.9806 34.0629 51.8599 33.1425C50.7542 32.2345 48.9902 32.0106 47.7574 33.3403L41.7246 39.8563C41.3574 38.0744 39.7764 36.7306 37.8873 36.7306H27.4736L26.3245 36.0664C24.9739 35.2868 23.6168 34.9236 22.0536 34.9236H17.685C15.3783 34.9236 13.3489 35.7635 11.6539 37.4197L6.587 42.3616L5.95512 41.7297C5.80155 41.5761 5.59352 41.49 5.37648 41.49H5.37634C5.1593 41.49 4.95113 41.5763 4.79757 41.73L0.239428 46.2919C-0.0798548 46.6115 -0.0798548 47.1295 0.239701 47.4491L13.1479 60.3574L13.1482 60.3576ZM12.7975 38.591C14.196 37.2246 15.7949 36.5604 17.6853 36.5604H22.0539C23.3352 36.5604 24.4001 36.8453 25.506 37.4837L26.8449 38.2576C26.9694 38.3295 27.1106 38.3675 27.2544 38.3675H37.8875C39.1452 38.3675 40.1685 39.3908 40.1685 40.6484C40.1685 41.2074 39.9608 41.7474 39.5835 42.1692C39.1478 42.6548 38.5297 42.9334 37.8875 42.9334H28.8214C28.3695 42.9334 28.0031 43.2998 28.0031 43.7517C28.0031 44.2037 28.3695 44.5701 28.8214 44.5701H37.8875C38.9892 44.5701 40.0467 44.0972 40.7917 43.2729C40.7924 43.272 40.7934 43.2715 40.7942 43.2707L48.9582 34.4527C49.5703 33.7925 50.3444 34.0156 50.8212 34.4073C51.3121 34.8104 51.6919 35.5477 51.1471 36.2985L42.9865 47.5508C41.4799 49.6282 39.4023 50.7262 36.9781 50.7262H21.1948C19.6391 50.7262 18.2741 51.346 17.246 52.5202L17.0132 52.7876L7.74469 43.5191L12.7975 38.591ZM5.37703 43.466L17.128 55.217L13.7267 58.6211L1.97576 46.8702L5.37703 43.466Z" fill="#1D1C1A"/>
<path d="M4.14487 39.5053C4.20466 39.5053 4.26554 39.4988 4.32642 39.485C4.76719 39.3852 5.04361 38.9469 4.94369 38.506C3.26128 31.0798 4.43467 23.352 8.24777 16.7463C12.2802 9.76193 18.7913 4.76603 26.5817 2.67875C33.3904 0.854643 40.4637 1.44338 46.8036 4.3142L45.1175 4.31679C44.6655 4.31747 44.2997 4.6844 44.3004 5.13636C44.3011 5.58792 44.6673 5.95347 45.1187 5.95347H45.1199L50.1501 5.94569C50.1549 5.94569 50.1595 5.94474 50.1644 5.9446C50.1928 5.94406 50.2211 5.94201 50.2491 5.93846C50.2575 5.93737 50.266 5.93668 50.2743 5.93532C50.3068 5.93027 50.3389 5.92344 50.3706 5.91457C50.3779 5.91252 50.3849 5.90979 50.3921 5.90761C50.4177 5.89969 50.4428 5.89041 50.4675 5.88004C50.4759 5.87649 50.4844 5.87294 50.4927 5.86912C50.5536 5.841 50.6112 5.80509 50.6641 5.76223C50.6701 5.75745 50.6758 5.7524 50.6817 5.74735C50.704 5.72811 50.7256 5.70763 50.746 5.68579C50.7495 5.6821 50.7532 5.67869 50.7566 5.67487C50.7793 5.64962 50.8004 5.62286 50.8202 5.59433C50.8249 5.58764 50.8289 5.58068 50.8333 5.57386C50.8421 5.56048 50.8512 5.54751 50.8591 5.53345C50.8648 5.52349 50.8692 5.51325 50.8745 5.50315C50.8771 5.49823 50.8804 5.49387 50.8829 5.48881C50.8846 5.48513 50.8857 5.48131 50.8874 5.47762C50.9178 5.41374 50.9391 5.34767 50.9519 5.28065C50.9533 5.27341 50.9544 5.26631 50.9556 5.25908C50.9605 5.22918 50.9638 5.19915 50.9653 5.16926C50.9656 5.16462 50.9661 5.16011 50.9663 5.15547C50.9674 5.12148 50.9663 5.08749 50.9633 5.05378C50.9626 5.04668 50.9615 5.03985 50.9607 5.03276C50.9575 5.00545 50.9529 4.97843 50.947 4.95167C50.9452 4.94348 50.9436 4.93543 50.9416 4.92724C50.9334 4.89502 50.9237 4.86308 50.9117 4.83209C50.9099 4.82745 50.9076 4.82295 50.9058 4.81831C50.8945 4.79073 50.8816 4.76384 50.8674 4.7375C50.8638 4.73067 50.8601 4.72385 50.8561 4.71702C50.8381 4.6859 50.8186 4.65559 50.7963 4.62693L47.7375 0.6361C47.4626 0.277368 46.9488 0.209525 46.5902 0.484444C46.2315 0.759363 46.1637 1.27303 46.4386 1.63176L47.2864 2.73799C40.6533 -0.214593 33.2689 -0.807702 26.158 1.09748C17.9453 3.29793 11.0812 8.56479 6.83017 15.9278C2.81054 22.8913 1.57354 31.0381 3.34728 38.8674C3.43341 39.2473 3.77085 39.5052 4.14473 39.5052L4.14487 39.5053Z" fill="#1D1C1A"/>
<path d="M42.2132 61.0145C35.5167 62.8086 28.5657 62.2672 22.3097 59.5202L23.9226 59.5177C24.3746 59.5171 24.7404 59.1501 24.7397 58.6982C24.7391 58.2466 24.3728 57.8811 23.9214 57.8811H23.9202L18.89 57.8888C18.8862 57.8888 18.8825 57.8897 18.8787 57.8897C18.848 57.8902 18.8174 57.8924 18.7871 57.8962C18.7809 57.897 18.7749 57.8974 18.7688 57.8984C18.7351 57.9035 18.7019 57.9107 18.6691 57.9198C18.663 57.9216 18.657 57.9238 18.651 57.9257C18.6237 57.9342 18.5968 57.944 18.5705 57.9552C18.5636 57.9581 18.5567 57.9609 18.5498 57.9641C18.5186 57.9784 18.488 57.9942 18.4587 58.0125C18.4584 58.0128 18.458 58.0129 18.4577 58.0132C18.4293 58.0309 18.4021 58.051 18.3759 58.0723C18.3703 58.0768 18.365 58.0813 18.3596 58.086C18.3359 58.1062 18.3131 58.1277 18.2917 58.1509C18.2894 58.1534 18.2868 58.1557 18.2845 58.1583C18.2617 58.1836 18.2405 58.2106 18.2206 58.2391C18.2157 58.2462 18.2112 58.2537 18.2065 58.261C18.1985 58.2734 18.19 58.2853 18.1825 58.2981C18.1764 58.3087 18.1715 58.3198 18.1659 58.3307C18.1633 58.3358 18.1597 58.3404 18.1573 58.3456C18.1556 58.3489 18.1547 58.3524 18.153 58.3558C18.1379 58.3876 18.1244 58.4198 18.1136 58.4525V58.4526C18.1027 58.4856 18.0947 58.5191 18.0883 58.5528C18.087 58.5602 18.0857 58.5674 18.0845 58.5748C18.0794 58.6054 18.076 58.6361 18.0745 58.6666C18.0744 58.6703 18.0739 58.6739 18.0737 58.6776C18.0725 58.7116 18.0737 58.7454 18.0767 58.779C18.0774 58.7866 18.0785 58.7943 18.0794 58.8019C18.0826 58.8288 18.0871 58.8554 18.0928 58.8819C18.0946 58.89 18.0961 58.898 18.098 58.9059C18.1061 58.938 18.1158 58.9697 18.1276 59.0005C18.1298 59.0063 18.1325 59.0119 18.135 59.0176C18.1459 59.0442 18.1583 59.0702 18.172 59.0957C18.1758 59.1026 18.1795 59.1096 18.1835 59.1166C18.2009 59.1469 18.22 59.1765 18.2415 59.2046L21.2983 63.1978C21.4596 63.4082 21.7027 63.5188 21.9488 63.5188C22.1223 63.5188 22.2973 63.4638 22.4457 63.3502C22.8045 63.0755 22.8728 62.5618 22.5981 62.2029L21.7145 61.0485C25.7299 62.802 30.0152 63.6941 34.3459 63.6938C37.1107 63.6938 39.8948 63.3302 42.6371 62.5955C50.8513 60.3948 57.716 55.1274 61.9664 47.7634C65.9843 40.8029 67.2198 32.6561 65.4454 24.8238C65.3454 24.383 64.9074 24.1064 64.4664 24.2065C64.0256 24.3064 63.7492 24.7446 63.8491 25.1855C65.5323 32.6147 64.3602 40.3425 60.5488 46.9452C56.5169 53.9304 50.0053 58.927 42.2135 61.0145H42.2132Z" fill="#1D1C1A"/>
<path d="M55.6498 3.33752C55.3301 3.01796 54.8121 3.0181 54.4926 3.33752L49.9344 7.89566C49.6149 8.21521 49.6149 8.73338 49.9344 9.05294L50.6227 9.74146L50.3131 10.0969C49.6016 10.9164 48.6899 11.3319 47.6033 11.3319H31.8162C28.8866 11.3319 26.2822 12.6983 24.4827 15.1795L16.3262 26.4315C15.2464 27.9198 15.8177 29.6309 16.9403 30.5518C17.4959 31.0075 18.2173 31.2905 18.954 31.2905C19.6836 31.2905 20.4281 31.0129 21.0408 30.3508L27.0734 23.8347C27.4406 25.6166 29.0217 26.9605 30.9108 26.9605H41.3244L42.4735 27.6248C43.8241 28.4044 45.1811 28.7675 46.7443 28.7675H51.109C53.4211 28.7675 55.4518 27.9288 57.1444 26.275L62.2075 21.33L62.8388 21.9616C62.9922 22.1151 63.2004 22.2013 63.4175 22.2013C63.6345 22.2013 63.8427 22.1151 63.9961 21.9616L68.5581 17.3995C68.7116 17.2459 68.7978 17.0379 68.7978 16.8207C68.7978 16.6037 68.7115 16.3955 68.5581 16.2421L55.6497 3.33765L55.6498 3.33752ZM56.0007 25.104C54.6049 26.4678 53.0049 27.1307 51.109 27.1307H46.7443C45.463 27.1307 44.3981 26.846 43.2923 26.2074L41.9534 25.4335C41.829 25.3616 41.6877 25.3237 41.5439 25.3237H30.9108C29.6531 25.3237 28.6298 24.3004 28.6298 23.0427C28.6298 22.4804 28.8355 21.9426 29.2089 21.5279C29.2092 21.5276 29.2093 21.5272 29.2096 21.5269C29.2103 21.5261 29.2112 21.5254 29.2119 21.5246C29.6439 21.0398 30.2631 20.7616 30.9108 20.7616H39.9769C40.4288 20.7616 40.7952 20.3952 40.7952 19.9432C40.7952 19.4913 40.4288 19.1249 39.9769 19.1249H30.9108C29.8027 19.1249 28.7438 19.5979 28.0021 20.4226C28.0015 20.4232 28.0008 20.4236 28.0003 20.4243L19.8395 29.239C19.2284 29.8994 18.4551 29.6773 17.9786 29.2864C17.4866 28.8827 17.1056 28.1446 17.6514 27.3924L25.808 16.1404C27.3128 14.0655 29.3904 12.9687 31.8164 12.9687H47.6035C49.1632 12.9687 50.5275 12.3468 51.5483 11.1709L51.7827 10.9017L61.0503 20.1721L56.0008 25.1039L56.0007 25.104ZM63.4176 20.2252L51.6703 8.47443L55.0713 5.07344L66.8221 16.8207L63.4176 20.2252Z" fill="#1D1C1A"/>
</svg>
