<svg width="71" height="71" viewBox="0 0 71 71" fill="none" xmlns="http://www.w3.org/2000/svg">
<path d="M4.16016 62.6797H21.1748C27.676 62.6797 31.2956 66.3477 32.1973 66.8398H38.8027C39.704 66.3478 43.3245 62.6797 49.8252 62.6797H66.8398V20.8008H71V66.8398H49.8428C44.0293 66.8399 40.9719 70.7816 40.6602 71H30.3398C30.0237 70.7786 27.0099 66.8399 21.1572 66.8398H0V16.6406H4.16016V62.6797ZM62.6797 58.5195C49.3883 58.5195 44.9627 57.6451 38.54 61.9287C38.1772 62.1669 37.8586 62.3908 37.5801 62.5928V18.7207C37.5801 17.748 37.5302 16.7875 37.4336 15.8428C41.1745 13.6355 45.419 12.4805 49.8252 12.4805H62.6797V58.5195ZM16.6367 0C27.0359 0 33.416 8.39811 33.416 18.7207V60.5996C33.416 52.5709 26.822 46.0391 18.7168 46.0391H16.6367V0ZM12.4805 50.1992H18.7207C24.3896 50.1993 29.0267 54.6384 29.25 60.1797C26.7234 59.087 23.9898 58.5195 21.1748 58.5195H8.32031V8.32031H12.4805V50.1992Z" fill="white"/>
</svg>
