<svg width="71" height="71" viewBox="0 0 71 71" fill="none" xmlns="http://www.w3.org/2000/svg">
<path d="M71 20.8005V66.8396H49.8428C44.029 66.8396 40.9714 70.7818 40.66 70.9998H30.34C30.0241 70.7787 27.0102 66.8396 21.1572 66.8396H0V16.6404H4.16016V62.6794H21.1752C27.6764 62.6794 31.2952 66.3475 32.1968 66.8396H38.8032C39.7044 66.3476 43.3241 62.6794 49.8248 62.6794H66.8398V20.8005H71Z" fill="#1C5540"/>
<path d="M29.2501 60.1794C26.7235 59.0867 23.9902 58.5195 21.1752 58.5195H8.32031V8.32031H12.4805V50.1992H18.7207C24.3896 50.1992 29.0268 54.6381 29.2501 60.1794Z" fill="#1C5540"/>
<path d="M49.8245 12.4807C45.4183 12.4807 41.1745 13.635 37.4336 15.8423C37.5302 16.7872 37.5798 17.748 37.5798 18.7209V62.5927C37.8583 62.3907 38.1769 62.1667 38.5398 61.9285C44.9625 57.6449 49.3879 58.5198 62.6794 58.5198V12.4807H49.8245Z" fill="#1C5540"/>
<path d="M33.416 60.5996C33.416 52.5709 26.822 46.0391 18.7168 46.0391H16.6367V0C27.0359 0 33.416 8.39811 33.416 18.7207V60.5996Z" fill="#1C5540"/>
</svg>
