<svg width="79" height="60" viewBox="0 0 79 60" fill="none" xmlns="http://www.w3.org/2000/svg">
<path fill-rule="evenodd" clip-rule="evenodd" d="M14.1133 4.92773V34.7416H63.7237V4.92773H14.1133Z" fill="#1C5540"/>
<path fill-rule="evenodd" clip-rule="evenodd" d="M64.6647 36.6247H13.1714C12.6514 36.6247 12.2299 36.2033 12.2299 35.6833V3.98598C12.2299 3.4659 12.6514 3.04469 13.1714 3.04469L64.6647 3.04463C65.1847 3.04463 65.6062 3.46606 65.6062 3.98603L65.6063 35.6832C65.6063 36.2033 65.1847 36.6249 64.6647 36.6247ZM9.18365 0.830018L9.18381 39.6712H68.6525V0.829912C68.6525 0.372396 68.2803 0.000159231 67.8227 0.000159231L10.0136 0C9.55599 0 9.18365 0.372502 9.18365 0.830018Z" fill="#1C5540"/>
<path fill-rule="evenodd" clip-rule="evenodd" d="M69.0848 41.5544H8.77127L0.738281 54.7171L77.6723 54.7171L69.0848 41.5544ZM36.9218 45.5346C36.9218 46.0546 36.5002 46.4762 35.9803 46.4761H34.4853C33.9654 46.4761 33.5438 46.0547 33.5438 45.5346C33.5438 45.0146 33.9654 44.5931 34.4853 44.5931L35.9803 44.5929C36.5002 44.5929 36.9218 45.0147 36.9218 45.5346ZM29.55 45.5346C29.55 46.0546 29.1286 46.4762 28.6084 46.4761H27.1137C26.5938 46.4761 26.1722 46.0547 26.1722 45.5346C26.1722 45.0146 26.5938 44.5931 27.1137 44.5931L28.6084 44.5929C29.1286 44.5929 29.55 45.0147 29.55 45.5346ZM22.1784 45.5346C22.1784 46.0546 21.7568 46.4762 21.2368 46.4761H19.7419C19.222 46.4761 18.8004 46.0547 18.8004 45.5346C18.8004 45.0146 19.222 44.5931 19.7419 44.5931L21.2368 44.5929C21.7568 44.5929 22.1784 45.0147 22.1784 45.5346ZM14.8068 45.5346C14.8068 46.0546 14.3853 46.4762 13.8653 46.4761H12.3704C11.8505 46.4761 11.4289 46.0547 11.4289 45.5346C11.4289 45.0146 11.8505 44.5931 12.3704 44.5931L13.8653 44.5929C14.3853 44.5929 14.8068 45.0147 14.8068 45.5346ZM10.1786 49.7972C10.6986 49.7972 11.1201 50.2189 11.1201 50.7389C11.1201 51.2587 10.6986 51.6803 10.1786 51.6802H8.68361C8.16364 51.6802 7.74211 51.2588 7.74211 50.7389C7.74211 50.2187 8.16364 49.7973 8.68361 49.7973L10.1786 49.7972ZM41.8571 46.4761C41.3371 46.4761 40.9156 46.0547 40.9156 45.5346C40.9156 45.0146 41.3371 44.5931 41.8571 44.5931L43.3518 44.5929C43.8718 44.5929 44.2934 45.0147 44.2934 45.5346C44.2934 46.0546 43.8718 46.4762 43.3518 46.4761H41.8571ZM59.3457 50.7389C59.3457 50.2187 59.7671 49.7973 60.2871 49.7973L61.782 49.7972C62.302 49.7972 62.7235 50.2189 62.7235 50.7389C62.7236 51.2587 62.302 51.6803 61.782 51.6802H60.2871C59.7671 51.6802 59.3457 51.2588 59.3457 50.7389ZM67.6588 51.6802C67.1387 51.6802 66.7172 51.2588 66.7172 50.7389C66.7172 50.2187 67.1387 49.7973 67.6588 49.7973L69.1536 49.7972C69.6737 49.7972 70.0951 50.2189 70.0951 50.7389C70.0952 51.2587 69.6736 51.6803 69.1536 51.6802H67.6588ZM30.8005 49.7973L47.0388 49.7972C47.5588 49.7972 47.9802 50.2189 47.9802 50.7389C47.9802 51.2587 47.5588 51.6803 47.0388 51.6802H30.8005C30.2804 51.6802 29.859 51.2588 29.859 50.7389C29.859 50.2187 30.2804 49.7973 30.8005 49.7973ZM25.8634 50.7389C25.8634 51.2587 25.4418 51.6803 24.9218 51.6802H23.427C22.907 51.6802 22.4854 51.2588 22.4854 50.7389C22.4854 50.2187 22.907 49.7973 23.427 49.7973L24.9218 49.7972C25.4418 49.7972 25.8634 50.2189 25.8634 50.7389ZM18.4918 50.7389C18.4918 51.2587 18.0702 51.6803 17.5503 51.6802H16.0553C15.5352 51.6802 15.1138 51.2588 15.1138 50.7389C15.1138 50.2187 15.5352 49.7973 16.0553 49.7973L17.5503 49.7972C18.0702 49.7972 18.4918 50.2189 18.4918 50.7389ZM52.9155 51.6802C52.3955 51.6802 51.974 51.2588 51.974 50.7389C51.974 50.2187 52.3955 49.7973 52.9155 49.7973L54.4104 49.7972C54.9304 49.7972 55.3518 50.2189 55.3518 50.7389C55.3518 51.2587 54.9304 51.6803 54.4104 51.6802H52.9155ZM49.2305 46.4761C48.7105 46.4761 48.289 46.0547 48.289 45.5346C48.289 45.0146 48.7105 44.5931 49.2305 44.5931L50.7236 44.5929C51.2436 44.5929 51.6651 45.0147 51.6651 45.5346C51.6652 46.0546 51.2436 46.4762 50.7236 46.4761H49.2305ZM56.6022 46.4761C56.0821 46.4761 55.6607 46.0547 55.6607 45.5346C55.6607 45.0146 56.0821 44.5931 56.6021 44.5931L58.097 44.5929C58.6172 44.5929 59.0386 45.0147 59.0386 45.5346C59.0386 46.0546 58.6172 46.4762 58.097 46.4761H56.6022ZM63.9739 46.4761C63.4539 46.4761 63.0323 46.0547 63.0323 45.5346C63.0323 45.0146 63.4539 44.5931 63.9739 44.5931L65.4688 44.5929C65.9888 44.5929 66.4103 45.0147 66.4103 45.5346C66.4103 46.0546 65.9888 46.4762 65.4688 46.4761H63.9739Z" fill="#1C5540"/>
<path fill-rule="evenodd" clip-rule="evenodd" d="M78.4673 56.6006H0V59.2241C0 59.4203 0.159409 59.5806 0.355277 59.5806L78.112 59.5805C78.3078 59.5805 78.4672 59.4204 78.4672 59.2243L78.4673 56.6006Z" fill="#1C5540"/>
</svg>
