<svg width="70" height="70" viewBox="0 0 70 70" fill="none" xmlns="http://www.w3.org/2000/svg">
<path d="M64.6107 11.0056H58.9946V4.15542C58.9936 3.05367 58.5554 1.99734 57.7763 1.21828C56.9973 0.439225 55.941 0.00107681 54.8392 0H46.9817C45.8799 0.00107681 44.8236 0.439225 44.0445 1.21828C43.2655 1.99734 42.8273 3.05367 42.8263 4.15542C42.8225 5.57041 42.829 9.68397 42.8263 11.0056H37.2101C35.8244 11.0064 34.4957 11.5573 33.5159 12.5371C32.5361 13.5169 31.9852 14.8456 31.9844 16.2313V33.3819C36.3145 32.9208 40.2947 35.5423 40.3708 40.207C40.3104 41.0603 40.4999 60.9353 40.27 61.1728C40.1346 62.0691 39.8129 62.927 39.3255 63.6913C39.3255 63.6913 59.9264 63.7179 64.6107 63.6912C65.9964 63.6904 67.3251 63.1396 68.3049 62.1598C69.2847 61.1799 69.8356 59.8513 69.8364 58.4656V16.2313C69.8356 14.8456 69.2848 13.517 68.3049 12.5371C67.3251 11.5573 65.9964 11.0064 64.6107 11.0056ZM58.9946 20.9408V53.7561C58.9897 54.0868 58.8549 54.4023 58.6193 54.6345C58.3836 54.8666 58.0661 54.9967 57.7354 54.9967C57.4046 54.9967 57.0871 54.8666 56.8515 54.6344C56.6159 54.4023 56.4811 54.0867 56.4762 53.756V20.9408C56.4811 20.6101 56.6159 20.2946 56.8515 20.0624C57.0872 19.8303 57.4046 19.7001 57.7354 19.7001C58.0662 19.7001 58.3837 19.8303 58.6193 20.0624C58.8549 20.2946 58.9897 20.6101 58.9946 20.9408ZM52.1697 20.9408V53.7561C52.1645 54.0867 52.0296 54.402 51.794 54.6339C51.5584 54.8659 51.241 54.9959 50.9104 54.9959C50.5798 54.9959 50.2624 54.8659 50.0268 54.6339C49.7912 54.4019 49.6563 54.0866 49.6512 53.756V20.9408C49.6563 20.6102 49.7913 20.2949 50.0269 20.0629C50.2624 19.831 50.5798 19.701 50.9104 19.701C51.2411 19.701 51.5584 19.831 51.794 20.0629C52.0296 20.2949 52.1645 20.6102 52.1697 20.9408ZM45.3447 20.9408V53.7561C45.3396 54.0867 45.2046 54.402 44.969 54.6339C44.7334 54.8659 44.4161 54.9959 44.0854 54.9959C43.7548 54.9959 43.4375 54.8659 43.2019 54.6339C42.9663 54.4019 42.8314 54.0866 42.8263 53.756V20.9408C42.8314 20.6102 42.9663 20.2949 43.2019 20.0629C43.4375 19.831 43.7548 19.701 44.0855 19.701C44.4161 19.701 44.7335 19.831 44.9691 20.0629C45.2046 20.2949 45.3396 20.6102 45.3447 20.9408ZM45.3447 9.11675V4.15542C45.3443 3.94033 45.3863 3.72726 45.4684 3.52846C45.5505 3.32965 45.6711 3.14902 45.8232 2.99692C45.9753 2.84482 46.1559 2.72426 46.3547 2.64215C46.5535 2.56004 46.7666 2.518 46.9817 2.51844H54.8392C55.273 2.51969 55.6886 2.69256 55.9953 2.99928C56.3021 3.306 56.4749 3.72165 56.4762 4.15542C56.4758 5.49083 56.4764 9.74094 56.4762 11.0056H45.3447V9.11675Z" fill="#1C5540"/>
<path d="M37.5625 65.5802C37.575 66.4923 37.9471 67.3625 38.598 68.0016C39.2489 68.6407 40.1258 68.9969 41.0379 68.9927H42.4106C43.326 68.992 44.2054 68.6357 44.8632 67.999C45.521 67.3624 45.9058 66.4951 45.9364 65.5802C44.5159 65.5794 37.5625 65.5802 37.5625 65.5802Z" fill="#1C5540"/>
<path d="M55.8828 65.5803C55.9134 66.4952 56.2982 67.3625 56.956 67.9992C57.6138 68.6358 58.4932 68.9921 59.4086 68.9928H60.7812C61.696 68.9899 62.5741 68.633 63.2315 67.9968C63.8888 67.3605 64.2743 66.4945 64.307 65.5803C62.8858 65.5792 55.8828 65.5803 55.8828 65.5803Z" fill="#1C5540"/>
<path d="M37.8521 60.0775V40.207C37.8469 39.0664 37.3915 37.9741 36.585 37.1676C35.7785 36.3611 34.6861 35.9057 33.5456 35.9005C33.5456 35.9005 29.8756 35.9055 29.3776 35.9005V33.382C29.4621 32.8425 29.4302 32.2911 29.2841 31.765C29.1379 31.2388 28.8809 30.75 28.5302 30.3313C28.1796 29.9127 27.7434 29.5739 27.251 29.3378C26.7586 29.1016 26.2214 28.9735 25.6754 28.9622H12.1893C11.2059 28.9611 10.2624 29.3504 9.56588 30.0446C8.86937 30.7387 8.47685 31.6809 8.47455 32.6643C8.49721 33.093 8.45818 35.4137 8.47455 35.9005H4.30653C3.16552 35.9042 2.07232 36.3591 1.2655 37.166C0.458683 37.9728 0.00375474 39.066 0 40.207V60.0775C0.00163221 61.2191 0.455879 62.3136 1.26316 63.1208C2.07043 63.9281 3.16487 64.3824 4.30653 64.384C9.42923 64.3952 33.533 64.384 33.533 64.384C34.0994 64.3851 34.6605 64.2745 35.1842 64.0586C35.7079 63.8427 36.1839 63.5257 36.585 63.1258C36.9861 62.7258 37.3045 62.2508 37.5219 61.7277C37.7393 61.2047 37.8515 60.6439 37.8521 60.0775ZM28.685 59.8886C28.3514 59.8875 28.0317 59.7545 27.7958 59.5186C27.5599 59.2827 27.4269 58.963 27.4258 58.6294V41.6551C27.4258 41.3211 27.5585 41.0008 27.7946 40.7647C28.0308 40.5285 28.351 40.3959 28.685 40.3959C29.019 40.3959 29.3393 40.5285 29.5754 40.7647C29.8116 41.0008 29.9442 41.3211 29.9442 41.6551V58.6294C29.9432 58.963 29.8102 59.2827 29.5743 59.5186C29.3383 59.7545 29.0187 59.8875 28.685 59.8886ZM18.9261 59.8886C18.5924 59.8875 18.2728 59.7545 18.0368 59.5186C17.8009 59.2827 17.6679 58.963 17.6668 58.6294V41.6551C17.6668 41.3211 17.7995 41.0008 18.0357 40.7647C18.2718 40.5285 18.5921 40.3959 18.9261 40.3959C19.26 40.3959 19.5803 40.5285 19.8165 40.7647C20.0526 41.0008 20.1853 41.3211 20.1853 41.6551V58.6294C20.1864 58.795 20.1546 58.9593 20.0917 59.1126C20.0288 59.2659 19.9361 59.4051 19.819 59.5223C19.7018 59.6394 19.5626 59.7321 19.4093 59.795C19.256 59.8579 19.0917 59.8897 18.9261 59.8886ZM9.17971 59.8886C9.01403 59.8897 8.84978 59.8579 8.69649 59.795C8.54321 59.7321 8.40394 59.6394 8.28679 59.5223C8.16964 59.4051 8.07693 59.2659 8.01404 59.1126C7.95116 58.9593 7.91936 58.795 7.92049 58.6294V41.6551C7.92049 41.3211 8.05316 41.0008 8.2893 40.7647C8.52545 40.5285 8.84574 40.3959 9.17971 40.3959C9.51367 40.3959 9.83396 40.5285 10.0701 40.7647C10.3063 41.0008 10.4389 41.3211 10.4389 41.6551V58.6294C10.4379 58.963 10.3049 59.2827 10.069 59.5186C9.83303 59.7545 9.51335 59.8875 9.17971 59.8886ZM10.993 32.6643C10.9955 32.3489 11.1227 32.0474 11.3469 31.8256C11.571 31.6038 11.8739 31.4797 12.1892 31.4806H25.6755C26.7714 31.5233 26.9354 32.4783 26.8591 33.382L26.8592 35.9005H10.993V32.6643Z" fill="#1C5540"/>
<path d="M5.55469 66.9023C5.66149 67.7561 6.07589 68.5417 6.72029 69.1119C7.36468 69.6822 8.19486 69.9979 9.05532 70H10.4405C11.3009 69.9979 12.1311 69.6822 12.7755 69.1119C13.4199 68.5417 13.8343 67.7561 13.9411 66.9023C12.5254 66.9018 5.55469 66.9023 5.55469 66.9023Z" fill="#1C5540"/>
<path d="M23.9258 66.9023C24.0326 67.7561 24.447 68.5417 25.0914 69.112C25.7358 69.6822 26.5659 69.9979 27.4264 70H28.799C29.66 69.9999 30.4913 69.6849 31.1361 69.1143C31.7809 68.5437 32.1948 67.757 32.2996 66.9023C30.8861 66.9018 23.9258 66.9023 23.9258 66.9023Z" fill="#1C5540"/>
</svg>
