<svg width="19" height="19" viewBox="0 0 19 19" fill="none" xmlns="http://www.w3.org/2000/svg">
<path d="M14.3008 0.100403C14.5657 0.100833 14.8195 0.206036 15.0068 0.393372C15.1942 0.580709 15.2994 0.834505 15.2998 1.09943V5.2049C15.6875 5.22948 16.0547 5.39251 16.3311 5.66876C16.6113 5.94897 16.774 6.32285 16.7949 6.71661C16.9917 6.74262 17.1824 6.80359 17.3564 6.90021C17.5558 7.01096 17.7293 7.16366 17.8643 7.34747C18.0141 7.54798 18.1147 7.78146 18.1572 8.02814C18.1996 8.27452 18.1824 8.52763 18.1084 8.76642L18.1094 8.7674L15.542 17.1678C15.4429 17.4961 15.2405 17.7841 14.9648 17.9881C14.7235 18.1666 14.4373 18.2729 14.1396 18.2957L14.0117 18.2996H1.7002C1.27603 18.2991 0.869268 18.1308 0.569336 17.8309C0.269403 17.5309 0.101065 17.1242 0.100586 16.7V6.79962C0.101137 6.37555 0.269467 5.96863 0.569336 5.66876C0.869251 5.36895 1.27612 5.20049 1.7002 5.20001H1.90039V1.09943C1.90082 0.834549 2.00608 0.5807 2.19336 0.393372C2.38081 0.205922 2.6353 0.100706 2.90039 0.100403H14.3008ZM4.57031 7.51056C4.44383 7.5315 4.32341 7.58248 4.21973 7.65997C4.08142 7.76346 3.98009 7.9095 3.93066 8.07501L1.20801 17.327C1.34822 17.4375 1.52052 17.5 1.7002 17.4998H14.0127C14.184 17.5005 14.3506 17.4455 14.4883 17.3436C14.626 17.2416 14.7279 17.0985 14.7773 16.9344V16.9334L17.3438 8.534C17.3803 8.41453 17.3883 8.28797 17.3672 8.16486C17.346 8.04161 17.2961 7.92456 17.2217 7.82404C17.1473 7.72356 17.0501 7.64202 16.9385 7.58575C16.827 7.52959 16.704 7.49987 16.5791 7.49982H4.69824L4.57031 7.51056ZM2.90039 0.900208C2.84734 0.900268 2.7963 0.921286 2.75879 0.958801C2.72133 0.996307 2.70026 1.04739 2.7002 1.1004V8.70001H1.90039V5.99982H1.7002C1.4882 6.00009 1.28472 6.08434 1.13477 6.23419C0.984768 6.38419 0.900633 6.58847 0.900391 6.8006V15.5408L3.16309 7.84845L3.20508 7.72638C3.31375 7.4464 3.49937 7.20128 3.74121 7.02032C4.01734 6.81385 4.35248 6.70153 4.69727 6.70001H14.5V1.1004C14.4999 1.04735 14.4789 0.996316 14.4414 0.958801C14.4039 0.921286 14.3529 0.900268 14.2998 0.900208H2.90039ZM15.2998 6.70001H15.9932C15.9709 6.52484 15.8918 6.36038 15.7656 6.23419C15.6394 6.10801 15.475 6.02885 15.2998 6.00665V6.70001Z" fill="white" stroke="white" stroke-width="0.2"/>
<path d="M10.0996 8.84033C10.3647 8.84064 10.6192 8.94585 10.8066 9.1333C10.994 9.32063 11.0992 9.57445 11.0996 9.83936V13.3403H12.4697L12.3281 13.5054L9.87598 16.3657L9.7998 16.4546L9.72363 16.3657L7.27148 13.5054L7.12988 13.3403H8.5V9.83936C8.50043 9.5745 8.60573 9.32062 8.79297 9.1333C8.98042 8.94585 9.23491 8.84064 9.5 8.84033H10.0996ZM9.46094 9.64404C9.42246 9.65175 9.38655 9.67058 9.3584 9.69873C9.32098 9.73623 9.29987 9.78735 9.2998 9.84033V14.1401H8.87012L9.7998 15.2251L10.7305 14.1401H10.2998V9.84033C10.2997 9.7873 10.2787 9.73624 10.2412 9.69873C10.2037 9.66121 10.1527 9.6402 10.0996 9.64014H9.5L9.46094 9.64404Z" fill="white" stroke="white" stroke-width="0.2"/>
</svg>
