<svg width="18" height="18" viewBox="0 0 18 18" fill="none" xmlns="http://www.w3.org/2000/svg">
<path d="M15.1408 16.4576C14.4179 16.4576 13.8298 15.8694 13.8298 15.1465C13.8298 14.4236 14.4179 13.8354 15.1408 13.8354C15.8636 13.8354 16.4518 14.4236 16.4518 15.1465C16.4518 15.8727 15.8669 16.4576 15.1408 16.4576ZM15.1408 17.1641C16.2546 17.1641 17.1582 16.2605 17.1582 15.1465C17.1582 14.0326 16.2546 13.1289 15.1408 13.1289C14.0269 13.1289 13.1233 14.0326 13.1233 15.1465C13.1266 16.2605 14.0269 17.1641 15.1408 17.1641Z" fill="#1D1C1A"/>
<path fill-rule="evenodd" clip-rule="evenodd" d="M12.7871 15.1475L12.7871 15.1465C12.7871 13.8467 13.8413 12.7924 15.1411 12.7924C16.4409 12.7924 17.4951 13.8467 17.4951 15.1465C17.4951 16.4463 16.4409 17.5007 15.1411 17.5007C13.8404 17.5007 12.7909 16.4457 12.7871 15.1475ZM14.1667 15.1465C14.1667 15.6836 14.6042 16.1211 15.1411 16.1211C15.6813 16.1211 16.1155 15.6869 16.1155 15.1465C16.1155 14.6095 15.6781 14.172 15.1411 14.172C14.6042 14.172 14.1667 14.6095 14.1667 15.1465ZM13.1237 15.1465C13.1237 14.0326 14.0273 13.1289 15.1411 13.1289C16.255 13.1289 17.1585 14.0326 17.1585 15.1465C17.1585 16.2605 16.255 17.1641 15.1411 17.1641C14.0273 17.1641 13.127 16.2605 13.1237 15.1465ZM13.8301 15.1465C13.8301 15.8694 14.4183 16.4576 15.1411 16.4576C15.8673 16.4576 16.4521 15.8727 16.4521 15.1465C16.4521 14.4236 15.864 13.8354 15.1411 13.8354C14.4183 13.8354 13.8301 14.4236 13.8301 15.1465Z" fill="#1D1C1A"/>
<path d="M8.74722 16.4576C8.02436 16.4576 7.43622 15.8694 7.43622 15.1465C7.43622 14.4236 8.02436 13.8354 8.74722 13.8354C9.47008 13.8354 10.0582 14.4236 10.0582 15.1465C10.0582 15.8727 9.47008 16.4576 8.74722 16.4576ZM8.74722 17.1641C9.86108 17.1641 10.7646 16.2605 10.7646 15.1465C10.7646 14.0326 9.86108 13.1289 8.74722 13.1289C7.63336 13.1289 6.72979 14.0326 6.72979 15.1465C6.72979 16.2605 7.63336 17.1641 8.74722 17.1641Z" fill="#1D1C1A"/>
<path fill-rule="evenodd" clip-rule="evenodd" d="M7.77118 15.1465C7.77118 15.6836 8.20866 16.1211 8.7456 16.1211C9.2831 16.1211 9.72002 15.6863 9.72002 15.1465C9.72002 14.6095 9.28255 14.172 8.7456 14.172C8.20866 14.172 7.77118 14.6095 7.77118 15.1465ZM11.0996 15.1465C11.0996 16.4463 10.0454 17.5007 8.7456 17.5007C7.44583 17.5007 6.39159 16.4463 6.39159 15.1465C6.39159 13.8467 7.44583 12.7924 8.7456 12.7924C10.0454 12.7924 11.0996 13.8467 11.0996 15.1465ZM7.4346 15.1465C7.4346 15.8694 8.02274 16.4576 8.7456 16.4576C9.46846 16.4576 10.0566 15.8727 10.0566 15.1465C10.0566 14.4236 9.46846 13.8354 8.7456 13.8354C8.02275 13.8354 7.4346 14.4236 7.4346 15.1465ZM10.763 15.1465C10.763 16.2605 9.85946 17.1641 8.7456 17.1641C7.63174 17.1641 6.72817 16.2605 6.72817 15.1465C6.72817 14.0326 7.63175 13.1289 8.7456 13.1289C9.85946 13.1289 10.763 14.0326 10.763 15.1465Z" fill="#1D1C1A"/>
<path d="M2.35464 16.4576C1.63178 16.4576 1.04364 15.8694 1.04364 15.1465C1.04364 14.4236 1.63178 13.8354 2.35464 13.8354C3.0775 13.8354 3.66564 14.4236 3.66564 15.1465C3.66236 15.8727 3.0775 16.4576 2.35464 16.4576ZM2.35464 17.1641C3.4685 17.1641 4.37207 16.2605 4.37207 15.1465C4.37207 14.0326 3.4685 13.1289 2.35464 13.1289C1.24078 13.1289 0.337212 14.0326 0.337212 15.1465C0.337212 16.2605 1.24078 17.1641 2.35464 17.1641Z" fill="#1D1C1A"/>
<path fill-rule="evenodd" clip-rule="evenodd" d="M1.37958 15.1465C1.37958 15.6836 1.81706 16.1211 2.354 16.1211C2.88986 16.1211 3.32556 15.6878 3.32842 15.1458C3.32801 14.6091 2.89069 14.172 2.354 14.172C1.81706 14.172 1.37958 14.6095 1.37958 15.1465ZM3.665 15.1465C3.665 14.4236 3.07686 13.8354 2.354 13.8354C1.63114 13.8354 1.043 14.4236 1.043 15.1465C1.043 15.8694 1.63114 16.4576 2.354 16.4576C3.07686 16.4576 3.66171 15.8727 3.665 15.1465ZM4.70801 15.1465C4.70801 16.4463 3.65377 17.5007 2.354 17.5007C1.05423 17.5007 -7.06038e-06 16.4463 -6.94675e-06 15.1465C-6.83312e-06 13.8467 1.05423 12.7924 2.354 12.7924C3.65377 12.7924 4.70801 13.8467 4.70801 15.1465ZM4.37143 15.1465C4.37143 16.2605 3.46786 17.1641 2.354 17.1641C1.24014 17.1641 0.336572 16.2605 0.336572 15.1465C0.336572 14.0326 1.24014 13.1289 2.354 13.1289C3.46786 13.1289 4.37143 14.0326 4.37143 15.1465Z" fill="#1D1C1A"/>
<path d="M15.1408 10.0631C14.4179 10.0631 13.8298 9.47492 13.8298 8.752C13.8298 8.02908 14.4179 7.44089 15.1408 7.44089C15.8636 7.44089 16.4518 8.02908 16.4518 8.752C16.4518 9.47492 15.8669 10.0631 15.1408 10.0631ZM15.1408 10.7696C16.2546 10.7696 17.1582 9.86595 17.1582 8.752C17.1582 7.63805 16.2546 6.7344 15.1408 6.7344C14.0269 6.7344 13.1233 7.63805 13.1233 8.752C13.1266 9.86595 14.0269 10.7696 15.1408 10.7696Z" fill="#1D1C1A"/>
<path fill-rule="evenodd" clip-rule="evenodd" d="M12.7871 8.75299L12.7871 8.752C12.7871 7.45219 13.8413 6.39783 15.1411 6.39783C16.4409 6.39783 17.4951 7.45219 17.4951 8.752C17.4951 10.0518 16.4409 11.1062 15.1411 11.1062C13.8404 11.1062 12.7909 10.0511 12.7871 8.75299ZM14.1667 8.752C14.1667 9.28906 14.6042 9.72653 15.1411 9.72653C15.6808 9.72653 16.1155 9.28961 16.1155 8.752C16.1155 8.21494 15.6781 7.77747 15.1411 7.77747C14.6042 7.77747 14.1667 8.21494 14.1667 8.752ZM13.8301 8.752C13.8301 9.47492 14.4183 10.0631 15.1411 10.0631C15.8673 10.0631 16.4521 9.47492 16.4521 8.752C16.4521 8.02908 15.864 7.44089 15.1411 7.44089C14.4183 7.44089 13.8301 8.02908 13.8301 8.752ZM17.1585 8.752C17.1585 9.86595 16.255 10.7696 15.1411 10.7696C14.0273 10.7696 13.127 9.86595 13.1237 8.752C13.1237 7.63805 14.0273 6.7344 15.1411 6.7344C16.255 6.7344 17.1585 7.63805 17.1585 8.752Z" fill="#1D1C1A"/>
<path d="M8.74722 10.0631C8.02436 10.0631 7.43622 9.47492 7.43622 8.752C7.43622 8.02908 8.02436 7.44089 8.74722 7.44089C9.47008 7.44089 10.0582 8.02908 10.0582 8.752C10.0582 9.47492 9.47008 10.0631 8.74722 10.0631ZM8.74722 10.7696C9.86108 10.7696 10.7646 9.86595 10.7646 8.752C10.7646 7.63805 9.86108 6.7344 8.74722 6.7344C7.63336 6.7344 6.72979 7.63805 6.72979 8.752C6.72979 9.86595 7.63336 10.7696 8.74722 10.7696Z" fill="#1D1C1A"/>
<path fill-rule="evenodd" clip-rule="evenodd" d="M7.77118 8.75203C7.77118 9.28909 8.20866 9.72656 8.7456 9.72656C9.28255 9.72656 9.72002 9.28909 9.72002 8.75203C9.72002 8.21497 9.28255 7.7775 8.7456 7.7775C8.20866 7.7775 7.77118 8.21497 7.77118 8.75203ZM11.0996 8.75203C11.0996 10.0518 10.0454 11.1062 8.7456 11.1062C7.44583 11.1062 6.39159 10.0518 6.39159 8.75203C6.39159 7.45222 7.44583 6.39786 8.7456 6.39786C10.0454 6.39786 11.0996 7.45222 11.0996 8.75203ZM7.4346 8.75203C7.4346 9.47495 8.02274 10.0631 8.7456 10.0631C9.46846 10.0631 10.0566 9.47495 10.0566 8.75203C10.0566 8.02911 9.46846 7.44092 8.7456 7.44092C8.02275 7.44092 7.4346 8.02911 7.4346 8.75203ZM10.763 8.75203C10.763 9.86598 9.85946 10.7696 8.7456 10.7696C7.63174 10.7696 6.72817 9.86598 6.72817 8.75203C6.72817 7.63808 7.63175 6.73443 8.7456 6.73443C9.85946 6.73443 10.763 7.63808 10.763 8.75203Z" fill="#1D1C1A"/>
<path d="M2.35464 10.0631C1.63178 10.0631 1.04364 9.47492 1.04364 8.752C1.04364 8.02908 1.63178 7.44089 2.35464 7.44089C3.0775 7.44089 3.66564 8.02908 3.66564 8.752C3.66236 9.47492 3.0775 10.0631 2.35464 10.0631ZM2.35464 10.7696C3.4685 10.7696 4.37207 9.86595 4.37207 8.752C4.37207 7.63805 3.4685 6.7344 2.35464 6.7344C1.24078 6.7344 0.337212 7.63805 0.337212 8.752C0.337212 9.86595 1.24078 10.7696 2.35464 10.7696Z" fill="#1D1C1A"/>
<path fill-rule="evenodd" clip-rule="evenodd" d="M1.37958 8.75203C1.37958 9.28909 1.81706 9.72656 2.354 9.72656C2.88931 9.72656 3.32556 9.29056 3.32842 8.75126C3.328 8.21456 2.89069 7.7775 2.354 7.7775C1.81706 7.7775 1.37958 8.21497 1.37958 8.75203ZM4.70801 8.75203C4.70801 10.0518 3.65377 11.1062 2.354 11.1062C1.05423 11.1062 -7.06038e-06 10.0518 -6.94675e-06 8.75203C-6.83312e-06 7.45222 1.05423 6.39786 2.354 6.39786C3.65377 6.39786 4.70801 7.45222 4.70801 8.75203ZM1.043 8.75203C1.043 9.47495 1.63114 10.0631 2.354 10.0631C3.07686 10.0631 3.66171 9.47495 3.665 8.75203C3.665 8.02911 3.07686 7.44092 2.354 7.44092C1.63114 7.44092 1.043 8.02911 1.043 8.75203ZM4.37143 8.75203C4.37143 9.86598 3.46786 10.7696 2.354 10.7696C1.24014 10.7696 0.336572 9.86598 0.336572 8.75203C0.336572 7.63808 1.24014 6.73443 2.354 6.73443C3.46786 6.73443 4.37143 7.63808 4.37143 8.75203Z" fill="#1D1C1A"/>
<path d="M15.1408 3.66857C14.4179 3.66857 13.8298 3.08038 13.8298 2.35746C13.8298 1.63454 14.4179 1.04635 15.1408 1.04635C15.8636 1.04635 16.4518 1.63454 16.4518 2.35746C16.4518 3.08038 15.8669 3.66528 15.1408 3.66857ZM15.1408 4.37177C16.2546 4.37177 17.1582 3.47141 17.1582 2.35746C17.1582 1.24351 16.2546 0.339864 15.1408 0.339864C14.0269 0.339864 13.1233 1.24351 13.1233 2.35746C13.1266 3.47141 14.0269 4.37177 15.1408 4.37177Z" fill="#1D1C1A"/>
<path fill-rule="evenodd" clip-rule="evenodd" d="M12.7871 2.35845L12.7871 2.35746C12.7871 1.05765 13.8413 0.00328471 15.1411 0.00328482C16.4409 0.00328494 17.4951 1.05765 17.4951 2.35746C17.4951 3.65798 16.4402 4.70835 15.1411 4.70835C13.8411 4.70835 12.7909 3.6573 12.7871 2.35845ZM15.1404 3.33199C15.6823 3.32913 16.1155 2.89343 16.1155 2.35746C16.1155 1.8204 15.6781 1.38293 15.1411 1.38293C14.6042 1.38293 14.1667 1.8204 14.1667 2.35746C14.1667 2.89426 14.6038 3.33158 15.1404 3.33199ZM13.8301 2.35746C13.8301 3.08038 14.4183 3.66857 15.1411 3.66857C15.8673 3.66528 16.4521 3.08038 16.4521 2.35746C16.4521 1.63454 15.864 1.04635 15.1411 1.04635C14.4183 1.04635 13.8301 1.63454 13.8301 2.35746ZM17.1585 2.35746C17.1585 3.47141 16.255 4.37177 15.1411 4.37177C14.0273 4.37177 13.127 3.47141 13.1237 2.35746C13.1237 1.24351 14.0273 0.339864 15.1411 0.339864C16.255 0.339864 17.1585 1.24351 17.1585 2.35746Z" fill="#1D1C1A"/>
<path d="M8.74722 3.66857C8.02436 3.66857 7.43622 3.08038 7.43622 2.35746C7.43622 1.63454 8.02436 1.04635 8.74722 1.04635C9.47008 1.04635 10.0582 1.63454 10.0582 2.35746C10.0582 3.08038 9.47008 3.66528 8.74722 3.66857ZM8.74722 4.37177C9.86108 4.37177 10.7646 3.46812 10.7646 2.35417C10.7646 1.24022 9.86108 0.339864 8.74722 0.339864C7.63336 0.339864 6.72979 1.24351 6.72979 2.35746C6.72979 3.47141 7.63336 4.37177 8.74722 4.37177Z" fill="#1D1C1A"/>
<path fill-rule="evenodd" clip-rule="evenodd" d="M8.74483 3.33199C9.28402 3.32913 9.72002 2.89288 9.72002 2.35746C9.72002 1.8204 9.28255 1.38293 8.7456 1.38293C8.20866 1.38293 7.77118 1.8204 7.77118 2.35746C7.77118 2.89426 8.20824 3.33157 8.74483 3.33199ZM11.0996 2.35417C11.0996 3.65398 10.0454 4.70835 8.7456 4.70835C7.44655 4.70835 6.39159 3.65798 6.39159 2.35746C6.39159 1.05765 7.44583 0.00328471 8.7456 0.00328482C10.0447 0.00328494 11.0996 1.05365 11.0996 2.35417ZM7.4346 2.35746C7.4346 3.08038 8.02274 3.66857 8.7456 3.66857C9.46846 3.66528 10.0566 3.08038 10.0566 2.35746C10.0566 1.63454 9.46846 1.04635 8.7456 1.04635C8.02275 1.04635 7.4346 1.63454 7.4346 2.35746ZM10.763 2.35417C10.763 3.46812 9.85946 4.37177 8.7456 4.37177C7.63174 4.37177 6.72817 3.47141 6.72817 2.35746C6.72817 1.24351 7.63175 0.339864 8.7456 0.339864C9.85946 0.339864 10.763 1.24022 10.763 2.35417Z" fill="#1D1C1A"/>
<path d="M2.35464 3.66857C1.63178 3.66857 1.04364 3.08038 1.04364 2.35746C1.04364 1.63454 1.63178 1.04635 2.35464 1.04635C3.0775 1.04635 3.66564 1.63454 3.66564 2.35746C3.66236 3.08038 3.0775 3.66528 2.35464 3.66857ZM2.35464 4.37177C3.4685 4.37177 4.37207 3.46812 4.37207 2.35417C4.37207 1.24022 3.4685 0.336577 2.35464 0.336577C1.24078 0.336577 0.337212 1.24022 0.337212 2.35417C0.337212 3.47141 1.24078 4.37177 2.35464 4.37177Z" fill="#1D1C1A"/>
<path fill-rule="evenodd" clip-rule="evenodd" d="M2.35323 3.33199C2.89077 3.32914 3.32557 2.89434 3.32842 2.35669C3.328 1.81998 2.89069 1.38293 2.354 1.38293C1.81706 1.38293 1.37958 1.8204 1.37958 2.35746C1.37958 2.89426 1.81664 3.33157 2.35323 3.33199ZM3.665 2.35746C3.665 1.63454 3.07686 1.04635 2.354 1.04635C1.63114 1.04635 1.043 1.63454 1.043 2.35746C1.043 3.08038 1.63114 3.66857 2.354 3.66857C3.07686 3.66528 3.66171 3.08038 3.665 2.35746ZM4.70801 2.35417C4.70801 3.65398 3.65377 4.70835 2.354 4.70835C1.05459 4.70835 -7.0607e-06 3.65763 -6.94675e-06 2.35417C-6.83312e-06 1.05436 1.05423 -1.65102e-06 2.354 -1.53739e-06C3.65377 -1.42376e-06 4.70801 1.05436 4.70801 2.35417ZM4.37143 2.35417C4.37143 3.46812 3.46786 4.37177 2.354 4.37177C1.24014 4.37177 0.336572 3.47141 0.336572 2.35417C0.336572 1.24022 1.24014 0.336577 2.354 0.336577C3.46786 0.336577 4.37143 1.24022 4.37143 2.35417Z" fill="#1D1C1A"/>
</svg>
