<svg width="168" height="41" viewBox="0 0 168 41" fill="none" xmlns="http://www.w3.org/2000/svg">
<path d="M20.0353 16.7569C22.915 18.0981 25.8832 18.7636 28.3859 18.632H28.4315L28.6111 0.789457C28.6125 0.647654 28.5753 0.508149 28.5034 0.385875C28.4316 0.263602 28.3279 0.163163 28.2034 0.0953123C28.0788 0.0274611 27.9382 -0.00524854 27.7965 0.000684872C27.6548 0.00661828 27.5174 0.0509713 27.399 0.128996L12.3906 10.251C13.6053 12.5715 16.4116 15.0665 20.0353 16.7569Z" fill="#00A198"/>
<path d="M27.7686 20.3452C25.1496 20.3452 22.1813 19.629 19.3193 18.2929C15.3717 16.4532 12.4034 13.8291 10.9686 11.2075L3.34677 16.3571C3.21483 16.4455 3.11293 16.5719 3.05462 16.7196C2.99631 16.8673 2.98436 17.0293 3.02034 17.1839C3.05633 17.3386 3.13856 17.4786 3.25609 17.5854C3.37361 17.6922 3.52087 17.7607 3.67826 17.7818L16.4927 19.5253C17.246 19.6277 17.9365 20 18.4361 20.5729L26.9487 30.3077C27.0533 30.4269 27.1915 30.5116 27.3452 30.5507C27.4989 30.5897 27.6608 30.5813 27.8096 30.5265C27.9583 30.4717 28.087 30.3731 28.1786 30.2437C28.2703 30.1143 28.3205 29.9602 28.3228 29.8016L28.4164 20.33C28.2056 20.3401 27.9896 20.3452 27.7686 20.3452Z" fill="#00A198"/>
<path d="M27.7679 18.9939C25.1488 18.9939 22.1806 18.2778 19.3186 16.9416C12.5874 13.8038 8.69047 8.3835 10.4618 4.6004C12.2332 0.8173 18.8757 0.318791 25.6069 3.45661C27.7234 4.42546 29.6718 5.72558 31.3789 7.30803C31.5423 7.46273 31.6376 7.67601 31.6438 7.90095C31.65 8.12589 31.5665 8.34407 31.4118 8.50749C31.2571 8.67091 31.0438 8.76618 30.8189 8.77235C30.594 8.77852 30.3758 8.69508 30.2124 8.54039C28.6402 7.08507 26.8464 5.88922 24.8983 4.99769C19.2173 2.34825 13.3112 2.49755 11.9953 5.30894C10.6794 8.12032 14.3613 12.7587 20.0347 15.4056C22.9144 16.7468 25.8827 17.4149 28.3853 17.2807C30.7058 17.1593 32.3177 16.3799 32.9225 15.0817C33.5526 13.7279 32.9428 12.1818 32.3203 11.124C32.2638 11.028 32.2268 10.9218 32.2113 10.8114C32.1959 10.7011 32.2023 10.5888 32.2303 10.4809C32.2582 10.3731 32.3072 10.2718 32.3743 10.1828C32.4414 10.0939 32.5254 10.019 32.6214 9.96253C32.7174 9.90603 32.8237 9.86901 32.934 9.85357C33.0444 9.83813 33.1567 9.84457 33.2645 9.87254C33.4823 9.92901 33.6688 10.0697 33.7829 10.2637C34.9545 12.2552 35.1949 14.2214 34.4611 15.7979C33.5779 17.6907 31.4523 18.8345 28.4739 18.9762C28.2462 18.9888 28.0083 18.9939 27.7679 18.9939Z" fill="#00A198"/>
<path d="M167.724 17.1007C167.724 17.6626 167.688 18.1701 167.616 18.6232H156.169C156.26 19.8195 156.704 20.7802 157.501 21.5052C158.299 22.2303 159.278 22.5928 160.438 22.5928C162.105 22.5928 163.284 21.8949 163.972 20.4993H167.316C166.863 21.8768 166.039 23.0097 164.842 23.8978C163.664 24.7679 162.196 25.2029 160.438 25.2029C159.006 25.2029 157.719 24.8857 156.577 24.2513C155.453 23.5987 154.565 22.6925 153.913 21.5324C153.278 20.3543 152.961 18.9948 152.961 17.4541C152.961 15.9135 153.269 14.5631 153.885 13.4031C154.52 12.2249 155.399 11.3186 156.523 10.6842C157.665 10.0498 158.97 9.7326 160.438 9.7326C161.852 9.7326 163.111 10.0407 164.217 10.657C165.323 11.2733 166.184 12.1433 166.8 13.2671C167.416 14.3728 167.724 15.6506 167.724 17.1007ZM164.489 16.1219C164.471 14.98 164.063 14.0646 163.265 13.3759C162.468 12.6871 161.48 12.3427 160.302 12.3427C159.232 12.3427 158.317 12.6871 157.556 13.3759C156.795 14.0465 156.341 14.9619 156.196 16.1219H164.489Z" fill="#00A198"/>
<path d="M143.879 9.7326C145.057 9.7326 146.108 9.9773 147.033 10.4667C147.975 10.9561 148.709 11.6811 149.235 12.6418C149.779 13.6024 150.051 14.7625 150.051 16.1219V24.9582H146.978V16.5841C146.978 15.2428 146.643 14.2187 145.972 13.5118C145.302 12.7868 144.386 12.4243 143.226 12.4243C142.066 12.4243 141.142 12.7868 140.453 13.5118C139.782 14.2187 139.447 15.2428 139.447 16.5841V24.9582H136.375V16.5841C136.375 15.2428 136.04 14.2187 135.369 13.5118C134.698 12.7868 133.783 12.4243 132.623 12.4243C131.463 12.4243 130.538 12.7868 129.85 13.5118C129.179 14.2187 128.844 15.2428 128.844 16.5841V24.9582H125.744V9.9773H128.844V11.6902C129.351 11.0739 129.995 10.5936 130.774 10.2492C131.553 9.9048 132.387 9.7326 133.275 9.7326C134.472 9.7326 135.541 9.98636 136.484 10.4939C137.426 11.0014 138.151 11.7355 138.659 12.6962C139.112 11.7899 139.819 11.0739 140.779 10.5483C141.74 10.0045 142.773 9.7326 143.879 9.7326Z" fill="#00A198"/>
<path d="M121.654 9.97729V24.9582H118.555V23.1909C118.065 23.8072 117.422 24.2966 116.624 24.6591C115.845 25.0035 115.011 25.1757 114.123 25.1757C112.945 25.1757 111.884 24.931 110.942 24.4416C110.018 23.9522 109.283 23.2272 108.74 22.2665C108.214 21.3058 107.951 20.1458 107.951 18.7864V9.97729H111.023V18.3242C111.023 19.6655 111.359 20.6986 112.029 21.4237C112.7 22.1306 113.615 22.484 114.775 22.484C115.936 22.484 116.851 22.1306 117.522 21.4237C118.21 20.6986 118.555 19.6655 118.555 18.3242V9.97729H121.654Z" fill="#00A198"/>
<path d="M105.747 9.97729L96.5572 32H93.3489L96.394 24.7135L90.4941 9.97729H93.9471L98.1613 21.3965L102.539 9.97729H105.747Z" fill="#00A198"/>
<path d="M82.21 22.4296H89.0071V24.9582H78.6211V22.4296L85.4454 12.5058H78.6211V9.97729H89.0071V12.5058L82.21 22.4296Z" fill="#00A198"/>
<path d="M76.4138 17.1007C76.4138 17.6626 76.3775 18.1701 76.305 18.6232H64.8586C64.9493 19.8195 65.3933 20.7802 66.1909 21.5052C66.9884 22.2303 67.9672 22.5928 69.1272 22.5928C70.7948 22.5928 71.973 21.8949 72.6617 20.4993H76.0059C75.5528 21.8768 74.7281 23.0097 73.5318 23.8978C72.3536 24.7679 70.8854 25.2029 69.1272 25.2029C67.6953 25.2029 66.4084 24.8857 65.2665 24.2513C64.1427 23.5987 63.2545 22.6925 62.602 21.5324C61.9676 20.3543 61.6504 18.9948 61.6504 17.4541C61.6504 15.9135 61.9585 14.5631 62.5748 13.4031C63.2092 12.2249 64.0883 11.3186 65.2121 10.6842C66.354 10.0498 67.6591 9.7326 69.1272 9.7326C70.541 9.7326 71.8008 10.0407 72.9064 10.657C74.0121 11.2733 74.8731 12.1433 75.4893 13.2671C76.1056 14.3728 76.4138 15.6506 76.4138 17.1007ZM73.1783 16.1219C73.1602 14.98 72.7524 14.0646 71.9548 13.3759C71.1573 12.6871 70.1695 12.3427 68.9913 12.3427C67.9219 12.3427 67.0065 12.6871 66.2453 13.3759C65.484 14.0465 65.0308 14.9619 64.8858 16.1219H73.1783Z" fill="#00A198"/>
<path d="M55.3209 24.9582L50.9708 17.3998H48.6054V24.9582H45.5059V6.06216H52.0311C53.4812 6.06216 54.7046 6.31592 55.7016 6.82344C56.7166 7.33096 57.4688 8.01067 57.9582 8.86258C58.4657 9.71449 58.7195 10.6661 58.7195 11.7174C58.7195 12.9499 58.357 14.0737 57.6319 15.0888C56.925 16.0857 55.8284 16.7654 54.3421 17.1279L59.0186 24.9582H55.3209ZM48.6054 14.9256H52.0311C53.1911 14.9256 54.0612 14.6356 54.6412 14.0556C55.2393 13.4756 55.5384 12.6962 55.5384 11.7174C55.5384 10.7386 55.2484 9.97731 54.6684 9.43354C54.0884 8.87164 53.2093 8.5907 52.0311 8.5907H48.6054V14.9256Z" fill="#00A198"/>
<path d="M131.555 31.636C132.467 31.636 133.255 31.808 133.919 32.152C134.591 32.488 135.103 32.972 135.455 33.604C135.815 34.236 135.995 34.98 135.995 35.836C135.995 36.692 135.815 37.436 135.455 38.068C135.103 38.692 134.591 39.172 133.919 39.508C133.255 39.836 132.467 40 131.555 40H128.951V31.636H131.555ZM131.555 39.1C132.635 39.1 133.459 38.816 134.027 38.248C134.595 37.672 134.879 36.868 134.879 35.836C134.879 34.796 134.591 33.984 134.015 33.4C133.447 32.816 132.627 32.524 131.555 32.524H130.043V39.1H131.555ZM140.304 40.108C139.688 40.108 139.128 39.968 138.624 39.688C138.128 39.408 137.736 39.012 137.448 38.5C137.168 37.98 137.028 37.38 137.028 36.7C137.028 36.028 137.172 35.436 137.46 34.924C137.756 34.404 138.156 34.008 138.66 33.736C139.164 33.456 139.728 33.316 140.352 33.316C140.976 33.316 141.54 33.456 142.044 33.736C142.548 34.008 142.944 34.4 143.232 34.912C143.528 35.424 143.676 36.02 143.676 36.7C143.676 37.38 143.524 37.98 143.22 38.5C142.924 39.012 142.52 39.408 142.008 39.688C141.496 39.968 140.928 40.108 140.304 40.108ZM140.304 39.148C140.696 39.148 141.064 39.056 141.408 38.872C141.752 38.688 142.028 38.412 142.236 38.044C142.452 37.676 142.56 37.228 142.56 36.7C142.56 36.172 142.456 35.724 142.248 35.356C142.04 34.988 141.768 34.716 141.432 34.54C141.096 34.356 140.732 34.264 140.34 34.264C139.94 34.264 139.572 34.356 139.236 34.54C138.908 34.716 138.644 34.988 138.444 35.356C138.244 35.724 138.144 36.172 138.144 36.7C138.144 37.236 138.24 37.688 138.432 38.056C138.632 38.424 138.896 38.7 139.224 38.884C139.552 39.06 139.912 39.148 140.304 39.148ZM144.704 36.7C144.704 36.02 144.84 35.428 145.112 34.924C145.384 34.412 145.76 34.016 146.24 33.736C146.728 33.456 147.284 33.316 147.908 33.316C148.716 33.316 149.38 33.512 149.9 33.904C150.428 34.296 150.776 34.84 150.944 35.536H149.768C149.656 35.136 149.436 34.82 149.108 34.588C148.788 34.356 148.388 34.24 147.908 34.24C147.284 34.24 146.78 34.456 146.396 34.888C146.012 35.312 145.82 35.916 145.82 36.7C145.82 37.492 146.012 38.104 146.396 38.536C146.78 38.968 147.284 39.184 147.908 39.184C148.388 39.184 148.788 39.072 149.108 38.848C149.428 38.624 149.648 38.304 149.768 37.888H150.944C150.768 38.56 150.416 39.1 149.888 39.508C149.36 39.908 148.7 40.108 147.908 40.108C147.284 40.108 146.728 39.968 146.24 39.688C145.76 39.408 145.384 39.012 145.112 38.5C144.84 37.988 144.704 37.388 144.704 36.7ZM153.733 34.324V38.2C153.733 38.52 153.801 38.748 153.937 38.884C154.073 39.012 154.309 39.076 154.645 39.076H155.449V40H154.465C153.857 40 153.401 39.86 153.097 39.58C152.793 39.3 152.641 38.84 152.641 38.2V34.324H151.789V33.424H152.641V31.768H153.733V33.424H155.449V34.324H153.733ZM159.64 40.108C159.024 40.108 158.464 39.968 157.96 39.688C157.464 39.408 157.072 39.012 156.784 38.5C156.504 37.98 156.364 37.38 156.364 36.7C156.364 36.028 156.508 35.436 156.796 34.924C157.092 34.404 157.492 34.008 157.996 33.736C158.5 33.456 159.064 33.316 159.688 33.316C160.312 33.316 160.876 33.456 161.38 33.736C161.884 34.008 162.28 34.4 162.568 34.912C162.864 35.424 163.012 36.02 163.012 36.7C163.012 37.38 162.86 37.98 162.556 38.5C162.26 39.012 161.856 39.408 161.344 39.688C160.832 39.968 160.264 40.108 159.64 40.108ZM159.64 39.148C160.032 39.148 160.4 39.056 160.744 38.872C161.088 38.688 161.364 38.412 161.572 38.044C161.788 37.676 161.896 37.228 161.896 36.7C161.896 36.172 161.792 35.724 161.584 35.356C161.376 34.988 161.104 34.716 160.768 34.54C160.432 34.356 160.068 34.264 159.676 34.264C159.276 34.264 158.908 34.356 158.572 34.54C158.244 34.716 157.98 34.988 157.78 35.356C157.58 35.724 157.48 36.172 157.48 36.7C157.48 37.236 157.576 37.688 157.768 38.056C157.968 38.424 158.232 38.7 158.56 38.884C158.888 39.06 159.248 39.148 159.64 39.148ZM165.539 34.492C165.731 34.116 166.003 33.824 166.355 33.616C166.715 33.408 167.151 33.304 167.663 33.304V34.432H167.375C166.151 34.432 165.539 35.096 165.539 36.424V40H164.447V33.424H165.539V34.492Z" fill="#00A198"/>
</svg>
