<svg width="1920" height="885" viewBox="0 0 1920 885" fill="none" xmlns="http://www.w3.org/2000/svg">
<g opacity="0.59">
<path d="M1945.68 20.8883C1908.47 56.635 1875.39 100.202 1847.36 150.375C1820.98 197.61 1800.04 247.424 1779.79 295.551C1760.8 340.714 1741.17 387.409 1717.08 431.911C1657.13 542.646 1576.78 619.023 1478.27 658.922C1413.57 685.135 1343.23 695.093 1272.17 695.093C1164.07 695.093 1054.35 672.02 960.673 648.004C941.834 643.172 922.577 638.116 903.937 633.224C753.625 593.727 598.19 552.893 442.539 572.998C319.26 588.925 208.886 642.126 107.973 697.247C92.3595 705.777 76.529 714.549 61.2214 723.071C-11.1896 763.294 -85.7142 804.682 -166.98 834.71V835.186C-85.5807 805.136 -10.9615 763.692 61.544 723.421C76.8516 714.917 92.6933 706.119 108.268 697.597C209.147 642.506 319.46 589.336 442.655 573.422C598.174 553.334 753.542 594.151 903.776 633.63C922.399 638.523 941.656 643.579 960.512 648.411C1064.17 674.974 1147.8 689.461 1223.7 693.99C1270.42 696.78 1314.54 695.638 1354.87 690.598C1399.43 685.031 1441.05 674.503 1478.57 659.303C1577.19 619.356 1657.62 542.905 1717.62 432.075C1741.69 387.573 1761.33 340.857 1780.32 295.685C1800.56 247.545 1821.48 197.762 1847.87 150.548C1881.92 89.5917 1922.29 39.5532 1968.97 0.432559V0C1961.03 6.64988 1953.27 13.6126 1945.68 20.8883Z" fill="url(#paint0_linear_1002_314)"/>
<path d="M1961.69 44.1859C1925.26 78.968 1892.64 121.324 1864.75 170.061C1839.58 214.048 1819.53 260.379 1800.13 305.184C1780.38 350.81 1759.96 397.989 1734.17 442.564C1673.94 546.699 1588.9 621.618 1488.26 659.225C1384.29 698.242 1258.48 701.836 1092.32 670.532C1055.29 663.555 1015.13 654.653 969.54 643.315C955.634 639.855 941.405 636.273 927.661 632.808C854.432 614.355 778.706 595.275 703.531 583.341C658.236 576.143 617.125 572.051 577.821 570.84C533.439 569.469 492.333 571.77 452.161 577.869C408.775 584.44 365.299 595.755 319.193 612.474C280.974 626.316 240.502 644.137 195.464 666.916C173.214 678.188 149.413 690.836 120.65 706.711C108.112 713.632 95.3799 720.73 83.0648 727.599C4.07913 771.66 -77.354 817.066 -166.98 848.335V848.807C-77.2149 817.52 4.34056 772.058 83.4152 727.945C95.7303 721.081 108.446 713.982 121 707.061C149.758 691.187 173.526 678.547 195.792 667.266C293.623 617.786 372.731 590.34 452.295 578.289C527.91 566.804 607.702 568.543 703.419 583.756C778.567 595.686 854.276 614.762 927.494 633.215C941.239 636.675 955.45 640.257 969.373 643.722C1014.98 655.059 1055.14 663.966 1092.2 670.943C1168.49 685.317 1235.02 692.16 1295.61 691.853C1330.36 691.68 1363.63 689.076 1394.51 684.123C1427.75 678.785 1459.37 670.536 1488.51 659.605C1542.47 639.457 1591.8 608.883 1635.21 568.742C1673.15 533.657 1706.62 491.262 1734.69 442.737C1760.49 398.141 1780.91 350.953 1800.66 305.318C1820.05 260.522 1840.11 214.199 1865.26 170.234C1895.21 117.911 1929.78 73.7903 1968.98 37.8705V37.3904C1966.53 39.6267 1964.1 41.8847 1961.69 44.1859Z" fill="url(#paint1_linear_1002_314)"/>
<path d="M1882.13 189.755C1858.02 230.848 1838.75 274.104 1820.08 315.959C1799.69 361.689 1778.61 408.959 1751.27 453.232C1708.52 522.441 1629.92 614.403 1498.25 659.536C1394.79 695.309 1268.81 697.23 1101.74 665.592C1064.92 658.615 1025.74 650.055 978.431 638.652C969.654 636.536 960.864 634.409 952.06 632.272C873.28 613.188 791.819 593.45 711.321 582.428C666.366 576.256 625.438 573.124 586.167 572.852C542.33 572.544 501.658 575.789 461.815 582.761C362.493 600.064 273.974 641.59 207.954 675.822C186.01 687.207 163.004 699.656 133.362 716.189C124.173 721.315 114.834 726.549 105.801 731.614C19.9735 779.727 -68.585 829.372 -167 861.693V862.16C-68.4403 829.822 20.2127 780.121 106.112 731.96C115.146 726.895 124.468 721.656 133.674 716.535C163.31 700.007 186.311 687.553 208.249 676.173C274.23 641.966 362.688 600.475 461.926 583.172C536.362 570.144 617.895 570.036 711.187 582.844C791.658 593.857 873.102 613.59 951.86 632.674C960.663 634.806 969.456 636.932 978.237 639.055C1025.56 650.461 1064.74 659.022 1101.57 665.999C1178.45 680.563 1245.04 687.878 1305.15 688.358C1339.95 688.643 1373.26 686.576 1404.16 682.237C1437.48 677.552 1469.21 670.048 1498.47 659.934C1630.3 614.745 1708.97 522.688 1751.76 453.422C1779.11 409.145 1800.2 361.845 1820.6 316.102C1839.25 274.273 1858.53 231.017 1882.63 189.937C1908.23 146.332 1937.01 108.541 1968.97 76.5631V76.0051C1936.79 108.14 1907.61 146.339 1882.13 189.755Z" fill="url(#paint2_linear_1002_314)"/>
<path d="M1899.51 209.445C1876.33 247.943 1857.72 288.448 1839.71 327.625C1818.77 373.178 1797.12 420.279 1768.36 463.881C1725.04 529.578 1644.75 616.899 1508.23 659.83C1372.59 702.485 1216.64 680.706 1111.15 660.609C1074.87 653.688 1036.68 645.469 987.317 633.946L977.11 631.558C892.562 611.799 805.099 591.369 719.105 581.477C674.495 576.316 633.745 574.123 594.508 574.819C551.238 575.568 510.989 579.751 471.468 587.615C429.534 595.911 387.132 608.81 341.865 627.099C305.02 641.961 266.445 660.259 220.466 684.685C193.661 698.96 167.83 713.386 146.098 725.627L129.538 734.97C36.6635 787.392 -59.2874 841.54 -166.98 874.735V875.197C-59.1372 841.985 36.8971 787.79 129.85 735.329C135.375 732.209 140.897 729.096 146.415 725.99C168.141 713.745 193.967 699.306 220.767 685.053C291.042 647.719 375.801 607.002 471.63 588.043C545.949 573.262 626.875 571.255 719.027 581.913C804.983 591.802 892.412 612.227 976.96 631.982L987.161 634.366C1036.54 645.902 1074.74 654.129 1111.02 661.042C1188.34 675.749 1254.98 683.535 1314.68 684.763C1320.46 684.878 1326.17 684.938 1331.82 684.94C1397.76 684.94 1455.71 676.826 1508.44 660.241C1564.25 642.688 1615.64 615.865 1661.17 580.521C1703.2 547.893 1739.43 508.716 1768.86 464.084C1797.65 420.448 1819.29 373.333 1840.23 327.768C1858.23 288.604 1876.85 248.103 1900.01 209.627C1920.99 174.806 1943.99 143.767 1968.99 116.51V115.87C1943.74 143.32 1920.47 174.667 1899.51 209.445Z" fill="url(#paint3_linear_1002_314)"/>
<path d="M-153.595 884C-41.4017 849.573 58.2259 792.873 154.666 737.981L159.116 735.45C186.55 719.835 209.661 706.802 233.251 693.925C303.805 655.531 388.442 613.503 481.283 592.896C555.519 576.321 635.839 572.419 726.823 580.966C818.329 589.496 912.745 610.839 996.042 629.672C1032.75 637.977 1076.26 647.611 1120.42 656.058C1199.51 671.198 1264.27 679.192 1324.22 681.203C1397.46 683.651 1460.98 676.878 1518.4 660.527C1575.23 644.323 1627.63 619.39 1674.11 586.421C1718.14 555.199 1755.76 517.644 1785.91 474.73C1815.98 431.993 1838.14 385.294 1859.57 340.134C1877 303.393 1895.04 265.397 1917.36 229.295C1933.48 203.316 1950.68 179.482 1968.97 157.793V157.019C1950.51 178.86 1933.15 202.901 1916.89 229.14C1894.55 265.263 1876.52 303.263 1859.08 340.018C1837.66 385.164 1815.5 431.846 1785.45 474.544C1723.35 562.786 1628.45 628.716 1518.21 660.142C1384.91 698.138 1235.67 677.704 1120.56 655.661C1076.41 647.204 1032.92 637.571 996.203 629.274C912.879 610.441 818.441 589.094 726.89 580.56C635.828 572.004 555.441 575.91 481.133 592.503C388.214 613.123 303.526 655.176 232.934 693.592C209.339 706.452 186.21 719.489 158.788 735.117L154.338 737.648C57.5528 792.739 -42.4475 849.646 -155.113 884.013L-153.595 884Z" fill="url(#paint4_linear_1002_314)"/>
<path d="M-113.025 884C-71.897 869.929 -29.3671 852.042 15.9162 829.805C68.0578 804.197 117.368 776.21 171.813 744.915L171.879 744.88C196.015 730.999 220.979 716.651 245.731 702.831C320.222 661.305 401.477 619.853 490.943 597.788C565.111 579.366 644.82 573.565 734.619 580.053C823.461 586.399 913.171 604.934 1004.95 625.001C1044.74 633.712 1087.16 642.904 1129.84 651.123C1209.71 666.5 1274.52 674.94 1333.79 677.691C1347.76 678.34 1361.39 678.664 1374.67 678.664C1431.19 678.664 1481.79 672.786 1528.38 660.86C1586.35 646.014 1640.18 622.784 1687.06 592.394C1733.05 562.673 1772.07 526.684 1803.04 485.422C1834.28 443.789 1856.89 397.704 1878.77 353.128C1895.7 318.615 1913.21 282.924 1934.78 249.011C1945.71 231.853 1957.1 215.651 1968.97 200.405V199.574C1956.93 215.008 1945.36 231.425 1934.28 248.825C1912.7 282.76 1895.18 318.467 1878.24 352.981C1856.38 397.535 1833.78 443.611 1802.56 485.21C1739.64 569.036 1642.21 631.273 1528.2 660.453C1395.94 694.31 1245.91 673.032 1129.97 650.712C1087.3 642.493 1044.87 633.301 1005.09 624.594C913.316 604.519 823.567 585.975 734.68 579.608C644.809 573.119 565.028 578.916 490.787 597.343C401.261 619.429 319.95 660.929 245.414 702.455C220.661 716.297 195.698 730.627 171.562 744.508L171.496 744.543C86.7252 793.271 -8.16888 847.799 -114.41 883.974L-113.025 884Z" fill="url(#paint5_linear_1002_314)"/>
<path d="M-74.7089 884C16.3137 850.157 100.111 803.393 184.564 754.384L200.767 744.967C219.591 734.019 239.053 722.703 258.255 711.725C328.124 671.86 410.23 627.267 500.646 602.663C574.77 582.333 653.867 574.651 742.459 579.137C834.794 583.713 930.962 602.798 1013.86 620.329L1022.38 622.133C1060.55 630.217 1100.02 638.57 1139.28 646.175C1220.06 661.812 1284.91 670.705 1343.36 674.17C1416.93 678.53 1480.72 674.278 1538.37 661.193C1597.47 647.784 1651.85 626.627 1699.98 598.385C1747.8 570.35 1788.55 535.677 1820.15 496.115C1852.46 455.753 1875.49 410.43 1897.77 366.598C1914.26 334.157 1931.31 300.607 1952.19 268.728C1957.68 260.347 1963.29 252.201 1969 244.288V243.423C1963.12 251.552 1957.35 259.926 1951.7 268.546C1930.8 300.443 1913.75 334.001 1897.26 366.456C1875.01 410.27 1851.96 455.563 1819.68 495.903C1755.99 575.46 1656.03 634.02 1538.22 660.791C1408.01 690.382 1263.55 669.81 1139.4 645.785C1100.15 638.185 1060.68 629.828 1022.51 621.744L1014 619.94C931.068 602.404 834.889 583.315 742.487 578.734C653.817 574.244 574.648 581.948 500.451 602.283C409.963 626.908 327.818 671.518 257.932 711.405C238.731 722.383 219.262 733.703 200.439 744.647C195.036 747.79 189.635 750.929 184.236 754.064C99.46 803.22 15.3904 850.144 -75.9883 884H-74.7089Z" fill="url(#paint6_linear_1002_314)"/>
<path d="M-38.0783 884C-12.5749 873.856 13.4904 862.329 40.4067 849.3C96.2362 822.269 148.778 792.254 197.266 763.839C208.741 757.113 220.399 750.235 231.674 743.587C244.468 736.039 257.723 728.231 270.739 720.605C344.429 677.565 423.632 633.384 510.31 607.53C584.39 585.27 662.88 575.676 750.26 578.206C841.015 580.724 934.858 597.672 1022.75 615.644C1033.58 617.859 1044.46 620.094 1055.39 622.349C1085.91 628.638 1117.48 635.14 1148.69 641.213C1231.67 657.36 1294.65 666.435 1352.91 670.627C1426.68 675.952 1490.61 672.958 1548.34 661.474C1608.67 649.475 1664.03 630.256 1712.83 604.346C1762.68 577.882 1804.54 545.051 1837.23 506.761C1870.5 467.804 1893.94 423.372 1916.61 380.401C1932.54 350.187 1949.02 318.978 1969 289.248V288.314C1948.79 318.264 1932.17 349.767 1916.09 380.237C1893.44 423.19 1870 467.614 1836.77 506.544C1772.34 582.004 1669.85 636.887 1548.2 661.08C1419.91 686.601 1280.44 666.418 1148.82 640.811C1117.61 634.755 1086.05 628.236 1055.53 621.951C1044.6 619.696 1033.73 617.46 1022.89 615.242C934.969 597.278 841.088 580.309 750.282 577.787C662.825 575.261 584.262 584.859 510.11 607.145C423.337 633.016 344.129 677.219 270.405 720.276C257.389 727.898 244.145 735.706 231.341 743.258C220.066 749.906 208.407 756.784 196.932 763.51C123.659 806.468 46.0247 850.256 -39.1797 884.013L-38.0783 884Z" fill="url(#paint7_linear_1002_314)"/>
<path d="M-2.63661 884C15.4745 876.378 33.9026 868.06 52.6478 859.046C111.431 830.791 167.589 798.379 209.952 773.304C228.363 762.399 247.025 751.2 265.064 740.373L283.202 729.494C360.77 683.132 437.247 639.288 519.948 612.4C593.994 588.142 671.879 576.662 758.018 577.277C851.41 577.835 948.723 594.618 1031.6 610.964C1050.47 614.693 1069.88 618.608 1088.64 622.397C1111.38 626.982 1134.89 631.727 1158.05 636.26C1214.79 647.36 1289.32 660.895 1362.43 667.11C1436.41 673.404 1500.49 671.665 1558.26 661.794C1619.91 651.261 1676.21 633.955 1725.6 610.354C1777.33 585.629 1820.63 554.368 1854.27 517.441C1888.39 479.994 1911.16 438.49 1935.28 394.55C1945.96 375.085 1956.89 355.188 1968.95 335.588V334.589C1956.71 354.448 1945.59 374.644 1934.77 394.382C1910.67 438.3 1887.9 479.782 1853.82 517.194C1787.71 589.765 1685.46 639.608 1558.14 661.375C1431.78 682.964 1291.24 661.864 1158.2 635.854C1135.05 631.325 1111.54 626.58 1088.8 622.012C1070.03 618.227 1050.63 614.308 1031.75 610.584C948.874 594.229 851.488 577.441 758.04 576.883C671.823 576.264 593.844 587.762 519.731 612.041C436.963 638.947 360.458 682.808 282.858 729.191L264.719 740.07C246.68 750.884 228.007 762.092 209.607 772.997C142.858 812.515 71.9492 852.155 -3.98828 884.035L-2.63661 884Z" fill="url(#paint8_linear_1002_314)"/>
<path d="M31.8082 884C42.7216 879.175 53.7462 874.106 64.8821 868.791C112.435 846.095 161.111 819.566 222.653 782.768C246.799 768.329 270.979 753.536 295.687 738.383C365.589 695.633 444.825 647.182 529.613 617.266C603.592 590.958 680.909 577.571 765.841 576.342C861.831 574.819 963.055 591.538 1040.51 606.275C1067.57 611.427 1095.44 616.981 1122.4 622.353C1137.18 625.295 1152.46 628.34 1167.46 631.294C1228.91 643.371 1301.27 656.655 1371.98 663.581C1446.26 670.852 1510.45 670.367 1568.22 662.097C1631.27 653.069 1688.52 637.679 1738.38 616.354C1791.97 593.428 1836.71 563.742 1871.36 528.112C1906.22 492.253 1929.38 451.782 1953.91 408.933C1958.84 400.325 1963.83 391.631 1968.93 382.897V381.868C1963.63 390.878 1958.48 399.871 1953.39 408.76C1928.88 451.583 1905.72 492.036 1870.9 527.852C1804.05 596.629 1699.34 642.913 1568.1 661.686C1437.94 680.321 1293.1 655.561 1167.58 630.888C1152.56 627.933 1137.28 624.888 1122.52 621.942C1095.56 616.574 1067.69 611.02 1040.63 605.864C986.967 595.66 943.019 588.648 902.314 583.804C852.197 577.839 807.548 575.256 765.813 575.918C680.781 577.151 603.442 590.552 529.368 616.882C444.514 646.81 365.278 695.283 295.326 738.046C270.617 753.185 246.443 767.992 222.297 782.426C165.094 816.637 100.693 853.059 30.4844 884H31.8082Z" fill="url(#paint9_linear_1002_314)"/>
<path d="M65.4385 884C69.3173 882.209 73.211 880.388 77.1195 878.537C125.512 855.611 175.785 828.187 235.358 792.232C262.257 775.994 288.401 759.674 308.169 747.272L313.576 743.89C388.668 696.892 459.644 652.498 539.275 622.146C613.254 593.74 689.893 578.457 773.64 575.429C871.415 571.753 972.372 587.489 1049.41 601.612C1084.84 608.101 1121.34 615.35 1156.65 622.349L1176.89 626.346C1243 639.409 1313.55 652.533 1381.58 660.086C1456.18 668.352 1520.49 669.117 1578.22 662.434C1642.74 654.964 1700.91 641.49 1751.14 622.397C1806.56 601.331 1852.76 573.206 1888.48 538.8C1922.31 506.211 1945.3 468.938 1968.98 429.445V428.407C1945.14 468.202 1922.07 505.735 1888.04 538.51C1819.46 604.575 1715.19 646.118 1578.14 661.993C1450.98 676.7 1310.27 652.252 1177.04 625.931L1156.8 621.925C1121.49 614.926 1084.98 607.69 1049.54 601.162C972.478 587.035 871.471 571.29 773.651 574.971C689.826 577.999 613.093 593.303 539.063 621.739C459.343 652.131 388.368 696.542 313.225 743.57L307.824 746.952C288.056 759.354 261.913 775.67 235.019 791.904C184.123 822.615 127.214 855.17 64.543 884.013L65.4385 884Z" fill="url(#paint10_linear_1002_314)"/>
<path d="M98.3446 884C144.718 861.736 193.8 834.744 248.05 801.693C270.138 788.231 293.206 773.762 320.639 756.161C326.009 752.727 331.371 749.291 336.726 745.854C407.462 700.495 474.283 657.646 548.925 627.017C622.815 596.461 698.869 579.279 781.432 574.495C881.877 568.526 987.545 584.444 1058.28 596.919C1098.94 604.108 1138.63 611.92 1186.29 621.389C1252.69 634.578 1323.21 648.151 1391.12 656.552C1439.29 662.508 1483.11 665.475 1523.57 665.471C1545.15 665.508 1566.72 664.593 1588.16 662.729C1654.22 656.863 1713.32 645.309 1763.8 628.396C1820.99 609.234 1868.68 582.675 1905.54 549.454C1931.16 526.364 1950.69 500.398 1968.95 472.796V471.857C1950.56 499.71 1930.92 525.927 1905.11 549.173C1835.71 611.725 1729.05 649.786 1588.1 662.3C1464.41 673.279 1333.01 650.081 1186.42 620.974C1138.76 611.505 1099.07 603.693 1058.4 596.504C1006.04 587.26 960.312 580.932 918.589 577.129C868.383 572.566 823.505 571.562 781.387 574.067C698.747 578.855 622.626 596.05 548.663 626.636C473.972 657.287 407.134 700.149 336.37 745.525C331.019 748.959 325.658 752.394 320.289 755.828C292.861 773.429 269.794 787.894 247.705 801.355C204.753 827.525 154.191 856.827 97.4102 884H98.3446Z" fill="url(#paint11_linear_1002_314)"/>
<path d="M130.654 884C171.91 863.453 214.757 839.446 260.775 811.157C283.375 797.254 307.048 782.175 333.147 765.05C341.908 759.319 350.774 753.479 359.351 747.835C425.877 704.042 488.71 662.677 558.606 631.909C632.414 599.129 707.856 580.062 789.25 573.574C866.751 567.284 955.07 573.215 1067.19 592.247C1110.73 599.653 1154.69 608.252 1195.71 616.44C1314.19 640.088 1436.24 664.454 1551.71 664.454C1567.31 664.454 1582.8 663.989 1598.15 663.057C1666.78 658.796 1725.1 649.436 1776.45 634.43C1805.01 626.086 1831.45 615.874 1855.06 604.078C1879.89 591.721 1902.6 576.959 1922.64 560.147C1940.44 545.159 1955.36 528.7 1968.98 511.233V510.407C1955.25 528.077 1940.2 544.722 1922.25 559.853C1850.98 619.896 1744.95 653.515 1598.12 662.629C1469.38 670.623 1330.34 642.874 1195.88 616.038C1154.84 607.85 1110.87 599.246 1067.33 591.841C955.153 572.808 866.779 566.86 789.211 573.158C707.739 579.647 632.224 598.749 558.373 631.554C488.432 662.361 425.577 703.739 359.029 747.549C350.457 753.172 341.591 759.029 332.83 764.761C306.737 781.881 283.069 796.96 260.469 810.858C214.858 838.919 171.471 863.198 129.559 884.039L130.654 884Z" fill="url(#paint12_linear_1002_314)"/>
<path d="M162.346 884C198.185 865.517 234.907 844.568 273.482 820.621C296.611 806.256 320.206 790.987 345.632 773.939C357.613 765.92 369.7 757.74 381.387 749.829C443.869 707.537 502.88 667.59 568.283 636.758C641.978 601.751 716.798 580.78 797.063 572.639C875.492 564.563 964.151 569.304 1076.09 587.558C1123.02 595.228 1169.7 604.368 1205.14 611.479C1211 612.65 1216.86 613.826 1222.71 615.009C1287.46 628.02 1354.41 641.477 1418.85 650.786C1490.97 661.21 1552.9 665.315 1608.13 663.33C1678.44 660.821 1737.61 653.316 1789.03 640.404C1818.35 633.051 1845.5 623.733 1869.73 612.764C1895.33 601.231 1918.88 587.123 1939.74 570.805C1950.27 562.464 1960.04 553.56 1968.97 544.16V543.437C1959.93 552.994 1950.02 562.04 1939.33 570.507C1866.07 628.102 1760.8 657.49 1608.08 662.915C1485.11 667.305 1357.71 641.719 1222.83 614.593C1216.98 613.411 1211.13 612.234 1205.26 611.064C1169.83 603.952 1123.13 594.808 1076.22 587.139C964.218 568.872 875.492 564.131 796.985 572.211C756.331 576.262 716.385 583.828 677.889 594.769C640.621 605.337 604.694 618.949 567.982 636.386C502.552 667.24 443.524 707.196 381.025 749.5C369.344 757.411 357.252 765.591 345.27 773.606C319.856 790.654 296.26 805.919 273.132 820.28C234.629 844.187 197.556 865.344 161.406 883.996L162.346 884Z" fill="url(#paint13_linear_1002_314)"/>
<path d="M193.359 884C223.871 867.724 254.814 849.751 286.189 830.081C309.357 815.565 333.553 799.664 358.116 782.824C373.135 772.542 388.27 762.014 402.877 751.827C461.476 710.981 516.822 672.396 577.936 641.628C651.493 604.329 725.717 581.459 804.88 571.709C883.048 561.959 974.677 565.615 1085 582.878C1122.74 588.795 1163.9 596.287 1214.57 606.522C1227.29 609.087 1240.19 611.712 1252.67 614.252C1313.98 626.735 1377.38 639.638 1438.42 648.943C1506.69 659.324 1565.46 664.165 1618.11 663.65C1690.14 662.962 1750.15 657.313 1801.57 646.386C1831.61 639.993 1859.48 631.606 1884.33 621.449C1910.72 610.74 1935.11 597.286 1956.84 581.459C1961.03 578.385 1965.09 575.213 1969 571.943V571.32C1964.96 574.68 1960.78 577.95 1956.46 581.131C1858.72 652.728 1716.54 662.261 1618.1 663.204C1615.51 663.23 1612.93 663.239 1610.32 663.239C1495.6 663.239 1377.58 639.215 1252.81 613.815C1240.33 611.276 1227.43 608.65 1214.7 606.085C1164.03 595.868 1122.85 588.35 1085.1 582.437C1032.97 574.279 986.503 569.261 943.039 567.103C892.56 564.594 847.366 565.956 804.78 571.264C764.147 576.217 724.376 584.766 686.241 596.746C649.613 608.209 614.091 622.769 577.647 641.248C516.499 672.033 461.132 710.63 402.521 751.49C387.914 761.672 372.807 772.201 357.766 782.483C333.208 799.318 309.012 815.214 285.85 829.727C254.219 849.549 223.07 867.633 192.402 883.978L193.359 884Z" fill="url(#paint14_linear_1002_314)"/>
<path d="M223.953 884C248.634 870.357 273.514 855.594 298.89 839.546C322.33 824.722 346.454 808.631 370.6 791.714C388.544 779.169 406.472 766.292 423.809 753.83C478.693 714.376 530.54 677.107 587.593 646.499C661.996 606.314 733.511 582.255 812.653 570.801C891.549 559.243 983.534 561.67 1093.86 578.219C1132.24 583.99 1174.81 591.629 1223.95 601.578C1243.52 605.544 1263.32 609.649 1282.47 613.62C1402.9 638.587 1516.65 662.171 1628.05 663.979C1702.83 665.19 1761.92 661.496 1814 652.352C1876.33 641.408 1927.1 622.76 1968.97 595.422V594.864C1870.97 658.948 1735.58 665.276 1628.06 663.546C1516.72 661.742 1403.01 638.168 1282.63 613.205C1263.48 609.234 1243.7 605.129 1224.1 601.162C1174.96 591.214 1132.4 583.562 1093.99 577.804C983.584 561.25 891.516 558.824 812.569 570.39C771.949 576.245 732.35 585.777 694.58 598.792C658.569 611.137 623.476 626.636 587.299 646.175C530.206 676.804 478.348 714.086 423.448 753.544C406.116 766.007 388.188 778.892 370.249 791.424C346.109 808.337 321.99 824.424 298.556 839.243C273.147 855.314 247.964 870.243 223.008 884.03L223.953 884Z" fill="url(#paint15_linear_1002_314)"/>
<path d="M253.76 884C273.08 872.947 292.363 861.283 311.608 849.01C335.254 833.918 359.306 817.632 383.096 800.602C403.777 785.839 424.335 770.583 444.21 755.828C495.556 717.72 544.054 681.727 597.27 651.369C671.455 608.78 742.375 582.874 820.465 569.854C900.007 556.47 992.343 557.668 1102.77 573.517C1142.12 579.175 1184.84 586.728 1233.37 596.607C1259.76 601.98 1286.4 607.638 1312.16 613.105C1425.46 637.156 1532.47 659.869 1638.02 664.273C1714.54 667.461 1774.4 665.57 1826.4 658.247C1882.18 650.418 1929.1 636.36 1968.98 615.467V614.931C1872.01 665.787 1748.1 668.434 1638.05 663.844C1532.56 659.445 1425.57 636.736 1312.31 612.69C1286.55 607.223 1259.91 601.569 1233.5 596.192C1184.97 586.313 1142.23 578.756 1102.87 573.094C992.381 557.236 899.968 556.038 820.348 569.43C779.736 576.194 740.31 586.712 702.91 600.76C667.517 613.966 632.852 630.408 596.941 651.023C543.693 681.398 495.189 717.4 443.832 755.517C423.952 770.271 403.399 785.523 382.718 800.287C358.939 817.308 334.881 833.594 311.258 848.677C291.812 861.077 272.329 872.851 252.809 884H253.76Z" fill="url(#paint16_linear_1002_314)"/>
<path d="M283.015 884C296.821 875.813 310.581 867.306 324.294 858.479C348.101 843.145 372.08 826.664 395.564 809.496C418.837 792.522 441.821 774.891 464.054 757.831C512.024 721.029 557.329 686.268 606.912 656.244C680.836 611.206 751.167 583.462 828.25 568.928C908.382 553.702 1001.08 553.676 1111.64 568.841C1151.77 574.357 1194.65 581.818 1242.75 591.655C1275.94 598.442 1309.31 605.73 1341.58 612.781C1447.87 635.992 1548.26 657.914 1647.97 664.584C1727.22 669.887 1786.06 669.74 1838.72 664.113C1888.43 658.797 1931.43 648.493 1968.96 632.839V632.276C1872.62 672.301 1753.99 671.246 1648.01 664.156C1548.35 657.49 1447.99 635.572 1341.73 612.366C1309.47 605.315 1276.09 598.031 1242.89 591.239C1194.78 581.399 1151.87 573.937 1111.73 568.418C1001.1 553.239 908.32 553.278 828.111 568.508C750.955 583.06 680.558 610.83 606.567 655.885C556.957 685.927 511.64 720.696 463.659 757.507C441.41 774.558 418.448 792.193 395.175 809.158C371.702 826.322 347.734 842.799 323.938 858.124C310.036 867.064 296.089 875.683 282.098 883.983L283.015 884Z" fill="url(#paint17_linear_1002_314)"/>
<path d="M311.628 884C320.116 878.769 328.576 873.414 337.009 867.935C360.927 852.363 384.845 835.7 408.057 818.381C433.772 799.223 459.003 779.2 483.394 759.83C528.154 724.295 570.434 690.728 616.585 661.111C690.208 613.594 759.949 584.007 836.059 567.994C916.714 550.916 1009.78 549.658 1120.54 564.153C1161.35 569.503 1204.41 576.879 1252.17 586.698C1292.08 594.916 1332.08 603.918 1370.75 612.651C1470.16 635.084 1564.05 656.275 1657.95 664.896C1702.25 668.962 1747.1 672.016 1791.14 672.016C1853.36 672.016 1913.94 665.912 1968.97 647.944V647.477C1875.06 678.188 1764.91 674.295 1658.03 664.468C1564.18 655.851 1470.31 634.669 1370.93 612.24C1332.25 603.511 1292.26 594.505 1252.34 586.287C1204.56 576.463 1161.48 569.088 1120.65 563.733C1068.98 556.972 1020.17 553.629 975.597 553.784C925.302 553.966 878.317 558.607 835.937 567.579C759.732 583.609 689.941 613.222 616.257 660.778C570.089 690.412 527.815 723.988 483.021 759.531C458.63 778.897 433.405 798.92 407.696 818.069C384.506 835.372 360.616 852.051 336.681 867.606C328.07 873.198 319.432 878.662 310.766 884H311.628Z" fill="url(#paint18_linear_1002_314)"/>
<path d="M339.529 884C342.941 881.82 346.337 879.62 349.719 877.399C373.771 861.628 397.6 844.763 420.545 827.27C448.557 805.958 475.835 783.529 502.212 761.837C543.929 727.53 583.333 695.127 626.253 665.981C699.531 615.952 768.649 584.522 843.869 567.064C925.024 548.118 1018.43 545.635 1129.44 559.472C1170.85 564.663 1214.08 571.926 1261.59 581.74C1308.14 591.348 1354.61 602.226 1399.54 612.742C1492.24 634.439 1579.76 654.934 1667.92 665.198C1726.7 672.042 1795.85 678.608 1863.24 675.615C1901.97 673.884 1937.03 669.091 1968.97 661.141V660.592C1876.4 683.517 1770.66 676.726 1668 664.775C1579.91 654.514 1492.38 634.024 1399.7 612.331C1354.76 601.811 1308.29 590.937 1261.75 581.325C1214.22 571.51 1170.97 564.222 1129.54 559.048C1077.74 552.59 1028.68 549.696 983.735 550.449C933.29 551.288 886.188 556.743 843.725 566.653C768.46 584.128 699.242 615.588 625.908 665.657C582.972 694.82 543.585 727.227 501.833 761.542C475.457 783.231 448.184 805.663 420.178 826.963C397.244 844.451 373.454 861.308 349.386 877.07C345.826 879.4 342.258 881.707 338.684 883.991L339.529 884Z" fill="url(#paint19_linear_1002_314)"/>
<path d="M366.727 884C389.382 868.86 411.671 852.786 433.03 836.155C463.195 812.723 492.336 787.877 520.526 763.848C557.655 732.198 596.046 699.47 635.912 670.848C708.779 618.287 777.346 585.011 851.66 566.134C932.125 545.604 1028.57 541.789 1138.32 554.792C1179.68 559.701 1224.32 567.098 1271 576.783C1324.08 587.792 1376.85 600.648 1427.89 613.079C1514.06 634.071 1595.45 653.9 1677.88 665.506C1737.47 673.897 1807.54 682.328 1875.41 681.233C1909.09 680.693 1940.16 677.851 1968.97 672.651V672.219C1874.06 689.461 1770.92 678.171 1677.98 665.082C1595.58 653.48 1514.21 633.661 1428.06 612.673C1377.01 600.237 1324.23 587.381 1271.14 576.368C1224.42 566.683 1179.78 559.278 1138.41 554.368C1086.45 548.213 1037.14 545.769 991.848 547.114C941.231 548.611 894.023 554.874 851.487 565.714C811.538 575.862 773.842 589.937 736.252 608.732C703.245 625.234 670.304 645.448 635.534 670.523C595.652 699.154 557.255 731.89 520.115 763.549C491.936 787.569 462.822 812.429 432.635 835.839C411.131 852.579 388.692 868.765 365.887 883.987L366.727 884Z" fill="url(#paint20_linear_1002_314)"/>
<path d="M393.195 884C411.122 871.499 428.655 858.444 445.514 845.044C477.698 819.523 508.531 792.245 538.35 765.885C572.876 735.351 608.581 703.774 645.576 675.731C718.009 620.606 785.976 585.491 859.466 565.221C940.326 542.832 1037.14 537.749 1147.22 550.125C1189.06 554.835 1233.87 562.141 1280.41 571.839C1339.89 584.232 1398.8 599.207 1455.76 613.689C1535.61 633.985 1611.03 653.156 1687.85 665.826C1748.04 675.774 1818.83 686 1887.54 686.757C1916.42 687.077 1943.48 685.719 1968.97 682.656V682.224C1875.88 693.47 1777.2 680.126 1687.96 665.41C1611.16 652.745 1535.76 633.578 1455.93 613.283C1398.96 598.801 1340.05 583.825 1280.55 571.428C1233.99 561.726 1189.16 554.416 1147.3 549.705C1095.18 543.844 1045.62 541.858 999.988 543.796C949.226 545.959 901.879 553.023 859.26 564.819C819.473 575.793 781.943 590.82 744.57 610.756C712.141 628.059 679.624 649.207 645.165 675.433C608.158 703.48 572.448 735.065 537.911 765.608C508.097 791.994 477.281 819.246 445.097 844.767C428.099 858.276 410.421 871.43 392.344 884.021L393.195 884Z" fill="url(#paint21_linear_1002_314)"/>
<path d="M418.914 884C432.293 874.236 445.322 864.213 458 853.933C492.064 826.349 524.41 796.645 555.698 767.918C587.771 738.466 620.933 708.009 655.264 680.589C728.193 622.09 793.584 586.218 867.291 564.278C948.501 540.025 1045.7 533.683 1156.13 545.432C1198.41 549.934 1243.4 557.15 1289.85 566.869C1355.57 580.629 1420.4 597.862 1483.08 614.529C1556.8 634.132 1626.47 652.659 1697.82 666.142C1758.34 677.565 1829.65 689.586 1899.63 692.151C1922.74 693.057 1945.91 692.775 1968.97 691.308V690.906C1877.81 697.005 1783.49 681.869 1697.95 665.726C1626.63 652.265 1556.97 633.747 1483.24 614.144C1420.54 597.477 1355.71 580.24 1289.96 566.48C1243.5 556.752 1198.49 549.532 1156.18 545.025C1045.65 533.268 948.385 539.618 867.068 563.898C827.431 575.698 790.096 591.681 752.929 612.777C721.062 630.849 688.961 652.949 654.836 680.33C620.527 707.758 587.353 738.219 555.27 767.681C523.992 796.402 491.647 826.102 457.594 853.673C444.829 864.055 431.618 874.185 418.102 884.039L418.914 884Z" fill="url(#paint22_linear_1002_314)"/>
<path d="M443.876 884C452.943 877.056 461.815 869.991 470.492 862.804C506.303 833.2 540.022 801.052 572.584 769.964C602.348 741.567 633.13 712.205 664.919 685.442C737.291 624.309 802.11 586.65 875.088 563.331C956.649 537.204 1054.2 529.591 1165.02 540.729C1207.72 545.025 1252.91 552.149 1299.25 561.899C1371.04 576.991 1441.56 596.633 1509.76 615.627C1574.67 633.704 1641.8 652.395 1707.78 666.41C1768.34 679.265 1839.93 692.999 1911.7 697.359C1930.75 698.536 1949.86 698.969 1968.96 698.657V698.082C1883.25 699.518 1794.13 684.274 1707.93 665.977C1641.94 651.966 1574.82 633.275 1509.9 615.199C1441.69 596.205 1371.16 576.558 1299.35 561.462C1252.96 551.708 1207.78 544.592 1165.04 540.267C1054.13 529.128 956.488 536.741 874.832 562.894C835.339 575.516 798.183 592.455 761.248 614.675C729.927 633.522 698.266 656.564 664.463 685.113C632.674 711.884 601.892 741.255 572.128 769.657C539.549 800.737 505.858 832.88 470.058 862.471C461.281 869.738 452.281 876.896 443.059 883.944L443.876 884Z" fill="url(#paint23_linear_1002_314)"/>
<path d="M468.064 884C473.104 879.937 478.073 875.839 482.972 871.707C520.412 840.13 555.282 805.525 589.018 772.08C616.613 744.712 645.154 716.405 674.562 690.326C746.317 626.541 810.579 587.091 882.867 562.414C964.745 534.414 1062.66 525.547 1173.89 536.062C1216.99 540.141 1262.33 547.17 1308.64 556.955C1385.74 573.236 1461.18 595.297 1534.13 616.648C1594.2 634.219 1656.35 652.386 1717.76 666.747C1774.25 680.156 1848.72 696.334 1923.76 702.563C1939.23 703.846 1954.3 704.678 1968.97 705.059V704.726C1885.05 702.563 1799.96 685.801 1717.92 666.336C1656.53 651.98 1594.43 633.812 1534.33 616.246C1461.36 594.908 1385.91 572.847 1308.79 556.553C1262.45 546.764 1217.08 539.73 1173.96 535.651C1062.63 525.123 964.612 534.003 882.645 562.037C810.278 586.745 745.977 626.229 674.145 690.075C644.725 716.158 616.185 744.465 588.584 771.829C554.86 805.274 519.989 839.857 482.566 871.43C477.559 875.66 472.47 879.855 467.297 884.013L468.064 884Z" fill="url(#paint24_linear_1002_314)"/>
<path d="M491.482 884C492.814 882.87 494.139 881.735 495.46 880.596C534.396 847.072 570.307 810.032 605.038 774.212C630.625 747.826 657.035 720.575 684.235 695.201C732.116 650.47 798.853 594.847 890.683 561.488C972.844 531.607 1071.13 521.481 1182.8 531.386C1226.27 535.245 1271.79 542.2 1318.06 552.002C1400.9 569.577 1481.66 594.341 1559.75 618.296C1614.66 635.136 1671.43 652.546 1727.74 667.046C1802.73 686.511 1885.25 704.812 1968.98 710.276V709.843C1885.32 704.38 1802.86 686.108 1727.91 666.635C1671.61 652.144 1614.85 634.733 1559.92 617.894C1481.82 593.939 1401.05 569.17 1318.18 551.587C1271.87 541.763 1226.33 534.821 1182.83 530.958C1071.05 521.044 972.672 531.187 890.421 561.099C798.492 594.492 731.699 650.158 683.779 694.924C656.574 720.302 630.136 747.575 604.571 773.953C569.851 809.764 533.957 846.796 495.031 880.31C493.6 881.545 492.161 882.774 490.715 884H491.482Z" fill="url(#paint25_linear_1002_314)"/>
<path d="M514.108 884C552.027 850.01 586.869 812.628 620.616 776.384C644.279 750.984 668.748 724.714 693.884 700.071C741.298 653.541 807.401 595.634 898.468 560.558C980.897 528.795 1079.55 517.406 1191.68 526.706C1235.51 530.344 1281.2 537.187 1327.46 547.036C1415.87 565.874 1501.75 593.515 1584.81 620.247C1634.73 636.312 1686.34 652.922 1737.7 667.34C1818.78 690.209 1885.61 704.466 1948.01 712.213C1955.06 713.079 1962.04 713.867 1968.97 714.579V714.099C1885.34 705.66 1805.65 686.048 1737.89 666.95C1686.54 652.533 1634.94 635.927 1585.03 619.862C1501.95 593.121 1416.07 565.476 1327.63 546.63C1281.33 536.767 1235.61 529.92 1191.75 526.299C1138.66 521.896 1087.83 522.173 1040.7 527.126C989.034 532.55 941.104 543.675 898.24 560.195C859.103 575.269 822.486 595.076 786.308 620.753C756.132 642.16 726.63 667.288 693.467 699.834C668.325 724.489 643.85 750.759 620.188 776.163C586.352 812.498 551.415 849.979 513.391 884.03L514.108 884Z" fill="url(#paint26_linear_1002_314)"/>
<path d="M536.041 884C571.501 850.494 604.135 814.025 635.824 778.607C711.155 694.409 789.051 607.344 906.278 559.628C1052.27 500.203 1221.02 517.289 1336.88 542.092C1430.66 562.163 1521.49 592.84 1609.32 622.501C1654.46 637.748 1701.1 653.511 1747.67 667.66C1826.28 691.55 1895.81 707.633 1960.24 716.824C1963.16 717.24 1966.07 717.641 1968.97 718.027V717.547C1901.54 708.463 1828.54 691.779 1747.88 667.257C1701.34 653.113 1654.67 637.35 1609.54 622.107C1521.69 592.438 1430.85 561.756 1337.03 541.677C1260.35 525.266 1186.39 517.683 1117.21 519.141C1038.38 520.802 967.325 534.28 906.016 559.247C877.809 570.732 851.316 584.574 825.022 601.565C801.588 616.704 778.855 634.033 755.493 654.523C712.106 692.588 673.092 736.194 635.346 778.36C603.579 813.869 570.861 850.433 535.301 884H536.041Z" fill="#03162B"/>
</g>
<defs>
<linearGradient id="paint0_linear_1002_314" x1="-570.291" y1="417.593" x2="2439.8" y2="417.593" gradientUnits="userSpaceOnUse">
<stop stop-color="#00589C"/>
<stop offset="0.5" stop-color="#00FFD9"/>
<stop offset="1" stop-color="#0026A3"/>
</linearGradient>
<linearGradient id="paint1_linear_1002_314" x1="-560.563" y1="443.097" x2="2441.82" y2="443.097" gradientUnits="userSpaceOnUse">
<stop stop-color="#005698"/>
<stop offset="0.5" stop-color="#00F6D3"/>
<stop offset="1" stop-color="#00259F"/>
</linearGradient>
<linearGradient id="paint2_linear_1002_314" x1="-550.831" y1="469.068" x2="2443.84" y2="469.068" gradientUnits="userSpaceOnUse">
<stop stop-color="#005394"/>
<stop offset="0.5" stop-color="#00EECC"/>
<stop offset="1" stop-color="#00259A"/>
</linearGradient>
<linearGradient id="paint3_linear_1002_314" x1="-541.106" y1="495.531" x2="2445.85" y2="495.531" gradientUnits="userSpaceOnUse">
<stop stop-color="#00518F"/>
<stop offset="0.5" stop-color="#00E5C6"/>
<stop offset="1" stop-color="#002496"/>
</linearGradient>
<linearGradient id="paint4_linear_1002_314" x1="-531.374" y1="520.507" x2="2447.86" y2="520.507" gradientUnits="userSpaceOnUse">
<stop stop-color="#004E8B"/>
<stop offset="0.5" stop-color="#00DCBF"/>
<stop offset="1" stop-color="#002491"/>
</linearGradient>
<linearGradient id="paint5_linear_1002_314" x1="-521.642" y1="541.789" x2="2449.89" y2="541.789" gradientUnits="userSpaceOnUse">
<stop stop-color="#014C87"/>
<stop offset="0.5" stop-color="#01D4B9"/>
<stop offset="1" stop-color="#01238D"/>
</linearGradient>
<linearGradient id="paint6_linear_1002_314" x1="-511.911" y1="563.699" x2="2451.91" y2="563.699" gradientUnits="userSpaceOnUse">
<stop stop-color="#014983"/>
<stop offset="0.5" stop-color="#01CBB2"/>
<stop offset="1" stop-color="#012288"/>
</linearGradient>
<linearGradient id="paint7_linear_1002_314" x1="-502.186" y1="586.161" x2="2453.91" y2="586.161" gradientUnits="userSpaceOnUse">
<stop stop-color="#01477F"/>
<stop offset="0.5" stop-color="#01C3AC"/>
<stop offset="1" stop-color="#012284"/>
</linearGradient>
<linearGradient id="paint8_linear_1002_314" x1="-492.448" y1="609.295" x2="2455.93" y2="609.295" gradientUnits="userSpaceOnUse">
<stop stop-color="#01447B"/>
<stop offset="0.5" stop-color="#01BAA5"/>
<stop offset="1" stop-color="#01217F"/>
</linearGradient>
<linearGradient id="paint9_linear_1002_314" x1="-482.722" y1="632.934" x2="2457.94" y2="632.934" gradientUnits="userSpaceOnUse">
<stop stop-color="#014276"/>
<stop offset="0.5" stop-color="#01B19F"/>
<stop offset="1" stop-color="#01217B"/>
</linearGradient>
<linearGradient id="paint10_linear_1002_314" x1="-472.993" y1="656.205" x2="2459.96" y2="656.205" gradientUnits="userSpaceOnUse">
<stop stop-color="#014072"/>
<stop offset="0.5" stop-color="#01A999"/>
<stop offset="1" stop-color="#012077"/>
</linearGradient>
<linearGradient id="paint11_linear_1002_314" x1="-463.26" y1="677.929" x2="2461.96" y2="677.929" gradientUnits="userSpaceOnUse">
<stop stop-color="#013D6E"/>
<stop offset="0.5" stop-color="#01A092"/>
<stop offset="1" stop-color="#011F72"/>
</linearGradient>
<linearGradient id="paint12_linear_1002_314" x1="-453.528" y1="697.195" x2="2463.97" y2="697.195" gradientUnits="userSpaceOnUse">
<stop stop-color="#013B6A"/>
<stop offset="0.5" stop-color="#01978C"/>
<stop offset="1" stop-color="#011F6E"/>
</linearGradient>
<linearGradient id="paint13_linear_1002_314" x1="-443.802" y1="713.714" x2="2465.99" y2="713.714" gradientUnits="userSpaceOnUse">
<stop stop-color="#013866"/>
<stop offset="0.5" stop-color="#018F85"/>
<stop offset="1" stop-color="#011E69"/>
</linearGradient>
<linearGradient id="paint14_linear_1002_314" x1="-434.065" y1="724.957" x2="2467.98" y2="724.957" gradientUnits="userSpaceOnUse">
<stop stop-color="#023661"/>
<stop offset="0.5" stop-color="#02867F"/>
<stop offset="1" stop-color="#021E65"/>
</linearGradient>
<linearGradient id="paint15_linear_1002_314" x1="-424.341" y1="723.598" x2="2469.98" y2="723.598" gradientUnits="userSpaceOnUse">
<stop stop-color="#02335D"/>
<stop offset="0.5" stop-color="#027E78"/>
<stop offset="1" stop-color="#021D60"/>
</linearGradient>
<linearGradient id="paint16_linear_1002_314" x1="-414.609" y1="722.11" x2="2471.97" y2="722.11" gradientUnits="userSpaceOnUse">
<stop stop-color="#023159"/>
<stop offset="0.5" stop-color="#027572"/>
<stop offset="1" stop-color="#021D5C"/>
</linearGradient>
<linearGradient id="paint17_linear_1002_314" x1="-404.883" y1="720.527" x2="2473.96" y2="720.527" gradientUnits="userSpaceOnUse">
<stop stop-color="#022E55"/>
<stop offset="0.5" stop-color="#026C6B"/>
<stop offset="1" stop-color="#021C57"/>
</linearGradient>
<linearGradient id="paint18_linear_1002_314" x1="-395.149" y1="718.888" x2="2475.94" y2="718.888" gradientUnits="userSpaceOnUse">
<stop stop-color="#022C51"/>
<stop offset="0.5" stop-color="#026465"/>
<stop offset="1" stop-color="#021B53"/>
</linearGradient>
<linearGradient id="paint19_linear_1002_314" x1="-385.42" y1="717.166" x2="2477.95" y2="717.166" gradientUnits="userSpaceOnUse">
<stop stop-color="#022A4C"/>
<stop offset="0.5" stop-color="#025B5F"/>
<stop offset="1" stop-color="#021B4F"/>
</linearGradient>
<linearGradient id="paint20_linear_1002_314" x1="-375.694" y1="715.38" x2="2480.02" y2="715.38" gradientUnits="userSpaceOnUse">
<stop stop-color="#022748"/>
<stop offset="0.5" stop-color="#025258"/>
<stop offset="1" stop-color="#021A4A"/>
</linearGradient>
<linearGradient id="paint21_linear_1002_314" x1="-365.963" y1="713.528" x2="2482.09" y2="713.528" gradientUnits="userSpaceOnUse">
<stop stop-color="#022544"/>
<stop offset="0.5" stop-color="#024A52"/>
<stop offset="1" stop-color="#021A46"/>
</linearGradient>
<linearGradient id="paint22_linear_1002_314" x1="-356.236" y1="711.638" x2="2484.16" y2="711.638" gradientUnits="userSpaceOnUse">
<stop stop-color="#022240"/>
<stop offset="0.5" stop-color="#02414B"/>
<stop offset="1" stop-color="#021941"/>
</linearGradient>
<linearGradient id="paint23_linear_1002_314" x1="-346.498" y1="709.678" x2="2486.22" y2="709.678" gradientUnits="userSpaceOnUse">
<stop stop-color="#03203C"/>
<stop offset="0.5" stop-color="#033945"/>
<stop offset="1" stop-color="#03183D"/>
</linearGradient>
<linearGradient id="paint24_linear_1002_314" x1="-336.772" y1="707.676" x2="2488.26" y2="707.676" gradientUnits="userSpaceOnUse">
<stop stop-color="#031D38"/>
<stop offset="0.5" stop-color="#03303E"/>
<stop offset="1" stop-color="#031838"/>
</linearGradient>
<linearGradient id="paint25_linear_1002_314" x1="-327.043" y1="705.639" x2="2490.29" y2="705.639" gradientUnits="userSpaceOnUse">
<stop stop-color="#031B33"/>
<stop offset="0.5" stop-color="#032738"/>
<stop offset="1" stop-color="#031734"/>
</linearGradient>
<linearGradient id="paint26_linear_1002_314" x1="-317.316" y1="703.584" x2="2492.32" y2="703.584" gradientUnits="userSpaceOnUse">
<stop stop-color="#03182F"/>
<stop offset="0.5" stop-color="#031F31"/>
<stop offset="1" stop-color="#03172F"/>
</linearGradient>
</defs>
</svg>
