<svg width="169" height="48" viewBox="0 0 169 48" fill="none" xmlns="http://www.w3.org/2000/svg">
<path d="M20.6251 16.7569C23.5048 18.0981 26.4731 18.7636 28.9758 18.632H29.0213L29.201 0.789457C29.2023 0.647654 29.1651 0.508149 29.0933 0.385875C29.0215 0.263602 28.9177 0.163163 28.7932 0.0953123C28.6687 0.0274611 28.5281 -0.00524854 28.3864 0.000684872C28.2447 0.00661828 28.1073 0.0509713 27.9889 0.128996L12.9805 10.251C14.1951 12.5715 17.0014 15.0665 20.6251 16.7569Z" fill="url(#paint0_linear_3543_23)"/>
<path d="M28.3585 20.3452C25.7394 20.3452 22.7711 19.629 19.9091 18.2929C15.9615 16.4532 12.9933 13.8291 11.5585 11.2075L3.93661 16.3571C3.80468 16.4455 3.70278 16.5719 3.64447 16.7196C3.58616 16.8673 3.5742 17.0293 3.61019 17.1839C3.64618 17.3386 3.7284 17.4786 3.84593 17.5854C3.96346 17.6922 4.11071 17.7607 4.26811 17.7818L17.0826 19.5253C17.8358 19.6277 18.5263 20 19.026 20.5729L27.5386 30.3077C27.6431 30.4269 27.7814 30.5116 27.935 30.5507C28.0887 30.5897 28.2506 30.5813 28.3994 30.5265C28.5482 30.4717 28.6769 30.3731 28.7685 30.2437C28.8601 30.1143 28.9104 29.9602 28.9126 29.8016L29.0063 20.33C28.7954 20.3401 28.5795 20.3452 28.3585 20.3452Z" fill="url(#paint1_linear_3543_23)"/>
<path d="M28.3577 18.9939C25.7387 18.9939 22.7704 18.2778 19.9084 16.9416C13.1773 13.8038 9.28031 8.3835 11.0517 4.6004C12.823 0.8173 19.4656 0.318791 26.1967 3.45661C28.3132 4.42546 30.2617 5.72558 31.9688 7.30803C32.1322 7.46273 32.2275 7.67601 32.2336 7.90095C32.2398 8.12589 32.1564 8.34407 32.0017 8.50749C31.847 8.67091 31.6337 8.76618 31.4088 8.77235C31.1838 8.77852 30.9656 8.69508 30.8022 8.54039C29.23 7.08507 27.4362 5.88922 25.4882 4.99769C19.8072 2.34825 13.901 2.49755 12.5851 5.30894C11.2693 8.12032 14.9512 12.7587 20.6245 15.4056C23.5042 16.7468 26.4725 17.4149 28.9752 17.2807C31.2957 17.1593 32.9076 16.3799 33.5124 15.0817C34.1425 13.7279 33.5326 12.1818 32.9101 11.124C32.8536 11.028 32.8166 10.9218 32.8012 10.8114C32.7857 10.7011 32.7922 10.5888 32.8201 10.4809C32.8481 10.3731 32.897 10.2718 32.9641 10.1828C33.0312 10.0939 33.1152 10.019 33.2112 9.96253C33.3073 9.90603 33.4135 9.86901 33.5239 9.85357C33.6342 9.83813 33.7465 9.84457 33.8544 9.87254C34.0722 9.92901 34.2587 10.0697 34.3727 10.2637C35.5444 12.2552 35.7848 14.2214 35.0509 15.7979C34.1678 17.6907 32.0422 18.8345 29.0638 18.9762C28.836 18.9888 28.5981 18.9939 28.3577 18.9939Z" fill="url(#paint2_linear_3543_23)"/>
<path d="M168.314 17.1007C168.314 17.6626 168.278 18.1701 168.205 18.6233H156.759C156.85 19.8196 157.294 20.7802 158.091 21.5053C158.889 22.2303 159.868 22.5928 161.028 22.5928C162.695 22.5928 163.873 21.895 164.562 20.4993H167.906C167.453 21.8768 166.628 23.0097 165.432 23.8979C164.254 24.7679 162.786 25.2029 161.028 25.2029C159.596 25.2029 158.309 24.8857 157.167 24.2513C156.043 23.5988 155.155 22.6925 154.502 21.5325C153.868 20.3543 153.551 18.9949 153.551 17.4542C153.551 15.9135 153.859 14.5631 154.475 13.4031C155.11 12.2249 155.989 11.3186 157.112 10.6842C158.254 10.0498 159.559 9.73264 161.028 9.73264C162.441 9.73264 163.701 10.0408 164.807 10.657C165.912 11.2733 166.773 12.1434 167.39 13.2671C168.006 14.3728 168.314 15.6507 168.314 17.1007ZM165.079 16.1219C165.061 14.98 164.653 14.0647 163.855 13.3759C163.058 12.6871 162.07 12.3427 160.892 12.3427C159.822 12.3427 158.907 12.6871 158.146 13.3759C157.384 14.0465 156.931 14.9619 156.786 16.1219H165.079Z" fill="white"/>
<path d="M144.467 9.73264C145.645 9.73264 146.696 9.97733 147.621 10.4667C148.563 10.9561 149.297 11.6811 149.823 12.6418C150.367 13.6025 150.639 14.7625 150.639 16.1219V24.9582H147.566V16.5841C147.566 15.2428 147.231 14.2187 146.56 13.5118C145.89 12.7868 144.974 12.4243 143.814 12.4243C142.654 12.4243 141.73 12.7868 141.041 13.5118C140.37 14.2187 140.035 15.2428 140.035 16.5841V24.9582H136.963V16.5841C136.963 15.2428 136.627 14.2187 135.957 13.5118C135.286 12.7868 134.371 12.4243 133.211 12.4243C132.051 12.4243 131.126 12.7868 130.438 13.5118C129.767 14.2187 129.432 15.2428 129.432 16.5841V24.9582H126.332V9.97733H129.432V11.6902C129.939 11.0739 130.583 10.5936 131.362 10.2492C132.141 9.90483 132.975 9.73264 133.863 9.73264C135.06 9.73264 136.129 9.98639 137.071 10.4939C138.014 11.0014 138.739 11.7355 139.247 12.6962C139.7 11.7899 140.407 11.0739 141.367 10.5483C142.328 10.0045 143.361 9.73264 144.467 9.73264Z" fill="white"/>
<path d="M122.242 9.97733V24.9582H119.143V23.1909C118.653 23.8072 118.01 24.2966 117.212 24.6591C116.433 25.0035 115.599 25.1757 114.711 25.1757C113.533 25.1757 112.472 24.931 111.53 24.4416C110.605 23.9522 109.871 23.2272 109.328 22.2665C108.802 21.3059 108.539 20.1458 108.539 18.7864V9.97733H111.611V18.3242C111.611 19.6655 111.947 20.6987 112.617 21.4237C113.288 22.1306 114.203 22.484 115.363 22.484C116.523 22.484 117.439 22.1306 118.109 21.4237C118.798 20.6987 119.143 19.6655 119.143 18.3242V9.97733H122.242Z" fill="white"/>
<path d="M106.335 9.97733L97.1451 32H93.9368L96.9819 24.7135L91.082 9.97733H94.535L98.7492 21.3965L103.127 9.97733H106.335Z" fill="white"/>
<path d="M82.7998 22.4297H89.597V24.9582H79.2109V22.4297L86.0353 12.5059H79.2109V9.97733H89.597V12.5059L82.7998 22.4297Z" fill="white"/>
<path d="M77.0016 17.1007C77.0016 17.6626 76.9654 18.1701 76.8929 18.6233H65.4465C65.5372 19.8196 65.9812 20.7802 66.7788 21.5053C67.5763 22.2303 68.5551 22.5928 69.7151 22.5928C71.3827 22.5928 72.5609 21.895 73.2496 20.4993H76.5938C76.1407 21.8768 75.316 23.0097 74.1197 23.8979C72.9415 24.7679 71.4733 25.2029 69.7151 25.2029C68.2832 25.2029 66.9963 24.8857 65.8544 24.2513C64.7306 23.5988 63.8424 22.6925 63.1899 21.5325C62.5555 20.3543 62.2383 18.9949 62.2383 17.4542C62.2383 15.9135 62.5464 14.5631 63.1627 13.4031C63.7971 12.2249 64.6762 11.3186 65.8 10.6842C66.9419 10.0498 68.2469 9.73264 69.7151 9.73264C71.1289 9.73264 72.3887 10.0408 73.4943 10.657C74.6 11.2733 75.461 12.1434 76.0772 13.2671C76.6935 14.3728 77.0016 15.6507 77.0016 17.1007ZM73.7662 16.1219C73.7481 14.98 73.3403 14.0647 72.5427 13.3759C71.7452 12.6871 70.7573 12.3427 69.5792 12.3427C68.5098 12.3427 67.5944 12.6871 66.8331 13.3759C66.0719 14.0465 65.6187 14.9619 65.4737 16.1219H73.7662Z" fill="white"/>
<path d="M55.9088 24.9582L51.5586 17.3998H49.1932V24.9582H46.0938V6.06219H52.619C54.069 6.06219 55.2925 6.31595 56.2894 6.82347C57.3045 7.33099 58.0567 8.01071 58.5461 8.86261C59.0536 9.71452 59.3074 10.6661 59.3074 11.7174C59.3074 12.95 58.9449 14.0737 58.2198 15.0888C57.5129 16.0857 56.4163 16.7654 54.93 17.1279L59.6064 24.9582H55.9088ZM49.1932 14.9257H52.619C53.779 14.9257 54.6491 14.6356 55.2291 14.0556C55.8272 13.4756 56.1263 12.6962 56.1263 11.7174C56.1263 10.7386 55.8363 9.97734 55.2563 9.43357C54.6763 8.87167 53.7972 8.59073 52.619 8.59073H49.1932V14.9257Z" fill="white"/>
<path d="M101.437 45V36.672H102.565V45H101.437ZM106.813 45V36.672H107.941V45H106.813ZM102.205 41.208V40.176H107.089V41.208H102.205ZM110.666 41.376V40.428H112.922C113.41 40.428 113.786 40.304 114.05 40.056C114.314 39.808 114.446 39.472 114.446 39.048C114.446 38.648 114.314 38.316 114.05 38.052C113.794 37.788 113.422 37.656 112.934 37.656H110.666V36.672H112.97C113.498 36.672 113.958 36.776 114.35 36.984C114.742 37.184 115.042 37.46 115.25 37.812C115.466 38.164 115.574 38.568 115.574 39.024C115.574 39.496 115.466 39.908 115.25 40.26C115.042 40.612 114.742 40.888 114.35 41.088C113.958 41.28 113.498 41.376 112.97 41.376H110.666ZM109.91 45V36.672H111.038V45H109.91ZM114.71 45L111.686 41.268L112.754 40.896L116.138 45H114.71ZM119.964 45V36.672H120.756L124.284 42.468H123.744L127.272 36.672H128.064V45H126.936V38.652L127.2 38.724L124.416 43.296H123.624L120.84 38.724L121.092 38.652V45H119.964ZM132.263 45.12C131.743 45.12 131.271 44.992 130.847 44.736C130.423 44.472 130.087 44.116 129.839 43.668C129.599 43.22 129.479 42.716 129.479 42.156C129.479 41.596 129.599 41.092 129.839 40.644C130.087 40.196 130.419 39.84 130.835 39.576C131.259 39.312 131.735 39.18 132.263 39.18C132.695 39.18 133.079 39.272 133.415 39.456C133.759 39.632 134.035 39.88 134.243 40.2C134.451 40.512 134.567 40.876 134.591 41.292V43.008C134.567 43.416 134.451 43.78 134.243 44.1C134.043 44.42 133.771 44.672 133.427 44.856C133.091 45.032 132.703 45.12 132.263 45.12ZM132.443 44.1C132.979 44.1 133.411 43.92 133.739 43.56C134.067 43.192 134.231 42.724 134.231 42.156C134.231 41.764 134.155 41.424 134.003 41.136C133.859 40.84 133.651 40.612 133.379 40.452C133.107 40.284 132.791 40.2 132.431 40.2C132.071 40.2 131.751 40.284 131.471 40.452C131.199 40.62 130.983 40.852 130.823 41.148C130.671 41.436 130.595 41.768 130.595 42.144C130.595 42.528 130.671 42.868 130.823 43.164C130.983 43.452 131.203 43.68 131.483 43.848C131.763 44.016 132.083 44.1 132.443 44.1ZM134.159 45V43.464L134.363 42.072L134.159 40.692V39.3H135.251V45H134.159ZM140.855 45V41.676C140.855 41.244 140.719 40.888 140.447 40.608C140.175 40.328 139.823 40.188 139.391 40.188C139.103 40.188 138.847 40.252 138.623 40.38C138.399 40.508 138.223 40.684 138.095 40.908C137.967 41.132 137.903 41.388 137.903 41.676L137.459 41.424C137.459 40.992 137.555 40.608 137.747 40.272C137.939 39.936 138.207 39.672 138.551 39.48C138.895 39.28 139.283 39.18 139.715 39.18C140.147 39.18 140.527 39.288 140.855 39.504C141.191 39.72 141.455 40.004 141.647 40.356C141.839 40.7 141.935 41.068 141.935 41.46V45H140.855ZM136.823 45V39.3H137.903V45H136.823ZM145.821 45.12C145.301 45.12 144.829 44.992 144.405 44.736C143.981 44.472 143.645 44.116 143.397 43.668C143.157 43.22 143.037 42.716 143.037 42.156C143.037 41.596 143.157 41.092 143.397 40.644C143.645 40.196 143.977 39.84 144.393 39.576C144.817 39.312 145.293 39.18 145.821 39.18C146.253 39.18 146.637 39.272 146.973 39.456C147.317 39.632 147.593 39.88 147.801 40.2C148.009 40.512 148.125 40.876 148.149 41.292V43.008C148.125 43.416 148.009 43.78 147.801 44.1C147.601 44.42 147.329 44.672 146.985 44.856C146.649 45.032 146.261 45.12 145.821 45.12ZM146.001 44.1C146.537 44.1 146.969 43.92 147.297 43.56C147.625 43.192 147.789 42.724 147.789 42.156C147.789 41.764 147.713 41.424 147.561 41.136C147.417 40.84 147.209 40.612 146.937 40.452C146.665 40.284 146.349 40.2 145.989 40.2C145.629 40.2 145.309 40.284 145.029 40.452C144.757 40.62 144.541 40.852 144.381 41.148C144.229 41.436 144.153 41.768 144.153 42.144C144.153 42.528 144.229 42.868 144.381 43.164C144.541 43.452 144.761 43.68 145.041 43.848C145.321 44.016 145.641 44.1 146.001 44.1ZM147.717 45V43.464L147.921 42.072L147.717 40.692V39.3H148.809V45H147.717ZM152.746 47.508C152.162 47.508 151.642 47.4 151.186 47.184C150.738 46.968 150.378 46.664 150.106 46.272L150.802 45.564C151.034 45.86 151.31 46.084 151.63 46.236C151.95 46.396 152.33 46.476 152.77 46.476C153.354 46.476 153.814 46.32 154.15 46.008C154.494 45.704 154.666 45.292 154.666 44.772V43.356L154.858 42.072L154.666 40.8V39.3H155.746V44.772C155.746 45.316 155.618 45.792 155.362 46.2C155.114 46.608 154.762 46.928 154.306 47.16C153.858 47.392 153.338 47.508 152.746 47.508ZM152.746 44.904C152.226 44.904 151.758 44.78 151.342 44.532C150.934 44.284 150.61 43.944 150.37 43.512C150.13 43.072 150.01 42.58 150.01 42.036C150.01 41.492 150.13 41.008 150.37 40.584C150.61 40.152 150.934 39.812 151.342 39.564C151.758 39.308 152.226 39.18 152.746 39.18C153.194 39.18 153.59 39.268 153.934 39.444C154.278 39.62 154.55 39.868 154.75 40.188C154.958 40.5 155.07 40.868 155.086 41.292V42.804C155.062 43.22 154.946 43.588 154.738 43.908C154.538 44.22 154.266 44.464 153.922 44.64C153.578 44.816 153.186 44.904 152.746 44.904ZM152.962 43.884C153.314 43.884 153.622 43.808 153.886 43.656C154.158 43.504 154.366 43.292 154.51 43.02C154.654 42.74 154.726 42.416 154.726 42.048C154.726 41.68 154.65 41.36 154.498 41.088C154.354 40.808 154.15 40.592 153.886 40.44C153.622 40.28 153.31 40.2 152.95 40.2C152.59 40.2 152.274 40.28 152.002 40.44C151.73 40.592 151.514 40.808 151.354 41.088C151.202 41.36 151.126 41.676 151.126 42.036C151.126 42.396 151.202 42.716 151.354 42.996C151.514 43.276 151.73 43.496 152.002 43.656C152.282 43.808 152.602 43.884 152.962 43.884ZM159.971 45.12C159.403 45.12 158.891 44.992 158.435 44.736C157.979 44.472 157.619 44.116 157.355 43.668C157.091 43.22 156.959 42.712 156.959 42.144C156.959 41.584 157.087 41.08 157.343 40.632C157.607 40.184 157.959 39.832 158.399 39.576C158.847 39.312 159.347 39.18 159.899 39.18C160.427 39.18 160.891 39.3 161.291 39.54C161.699 39.78 162.015 40.112 162.239 40.536C162.471 40.96 162.587 41.44 162.587 41.976C162.587 42.056 162.583 42.144 162.575 42.24C162.567 42.328 162.551 42.432 162.527 42.552H157.715V41.652H161.951L161.555 42C161.555 41.616 161.487 41.292 161.351 41.028C161.215 40.756 161.023 40.548 160.775 40.404C160.527 40.252 160.227 40.176 159.875 40.176C159.507 40.176 159.183 40.256 158.903 40.416C158.623 40.576 158.407 40.8 158.255 41.088C158.103 41.376 158.027 41.716 158.027 42.108C158.027 42.508 158.107 42.86 158.267 43.164C158.427 43.46 158.655 43.692 158.951 43.86C159.247 44.02 159.587 44.1 159.971 44.1C160.291 44.1 160.583 44.044 160.847 43.932C161.119 43.82 161.351 43.652 161.543 43.428L162.239 44.136C161.967 44.456 161.631 44.7 161.231 44.868C160.839 45.036 160.419 45.12 159.971 45.12ZM163.765 45V39.3H164.845V45H163.765ZM164.845 41.748L164.437 41.568C164.437 40.84 164.605 40.26 164.941 39.828C165.277 39.396 165.761 39.18 166.393 39.18C166.681 39.18 166.941 39.232 167.173 39.336C167.405 39.432 167.621 39.596 167.821 39.828L167.113 40.56C166.993 40.432 166.861 40.34 166.717 40.284C166.573 40.228 166.405 40.2 166.213 40.2C165.813 40.2 165.485 40.328 165.229 40.584C164.973 40.84 164.845 41.228 164.845 41.748Z" fill="#D5D5D5"/>
<defs>
<linearGradient id="paint0_linear_3543_23" x1="21.0907" y1="0" x2="21.0907" y2="18.6484" gradientUnits="userSpaceOnUse">
<stop stop-color="#00BDCE"/>
<stop offset="1" stop-color="#FC0689"/>
</linearGradient>
<linearGradient id="paint1_linear_3543_23" x1="16.2981" y1="11.2075" x2="16.2981" y2="30.5748" gradientUnits="userSpaceOnUse">
<stop stop-color="#00BDCE"/>
<stop offset="1" stop-color="#FC0689"/>
</linearGradient>
<linearGradient id="paint2_linear_3543_23" x1="23.0464" y1="1.3967" x2="23.0464" y2="18.9939" gradientUnits="userSpaceOnUse">
<stop stop-color="#00BDCE"/>
<stop offset="1" stop-color="#FC0689"/>
</linearGradient>
</defs>
</svg>
