<svg width="165" height="40" viewBox="0 0 165 40" fill="none" xmlns="http://www.w3.org/2000/svg">
<path d="M17.0353 16.7569C19.915 18.0981 22.8832 18.7636 25.3859 18.632H25.4315L25.6111 0.789457C25.6125 0.647654 25.5753 0.508149 25.5034 0.385875C25.4316 0.263602 25.3279 0.163163 25.2034 0.0953123C25.0788 0.0274611 24.9382 -0.00524854 24.7965 0.000684872C24.6548 0.00661828 24.5174 0.0509713 24.399 0.128996L9.39062 10.251C10.6053 12.5715 13.4116 15.0665 17.0353 16.7569Z" fill="#ED4330"/>
<path d="M24.7686 20.3452C22.1496 20.3452 19.1813 19.629 16.3193 18.2929C12.3717 16.4532 9.40343 13.8291 7.96863 11.2075L0.346767 16.3571C0.214833 16.4455 0.112933 16.5719 0.0546232 16.7196C-0.00368679 16.8673 -0.0156431 17.0293 0.0203448 17.1839C0.0563327 17.3386 0.138559 17.4786 0.256085 17.5854C0.373612 17.6922 0.520867 17.7607 0.678262 17.7818L13.4927 19.5253C14.246 19.6277 14.9365 20 15.4361 20.5729L23.9487 30.3077C24.0533 30.4269 24.1915 30.5116 24.3452 30.5507C24.4989 30.5897 24.6608 30.5813 24.8096 30.5265C24.9583 30.4717 25.087 30.3731 25.1786 30.2437C25.2703 30.1143 25.3205 29.9602 25.3228 29.8016L25.4164 20.33C25.2056 20.3401 24.9896 20.3452 24.7686 20.3452Z" fill="#ED4330"/>
<path d="M24.7689 18.9939C22.1498 18.9939 19.1815 18.2778 16.3195 16.9416C9.58841 13.8038 5.69144 8.3835 7.46279 4.6004C9.23414 0.8173 15.8767 0.318791 22.6078 3.45661C24.7243 4.42546 26.6728 5.72558 28.3799 7.30803C28.5433 7.46273 28.6386 7.67601 28.6448 7.90095C28.6509 8.12589 28.5675 8.34407 28.4128 8.50749C28.2581 8.67091 28.0448 8.76618 27.8199 8.77235C27.5949 8.77852 27.3768 8.69508 27.2133 8.54039C25.6411 7.08507 23.8474 5.88922 21.8993 4.99769C16.2183 2.34825 10.3121 2.49755 8.99628 5.30894C7.68042 8.12032 11.3623 12.7587 17.0357 15.4056C19.9154 16.7468 22.8837 17.4149 25.3863 17.2807C27.7068 17.1593 29.3187 16.3799 29.9235 15.0817C30.5536 13.7279 29.9438 12.1818 29.3212 11.124C29.2648 11.028 29.2277 10.9218 29.2123 10.8114C29.1968 10.7011 29.2033 10.5888 29.2313 10.4809C29.2592 10.3731 29.3082 10.2718 29.3753 10.1828C29.4424 10.0939 29.5263 10.019 29.6224 9.96253C29.7184 9.90603 29.8246 9.86901 29.935 9.85357C30.0453 9.83813 30.1576 9.84457 30.2655 9.87254C30.4833 9.92901 30.6698 10.0697 30.7839 10.2637C31.9555 12.2552 32.1959 14.2214 31.4621 15.7979C30.5789 17.6907 28.4533 18.8345 25.4749 18.9762C25.2471 18.9888 25.0093 18.9939 24.7689 18.9939Z" fill="#ED4330"/>
<path d="M164.724 17.1007C164.724 17.6626 164.688 18.1701 164.616 18.6232H153.169C153.26 19.8195 153.704 20.7802 154.501 21.5052C155.299 22.2303 156.278 22.5928 157.438 22.5928C159.105 22.5928 160.284 21.8949 160.972 20.4993H164.316C163.863 21.8768 163.039 23.0097 161.842 23.8978C160.664 24.7679 159.196 25.2029 157.438 25.2029C156.006 25.2029 154.719 24.8857 153.577 24.2513C152.453 23.5987 151.565 22.6925 150.913 21.5324C150.278 20.3543 149.961 18.9948 149.961 17.4541C149.961 15.9135 150.269 14.5631 150.885 13.4031C151.52 12.2249 152.399 11.3186 153.523 10.6842C154.665 10.0498 155.97 9.7326 157.438 9.7326C158.852 9.7326 160.111 10.0407 161.217 10.657C162.323 11.2733 163.184 12.1433 163.8 13.2671C164.416 14.3728 164.724 15.6506 164.724 17.1007ZM161.489 16.1219C161.471 14.98 161.063 14.0646 160.265 13.3759C159.468 12.6871 158.48 12.3427 157.302 12.3427C156.232 12.3427 155.317 12.6871 154.556 13.3759C153.795 14.0465 153.341 14.9619 153.196 16.1219H161.489Z" fill="#ED4330"/>
<path d="M140.878 9.7326C142.056 9.7326 143.107 9.9773 144.032 10.4667C144.974 10.9561 145.708 11.6811 146.234 12.6418C146.778 13.6024 147.05 14.7625 147.05 16.1219V24.9582H143.977V16.5841C143.977 15.2428 143.642 14.2187 142.971 13.5118C142.301 12.7868 141.385 12.4243 140.225 12.4243C139.065 12.4243 138.141 12.7868 137.452 13.5118C136.782 14.2187 136.446 15.2428 136.446 16.5841V24.9582H133.374V16.5841C133.374 15.2428 133.039 14.2187 132.368 13.5118C131.697 12.7868 130.782 12.4243 129.622 12.4243C128.462 12.4243 127.537 12.7868 126.849 13.5118C126.178 14.2187 125.843 15.2428 125.843 16.5841V24.9582H122.743V9.9773H125.843V11.6902C126.35 11.0739 126.994 10.5936 127.773 10.2492C128.552 9.9048 129.386 9.7326 130.274 9.7326C131.471 9.7326 132.54 9.98636 133.483 10.4939C134.425 11.0014 135.15 11.7355 135.658 12.6962C136.111 11.7899 136.818 11.0739 137.778 10.5483C138.739 10.0045 139.772 9.7326 140.878 9.7326Z" fill="#ED4330"/>
<path d="M118.654 9.97729V24.9582H115.555V23.1909C115.065 23.8072 114.422 24.2966 113.624 24.6591C112.845 25.0035 112.011 25.1757 111.123 25.1757C109.945 25.1757 108.884 24.931 107.942 24.4416C107.018 23.9522 106.283 23.2272 105.74 22.2665C105.214 21.3058 104.951 20.1458 104.951 18.7864V9.97729H108.023V18.3242C108.023 19.6655 108.359 20.6986 109.029 21.4237C109.7 22.1306 110.615 22.484 111.775 22.484C112.936 22.484 113.851 22.1306 114.522 21.4237C115.21 20.6986 115.555 19.6655 115.555 18.3242V9.97729H118.654Z" fill="#ED4330"/>
<path d="M102.748 9.97729L93.5582 32H90.3499L93.395 24.7135L87.4951 9.97729H90.9481L95.1623 21.3965L99.5396 9.97729H102.748Z" fill="#ED4330"/>
<path d="M79.211 22.4296H86.0081V24.9582H75.6221V22.4296L82.4464 12.5058H75.6221V9.97729H86.0081V12.5058L79.211 22.4296Z" fill="#ED4330"/>
<path d="M73.4147 17.1007C73.4147 17.6626 73.3785 18.1701 73.306 18.6232H61.8596C61.9502 19.8195 62.3943 20.7802 63.1919 21.5052C63.9894 22.2303 64.9682 22.5928 66.1282 22.5928C67.7958 22.5928 68.9739 21.8949 69.6627 20.4993H73.0069C72.5538 21.8768 71.729 23.0097 70.5327 23.8978C69.3546 24.7679 67.8864 25.2029 66.1282 25.2029C64.6963 25.2029 63.4094 24.8857 62.2674 24.2513C61.1436 23.5987 60.2555 22.6925 59.603 21.5324C58.9686 20.3543 58.6514 18.9948 58.6514 17.4541C58.6514 15.9135 58.9595 14.5631 59.5758 13.4031C60.2102 12.2249 61.0893 11.3186 62.2131 10.6842C63.355 10.0498 64.66 9.7326 66.1282 9.7326C67.542 9.7326 68.8017 10.0407 69.9074 10.657C71.0131 11.2733 71.874 12.1433 72.4903 13.2671C73.1066 14.3728 73.4147 15.6506 73.4147 17.1007ZM70.1793 16.1219C70.1612 14.98 69.7533 14.0646 68.9558 13.3759C68.1583 12.6871 67.1704 12.3427 65.9923 12.3427C64.9229 12.3427 64.0075 12.6871 63.2462 13.3759C62.4849 14.0465 62.0318 14.9619 61.8868 16.1219H70.1793Z" fill="#ED4330"/>
<path d="M52.3209 24.9582L47.9708 17.3998H45.6054V24.9582H42.5059V6.06216H49.0311C50.4812 6.06216 51.7046 6.31592 52.7016 6.82344C53.7166 7.33096 54.4688 8.01067 54.9582 8.86258C55.4657 9.71449 55.7195 10.6661 55.7195 11.7174C55.7195 12.9499 55.357 14.0737 54.6319 15.0888C53.925 16.0857 52.8284 16.7654 51.3421 17.1279L56.0186 24.9582H52.3209ZM45.6054 14.9256H49.0311C50.1911 14.9256 51.0612 14.6356 51.6412 14.0556C52.2393 13.4756 52.5384 12.6962 52.5384 11.7174C52.5384 10.7386 52.2484 9.97731 51.6684 9.43354C51.0884 8.87164 50.2093 8.5907 49.0311 8.5907H45.6054V14.9256Z" fill="#ED4330"/>
<path d="M137.18 34.812C137.18 33.996 137.364 33.264 137.732 32.616C138.1 31.96 138.6 31.448 139.232 31.08C139.872 30.712 140.58 30.528 141.356 30.528C142.268 30.528 143.064 30.748 143.744 31.188C144.424 31.628 144.92 32.252 145.232 33.06H143.924C143.692 32.556 143.356 32.168 142.916 31.896C142.484 31.624 141.964 31.488 141.356 31.488C140.772 31.488 140.248 31.624 139.784 31.896C139.32 32.168 138.956 32.556 138.692 33.06C138.428 33.556 138.296 34.14 138.296 34.812C138.296 35.476 138.428 36.06 138.692 36.564C138.956 37.06 139.32 37.444 139.784 37.716C140.248 37.988 140.772 38.124 141.356 38.124C141.964 38.124 142.484 37.992 142.916 37.728C143.356 37.456 143.692 37.068 143.924 36.564H145.232C144.92 37.364 144.424 37.984 143.744 38.424C143.064 38.856 142.268 39.072 141.356 39.072C140.58 39.072 139.872 38.892 139.232 38.532C138.6 38.164 138.1 37.656 137.732 37.008C137.364 36.36 137.18 35.628 137.18 34.812ZM150.122 32.304C150.618 32.304 151.066 32.412 151.466 32.628C151.866 32.836 152.178 33.152 152.402 33.576C152.634 34 152.75 34.516 152.75 35.124V39H151.67V35.28C151.67 34.624 151.506 34.124 151.178 33.78C150.85 33.428 150.402 33.252 149.834 33.252C149.258 33.252 148.798 33.432 148.454 33.792C148.118 34.152 147.95 34.676 147.95 35.364V39H146.858V30.12H147.95V33.36C148.166 33.024 148.462 32.764 148.838 32.58C149.222 32.396 149.65 32.304 150.122 32.304ZM160.533 35.46C160.533 35.668 160.521 35.888 160.497 36.12H155.241C155.281 36.768 155.501 37.276 155.901 37.644C156.309 38.004 156.801 38.184 157.377 38.184C157.849 38.184 158.241 38.076 158.553 37.86C158.873 37.636 159.097 37.34 159.225 36.972H160.401C160.225 37.604 159.873 38.12 159.345 38.52C158.817 38.912 158.161 39.108 157.377 39.108C156.753 39.108 156.193 38.968 155.697 38.688C155.209 38.408 154.825 38.012 154.545 37.5C154.265 36.98 154.125 36.38 154.125 35.7C154.125 35.02 154.261 34.424 154.533 33.912C154.805 33.4 155.185 33.008 155.673 32.736C156.169 32.456 156.737 32.316 157.377 32.316C158.001 32.316 158.553 32.452 159.033 32.724C159.513 32.996 159.881 33.372 160.137 33.852C160.401 34.324 160.533 34.86 160.533 35.46ZM159.405 35.232C159.405 34.816 159.313 34.46 159.129 34.164C158.945 33.86 158.693 33.632 158.373 33.48C158.061 33.32 157.713 33.24 157.329 33.24C156.777 33.24 156.305 33.416 155.913 33.768C155.529 34.12 155.309 34.608 155.253 35.232H159.405ZM164.651 33.324H163.271V39H162.179V33.324H161.327V32.424H162.179V31.956C162.179 31.22 162.367 30.684 162.743 30.348C163.127 30.004 163.739 29.832 164.579 29.832V30.744C164.099 30.744 163.759 30.84 163.559 31.032C163.367 31.216 163.271 31.524 163.271 31.956V32.424H164.651V33.324Z" fill="#ED4330"/>
</svg>
