<svg width="217" height="42" viewBox="0 0 217 42" fill="none" xmlns="http://www.w3.org/2000/svg">
<path d="M22.3588 21.9934C26.1384 23.7537 30.0342 24.6272 33.319 24.4545H33.3788L33.6146 1.03616C33.6164 0.850044 33.5675 0.666944 33.4732 0.50646C33.379 0.345977 33.2428 0.214152 33.0794 0.125097C32.9159 0.0360426 32.7314 -0.00688869 32.5454 0.000898893C32.3594 0.00868648 32.1791 0.0668998 32.0237 0.169307L12.3252 13.4544C13.9194 16.5 17.6027 19.7748 22.3588 21.9934Z" fill="#ED4330"/>
<path d="M32.5088 26.7036C29.0712 26.7036 25.1754 25.7637 21.419 24.01C16.2378 21.5955 12.342 18.1513 10.4588 14.7104L0.455131 21.4692C0.281968 21.5852 0.148225 21.7512 0.0716929 21.9451C-0.0048389 22.1389 -0.0205315 22.3515 0.0267025 22.5545C0.0739366 22.7575 0.181858 22.9413 0.336111 23.0815C0.490364 23.2216 0.683636 23.3115 0.890218 23.3391L17.7092 25.6275C18.6978 25.762 19.6041 26.2505 20.2599 27.0025L31.4327 39.7794C31.5699 39.9359 31.7513 40.047 31.953 40.0983C32.1547 40.1496 32.3672 40.1385 32.5625 40.0666C32.7578 39.9946 32.9267 39.8652 33.0469 39.6954C33.1672 39.5256 33.2331 39.3233 33.2361 39.1152L33.359 26.6836C33.0822 26.6969 32.7988 26.7036 32.5088 26.7036Z" fill="#ED4330"/>
<path d="M32.5086 24.9293C29.071 24.9293 25.1752 23.9893 21.4188 22.2357C12.5842 18.1173 7.46947 11.0032 9.79436 6.03786C12.1193 1.07255 20.8376 0.418257 29.6722 4.53664C32.4501 5.80824 35.0075 7.51466 37.248 9.59162C37.4625 9.79466 37.5876 10.0746 37.5957 10.3698C37.6038 10.6651 37.4942 10.9514 37.2912 11.1659C37.0882 11.3804 36.8082 11.5054 36.513 11.5135C36.2178 11.5216 35.9314 11.4121 35.7169 11.2091C33.6534 9.29898 31.2991 7.72943 28.7422 6.5593C21.286 3.08192 13.5341 3.27788 11.8071 6.96781C10.08 10.6577 14.9124 16.7456 22.3587 20.2197C26.1384 21.98 30.0342 22.8568 33.319 22.6808C36.3646 22.5213 38.4802 21.4984 39.274 19.7946C40.101 18.0177 39.3006 15.9884 38.4835 14.6001C38.4094 14.4741 38.3608 14.3346 38.3405 14.1898C38.3203 14.045 38.3287 13.8976 38.3654 13.756C38.4021 13.6145 38.4663 13.4815 38.5544 13.3648C38.6425 13.248 38.7527 13.1498 38.8788 13.0756C39.0048 13.0015 39.1442 12.9529 39.2891 12.9326C39.4339 12.9124 39.5813 12.9208 39.7229 12.9575C40.0087 13.0316 40.2535 13.2163 40.4032 13.4709C41.941 16.0847 42.2565 18.6653 41.2933 20.7345C40.1342 23.2188 37.3443 24.72 33.4352 24.906C33.1363 24.9226 32.8241 24.9293 32.5086 24.9293Z" fill="#ED4330"/>
<path d="M216.199 22.445C216.199 23.1825 216.152 23.8486 216.056 24.4434H201.033C201.152 26.0135 201.735 27.2744 202.782 28.226C203.828 29.1776 205.113 29.6534 206.636 29.6534C208.824 29.6534 210.371 28.7374 211.275 26.9056H215.664C215.069 28.7137 213.987 30.2005 212.417 31.3662C210.87 32.5081 208.943 33.0791 206.636 33.0791C204.756 33.0791 203.067 32.6628 201.568 31.8301C200.093 30.9737 198.928 29.7842 198.071 28.2616C197.239 26.7153 196.822 24.9311 196.822 22.9089C196.822 20.8868 197.227 19.1144 198.036 17.5919C198.868 16.0455 200.022 14.856 201.497 14.0234C202.996 13.1907 204.709 12.7744 206.636 12.7744C208.491 12.7744 210.145 13.1788 211.596 13.9877C213.047 14.7966 214.177 15.9385 214.986 17.4134C215.795 18.8646 216.199 20.5418 216.199 22.445ZM211.953 21.1604C211.929 19.6616 211.394 18.4602 210.347 17.5562C209.3 16.6522 208.004 16.2002 206.457 16.2002C205.054 16.2002 203.852 16.6522 202.853 17.5562C201.854 18.4364 201.259 19.6378 201.069 21.1604H211.953Z" fill="#ED4330"/>
<path d="M184.9 12.7744C186.447 12.7744 187.827 13.0956 189.04 13.7379C190.277 14.3802 191.24 15.3318 191.93 16.5927C192.644 17.8536 193.001 19.3761 193.001 21.1604V32.7579H188.969V21.767C188.969 20.0065 188.528 18.6624 187.648 17.7346C186.768 16.783 185.567 16.3072 184.044 16.3072C182.521 16.3072 181.308 16.783 180.404 17.7346C179.524 18.6624 179.084 20.0065 179.084 21.767V32.7579H175.051V21.767C175.051 20.0065 174.611 18.6624 173.731 17.7346C172.851 16.783 171.649 16.3072 170.127 16.3072C168.604 16.3072 167.391 16.783 166.487 17.7346C165.607 18.6624 165.167 20.0065 165.167 21.767V32.7579H161.099V13.0956H165.167V15.3437C165.833 14.5349 166.677 13.9044 167.7 13.4524C168.723 13.0004 169.818 12.7744 170.983 12.7744C172.553 12.7744 173.957 13.1075 175.194 13.7736C176.431 14.4397 177.383 15.4032 178.049 16.6641C178.644 15.4746 179.572 14.5349 180.832 13.845C182.093 13.1313 183.449 12.7744 184.9 12.7744Z" fill="#ED4330"/>
<path d="M155.732 13.0952V32.7576H151.664V30.4381C151.022 31.2469 150.177 31.8892 149.131 32.365C148.108 32.8171 147.013 33.0431 145.848 33.0431C144.301 33.0431 142.909 32.7219 141.672 32.0796C140.459 31.4372 139.496 30.4856 138.782 29.2248C138.092 27.9639 137.747 26.4414 137.747 24.6571V13.0952H141.779V24.0505C141.779 25.8109 142.22 27.1669 143.1 28.1185C143.98 29.0463 145.181 29.5103 146.704 29.5103C148.227 29.5103 149.428 29.0463 150.308 28.1185C151.212 27.1669 151.664 25.8109 151.664 24.0505V13.0952H155.732Z" fill="#ED4330"/>
<path d="M134.855 13.0952L122.794 42H118.583L122.58 32.4364L114.836 13.0952H119.368L124.899 28.0829L130.644 13.0952H134.855Z" fill="#ED4330"/>
<path d="M103.962 29.4389H112.884V32.7576H99.252V29.4389L108.209 16.4139H99.252V13.0952H112.884V16.4139L103.962 29.4389Z" fill="#ED4330"/>
<path d="M96.3544 22.445C96.3544 23.1825 96.3068 23.8486 96.2117 24.4434H81.1884C81.3073 26.0135 81.8902 27.2744 82.9369 28.226C83.9837 29.1776 85.2683 29.6534 86.7909 29.6534C88.9795 29.6534 90.5259 28.7374 91.4299 26.9056H95.8191C95.2244 28.7137 94.142 30.2005 92.5718 31.3662C91.0255 32.5081 89.0985 33.0791 86.7909 33.0791C84.9115 33.0791 83.2224 32.6628 81.7236 31.8301C80.2487 30.9737 79.0829 29.7842 78.2265 28.2616C77.3939 26.7153 76.9775 24.9311 76.9775 22.9089C76.9775 20.8868 77.382 19.1144 78.1908 17.5919C79.0235 16.0455 80.1773 14.856 81.6523 14.0234C83.151 13.1907 84.8639 12.7744 86.7909 12.7744C88.6465 12.7744 90.2999 13.1788 91.7511 13.9877C93.2023 14.7966 94.3323 15.9385 95.1411 17.4134C95.95 18.8646 96.3544 20.5418 96.3544 22.445ZM92.1079 21.1604C92.0841 19.6616 91.5489 18.4602 90.5021 17.5562C89.4553 16.6522 88.1588 16.2002 86.6125 16.2002C85.2088 16.2002 84.0075 16.6522 83.0083 17.5562C82.0091 18.4364 81.4144 19.6378 81.224 21.1604H92.1079Z" fill="#ED4330"/>
<path d="M68.6693 32.7575L62.9598 22.8371H59.8552V32.7575H55.7871V7.95654H64.3515C66.2547 7.95654 67.8605 8.2896 69.1689 8.95572C70.5012 9.62184 71.4885 10.514 72.1308 11.6321C72.7969 12.7502 73.13 13.9992 73.13 15.379C73.13 16.9967 72.6542 18.4717 71.7026 19.8039C70.7748 21.1124 69.3355 22.0045 67.3847 22.4803L73.5225 32.7575H68.6693ZM59.8552 19.5898H64.3515C65.874 19.5898 67.0159 19.2092 67.7772 18.4479C68.5623 17.6866 68.9548 16.6637 68.9548 15.379C68.9548 14.0943 68.5742 13.0952 67.8129 12.3815C67.0516 11.644 65.8978 11.2752 64.3515 11.2752H59.8552V19.5898Z" fill="#ED4330"/>
</svg>
