<svg width="34" height="34" viewBox="0 0 34 34" fill="none" xmlns="http://www.w3.org/2000/svg">
<path d="M26.2227 0.100403C26.6895 0.100937 27.1376 0.2859 27.4678 0.616028C27.7979 0.946155 27.9829 1.39428 27.9834 1.86115V9.5174C28.7077 9.54333 29.3969 9.8401 29.9111 10.3543C30.4297 10.873 30.7267 11.5695 30.748 12.3006C31.1253 12.3412 31.4911 12.4559 31.8232 12.6404C32.181 12.8392 32.4913 13.1132 32.7334 13.4432L32.8301 13.5809C33.0454 13.9077 33.1912 14.276 33.2578 14.6629C33.3244 15.0499 33.3096 15.4459 33.2158 15.826L33.1709 15.9881L28.4346 31.491C28.2572 32.08 27.8938 32.5958 27.3994 32.9617C26.9052 33.3274 26.3062 33.5226 25.6914 33.5203V33.5213H2.96777C2.20736 33.5204 1.47815 33.2181 0.94043 32.6805C0.4027 32.1428 0.100471 31.4136 0.0996094 30.6531V12.3807C0.100579 11.6204 0.402903 10.8919 0.94043 10.3543C1.47816 9.81658 2.20731 9.51337 2.96777 9.51251H3.4209V1.86115C3.42143 1.39427 3.60737 0.946156 3.9375 0.616028C4.26762 0.285937 4.71577 0.100937 5.18262 0.100403H26.2227ZM8.375 13.5945C8.08301 13.6193 7.80238 13.7246 7.56641 13.9012C7.29666 14.103 7.09933 14.387 7.00293 14.7098L1.96289 31.8445C2.24347 32.0821 2.59882 32.214 2.96777 32.2137H25.6914C26.0259 32.215 26.3522 32.109 26.6211 31.91C26.89 31.7109 27.0871 31.4296 27.1836 31.1092L31.9209 15.6063C31.9922 15.373 32.008 15.1259 31.9668 14.8856C31.9255 14.6451 31.8277 14.4176 31.6826 14.2215C31.5375 14.0254 31.3487 13.8655 31.1309 13.7557C30.9129 13.6458 30.6718 13.5887 30.4277 13.5887H8.50098L8.375 13.5945ZM5.18262 1.40704C5.0623 1.40718 4.9464 1.45576 4.86133 1.54083C4.77653 1.62585 4.72867 1.74105 4.72852 1.86115V15.8035H3.4209V10.8201H2.96777C2.55387 10.8206 2.15693 10.9855 1.86426 11.2781C1.57169 11.5708 1.40672 11.9678 1.40625 12.3817V29.1053L5.74902 14.3406V14.3397C5.92606 13.747 6.28896 13.2269 6.78418 12.8563C7.27955 12.4856 7.88132 12.2837 8.5 12.2811H26.6768V1.86115L26.668 1.77228C26.6505 1.68507 26.6068 1.60466 26.543 1.54083C26.4791 1.47701 26.3987 1.43333 26.3115 1.41583L26.2227 1.40704H5.18262ZM27.9834 12.2811H29.4404C29.4158 11.9039 29.2561 11.5471 28.9873 11.2781C28.7182 11.0091 28.3608 10.8496 27.9834 10.825V12.2811Z" fill="#292D32" stroke="white" stroke-width="0.2"/>
<path d="M18.4707 16.2313L18.6445 16.2401C19.0473 16.2805 19.4261 16.4582 19.7148 16.7469C20.045 17.077 20.2309 17.5251 20.2314 17.992V24.5359H22.6602L22.5186 24.701L17.9922 29.9813L17.917 30.0701L17.8408 29.9813L13.3145 24.701L13.1729 24.5359H15.6016V17.992C15.6021 17.5251 15.788 17.077 16.1182 16.7469C16.4483 16.4169 16.8965 16.2318 17.3633 16.2313H18.4707ZM17.3633 17.5379C17.243 17.538 17.1271 17.5866 17.042 17.6717C16.9571 17.7567 16.9093 17.8719 16.9092 17.992V25.8436H16.0156L17.916 28.0613L19.8174 25.8436H18.9238V17.992L18.915 17.9031C18.8976 17.8161 18.8547 17.7355 18.791 17.6717C18.7059 17.5866 18.59 17.538 18.4697 17.5379H17.3633Z" fill="#292D32" stroke="white" stroke-width="0.2"/>
</svg>
