<svg width="23" height="15" viewBox="0 0 23 15" fill="none" xmlns="http://www.w3.org/2000/svg">
<path d="M5.75 1.07143C5.75 0.479715 6.26489 0 6.9 0H21.85C22.4851 0 23 0.479715 23 1.07143C23 1.66314 22.4851 2.14286 21.85 2.14286H6.9C6.26489 2.14286 5.75 1.6631 5.75 1.07143ZM21.85 6.42857H1.15C0.514895 6.42857 0 6.90833 0 7.5C0 8.09171 0.514895 8.57143 1.15 8.57143H21.85C22.4851 8.57143 23 8.09171 23 7.5C23 6.90833 22.4851 6.42857 21.85 6.42857ZM21.85 12.8571H11.5C10.8649 12.8571 10.35 13.3369 10.35 13.9286C10.35 14.5202 10.8649 15 11.5 15H21.85C22.4851 15 23 14.5202 23 13.9286C23 13.3369 22.4851 12.8571 21.85 12.8571Z" fill="#4517FF"/>
</svg>
