<svg width="168" height="44" viewBox="0 0 168 44" fill="none" xmlns="http://www.w3.org/2000/svg">
<path d="M20.0353 16.7569C22.915 18.0981 25.8832 18.7636 28.3859 18.632H28.4315L28.6111 0.789457C28.6125 0.647654 28.5753 0.508149 28.5034 0.385875C28.4316 0.263602 28.3279 0.163163 28.2034 0.0953123C28.0788 0.0274611 27.9382 -0.00524854 27.7965 0.000684872C27.6548 0.00661828 27.5174 0.0509713 27.399 0.128996L12.3906 10.251C13.6053 12.5715 16.4116 15.0665 20.0353 16.7569Z" fill="white"/>
<path d="M27.7686 20.3452C25.1496 20.3452 22.1813 19.629 19.3193 18.2929C15.3717 16.4532 12.4034 13.8291 10.9686 11.2075L3.34677 16.3571C3.21483 16.4455 3.11293 16.5719 3.05462 16.7196C2.99631 16.8673 2.98436 17.0293 3.02034 17.1839C3.05633 17.3386 3.13856 17.4786 3.25609 17.5854C3.37361 17.6922 3.52087 17.7607 3.67826 17.7818L16.4927 19.5253C17.246 19.6277 17.9365 20 18.4361 20.5729L26.9487 30.3077C27.0533 30.4269 27.1915 30.5116 27.3452 30.5507C27.4989 30.5897 27.6608 30.5813 27.8096 30.5265C27.9583 30.4717 28.087 30.3731 28.1786 30.2437C28.2703 30.1143 28.3205 29.9602 28.3228 29.8016L28.4164 20.33C28.2056 20.3401 27.9896 20.3452 27.7686 20.3452Z" fill="white"/>
<path d="M27.7679 18.9939C25.1488 18.9939 22.1806 18.2778 19.3186 16.9416C12.5874 13.8038 8.69047 8.3835 10.4618 4.6004C12.2332 0.8173 18.8757 0.318791 25.6069 3.45661C27.7234 4.42546 29.6718 5.72558 31.3789 7.30803C31.5423 7.46273 31.6376 7.67601 31.6438 7.90095C31.65 8.12589 31.5665 8.34407 31.4118 8.50749C31.2571 8.67091 31.0438 8.76618 30.8189 8.77235C30.594 8.77852 30.3758 8.69508 30.2124 8.54039C28.6402 7.08507 26.8464 5.88922 24.8983 4.99769C19.2173 2.34825 13.3112 2.49755 11.9953 5.30894C10.6794 8.12032 14.3613 12.7587 20.0347 15.4056C22.9144 16.7468 25.8827 17.4149 28.3853 17.2807C30.7058 17.1593 32.3177 16.3799 32.9225 15.0817C33.5526 13.7279 32.9428 12.1818 32.3203 11.124C32.2638 11.028 32.2268 10.9218 32.2113 10.8114C32.1959 10.7011 32.2023 10.5888 32.2303 10.4809C32.2582 10.3731 32.3072 10.2718 32.3743 10.1828C32.4414 10.0939 32.5254 10.019 32.6214 9.96253C32.7174 9.90603 32.8237 9.86901 32.934 9.85357C33.0444 9.83813 33.1567 9.84457 33.2645 9.87254C33.4823 9.92901 33.6688 10.0697 33.7829 10.2637C34.9545 12.2552 35.1949 14.2214 34.4611 15.7979C33.5779 17.6907 31.4523 18.8345 28.4739 18.9762C28.2462 18.9888 28.0083 18.9939 27.7679 18.9939Z" fill="white"/>
<path d="M167.724 17.1007C167.724 17.6626 167.688 18.1701 167.616 18.6232H156.169C156.26 19.8195 156.704 20.7802 157.501 21.5052C158.299 22.2303 159.278 22.5928 160.438 22.5928C162.105 22.5928 163.284 21.8949 163.972 20.4993H167.316C166.863 21.8768 166.039 23.0097 164.842 23.8978C163.664 24.7679 162.196 25.2029 160.438 25.2029C159.006 25.2029 157.719 24.8857 156.577 24.2513C155.453 23.5987 154.565 22.6925 153.913 21.5324C153.278 20.3543 152.961 18.9948 152.961 17.4541C152.961 15.9135 153.269 14.5631 153.885 13.4031C154.52 12.2249 155.399 11.3186 156.523 10.6842C157.665 10.0498 158.97 9.7326 160.438 9.7326C161.852 9.7326 163.111 10.0407 164.217 10.657C165.323 11.2733 166.184 12.1433 166.8 13.2671C167.416 14.3728 167.724 15.6506 167.724 17.1007ZM164.489 16.1219C164.471 14.98 164.063 14.0646 163.265 13.3759C162.468 12.6871 161.48 12.3427 160.302 12.3427C159.232 12.3427 158.317 12.6871 157.556 13.3759C156.795 14.0465 156.341 14.9619 156.196 16.1219H164.489Z" fill="white"/>
<path d="M143.879 9.7326C145.057 9.7326 146.108 9.9773 147.033 10.4667C147.975 10.9561 148.709 11.6811 149.235 12.6418C149.779 13.6024 150.051 14.7625 150.051 16.1219V24.9582H146.978V16.5841C146.978 15.2428 146.643 14.2187 145.972 13.5118C145.302 12.7868 144.386 12.4243 143.226 12.4243C142.066 12.4243 141.142 12.7868 140.453 13.5118C139.782 14.2187 139.447 15.2428 139.447 16.5841V24.9582H136.375V16.5841C136.375 15.2428 136.04 14.2187 135.369 13.5118C134.698 12.7868 133.783 12.4243 132.623 12.4243C131.463 12.4243 130.538 12.7868 129.85 13.5118C129.179 14.2187 128.844 15.2428 128.844 16.5841V24.9582H125.744V9.9773H128.844V11.6902C129.351 11.0739 129.995 10.5936 130.774 10.2492C131.553 9.9048 132.387 9.7326 133.275 9.7326C134.472 9.7326 135.541 9.98636 136.484 10.4939C137.426 11.0014 138.151 11.7355 138.659 12.6962C139.112 11.7899 139.819 11.0739 140.779 10.5483C141.74 10.0045 142.773 9.7326 143.879 9.7326Z" fill="white"/>
<path d="M121.654 9.97729V24.9582H118.555V23.1909C118.065 23.8072 117.422 24.2966 116.624 24.6591C115.845 25.0035 115.011 25.1757 114.123 25.1757C112.945 25.1757 111.884 24.931 110.942 24.4416C110.018 23.9522 109.283 23.2272 108.74 22.2665C108.214 21.3058 107.951 20.1458 107.951 18.7864V9.97729H111.023V18.3242C111.023 19.6655 111.359 20.6986 112.029 21.4237C112.7 22.1306 113.615 22.484 114.775 22.484C115.936 22.484 116.851 22.1306 117.522 21.4237C118.21 20.6986 118.555 19.6655 118.555 18.3242V9.97729H121.654Z" fill="white"/>
<path d="M105.747 9.97729L96.5572 32H93.3489L96.394 24.7135L90.4941 9.97729H93.9471L98.1613 21.3965L102.539 9.97729H105.747Z" fill="white"/>
<path d="M82.21 22.4296H89.0071V24.9582H78.6211V22.4296L85.4454 12.5058H78.6211V9.97729H89.0071V12.5058L82.21 22.4296Z" fill="white"/>
<path d="M76.4138 17.1007C76.4138 17.6626 76.3775 18.1701 76.305 18.6232H64.8586C64.9493 19.8195 65.3933 20.7802 66.1909 21.5052C66.9884 22.2303 67.9672 22.5928 69.1272 22.5928C70.7948 22.5928 71.973 21.8949 72.6617 20.4993H76.0059C75.5528 21.8768 74.7281 23.0097 73.5318 23.8978C72.3536 24.7679 70.8854 25.2029 69.1272 25.2029C67.6953 25.2029 66.4084 24.8857 65.2665 24.2513C64.1427 23.5987 63.2545 22.6925 62.602 21.5324C61.9676 20.3543 61.6504 18.9948 61.6504 17.4541C61.6504 15.9135 61.9585 14.5631 62.5748 13.4031C63.2092 12.2249 64.0883 11.3186 65.2121 10.6842C66.354 10.0498 67.6591 9.7326 69.1272 9.7326C70.541 9.7326 71.8008 10.0407 72.9064 10.657C74.0121 11.2733 74.8731 12.1433 75.4893 13.2671C76.1056 14.3728 76.4138 15.6506 76.4138 17.1007ZM73.1783 16.1219C73.1602 14.98 72.7524 14.0646 71.9548 13.3759C71.1573 12.6871 70.1695 12.3427 68.9913 12.3427C67.9219 12.3427 67.0065 12.6871 66.2453 13.3759C65.484 14.0465 65.0308 14.9619 64.8858 16.1219H73.1783Z" fill="white"/>
<path d="M55.3209 24.9582L50.9708 17.3998H48.6054V24.9582H45.5059V6.06216H52.0311C53.4812 6.06216 54.7046 6.31592 55.7016 6.82344C56.7166 7.33096 57.4688 8.01067 57.9582 8.86258C58.4657 9.71449 58.7195 10.6661 58.7195 11.7174C58.7195 12.9499 58.357 14.0737 57.6319 15.0888C56.925 16.0857 55.8284 16.7654 54.3421 17.1279L59.0186 24.9582H55.3209ZM48.6054 14.9256H52.0311C53.1911 14.9256 54.0612 14.6356 54.6412 14.0556C55.2393 13.4756 55.5384 12.6962 55.5384 11.7174C55.5384 10.7386 55.2484 9.97731 54.6684 9.43354C54.0884 8.87164 53.2093 8.5907 52.0311 8.5907H48.6054V14.9256Z" fill="white"/>
<path d="M118.09 32.524V35.32H121.138V36.22H118.09V39.1H121.498V40H116.998V31.624H121.498V32.524H118.09ZM126.355 33.304C127.155 33.304 127.803 33.548 128.299 34.036C128.795 34.516 129.043 35.212 129.043 36.124V40H127.963V36.28C127.963 35.624 127.799 35.124 127.471 34.78C127.143 34.428 126.695 34.252 126.127 34.252C125.551 34.252 125.091 34.432 124.747 34.792C124.411 35.152 124.243 35.676 124.243 36.364V40H123.151V33.424H124.243V34.36C124.459 34.024 124.751 33.764 125.119 33.58C125.495 33.396 125.907 33.304 126.355 33.304ZM133.538 33.316C134.106 33.316 134.602 33.44 135.026 33.688C135.458 33.936 135.778 34.248 135.986 34.624V33.424H137.09V40.144C137.09 40.744 136.962 41.276 136.706 41.74C136.45 42.212 136.082 42.58 135.602 42.844C135.13 43.108 134.578 43.24 133.946 43.24C133.082 43.24 132.362 43.036 131.786 42.628C131.21 42.22 130.87 41.664 130.766 40.96H131.846C131.966 41.36 132.214 41.68 132.59 41.92C132.966 42.168 133.418 42.292 133.946 42.292C134.546 42.292 135.034 42.104 135.41 41.728C135.794 41.352 135.986 40.824 135.986 40.144V38.764C135.77 39.148 135.45 39.468 135.026 39.724C134.602 39.98 134.106 40.108 133.538 40.108C132.954 40.108 132.422 39.964 131.942 39.676C131.47 39.388 131.098 38.984 130.826 38.464C130.554 37.944 130.418 37.352 130.418 36.688C130.418 36.016 130.554 35.428 130.826 34.924C131.098 34.412 131.47 34.016 131.942 33.736C132.422 33.456 132.954 33.316 133.538 33.316ZM135.986 36.7C135.986 36.204 135.886 35.772 135.686 35.404C135.486 35.036 135.214 34.756 134.87 34.564C134.534 34.364 134.162 34.264 133.754 34.264C133.346 34.264 132.974 34.36 132.638 34.552C132.302 34.744 132.034 35.024 131.834 35.392C131.634 35.76 131.534 36.192 131.534 36.688C131.534 37.192 131.634 37.632 131.834 38.008C132.034 38.376 132.302 38.66 132.638 38.86C132.974 39.052 133.346 39.148 133.754 39.148C134.162 39.148 134.534 39.052 134.87 38.86C135.214 38.66 135.486 38.376 135.686 38.008C135.886 37.632 135.986 37.196 135.986 36.7ZM139.5 32.356C139.292 32.356 139.116 32.284 138.972 32.14C138.828 31.996 138.756 31.82 138.756 31.612C138.756 31.404 138.828 31.228 138.972 31.084C139.116 30.94 139.292 30.868 139.5 30.868C139.7 30.868 139.868 30.94 140.004 31.084C140.148 31.228 140.22 31.404 140.22 31.612C140.22 31.82 140.148 31.996 140.004 32.14C139.868 32.284 139.7 32.356 139.5 32.356ZM140.028 33.424V40H138.936V33.424H140.028ZM145.093 33.304C145.893 33.304 146.541 33.548 147.037 34.036C147.533 34.516 147.781 35.212 147.781 36.124V40H146.701V36.28C146.701 35.624 146.537 35.124 146.209 34.78C145.881 34.428 145.433 34.252 144.865 34.252C144.289 34.252 143.829 34.432 143.485 34.792C143.149 35.152 142.981 35.676 142.981 36.364V40H141.889V33.424H142.981V34.36C143.197 34.024 143.489 33.764 143.857 33.58C144.233 33.396 144.645 33.304 145.093 33.304ZM155.565 36.46C155.565 36.668 155.553 36.888 155.529 37.12H150.273C150.313 37.768 150.533 38.276 150.933 38.644C151.341 39.004 151.833 39.184 152.409 39.184C152.881 39.184 153.273 39.076 153.585 38.86C153.905 38.636 154.129 38.34 154.257 37.972H155.433C155.257 38.604 154.905 39.12 154.377 39.52C153.849 39.912 153.193 40.108 152.409 40.108C151.785 40.108 151.225 39.968 150.729 39.688C150.241 39.408 149.857 39.012 149.577 38.5C149.297 37.98 149.157 37.38 149.157 36.7C149.157 36.02 149.293 35.424 149.565 34.912C149.837 34.4 150.217 34.008 150.705 33.736C151.201 33.456 151.769 33.316 152.409 33.316C153.033 33.316 153.585 33.452 154.065 33.724C154.545 33.996 154.913 34.372 155.169 34.852C155.433 35.324 155.565 35.86 155.565 36.46ZM154.437 36.232C154.437 35.816 154.345 35.46 154.161 35.164C153.977 34.86 153.725 34.632 153.405 34.48C153.093 34.32 152.745 34.24 152.361 34.24C151.809 34.24 151.337 34.416 150.945 34.768C150.561 35.12 150.341 35.608 150.285 36.232H154.437ZM163.006 36.46C163.006 36.668 162.994 36.888 162.97 37.12H157.714C157.754 37.768 157.974 38.276 158.374 38.644C158.782 39.004 159.274 39.184 159.85 39.184C160.322 39.184 160.714 39.076 161.026 38.86C161.346 38.636 161.57 38.34 161.698 37.972H162.874C162.698 38.604 162.346 39.12 161.818 39.52C161.29 39.912 160.634 40.108 159.85 40.108C159.226 40.108 158.666 39.968 158.17 39.688C157.682 39.408 157.298 39.012 157.018 38.5C156.738 37.98 156.598 37.38 156.598 36.7C156.598 36.02 156.734 35.424 157.006 34.912C157.278 34.4 157.658 34.008 158.146 33.736C158.642 33.456 159.21 33.316 159.85 33.316C160.474 33.316 161.026 33.452 161.506 33.724C161.986 33.996 162.354 34.372 162.61 34.852C162.874 35.324 163.006 35.86 163.006 36.46ZM161.878 36.232C161.878 35.816 161.786 35.46 161.602 35.164C161.418 34.86 161.166 34.632 160.846 34.48C160.534 34.32 160.186 34.24 159.802 34.24C159.25 34.24 158.778 34.416 158.386 34.768C158.002 35.12 157.782 35.608 157.726 36.232H161.878ZM165.539 34.492C165.731 34.116 166.003 33.824 166.355 33.616C166.715 33.408 167.151 33.304 167.663 33.304V34.432H167.375C166.151 34.432 165.539 35.096 165.539 36.424V40H164.447V33.424H165.539V34.492Z" fill="#9D9D9D"/>
</svg>
