<svg width="165" height="32" viewBox="0 0 165 32" fill="none" xmlns="http://www.w3.org/2000/svg">
<path d="M17.0353 16.7569C19.915 18.0981 22.8832 18.7636 25.3859 18.632H25.4315L25.6111 0.789457C25.6125 0.647654 25.5753 0.508149 25.5034 0.385875C25.4316 0.263602 25.3279 0.163163 25.2034 0.0953123C25.0788 0.0274611 24.9382 -0.00524854 24.7965 0.000684872C24.6548 0.00661828 24.5174 0.0509713 24.399 0.128996L9.39062 10.251C10.6053 12.5715 13.4116 15.0665 17.0353 16.7569Z" fill="#EDEDED"/>
<path d="M24.7686 20.3452C22.1496 20.3452 19.1813 19.629 16.3193 18.2929C12.3717 16.4532 9.40343 13.8291 7.96863 11.2075L0.346767 16.3571C0.214833 16.4455 0.112933 16.5719 0.0546232 16.7196C-0.00368679 16.8673 -0.0156431 17.0293 0.0203448 17.1839C0.0563327 17.3386 0.138559 17.4786 0.256085 17.5854C0.373612 17.6922 0.520867 17.7607 0.678262 17.7818L13.4927 19.5253C14.246 19.6277 14.9365 20 15.4361 20.5729L23.9487 30.3077C24.0533 30.4269 24.1915 30.5116 24.3452 30.5507C24.4989 30.5897 24.6608 30.5813 24.8096 30.5265C24.9583 30.4717 25.087 30.3731 25.1786 30.2437C25.2703 30.1143 25.3205 29.9602 25.3228 29.8016L25.4164 20.33C25.2056 20.3401 24.9896 20.3452 24.7686 20.3452Z" fill="#EDEDED"/>
<path d="M24.7679 18.9937C22.1488 18.9937 19.1806 18.2775 16.3186 16.9414C9.58743 13.8036 5.69047 8.38328 7.46182 4.60018C9.23317 0.817086 15.8757 0.318577 22.6069 3.4564C24.7234 4.42524 26.6718 5.72537 28.3789 7.30782C28.5423 7.46251 28.6376 7.67579 28.6438 7.90073C28.65 8.12568 28.5665 8.34386 28.4118 8.50728C28.2571 8.6707 28.0438 8.76597 27.8189 8.77214C27.594 8.77831 27.3758 8.69487 27.2124 8.54017C25.6402 7.08486 23.8464 5.889 21.8983 4.99747C16.2173 2.34804 10.3112 2.49734 8.9953 5.30872C7.67944 8.12011 11.3613 12.7585 17.0347 15.4054C19.9144 16.7466 22.8827 17.4146 25.3853 17.2805C27.7058 17.1591 29.3177 16.3797 29.9225 15.0815C30.5526 13.7277 29.9428 12.1816 29.3203 11.1238C29.2638 11.0278 29.2268 10.9216 29.2113 10.8112C29.1959 10.7009 29.2023 10.5886 29.2303 10.4807C29.2582 10.3728 29.3072 10.2716 29.3743 10.1826C29.4414 10.0937 29.5254 10.0188 29.6214 9.96231C29.7174 9.90582 29.8237 9.8688 29.934 9.85336C30.0444 9.83792 30.1567 9.84436 30.2645 9.87232C30.4823 9.9288 30.6688 10.0695 30.7829 10.2634C31.9545 12.2549 32.1949 14.2211 31.4611 15.7976C30.5779 17.6905 28.4523 18.8342 25.4739 18.976C25.2462 18.9886 25.0083 18.9937 24.7679 18.9937Z" fill="#EDEDED"/>
<path d="M164.724 17.1005C164.724 17.6624 164.688 18.1699 164.616 18.6231H153.169C153.26 19.8194 153.704 20.78 154.501 21.505C155.299 22.2301 156.278 22.5926 157.438 22.5926C159.105 22.5926 160.284 21.8948 160.972 20.4991H164.316C163.863 21.8766 163.039 23.0095 161.842 23.8976C160.664 24.7677 159.196 25.2027 157.438 25.2027C156.006 25.2027 154.719 24.8855 153.577 24.2511C152.453 23.5986 151.565 22.6923 150.913 21.5322C150.278 20.3541 149.961 18.9946 149.961 17.454C149.961 15.9133 150.269 14.5629 150.885 13.4029C151.52 12.2247 152.399 11.3184 153.523 10.684C154.665 10.0496 155.97 9.73242 157.438 9.73242C158.852 9.73242 160.111 10.0406 161.217 10.6568C162.323 11.2731 163.184 12.1431 163.8 13.2669C164.416 14.3726 164.724 15.6505 164.724 17.1005ZM161.489 16.1217C161.471 14.9798 161.063 14.0645 160.265 13.3757C159.468 12.6869 158.48 12.3425 157.302 12.3425C156.232 12.3425 155.317 12.6869 154.556 13.3757C153.795 14.0463 153.341 14.9617 153.196 16.1217H161.489Z" fill="#EDEDED"/>
<path d="M140.879 9.73242C142.057 9.73242 143.108 9.97712 144.033 10.4665C144.975 10.9559 145.709 11.6809 146.235 12.6416C146.779 13.6023 147.051 14.7623 147.051 16.1217V24.958H143.978V16.5839C143.978 15.2426 143.643 14.2185 142.972 13.5116C142.302 12.7866 141.386 12.4241 140.226 12.4241C139.066 12.4241 138.142 12.7866 137.453 13.5116C136.782 14.2185 136.447 15.2426 136.447 16.5839V24.958H133.375V16.5839C133.375 15.2426 133.04 14.2185 132.369 13.5116C131.698 12.7866 130.783 12.4241 129.623 12.4241C128.463 12.4241 127.538 12.7866 126.85 13.5116C126.179 14.2185 125.844 15.2426 125.844 16.5839V24.958H122.744V9.97712H125.844V11.69C126.351 11.0737 126.995 10.5934 127.774 10.249C128.553 9.90462 129.387 9.73242 130.275 9.73242C131.472 9.73242 132.541 9.98618 133.484 10.4937C134.426 11.0012 135.151 11.7353 135.659 12.696C136.112 11.7897 136.819 11.0737 137.779 10.5481C138.74 10.0043 139.773 9.73242 140.879 9.73242Z" fill="#EDEDED"/>
<path d="M118.654 9.97705V24.9579H115.555V23.1907C115.065 23.8069 114.422 24.2963 113.624 24.6588C112.845 25.0032 112.011 25.1754 111.123 25.1754C109.945 25.1754 108.884 24.9307 107.942 24.4413C107.018 23.9519 106.283 23.2269 105.74 22.2663C105.214 21.3056 104.951 20.1456 104.951 18.7861V9.97705H108.023V18.3239C108.023 19.6652 108.359 20.6984 109.029 21.4234C109.7 22.1303 110.615 22.4838 111.775 22.4838C112.936 22.4838 113.851 22.1303 114.522 21.4234C115.21 20.6984 115.555 19.6652 115.555 18.3239V9.97705H118.654Z" fill="#EDEDED"/>
<path d="M102.747 9.97705L93.5572 31.9997H90.3489L93.394 24.7132L87.4941 9.97705H90.9471L95.1613 21.3962L99.5387 9.97705H102.747Z" fill="#EDEDED"/>
<path d="M79.21 22.4294H86.0071V24.9579H75.6211V22.4294L82.4454 12.5056H75.6211V9.97705H86.0071V12.5056L79.21 22.4294Z" fill="#EDEDED"/>
<path d="M73.4138 17.1005C73.4138 17.6624 73.3775 18.1699 73.305 18.6231H61.8586C61.9493 19.8194 62.3933 20.78 63.1909 21.505C63.9884 22.2301 64.9672 22.5926 66.1272 22.5926C67.7948 22.5926 68.973 21.8948 69.6617 20.4991H73.0059C72.5528 21.8766 71.7281 23.0095 70.5318 23.8976C69.3536 24.7677 67.8854 25.2027 66.1272 25.2027C64.6953 25.2027 63.4084 24.8855 62.2665 24.2511C61.1427 23.5986 60.2545 22.6923 59.602 21.5322C58.9676 20.3541 58.6504 18.9946 58.6504 17.454C58.6504 15.9133 58.9585 14.5629 59.5748 13.4029C60.2092 12.2247 61.0883 11.3184 62.2121 10.684C63.354 10.0496 64.6591 9.73242 66.1272 9.73242C67.541 9.73242 68.8008 10.0406 69.9064 10.6568C71.0121 11.2731 71.8731 12.1431 72.4893 13.2669C73.1056 14.3726 73.4138 15.6505 73.4138 17.1005ZM70.1783 16.1217C70.1602 14.9798 69.7524 14.0645 68.9548 13.3757C68.1573 12.6869 67.1695 12.3425 65.9913 12.3425C64.9219 12.3425 64.0065 12.6869 63.2453 13.3757C62.484 14.0463 62.0308 14.9617 61.8858 16.1217H70.1783Z" fill="#EDEDED"/>
<path d="M52.3209 24.958L47.9708 17.3996H45.6054V24.958H42.5059V6.06201H49.0311C50.4812 6.06201 51.7046 6.31577 52.7016 6.82329C53.7166 7.33081 54.4688 8.01052 54.9582 8.86243C55.4657 9.71434 55.7195 10.6659 55.7195 11.7172C55.7195 12.9498 55.357 14.0736 54.6319 15.0886C53.925 16.0855 52.8284 16.7652 51.3421 17.1277L56.0186 24.958H52.3209ZM45.6054 14.9255H49.0311C50.1911 14.9255 51.0612 14.6355 51.6412 14.0554C52.2393 13.4754 52.5384 12.696 52.5384 11.7172C52.5384 10.7384 52.2484 9.97716 51.6684 9.43339C51.0884 8.87149 50.2093 8.59054 49.0311 8.59054H45.6054V14.9255Z" fill="#EDEDED"/>
</svg>
