<svg width="60" height="37" viewBox="0 0 60 37" fill="none" xmlns="http://www.w3.org/2000/svg">
<path d="M50.1586 18.728C51.1073 18.728 52.0346 19.0093 52.8234 19.5364C53.6122 20.0634 54.227 20.8126 54.59 21.689C54.9531 22.5655 55.0481 23.5299 54.863 24.4603C54.6779 25.3908 54.2211 26.2454 53.5503 26.9162C52.8795 27.587 52.0248 28.0439 51.0944 28.2289C50.1639 28.414 49.1995 28.319 48.3231 27.956C47.4466 27.5929 46.6975 26.9782 46.1704 26.1894C45.6434 25.4006 45.3621 24.4732 45.3621 23.5246C45.3634 22.2528 45.8692 21.0336 46.7684 20.1344C47.6677 19.2351 48.8869 18.7294 50.1586 18.728Z" fill="#FF2249"/>
<path d="M50.159 13.9302C52.0563 13.9302 53.911 14.4928 55.4886 15.5469C57.0661 16.601 58.2957 18.0992 59.0218 19.8521C59.7479 21.605 59.9378 23.5339 59.5677 25.3948C59.1975 27.2556 58.2839 28.9649 56.9423 30.3066C55.6007 31.6482 53.8913 32.5618 52.0305 32.932C50.1696 33.3021 48.2407 33.1122 46.4878 32.3861C44.7349 31.66 43.2367 30.4304 42.1826 28.8529C41.1285 27.2753 40.5659 25.4206 40.5659 23.5232C40.569 20.98 41.5807 18.5417 43.379 16.7433C45.1774 14.945 47.6157 13.9333 50.159 13.9302ZM50.159 29.7202C51.3846 29.7202 52.5827 29.3568 53.6018 28.6758C54.6209 27.9949 55.4152 27.0271 55.8842 25.8947C56.3533 24.7624 56.476 23.5164 56.2369 22.3143C55.9978 21.1122 55.4075 20.008 54.5409 19.1413C53.6742 18.2747 52.57 17.6844 51.3679 17.4453C50.1658 17.2062 48.9198 17.3289 47.7875 17.798C46.6551 18.267 45.6873 19.0613 45.0064 20.0804C44.3254 21.0995 43.962 22.2976 43.962 23.5232C43.9638 25.1662 44.6172 26.7414 45.779 27.9032C46.9408 29.065 48.516 29.7184 50.159 29.7202Z" fill="#FF2249"/>
<path d="M9.59256 28.3204C6.9437 28.3204 4.79638 26.1731 4.79638 23.5242C4.79638 20.8754 6.9437 18.728 9.59256 18.728C12.2414 18.728 14.3887 20.8754 14.3887 23.5242C14.3887 26.1731 12.2414 28.3204 9.59256 28.3204Z" fill="#FF2249"/>
<path d="M9.59255 13.9302C11.4899 13.9302 13.3446 14.4928 14.9222 15.5469C16.4997 16.601 17.7293 18.0992 18.4554 19.8521C19.1815 21.605 19.3714 23.5339 19.0013 25.3948C18.6311 27.2556 17.7175 28.9649 16.3759 30.3066C15.0343 31.6482 13.3249 32.5618 11.4641 32.932C9.60319 33.3021 7.67434 33.1122 5.92144 32.3861C4.16854 31.66 2.67031 30.4304 1.61621 28.8529C0.562107 27.2753 -0.000518799 25.4206 -0.000518799 23.5232C0.0025692 20.98 1.01426 18.5417 2.81264 16.7433C4.61102 14.945 7.04926 13.9333 9.59255 13.9302ZM9.59255 29.7202C10.8182 29.7202 12.0163 29.3568 13.0354 28.6758C14.0545 27.9949 14.8488 27.0271 15.3178 25.8947C15.7868 24.7624 15.9096 23.5164 15.6705 22.3143C15.4313 21.1122 14.8411 20.008 13.9745 19.1413C13.1078 18.2747 12.0036 17.6844 10.8015 17.4453C9.59942 17.2062 8.35342 17.3289 7.22107 17.798C6.08872 18.267 5.12088 19.0613 4.43995 20.0804C3.75901 21.0995 3.39557 22.2976 3.39557 23.5232C3.39736 25.1662 4.05083 26.7414 5.2126 27.9032C6.37437 29.065 7.94956 29.7184 9.59255 29.7202Z" fill="#FF2249"/>
<path d="M44.861 17.0809C44.9842 17.0808 45.1053 17.0482 45.2118 16.9863C45.3184 16.9245 45.4068 16.8356 45.4681 16.7286C45.5293 16.6217 45.5612 16.5004 45.5606 16.3772C45.56 16.254 45.5269 16.1331 45.4646 16.0267L36.285 0.346493C36.2233 0.24103 36.135 0.153558 36.029 0.0927723C35.923 0.0319862 35.8029 2.66486e-06 35.6807 0H30.6803C30.4946 0 30.3165 0.0737728 30.1851 0.20509C30.0538 0.336408 29.9801 0.514513 29.9801 0.700224C29.9801 0.885935 30.0538 1.06404 30.1851 1.19536C30.3165 1.32667 30.4946 1.40045 30.6803 1.40045H35.2792L44.2561 16.7343C44.3179 16.8399 44.4062 16.9274 44.5123 16.9882C44.6185 17.049 44.7387 17.081 44.861 17.0809Z" fill="#FF2249"/>
<path d="M47.9685 15.6034C48.0917 15.6033 48.2127 15.5707 48.3193 15.5088C48.4259 15.447 48.5142 15.3581 48.5755 15.2512C48.6367 15.1442 48.6686 15.023 48.668 14.8998C48.6674 14.7766 48.6343 14.6557 48.5721 14.5494L40.2574 0.346493C40.1956 0.24103 40.1074 0.153558 40.0014 0.0927723C39.8954 0.0319862 39.7753 2.66486e-06 39.6531 0H34.6527C34.4669 0 34.2888 0.0737728 34.1575 0.20509C34.0262 0.336408 33.9524 0.514513 33.9524 0.700224C33.9524 0.885935 34.0262 1.06404 34.1575 1.19536C34.2888 1.32667 34.4669 1.40045 34.6527 1.40045H39.2516L47.3636 15.2568C47.4254 15.3624 47.5137 15.4499 47.6198 15.5108C47.7259 15.5716 47.8462 15.6035 47.9685 15.6034Z" fill="#FF2249"/>
<path d="M40.2552 2.41729C40.3165 2.31037 40.405 2.22153 40.5117 2.15974C40.6183 2.09796 40.7394 2.06543 40.8627 2.06543H44.9459C46.0616 2.06488 47.132 2.50655 47.9226 3.29369C48.7133 4.08083 49.1597 5.14925 49.1641 6.2649C49.1685 7.38056 48.7306 8.45248 47.9462 9.24586C47.1618 10.0392 46.0949 10.4894 44.9793 10.4976C44.8571 10.4976 44.737 10.4657 44.631 10.4049C44.525 10.3441 44.4367 10.2566 44.375 10.1511L40.2584 3.11938C40.1961 3.01299 40.163 2.89204 40.1624 2.76876C40.1619 2.64548 40.1939 2.52424 40.2552 2.41729Z" fill="#FF2249"/>
<path d="M10.456 4.31387C10.9289 4.04551 11.4656 3.91002 12.0092 3.92173C12.5528 3.93344 13.0831 4.09192 13.544 4.38039L19.343 7.95503H23.3097H23.3135H29.8756C30.0613 7.95503 30.2394 7.88126 30.3707 7.74994C30.502 7.61862 30.5758 7.44052 30.5758 7.25481C30.5758 7.0691 30.502 6.89099 30.3707 6.75967C30.2394 6.62836 30.0613 6.55458 29.8756 6.55458H24.5501C25.8314 4.64005 27.7909 3.28247 30.0335 2.75555C32.2762 2.22863 34.6352 2.57155 36.635 3.71518L35.2801 1.40094H30.6808C30.4951 1.40094 30.317 1.32716 30.1857 1.19584C30.0544 1.06453 29.9806 0.886423 29.9806 0.700712C29.9806 0.515001 30.0544 0.336896 30.1857 0.205579C30.317 0.0742612 30.4951 0.000488333 30.6808 0.000488333H35.6816C35.8035 0.000441509 35.9234 0.0322984 36.0292 0.0928974C36.1351 0.153496 36.2232 0.240728 36.2849 0.345931L39.4604 5.77033L45.4649 16.0263C45.513 16.1056 45.5449 16.1938 45.5587 16.2856C45.5725 16.3774 45.5679 16.4711 45.5451 16.5611C45.5224 16.6511 45.482 16.7357 45.4263 16.8099C45.3705 16.8842 45.3006 16.9466 45.2205 16.9936C45.1404 17.0405 45.0518 17.0711 44.9598 17.0835C44.8678 17.0959 44.7742 17.0899 44.6845 17.0658C44.5949 17.0417 44.5109 17 44.4375 16.9432C44.3641 16.8863 44.3027 16.8154 44.257 16.7347L42.7947 14.2372L39.8094 20.3863C38.981 22.0764 37.6967 23.5012 36.1014 24.5C34.5061 25.4987 32.6633 26.0315 30.7812 26.0383H18.8517C19.0732 25.2187 19.1859 24.3735 19.1866 23.5245C19.1867 23.152 19.1649 22.7799 19.1213 22.41C19.067 21.937 18.9769 21.4688 18.8517 21.0095H19.7888L21.4344 16.6156C21.5667 16.2605 21.5717 15.8704 21.4484 15.512C21.3252 15.1536 21.0814 14.849 20.7586 14.6503L9.22595 7.57457C9.12413 7.51183 9.04002 7.42412 8.98161 7.31975C8.92319 7.21538 8.89241 7.09782 8.89218 6.97822C8.88837 6.43437 9.0317 5.89961 9.307 5.43057C9.5823 4.96154 9.97932 4.57568 10.456 4.31387ZM25.5949 15.3735L30.965 19.0563H27.7332C27.5475 19.0563 27.3694 19.13 27.2381 19.2613C27.1068 19.3927 27.033 19.5708 27.033 19.7565C27.033 19.9422 27.1068 20.1203 27.2381 20.2516C27.3694 20.3829 27.5475 20.4567 27.7332 20.4567H33.9289C33.9324 20.4567 33.9358 20.4567 33.9392 20.4567H33.9455C34.5205 20.4567 35.0836 20.2934 35.5694 19.9859C36.0552 19.6783 36.4437 19.2391 36.6897 18.7195L38.4037 15.095C38.4542 14.9882 38.4769 14.8705 38.4696 14.7526C38.4624 14.6348 38.4255 14.5207 38.3623 14.4209C38.2992 14.3212 38.2118 14.239 38.1084 14.1821C38.0049 14.1251 37.8888 14.0953 37.7707 14.0953H25.9909C25.8414 14.0952 25.6958 14.1431 25.5754 14.2318C25.455 14.3205 25.3662 14.4454 25.3219 14.5882C25.2776 14.731 25.2803 14.8843 25.3294 15.0255C25.3785 15.1667 25.4715 15.2885 25.5949 15.3731V15.3735Z" fill="#FF2249"/>
<path d="M35.4259 18.1208C35.3248 18.3346 35.1784 18.5238 34.997 18.6755C34.8156 18.8272 34.6035 18.9377 34.3752 18.9994C34.1469 19.0611 33.9079 19.0725 33.6748 19.0329C33.4417 18.9932 33.22 18.9034 33.0249 18.7697L28.2517 15.4966H36.6661L35.4259 18.1208Z" fill="#FF2249"/>
<path d="M0.712837 31.7163H59.0401C59.2258 31.7163 59.4039 31.7901 59.5352 31.9214C59.6665 32.0527 59.7403 32.2308 59.7403 32.4165V33.7292C59.7394 34.5337 59.4194 35.305 58.8506 35.8738C58.2817 36.4427 57.5105 36.7626 56.706 36.7635H3.04692C2.24245 36.7626 1.47118 36.4427 0.902332 35.8738C0.333485 35.305 0.0135117 34.5337 0.0126152 33.7292V32.4165C0.0126152 32.2308 0.0863914 32.0527 0.217709 31.9214C0.349026 31.7901 0.527126 31.7163 0.712837 31.7163Z" fill="#FF2249"/>
</svg>
