<svg width="50" height="50" viewBox="0 0 50 50" fill="none" xmlns="http://www.w3.org/2000/svg">
<path d="M13.2549 36.9626C10.382 45.9873 4.93147 49.6539 4.62028 49.8565C4.43519 49.9773 4.20971 50.0195 3.99345 49.974C3.77719 49.9285 3.58787 49.799 3.46713 49.6139C3.34639 49.4288 3.30413 49.2033 3.34963 48.987C3.39514 48.7708 3.52469 48.5814 3.70979 48.4607C3.77711 48.4164 8.43755 45.2509 11.2463 37.5815C7.80968 38.6893 4.45065 40.0245 1.19144 41.5784C0.992204 41.6716 0.764226 41.6822 0.557219 41.6079C0.350212 41.5336 0.180969 41.3805 0.0863975 41.1819C-0.00817448 40.9834 -0.0204042 40.7555 0.0523755 40.5479C0.125155 40.3404 0.27704 40.1701 0.474909 40.0741C4.16378 38.3158 7.97815 36.8339 11.8866 35.6407C12.7987 32.4486 13.2795 29.1488 13.3162 25.8291H0.833174C0.612203 25.8291 0.400281 25.7413 0.244031 25.5851C0.0877806 25.4288 0 25.2169 0 24.9959C0 24.775 0.0877806 24.563 0.244031 24.4068C0.400281 24.2505 0.612203 24.1628 0.833174 24.1628H13.3162C13.2789 20.9238 12.8201 17.7035 11.9515 14.5829C7.97384 13.3984 4.12043 11.8311 0.445331 9.90282C0.3485 9.85186 0.262655 9.78232 0.192698 9.69818C0.122741 9.61404 0.0700419 9.51694 0.0376095 9.41243C0.0051771 9.30793 -0.00635328 9.19805 0.00367651 9.08909C0.0137063 8.98012 0.0450999 8.8742 0.0960649 8.77737C0.14703 8.68054 0.216568 8.5947 0.30071 8.52474C0.384851 8.45478 0.481947 8.40208 0.586455 8.36965C0.690963 8.33722 0.800836 8.32569 0.9098 8.33572C1.01876 8.34575 1.12469 8.37714 1.22152 8.42811C4.46118 10.1278 7.84411 11.5391 11.3312 12.6457C8.53237 4.80596 3.77778 1.57591 3.70979 1.53117C3.52469 1.41043 3.39514 1.22111 3.34963 1.00485C3.30413 0.788595 3.34639 0.563116 3.46713 0.378019C3.58787 0.192922 3.77719 0.0633695 3.99345 0.0178615C4.20971 -0.0276464 4.43519 0.014618 4.62028 0.135357C4.93397 0.339651 10.4732 4.06411 13.3262 13.2531C15.734 13.9373 18.1786 14.4845 20.6483 14.892C20.8549 14.9258 21.0412 15.0361 21.1701 15.201C21.2991 15.3658 21.3613 15.5732 21.3443 15.7818C21.3273 15.9905 21.2325 16.1851 21.0786 16.3269C20.9247 16.4688 20.723 16.5475 20.5137 16.5475C20.468 16.5474 20.4224 16.5437 20.3774 16.5365C18.1594 16.1707 15.984 15.6886 13.8466 15.1167C14.5665 18.0793 14.9477 21.1141 14.9827 24.1628H17.4967C17.7176 24.1628 17.9296 24.2505 18.0858 24.4068C18.2421 24.563 18.3298 24.775 18.3298 24.9959C18.3298 25.2169 18.2421 25.4288 18.0858 25.5851C17.9296 25.7413 17.7176 25.8291 17.4967 25.8291H14.9827C14.9483 28.95 14.5502 32.0562 13.7965 35.0848C16.0096 34.4722 18.2263 33.9554 20.4404 33.5571C20.5481 33.5378 20.6586 33.5399 20.7655 33.5632C20.8724 33.5866 20.9737 33.6307 21.0635 33.6932C21.1533 33.7557 21.23 33.8353 21.289 33.9274C21.3481 34.0195 21.3885 34.1223 21.4078 34.23C21.4272 34.3377 21.4251 34.4482 21.4018 34.5551C21.3784 34.662 21.3342 34.7632 21.2717 34.8531C21.2093 34.9429 21.1297 35.0195 21.0376 35.0786C20.9455 35.1377 20.8427 35.1781 20.735 35.1974C18.2122 35.6536 15.7154 36.2428 13.2549 36.9626ZM35.6044 7.24258C28.8193 5.89877 22.2885 3.49367 16.2526 0.11586C16.0624 0.00943545 15.8382 -0.0182689 15.6278 0.0386856C15.4175 0.0956401 15.2379 0.232721 15.1274 0.420545C15.017 0.60837 14.9845 0.831992 15.037 1.04348C15.0894 1.25496 15.2226 1.43749 15.4081 1.55192C18.0362 3.07523 20.7855 4.37939 23.6278 5.45117C24.7368 7.09022 25.6025 8.88122 26.1982 10.7684C26.2697 10.9775 26.4214 11.1496 26.6198 11.2469C26.8182 11.3442 27.0472 11.3587 27.2563 11.2871C27.4654 11.2156 27.6375 11.0639 27.7348 10.8655C27.8321 10.6671 27.8466 10.4381 27.775 10.229C27.3265 8.89594 26.7743 7.60001 26.1236 6.35309C29.1156 7.36503 32.1628 8.20559 35.2504 8.87069C38.9481 9.65215 42.2648 11.6807 44.645 14.6164C47.0251 17.5521 48.3239 21.2166 48.3239 24.9959C48.3239 28.7753 47.0251 32.4398 44.645 35.3755C42.2648 38.3112 38.9481 40.3397 35.2504 41.1212C32.1628 41.7863 29.1156 42.6268 26.1236 43.6387C26.7743 42.3918 27.3265 41.0959 27.775 39.7628C27.8466 39.5537 27.8321 39.3247 27.7348 39.1263C27.6375 38.9278 27.4654 38.7762 27.2563 38.7047C27.0472 38.6331 26.8182 38.6476 26.6198 38.7449C26.4214 38.8422 26.2697 39.0143 26.1982 39.2234C25.6022 41.1104 24.7365 42.9013 23.6281 44.5405C20.7856 45.6123 18.0363 46.9165 15.4081 48.4398C15.3113 48.494 15.2263 48.5669 15.1581 48.6544C15.0898 48.7418 15.0398 48.842 15.0108 48.949C14.9818 49.0561 14.9745 49.1679 14.9892 49.2778C15.004 49.3877 15.0406 49.4936 15.0968 49.5892C15.153 49.6848 15.2278 49.7682 15.3167 49.8345C15.4055 49.9009 15.5068 49.9488 15.6144 49.9755C15.7221 50.0022 15.834 50.0071 15.9435 49.99C16.0531 49.9729 16.1582 49.9341 16.2526 49.8759C22.2885 46.498 28.8193 44.0929 35.6044 42.7491C39.6738 41.8869 43.3235 39.6529 45.9424 36.421C48.5613 33.1891 49.9904 29.1556 49.9904 24.9958C49.9904 20.836 48.5613 16.8025 45.9424 13.5706C43.3235 10.3387 39.6738 8.10478 35.6044 7.24258ZM19.9962 24.9959C19.9962 22.3594 20.778 19.782 22.2428 17.5898C23.7076 15.3975 25.7896 13.6889 28.2255 12.6799C30.6614 11.6709 33.3418 11.4069 35.9277 11.9213C38.5136 12.4357 40.8889 13.7053 42.7533 15.5696C44.6176 17.434 45.8872 19.8093 46.4016 22.3952C46.916 24.9812 46.652 27.6615 45.643 30.0974C44.634 32.5333 42.9254 34.6153 40.7332 36.0801C38.5409 37.5449 35.9635 38.3267 33.327 38.3267C29.7927 38.3227 26.4043 36.9169 23.9051 34.4178C21.406 31.9186 20.0002 28.5302 19.9962 24.9959ZM23.389 18.9198C22.4285 20.4809 21.8528 22.2478 21.7092 24.075L24.4232 22.103L23.389 18.9198ZM21.7198 26.1268C21.8854 27.8145 22.4202 29.445 23.2862 30.903H28.0113L29.4277 29.0043L27.9052 24.1104L25.5495 23.3449L21.7198 26.1268ZM29.5455 23.7738L30.9625 28.3286H35.6914L37.1084 23.7743L33.327 21.0265L29.5455 23.7738ZM37.2266 29.0038L38.6426 30.9031H43.3675C44.2336 29.4452 44.7683 27.8146 44.9339 26.127L41.1046 23.3447L38.7489 24.1102L37.2266 29.0038ZM42.2307 22.1026L44.9447 24.0746C44.8012 22.2474 44.2254 20.4805 43.2649 18.9194L42.2307 22.1026ZM28.8637 35.7689L27.8243 32.5695H24.4734C25.6658 33.9654 27.1697 35.0613 28.8637 35.7689ZM33.327 36.6604C34.1721 36.6586 35.0144 36.5648 35.8392 36.3806L37.2986 31.8889L35.8868 29.995H30.7671L29.3553 31.8889L30.8147 36.3806C31.6395 36.5648 32.4819 36.6586 33.327 36.6604ZM42.1805 32.5695H38.8297L37.7902 35.7689C39.4842 35.0613 40.9881 33.9654 42.1805 32.5695ZM37.9861 14.309L34.1601 17.0891V19.572L38.2278 22.5272L40.5897 21.7596L42.0469 17.2748C40.9241 16.0037 39.5385 14.9918 37.9861 14.309ZM33.327 13.3315C32.4127 13.3349 31.502 13.4462 30.6138 13.663L33.327 15.6346L36.0401 13.663C35.1519 13.4462 34.2412 13.3349 33.327 13.3315ZM24.607 17.2752L26.0642 21.7599L28.4262 22.5276L32.4938 19.572V17.0891L28.6679 14.3093C27.1154 14.9921 25.7298 16.0041 24.607 17.2752Z" fill="#FF2249"/>
</svg>
