<svg width="50" height="38" viewBox="0 0 50 38" fill="none" xmlns="http://www.w3.org/2000/svg">
<path fill-rule="evenodd" clip-rule="evenodd" d="M8.99219 3.14014V22.1378H40.6044V3.14014H8.99219Z" fill="#FF2249"/>
<path fill-rule="evenodd" clip-rule="evenodd" d="M41.2046 23.3376H8.39264C8.06128 23.3376 7.7927 23.069 7.7927 22.7377V2.5399C7.7927 2.2085 8.06128 1.9401 8.39264 1.9401L41.2046 1.94006C41.5359 1.94006 41.8045 2.2086 41.8045 2.53993L41.8045 22.7376C41.8045 23.069 41.5359 23.3377 41.2046 23.3376ZM5.8516 0.528894L5.8517 25.2788H43.7456V0.528827C43.7456 0.237294 43.5085 0.000101463 43.2168 0.000101463L6.38042 0C6.08886 0 5.8516 0.237361 5.8516 0.528894Z" fill="#FF2249"/>
<path fill-rule="evenodd" clip-rule="evenodd" d="M44.0217 26.479H5.58938L0.470703 34.8664L49.4937 34.8663L44.0217 26.479ZM23.5271 29.0152C23.5271 29.3465 23.2585 29.6152 22.9272 29.6151H21.9746C21.6433 29.6151 21.3746 29.3466 21.3746 29.0152C21.3746 28.6839 21.6433 28.4152 21.9746 28.4152L22.9272 28.4152C23.2585 28.4152 23.5271 28.6839 23.5271 29.0152ZM18.8297 29.0152C18.8297 29.3465 18.5612 29.6152 18.2298 29.6151H17.2773C16.946 29.6151 16.6774 29.3466 16.6774 29.0152C16.6774 28.6839 16.946 28.4152 17.2773 28.4152L18.2298 28.4152C18.5612 28.4152 18.8297 28.6839 18.8297 29.0152ZM14.1325 29.0152C14.1325 29.3465 13.8639 29.6152 13.5325 29.6151H12.58C12.2487 29.6151 11.98 29.3466 11.98 29.0152C11.98 28.6839 12.2487 28.4152 12.58 28.4152L13.5325 28.4152C13.8639 28.4152 14.1325 28.6839 14.1325 29.0152ZM9.43527 29.0152C9.43527 29.3465 9.1667 29.6152 8.83537 29.6151H7.8828C7.55147 29.6151 7.28286 29.3466 7.28286 29.0152C7.28286 28.6839 7.55147 28.4152 7.8828 28.4152L8.83537 28.4152C9.1667 28.4152 9.43527 28.6839 9.43527 29.0152ZM6.48617 31.7314C6.8175 31.7314 7.08607 32.0001 7.08607 32.3314C7.0861 32.6626 6.8175 32.9312 6.48617 32.9312H5.53353C5.2022 32.9312 4.93359 32.6627 4.93359 32.3314C4.93359 32 5.2022 31.7314 5.53353 31.7314L6.48617 31.7314ZM26.672 29.6151C26.3406 29.6151 26.072 29.3466 26.072 29.0152C26.072 28.6839 26.3406 28.4152 26.672 28.4152L27.6244 28.4152C27.9557 28.4152 28.2244 28.6839 28.2244 29.0152C28.2244 29.3465 27.9557 29.6152 27.6244 29.6151H26.672ZM37.8158 32.3314C37.8158 32 38.0843 31.7314 38.4157 31.7314L39.3682 31.7314C39.6996 31.7314 39.9682 32.0001 39.9682 32.3314C39.9682 32.6626 39.6996 32.9312 39.3682 32.9312H38.4157C38.0843 32.9312 37.8158 32.6627 37.8158 32.3314ZM43.1129 32.9312C42.7816 32.9312 42.513 32.6627 42.513 32.3314C42.513 32 42.7816 31.7314 43.1129 31.7314L44.0655 31.7314C44.3969 31.7314 44.6654 32.0001 44.6654 32.3314C44.6655 32.6626 44.3968 32.9312 44.0655 32.9312H43.1129ZM19.6266 31.7314L29.9738 31.7314C30.3051 31.7314 30.5736 32.0001 30.5736 32.3314C30.5736 32.6626 30.3051 32.9312 29.9738 32.9312H19.6266C19.2952 32.9312 19.0266 32.6627 19.0266 32.3314C19.0266 32 19.2951 31.7314 19.6266 31.7314ZM16.4806 32.3314C16.4806 32.6626 16.212 32.9312 15.8806 32.9312H14.9281C14.5968 32.9312 14.3281 32.6627 14.3281 32.3314C14.3281 32 14.5968 31.7314 14.9281 31.7314L15.8806 31.7314C16.212 31.7314 16.4806 32.0001 16.4806 32.3314ZM11.7834 32.3314C11.7834 32.6626 11.5147 32.9312 11.1834 32.9312H10.2309C9.89942 32.9312 9.63088 32.6627 9.63088 32.3314C9.63088 32 9.89942 31.7314 10.2309 31.7314L11.1834 31.7314C11.5148 31.7314 11.7834 32.0001 11.7834 32.3314ZM33.7184 32.9312C33.3871 32.9312 33.1185 32.6627 33.1185 32.3314C33.1185 32 33.3871 31.7314 33.7184 31.7314L34.671 31.7314C35.0023 31.7314 35.2708 32.0001 35.2708 32.3314C35.2708 32.6626 35.0023 32.9312 34.671 32.9312H33.7184ZM31.3704 29.6151C31.039 29.6151 30.7704 29.3466 30.7704 29.0152C30.7704 28.6839 31.039 28.4152 31.3704 28.4152L32.3217 28.4152C32.6531 28.4152 32.9217 28.6839 32.9217 29.0152C32.9217 29.3465 32.6531 29.6152 32.3217 29.6151H31.3704ZM36.0676 29.6151C35.7362 29.6151 35.4677 29.3466 35.4677 29.0152C35.4677 28.6839 35.7362 28.4152 36.0676 28.4152L37.0201 28.4152C37.3516 28.4152 37.6201 28.6839 37.6201 29.0152C37.6201 29.3465 37.3516 29.6152 37.0201 29.6151H36.0676ZM40.7649 29.6151C40.4336 29.6151 40.165 29.3466 40.165 29.0152C40.165 28.6839 40.4336 28.4152 40.7649 28.4152L41.7175 28.4152C42.0488 28.4152 42.3174 28.6839 42.3174 29.0152C42.3174 29.3465 42.0488 29.6152 41.7175 29.6151H40.7649Z" fill="#FF2249"/>
<path fill-rule="evenodd" clip-rule="evenodd" d="M50 36.0664H0V37.7381C0 37.8631 0.101577 37.9653 0.226385 37.9653L49.7735 37.9652C49.8984 37.9652 49.9999 37.8632 49.9999 37.7382L50 36.0664Z" fill="#FF2249"/>
</svg>
