<svg width="562" height="375" viewBox="0 0 562 375" fill="none" xmlns="http://www.w3.org/2000/svg">
<g opacity="0.32">
<path d="M182.681 67.7474L10.7344 153.648L115.303 362.962L287.25 277.061L182.681 67.7474Z" fill="#DEDEDE"/>
<path d="M207.856 57.6955L74.8945 83.0249L119.113 315.141L298.493 280.969L263.325 96.3579L207.856 57.6955Z" fill="#CFCFCF" fill-opacity="0.7"/>
<path d="M201.368 233.065L133.848 245.928L136.559 260.163L204.079 247.3L201.368 233.065Z" fill="#B5B4B4"/>
<path d="M226.931 200.871L128.828 219.56L131.542 233.807L229.645 215.118L226.931 200.871Z" fill="#B5B4B4"/>
<path d="M221.349 171.59L123.246 190.278L125.96 204.525L224.063 185.836L221.349 171.59Z" fill="#B5B4B4"/>
<path d="M487.417 267.197L473.543 250.248L461.219 260.894L479.16 278.903L487.417 267.197Z" fill="#CFCFCF"/>
<path d="M534.973 362.426L464.808 280.166C475.199 260.18 491.077 257.388 491.077 257.388L562.788 339.522C555.756 342.068 544.392 347.155 534.973 362.426Z" fill="#EBECEC"/>
<path d="M283.391 55.7445C323.155 7.33364 401.477 5.98039 458.339 52.7012C515.201 99.422 529.025 176.53 489.25 224.927C449.476 273.324 371.15 274.701 314.302 227.97C257.454 181.24 243.609 104.115 283.391 55.7445ZM327.991 212.176C376.452 252 442.719 251.431 476.018 210.91C509.318 170.388 497.037 105.256 448.575 65.4317C400.114 25.6079 333.847 26.1761 300.548 66.698C267.248 107.22 279.527 172.364 327.991 212.176Z" fill="#C6C6C6"/>
<path d="M440.747 79.1863C393.535 41.1845 328.768 42.0633 295.997 81.176C294.916 82.5211 293.853 83.8779 292.808 85.2465C295.392 80.2925 298.504 75.6324 302.089 71.3473C334.918 32.2579 399.948 31.5532 447.391 69.7722C494.834 107.991 506.733 170.65 473.945 209.722C473.256 210.544 472.555 211.301 471.84 212.068C498.23 172.866 485.375 115.099 440.747 79.1863Z" fill="#CFCFCF"/>
<path d="M565.281 341.433C565.281 341.433 545.803 348.773 538.2 364.192C538.2 364.192 552.691 364.713 565.281 341.433Z" fill="#CFCFCF"/>
<path d="M303 82.4736C330.613 47.4398 389.618 47.9012 434.777 83.4946C479.935 119.088 494.161 176.349 466.546 211.394C438.931 246.44 379.943 245.957 334.772 210.361C289.601 174.766 275.39 117.495 303 82.4736Z" fill="#EDF9FA"/>
</g>
</svg>
