<svg width="18" height="18" viewBox="0 0 18 18" fill="none" xmlns="http://www.w3.org/2000/svg">
<path d="M17.9487 3.39926C17.9487 2.29598 17.1956 1.34068 16.1387 1.07508C15.8221 0.41748 15.164 0 14.4246 0H7.10297C6.39601 0 5.75617 0.388055 5.42682 1.00178H2.39745C1.07546 1.00178 0 2.07728 0 3.39926V15.6027C0 16.9246 1.07543 18 2.39727 18H4.93625C5.08191 18 5.19993 17.8819 5.19993 17.7363C5.19993 17.5907 5.08191 17.4727 4.93625 17.4727H2.3973C1.36621 17.4727 0.527379 16.6338 0.527379 15.6027V6.74402C0.527379 5.71293 1.36621 4.87406 2.3973 4.87406H6.58301C7.21494 4.87406 7.79927 5.18941 8.14609 5.71771L9.10266 7.1742C9.54724 7.85141 10.2964 8.25574 11.1066 8.25574H15.5514C16.5825 8.25574 17.4213 9.09461 17.4213 10.1257V15.6027C17.4213 16.6338 16.5825 17.4727 15.5514 17.4727H5.99098C5.84532 17.4727 5.7273 17.5907 5.7273 17.7363C5.7273 17.8819 5.84532 18 5.99098 18H15.5514C16.8732 18 17.9486 16.9246 17.9486 15.6027L17.9487 3.39926ZM0.527309 5.24644V3.39926C0.527309 2.36805 1.36624 1.52912 2.39741 1.52912H5.23666C5.2123 1.65129 5.19993 1.77616 5.19993 1.90301V2.50218H4.4853C3.45572 2.50218 2.61506 3.32437 2.58377 4.34672H2.3973C1.64169 4.34672 0.967043 4.69849 0.527309 5.24644ZM9.54344 6.88475L8.58688 5.42827C8.14229 4.75105 7.39315 4.34672 6.58301 4.34672H3.11112C3.14209 3.61515 3.7465 3.02952 4.4853 3.02952H11.8069C12.5654 3.02952 13.1826 3.64683 13.1826 4.40561V7.7284H11.1066C10.4746 7.7284 9.8903 7.41305 9.54344 6.88475ZM16.3276 7.85813V3.66047C16.3276 3.51485 16.2096 3.3968 16.0639 3.3968C15.9183 3.3968 15.8003 3.51485 15.8003 3.66047V7.74134C15.7184 7.73286 15.6354 7.7284 15.5514 7.7284H13.7099V4.40561C13.7099 3.35605 12.8562 2.50218 11.8069 2.50218H5.7273V1.90301C5.7273 1.71717 5.76355 1.53735 5.8352 1.36818C6.05081 0.857391 6.54845 0.527344 7.10297 0.527344H14.4246C14.9939 0.527344 15.4967 0.869695 15.7052 1.39894C15.7683 1.5602 15.8003 1.72979 15.8003 1.90297V2.63036C15.8003 2.77597 15.9183 2.89403 16.0639 2.89403C16.2096 2.89403 16.3276 2.77597 16.3276 2.63036V1.90301C16.3276 1.83217 16.3233 1.76186 16.3155 1.69207C16.9754 1.98714 17.4213 2.64934 17.4213 3.39929V8.62815C17.1397 8.27715 16.7617 8.00712 16.3276 7.85813Z" fill="#030001"/>
<path d="M12.342 4.37734C12.2134 4.30896 12.0538 4.35786 11.9854 4.48643L11.0197 6.30334L10.3521 5.47235C10.2609 5.35887 10.0949 5.34073 9.98136 5.43196C9.86781 5.52319 9.84974 5.68913 9.94097 5.80264L10.8593 6.9455C10.9096 7.00812 10.9853 7.04401 11.0648 7.04401C11.073 7.04401 11.0813 7.04363 11.0896 7.04285C11.1779 7.03452 11.256 6.98238 11.2976 6.90409L12.4511 4.73393C12.5194 4.60533 12.4706 4.44568 12.342 4.37734Z" fill="#030001"/>
<path d="M2.29687 9.88428H6.79431C6.93996 9.88428 7.05798 9.76622 7.05798 9.62061C7.05798 9.47499 6.93996 9.35693 6.79431 9.35693H2.29687C2.15122 9.35693 2.0332 9.47499 2.0332 9.62061C2.0332 9.76622 2.15126 9.88428 2.29687 9.88428Z" fill="#030001"/>
<path d="M2.29687 10.8599H6.79431C6.93996 10.8599 7.05798 10.7418 7.05798 10.5962C7.05798 10.4506 6.93996 10.3325 6.79431 10.3325H2.29687C2.15122 10.3325 2.0332 10.4506 2.0332 10.5962C2.0332 10.7418 2.15126 10.8599 2.29687 10.8599Z" fill="#030001"/>
</svg>
