<svg width="41" height="41" viewBox="0 0 41 41" fill="none" xmlns="http://www.w3.org/2000/svg">
<path d="M20.5 0C9.18966 0 0 9.18966 0 20.5C0 31.8103 9.18966 41 20.5 41C31.8103 41 41 31.8103 41 20.5C41 9.18966 31.8103 0 20.5 0ZM17.319 24.9181L14.4914 27.7457H16.6121V29.5129H11.4871V24.5647H13.2543V26.6853L16.0819 23.8578C16.4353 23.5043 16.9655 23.5043 17.319 23.8578C17.6724 24.0345 17.6724 24.5647 17.319 24.9181ZM17.319 17.319C17.1422 17.4957 16.9655 17.4957 16.7888 17.4957C16.6121 17.4957 16.2586 17.4957 16.2586 17.319L13.2543 14.4914V16.6121H11.4871V11.4871H16.4353V13.2543H14.4914L17.319 16.0819C17.6724 16.4353 17.6724 16.9655 17.319 17.319ZM29.5129 29.5129H24.5647V27.7457H26.6853L23.8578 24.9181C23.5043 24.5647 23.5043 24.0345 23.8578 23.681C24.2112 23.3276 24.7414 23.3276 25.0948 23.681L27.9224 26.5086V24.3879H29.6897V29.5129H29.5129ZM29.5129 16.6121H27.7457V14.4914L24.9181 17.319C24.7414 17.4957 24.5647 17.4957 24.3879 17.4957C24.2112 17.4957 23.8578 17.4957 23.681 17.319C23.3276 16.9655 23.3276 16.4353 23.681 16.0819L26.5086 13.2543H24.3879V11.4871H29.3362V16.6121H29.5129Z" fill="white"/>
</svg>
