<svg width="40" height="39" viewBox="0 0 40 39" fill="none" xmlns="http://www.w3.org/2000/svg">
<path d="M19.8232 0C15.9025 0 12.0699 1.14365 8.81003 3.28634C5.55012 5.42903 3.00933 8.47451 1.50896 12.0377C0.00858897 15.6008 -0.383976 19.5216 0.380906 23.3043C1.14579 27.0869 3.03377 30.5615 5.80609 33.2886C8.57841 36.0157 12.1106 37.8729 15.9559 38.6253C19.8012 39.3777 23.787 38.9916 27.4092 37.5156C31.0314 36.0397 34.1274 33.5404 36.3056 30.3336C38.4838 27.1269 39.6464 23.3567 39.6464 19.5C39.6404 14.3301 37.55 9.37361 33.8337 5.71793C30.1174 2.06225 25.0788 0.00589836 19.8232 0ZM19.8232 38.3809C16.027 38.3809 12.3161 37.2736 9.15965 35.1989C6.00323 33.1243 3.54311 30.1755 2.09036 26.7254C0.637625 23.2754 0.257521 19.479 0.998122 15.8165C1.73872 12.154 3.56676 8.7897 6.25108 6.14915C8.93539 3.5086 12.3554 1.71037 16.0787 0.98184C19.8019 0.253314 23.6612 0.62722 27.1684 2.05627C30.6756 3.48533 33.6733 5.90535 35.7823 9.0103C37.8914 12.1153 39.0171 15.7657 39.0171 19.5C39.0114 24.5058 36.9874 29.305 33.3891 32.8447C29.7908 36.3843 24.912 38.3754 19.8232 38.3809Z" fill="white"/>
<path d="M19.8233 3.16309C16.5386 3.16309 13.3277 4.12123 10.5966 5.91636C7.86543 7.71149 5.73677 10.263 4.47977 13.2482C3.22277 16.2334 2.89388 19.5182 3.5347 22.6872C4.17551 25.8563 5.75725 28.7673 8.07988 31.052C10.4025 33.3368 13.3617 34.8928 16.5833 35.5231C19.8049 36.1535 23.1442 35.83 26.1788 34.5935C29.2135 33.3569 31.8073 31.263 33.6322 28.5764C35.4571 25.8898 36.4311 22.7312 36.4311 19.5001C36.4262 15.1687 34.6749 11.0161 31.5614 7.95341C28.4479 4.89068 24.2265 3.16792 19.8233 3.16309ZM19.8233 35.218C16.6631 35.218 13.5738 34.2961 10.9462 32.569C8.31855 30.8419 6.27055 28.3871 5.06118 25.515C3.85181 22.643 3.53538 19.4826 4.15191 16.4336C4.76844 13.3847 6.29024 10.584 8.52487 8.38581C10.7595 6.18762 13.6066 4.69063 16.7061 4.08415C19.8056 3.47767 23.0183 3.78894 25.938 4.97859C28.8577 6.16824 31.3532 8.18285 33.1089 10.7676C34.8647 13.3524 35.8018 16.3913 35.8018 19.5001C35.797 23.6673 34.1121 27.6625 31.1166 30.6092C28.121 33.5558 24.0596 35.2133 19.8233 35.218Z" fill="white"/>
<path d="M25.7676 17.5117L18.5765 12.5943C18.2073 12.3419 17.775 12.1937 17.3263 12.1659C16.8776 12.1381 16.4297 12.2317 16.0313 12.4366C15.6329 12.6415 15.2991 12.9498 15.0663 13.3281C14.8334 13.7064 14.7103 14.1402 14.7103 14.5824V24.4172C14.706 24.8604 14.8274 25.2959 15.0609 25.6749C15.2943 26.0539 15.6306 26.3614 16.0319 26.5628C16.4292 26.7717 16.8778 26.8676 17.3274 26.8398C17.777 26.812 18.2098 26.6615 18.5774 26.4053L25.7676 21.4879C26.0935 21.2648 26.3598 20.9676 26.5437 20.6214C26.7276 20.2752 26.8237 19.8904 26.8237 19.4998C26.8237 19.1092 26.7276 18.7244 26.5437 18.3782C26.3598 18.0321 26.0935 17.7348 25.7676 17.5117ZM25.4082 20.9793L18.2184 25.8967C17.9436 26.0846 17.6218 26.1948 17.2879 26.2155C16.954 26.2362 16.6207 26.1665 16.3241 26.014C16.0276 25.8616 15.7792 25.6322 15.6058 25.3507C15.4324 25.0692 15.3407 24.7464 15.3406 24.4172V14.5824C15.3373 14.2526 15.4276 13.9285 15.6013 13.6464C15.775 13.3643 16.0252 13.1355 16.3239 12.9856C16.6195 12.8299 16.9533 12.7585 17.2879 12.7792C17.6225 12.7999 17.9447 12.912 18.2181 13.1029L25.4082 18.0203C25.6509 18.1862 25.8491 18.4075 25.9859 18.6651C26.1228 18.9227 26.1943 19.2091 26.1943 19.4998C26.1943 19.7905 26.1228 20.0769 25.9859 20.3345C25.8491 20.5921 25.6509 20.8134 25.4082 20.9793Z" fill="white"/>
</svg>
