<svg width="169" height="46" viewBox="0 0 169 46" fill="none" xmlns="http://www.w3.org/2000/svg">
<path d="M20.6251 16.7569C23.5048 18.0981 26.4731 18.7636 28.9758 18.632H29.0213L29.201 0.789457C29.2023 0.647654 29.1651 0.508149 29.0933 0.385875C29.0215 0.263602 28.9177 0.163163 28.7932 0.0953123C28.6687 0.0274611 28.5281 -0.00524854 28.3864 0.000684872C28.2447 0.00661828 28.1073 0.0509713 27.9889 0.128996L12.9805 10.251C14.1951 12.5715 17.0014 15.0665 20.6251 16.7569Z" fill="#BB9A65"/>
<path d="M28.3585 20.3452C25.7394 20.3452 22.7711 19.629 19.9091 18.2929C15.9615 16.4532 12.9933 13.8291 11.5585 11.2075L3.93661 16.3571C3.80468 16.4455 3.70278 16.5719 3.64447 16.7196C3.58616 16.8673 3.5742 17.0293 3.61019 17.1839C3.64618 17.3386 3.7284 17.4786 3.84593 17.5854C3.96346 17.6922 4.11071 17.7607 4.26811 17.7818L17.0826 19.5253C17.8358 19.6277 18.5263 20 19.026 20.5729L27.5386 30.3077C27.6431 30.4269 27.7814 30.5116 27.935 30.5507C28.0887 30.5897 28.2506 30.5813 28.3994 30.5265C28.5482 30.4717 28.6769 30.3731 28.7685 30.2437C28.8601 30.1143 28.9104 29.9602 28.9126 29.8016L29.0063 20.33C28.7954 20.3401 28.5795 20.3452 28.3585 20.3452Z" fill="#BB9A65"/>
<path d="M28.3577 18.9939C25.7387 18.9939 22.7704 18.2778 19.9084 16.9416C13.1773 13.8038 9.28031 8.3835 11.0517 4.6004C12.823 0.8173 19.4656 0.318791 26.1967 3.45661C28.3132 4.42546 30.2617 5.72558 31.9688 7.30803C32.1322 7.46273 32.2275 7.67601 32.2336 7.90095C32.2398 8.12589 32.1564 8.34407 32.0017 8.50749C31.847 8.67091 31.6337 8.76618 31.4088 8.77235C31.1838 8.77852 30.9656 8.69508 30.8022 8.54039C29.23 7.08507 27.4362 5.88922 25.4882 4.99769C19.8072 2.34825 13.901 2.49755 12.5851 5.30894C11.2693 8.12032 14.9512 12.7587 20.6245 15.4056C23.5042 16.7468 26.4725 17.4149 28.9752 17.2807C31.2957 17.1593 32.9076 16.3799 33.5124 15.0817C34.1425 13.7279 33.5326 12.1818 32.9101 11.124C32.8536 11.028 32.8166 10.9218 32.8012 10.8114C32.7857 10.7011 32.7922 10.5888 32.8201 10.4809C32.8481 10.3731 32.897 10.2718 32.9641 10.1828C33.0312 10.0939 33.1152 10.019 33.2112 9.96253C33.3073 9.90603 33.4135 9.86901 33.5239 9.85357C33.6342 9.83813 33.7465 9.84457 33.8544 9.87254C34.0722 9.92901 34.2587 10.0697 34.3727 10.2637C35.5444 12.2552 35.7848 14.2214 35.0509 15.7979C34.1678 17.6907 32.0422 18.8345 29.0638 18.9762C28.836 18.9888 28.5981 18.9939 28.3577 18.9939Z" fill="#BB9A65"/>
<path d="M168.314 17.1007C168.314 17.6626 168.278 18.1701 168.205 18.6232H156.759C156.85 19.8195 157.294 20.7802 158.091 21.5052C158.889 22.2303 159.868 22.5928 161.028 22.5928C162.695 22.5928 163.873 21.8949 164.562 20.4993H167.906C167.453 21.8768 166.628 23.0097 165.432 23.8978C164.254 24.7679 162.786 25.2029 161.028 25.2029C159.596 25.2029 158.309 24.8857 157.167 24.2513C156.043 23.5987 155.155 22.6925 154.502 21.5324C153.868 20.3543 153.551 18.9948 153.551 17.4541C153.551 15.9135 153.859 14.5631 154.475 13.4031C155.11 12.2249 155.989 11.3186 157.112 10.6842C158.254 10.0498 159.559 9.7326 161.028 9.7326C162.441 9.7326 163.701 10.0407 164.807 10.657C165.912 11.2733 166.773 12.1433 167.39 13.2671C168.006 14.3728 168.314 15.6506 168.314 17.1007ZM165.079 16.1219C165.061 14.98 164.653 14.0646 163.855 13.3759C163.058 12.6871 162.07 12.3427 160.892 12.3427C159.822 12.3427 158.907 12.6871 158.146 13.3759C157.384 14.0465 156.931 14.9619 156.786 16.1219H165.079Z" fill="black"/>
<path d="M144.469 9.7326C145.647 9.7326 146.698 9.9773 147.623 10.4667C148.565 10.9561 149.299 11.6811 149.825 12.6418C150.369 13.6024 150.641 14.7625 150.641 16.1219V24.9582H147.568V16.5841C147.568 15.2428 147.233 14.2187 146.562 13.5118C145.892 12.7868 144.976 12.4243 143.816 12.4243C142.656 12.4243 141.732 12.7868 141.043 13.5118C140.372 14.2187 140.037 15.2428 140.037 16.5841V24.9582H136.965V16.5841C136.965 15.2428 136.629 14.2187 135.959 13.5118C135.288 12.7868 134.373 12.4243 133.213 12.4243C132.053 12.4243 131.128 12.7868 130.439 13.5118C129.769 14.2187 129.433 15.2428 129.433 16.5841V24.9582H126.334V9.9773H129.433V11.6902C129.941 11.0739 130.584 10.5936 131.364 10.2492C132.143 9.9048 132.977 9.7326 133.865 9.7326C135.061 9.7326 136.131 9.98636 137.073 10.4939C138.016 11.0014 138.741 11.7355 139.249 12.6962C139.702 11.7899 140.409 11.0739 141.369 10.5483C142.33 10.0045 143.363 9.7326 144.469 9.7326Z" fill="black"/>
<path d="M122.244 9.97729V24.9582H119.145V23.1909C118.655 23.8072 118.012 24.2966 117.214 24.6591C116.435 25.0035 115.601 25.1757 114.713 25.1757C113.535 25.1757 112.474 24.931 111.532 24.4416C110.607 23.9522 109.873 23.2272 109.329 22.2665C108.804 21.3058 108.541 20.1458 108.541 18.7864V9.97729H111.613V18.3242C111.613 19.6655 111.949 20.6986 112.619 21.4237C113.29 22.1306 114.205 22.484 115.365 22.484C116.525 22.484 117.441 22.1306 118.111 21.4237C118.8 20.6986 119.145 19.6655 119.145 18.3242V9.97729H122.244Z" fill="black"/>
<path d="M106.337 9.97729L97.147 32H93.9388L96.9839 24.7135L91.084 9.97729H94.5369L98.7511 21.3965L103.129 9.97729H106.337Z" fill="black"/>
<path d="M82.7998 22.4296H89.597V24.9582H79.2109V22.4296L86.0353 12.5058H79.2109V9.97729H89.597V12.5058L82.7998 22.4296Z" fill="black"/>
<path d="M77.0036 17.1007C77.0036 17.6626 76.9673 18.1701 76.8948 18.6232H65.4485C65.5391 19.8195 65.9832 20.7802 66.7807 21.5052C67.5782 22.2303 68.557 22.5928 69.7171 22.5928C71.3846 22.5928 72.5628 21.8949 73.2516 20.4993H76.5958C76.1426 21.8768 75.3179 23.0097 74.1216 23.8978C72.9434 24.7679 71.4753 25.2029 69.7171 25.2029C68.2851 25.2029 66.9982 24.8857 65.8563 24.2513C64.7325 23.5987 63.8444 22.6925 63.1918 21.5324C62.5574 20.3543 62.2402 18.9948 62.2402 17.4541C62.2402 15.9135 62.5484 14.5631 63.1646 13.4031C63.799 12.2249 64.6781 11.3186 65.8019 10.6842C66.9438 10.0498 68.2489 9.7326 69.7171 9.7326C71.1309 9.7326 72.3906 10.0407 73.4963 10.657C74.6019 11.2733 75.4629 12.1433 76.0792 13.2671C76.6955 14.3728 77.0036 15.6506 77.0036 17.1007ZM73.7682 16.1219C73.75 14.98 73.3422 14.0646 72.5447 13.3759C71.7472 12.6871 70.7593 12.3427 69.5811 12.3427C68.5117 12.3427 67.5964 12.6871 66.8351 13.3759C66.0738 14.0465 65.6207 14.9619 65.4757 16.1219H73.7682Z" fill="black"/>
<path d="M55.9108 24.9582L51.5606 17.3998H49.1952V24.9582H46.0957V6.06216H52.6209C54.071 6.06216 55.2945 6.31592 56.2914 6.82344C57.3064 7.33096 58.0587 8.01067 58.548 8.86258C59.0556 9.71449 59.3093 10.6661 59.3093 11.7174C59.3093 12.9499 58.9468 14.0737 58.2218 15.0888C57.5149 16.0857 56.4183 16.7654 54.932 17.1279L59.6084 24.9582H55.9108ZM49.1952 14.9256H52.6209C53.781 14.9256 54.651 14.6356 55.231 14.0556C55.8292 13.4756 56.1283 12.6962 56.1283 11.7174C56.1283 10.7386 55.8383 9.97731 55.2582 9.43354C54.6782 8.87164 53.7991 8.5907 52.6209 8.5907H49.1952V14.9256Z" fill="black"/>
<path d="M71.9418 33.636V42H70.8498V33.636H71.9418ZM77.0069 35.304C77.8069 35.304 78.4549 35.548 78.9509 36.036C79.4469 36.516 79.6949 37.212 79.6949 38.124V42H78.6149V38.28C78.6149 37.624 78.4509 37.124 78.1229 36.78C77.7949 36.428 77.3469 36.252 76.7789 36.252C76.2029 36.252 75.7429 36.432 75.3989 36.792C75.0629 37.152 74.8949 37.676 74.8949 38.364V42H73.8029V35.424H74.8949V36.36C75.1109 36.024 75.4029 35.764 75.7709 35.58C76.1469 35.396 76.5589 35.304 77.0069 35.304ZM82.8107 36.324V40.2C82.8107 40.52 82.8787 40.748 83.0147 40.884C83.1507 41.012 83.3867 41.076 83.7227 41.076H84.5267V42H83.5427C82.9347 42 82.4787 41.86 82.1747 41.58C81.8707 41.3 81.7187 40.84 81.7187 40.2V36.324H80.8667V35.424H81.7187V33.768H82.8107V35.424H84.5267V36.324H82.8107ZM91.8498 38.46C91.8498 38.668 91.8378 38.888 91.8138 39.12H86.5578C86.5978 39.768 86.8178 40.276 87.2178 40.644C87.6258 41.004 88.1178 41.184 88.6938 41.184C89.1658 41.184 89.5578 41.076 89.8698 40.86C90.1898 40.636 90.4138 40.34 90.5418 39.972H91.7178C91.5418 40.604 91.1898 41.12 90.6618 41.52C90.1338 41.912 89.4778 42.108 88.6938 42.108C88.0698 42.108 87.5098 41.968 87.0138 41.688C86.5258 41.408 86.1418 41.012 85.8618 40.5C85.5818 39.98 85.4418 39.38 85.4418 38.7C85.4418 38.02 85.5778 37.424 85.8498 36.912C86.1218 36.4 86.5018 36.008 86.9898 35.736C87.4858 35.456 88.0538 35.316 88.6938 35.316C89.3178 35.316 89.8698 35.452 90.3498 35.724C90.8298 35.996 91.1978 36.372 91.4538 36.852C91.7178 37.324 91.8498 37.86 91.8498 38.46ZM90.7218 38.232C90.7218 37.816 90.6298 37.46 90.4458 37.164C90.2618 36.86 90.0098 36.632 89.6898 36.48C89.3778 36.32 89.0298 36.24 88.6458 36.24C88.0938 36.24 87.6218 36.416 87.2298 36.768C86.8458 37.12 86.6258 37.608 86.5698 38.232H90.7218ZM94.3832 36.492C94.5752 36.116 94.8472 35.824 95.1992 35.616C95.5592 35.408 95.9952 35.304 96.5072 35.304V36.432H96.2192C94.9952 36.432 94.3832 37.096 94.3832 38.424V42H93.2912V35.424H94.3832V36.492ZM98.3318 34.356C98.1238 34.356 97.9478 34.284 97.8038 34.14C97.6598 33.996 97.5878 33.82 97.5878 33.612C97.5878 33.404 97.6598 33.228 97.8038 33.084C97.9478 32.94 98.1238 32.868 98.3318 32.868C98.5318 32.868 98.6998 32.94 98.8358 33.084C98.9798 33.228 99.0518 33.404 99.0518 33.612C99.0518 33.82 98.9798 33.996 98.8358 34.14C98.6998 34.284 98.5318 34.356 98.3318 34.356ZM98.8598 35.424V42H97.7678V35.424H98.8598ZM103.589 42.108C102.973 42.108 102.413 41.968 101.909 41.688C101.413 41.408 101.021 41.012 100.733 40.5C100.453 39.98 100.313 39.38 100.313 38.7C100.313 38.028 100.457 37.436 100.745 36.924C101.041 36.404 101.441 36.008 101.945 35.736C102.449 35.456 103.013 35.316 103.637 35.316C104.261 35.316 104.825 35.456 105.329 35.736C105.833 36.008 106.229 36.4 106.517 36.912C106.813 37.424 106.961 38.02 106.961 38.7C106.961 39.38 106.809 39.98 106.505 40.5C106.209 41.012 105.805 41.408 105.293 41.688C104.781 41.968 104.213 42.108 103.589 42.108ZM103.589 41.148C103.981 41.148 104.349 41.056 104.693 40.872C105.037 40.688 105.313 40.412 105.521 40.044C105.737 39.676 105.845 39.228 105.845 38.7C105.845 38.172 105.741 37.724 105.533 37.356C105.325 36.988 105.053 36.716 104.717 36.54C104.381 36.356 104.017 36.264 103.625 36.264C103.225 36.264 102.857 36.356 102.521 36.54C102.193 36.716 101.929 36.988 101.729 37.356C101.529 37.724 101.429 38.172 101.429 38.7C101.429 39.236 101.525 39.688 101.717 40.056C101.917 40.424 102.181 40.7 102.509 40.884C102.837 41.06 103.197 41.148 103.589 41.148ZM109.489 36.492C109.681 36.116 109.953 35.824 110.305 35.616C110.665 35.408 111.101 35.304 111.613 35.304V36.432H111.325C110.101 36.432 109.489 37.096 109.489 38.424V42H108.397V35.424H109.489V36.492ZM118.676 33.636C119.588 33.636 120.376 33.808 121.04 34.152C121.712 34.488 122.224 34.972 122.576 35.604C122.936 36.236 123.116 36.98 123.116 37.836C123.116 38.692 122.936 39.436 122.576 40.068C122.224 40.692 121.712 41.172 121.04 41.508C120.376 41.836 119.588 42 118.676 42H116.072V33.636H118.676ZM118.676 41.1C119.756 41.1 120.58 40.816 121.148 40.248C121.716 39.672 122 38.868 122 37.836C122 36.796 121.712 35.984 121.136 35.4C120.568 34.816 119.748 34.524 118.676 34.524H117.164V41.1H118.676ZM130.557 38.46C130.557 38.668 130.545 38.888 130.521 39.12H125.265C125.305 39.768 125.525 40.276 125.925 40.644C126.333 41.004 126.825 41.184 127.401 41.184C127.873 41.184 128.265 41.076 128.577 40.86C128.897 40.636 129.121 40.34 129.249 39.972H130.425C130.249 40.604 129.897 41.12 129.369 41.52C128.841 41.912 128.185 42.108 127.401 42.108C126.777 42.108 126.217 41.968 125.721 41.688C125.233 41.408 124.849 41.012 124.569 40.5C124.289 39.98 124.149 39.38 124.149 38.7C124.149 38.02 124.285 37.424 124.557 36.912C124.829 36.4 125.209 36.008 125.697 35.736C126.193 35.456 126.761 35.316 127.401 35.316C128.025 35.316 128.577 35.452 129.057 35.724C129.537 35.996 129.905 36.372 130.161 36.852C130.425 37.324 130.557 37.86 130.557 38.46ZM129.429 38.232C129.429 37.816 129.337 37.46 129.153 37.164C128.969 36.86 128.717 36.632 128.397 36.48C128.085 36.32 127.737 36.24 127.353 36.24C126.801 36.24 126.329 36.416 125.937 36.768C125.553 37.12 125.333 37.608 125.277 38.232H129.429ZM134.326 42.108C133.822 42.108 133.37 42.024 132.97 41.856C132.57 41.68 132.254 41.44 132.022 41.136C131.79 40.824 131.662 40.468 131.638 40.068H132.766C132.798 40.396 132.95 40.664 133.222 40.872C133.502 41.08 133.866 41.184 134.314 41.184C134.73 41.184 135.058 41.092 135.298 40.908C135.538 40.724 135.658 40.492 135.658 40.212C135.658 39.924 135.53 39.712 135.274 39.576C135.018 39.432 134.622 39.292 134.086 39.156C133.598 39.028 133.198 38.9 132.886 38.772C132.582 38.636 132.318 38.44 132.094 38.184C131.878 37.92 131.77 37.576 131.77 37.152C131.77 36.816 131.87 36.508 132.07 36.228C132.27 35.948 132.554 35.728 132.922 35.568C133.29 35.4 133.71 35.316 134.182 35.316C134.91 35.316 135.498 35.5 135.946 35.868C136.394 36.236 136.634 36.74 136.666 37.38H135.574C135.55 37.036 135.41 36.76 135.154 36.552C134.906 36.344 134.57 36.24 134.146 36.24C133.754 36.24 133.442 36.324 133.21 36.492C132.978 36.66 132.862 36.88 132.862 37.152C132.862 37.368 132.93 37.548 133.066 37.692C133.21 37.828 133.386 37.94 133.594 38.028C133.81 38.108 134.106 38.2 134.482 38.304C134.954 38.432 135.338 38.56 135.634 38.688C135.93 38.808 136.182 38.992 136.39 39.24C136.606 39.488 136.718 39.812 136.726 40.212C136.726 40.572 136.626 40.896 136.426 41.184C136.226 41.472 135.942 41.7 135.574 41.868C135.214 42.028 134.798 42.108 134.326 42.108ZM138.832 34.356C138.624 34.356 138.448 34.284 138.304 34.14C138.16 33.996 138.088 33.82 138.088 33.612C138.088 33.404 138.16 33.228 138.304 33.084C138.448 32.94 138.624 32.868 138.832 32.868C139.032 32.868 139.2 32.94 139.336 33.084C139.48 33.228 139.552 33.404 139.552 33.612C139.552 33.82 139.48 33.996 139.336 34.14C139.2 34.284 139.032 34.356 138.832 34.356ZM139.36 35.424V42H138.268V35.424H139.36ZM143.933 35.316C144.501 35.316 144.997 35.44 145.421 35.688C145.853 35.936 146.173 36.248 146.381 36.624V35.424H147.485V42.144C147.485 42.744 147.357 43.276 147.101 43.74C146.845 44.212 146.477 44.58 145.997 44.844C145.525 45.108 144.973 45.24 144.341 45.24C143.477 45.24 142.757 45.036 142.181 44.628C141.605 44.22 141.265 43.664 141.161 42.96H142.241C142.361 43.36 142.609 43.68 142.985 43.92C143.361 44.168 143.813 44.292 144.341 44.292C144.941 44.292 145.429 44.104 145.805 43.728C146.189 43.352 146.381 42.824 146.381 42.144V40.764C146.165 41.148 145.845 41.468 145.421 41.724C144.997 41.98 144.501 42.108 143.933 42.108C143.349 42.108 142.817 41.964 142.337 41.676C141.865 41.388 141.493 40.984 141.221 40.464C140.949 39.944 140.813 39.352 140.813 38.688C140.813 38.016 140.949 37.428 141.221 36.924C141.493 36.412 141.865 36.016 142.337 35.736C142.817 35.456 143.349 35.316 143.933 35.316ZM146.381 38.7C146.381 38.204 146.281 37.772 146.081 37.404C145.881 37.036 145.609 36.756 145.265 36.564C144.929 36.364 144.557 36.264 144.149 36.264C143.741 36.264 143.369 36.36 143.033 36.552C142.697 36.744 142.429 37.024 142.229 37.392C142.029 37.76 141.929 38.192 141.929 38.688C141.929 39.192 142.029 39.632 142.229 40.008C142.429 40.376 142.697 40.66 143.033 40.86C143.369 41.052 143.741 41.148 144.149 41.148C144.557 41.148 144.929 41.052 145.265 40.86C145.609 40.66 145.881 40.376 146.081 40.008C146.281 39.632 146.381 39.196 146.381 38.7ZM152.534 35.304C153.334 35.304 153.982 35.548 154.478 36.036C154.974 36.516 155.222 37.212 155.222 38.124V42H154.142V38.28C154.142 37.624 153.978 37.124 153.65 36.78C153.322 36.428 152.874 36.252 152.306 36.252C151.73 36.252 151.27 36.432 150.926 36.792C150.59 37.152 150.422 37.676 150.422 38.364V42H149.33V35.424H150.422V36.36C150.638 36.024 150.93 35.764 151.298 35.58C151.674 35.396 152.086 35.304 152.534 35.304ZM163.006 38.46C163.006 38.668 162.994 38.888 162.97 39.12H157.714C157.754 39.768 157.974 40.276 158.374 40.644C158.782 41.004 159.274 41.184 159.85 41.184C160.322 41.184 160.714 41.076 161.026 40.86C161.346 40.636 161.57 40.34 161.698 39.972H162.874C162.698 40.604 162.346 41.12 161.818 41.52C161.29 41.912 160.634 42.108 159.85 42.108C159.226 42.108 158.666 41.968 158.17 41.688C157.682 41.408 157.298 41.012 157.018 40.5C156.738 39.98 156.598 39.38 156.598 38.7C156.598 38.02 156.734 37.424 157.006 36.912C157.278 36.4 157.658 36.008 158.146 35.736C158.642 35.456 159.21 35.316 159.85 35.316C160.474 35.316 161.026 35.452 161.506 35.724C161.986 35.996 162.354 36.372 162.61 36.852C162.874 37.324 163.006 37.86 163.006 38.46ZM161.878 38.232C161.878 37.816 161.786 37.46 161.602 37.164C161.418 36.86 161.166 36.632 160.846 36.48C160.534 36.32 160.186 36.24 159.802 36.24C159.25 36.24 158.778 36.416 158.386 36.768C158.002 37.12 157.782 37.608 157.726 38.232H161.878ZM165.539 36.492C165.731 36.116 166.003 35.824 166.355 35.616C166.715 35.408 167.151 35.304 167.663 35.304V36.432H167.375C166.151 36.432 165.539 37.096 165.539 38.424V42H164.447V35.424H165.539V36.492Z" fill="#1D1C1A"/>
</svg>
