<svg width="50" height="50" viewBox="0 0 50 50" fill="none" xmlns="http://www.w3.org/2000/svg">
<g clip-path="url(#clip0_157_219)">
<path d="M43.002 0H6.99805C3.13313 0 0 3.13313 0 6.99805V43.002C0 46.8669 3.13313 50 6.99805 50H43.002C46.8669 50 50 46.8669 50 43.002V6.99805C50 3.13313 46.8669 0 43.002 0Z" fill="#1E484D"/>
<path d="M50 30.6973V43.002C50 44.8579 49.2627 46.6379 47.9503 47.9503C46.6379 49.2627 44.8579 50 43.002 50H22.1582L9.5918 37.4336L9.27734 12.5977L20.874 12.8906L29.833 21.8496L31.1523 19.7266C31.1523 19.7266 32.1357 21.4453 33.8867 20.8984C36.0117 20.2344 38.3408 20.0195 40.2217 20.9189L50 30.6973Z" fill="#0D3033"/>
<path d="M15.4834 12.793C18.1348 12.793 20.1406 13.5479 21.4473 15.0391C22.833 16.6201 22.9824 18.5176 22.9824 19.2607C22.9824 19.877 22.8359 22.001 20.9522 23.4395C20.7906 23.5629 20.661 23.7234 20.5744 23.9073C20.4878 24.0913 20.4466 24.2934 20.4544 24.4966C20.4621 24.6998 20.5186 24.8981 20.619 25.075C20.7194 25.2518 20.8608 25.4019 21.0313 25.5127C23.3399 27.0117 23.5918 29.3945 23.5918 30.3535C23.5918 31.0957 23.4414 32.9902 22.0488 34.585C20.7393 36.0801 18.7354 36.8379 16.0918 36.8379H10.8496C10.5916 36.8348 10.3454 36.7297 10.1646 36.5457C9.9838 36.3616 9.88321 36.1135 9.88477 35.8555V13.7568C9.88529 13.5012 9.98714 13.2562 10.168 13.0755C10.3489 12.8948 10.594 12.7932 10.8496 12.793H15.4834ZM13.0859 23.8877H15.9082C18.8379 23.8877 21.0547 21.8975 21.0547 19.2588C21.0547 16.5869 18.9522 14.6475 16.0557 14.6475H13.0859C12.7492 14.6475 12.4263 14.7812 12.1883 15.0193C11.9502 15.2574 11.8164 15.5803 11.8164 15.917V22.6182C11.8164 22.9549 11.9502 23.2778 12.1883 23.5159C12.4263 23.7539 12.7492 23.8877 13.0859 23.8877ZM13.0859 34.9834H16.668C19.5645 34.9834 21.666 33.0361 21.666 30.3535C21.666 27.6387 19.6104 25.7432 16.668 25.7432H13.0859C12.7492 25.7432 12.4263 25.8769 12.1883 26.115C11.9502 26.3531 11.8164 26.676 11.8164 27.0127V33.7139C11.8164 34.0506 11.9502 34.3735 12.1883 34.6116C12.4263 34.8497 12.7492 34.9834 13.0859 34.9834ZM15.4834 11.5234H10.8496C10.5561 11.5228 10.2653 11.5801 9.99402 11.6921C9.72271 11.8041 9.47618 11.9686 9.26859 12.1761C9.06099 12.3836 8.89641 12.6301 8.78429 12.9013C8.67218 13.1726 8.61473 13.4633 8.61524 13.7568V35.8555C8.61368 36.4502 8.84803 37.0212 9.26689 37.4434C9.68575 37.8655 10.2549 38.1043 10.8496 38.1074H16.0928C22.8311 38.1074 24.8613 33.5293 24.8613 30.3535C24.8613 28.6738 24.252 26.0889 21.7227 24.4463C23.7539 22.8955 24.252 20.625 24.252 19.2588C24.252 16.083 22.2402 11.5234 15.4834 11.5234ZM13.0859 22.6182V15.918H16.0586C18.3477 15.918 19.7881 17.3398 19.7881 19.2598C19.7881 21.1797 18.2002 22.6191 15.9111 22.6191L13.0859 22.6182ZM13.0859 33.7139V27.0127H16.668C18.9756 27.0127 20.3965 28.4336 20.3965 30.3535C20.3965 32.2734 18.957 33.7139 16.668 33.7139H13.0859Z" fill="#48B3BC"/>
<path d="M36.4736 20.5468C37.9277 20.5468 39.1689 21.2685 39.9688 22.5781L39.9756 22.5898C40.0606 22.7239 40.1087 22.8781 40.1149 23.0367C40.121 23.1954 40.0851 23.3528 40.0107 23.4931C39.9363 23.6334 39.8261 23.7514 39.6913 23.8353C39.5565 23.9192 39.4019 23.9659 39.2432 23.9707C39.0371 23.9707 38.7793 23.9228 38.4238 23.5673C37.9971 23.1445 37.1094 22.2539 35.5469 22.2539C34.0049 22.2539 33.2275 23.0087 32.8457 23.6416C32.4639 24.2744 32.2832 25.0996 32.2832 26.2783V36.2978C32.2872 36.4196 32.2667 36.541 32.2228 36.6548C32.1789 36.7685 32.1126 36.8723 32.0278 36.9599C31.9431 37.0475 31.8415 37.1171 31.7293 37.1647C31.6171 37.2123 31.4964 37.2368 31.3745 37.2368C31.2526 37.2368 31.1319 37.2123 31.0197 37.1647C30.9075 37.1171 30.806 37.0475 30.7212 36.9599C30.6364 36.8723 30.5701 36.7685 30.5262 36.6548C30.4824 36.541 30.4618 36.4196 30.4658 36.2978V21.4541C30.4691 21.214 30.566 20.9848 30.7358 20.8152C30.9056 20.6455 31.135 20.5489 31.375 20.5459C31.5388 20.5499 31.6988 20.596 31.8397 20.6796C31.9806 20.7632 32.0977 20.8816 32.1797 21.0234C32.2718 21.1814 32.397 21.3177 32.5466 21.4229C32.6963 21.5281 32.867 21.5997 33.0469 21.6328C33.1226 21.6464 33.1994 21.6532 33.2764 21.6533C33.5668 21.6532 33.8484 21.5536 34.0742 21.371C34.7512 20.8235 35.5991 20.5314 36.4697 20.5459M36.4697 19.2763C35.3085 19.2608 34.1786 19.6526 33.2764 20.3837C33.0832 20.0497 32.8062 19.7718 32.4727 19.5776C32.1392 19.3834 31.7609 19.2795 31.375 19.2763C30.7989 19.2812 30.2479 19.5124 29.8408 19.92C29.4338 20.3276 29.2033 20.879 29.1992 21.455V36.2988C29.1931 36.5887 29.2449 36.877 29.3516 37.1466C29.4583 37.4162 29.6178 37.6619 29.8206 37.8691C30.0235 38.0763 30.2657 38.2409 30.533 38.3533C30.8004 38.4657 31.0874 38.5236 31.3774 38.5236C31.6674 38.5236 31.9545 38.4657 32.2218 38.3533C32.4892 38.2409 32.7314 38.0763 32.9342 37.8691C33.1371 37.6619 33.2966 37.4162 33.4033 37.1466C33.51 36.877 33.5618 36.5887 33.5557 36.2988V26.2695C33.5557 24.664 33.9062 23.5195 35.5498 23.5195C36.5469 23.5195 37.1191 24.0546 37.5254 24.4609C37.9863 24.9218 38.54 25.2363 39.2422 25.2363C39.627 25.2311 40.0036 25.1235 40.3331 24.9247C40.6627 24.7259 40.9334 24.443 41.1175 24.105C41.3016 23.7671 41.3925 23.3862 41.3807 23.0015C41.369 22.6168 41.2551 22.2421 41.0508 21.916C39.9766 20.1582 38.3008 19.2793 36.4727 19.2793L36.4697 19.2763Z" fill="#48B3BC"/>
<path d="M43.002 1.26953C44.5208 1.27108 45.9769 1.87512 47.0509 2.94909C48.1249 4.02306 48.7289 5.47923 48.7305 6.99805V43.002C48.7289 44.5208 48.1249 45.9769 47.0509 47.0509C45.9769 48.1249 44.5208 48.7289 43.002 48.7305H6.99805C5.47923 48.7289 4.02306 48.1249 2.94909 47.0509C1.87512 45.9769 1.27108 44.5208 1.26953 43.002V6.99805C1.27108 5.47923 1.87512 4.02306 2.94909 2.94909C4.02306 1.87512 5.47923 1.27108 6.99805 1.26953H43.002ZM43.002 0H6.99805C5.14205 0 3.36207 0.737292 2.04968 2.04968C0.737292 3.36207 0 5.14205 0 6.99805L0 43.002C0 44.8579 0.737292 46.6379 2.04968 47.9503C3.36207 49.2627 5.14205 50 6.99805 50H43.002C44.8579 50 46.6379 49.2627 47.9503 47.9503C49.2627 46.6379 50 44.8579 50 43.002V6.99805C50 5.14205 49.2627 3.36207 47.9503 2.04968C46.6379 0.737292 44.8579 0 43.002 0Z" fill="#48B3BC"/>
</g>
<defs>
<clipPath id="clip0_157_219">
<rect width="50" height="50" fill="white"/>
</clipPath>
</defs>
</svg>
