<svg width="50" height="40" viewBox="0 0 50 40" fill="none" xmlns="http://www.w3.org/2000/svg">
<path d="M50.0002 10.8261V34.7791C50.0002 37.6386 47.6821 39.9567 44.8226 39.9567H5.17958C2.32007 39.9567 0.00195312 37.6386 0.00195312 34.7791V10.8261C0.00195312 7.96655 2.32007 5.64844 5.17958 5.64844H44.8224C47.6821 5.64844 50.0002 7.96655 50.0002 10.8261Z" fill="#6ACDF3"/>
<path opacity="0.4" d="M3.35153 11.5092V35.4586C3.35153 37.3845 4.40464 39.0662 5.96402 39.9563H5.17858C2.32168 39.9563 0 37.6406 0 34.7777V10.8285C0 7.96576 2.32168 5.6499 5.17858 5.6499H44.8206C45.7574 5.6499 46.636 5.89431 47.3924 6.33065H8.5301C5.6732 6.33077 3.35153 8.64651 3.35153 11.5092Z" fill="white"/>
<path d="M50.0002 17.1543V10.8261C50.0002 7.96655 47.6821 5.64844 44.8226 5.64844H5.17958C2.32007 5.64844 0.00195312 7.96655 0.00195312 10.8261V17.1543H50.0002Z" fill="#FFFCFF"/>
<path d="M37.0124 25.6555C38.5803 19.0229 34.4744 12.3751 27.8418 10.8073C21.2092 9.23946 14.5614 13.3453 12.9936 19.9779C11.4258 26.6105 15.5316 33.2583 22.1642 34.8261C28.7968 36.394 35.4446 32.2881 37.0124 25.6555Z" fill="#FFFCFF"/>
<path d="M33.1449 24.7415C34.2079 20.2449 31.4242 15.7379 26.9275 14.675C22.4308 13.6121 17.9238 16.3956 16.8609 20.8923C15.798 25.3889 18.5816 29.8959 23.0783 30.9588C27.575 32.0218 32.082 29.2382 33.1449 24.7415Z" fill="#FFC563"/>
<path d="M33.1544 1.0377L34.9375 5.64876H15.0637L16.8468 1.0377C17.0885 0.412619 17.6899 0.000488307 18.3601 0.000488307H31.6413C32.3114 0.000369606 32.9126 0.4125 33.1544 1.0377Z" fill="#6ACDF3"/>
<path opacity="0.4" d="M21.5523 0C20.8832 0 20.278 0.41308 20.0395 1.03567L18.2531 5.64982H15.0645L16.845 1.03567C17.0894 0.41308 17.6887 0 18.3578 0H21.5523Z" fill="white"/>
<path d="M11.8732 2.59065V5.64887H6.12061V2.59065C6.12061 1.9721 6.622 1.4707 7.24055 1.4707H10.7532C11.3717 1.4707 11.8732 1.9721 11.8732 2.59065Z" fill="#FFC563"/>
<path opacity="0.4" d="M9.19356 1.47217C8.57679 1.47217 8.07635 1.97261 8.07635 2.58938V5.64997H6.12134V2.58938C6.12134 1.97261 6.62178 1.47217 7.23855 1.47217H9.19356Z" fill="white"/>
<path d="M43.8807 2.59065V5.64887H38.1282V2.59065C38.1282 1.9721 38.6296 1.4707 39.2481 1.4707H42.7607C43.3793 1.4707 43.8807 1.9721 43.8807 2.59065Z" fill="#FFC563"/>
<path opacity="0.4" d="M41.2004 1.47217C40.5836 1.47217 40.0832 1.97261 40.0832 2.58938V5.64997H38.1282V2.58938C38.1282 1.97261 38.6286 1.47217 39.2454 1.47217H41.2004Z" fill="white"/>
<path d="M30.4593 23.3845C30.1377 23.3845 29.8774 23.124 29.8774 22.8027C29.8774 20.1136 27.6897 17.926 25.0003 17.926C24.6788 17.926 24.4185 17.6654 24.4185 17.3441C24.4185 17.0228 24.6787 16.7622 25.0003 16.7622C28.3312 16.7622 31.0412 19.472 31.0412 22.8027C31.0412 23.1241 30.7808 23.3845 30.4593 23.3845Z" fill="white"/>
<path d="M25.0006 13.8525C20.0656 13.8525 16.0505 17.8672 16.0505 22.8024C16.0505 27.7375 20.0656 31.7522 25.0006 31.7522C29.9356 31.7522 33.9501 27.7374 33.9501 22.8024C33.9501 17.8674 29.9356 13.8525 25.0006 13.8525ZM25.0006 30.5883C20.7071 30.5883 17.2143 27.0954 17.2143 22.8022C17.2143 18.5091 20.7072 15.0162 25.0006 15.0162C29.2936 15.0162 32.7863 18.5091 32.7863 22.8022C32.7863 27.0954 29.2936 30.5883 25.0006 30.5883Z" fill="#281261"/>
</svg>
