<svg width="30" height="30" viewBox="0 0 30 30" fill="none" xmlns="http://www.w3.org/2000/svg">
<path d="M22.8048 1.97279C22.7598 1.4017 22.4951 0.883959 22.0601 0.512626C21.6239 0.140222 21.0538 -0.0428198 20.5005 0.00848348C19.9294 0.0534675 19.4106 0.318124 19.0393 0.754255C18.8658 0.958183 18.7383 1.18953 18.6521 1.43501C15.2259 2.39028 12.6498 4.98897 11.6646 8.23532L6.15007 8.67627C5.15325 8.75574 4.2465 9.22015 3.59583 9.98263C2.94635 10.7462 2.63146 11.7147 2.712 12.7116C2.85949 14.5544 4.3596 16.0015 6.17728 16.136V19.2895H5.37399C4.48812 19.2895 3.76742 20.0102 3.76742 20.8961C3.76742 21.4427 4.043 21.9251 4.46135 22.2155L0.470619 26.2054C0.167405 26.5086 0 26.9135 0 27.3423C0 27.7722 0.167405 28.1748 0.470726 28.4772C0.774047 28.7805 1.17783 28.9479 1.60657 28.9479C2.03531 28.9479 2.4391 28.7805 2.74242 28.4772L5.90951 25.3101V28.3934C5.90951 29.2793 6.63022 30 7.51609 30C8.40195 30 9.12266 29.2793 9.12266 28.3934V25.3097L12.2908 28.4771C12.6036 28.7909 13.0157 28.9467 13.4267 28.9467C13.8376 28.9467 14.2488 28.7909 14.5625 28.4771C14.8658 28.1748 15.0332 27.7721 15.0332 27.3422C15.0332 26.9133 14.8658 26.5086 14.5625 26.2053L10.5714 22.215C10.9894 21.9246 11.2647 21.4424 11.2647 20.8961C11.2647 20.0102 10.5439 19.2895 9.65808 19.2895H8.85479V15.9806L12.2616 15.7086C13.7505 18.7579 16.7083 20.9148 20.2444 21.3128C20.6106 21.985 21.3198 22.4356 22.1205 22.4356C22.1769 22.4356 22.2344 22.4335 22.291 22.4283C23.4677 22.3342 24.3505 21.2998 24.2564 20.122L22.8048 1.97279ZM5.90962 23.7954L1.98519 27.7198C1.77601 27.929 1.43713 27.929 1.22796 27.7198C1.12653 27.6184 1.07105 27.4845 1.07105 27.3423C1.07105 27.199 1.12653 27.064 1.22796 26.9626L5.68888 22.5027H5.90962V23.7954ZM8.05172 24.0108V24.0215V28.3934C8.05172 28.6884 7.81116 28.929 7.51619 28.929C7.22123 28.929 6.98067 28.6884 6.98067 28.3934V21.9671C6.98067 21.6722 7.22123 21.4316 7.51619 21.4316C7.81116 21.4316 8.05172 21.6722 8.05172 21.9671V24.0108ZM13.8054 26.9626C13.9068 27.064 13.9623 27.199 13.9623 27.3423C13.9623 27.4845 13.9068 27.6184 13.8054 27.7198C13.5962 27.929 13.2573 27.929 13.0482 27.7198L9.12277 23.7954V22.5027H9.34458L13.8054 26.9626ZM9.65829 20.3606C9.95326 20.3606 10.1938 20.6011 10.1938 20.8961C10.1938 21.191 9.95326 21.4316 9.65829 21.4316H9.02413C8.80231 20.8096 8.21345 20.3606 7.51619 20.3606C6.81894 20.3606 6.23008 20.8096 6.00827 21.4316H5.3741C5.07913 21.4316 4.83857 21.191 4.83857 20.8961C4.83857 20.6011 5.07913 20.3606 5.3741 20.3606H6.71291H7.51619H8.31948H9.65829ZM7.51619 13.3987C6.92519 13.3987 6.44515 12.9187 6.44515 12.3277C6.44515 11.7367 6.92519 11.2566 7.51619 11.2566C8.1072 11.2566 8.58724 11.7367 8.58724 12.3277C8.58724 12.9187 8.10709 13.3987 7.51619 13.3987ZM7.78396 14.4427V19.2895H7.24843V14.4427C7.33712 14.4539 7.42441 14.4698 7.51619 14.4698C7.60798 14.4698 7.69527 14.4539 7.78396 14.4427ZM8.85501 14.9069V13.9861C9.34083 13.593 9.65829 12.9996 9.65829 12.3277C9.65829 11.1469 8.69703 10.1856 7.51619 10.1856C6.33536 10.1856 5.3741 11.1469 5.3741 12.3277C5.3741 12.9996 5.69156 13.593 6.17738 13.9861V15.065C4.91451 14.9339 3.88255 13.9164 3.77898 12.6259C3.72254 11.9146 3.94735 11.2223 4.41176 10.6773C4.87617 10.1324 5.52361 9.80076 6.23586 9.74325L11.3931 9.33089C11.2317 10.2017 11.1796 11.1068 11.2533 12.0297C11.3271 12.952 11.5221 13.8367 11.8197 14.6704L8.85501 14.9069ZM12.3202 11.9438C11.982 7.69915 14.5743 3.86619 18.5557 2.57033L19.9665 20.2072C15.83 19.5604 12.6603 16.1888 12.3202 11.9438ZM22.2076 21.3616C21.6009 21.4097 21.101 20.9683 21.0539 20.3783L19.6021 2.22909C19.5802 1.94355 19.6701 1.66636 19.8552 1.44883C20.0403 1.2313 20.2997 1.09849 20.5852 1.07546C20.6145 1.07332 20.6438 1.07236 20.6731 1.07236C20.9262 1.07236 21.1699 1.16125 21.3655 1.32759C21.583 1.51374 21.7149 1.77207 21.7379 2.05761L23.1897 20.2069C23.2357 20.7957 22.7954 21.3134 22.2076 21.3616Z" fill="#8C8FAB"/>
<path d="M23.9416 3.28661C23.7293 3.28661 23.5285 3.15905 23.4448 2.94976C23.335 2.67568 23.4678 2.36401 23.7428 2.25422L29.255 0.0493614C29.5291 -0.0604211 29.8407 0.0734601 29.9505 0.347434C30.0603 0.621409 29.9275 0.933191 29.6525 1.04297L24.1403 3.24784C24.0755 3.27408 24.0075 3.28661 23.9416 3.28661Z" fill="#8C8FAB"/>
<path d="M29.4538 21.0028C29.3879 21.0028 29.3199 20.9903 29.2551 20.9641L24.9709 19.2509C24.6959 19.1411 24.5629 18.8293 24.6728 18.5554C24.7827 18.2814 25.0933 18.1454 25.3684 18.2573L29.6526 19.9705C29.9276 20.0803 30.0605 20.3921 29.9506 20.6661C29.8669 20.8752 29.6661 21.0028 29.4538 21.0028Z" fill="#8C8FAB"/>
<path d="M24.5494 10.899C24.2732 10.899 24.0389 10.6867 24.0169 10.4063C23.9928 10.1114 24.2125 9.85303 24.5075 9.83001L29.4025 9.43886C29.6911 9.42526 29.9558 9.63443 29.9788 9.9294C30.0029 10.2244 29.7833 10.4827 29.4883 10.5057L24.5933 10.8969C24.5786 10.8979 24.564 10.899 24.5494 10.899Z" fill="#8C8FAB"/>
</svg>
