<svg width="174" height="47" viewBox="0 0 174 47" fill="none" xmlns="http://www.w3.org/2000/svg">
<rect width="3.28571" height="3.28571" fill="white"/>
<rect x="9.85718" width="3.28571" height="3.28571" fill="white"/>
<rect x="19.7144" width="3.28571" height="3.28571" fill="white"/>
<rect y="8.76184" width="3.28571" height="3.28571" fill="white"/>
<rect x="9.85718" y="8.76184" width="3.28571" height="3.28571" fill="white"/>
<rect x="19.7144" y="8.76184" width="3.28571" height="3.28571" fill="white"/>
<rect y="17.5238" width="3.28571" height="3.28571" fill="white"/>
<rect x="9.85718" y="17.5238" width="3.28571" height="3.28571" fill="white"/>
<rect x="19.7144" y="17.5238" width="3.28571" height="3.28571" fill="white"/>
<rect x="29" width="3.28571" height="3.28571" fill="white"/>
<rect x="38.8572" width="3.28571" height="3.28571" fill="white"/>
<rect x="48.7144" width="3.28571" height="3.28571" fill="white"/>
<rect x="29" y="8.76184" width="3.28571" height="3.28571" fill="white"/>
<rect x="38.8572" y="8.76184" width="3.28571" height="3.28571" fill="white"/>
<rect x="48.7144" y="8.76184" width="3.28571" height="3.28571" fill="white"/>
<rect x="29" y="17.5238" width="3.28571" height="3.28571" fill="white"/>
<rect x="38.8572" y="17.5238" width="3.28571" height="3.28571" fill="white"/>
<rect x="48.7144" y="17.5238" width="3.28571" height="3.28571" fill="white"/>
<rect x="58.0002" width="3.28571" height="3.28571" fill="white"/>
<rect x="67.8574" width="3.28571" height="3.28571" fill="white"/>
<rect x="77.7146" width="3.28571" height="3.28571" fill="white"/>
<rect x="58.0002" y="8.76184" width="3.28571" height="3.28571" fill="white"/>
<rect x="67.8574" y="8.76184" width="3.28571" height="3.28571" fill="white"/>
<rect x="77.7146" y="8.76184" width="3.28571" height="3.28571" fill="white"/>
<rect x="58.0002" y="17.5238" width="3.28571" height="3.28571" fill="white"/>
<rect x="67.8574" y="17.5238" width="3.28571" height="3.28571" fill="white"/>
<rect x="77.7146" y="17.5238" width="3.28571" height="3.28571" fill="white"/>
<rect x="87.0005" width="3.28571" height="3.28571" fill="white"/>
<rect x="96.8577" width="3.28571" height="3.28571" fill="white"/>
<rect x="106.715" width="3.28571" height="3.28571" fill="white"/>
<rect x="87.0005" y="8.76184" width="3.28571" height="3.28571" fill="white"/>
<rect x="96.8577" y="8.76184" width="3.28571" height="3.28571" fill="white"/>
<rect x="106.715" y="8.76184" width="3.28571" height="3.28571" fill="white"/>
<rect x="87.0005" y="17.5238" width="3.28571" height="3.28571" fill="white"/>
<rect x="96.8577" y="17.5238" width="3.28571" height="3.28571" fill="white"/>
<rect x="106.715" y="17.5238" width="3.28571" height="3.28571" fill="white"/>
<rect x="116.001" width="3.28571" height="3.28571" fill="white"/>
<rect x="125.858" width="3.28571" height="3.28571" fill="white"/>
<rect x="135.715" width="3.28571" height="3.28571" fill="white"/>
<rect x="116.001" y="8.76184" width="3.28571" height="3.28571" fill="white"/>
<rect x="125.858" y="8.76184" width="3.28571" height="3.28571" fill="white"/>
<rect x="135.715" y="8.76184" width="3.28571" height="3.28571" fill="white"/>
<rect x="116.001" y="17.5238" width="3.28571" height="3.28571" fill="white"/>
<rect x="125.858" y="17.5238" width="3.28571" height="3.28571" fill="white"/>
<rect x="135.715" y="17.5238" width="3.28571" height="3.28571" fill="white"/>
<rect x="145.001" width="3.28571" height="3.28571" fill="white"/>
<rect x="154.858" width="3.28571" height="3.28571" fill="white"/>
<rect x="164.715" width="3.28571" height="3.28571" fill="white"/>
<rect x="145.001" y="8.76184" width="3.28571" height="3.28571" fill="white"/>
<rect x="154.858" y="8.76184" width="3.28571" height="3.28571" fill="white"/>
<rect x="164.715" y="8.76184" width="3.28571" height="3.28571" fill="white"/>
<rect x="145.001" y="17.5238" width="3.28571" height="3.28571" fill="white"/>
<rect x="154.858" y="17.5238" width="3.28571" height="3.28571" fill="white"/>
<rect x="164.715" y="17.5238" width="3.28571" height="3.28571" fill="white"/>
<rect y="25.8096" width="3.28571" height="3.28571" fill="white"/>
<rect x="9.85718" y="25.8096" width="3.28571" height="3.28571" fill="white"/>
<rect x="19.7144" y="25.8096" width="3.28571" height="3.28571" fill="white"/>
<rect y="34.5714" width="3.28571" height="3.28571" fill="white"/>
<rect x="9.85718" y="34.5714" width="3.28571" height="3.28571" fill="white"/>
<rect x="19.7144" y="34.5714" width="3.28571" height="3.28571" fill="white"/>
<rect y="43.3334" width="3.28571" height="3.28571" fill="white"/>
<rect x="9.85718" y="43.3334" width="3.28571" height="3.28571" fill="white"/>
<rect x="19.7144" y="43.3334" width="3.28571" height="3.28571" fill="white"/>
<rect x="29.0002" y="25.8096" width="3.28571" height="3.28571" fill="white"/>
<rect x="38.8574" y="25.8096" width="3.28571" height="3.28571" fill="white"/>
<rect x="48.7146" y="25.8096" width="3.28571" height="3.28571" fill="white"/>
<rect x="29.0002" y="34.5714" width="3.28571" height="3.28571" fill="white"/>
<rect x="38.8574" y="34.5714" width="3.28571" height="3.28571" fill="white"/>
<rect x="48.7146" y="34.5714" width="3.28571" height="3.28571" fill="white"/>
<rect x="29.0002" y="43.3334" width="3.28571" height="3.28571" fill="white"/>
<rect x="38.8574" y="43.3334" width="3.28571" height="3.28571" fill="white"/>
<rect x="48.7146" y="43.3334" width="3.28571" height="3.28571" fill="white"/>
<rect x="58.0002" y="25.8096" width="3.28571" height="3.28571" fill="white"/>
<rect x="67.8574" y="25.8096" width="3.28571" height="3.28571" fill="white"/>
<rect x="77.7146" y="25.8096" width="3.28571" height="3.28571" fill="white"/>
<rect x="58.0002" y="34.5714" width="3.28571" height="3.28571" fill="white"/>
<rect x="67.8574" y="34.5714" width="3.28571" height="3.28571" fill="white"/>
<rect x="77.7146" y="34.5714" width="3.28571" height="3.28571" fill="white"/>
<rect x="58.0002" y="43.3334" width="3.28571" height="3.28571" fill="white"/>
<rect x="67.8574" y="43.3334" width="3.28571" height="3.28571" fill="white"/>
<rect x="77.7146" y="43.3334" width="3.28571" height="3.28571" fill="white"/>
<rect x="87.0005" y="25.8096" width="3.28571" height="3.28571" fill="white"/>
<rect x="96.8577" y="25.8096" width="3.28571" height="3.28571" fill="white"/>
<rect x="106.715" y="25.8096" width="3.28571" height="3.28571" fill="white"/>
<rect x="87.0005" y="34.5714" width="3.28571" height="3.28571" fill="white"/>
<rect x="96.8577" y="34.5714" width="3.28571" height="3.28571" fill="white"/>
<rect x="106.715" y="34.5714" width="3.28571" height="3.28571" fill="white"/>
<rect x="87.0005" y="43.3334" width="3.28571" height="3.28571" fill="white"/>
<rect x="96.8577" y="43.3334" width="3.28571" height="3.28571" fill="white"/>
<rect x="106.715" y="43.3334" width="3.28571" height="3.28571" fill="white"/>
<rect x="116.001" y="25.8096" width="3.28571" height="3.28571" fill="white"/>
<rect x="125.858" y="25.8096" width="3.28571" height="3.28571" fill="white"/>
<rect x="135.715" y="25.8096" width="3.28571" height="3.28571" fill="white"/>
<rect x="116.001" y="34.5714" width="3.28571" height="3.28571" fill="white"/>
<rect x="125.858" y="34.5714" width="3.28571" height="3.28571" fill="white"/>
<rect x="135.715" y="34.5714" width="3.28571" height="3.28571" fill="white"/>
<rect x="116.001" y="43.3334" width="3.28571" height="3.28571" fill="white"/>
<rect x="125.858" y="43.3334" width="3.28571" height="3.28571" fill="white"/>
<rect x="135.715" y="43.3334" width="3.28571" height="3.28571" fill="white"/>
<rect x="145.001" y="25.8096" width="3.28571" height="3.28571" fill="white"/>
<rect x="154.858" y="25.8096" width="3.28571" height="3.28571" fill="white"/>
<rect x="164.715" y="25.8096" width="3.28571" height="3.28571" fill="white"/>
<rect x="145.001" y="34.5714" width="3.28571" height="3.28571" fill="white"/>
<rect x="154.858" y="34.5714" width="3.28571" height="3.28571" fill="white"/>
<rect x="164.715" y="34.5714" width="3.28571" height="3.28571" fill="white"/>
<rect x="145.001" y="43.3334" width="3.28571" height="3.28571" fill="white"/>
<rect x="154.858" y="43.3334" width="3.28571" height="3.28571" fill="white"/>
<rect x="164.715" y="43.3334" width="3.28571" height="3.28571" fill="white"/>
</svg>
