<svg width="49" height="50" viewBox="0 0 49 50" fill="none" xmlns="http://www.w3.org/2000/svg">
<path d="M28.7996 45.0097C28.8393 33.9718 28.7678 16.0681 28.8075 5.02236C28.8155 2.56686 26.8288 0.572266 24.3733 0.572266H5.02336C2.57581 0.572266 0.597106 2.54302 0.589159 4.99057C0.549426 16.0284 0.612999 33.9321 0.573266 44.9779C0.565319 47.4334 2.55197 49.428 5.00747 49.428H24.3574C26.805 49.428 28.7916 47.4572 28.7996 45.0097Z" fill="#262937"/>
<path d="M24.3655 50H5.01553C3.67256 50 2.40905 49.4755 1.4634 48.5299C0.517758 47.5842 0.00122935 46.3207 0.00122935 44.9777C0.0250691 39.4628 0.0171225 32.1122 0.00917594 25C0.00122934 17.8798 -0.00671726 10.5134 0.00917594 4.99046C0.0171225 2.24094 2.26601 0 5.01553 0H24.3734C25.7164 0 26.9799 0.524476 27.9256 1.47012C28.8712 2.41577 29.3878 3.67928 29.3878 5.02225C29.3719 10.5372 29.3798 17.8798 29.3798 24.9762C29.3878 32.1043 29.3957 39.4787 29.3719 45.0095C29.3639 47.767 27.115 50 24.3655 50ZM5.02348 1.14431C2.90174 1.14431 1.16938 2.86872 1.16143 4.99046C1.13759 10.5213 1.14554 17.8798 1.15349 25C1.16143 32.1122 1.16938 39.4628 1.14554 44.9857C1.14554 46.0188 1.54287 46.9882 2.27396 47.7193C3.00504 48.4504 3.97453 48.8557 5.01553 48.8557H24.3655C26.4872 48.8557 28.2196 47.1313 28.2275 45.0095C28.2434 39.4787 28.2355 32.1122 28.2355 24.9841C28.2276 17.8798 28.2196 10.5372 28.2434 5.02225C28.2434 3.98919 27.8461 3.01971 27.115 2.28862C26.3839 1.55753 25.4145 1.15226 24.3734 1.15226H5.02348V1.14431Z" fill="#262937"/>
<path d="M29.5705 45.0097C29.5626 47.4572 27.5759 49.428 25.1363 49.428H5.78633C3.33083 49.428 1.34418 47.4334 1.35213 44.9779C1.36007 42.3793 1.36007 39.3993 1.36007 36.2207C1.36007 25.8901 1.32829 13.4299 1.36007 4.99057C1.36802 2.54302 3.35467 0.572266 5.79428 0.572266H25.1442C25.2317 0.572266 25.3191 0.572266 25.3985 0.580212C27.7348 0.715304 29.5864 2.65427 29.5784 5.02236C29.5387 16.0761 29.6102 33.9718 29.5705 45.0097Z" fill="white"/>
<path d="M17.6032 27.3364L18.3979 40.1463C18.4455 40.9648 17.8336 41.68 17.0151 41.7436L15.545 41.8628C14.7027 41.9264 13.9716 41.2907 13.9239 40.4563L13.1372 27.702" fill="#3D68F8"/>
<g opacity="0.1">
<path d="M29.5707 45.0095C29.5627 47.4571 27.5761 49.4278 25.1365 49.4278H5.78652C3.33102 49.4278 1.34437 47.4332 1.35232 44.9777C1.36027 42.3792 1.36027 39.3992 1.36027 36.2206C3.30718 37.0073 5.34946 37.5556 7.43941 37.6351C10.9359 37.7622 14.6549 36.3398 16.5065 33.3757C17.6111 31.6115 18.0004 29.4421 19.256 27.7813C20.6467 25.9536 22.9353 24.9761 24.3021 23.1325C25.8278 21.0903 25.9629 18.3646 25.9788 15.8058C26.0186 10.7199 25.8199 5.63412 25.3908 0.580078C27.7271 0.71517 29.5786 2.65414 29.5707 5.02223C29.5389 16.0759 29.6104 33.9717 29.5707 45.0095Z" fill="#262937"/>
</g>
<path d="M25.1365 50H5.78653C4.44355 50 3.18005 49.4755 2.2344 48.5299C1.28875 47.5842 0.772225 46.3207 0.772225 44.9777C0.796065 39.4628 0.788119 32.1122 0.780172 25C0.772225 17.8798 0.764279 10.5134 0.780172 4.99046C0.788119 2.24094 3.03701 0 5.78653 0H25.1365C26.4795 0 27.743 0.524476 28.6886 1.47012C29.6343 2.41577 30.1508 3.67928 30.1508 5.02225C30.1349 10.5372 30.1429 17.8798 30.1429 24.9762C30.1508 32.1043 30.1588 39.4787 30.1349 45.0095C30.1349 47.767 27.886 50 25.1365 50ZM5.79448 1.14431C3.67273 1.14431 1.94038 2.86872 1.93243 4.99046C1.90859 10.5213 1.91654 17.8798 1.92448 25C1.93243 32.1122 1.94038 39.4628 1.91654 44.9777C1.91654 46.0108 2.31387 46.9803 3.04495 47.7114C3.77604 48.4425 4.74553 48.8477 5.78653 48.8477H25.1365C27.2582 48.8477 28.9906 47.1233 28.9985 45.0016C29.0144 39.4708 29.0065 32.1043 29.0065 24.9762C28.9985 17.8719 28.9906 10.5292 29.0144 5.0143C29.0144 3.98125 28.6171 3.01176 27.886 2.28067C27.1549 1.54959 26.1854 1.14431 25.1444 1.14431H5.79448Z" fill="#262937"/>
<path d="M20.5673 4.79194H10.3639C9.61689 4.79194 8.93348 4.34693 8.63151 3.66353L7.38389 0.810696C7.25675 0.524618 7.39184 0.182914 7.67792 0.0557689C7.97194 -0.0713767 8.3057 0.0637155 8.43285 0.349793L9.68046 3.20262C9.79966 3.47281 10.0698 3.64763 10.3639 3.64763H20.5673C20.8613 3.64763 21.1315 3.47281 21.2507 3.20262L22.4983 0.349793C22.6255 0.0637155 22.9592 -0.0713767 23.2533 0.0557689C23.5393 0.182914 23.6744 0.516672 23.5473 0.810696L22.2997 3.66353C21.9977 4.34693 21.3143 4.79194 20.5673 4.79194Z" fill="#262937"/>
<path d="M23.0225 0.572266L21.7749 3.42509C21.5683 3.90189 21.0915 4.21181 20.567 4.21181H15.4574H15.4653H10.3556C9.83117 4.21181 9.36232 3.90189 9.14776 3.42509L7.90015 0.572266" fill="#262937"/>
<path d="M17.2533 2.89285H10.8881C10.5702 2.89285 10.3159 2.63855 10.3159 2.32069C10.3159 2.00283 10.5702 1.74854 10.8881 1.74854H17.2533C17.5712 1.74854 17.8255 2.00283 17.8255 2.32069C17.8255 2.63855 17.5632 2.89285 17.2533 2.89285Z" fill="white"/>
<path d="M36.1106 32.9386C29.3162 28.1468 20.6544 27.527 12.6522 28.4488C10.7132 28.6713 8.98882 27.225 8.83784 25.2781L8.38488 19.5645C8.2339 17.6255 9.71196 15.917 11.6589 15.8375C19.7088 15.4958 27.5839 13.3185 33.5438 7.52539" fill="#262937"/>
<path d="M36.1029 33.5106C35.9916 33.5106 35.8724 33.4789 35.7771 33.4073C30.0794 29.3864 22.3155 27.9083 12.716 29.0208C11.6353 29.148 10.5705 28.8301 9.72813 28.1387C8.86989 27.4315 8.35336 26.4382 8.26595 25.3336L7.813 19.62C7.72558 18.5154 8.08318 17.4506 8.81427 16.6162C9.53741 15.7977 10.5387 15.3209 11.6274 15.2732C20.7421 14.8838 27.9815 12.1422 33.1388 7.11999C33.3613 6.89748 33.7269 6.90543 33.9494 7.12794C34.1719 7.35839 34.1639 7.71598 33.9414 7.93849C28.5775 13.1594 21.0838 16.0122 11.683 16.4175C10.9042 16.4493 10.197 16.791 9.68045 17.379C9.15597 17.975 8.89373 18.7379 8.95731 19.5326L9.41026 25.2462C9.47383 26.0408 9.84732 26.756 10.4592 27.2567C11.0632 27.7494 11.8181 27.9798 12.5889 27.8924C22.4824 26.7481 30.5085 28.2977 36.4446 32.4855C36.7068 32.6683 36.7625 33.0259 36.5797 33.2802C36.4605 33.4232 36.2857 33.5106 36.1029 33.5106Z" fill="#262937"/>
<path d="M38.6934 14.3595C40.2429 14.2323 41.8243 14.9952 42.6984 16.2825C43.5726 17.5619 43.6918 19.3181 43.0084 20.7167C42.325 22.1074 40.8628 23.0848 39.3132 23.1802" fill="white"/>
<path d="M39.8616 31.6433L37.9862 5.61028C37.9067 4.48186 36.9214 3.63952 35.7929 3.72694C34.6804 3.81435 33.8381 4.78383 33.9175 5.9043L35.7929 31.9374C35.8724 33.0658 36.8578 33.9081 37.9862 33.8207C39.1067 33.7333 39.9411 32.7638 39.8616 31.6433Z" fill="#FFC94D"/>
<path d="M35.5623 32.4615C30.7943 29.0922 25.3668 27.6459 19.7883 27.4075C19.7009 27.4075 19.6135 27.3995 19.526 27.3995C17.2454 27.3121 14.9409 27.4234 12.6443 27.6936C10.7053 27.9161 8.98091 26.4698 8.82992 24.5229L8.37696 18.8093C8.34518 18.3801 8.38491 17.959 8.50411 17.5696C8.90144 16.1948 10.1411 15.1459 11.651 15.0823C14.0508 14.979 16.4428 14.7088 18.7711 14.232C23.7298 13.2148 28.4183 11.2361 32.3598 7.82705C32.7571 7.48535 33.1465 7.1357 33.528 6.76221L35.5623 32.4615Z" fill="#64C682"/>
<path d="M19.7963 27.4079C19.7089 27.4079 19.6215 27.3999 19.5341 27.3999C17.2534 27.3125 14.9489 27.4238 12.6523 27.694C10.7134 27.9165 8.98896 26.4702 8.83798 24.5233L8.38502 18.8097C8.35324 18.3805 8.39297 17.9594 8.51217 17.57C8.9095 16.1952 10.1492 15.1463 11.659 15.0827C14.0589 14.9794 16.4508 14.7092 18.7792 14.2324L19.7963 27.4079Z" fill="white"/>
<g opacity="0.1">
<path d="M35.5703 32.4619C28.776 27.6701 20.6546 26.7642 12.6523 27.686C10.7213 27.9085 8.98896 26.4622 8.83798 24.5153L8.38502 18.8017C8.35324 18.3725 8.39297 17.9514 8.51217 17.562C10.2922 20.1367 13.0735 22.02 16.1409 22.6637C18.652 23.1961 21.2665 22.9259 23.8173 22.6637C25.5417 22.4809 27.4251 22.2187 28.5694 20.9155C29.1336 20.2718 29.4356 19.4533 29.7296 18.6586C29.96 18.0388 30.1825 17.419 30.413 16.8071C30.9057 15.472 31.3904 14.137 31.7401 12.7622C32.1454 11.157 32.3599 9.49619 32.3758 7.8433C32.7731 7.50159 33.1625 7.144 33.544 6.77051L35.5703 32.4619Z" fill="#262937"/>
</g>
<path d="M17.9925 46.5432H12.9306C12.6127 46.5432 12.3584 46.2889 12.3584 45.9711C12.3584 45.6532 12.6127 45.3989 12.9306 45.3989H17.9925C18.3104 45.3989 18.5647 45.6532 18.5647 45.9711C18.5647 46.2889 18.3104 46.5432 17.9925 46.5432Z" fill="#262937"/>
<path d="M35.5701 33.034C35.4588 33.034 35.3396 33.0022 35.2443 32.9307C29.3638 28.7826 21.7827 27.2092 12.7236 28.2581C11.6429 28.3853 10.578 28.0674 9.73569 27.3761C8.87746 26.6688 8.36093 25.6755 8.27352 24.5709L7.82056 18.8573C7.73315 17.7527 8.09075 16.6879 8.82184 15.8535C9.54498 15.035 10.5462 14.5582 11.6349 14.5105C20.7497 14.1211 27.989 11.3795 33.1464 6.35729C33.3689 6.13479 33.7344 6.14274 33.9569 6.36524C34.1794 6.59569 34.1715 6.95329 33.949 7.17579C28.585 12.3967 21.0914 15.2495 11.6906 15.6548C10.9118 15.6866 10.2045 16.0283 9.68801 16.6164C9.16354 17.2123 8.9013 17.9752 8.96487 18.7699L9.41783 24.4835C9.4814 25.2781 9.85489 25.9933 10.4668 26.494C11.0707 26.9946 11.8256 27.2171 12.5965 27.1297C21.9337 26.0331 29.777 27.678 35.8959 31.993C36.1581 32.1758 36.2138 32.5334 36.031 32.7877C35.9277 32.9466 35.7449 33.034 35.5701 33.034Z" fill="#262937"/>
<path d="M37.827 34.4009C37.2072 34.4009 36.6112 34.1784 36.1264 33.7731C35.594 33.3202 35.2761 32.6765 35.2285 31.9851L33.3531 5.94413C33.2498 4.52169 34.3226 3.26613 35.7529 3.15488C36.4522 3.09925 37.1277 3.32176 37.6601 3.77471C38.1925 4.22767 38.5104 4.87134 38.5581 5.5627L40.4335 31.5958C40.5368 33.0182 39.464 34.2738 38.0336 34.385C37.97 34.4009 37.8985 34.4009 37.827 34.4009ZM35.9596 4.29124C35.9198 4.29124 35.8801 4.29124 35.8404 4.29919C35.0377 4.36276 34.4338 5.06206 34.4974 5.86467L36.3728 31.8977C36.4046 32.2871 36.5794 32.6447 36.8814 32.9069C37.1833 33.1612 37.5568 33.2884 37.9541 33.2566C38.7568 33.193 39.3607 32.4937 39.2971 31.6911L37.4138 5.65011C37.382 5.26072 37.2072 4.90313 36.9052 4.64089C36.643 4.41839 36.3092 4.29124 35.9596 4.29124Z" fill="#262937"/>
<path d="M19.6215 27.8688C19.3195 27.8688 19.0732 27.6384 19.0494 27.3364C18.8904 25.0716 18.7553 22.9578 18.6123 20.844C18.4693 18.7303 18.3342 16.6165 18.1752 14.3596C18.1514 14.0418 18.3898 13.7716 18.7076 13.7477C19.0255 13.7239 19.2957 13.9623 19.3195 14.2802C19.4785 16.5449 19.6136 18.6587 19.7566 20.7725C19.8996 22.8863 20.0347 25.0001 20.1937 27.257C20.2175 27.5748 19.9791 27.845 19.6612 27.8688C19.6533 27.8688 19.6374 27.8688 19.6215 27.8688Z" fill="#262937"/>
<path d="M39.3132 23.7443C39.0112 23.7443 38.7649 23.5138 38.741 23.2039C38.7252 22.8861 38.9636 22.6159 39.2735 22.6C40.6085 22.5205 41.9038 21.6543 42.4918 20.4544C43.0799 19.2545 42.9686 17.7049 42.2217 16.5924C41.4747 15.4798 40.0602 14.8123 38.7331 14.9236C38.4152 14.9474 38.1451 14.717 38.1133 14.3991C38.0894 14.0812 38.3199 13.8111 38.6377 13.7793C40.4019 13.6362 42.174 14.4865 43.1673 15.9487C44.1606 17.4109 44.2957 19.3737 43.5249 20.955C42.7461 22.5364 41.1091 23.633 39.3529 23.7364C39.337 23.7443 39.3291 23.7443 39.3132 23.7443Z" fill="#262937"/>
<path d="M15.4099 42.4268C14.9092 42.4268 14.4324 42.252 14.051 41.9182C13.6298 41.5527 13.3755 41.0362 13.3358 40.4799L12.5491 27.7256C12.5332 27.4077 12.7716 27.1376 13.0815 27.1217C13.3914 27.1058 13.6696 27.3442 13.6855 27.6541L14.4722 40.4084C14.4881 40.6627 14.5993 40.8931 14.79 41.0521C14.9807 41.2189 15.2191 41.2984 15.4734 41.2746L16.9436 41.1554C17.4521 41.1156 17.8336 40.6706 17.8018 40.17L17.0071 27.3601C16.9912 27.0422 17.2296 26.772 17.5396 26.7561C17.8574 26.7402 18.1276 26.9786 18.1435 27.2885L18.9382 40.0985C19.0097 41.2269 18.1514 42.2123 17.023 42.2997L15.5529 42.4189C15.5211 42.4268 15.4655 42.4268 15.4099 42.4268Z" fill="#262937"/>
<path d="M42.46 12.3251C42.317 12.3251 42.1739 12.2695 42.0706 12.1662C41.8402 11.9516 41.8322 11.5861 42.0468 11.3556L43.3262 10.0047C43.5407 9.77424 43.9063 9.7663 44.1367 9.98086C44.3672 10.1954 44.3751 10.561 44.1606 10.7914L42.8812 12.1423C42.762 12.2695 42.611 12.3251 42.46 12.3251Z" fill="#262937"/>
<path d="M46.1472 16.7832C45.9008 16.7832 45.6704 16.6243 45.5988 16.378C45.5035 16.076 45.6783 15.7581 45.9803 15.6628L46.9259 15.3767C47.2279 15.2893 47.5458 15.4562 47.6411 15.7581C47.7365 16.0601 47.5617 16.378 47.2597 16.4733L46.314 16.7594C46.2584 16.7753 46.1948 16.7832 46.1472 16.7832Z" fill="#262937"/>
<path d="M47.8557 22.8226C47.816 22.8226 47.7762 22.8226 47.7444 22.8146L45.9803 22.457C45.6704 22.3934 45.4717 22.0915 45.5353 21.7816C45.5989 21.4716 45.9008 21.273 46.2107 21.3365L47.9749 21.6941C48.2848 21.7577 48.4835 22.0597 48.4199 22.3696C48.3643 22.6398 48.1259 22.8226 47.8557 22.8226Z" fill="#262937"/>
<path d="M44.105 27.1214C43.962 27.1214 43.811 27.0658 43.6997 26.9546L42.7938 26.0566C42.5713 25.8341 42.5713 25.4685 42.7938 25.246C43.0163 25.0235 43.3819 25.0156 43.6044 25.246L44.5103 26.144C44.7328 26.3665 44.7328 26.7321 44.5103 26.9546C44.399 27.0658 44.2481 27.1214 44.105 27.1214Z" fill="#262937"/>
<path d="M23.1338 17.4508C22.8239 17.4508 22.514 17.4349 22.2041 17.4032C21.9418 17.3793 21.7511 17.1409 21.775 16.8787C21.7988 16.6164 22.0372 16.4257 22.2994 16.4496C24.5563 16.6641 26.8687 15.9887 28.6408 14.598C28.8474 14.4311 29.1494 14.4709 29.3083 14.6775C29.4673 14.8841 29.4355 15.1861 29.2289 15.345C27.5045 16.7039 25.3271 17.4508 23.1338 17.4508Z" fill="white"/>
<path d="M30.8263 13.9141C30.7071 13.9141 30.58 13.8664 30.4925 13.771C30.3098 13.5883 30.3098 13.2863 30.4925 13.0956L30.572 13.0082C30.7627 12.8254 31.0647 12.8254 31.2475 13.0082C31.4302 13.1989 31.4302 13.5009 31.2475 13.6836L31.1601 13.771C31.0647 13.8664 30.9455 13.9141 30.8263 13.9141Z" fill="white"/>
</svg>
