<svg width="30" height="30" viewBox="0 0 30 30" fill="none" xmlns="http://www.w3.org/2000/svg">
<path d="M28 2.5H24.5V1.75C24.5 0.785 23.715 0 22.75 0C21.785 0 21 0.785 21 1.75V2.5H9V1.75C9 0.785 8.215 0 7.25 0C6.285 0 5.5 0.785 5.5 1.75V2.5H2C0.897 2.5 0 3.397 0 4.5V28C0 29.103 0.897 30 2 30H28C29.103 30 30 29.103 30 28V4.5C30 3.397 29.103 2.5 28 2.5ZM22 1.75C22 1.3365 22.3365 1 22.75 1C23.1635 1 23.5 1.3365 23.5 1.75V4.25C23.5 4.6635 23.1635 5 22.75 5C22.3365 5 22 4.6635 22 4.25V1.75ZM6.5 1.75C6.5 1.3365 6.8365 1 7.25 1C7.6635 1 8 1.3365 8 1.75V4.25C8 4.6635 7.6635 5 7.25 5C6.8365 5 6.5 4.6635 6.5 4.25V1.75ZM2 3.5H5.5V4.25C5.5 5.215 6.285 6 7.25 6C8.215 6 9 5.215 9 4.25V3.5H21V4.25C21 5.215 21.785 6 22.75 6C23.715 6 24.5 5.215 24.5 4.25V3.5H28C28.5515 3.5 29 3.9485 29 4.5V7H1V4.5C1 3.9485 1.4485 3.5 2 3.5ZM28 29H2C1.4485 29 1 28.5515 1 28V8H29V28C29 28.5515 28.5515 29 28 29Z" fill="#8C8FAB"/>
<path d="M23.5 12.5H19.3385L18.7155 10.9465C18.492 10.3805 17.9335 10 17.3255 10H12.675C12.067 10 11.5085 10.3805 11.2865 10.944L10.662 12.5H6.50049C5.39749 12.5 4.50049 13.397 4.50049 14.5V24.5C4.50049 25.603 5.39749 26.5 6.50049 26.5H23.5005C24.6035 26.5 25.5005 25.603 25.5005 24.5V14.5C25.5005 13.397 24.603 12.5 23.5 12.5ZM6.49999 13.5H11C11.204 13.5 11.388 13.3755 11.464 13.186L12.2155 11.3135C12.289 11.126 12.474 11 12.675 11H17.3255C17.5265 11 17.711 11.126 17.7865 11.316L18.5365 13.186C18.612 13.3755 18.7965 13.5 19.0005 13.5H23.5005C24.052 13.5 24.5005 13.9485 24.5005 14.5V16H18.565C17.657 15.0755 16.3955 14.5 15.0005 14.5C13.6055 14.5 12.344 15.0755 11.436 16H5.50049V14.5C5.50049 13.9485 5.94899 13.5 6.50049 13.5H6.49999ZM11 19.5C11 17.2945 12.7945 15.5 15 15.5C17.2055 15.5 19 17.2945 19 19.5C19 21.7055 17.2055 23.5 15 23.5C12.7945 23.5 11 21.7055 11 19.5ZM10.6765 22H5.49999V17H10.6765C10.249 17.7365 9.99999 18.589 9.99999 19.5C9.99999 20.411 10.249 21.2635 10.6765 22ZM19.3235 17H24.5V22H19.3235C19.751 21.2635 20 20.411 20 19.5C20 18.589 19.751 17.7365 19.3235 17ZM23.5 25.5H6.49999C5.94849 25.5 5.49999 25.0515 5.49999 24.5V23H11.4355C12.3435 23.9245 13.605 24.5 15 24.5C16.395 24.5 17.6565 23.9245 18.5645 23H24.5V24.5C24.5 25.0515 24.0515 25.5 23.5 25.5Z" fill="#8C8FAB"/>
<path d="M13 19.5C13 18.397 13.897 17.5 15 17.5C15.2765 17.5 15.5 17.2765 15.5 17C15.5 16.7235 15.2765 16.5 15 16.5C13.3455 16.5 12 17.8455 12 19.5C12 19.7765 12.2235 20 12.5 20C12.7765 20 13 19.7765 13 19.5Z" fill="#8C8FAB"/>
</svg>
