<svg width="26" height="22" viewBox="0 0 26 22" fill="none" xmlns="http://www.w3.org/2000/svg">
<path d="M15.9047 13.5992C15.6051 13.2996 15.1227 13.2996 14.8281 13.5992L13.7617 14.6656V9.90234C13.7617 9.48086 13.4215 9.14062 13 9.14062C12.5785 9.14062 12.2383 9.48086 12.2383 9.90234V14.6656L11.1719 13.5992C10.8723 13.2996 10.3898 13.2996 10.0953 13.5992C9.7957 13.8988 9.7957 14.3812 10.0953 14.6758L12.4617 17.0422C12.7613 17.3418 13.2438 17.3418 13.5383 17.0422L15.9047 14.6758C16.2043 14.3812 16.2043 13.8988 15.9047 13.5992Z" fill="url(#paint0_linear_126_8)"/>
<path d="M0 5.51484V1.52344C0 0.680469 0.680469 0 1.52344 0H7.78984C8.44492 0 9.07969 0.213281 9.60781 0.599219L11.8371 2.25977C12.3652 2.65078 13 2.85898 13.6551 2.85898H24.4766C25.3195 2.85898 26 3.53945 26 4.38242V5.50977C25.6293 5.08828 25.0809 4.81914 24.4766 4.81914H1.52344C0.919141 4.82422 0.370703 5.09336 0 5.51484ZM26 6.85547V19.5508C26 20.3937 25.3195 21.0742 24.4766 21.0742H1.52344C0.680469 21.0742 0 20.3937 0 19.5508V6.85547C0 6.0125 0.680469 5.33203 1.52344 5.33203H24.4766C25.3195 5.33203 26 6.0125 26 6.85547ZM19.3477 13.2031C19.3477 9.69922 16.5039 6.85547 13 6.85547C9.49609 6.85547 6.65234 9.69922 6.65234 13.2031C6.65234 16.707 9.49609 19.5508 13 19.5508C16.5039 19.5508 19.3477 16.707 19.3477 13.2031Z" fill="url(#paint1_linear_126_8)"/>
<defs>
<linearGradient id="paint0_linear_126_8" x1="13" y1="9.14062" x2="13" y2="17.2669" gradientUnits="userSpaceOnUse">
<stop stop-color="#B7DCFF"/>
<stop offset="1" stop-color="#FFA4F6"/>
</linearGradient>
<linearGradient id="paint1_linear_126_8" x1="13" y1="0" x2="13" y2="21.0742" gradientUnits="userSpaceOnUse">
<stop stop-color="#B7DCFF"/>
<stop offset="1" stop-color="#FFA4F6"/>
</linearGradient>
</defs>
</svg>
