<svg width="50" height="50" viewBox="0 0 50 50" fill="none" xmlns="http://www.w3.org/2000/svg">
<g clip-path="url(#clip0_157_212)">
<path d="M8.8542 0.625H41.1459C46.0417 0.625 50 4.5833 50 9.4792V40.5209C50 45.4167 46.0417 49.3751 41.1458 49.3751H8.8542C3.9583 49.375 0 45.4167 0 40.5208V9.4792C0 4.5833 3.9583 0.625 8.8542 0.625Z" fill="#001834"/>
<path d="M26.2501 35.0833H13.0418C12.8126 35.0833 12.7085 34.9583 12.7085 34.7083V13.4167C12.6877 13.2709 12.7918 13.1459 12.9377 13.125H13.021H17.1043C17.2085 13.1042 17.3335 13.1875 17.3335 13.2917V13.3542V30.8542H26.9585C27.1668 30.8542 27.2293 30.9584 27.1877 31.1459L26.5835 34.7709C26.5835 34.8751 26.521 34.9584 26.4585 35.0209C26.3959 35.0625 26.3334 35.0833 26.2501 35.0833Z" fill="#00A9FF"/>
<path d="M29.5835 18.4166H33.2293C33.4376 18.4166 33.6043 18.5624 33.6668 18.7499C33.7501 18.8957 33.8126 19.0624 33.8335 19.2291C33.8752 19.4374 33.9168 19.6666 33.9377 19.8749C33.9585 20.1041 33.9794 20.3541 33.9794 20.6249C34.6044 19.8957 35.3544 19.2916 36.2086 18.8332C37.1669 18.3124 38.2294 18.0624 39.3128 18.0832C39.4586 18.0624 39.5836 18.1665 39.6045 18.3124V18.3957V22.4582C39.6045 22.6249 39.5003 22.6874 39.2712 22.6874C37.917 22.6041 36.5629 22.8541 35.3337 23.3957C34.917 23.5832 34.5212 23.8332 34.2087 24.1665V34.7915C34.2087 34.9998 34.1254 35.0832 33.9379 35.0832H29.8754C29.7087 35.104 29.5629 34.9999 29.5421 34.8332C29.5421 34.8124 29.5421 34.7707 29.5421 34.7499V23.2082C29.5421 22.7082 29.5421 22.1874 29.5213 21.6457C29.5005 21.104 29.5005 20.5624 29.4796 20.0207C29.4588 19.5624 29.4171 19.104 29.3546 18.6457C29.3338 18.5415 29.3963 18.4374 29.5004 18.4165C29.521 18.3957 29.5419 18.3957 29.5835 18.4166Z" fill="#00A9FF"/>
</g>
<defs>
<clipPath id="clip0_157_212">
<rect width="50" height="50" fill="white"/>
</clipPath>
</defs>
</svg>
