<svg width="43" height="50" viewBox="0 0 43 50" fill="none" xmlns="http://www.w3.org/2000/svg">
<path d="M21.3042 5.99658C12.7001 5.99658 5.70044 12.9973 5.70044 21.6014C5.70044 24.6118 6.56042 27.5343 8.18601 30.0527C9.70768 32.4089 11.8263 34.306 14.3257 35.5572V36.6028H13.3756C13.0829 36.6028 12.8454 36.8403 12.8454 37.133C12.8454 37.4257 13.0829 37.6632 13.3756 37.6632H14.3257V46.9788C14.3257 47.2714 14.5622 47.509 14.8559 47.509H17.6331V49.4696C17.6331 49.7623 17.8706 49.9998 18.1633 49.9998H24.4461C24.7388 49.9998 24.9763 49.7623 24.9763 49.4696V47.509H27.7535C28.0462 47.509 28.2837 47.2714 28.2837 46.9788V44.244H29.2338C29.5265 44.244 29.764 44.0075 29.764 43.7138C29.764 43.4211 29.5265 43.1836 29.2338 43.1836H28.2837V41.048H29.2338C29.5265 41.048 29.764 40.8104 29.764 40.5178C29.764 40.2251 29.5265 39.9876 29.2338 39.9876H28.2837V37.6632H29.2338C29.5265 37.6632 29.764 37.4257 29.764 37.133C29.764 36.8403 29.5265 36.6028 29.2338 36.6028H28.2837V35.5572C30.783 34.306 32.9017 32.4089 34.4234 30.0527C36.049 27.5343 36.9079 24.6118 36.9079 21.6014C36.9079 12.9973 29.9082 5.99658 21.3042 5.99658ZM23.9159 48.9394H18.6935V47.509H23.9159V48.9394ZM27.2233 39.9876H19.8811C19.5874 39.9876 19.3509 40.2251 19.3509 40.5178C19.3509 40.8104 19.5874 41.048 19.8811 41.048H27.2233V43.1836H19.8811C19.5874 43.1836 19.3509 43.4211 19.3509 43.7138C19.3509 44.0075 19.5874 44.244 19.8811 44.244H27.2233V46.4486H24.4504C24.4493 46.4486 24.4472 46.4475 24.4461 46.4475C24.4451 46.4475 24.4429 46.4486 24.4419 46.4486H18.1675C18.1665 46.4486 18.1654 46.4475 18.1633 46.4475C18.1622 46.4475 18.1612 46.4486 18.159 46.4486H15.3861V37.6632H27.2233V39.9876ZM20.8312 23.7243C20.8312 23.3998 21.0953 23.1358 21.4197 23.1358C21.7442 23.1358 22.0083 23.3998 22.0083 23.7243C22.0083 24.0488 21.7442 24.3128 21.4197 24.3128C21.0953 24.3128 20.8312 24.0488 20.8312 23.7243ZM27.5266 34.7492C27.516 34.7545 27.5075 34.7619 27.4969 34.7672C27.4799 34.7768 27.4619 34.7863 27.446 34.798C27.4322 34.8075 27.4195 34.8192 27.4067 34.8298C27.394 34.8415 27.3813 34.8521 27.3696 34.8648C27.3569 34.8775 27.3463 34.8913 27.3357 34.9051C27.3262 34.9189 27.3155 34.9316 27.3071 34.9454C27.2975 34.9602 27.2901 34.9751 27.2827 34.9899C27.2742 35.0058 27.2668 35.0207 27.2604 35.0376C27.254 35.0535 27.2498 35.0695 27.2456 35.0864C27.2403 35.1023 27.236 35.1182 27.2328 35.1352C27.2297 35.1543 27.2286 35.1744 27.2265 35.1946C27.2265 35.2062 27.2233 35.2168 27.2233 35.2285V36.6028H21.9489V25.2841C22.5989 25.0625 23.0687 24.4475 23.0687 23.7243C23.0687 22.8155 22.3285 22.0754 21.4197 22.0754C20.5099 22.0754 19.7708 22.8155 19.7708 23.7243C19.7708 24.4475 20.2395 25.0625 20.8885 25.2841V36.6028H15.3861V35.2285C15.3861 35.2158 15.3829 35.2031 15.3819 35.1903C15.3808 35.1723 15.3797 35.1543 15.3766 35.1363C15.3734 35.1182 15.3681 35.1002 15.3628 35.0832C15.3585 35.0684 15.3543 35.0535 15.349 35.0387C15.3426 35.0207 15.3341 35.0037 15.3246 34.9878C15.3182 34.974 15.3108 34.9602 15.3034 34.9464C15.2938 34.9316 15.2822 34.9178 15.2716 34.903C15.261 34.8902 15.2514 34.8775 15.2398 34.8659C15.2281 34.8521 15.2133 34.8404 15.1995 34.8287C15.1878 34.8181 15.1761 34.8075 15.1634 34.798C15.1464 34.7863 15.1284 34.7768 15.1093 34.7662C15.1008 34.7609 15.0924 34.7545 15.0828 34.7492C10.0269 32.3527 6.76084 27.1918 6.76084 21.6014C6.76084 13.5816 13.2854 7.05698 21.3042 7.05698C29.3239 7.05698 35.8475 13.5816 35.8475 21.6014C35.8475 27.1918 32.5815 32.3527 27.5266 34.7492Z" fill="white"/>
<path d="M22.0083 23.7243C22.0083 24.0487 21.7443 24.3128 21.4198 24.3128C21.0953 24.3128 20.8313 24.0487 20.8313 23.7243C20.8313 23.3998 21.0953 23.1357 21.4198 23.1357C21.7443 23.1357 22.0083 23.3998 22.0083 23.7243Z" fill="#E1E1E5"/>
<path d="M23.9161 47.5093H18.6936V48.9398H23.9161V47.5093Z" fill="#636368"/>
<path opacity="0.2" d="M20.7211 47.5093H18.6936V48.9398H20.7211V47.5093Z" fill="black"/>
<path d="M25.6676 30.5682V31.0899L26.0292 30.9298L25.6676 30.5682ZM25.6676 30.5682V31.0899L26.0292 30.9298L25.6676 30.5682ZM25.6676 30.5682V31.0899L26.0292 30.9298L25.6676 30.5682ZM11.5134 21.7945V22.4403L14.7689 25.6957C14.7795 25.7063 14.7879 25.719 14.7975 25.7307C14.8102 25.7455 14.8229 25.7593 14.8335 25.7752C14.8473 25.7954 14.8569 25.8155 14.8675 25.8367C14.8717 25.8463 14.8781 25.8558 14.8823 25.8664C14.8929 25.8919 14.9003 25.9184 14.9067 25.9438C14.9088 25.9513 14.912 25.9576 14.9131 25.965C14.9205 26.0011 14.9237 26.0372 14.9237 26.0743V30.091L17.1706 31.0899V27.4517L11.5134 21.7945ZM15.3489 21.7563L15.5801 21.9864V21.855C15.5005 21.8274 15.4231 21.7945 15.3489 21.7563ZM25.6676 30.5682V31.0899L26.0292 30.9298L25.6676 30.5682ZM11.5134 21.7945V22.4403L14.7689 25.6957C14.7795 25.7063 14.7879 25.719 14.7975 25.7307C14.8102 25.7455 14.8229 25.7593 14.8335 25.7752C14.8473 25.7954 14.8569 25.8155 14.8675 25.8367C14.8717 25.8463 14.8781 25.8558 14.8823 25.8664C14.8929 25.8919 14.9003 25.9184 14.9067 25.9438C14.9088 25.9513 14.912 25.9576 14.9131 25.965C14.9205 26.0011 14.9237 26.0372 14.9237 26.0743V30.091L17.1706 31.0899V27.4517L11.5134 21.7945ZM15.3489 21.7563L15.5801 21.9864V21.855C15.5005 21.8274 15.4231 21.7945 15.3489 21.7563ZM25.6676 30.5682V31.0899L26.0292 30.9298L25.6676 30.5682ZM11.5134 21.7945V22.4403L14.7689 25.6957C14.7795 25.7063 14.7879 25.719 14.7975 25.7307C14.8102 25.7455 14.8229 25.7593 14.8335 25.7752C14.8473 25.7954 14.8569 25.8155 14.8675 25.8367C14.8717 25.8463 14.8781 25.8558 14.8823 25.8664C14.8929 25.8919 14.9003 25.9184 14.9067 25.9438C14.9088 25.9513 14.912 25.9576 14.9131 25.965C14.9205 26.0011 14.9237 26.0372 14.9237 26.0743V30.091L17.1706 31.0899V27.4517L11.5134 21.7945ZM15.3489 21.7563L15.5801 21.9864V21.855C15.5005 21.8274 15.4231 21.7945 15.3489 21.7563ZM25.6676 24.4869V31.0899L26.0292 30.9298L27.9146 30.091V26.7338L25.6676 24.4869ZM11.5134 21.7945V22.4403L14.7689 25.6957C14.7795 25.7063 14.7879 25.719 14.7975 25.7307C14.8102 25.7455 14.8229 25.7593 14.8335 25.7752C14.8473 25.7954 14.8569 25.8155 14.8675 25.8367C14.8717 25.8463 14.8781 25.8558 14.8823 25.8664C14.8929 25.8919 14.9003 25.9184 14.9067 25.9438C14.9088 25.9513 14.912 25.9576 14.9131 25.965C14.9205 26.0011 14.9237 26.0372 14.9237 26.0743V30.091L17.1706 31.0899V27.4517L11.5134 21.7945ZM15.5801 21.855C15.5005 21.8274 15.4231 21.7945 15.3489 21.7563L15.5801 21.9864V21.855ZM21.3041 7.05713C18.9479 7.05713 16.721 7.6202 14.7508 8.61909C13.6809 9.16095 12.6873 9.83218 11.7902 10.6095C11.2367 11.0898 10.7203 11.6105 10.2441 12.1672C9.78393 12.7059 9.36083 13.2795 8.98227 13.8829C8.78716 14.1936 8.60371 14.5117 8.43087 14.8373C7.97065 15.71 7.59633 16.6346 7.31957 17.6006C6.95585 18.8731 6.76074 20.2145 6.76074 21.6015C6.76074 27.1919 10.0268 32.3529 15.0827 34.7494C15.0923 34.7547 15.1008 34.761 15.1092 34.7663C15.1283 34.7769 15.1464 34.7865 15.1633 34.7981C15.176 34.8077 15.1877 34.8183 15.1994 34.8289C15.2132 34.8406 15.228 34.8522 15.2397 34.866C15.2513 34.8777 15.2609 34.8904 15.2715 34.9031C15.2821 34.918 15.2937 34.9318 15.3033 34.9466C15.3107 34.9604 15.3181 34.9742 15.3245 34.988C15.334 35.0039 15.3425 35.0208 15.3489 35.0389C15.3542 35.0537 15.3584 35.0685 15.3627 35.0834C15.368 35.1004 15.3733 35.1184 15.3765 35.1364C15.3796 35.1544 15.3807 35.1725 15.3818 35.1905C15.3828 35.2032 15.386 35.2159 15.386 35.2287V36.6029H20.8884V25.2843C20.2394 25.0627 19.7707 24.4476 19.7707 23.7244C19.7707 23.173 20.0433 22.6831 20.4611 22.3841C20.7304 22.189 21.0623 22.0755 21.4197 22.0755C22.3284 22.0755 23.0686 22.8157 23.0686 23.7244C23.0686 24.0818 22.954 24.4126 22.76 24.682C22.5606 24.9587 22.2775 25.1719 21.9488 25.2843V36.6029H27.2232V35.2287C27.2232 35.217 27.2264 35.2064 27.2264 35.1947C27.2285 35.1746 27.2296 35.1544 27.2327 35.1354C27.2359 35.1184 27.2402 35.1025 27.2455 35.0866C27.2497 35.0696 27.254 35.0537 27.2603 35.0378C27.2667 35.0208 27.2741 35.006 27.2826 34.9901C27.29 34.9752 27.2974 34.9604 27.307 34.9455C27.3155 34.9318 27.3261 34.919 27.3356 34.9052C27.3462 34.8915 27.3568 34.8777 27.3695 34.8649C27.3812 34.8522 27.3939 34.8416 27.4067 34.83C27.4194 34.8194 27.4321 34.8077 27.4459 34.7981C27.4618 34.7865 27.4798 34.7769 27.4968 34.7674C27.5074 34.7621 27.5159 34.7547 27.5265 34.7494C27.7099 34.6624 27.8913 34.5723 28.0694 34.4768C28.3971 34.3051 28.7152 34.1216 29.0248 33.9254C29.6303 33.5458 30.2029 33.1227 30.7395 32.6625C31.2972 32.1843 31.8158 31.6657 32.293 31.1122C33.0734 30.2077 33.7404 29.2109 34.278 28.1463C35.2896 26.1485 35.8474 23.9111 35.8474 21.6015C35.8474 13.5817 29.3238 7.05713 21.3041 7.05713ZM17.7592 20.2962C17.7592 20.9345 17.3933 21.4881 16.861 21.7616C16.79 21.7988 16.7168 21.8295 16.6405 21.856V22.3576L18.0762 23.7934C18.0794 23.7976 18.0815 23.8018 18.0847 23.805C18.1059 23.8273 18.125 23.8496 18.142 23.8739C18.1515 23.8899 18.1589 23.9058 18.1674 23.9217C18.1748 23.9365 18.1844 23.9503 18.1907 23.9651C18.1982 23.9853 18.2035 24.0065 18.2098 24.0266C18.213 24.0394 18.2183 24.051 18.2204 24.0648C18.2279 24.0988 18.231 24.1348 18.231 24.1698V31.9054C18.231 32.0846 18.1399 32.2521 17.9893 32.3497C17.9023 32.4069 17.8016 32.4356 17.7008 32.4356C17.6277 32.4356 17.5545 32.4207 17.4856 32.39L14.1782 30.9203C13.9863 30.8354 13.8633 30.6456 13.8633 30.4357V26.2895L10.6089 23.0352C10.5973 23.0235 10.5888 23.0097 10.5782 22.9981C10.5665 22.9832 10.5538 22.9705 10.5432 22.9546C10.5315 22.9366 10.522 22.9175 10.5124 22.8984C10.5061 22.8867 10.4997 22.8761 10.4944 22.8634C10.4849 22.8422 10.4796 22.8189 10.4732 22.7966C10.47 22.786 10.4658 22.7754 10.4636 22.7648C10.4573 22.7298 10.453 22.6948 10.453 22.6587V19.7829C9.80408 19.5613 9.33432 18.9463 9.33432 18.2231C9.33432 17.5529 9.73621 16.975 10.3109 16.7173C10.5167 16.6251 10.7436 16.5742 10.9832 16.5742C11.892 16.5742 12.6322 17.3133 12.6322 18.2231C12.6322 18.4627 12.5813 18.6907 12.4879 18.8954C12.3024 19.31 11.9482 19.6345 11.5134 19.7829V22.4403L14.7689 25.6957C14.7795 25.7063 14.7879 25.719 14.7975 25.7307C14.8102 25.7455 14.8229 25.7593 14.8335 25.7752C14.8473 25.7954 14.8569 25.8155 14.8675 25.8367C14.8717 25.8463 14.8781 25.8558 14.8823 25.8664C14.8929 25.8919 14.9003 25.9184 14.9067 25.9438C14.9088 25.9513 14.912 25.9576 14.9131 25.965C14.9205 26.0011 14.9237 26.0372 14.9237 26.0743V30.091L17.1706 31.0899V24.3882L15.7349 22.9525C15.7349 22.9525 15.7338 22.9514 15.7338 22.9503C15.7094 22.926 15.6882 22.9005 15.6691 22.8719C15.6606 22.8591 15.6543 22.8454 15.6479 22.8316C15.6384 22.8146 15.6278 22.7987 15.6203 22.7807C15.614 22.7637 15.6097 22.7467 15.6044 22.7308C15.6002 22.7139 15.5938 22.698 15.5907 22.681C15.5843 22.6524 15.5822 22.6237 15.5811 22.5951C15.5811 22.5887 15.5801 22.5834 15.5801 22.5771V21.855C15.5005 21.8274 15.4231 21.7945 15.3489 21.7563C15.0488 21.5994 14.8028 21.3534 14.648 21.0544C14.5281 20.8274 14.4613 20.5698 14.4613 20.2962C14.4613 20.0258 14.5271 19.7702 14.6437 19.5443C14.9162 19.012 15.4708 18.6473 16.1103 18.6473C16.422 18.6473 16.7136 18.7342 16.9628 18.8848L16.9639 18.8858C17.1908 19.0237 17.3817 19.2146 17.5195 19.4415L17.5206 19.4426C17.6722 19.6917 17.7592 19.9834 17.7592 20.2962ZM28.975 26.2895V30.4357C28.975 30.5629 28.9304 30.6817 28.853 30.775C28.8011 30.8365 28.7364 30.8863 28.66 30.9203L26.8319 31.7325L25.7885 32.1959L25.3527 32.39C25.2848 32.4207 25.2106 32.4356 25.1374 32.4356C25.0367 32.4356 24.9359 32.4069 24.849 32.3497C24.6984 32.2521 24.6072 32.0846 24.6072 31.9054V24.1687C24.6072 24.1337 24.6114 24.0988 24.6178 24.0648C24.621 24.05 24.6263 24.0362 24.6305 24.0213C24.6369 24.0033 24.6411 23.9842 24.6486 23.9662C24.6549 23.9492 24.6645 23.9333 24.673 23.9174C24.6814 23.9036 24.6878 23.8888 24.6973 23.875C24.7143 23.8485 24.7345 23.8241 24.7567 23.8018C24.7588 23.7997 24.7599 23.7965 24.7631 23.7934L24.8691 23.6884L26.1989 22.3576V21.856C25.5488 21.6344 25.0801 21.0194 25.0801 20.2962C25.0801 19.9176 25.2074 19.5687 25.4227 19.2909C25.7238 18.8996 26.1978 18.6473 26.7291 18.6473C27.6378 18.6473 28.378 19.3864 28.378 20.2962C28.378 20.8274 28.1245 21.3004 27.7322 21.6005C27.5912 21.7097 27.431 21.7966 27.2593 21.855V22.5771C27.2593 22.5898 27.2561 22.6015 27.2561 22.6131C27.254 22.6365 27.2529 22.6587 27.2487 22.681C27.2455 22.7001 27.238 22.7181 27.2327 22.7361C27.2274 22.751 27.2243 22.7658 27.219 22.7796C27.2105 22.7998 27.1999 22.8178 27.1893 22.8358C27.1829 22.8475 27.1776 22.8602 27.1702 22.8719C27.15 22.9005 27.1288 22.9281 27.1034 22.9525L25.6676 24.3882V31.0899L26.0292 30.9298L27.9146 30.091V26.0743C27.9146 26.0372 27.9178 26.0011 27.9252 25.965C27.9273 25.9576 27.9305 25.9502 27.9326 25.9428C27.939 25.9173 27.9453 25.8919 27.9559 25.8664C27.9602 25.8558 27.9676 25.8452 27.9729 25.8346C27.9824 25.8145 27.992 25.7943 28.0047 25.7752C28.0174 25.7572 28.0323 25.7402 28.0471 25.7233C28.0556 25.7148 28.0609 25.7042 28.0694 25.6957L29.9484 23.8167L31.3248 22.4414V19.7819C30.6758 19.5613 30.2072 18.9463 30.2072 18.2231C30.2072 17.3133 30.9462 16.5742 31.855 16.5742C32.7648 16.5742 33.5039 17.3133 33.5039 18.2231C33.5039 18.9463 33.0352 19.5613 32.3852 19.7829V22.6566C32.3852 22.6937 32.382 22.7298 32.3746 22.7658C32.3735 22.7711 32.3714 22.7764 32.3693 22.7828C32.3629 22.8104 32.3555 22.8379 32.3439 22.8644C32.3407 22.8729 32.3354 22.8804 32.3322 22.8878C32.3205 22.9111 32.3099 22.9344 32.2951 22.9556C32.2898 22.9641 32.2823 22.9715 32.276 22.979C32.2611 22.9981 32.2474 23.0182 32.2304 23.0352L30.6981 24.5664L28.975 26.2895ZM15.3489 21.7563L15.5801 21.9864V21.855C15.5005 21.8274 15.4231 21.7945 15.3489 21.7563ZM11.5134 21.7945V22.4403L14.7689 25.6957C14.7795 25.7063 14.7879 25.719 14.7975 25.7307C14.8102 25.7455 14.8229 25.7593 14.8335 25.7752C14.8473 25.7954 14.8569 25.8155 14.8675 25.8367C14.8717 25.8463 14.8781 25.8558 14.8823 25.8664C14.8929 25.8919 14.9003 25.9184 14.9067 25.9438C14.9088 25.9513 14.912 25.9576 14.9131 25.965C14.9205 26.0011 14.9237 26.0372 14.9237 26.0743V30.091L17.1706 31.0899V27.4517L11.5134 21.7945ZM25.6676 24.4869V31.0899L26.0292 30.9298L27.9146 30.091V26.7338L25.6676 24.4869ZM15.3489 21.7563L15.5801 21.9864V21.855C15.5005 21.8274 15.4231 21.7945 15.3489 21.7563ZM11.5134 21.7945V22.4403L14.7689 25.6957C14.7795 25.7063 14.7879 25.719 14.7975 25.7307C14.8102 25.7455 14.8229 25.7593 14.8335 25.7752C14.8473 25.7954 14.8569 25.8155 14.8675 25.8367C14.8717 25.8463 14.8781 25.8558 14.8823 25.8664C14.8929 25.8919 14.9003 25.9184 14.9067 25.9438C14.9088 25.9513 14.912 25.9576 14.9131 25.965C14.9205 26.0011 14.9237 26.0372 14.9237 26.0743V30.091L17.1706 31.0899V27.4517L11.5134 21.7945ZM25.6676 30.5682V31.0899L26.0292 30.9298L25.6676 30.5682ZM15.3489 21.7563L15.5801 21.9864V21.855C15.5005 21.8274 15.4231 21.7945 15.3489 21.7563ZM11.5134 21.7945V22.4403L14.7689 25.6957C14.7795 25.7063 14.7879 25.719 14.7975 25.7307C14.8102 25.7455 14.8229 25.7593 14.8335 25.7752C14.8473 25.7954 14.8569 25.8155 14.8675 25.8367C14.8717 25.8463 14.8781 25.8558 14.8823 25.8664C14.8929 25.8919 14.9003 25.9184 14.9067 25.9438C14.9088 25.9513 14.912 25.9576 14.9131 25.965C14.9205 26.0011 14.9237 26.0372 14.9237 26.0743V30.091L17.1706 31.0899V27.4517L11.5134 21.7945ZM25.6676 30.5682V31.0899L26.0292 30.9298L25.6676 30.5682ZM15.3489 21.7563L15.5801 21.9864V21.855C15.5005 21.8274 15.4231 21.7945 15.3489 21.7563ZM25.6676 30.5682V31.0899L26.0292 30.9298L25.6676 30.5682ZM25.6676 30.5682V31.0899L26.0292 30.9298L25.6676 30.5682ZM25.6676 30.5682V31.0899L26.0292 30.9298L25.6676 30.5682Z" fill="#F9C139"/>
<path opacity="0.2" d="M17.0731 35.1364C17.0699 35.1184 17.0646 35.1004 17.0593 35.0834C17.0551 35.0685 17.0508 35.0537 17.0455 35.0389C17.0392 35.0208 17.0307 35.0039 17.0211 34.988C17.0148 34.9742 17.0073 34.9604 16.9999 34.9466C16.9904 34.9318 16.9787 34.918 16.9681 34.9031C16.9575 34.8904 16.948 34.8777 16.9363 34.866C16.9246 34.8522 16.9098 34.8406 16.896 34.8289C16.8843 34.8183 16.8727 34.8077 16.86 34.7981C16.843 34.7865 16.825 34.7769 16.8059 34.7663C16.7974 34.761 16.7889 34.7547 16.7794 34.7494C11.7234 32.3529 8.45738 27.1919 8.45738 21.6015C8.45738 13.867 14.5271 7.52264 22.1524 7.08152C21.8714 7.06561 21.5883 7.05713 21.3041 7.05713C13.2854 7.05713 6.76074 13.5817 6.76074 21.6015C6.76074 27.1919 10.0268 32.3529 15.0827 34.7494C15.0923 34.7547 15.1008 34.761 15.1092 34.7663C15.1283 34.7769 15.1464 34.7865 15.1633 34.7981C15.176 34.8077 15.1877 34.8183 15.1994 34.8289C15.2132 34.8406 15.228 34.8522 15.2397 34.866C15.2513 34.8777 15.2609 34.8904 15.2715 34.9031C15.2821 34.918 15.2937 34.9318 15.3033 34.9466C15.3107 34.9604 15.3181 34.9742 15.3245 34.988C15.334 35.0039 15.3425 35.0208 15.3489 35.0389C15.3542 35.0537 15.3584 35.0685 15.3627 35.0834C15.368 35.1004 15.3733 35.1184 15.3765 35.1364C15.3796 35.1544 15.3807 35.1725 15.3818 35.1905C15.3828 35.2032 15.386 35.2159 15.386 35.2287V36.6029H17.0826V35.2287C17.0826 35.2159 17.0795 35.2032 17.0784 35.1905C17.0773 35.1725 17.0763 35.1544 17.0731 35.1364Z" fill="black"/>
<path d="M19.3508 40.5182C19.3508 40.8108 19.5873 41.0484 19.881 41.0484H27.2232V43.184H19.881C19.5873 43.184 19.3508 43.4215 19.3508 43.7142C19.3508 44.0079 19.5873 44.2444 19.881 44.2444H27.2232V46.449H24.4502C24.4492 46.449 24.4471 46.4479 24.446 46.4479C24.4449 46.4479 24.4428 46.449 24.4418 46.449H18.1674C18.1663 46.449 18.1653 46.4479 18.1632 46.4479C18.1621 46.4479 18.161 46.449 18.1589 46.449H15.386V37.6636H27.2232V39.988H19.881C19.5873 39.988 19.3508 40.2255 19.3508 40.5182Z" fill="#E1E1E5"/>
<path d="M21.3046 3.43727C21.5975 3.43727 21.8348 3.19985 21.8348 2.90708V0.530198C21.8348 0.237423 21.5975 0 21.3046 0C21.0118 0 20.7744 0.237423 20.7744 0.530198V2.90708C20.7744 3.19985 21.0118 3.43727 21.3046 3.43727Z" fill="white"/>
<path d="M11.6468 5.63676C11.7449 5.80685 11.9231 5.90197 12.1064 5.90197C12.1964 5.90197 12.2876 5.87906 12.371 5.83081C12.6245 5.68448 12.7115 5.36021 12.5651 5.10656L11.3769 3.04834C11.2305 2.7948 10.9065 2.70795 10.6526 2.85428C10.3991 3.00062 10.3121 3.32489 10.4586 3.57853L11.6468 5.63676Z" fill="white"/>
<path d="M3.04912 11.3761L5.10734 12.5646C5.1909 12.6129 5.28199 12.6358 5.37202 12.6358C5.55526 12.6358 5.73351 12.5407 5.8317 12.3707C5.97814 12.117 5.89129 11.7928 5.63765 11.6463L3.57942 10.4578C3.32567 10.3114 3.0015 10.3984 2.85506 10.6519C2.70862 10.9054 2.79558 11.2297 3.04912 11.3761Z" fill="white"/>
<path d="M3.43748 21.3046C3.43748 21.0118 3.20006 20.7744 2.90729 20.7744H0.530198C0.237423 20.7744 0 21.0118 0 21.3046C0 21.5974 0.237423 21.8348 0.530198 21.8348H2.90729C3.20006 21.8348 3.43748 21.5974 3.43748 21.3046Z" fill="white"/>
<path d="M5.10732 30.0442L3.04835 31.2319C2.79471 31.3782 2.70765 31.7025 2.85398 31.956C2.95217 32.1262 3.13043 32.2214 3.31377 32.2214C3.40359 32.2214 3.49478 32.1985 3.57823 32.1504L5.6372 30.9627C5.89085 30.8164 5.97791 30.4921 5.83157 30.2386C5.68535 29.9849 5.36097 29.8978 5.10732 30.0442Z" fill="white"/>
<path d="M39.56 31.2324L37.5018 30.0445C37.248 29.8976 36.924 29.985 36.7777 30.2386C36.6312 30.4923 36.7182 30.8164 36.9718 30.9628L39.0301 32.1507C39.1135 32.199 39.2046 32.2219 39.2945 32.2219C39.4779 32.2219 39.656 32.1268 39.7542 31.9566C39.9006 31.703 39.8137 31.3788 39.56 31.2324Z" fill="white"/>
<path d="M42.0782 20.7754H39.7021C39.4092 20.7754 39.1719 21.0128 39.1719 21.3056C39.1719 21.5984 39.4092 21.8358 39.7021 21.8358H42.0782C42.3711 21.8358 42.6084 21.5984 42.6084 21.3056C42.6084 21.0128 42.3711 20.7754 42.0782 20.7754Z" fill="white"/>
<path d="M37.2376 12.636C37.3275 12.636 37.4187 12.6131 37.5022 12.5649L39.5601 11.3767C39.8137 11.2303 39.9006 10.9061 39.7542 10.6525C39.6077 10.3988 39.2835 10.3119 39.0299 10.4584L36.972 11.6466C36.7183 11.793 36.6315 12.1172 36.7779 12.3708C36.8761 12.5409 37.0543 12.636 37.2376 12.636Z" fill="white"/>
<path d="M30.238 5.83098C30.3216 5.87922 30.4126 5.90213 30.5027 5.90213C30.6859 5.90213 30.8641 5.80712 30.9624 5.63703L32.151 3.57923C32.2974 3.32569 32.2105 3.00142 31.957 2.85487C31.7034 2.70843 31.3792 2.79517 31.2327 3.04882L30.0441 5.10662C29.8976 5.36016 29.9845 5.68443 30.238 5.83098Z" fill="white"/>
<path d="M31.8552 16.5742C30.9465 16.5742 30.2074 17.3133 30.2074 18.2231C30.2074 18.9463 30.6761 19.5614 31.325 19.7819V22.4414L28.0696 25.6957C28.0611 25.7042 28.0558 25.7148 28.0473 25.7233C28.0325 25.7403 28.0177 25.7572 28.0049 25.7753C27.9922 25.7944 27.9827 25.8145 27.9731 25.8347C27.9678 25.8453 27.9604 25.8559 27.9562 25.8665C27.9455 25.8919 27.9392 25.9174 27.9328 25.9428C27.9307 25.9502 27.9275 25.9577 27.9254 25.9651C27.918 26.0011 27.9148 26.0372 27.9148 26.0743V30.0911L25.6678 31.09V24.3883L27.1036 22.9525C27.129 22.9281 27.1502 22.9005 27.1704 22.8719C27.1778 22.8602 27.1831 22.8475 27.1895 22.8359C27.2001 22.8178 27.2107 22.7998 27.2192 22.7797C27.2245 22.7659 27.2277 22.751 27.233 22.7362C27.2383 22.7182 27.2457 22.7001 27.2489 22.681C27.2531 22.6588 27.2542 22.6365 27.2563 22.6132C27.2563 22.6015 27.2595 22.5898 27.2595 22.5771V21.855C27.9084 21.6344 28.3782 21.0194 28.3782 20.2962C28.3782 19.3864 27.638 18.6473 26.7293 18.6473C25.8195 18.6473 25.0804 19.3864 25.0804 20.2962C25.0804 21.0194 25.5491 21.6344 26.1991 21.8561V22.3576L24.7633 23.7934C24.7601 23.7966 24.7591 23.7998 24.7569 23.8019C24.7347 23.8241 24.7145 23.8485 24.6976 23.875C24.688 23.8888 24.6816 23.9037 24.6732 23.9175C24.6647 23.9334 24.6551 23.9493 24.6488 23.9662C24.6414 23.9843 24.6371 24.0034 24.6308 24.0214C24.6265 24.0362 24.6212 24.05 24.618 24.0649C24.6117 24.0988 24.6074 24.1338 24.6074 24.1688V31.9054C24.6074 32.0846 24.6986 32.2522 24.8492 32.3497C24.9361 32.407 25.0369 32.4356 25.1376 32.4356C25.2108 32.4356 25.285 32.4208 25.3529 32.39L28.6603 30.9203C28.8522 30.8355 28.9752 30.6457 28.9752 30.4357V26.2896L32.2306 23.0352C32.2476 23.0182 32.2614 22.9981 32.2762 22.979C32.2826 22.9716 32.29 22.9642 32.2953 22.9557C32.3101 22.9345 32.3207 22.9111 32.3324 22.8878C32.3356 22.8804 32.3409 22.873 32.3441 22.8645C32.3557 22.838 32.3632 22.8104 32.3695 22.7828C32.3716 22.7765 32.3738 22.7712 32.3748 22.7659C32.3822 22.7298 32.3854 22.6938 32.3854 22.6566V19.783C33.0354 19.5614 33.5041 18.9463 33.5041 18.2231C33.5041 17.3133 32.765 16.5742 31.8552 16.5742ZM26.1408 20.2962C26.1408 19.9717 26.4048 19.7077 26.7293 19.7077C27.0538 19.7077 27.3178 19.9717 27.3178 20.2962C27.3178 20.6207 27.0538 20.8847 26.7293 20.8847C26.4048 20.8847 26.1408 20.6207 26.1408 20.2962ZM31.8552 18.8117C31.5318 18.8117 31.2678 18.5476 31.2678 18.2231C31.2678 17.8987 31.5318 17.6346 31.8552 17.6346C32.1797 17.6346 32.4437 17.8987 32.4437 18.2231C32.4437 18.5476 32.1797 18.8117 31.8552 18.8117Z" fill="white"/>
<path d="M32.4436 18.2233C32.4436 18.5478 32.1795 18.8118 31.855 18.8118C31.5316 18.8118 31.2676 18.5478 31.2676 18.2233C31.2676 17.8988 31.5316 17.6348 31.855 17.6348C32.1795 17.6348 32.4436 17.8988 32.4436 18.2233Z" fill="#E1E1E5"/>
<path d="M27.3177 20.2965C27.3177 20.621 27.0536 20.885 26.7291 20.885C26.4047 20.885 26.1406 20.621 26.1406 20.2965C26.1406 19.972 26.4047 19.708 26.7291 19.708C27.0536 19.708 27.3177 19.972 27.3177 20.2965Z" fill="#E1E1E5"/>
<path d="M18.2206 24.0649C18.2185 24.0511 18.2132 24.0394 18.21 24.0267C18.2036 24.0065 18.1983 23.9853 18.1909 23.9652C18.1845 23.9503 18.175 23.9365 18.1676 23.9217C18.1591 23.9058 18.1517 23.8899 18.1421 23.874C18.1252 23.8496 18.1061 23.8273 18.0849 23.8051C18.0817 23.8019 18.0796 23.7976 18.0764 23.7934L16.6406 22.3576V21.8561C17.2896 21.6344 17.7593 21.0194 17.7593 20.2962C17.7593 19.3864 17.0192 18.6473 16.1104 18.6473C15.2006 18.6473 14.4615 19.3864 14.4615 20.2962C14.4615 21.0194 14.9302 21.6344 15.5802 21.855V22.5771C15.5802 22.5835 15.5813 22.5888 15.5813 22.5951C15.5823 22.6238 15.5844 22.6524 15.5908 22.681C15.594 22.698 15.6004 22.7139 15.6046 22.7309C15.6099 22.7468 15.6141 22.7637 15.6205 22.7807C15.6279 22.7987 15.6385 22.8146 15.6481 22.8316C15.6544 22.8454 15.6608 22.8592 15.6693 22.8719C15.6884 22.9005 15.7096 22.926 15.734 22.9504C15.734 22.9514 15.735 22.9525 15.735 22.9525L17.1708 24.3883V31.09L14.9238 30.0911V26.0743C14.9238 26.0372 14.9206 26.0011 14.9132 25.9651C14.9122 25.9577 14.909 25.9513 14.9069 25.9439C14.9005 25.9184 14.8931 25.8919 14.8825 25.8665C14.8782 25.8559 14.8719 25.8463 14.8676 25.8368C14.857 25.8156 14.8475 25.7954 14.8337 25.7753C14.8231 25.7594 14.8104 25.7456 14.7976 25.7307C14.7881 25.7191 14.7796 25.7063 14.769 25.6957L11.5136 22.4403V19.783C12.1636 19.5614 12.6323 18.9463 12.6323 18.2231C12.6323 17.3133 11.8921 16.5742 10.9834 16.5742C10.0746 16.5742 9.33447 17.3133 9.33447 18.2231C9.33447 18.9463 9.80423 19.5614 10.4532 19.783V22.6588C10.4532 22.6948 10.4574 22.7298 10.4638 22.7648C10.4659 22.7754 10.4702 22.786 10.4733 22.7966C10.4797 22.8189 10.485 22.8422 10.4945 22.8634C10.4998 22.8762 10.5062 22.8868 10.5126 22.8984C10.5221 22.9175 10.5317 22.9366 10.5433 22.9546C10.5539 22.9705 10.5667 22.9833 10.5783 22.9981C10.5889 23.0098 10.5974 23.0235 10.6091 23.0352L13.8634 26.2896V30.4357C13.8634 30.6457 13.9864 30.8355 14.1784 30.9203L17.4857 32.39C17.5547 32.4208 17.6278 32.4356 17.701 32.4356C17.8017 32.4356 17.9025 32.407 17.9894 32.3497C18.14 32.2522 18.2312 32.0846 18.2312 31.9054V24.1698C18.2312 24.1348 18.228 24.0988 18.2206 24.0649ZM16.1104 20.8847C15.7859 20.8847 15.5219 20.6207 15.5219 20.2962C15.5219 19.9717 15.7859 19.7077 16.1104 19.7077C16.4349 19.7077 16.6989 19.9717 16.6989 20.2962C16.6989 20.6207 16.4349 20.8847 16.1104 20.8847ZM10.9834 18.8117C10.6589 18.8117 10.3949 18.5476 10.3949 18.2231C10.3949 17.8987 10.6589 17.6346 10.9834 17.6346C11.3079 17.6346 11.5719 17.8987 11.5719 18.2231C11.5719 18.5476 11.3079 18.8117 10.9834 18.8117Z" fill="white"/>
<path d="M16.6988 20.2965C16.6988 20.621 16.4347 20.885 16.1102 20.885C15.7858 20.885 15.5217 20.621 15.5217 20.2965C15.5217 19.972 15.7858 19.708 16.1102 19.708C16.4347 19.708 16.6988 19.972 16.6988 20.2965Z" fill="#E1E1E5"/>
<path d="M11.5718 18.2233C11.5718 18.5478 11.3078 18.8118 10.9833 18.8118C10.6588 18.8118 10.3948 18.5478 10.3948 18.2233C10.3948 17.8988 10.6588 17.6348 10.9833 17.6348C11.3078 17.6348 11.5718 17.8988 11.5718 18.2233Z" fill="#E1E1E5"/>
<path opacity="0.2" d="M17.1155 37.6636H15.386V46.449H17.1155V37.6636Z" fill="black"/>
<g opacity="0.4">
<path d="M10.453 19.7831V20.7343L7.31958 17.6008C7.59634 16.6348 7.97066 15.7101 8.43088 14.8374L10.311 16.7175C9.73622 16.9752 9.33433 17.5531 9.33433 18.2232C9.33433 18.9464 9.80409 19.5615 10.453 19.7831Z" fill="white"/>
<path d="M15.7349 22.9526L17.1706 24.3884V27.4518L11.5134 21.7946V19.7831C11.9482 19.6346 12.3024 19.3101 12.4879 18.8955L14.648 21.0545L15.3489 21.7565L15.58 21.9866V22.5772C15.58 22.5836 15.5811 22.5889 15.5811 22.5952C15.5822 22.6239 15.5843 22.6525 15.5906 22.6811C15.5938 22.6981 15.6002 22.714 15.6044 22.731C15.6097 22.7469 15.614 22.7638 15.6203 22.7808C15.6278 22.7988 15.6384 22.8147 15.6479 22.8317C15.6543 22.8455 15.6606 22.8593 15.6691 22.872C15.6882 22.9006 15.7094 22.9261 15.7338 22.9505C15.7338 22.9515 15.7349 22.9526 15.7349 22.9526Z" fill="white"/>
<path d="M18.2312 24.6377L20.8886 27.2961V31.1697L18.2312 28.5124V24.6377Z" fill="white"/>
<path d="M28.0696 34.4771C27.8914 34.5725 27.7101 34.6626 27.5267 34.7496C27.5161 34.7549 27.5076 34.7623 27.497 34.7676C27.48 34.7771 27.462 34.7867 27.4461 34.7983C27.4323 34.8079 27.4196 34.8196 27.4068 34.8302C27.3941 34.8418 27.3814 34.8524 27.3697 34.8652C27.357 34.8779 27.3464 34.8917 27.3358 34.9055C27.3262 34.9192 27.3156 34.932 27.3072 34.9457C27.2976 34.9606 27.2902 34.9754 27.2828 34.9903C27.2743 35.0062 27.2669 35.021 27.2605 35.038C27.2541 35.0539 27.2499 35.0698 27.2456 35.0868C27.2403 35.1027 27.2361 35.1186 27.2329 35.1356C27.2297 35.1546 27.2287 35.1748 27.2266 35.1949C27.2266 35.2066 27.2234 35.2172 27.2234 35.2289V36.6031H26.322L21.949 32.2301V28.3564L24.6074 31.0149V31.9056C24.6074 32.0848 24.6986 32.2523 24.8492 32.3499C24.9361 32.4072 25.0368 32.4358 25.1376 32.4358C25.2108 32.4358 25.285 32.4209 25.3528 32.3902L25.7887 32.1961L28.0696 34.4771Z" fill="white"/>
<path d="M16.963 18.8851C16.7138 18.7345 16.4222 18.6476 16.1104 18.6476C15.471 18.6476 14.9164 19.0123 14.6439 19.5447L8.98242 13.8832C9.36098 13.2798 9.78408 12.7062 10.2443 12.1675L16.963 18.8851Z" fill="white"/>
<path d="M20.8885 25.2846V25.7893L16.8611 21.762C17.3934 21.4884 17.7592 20.9348 17.7592 20.2965C17.7592 19.9837 17.6723 19.6921 17.5207 19.4429L20.4611 22.3844C20.0433 22.6834 19.7708 23.1733 19.7708 23.7247C19.7708 24.4479 20.2395 25.063 20.8885 25.2846Z" fill="white"/>
<path d="M22.7602 24.6821L24.6074 26.5293V29.508L21.949 26.8496V25.2844C22.2777 25.172 22.5608 24.9589 22.7602 24.6821Z" fill="white"/>
<path d="M27.9147 30.0913L26.0293 30.9301L25.6677 30.5685V27.5898L27.9147 29.8368V30.0913Z" fill="white"/>
<path d="M30.7396 32.6629C30.203 33.1231 29.6304 33.5462 29.0249 33.9258L26.832 31.7329L28.6602 30.9207C28.7365 30.8867 28.8012 30.8369 28.8531 30.7754L30.7396 32.6629Z" fill="white"/>
<path d="M26.1989 22.3576L24.8692 23.6884L11.7903 10.6095C12.6874 9.83223 13.681 9.161 14.7509 8.61914L25.4227 19.291C25.2075 19.5688 25.0802 19.9177 25.0802 20.2962C25.0802 21.0194 25.5489 21.6344 26.1989 21.8561V22.3576Z" fill="white"/>
<path d="M29.9485 23.8168L28.0695 25.6958C28.061 25.7043 28.0557 25.7149 28.0473 25.7234C28.0324 25.7404 28.0176 25.7573 28.0048 25.7754C27.9921 25.7945 27.9826 25.8146 27.973 25.8347C27.9677 25.8454 27.9603 25.856 27.9561 25.8666C27.9455 25.892 27.9391 25.9175 27.9327 25.9429C27.9306 25.9503 27.9274 25.9578 27.9253 25.9652C27.9179 26.0012 27.9147 26.0373 27.9147 26.0744V26.734L25.6677 24.487V24.3884L27.1035 22.9526C27.1289 22.9282 27.1502 22.9006 27.1703 22.872C27.1777 22.8603 27.183 22.8476 27.1894 22.8359C27.2 22.8179 27.2106 22.7999 27.2191 22.7797C27.2244 22.766 27.2276 22.7511 27.2329 22.7363C27.2382 22.7182 27.2456 22.7002 27.2488 22.6811C27.253 22.6589 27.2541 22.6366 27.2562 22.6133C27.2562 22.6016 27.2594 22.5899 27.2594 22.5772V21.8551C27.4312 21.7968 27.5913 21.7098 27.7323 21.6006L29.9485 23.8168Z" fill="white"/>
<path d="M34.2781 28.1463C33.7405 29.2109 33.0735 30.2077 32.2931 31.1122L28.9751 27.7943V26.2895L30.6982 24.5664L34.2781 28.1463Z" fill="white"/>
</g>
<path d="M34.789 22.0755C34.4961 22.0755 34.2588 21.8381 34.2588 21.5453C34.2588 14.4659 28.4993 8.70639 21.4198 8.70639C21.1271 8.70639 20.8896 8.46897 20.8896 8.17619C20.8896 7.88342 21.1271 7.646 21.4198 7.646C29.084 7.646 35.3192 13.8812 35.3192 21.5453C35.3192 21.8381 35.0819 22.0755 34.789 22.0755Z" fill="white"/>
</svg>
