<svg width="57" height="50" viewBox="0 0 57 50" fill="none" xmlns="http://www.w3.org/2000/svg">
<path d="M24.1329 4.80867C21.169 4.80867 18.7569 7.22075 18.7569 10.1858C18.7569 13.1497 21.169 15.5618 24.1329 15.5618C27.098 15.5618 29.5101 13.1497 29.5101 10.1858C29.5101 7.22075 27.098 4.80867 24.1329 4.80867ZM24.1329 13.7945C22.1433 13.7945 20.5253 12.1754 20.5253 10.1858C20.5253 8.1962 22.1433 6.57709 24.1329 6.57709C26.1225 6.57709 27.7417 8.1962 27.7417 10.1858C27.7417 12.1754 26.1225 13.7945 24.1329 13.7945ZM24.1329 4.80867C21.169 4.80867 18.7569 7.22075 18.7569 10.1858C18.7569 13.1497 21.169 15.5618 24.1329 15.5618C27.098 15.5618 29.5101 13.1497 29.5101 10.1858C29.5101 7.22075 27.098 4.80867 24.1329 4.80867ZM24.1329 13.7945C22.1433 13.7945 20.5253 12.1754 20.5253 10.1858C20.5253 8.1962 22.1433 6.57709 24.1329 6.57709C26.1225 6.57709 27.7417 8.1962 27.7417 10.1858C27.7417 12.1754 26.1225 13.7945 24.1329 13.7945ZM24.1329 4.80867C21.169 4.80867 18.7569 7.22075 18.7569 10.1858C18.7569 13.1497 21.169 15.5618 24.1329 15.5618C27.098 15.5618 29.5101 13.1497 29.5101 10.1858C29.5101 7.22075 27.098 4.80867 24.1329 4.80867ZM24.1329 13.7945C22.1433 13.7945 20.5253 12.1754 20.5253 10.1858C20.5253 8.1962 22.1433 6.57709 24.1329 6.57709C26.1225 6.57709 27.7417 8.1962 27.7417 10.1858C27.7417 12.1754 26.1225 13.7945 24.1329 13.7945ZM24.1329 4.80867C21.169 4.80867 18.7569 7.22075 18.7569 10.1858C18.7569 13.1497 21.169 15.5618 24.1329 15.5618C27.098 15.5618 29.5101 13.1497 29.5101 10.1858C29.5101 7.22075 27.098 4.80867 24.1329 4.80867ZM24.1329 13.7945C22.1433 13.7945 20.5253 12.1754 20.5253 10.1858C20.5253 8.1962 22.1433 6.57709 24.1329 6.57709C26.1225 6.57709 27.7417 8.1962 27.7417 10.1858C27.7417 12.1754 26.1225 13.7945 24.1329 13.7945ZM24.1329 4.80867C21.169 4.80867 18.7569 7.22075 18.7569 10.1858C18.7569 13.1497 21.169 15.5618 24.1329 15.5618C27.098 15.5618 29.5101 13.1497 29.5101 10.1858C29.5101 7.22075 27.098 4.80867 24.1329 4.80867ZM24.1329 13.7945C22.1433 13.7945 20.5253 12.1754 20.5253 10.1858C20.5253 8.1962 22.1433 6.57709 24.1329 6.57709C26.1225 6.57709 27.7417 8.1962 27.7417 10.1858C27.7417 12.1754 26.1225 13.7945 24.1329 13.7945ZM24.1329 4.80867C21.169 4.80867 18.7569 7.22075 18.7569 10.1858C18.7569 13.1497 21.169 15.5618 24.1329 15.5618C27.098 15.5618 29.5101 13.1497 29.5101 10.1858C29.5101 7.22075 27.098 4.80867 24.1329 4.80867ZM24.1329 13.7945C22.1433 13.7945 20.5253 12.1754 20.5253 10.1858C20.5253 8.1962 22.1433 6.57709 24.1329 6.57709C26.1225 6.57709 27.7417 8.1962 27.7417 10.1858C27.7417 12.1754 26.1225 13.7945 24.1329 13.7945ZM24.1329 4.80867C21.169 4.80867 18.7569 7.22075 18.7569 10.1858C18.7569 13.1497 21.169 15.5618 24.1329 15.5618C27.098 15.5618 29.5101 13.1497 29.5101 10.1858C29.5101 7.22075 27.098 4.80867 24.1329 4.80867ZM24.1329 13.7945C22.1433 13.7945 20.5253 12.1754 20.5253 10.1858C20.5253 8.1962 22.1433 6.57709 24.1329 6.57709C26.1225 6.57709 27.7417 8.1962 27.7417 10.1858C27.7417 12.1754 26.1225 13.7945 24.1329 13.7945ZM56.5306 4.63282C56.3294 3.88299 55.8151 3.22163 55.1194 2.82128L52.6211 1.37912C51.9266 0.97766 51.0971 0.861535 50.3473 1.06282C49.9635 1.16567 49.6196 1.34705 49.3298 1.58814C48.6563 0.621544 47.5371 0 46.2785 0H10.0254C7.9739 0 6.30502 1.66998 6.30502 3.72152V6.30723H3.72152C1.66998 6.30723 0 7.97611 0 10.0254V46.2785C0 48.33 1.66998 50 3.72152 50H39.9712C42.0228 50 43.6928 48.33 43.6928 46.2785V43.695H46.2785C48.3289 43.695 49.9967 42.0261 49.9967 39.9746V17.5028L56.2862 6.60916C56.6269 6.01969 56.7142 5.31741 56.5306 4.63282ZM49.7611 7.4541L37.4574 28.7635L35.9898 27.9153L48.2924 6.60584L49.7611 7.4541ZM38.8841 31.6291L36.0352 32.9938L35.7919 29.843L38.8841 31.6291ZM8.07233 3.72152C8.07233 2.64433 8.94935 1.76841 10.0254 1.76841H46.2785C47.1809 1.76841 47.9673 2.41208 48.1752 3.27251L47.2042 4.95355C47.2042 4.95466 47.2031 4.95576 47.2031 4.95687C47.202 4.95797 47.202 4.95908 47.2008 4.96019L40.5585 16.4665C39.6406 16.0042 38.5988 15.7631 37.4939 15.7631C35.1836 15.7631 33.1885 16.8104 32.0184 18.6386L26.3448 27.5227L23.8 23.4627C22.7472 21.785 20.9179 20.8228 18.7812 20.8228C16.6656 20.8228 14.8374 21.7828 13.7669 23.4572L8.07233 32.3734V3.72152ZM8.07233 35.6591L15.2566 24.4083C15.9954 23.2537 17.2805 22.5912 18.7812 22.5912C20.2964 22.5912 21.5804 23.2515 22.3026 24.4017L33.2825 41.9277H10.0254C8.94935 41.9277 8.07233 41.0507 8.07233 39.9746V35.6591ZM41.9244 46.2785C41.9244 47.3557 41.0484 48.2316 39.9712 48.2316H3.72152C2.64433 48.2316 1.76841 47.3557 1.76841 46.2785V10.0254C1.76841 8.95045 2.64433 8.07565 3.72152 8.07565H6.30502V39.9746C6.30502 42.0261 7.9739 43.695 10.0254 43.695H34.8795L34.8806 43.6961C34.8817 43.6961 34.8817 43.695 34.8828 43.695H41.9244V46.2785ZM48.2283 39.9746C48.2283 41.0507 47.3535 41.9277 46.2785 41.9277H35.3694L27.3833 29.1816L33.5081 19.5908C34.3464 18.2814 35.7985 17.5315 37.4939 17.5315C38.2825 17.5315 39.0223 17.693 39.6726 18.0016L34.0677 27.7096C33.9494 27.9142 33.8952 28.1409 33.9062 28.3831C33.9062 28.3931 33.9073 28.4019 33.9073 28.4119L34.3243 33.8133C34.3254 33.8177 34.3254 33.8233 34.3254 33.8288C34.3652 34.2457 34.5997 34.6096 34.9668 34.8264C34.9746 34.8308 34.9823 34.8352 34.9901 34.8396C35.1935 34.9513 35.4136 35.0077 35.6326 35.0077C35.8195 35.0077 36.0053 34.9668 36.1801 34.8839L41.0639 32.5459C41.2873 32.4386 41.4709 32.2694 41.5959 32.0549L45.3174 25.6083L48.2283 30.1659V39.9746ZM48.2283 26.8812L46.3139 23.883L48.2283 20.5662V26.8812ZM48.3532 16.8127C48.3455 16.8259 48.3378 16.8392 48.3311 16.8525L44.5344 23.4284C44.52 23.4517 44.5068 23.4749 44.4946 23.4981L40.4557 30.4944L38.9892 29.6472L51.2929 8.33776L52.7582 9.18381L48.3532 16.8127ZM54.7545 5.7244L53.6419 7.65207L49.1761 5.0752L50.2898 3.14643C50.4236 2.91418 50.6437 2.81464 50.8051 2.7704C51.1048 2.68967 51.4444 2.74054 51.7363 2.90975L54.2358 4.35191C54.5278 4.52112 54.7423 4.78987 54.8231 5.09069C54.8662 5.25216 54.8894 5.49215 54.7545 5.7244ZM24.1329 15.5618C27.098 15.5618 29.5101 13.1497 29.5101 10.1858C29.5101 7.22075 27.098 4.80867 24.1329 4.80867C21.169 4.80867 18.7569 7.22075 18.7569 10.1858C18.7569 13.1497 21.169 15.5618 24.1329 15.5618ZM24.1329 6.57709C26.1225 6.57709 27.7417 8.1962 27.7417 10.1858C27.7417 12.1754 26.1225 13.7945 24.1329 13.7945C22.1433 13.7945 20.5253 12.1754 20.5253 10.1858C20.5253 8.1962 22.1433 6.57709 24.1329 6.57709ZM24.1329 4.80867C21.169 4.80867 18.7569 7.22075 18.7569 10.1858C18.7569 13.1497 21.169 15.5618 24.1329 15.5618C27.098 15.5618 29.5101 13.1497 29.5101 10.1858C29.5101 7.22075 27.098 4.80867 24.1329 4.80867ZM24.1329 13.7945C22.1433 13.7945 20.5253 12.1754 20.5253 10.1858C20.5253 8.1962 22.1433 6.57709 24.1329 6.57709C26.1225 6.57709 27.7417 8.1962 27.7417 10.1858C27.7417 12.1754 26.1225 13.7945 24.1329 13.7945ZM24.1329 4.80867C21.169 4.80867 18.7569 7.22075 18.7569 10.1858C18.7569 13.1497 21.169 15.5618 24.1329 15.5618C27.098 15.5618 29.5101 13.1497 29.5101 10.1858C29.5101 7.22075 27.098 4.80867 24.1329 4.80867ZM24.1329 13.7945C22.1433 13.7945 20.5253 12.1754 20.5253 10.1858C20.5253 8.1962 22.1433 6.57709 24.1329 6.57709C26.1225 6.57709 27.7417 8.1962 27.7417 10.1858C27.7417 12.1754 26.1225 13.7945 24.1329 13.7945ZM24.1329 4.80867C21.169 4.80867 18.7569 7.22075 18.7569 10.1858C18.7569 13.1497 21.169 15.5618 24.1329 15.5618C27.098 15.5618 29.5101 13.1497 29.5101 10.1858C29.5101 7.22075 27.098 4.80867 24.1329 4.80867ZM24.1329 13.7945C22.1433 13.7945 20.5253 12.1754 20.5253 10.1858C20.5253 8.1962 22.1433 6.57709 24.1329 6.57709C26.1225 6.57709 27.7417 8.1962 27.7417 10.1858C27.7417 12.1754 26.1225 13.7945 24.1329 13.7945ZM24.1329 4.80867C21.169 4.80867 18.7569 7.22075 18.7569 10.1858C18.7569 13.1497 21.169 15.5618 24.1329 15.5618C27.098 15.5618 29.5101 13.1497 29.5101 10.1858C29.5101 7.22075 27.098 4.80867 24.1329 4.80867ZM24.1329 13.7945C22.1433 13.7945 20.5253 12.1754 20.5253 10.1858C20.5253 8.1962 22.1433 6.57709 24.1329 6.57709C26.1225 6.57709 27.7417 8.1962 27.7417 10.1858C27.7417 12.1754 26.1225 13.7945 24.1329 13.7945ZM24.1329 4.80867C21.169 4.80867 18.7569 7.22075 18.7569 10.1858C18.7569 13.1497 21.169 15.5618 24.1329 15.5618C27.098 15.5618 29.5101 13.1497 29.5101 10.1858C29.5101 7.22075 27.098 4.80867 24.1329 4.80867ZM24.1329 13.7945C22.1433 13.7945 20.5253 12.1754 20.5253 10.1858C20.5253 8.1962 22.1433 6.57709 24.1329 6.57709C26.1225 6.57709 27.7417 8.1962 27.7417 10.1858C27.7417 12.1754 26.1225 13.7945 24.1329 13.7945Z" fill="#5407A5"/>
<path d="M20.5253 10.1859C20.5253 8.19626 22.1433 6.57715 24.1329 6.57715C26.1225 6.57715 27.7416 8.19626 27.7416 10.1859C27.7416 12.1755 26.1225 13.7946 24.1329 13.7946C22.1433 13.7946 20.5253 12.1755 20.5253 10.1859ZM37.4574 28.7636L49.7611 7.45417L48.2924 6.6059L35.9898 27.9153L37.4574 28.7636ZM51.2928 8.33782L38.9891 29.6473L40.4556 30.4944L44.4945 23.4982C44.5067 23.475 44.52 23.4517 44.5343 23.4285L48.3311 16.8525C48.3377 16.8393 48.3454 16.826 48.3532 16.8127L52.7582 9.18387L51.2928 8.33782ZM41.5958 32.0549C41.4708 32.2695 41.2873 32.4387 41.0639 32.546L36.18 34.8839C36.0052 34.9669 35.8194 35.0078 35.6325 35.0078C35.4136 35.0078 35.1935 34.9514 34.99 34.8397C34.9822 34.8353 34.9745 34.8309 34.9668 34.8264C34.5996 34.6097 34.3651 34.2458 34.3253 33.8289C34.3253 33.8233 34.3253 33.8178 34.3242 33.8134L33.9073 28.4119C33.9073 28.402 33.9062 28.3931 33.9062 28.3832C33.8951 28.141 33.9493 27.9142 34.0676 27.7096L39.6726 18.0016C39.0223 17.6931 38.2824 17.5316 37.4939 17.5316C35.7984 17.5316 34.3463 18.2814 33.508 19.5909L27.3833 29.1817L35.3693 41.9277H46.2784C47.3534 41.9277 48.2282 41.0507 48.2282 39.9746V30.166L45.3173 25.6083L41.5958 32.0549ZM18.7812 22.5913C17.2804 22.5913 15.9953 23.2538 15.2565 24.4084L8.07227 35.6592V39.9746C8.07227 41.0507 8.94928 41.9277 10.0254 41.9277H33.2824L22.3025 24.4017C21.5803 23.2516 20.2963 22.5913 18.7812 22.5913Z" fill="url(#paint0_linear_157_293)"/>
<defs>
<linearGradient id="paint0_linear_157_293" x1="8.07227" y1="24.2524" x2="52.7582" y2="24.2524" gradientUnits="userSpaceOnUse">
<stop stop-color="#C16BFF"/>
<stop offset="0.1291" stop-color="#BC6DFF"/>
<stop offset="0.2734" stop-color="#AF74FF"/>
<stop offset="0.4251" stop-color="#997FFF"/>
<stop offset="0.5818" stop-color="#798FFF"/>
<stop offset="0.7424" stop-color="#51A3FF"/>
<stop offset="0.9041" stop-color="#20BCFF"/>
<stop offset="1" stop-color="#00CCFF"/>
</linearGradient>
</defs>
</svg>
