<svg width="30" height="30" viewBox="0 0 30 30" fill="none" xmlns="http://www.w3.org/2000/svg">
<path d="M29.2502 12.3249L26.6522 10.8249C26.3078 10.626 25.8984 10.5719 25.5142 10.6748C25.1299 10.7776 24.8022 11.0288 24.6032 11.3732L17.0394 24.475C16.7678 24.9457 16.6291 25.4812 16.6381 26.0246L16.6794 28.5243C16.6836 28.7835 16.7548 29.0371 16.8862 29.2605C17.0175 29.4838 17.2045 29.6694 17.4289 29.799C17.6534 29.9286 17.9075 29.9979 18.1667 30C18.4258 30.0022 18.6811 29.9372 18.9076 29.8113L21.0939 28.5971C21.5697 28.333 21.9644 27.944 22.2354 27.4721L29.7992 14.3732C29.9979 14.0288 30.0517 13.6195 29.9487 13.2354C29.8458 12.8513 29.5945 12.5239 29.2502 12.3249ZM20.9364 26.7251C20.8006 26.9602 20.6033 27.1539 20.3656 27.2853L18.1794 28.5003L18.1381 26.0013C18.1338 25.7293 18.203 25.4611 18.3384 25.2251L25.9022 12.1247L28.5002 13.6247L20.9364 26.7251Z" fill="#8C8FAB"/>
<path d="M27.7503 21.6753C27.5514 21.6753 27.3607 21.7543 27.22 21.895C27.0794 22.0356 27.0003 22.2264 27.0003 22.4253V24.7503C26.9977 25.0514 26.9353 25.349 26.8166 25.6257C26.6979 25.9024 26.5253 26.1528 26.309 26.3622C26.0926 26.5715 25.8367 26.7358 25.5563 26.8454C25.2758 26.9549 24.9763 27.0076 24.6753 27.0003C24.5788 27.0012 24.4834 27.0214 24.3949 27.0599C24.3063 27.0983 24.2264 27.1542 24.16 27.2242C24.0935 27.2942 24.0417 27.3768 24.0079 27.4672C23.974 27.5576 23.9587 27.6539 23.9628 27.7503C23.9714 27.953 24.0582 28.1445 24.2051 28.2844C24.352 28.4243 24.5475 28.5017 24.7503 28.5004C25.7445 28.4992 26.6977 28.1037 27.4007 27.4007C28.1037 26.6977 28.4992 25.7445 28.5004 24.7503V22.4253C28.5004 22.2264 28.4213 22.0356 28.2807 21.895C28.14 21.7543 27.9493 21.6753 27.7503 21.6753Z" fill="#8C8FAB"/>
<path d="M14.4151 27.0002H3.75003C3.15329 27.0002 2.58099 26.7632 2.15903 26.3412C1.73707 25.9193 1.50001 25.347 1.50001 24.7502V21.3107L5.15779 17.6529C5.58054 17.2315 6.15312 16.9948 6.75006 16.9948C7.34699 16.9948 7.91958 17.2315 8.34232 17.6529L9.66233 18.9729C10.084 19.3929 10.6549 19.6287 11.2501 19.6287C11.8453 19.6287 12.4162 19.3929 12.8379 18.9729L17.1579 14.6529C17.544 14.2684 18.0565 14.0371 18.6002 14.002C19.144 13.9668 19.682 14.1301 20.1144 14.4616C20.1919 14.5265 20.2816 14.5751 20.3783 14.6044C20.4749 14.6338 20.5765 14.6433 20.677 14.6324C20.7774 14.6215 20.8746 14.5904 20.9627 14.541C21.0509 14.4917 21.1281 14.425 21.1898 14.345C21.2516 14.265 21.2965 14.1734 21.3219 14.0756C21.3474 13.9779 21.3528 13.876 21.3379 13.776C21.323 13.6761 21.2881 13.5803 21.2352 13.4942C21.1823 13.4081 21.1126 13.3336 21.0302 13.2751C20.3091 12.7212 19.4113 12.4481 18.5038 12.5067C17.5964 12.5654 16.7412 12.9517 16.0974 13.5939L11.7774 17.9139C11.637 18.0527 11.4475 18.1305 11.2501 18.1305C11.0527 18.1305 10.8632 18.0527 10.7228 17.9139L9.40283 16.5939C8.6987 15.8914 7.74468 15.4969 6.75006 15.4969C5.75544 15.4969 4.80142 15.8914 4.09729 16.5939L1.50001 19.1897V3.75003C1.50001 3.15329 1.73707 2.58099 2.15903 2.15903C2.58099 1.73707 3.15329 1.50001 3.75003 1.50001H24.7502C25.347 1.50001 25.9193 1.73707 26.3412 2.15903C26.7632 2.58099 27.0002 3.15329 27.0002 3.75003V8.86508C27.0002 9.06399 27.0793 9.25476 27.2199 9.39541C27.3606 9.53607 27.5513 9.61508 27.7502 9.61508C27.9492 9.61508 28.1399 9.53607 28.2806 9.39541C28.4212 9.25476 28.5002 9.06399 28.5002 8.86508V3.75003C28.4991 2.75583 28.1036 1.80268 27.4006 1.09967C26.6976 0.396665 25.7444 0.0011909 24.7502 0H3.75003C2.75583 0.0011909 1.80268 0.396665 1.09967 1.09967C0.396665 1.80268 0.0011909 2.75583 0 3.75003V24.7502C0.0011909 25.7444 0.396665 26.6976 1.09967 27.4006C1.80268 28.1036 2.75583 28.4991 3.75003 28.5002H14.4151C14.614 28.5002 14.8048 28.4212 14.9455 28.2806C15.0861 28.1399 15.1651 27.9492 15.1651 27.7502C15.1651 27.5513 15.0861 27.3606 14.9455 27.2199C14.8048 27.0793 14.614 27.0002 14.4151 27.0002Z" fill="#8C8FAB"/>
<path d="M6 8.25003C6 8.99172 6.21994 9.71675 6.63199 10.3334C7.04405 10.9501 7.62973 11.4308 8.31496 11.7146C9.00019 11.9984 9.75419 12.0727 10.4816 11.928C11.2091 11.7833 11.8773 11.4262 12.4017 10.9017C12.9262 10.3773 13.2833 9.70906 13.428 8.98163C13.5727 8.25419 13.4984 7.50019 13.2146 6.81496C12.9308 6.12973 12.4501 5.54405 11.8334 5.13199C11.2167 4.71994 10.4917 4.5 9.75003 4.5C8.75583 4.50119 7.80268 4.89666 7.09967 5.59967C6.39666 6.30268 6.00119 7.25583 6 8.25003ZM12.0001 8.25003C12.0001 8.69504 11.8681 9.13006 11.6209 9.50008C11.3736 9.87009 11.0222 10.1585 10.6111 10.3288C10.1999 10.4991 9.74754 10.5436 9.31107 10.4568C8.87461 10.37 8.4737 10.1557 8.15903 9.84104C7.84436 9.52637 7.63006 9.12545 7.54325 8.68899C7.45643 8.25253 7.50099 7.80012 7.67129 7.38899C7.84158 6.97785 8.12997 6.62645 8.49999 6.37921C8.87 6.13197 9.30502 6.00001 9.75003 6.00001C10.3468 6.00001 10.9191 6.23707 11.341 6.65903C11.763 7.08099 12.0001 7.65329 12.0001 8.25003Z" fill="#8C8FAB"/>
</svg>
