<svg width="29" height="29" viewBox="0 0 29 29" fill="none" xmlns="http://www.w3.org/2000/svg">
<path d="M27.9687 0C27.9687 0 19.897 0 19.8439 0C19.245 0 19.2316 0.9375 19.8437 0.9375H27.4999V8.59366C27.4999 9.17484 28.4374 9.20796 28.4374 8.59375V0.46875C28.4374 0.209962 28.2275 0 27.9687 0Z" fill="#8C8FAB"/>
<path d="M28.4376 27.9687C28.4376 27.9687 28.4376 19.897 28.4376 19.8439C28.4376 19.245 27.5001 19.2316 27.5001 19.8437V27.4999C27.5001 27.4999 19.8736 27.4999 19.8439 27.4999C19.2627 27.4999 19.2296 28.4374 19.8438 28.4374H27.9688C28.2276 28.4374 28.4376 28.2275 28.4376 27.9687Z" fill="#8C8FAB"/>
<path d="M0.46875 28.4376H8.59349C9.19243 28.4376 9.20585 27.5001 8.59375 27.5001H0.9375C0.9375 27.5001 0.9375 19.8736 0.9375 19.8439C0.9375 19.2627 0 19.2296 0 19.8438V27.9688C0 28.2276 0.209963 28.4376 0.46875 28.4376Z" fill="#8C8FAB"/>
<path d="M0 0.46875V8.59349C0 9.19243 0.9375 9.20585 0.9375 8.59375V0.9375H8.59366C9.17484 0.9375 9.20796 0 8.59375 0H0.46875C0.209962 0 0 0.209963 0 0.46875Z" fill="#8C8FAB"/>
<path d="M14.2188 13.4375C16.5448 13.4375 18.4375 11.5448 18.4375 9.21875C18.4375 6.8927 16.5448 5 14.2188 5C11.8927 5 10 6.8927 10 9.21875C10 11.5448 11.8927 13.4375 14.2188 13.4375ZM14.2188 5.9375C16.0278 5.9375 17.5 7.40967 17.5 9.21875C17.5 11.0278 16.0278 12.5 14.2188 12.5C12.4097 12.5 10.9375 11.0278 10.9375 9.21875C10.9375 7.40967 12.4097 5.9375 14.2188 5.9375Z" fill="#8C8FAB"/>
<path d="M6.27432 21.4185C6.07005 22.4536 6.93234 23.4375 7.96865 23.4375H20.4686C21.5177 23.4375 22.3687 22.4597 22.1624 21.4178C21.4287 17.699 18.0877 15 14.2187 15C10.3497 15 7.00865 17.6989 6.27432 21.4185ZM21.2426 21.5991C21.3354 22.0704 20.9334 22.5 20.4687 22.5C20.4687 22.5 8.00447 22.5 7.96873 22.5C7.49941 22.5 7.10184 22.0731 7.19412 21.5997C7.83132 18.3716 10.8513 15.9375 14.2187 15.9375C17.5859 15.9375 20.6059 18.3715 21.2426 21.5991Z" fill="#8C8FAB"/>
</svg>
