<svg width="33" height="32" viewBox="0 0 33 32" fill="none" xmlns="http://www.w3.org/2000/svg">
<path d="M4.40112 2.5L12.3197 10.1786L10.4967 11.9464L2.57812 4.26775V8.375H0V0H8.63672V2.5H4.40112ZM10.4967 20.0536L2.57812 27.7323V23.5625H0V32H8.63672V29.5H4.40112L12.3197 21.8214L10.4967 20.0536ZM24.2988 0V2.5H28.5989L20.6803 10.1786L22.5033 11.9464L30.4219 4.26775V8.375H33V0H24.2988ZM30.4219 27.7323L22.5033 20.0536L20.6803 21.8214L28.5989 29.5H24.2988V32H33V23.5625H30.4219V27.7323ZM10.0547 14.75H0V17.25H10.0547V14.75ZM15.2109 32H17.7891V22.25H15.2109V32ZM15.2109 9.75H17.7891V0H15.2109V9.75ZM22.9453 17.3125H33V14.8125H22.9453V17.3125Z" fill="white"/>
</svg>
