<svg width="30" height="30" viewBox="0 0 30 30" fill="none" xmlns="http://www.w3.org/2000/svg">
<path d="M9.81812 19.6365H10.909V30.0001H9.81812V19.6365Z" fill="#8C8FAB"/>
<path d="M28.9091 18V6C28.9091 5.85534 28.8516 5.7166 28.7494 5.61431C28.6471 5.51201 28.5083 5.45455 28.3637 5.45455H13.6364V4.29457C14.1508 4.16197 14.5991 3.84629 14.8973 3.40671C15.1955 2.96713 15.3231 2.43387 15.2562 1.90691C15.1893 1.37996 14.9324 0.895525 14.5338 0.544455C14.1351 0.193385 13.6221 -0.000201589 13.0909 1.57528e-07H6.00002C5.92401 -1.0951e-06 5.84884 0.0158831 5.77933 0.0466341C5.70982 0.077385 5.64751 0.122324 5.59638 0.178568L0.141836 6.17857C0.0916842 6.23377 0.0533771 6.29867 0.0292787 6.36925C0.00518036 6.43983 -0.00419795 6.51461 0.00172265 6.58895L1.09093 20.2036V30H2.18184V20.1818C2.18184 20.1673 2.18122 20.1528 2.18013 20.1383L1.10804 6.73752L6.24131 1.09091H13.0909C13.3803 1.09091 13.6577 1.20584 13.8623 1.41043C14.0669 1.61501 14.1818 1.89249 14.1818 2.18182C14.1818 2.47115 14.0669 2.74862 13.8623 2.95321C13.6577 3.15779 13.3803 3.27273 13.0909 3.27273H8.18184C8.11021 3.27273 8.03928 3.28683 7.9731 3.31424C7.90692 3.34165 7.84678 3.38183 7.79613 3.43248L5.77406 5.45455H3.8182V6.54545H11.4546C11.7439 6.54545 12.0214 6.66039 12.226 6.86497C12.4305 7.06956 12.5455 7.34704 12.5455 7.63636C12.5455 7.92569 12.4305 8.20317 12.226 8.40775C12.0214 8.61234 11.7439 8.72727 11.4546 8.72727H5.45456V9.81818H11.4546C11.7439 9.81818 12.0214 9.93312 12.226 10.1377C12.4305 10.3423 12.5455 10.6198 12.5455 10.9091C12.5455 11.1984 12.4305 11.4759 12.226 11.6805C12.0214 11.8851 11.7439 12 11.4546 12H5.45456V13.0909H11.4546C11.7439 13.0909 12.0214 13.2058 12.226 13.4104C12.4305 13.615 12.5455 13.8925 12.5455 14.1818C12.5455 14.4711 12.4305 14.7486 12.226 14.9532C12.0214 15.1578 11.7439 15.2727 11.4546 15.2727H5.45456V16.3636H7.09093V18C7.09093 18.1447 7.14839 18.2834 7.25069 18.3857C7.35298 18.488 7.49172 18.5455 7.63638 18.5455H28.3637C28.5083 18.5455 28.6471 18.488 28.7494 18.3857C28.8516 18.2834 28.9091 18.1447 28.9091 18ZM27.8182 8.18182H24.5455V6.54545H27.8182V8.18182ZM23.4546 6.54545V8.18182H22.3637V6.54545H23.4546ZM12.5455 4.36364V5.45455H11.4546V4.36364H12.5455ZM7.31688 5.45455L8.40779 4.36364H10.3637V5.45455H7.31688ZM8.18184 17.4545V16.3636H11.4546C11.8979 16.3639 12.3308 16.2291 12.6955 15.9771C13.0602 15.725 13.3395 15.3678 13.496 14.9531C13.6525 14.5383 13.6789 14.0856 13.5716 13.6555C13.4643 13.2253 13.2284 12.8381 12.8954 12.5455C13.1282 12.3411 13.3147 12.0894 13.4425 11.8073C13.5703 11.5251 13.6364 11.2189 13.6364 10.9091C13.6364 10.5993 13.5703 10.2931 13.4425 10.0109C13.3147 9.72875 13.1282 9.47707 12.8954 9.27273C13.2743 8.94031 13.5261 8.48666 13.6077 7.98925C13.6893 7.49184 13.5957 6.98153 13.3429 6.54545H21.2727V8.72727C21.2727 8.87194 21.3302 9.01068 21.4325 9.11297C21.5348 9.21526 21.6735 9.27273 21.8182 9.27273H27.8182V15.2727H24.5455V16.3636H27.8182V17.4545H8.18184Z" fill="#8C8FAB"/>
<path d="M14.7273 7.63647H15.8182V8.72738H14.7273V7.63647Z" fill="#8C8FAB"/>
<path d="M21.8877 14.1853C22.3619 13.2919 22.4892 12.2548 22.2451 11.2732C22.001 10.2916 21.4028 9.43489 20.5654 8.8676C19.7281 8.30032 18.7106 8.06251 17.7085 8.19987C16.7064 8.33724 15.7904 8.84009 15.1366 9.6118C14.4827 10.3835 14.1372 11.3696 14.1662 12.3807C14.1953 13.3917 14.597 14.3563 15.2942 15.0892C15.9913 15.822 16.9346 16.2714 17.943 16.3509C18.9513 16.4304 19.9534 16.1345 20.7568 15.52C20.8025 15.717 20.9021 15.8973 21.0443 16.0409C21.1866 16.1845 21.366 16.2857 21.5625 16.3333C21.759 16.3808 21.9648 16.3728 22.157 16.3101C22.3492 16.2475 22.5202 16.1326 22.6509 15.9784C22.7815 15.8241 22.8668 15.6366 22.897 15.4367C22.9273 15.2368 22.9014 15.0325 22.8222 14.8465C22.743 14.6605 22.6137 14.5001 22.4487 14.3834C22.2837 14.2666 22.0894 14.1981 21.8877 14.1853ZM18.2729 15.2727C17.6795 15.2727 17.0995 15.0967 16.6062 14.7671C16.1128 14.4374 15.7283 13.9689 15.5012 13.4207C15.2742 12.8725 15.2148 12.2693 15.3305 11.6874C15.4463 11.1055 15.732 10.5709 16.1516 10.1514C16.5711 9.7318 17.1057 9.44608 17.6876 9.33032C18.2696 9.21457 18.8728 9.27398 19.4209 9.50104C19.9691 9.7281 20.4376 10.1126 20.7673 10.606C21.0969 11.0993 21.2729 11.6793 21.2729 12.2727C21.272 13.0681 20.9556 13.8306 20.3932 14.393C19.8308 14.9554 19.0683 15.2718 18.2729 15.2727Z" fill="#8C8FAB"/>
<path d="M25.6365 2.18188H26.7274V3.27279H25.6365V2.18188Z" fill="#8C8FAB"/>
<path d="M27.6184 3.51245L28.1639 2.56772L29.1085 3.11314L28.5631 4.05787L27.6184 3.51245Z" fill="#8C8FAB"/>
<path d="M23.2544 3.11279L24.1991 2.56737L24.7445 3.5121L23.7998 4.05752L23.2544 3.11279Z" fill="#8C8FAB"/>
</svg>
