<svg width="26" height="26" viewBox="0 0 26 26" fill="none" xmlns="http://www.w3.org/2000/svg">
<path d="M13 13.6141C13.8912 13.6141 14.6084 14.337 14.6084 15.2225C14.6084 16.1107 13.8883 16.8308 13 16.8308C12.1117 16.8308 11.3916 16.1107 11.3916 15.2225C11.3916 14.337 12.1089 13.6141 13 13.6141ZM26 21.1261V22.026C26 22.1174 25.9465 22.1954 25.8612 22.2282L25.3715 22.4167C25.3048 22.4424 25.2586 22.4937 25.2401 22.5627C25.1548 22.8798 25.0285 23.1844 24.8644 23.4688C24.8287 23.5308 24.8251 23.5997 24.8541 23.665L25.0672 24.145C25.1044 24.2285 25.0871 24.3215 25.0225 24.3861L24.3861 25.0224C24.3215 25.087 24.2285 25.1043 24.145 25.0672L23.6653 24.8542C23.5999 24.8251 23.531 24.8288 23.4691 24.8645C23.1845 25.0286 22.8798 25.1551 22.5626 25.2403C22.4936 25.2588 22.4423 25.305 22.4166 25.3717L22.2282 25.8612C22.1953 25.9465 22.1174 26 22.026 26H21.1261C21.0347 26 20.9568 25.9465 20.9239 25.8612L20.7355 25.3716C20.7098 25.3049 20.6586 25.2587 20.5895 25.2401C20.2724 25.1549 19.9678 25.0285 19.6834 24.8645C19.6214 24.8288 19.5525 24.8251 19.4872 24.8541L19.0072 25.0672C18.9237 25.1044 18.8307 25.0871 18.766 25.0225L18.1297 24.3862C18.0651 24.3215 18.0478 24.2285 18.0849 24.145L18.298 23.6653C18.327 23.6 18.3234 23.531 18.2876 23.4691C18.1235 23.1846 17.9971 22.8799 17.9118 22.5626C17.8933 22.4936 17.8471 22.4423 17.7804 22.4167L17.291 22.2283C17.2057 22.1954 17.1521 22.1175 17.1521 22.0261V21.1262C17.1521 21.0348 17.2057 20.9568 17.291 20.924L17.7805 20.7355C17.8472 20.7099 17.8934 20.6586 17.9119 20.5896C17.9972 20.2724 18.1236 19.9678 18.2877 19.6833C18.3234 19.6214 18.327 19.5524 18.298 19.4871L18.0849 19.0072C18.0477 18.9237 18.065 18.8307 18.1297 18.7661L18.766 18.1297C18.8307 18.0651 18.9237 18.0478 19.0072 18.085L19.4871 18.2981C19.5524 18.3271 19.6214 18.3235 19.6833 18.2878C19.9678 18.1237 20.2724 17.9974 20.5895 17.9121C20.6585 17.8935 20.7098 17.8474 20.7354 17.7807L20.9239 17.291C20.9567 17.2057 21.0346 17.1522 21.1261 17.1522H22.026C22.1174 17.1522 22.1953 17.2057 22.2282 17.291L22.4166 17.7807C22.4423 17.8474 22.4935 17.8935 22.5626 17.9121C22.8797 17.9973 23.1843 18.1237 23.4687 18.2878C23.5307 18.3235 23.5996 18.3271 23.6649 18.2981L24.1449 18.085C24.2284 18.0478 24.3214 18.0651 24.3861 18.1297L25.0224 18.766C25.087 18.8307 25.1043 18.9236 25.0672 19.0072L24.8541 19.4869C24.8251 19.5523 24.8287 19.6212 24.8645 19.6831C25.0286 19.9677 25.155 20.2723 25.2403 20.5896C25.2588 20.6586 25.305 20.7099 25.3717 20.7355L25.8612 20.9239C25.9465 20.9568 26 21.0348 26 21.1261ZM23.9837 21.5761C23.9837 20.2463 22.9059 19.1684 21.576 19.1684C20.2463 19.1684 19.1684 20.2463 19.1684 21.5761C19.1684 22.9059 20.2463 23.9837 21.576 23.9837C22.9059 23.9837 23.9837 22.9059 23.9837 21.5761ZM0 4.42379C0 1.98066 1.98066 0 4.42379 0C6.86692 0 8.84753 1.98066 8.84753 4.42379C8.84753 6.86692 6.86692 8.84758 4.42379 8.84758C1.98066 8.84758 0 6.86692 0 4.42379ZM3.99046 4.42379C3.99046 4.67756 4.20723 4.87635 4.45954 4.85566L6.30533 4.86606C6.54371 4.86698 6.73774 4.67448 6.73866 4.43609C6.73958 4.1977 6.54707 4.00367 6.30868 4.00275L4.85707 3.99458V2.30067C4.85707 2.06137 4.66305 1.86734 4.42374 1.86734C4.18443 1.86734 3.9904 2.06137 3.9904 2.30067L3.99046 4.42379ZM15.4573 14.9257C17.6486 14.7613 19.5827 14.3722 20.5508 13.7597C21.1857 13.358 21.7264 12.8131 21.7264 12.0085V8.89487C21.7264 8.53439 21.4323 8.24043 21.0719 8.24043H17.9902V10.3685C17.9902 11.059 17.4268 11.6224 16.7364 11.6224H9.26364C8.57312 11.6224 8.00979 11.059 8.00979 10.3685V8.3128C7.02666 9.21976 5.70884 9.75168 4.27364 9.71198V12.0085C4.27364 12.813 4.81439 13.3582 5.44917 13.7597C6.42233 14.3755 8.35483 14.7637 10.5426 14.9269C10.6887 13.6997 11.7333 12.7474 13.0001 12.7474C14.2663 12.7474 15.3105 13.6991 15.4573 14.9257ZM16.0051 23.4407H2.55938V11.9837L2.65081 12.1421C2.77046 12.3486 3.03496 12.4191 3.24155 12.2995C3.44814 12.1798 3.51867 11.9153 3.39901 11.7087L2.50304 10.1569C2.34179 9.869 1.92135 9.85942 1.75197 10.1519L0.853125 11.7088C0.733471 11.9154 0.803942 12.1799 1.01053 12.2995C1.21712 12.4192 1.48162 12.3487 1.60128 12.1421L1.69271 11.9838V23.8741C1.69271 24.1134 1.88673 24.3074 2.12604 24.3074H16.0051C16.2444 24.3074 16.4384 24.1134 16.4384 23.8741C16.4384 23.6348 16.2444 23.4407 16.0051 23.4407ZM9.26364 10.7558H16.7364C16.9484 10.7558 17.1235 10.5806 17.1235 10.3686V8.24048H8.87645V10.3686C8.87645 10.5806 9.05157 10.7558 9.26364 10.7558ZM17.378 19.5508L17.2929 19.359C17.1112 18.9499 17.2004 18.4697 17.5169 18.1533L18.1533 17.5169C18.4697 17.2004 18.9499 17.1112 19.359 17.2928L19.5509 17.378C19.7099 17.3012 19.8732 17.2335 20.0399 17.1753L20.1152 16.9796C20.2551 16.6161 20.5735 16.3617 20.9485 16.3V14.5315C19.826 15.2078 17.7379 15.6311 15.4067 15.8014C15.1459 16.8888 14.1672 17.6975 13 17.6975C11.8328 17.6975 10.854 16.8889 10.5932 15.8015C8.26226 15.6313 6.17419 15.2081 5.05142 14.5315V19.2159C5.05142 19.9184 5.62613 20.4931 6.32867 20.4931H16.4887C16.609 20.3259 16.7774 20.1929 16.9796 20.1151L17.1752 20.0398C17.2334 19.8732 17.3012 19.7098 17.378 19.5508ZM10.4388 2.55932H23.4407V14.1846L23.3492 14.0263C23.2296 13.8197 22.9651 13.7492 22.7585 13.8689C22.5519 13.9885 22.4814 14.253 22.601 14.4596L23.4999 16.0165C23.6693 16.309 24.0897 16.2993 24.251 16.0115L25.1469 14.4597C25.2666 14.2531 25.1961 13.9886 24.9895 13.8689C24.7829 13.7493 24.5184 13.8198 24.3988 14.0264L24.3073 14.1847V2.12599C24.3073 1.88668 24.1133 1.69265 23.874 1.69265H10.4388C10.1995 1.69265 10.0055 1.88668 10.0055 2.12599C10.0055 2.3653 10.1995 2.55932 10.4388 2.55932ZM10.0263 6.87353C10.0263 6.36101 10.4473 5.94003 10.9599 5.94003H15.0403C15.5529 5.94003 15.9738 6.36101 15.9738 6.87353V7.37376H16.8405V6.87353C16.8405 5.88255 16.0313 5.07336 15.0403 5.07336H10.9599C9.96894 5.07336 9.15964 5.8825 9.15964 6.87353V7.37376H10.0263V6.87353Z" fill="white"/>
</svg>
