<svg width="17" height="17" viewBox="0 0 17 17" fill="none" xmlns="http://www.w3.org/2000/svg">
<path d="M16.7188 6.80726C16.5985 6.64418 16.444 6.50889 16.2661 6.4107C16.0881 6.3125 15.8909 6.25372 15.6879 6.23838V6.23333C15.6875 5.85774 15.5371 5.49765 15.2697 5.23206C15.0024 4.96648 14.6399 4.81709 14.2617 4.81666V0.849999C14.2615 0.624645 14.1712 0.408594 14.0108 0.249244C13.8504 0.0898938 13.6329 0.000257776 13.406 0H2.56711C2.34025 0.000257776 2.12274 0.0898938 1.96233 0.249244C1.80191 0.408594 1.71167 0.624645 1.71141 0.849999V4.81666H1.42617C1.04806 4.81709 0.685555 4.96648 0.418188 5.23206C0.150821 5.49765 0.00042664 5.85774 0 6.23333V15.5833C0.00042664 15.9589 0.150821 16.319 0.418188 16.5846C0.685555 16.8502 1.04806 16.9996 1.42617 17H13.1321C13.4379 17.0012 13.7359 16.9042 13.9816 16.7235C14.2274 16.5429 14.4078 16.2881 14.496 15.9973L16.9364 8.06398C17.0026 7.85232 17.0174 7.6281 16.9796 7.40966C16.9417 7.19123 16.8524 6.9848 16.7188 6.80726ZM14.2617 5.38333C14.4886 5.38358 14.7061 5.47322 14.8665 5.63257C15.027 5.79192 15.1172 6.00797 15.1174 6.23333H14.2617V5.38333ZM0.570469 6.23333C0.570729 6.00797 0.660967 5.79192 0.821386 5.63257C0.981806 5.47322 1.19931 5.38359 1.42617 5.38333H1.71141V7.93333H2.28188V0.849999C2.28196 0.774881 2.31204 0.702864 2.36552 0.649748C2.41899 0.596631 2.49149 0.566752 2.56711 0.566666H13.406C13.4817 0.566752 13.5542 0.596631 13.6076 0.649748C13.6611 0.702864 13.6912 0.774881 13.6913 0.849999V6.23333H4.27652C3.96881 6.23459 3.66966 6.33414 3.42328 6.51726C3.1769 6.70039 2.99635 6.95738 2.9083 7.25026L0.570469 15.1459V6.23333ZM16.3908 7.89838L13.9505 15.8317C13.8976 16.0062 13.7893 16.159 13.6418 16.2675C13.4944 16.3759 13.3156 16.434 13.1321 16.4333H1.42617C1.21278 16.4335 1.00709 16.3542 0.849733 16.211L3.45558 7.41015C3.50841 7.23442 3.61674 7.08023 3.76457 6.97036C3.9124 6.86048 4.09189 6.80075 4.27652 6.8H15.5725C15.7062 6.8 15.8381 6.83115 15.9576 6.89095C16.077 6.95075 16.1807 7.03754 16.2603 7.14434C16.3398 7.25115 16.3931 7.375 16.4158 7.50595C16.4384 7.6369 16.4299 7.77131 16.3908 7.89838Z" fill="#54595F"/>
<path d="M9.97869 8.85587C9.97847 8.62896 9.90106 8.41141 9.76346 8.25096C9.62585 8.09051 9.43928 8.00026 9.24467 8H8.75533C8.56072 8.00026 8.37415 8.09051 8.23654 8.25096C8.09894 8.41141 8.02153 8.62896 8.02131 8.85587V12.2793H7L9 15L11 12.2793H9.97869V8.85587ZM9 14.1233L8.06393 12.8499H8.51066V8.85587C8.51073 8.78023 8.53653 8.70772 8.5824 8.65423C8.62827 8.60075 8.69046 8.57066 8.75533 8.57058H9.24467C9.30954 8.57066 9.37173 8.60075 9.4176 8.65423C9.46347 8.70772 9.48927 8.78023 9.48934 8.85587V12.8499H9.93607L9 14.1233Z" fill="#54595F"/>
</svg>
