<svg width="24" height="16" viewBox="0 0 24 16" fill="none" xmlns="http://www.w3.org/2000/svg">
<path fill-rule="evenodd" clip-rule="evenodd" d="M9.71429 14.1429C9.71429 13.4328 10.2899 12.8571 11 12.8571H22.7143C23.4244 12.8571 24 13.4328 24 14.1429C24 14.853 23.4244 15.4286 22.7143 15.4286H11C10.2899 15.4286 9.71429 14.853 9.71429 14.1429ZM0 1.28571C0 0.575627 0.575627 0 1.28571 0H22.7143C23.4244 0 24 0.575627 24 1.28571C24 1.99579 23.4244 2.57143 22.7143 2.57143H1.28571C0.575627 2.57143 0 1.99579 0 1.28571ZM0 7.71429C0 7.00421 0.575627 6.42857 1.28571 6.42857H22.7143C23.4244 6.42857 24 7.00421 24 7.71429C24 8.42439 23.4244 9 22.7143 9H1.28571C0.575627 9 0 8.42439 0 7.71429Z" fill="#BB9A2C"/>
</svg>
