<svg width="38" height="38" viewBox="0 0 38 38" fill="none" xmlns="http://www.w3.org/2000/svg">
<path d="M3.8874 28.0253L9.29727 33.4352C9.76488 33.9704 9.76488 34.7174 9.30451 35.1778L8.02354 36.4587C7.56256 36.9197 6.81558 36.9197 6.35521 36.4587L0.945344 31.0489C0.484365 30.5879 0.484365 29.8409 0.945344 29.3805L2.22631 28.0996C2.68669 27.6392 3.43366 27.6392 3.8874 28.0253Z" fill="#F4B2B0"/>
<path d="M28.0231 3.89058L33.433 9.30044C33.9682 9.76806 34.7152 9.76806 35.1756 9.30768L36.4565 8.02672C36.9175 7.56574 36.9175 6.81876 36.4565 6.35838L31.0467 0.948517C30.5857 0.487538 29.8387 0.487538 29.3783 0.948517L28.0974 2.22948C27.637 2.68986 27.637 3.43684 28.0231 3.89058Z" fill="#F4B2B0"/>
<path d="M0.520336 28.9544C-0.173546 29.6495 -0.173546 30.7802 0.520939 31.4759L5.93141 36.8858C6.27895 37.2333 6.73571 37.4071 7.19246 37.4071C7.64922 37.4071 8.10597 37.2333 8.45352 36.8858L9.73509 35.6042C10.3059 35.0322 10.4012 34.176 10.0163 33.4417L15.4497 31.2261C18.5263 29.9433 20.5138 27.0055 20.5114 23.6905C20.1843 19.9369 16.5213 16.3493 12.3459 15.6934C12.3145 15.6892 12.2831 15.6868 12.2524 15.6868C8.72564 15.6868 6.23129 17.7606 6.05027 20.769C5.68282 21.0037 5.34372 21.2789 5.04445 21.6053C4.02233 22.7221 3.52213 24.277 3.63617 25.984C3.63798 26.0093 3.6416 26.0341 3.64643 26.0588L3.89321 27.3253C3.2126 27.0055 2.35218 27.1244 1.80251 27.674L0.520336 28.9544ZM5.93443 22.4204C6.69045 21.595 7.7705 21.1443 9.10275 21.1178H9.11361C10.1472 21.1178 11.0022 21.6264 11.3461 22.4476C11.6653 23.2091 11.4595 24.0393 10.8224 24.6873L9.87024 25.4814L10.6432 26.4081L11.6375 25.5749C11.9531 25.2557 12.192 24.9051 12.3688 24.5401L13.2793 25.2617C13.8314 25.7082 14.5054 25.9442 15.2119 25.9442C15.3489 25.9442 15.4871 25.9351 15.6258 25.9176C16.546 25.7981 17.4058 25.278 17.9838 24.49L17.0106 23.7762C16.6268 24.2994 16.0663 24.6439 15.4708 24.7205C14.9464 24.7869 14.4384 24.6463 14.0335 24.3187L12.6922 23.2561C12.7055 22.8271 12.6337 22.3957 12.4587 21.9794C11.9308 20.7213 10.6184 19.9098 9.1124 19.9098C9.10758 19.9098 9.10275 19.9098 9.09792 19.9098C9.09189 19.9098 9.03276 19.911 9.03155 19.9098C8.43481 19.9225 7.87186 20.0112 7.34874 20.1692C7.80248 18.2125 9.66992 16.9086 12.2053 16.8929C15.8467 17.4866 19.0289 20.5735 19.3076 23.743C19.3076 26.5174 17.611 29.0171 14.9905 30.1105L9.19326 32.4739L5.38354 28.6642L4.8387 25.8651C4.75543 24.5057 5.144 23.2833 5.93443 22.4204ZM3.09977 28.3468C3.24337 28.3468 3.38275 28.3927 3.48472 28.4723L8.84632 33.8327C9.10456 34.1277 9.11904 34.5139 8.88192 34.7516L7.60095 36.0326C7.37589 36.257 7.01024 36.257 6.78518 36.0326L1.37472 30.6227C1.14966 30.3977 1.14966 30.032 1.37411 29.807L2.65508 28.526C2.77998 28.4011 2.94289 28.3468 3.09977 28.3468Z" fill="#FF2249"/>
<path d="M25.9861 3.63715C24.2773 3.52251 22.7242 4.0227 21.6074 5.04482C21.2809 5.3441 21.0052 5.68319 20.7711 6.05065C17.7633 6.23106 15.6895 8.72662 15.6895 12.2527C15.6895 12.2841 15.6919 12.3155 15.6967 12.3463C16.3526 16.5216 19.9402 20.1847 23.7463 20.5142C27.0094 20.5142 29.9466 18.5266 31.2312 15.4458L33.442 10.0233C33.7286 10.1747 34.0363 10.2568 34.3416 10.2568C34.8062 10.2568 35.2593 10.0824 35.6081 9.73426L36.8897 8.45269C37.5835 7.7576 37.5835 6.62687 36.8891 5.93118L31.4786 0.521316C30.7835 -0.173772 29.6522 -0.173772 28.9565 0.521316L27.6749 1.80289C27.1264 2.35256 27.0076 3.21237 27.3274 3.89298L26.0615 3.6468C26.0361 3.64197 26.0108 3.63835 25.9861 3.63715ZM30.1156 14.986C29.021 17.6113 26.5206 19.3074 23.7982 19.3098C20.5774 19.0287 17.4899 15.8471 16.8962 12.2051C16.9119 9.6697 18.2158 7.80225 20.1725 7.34851C20.0138 7.87164 19.9258 8.43459 19.9131 9.03132C19.9131 9.03494 19.9137 9.09468 19.9137 9.0983C19.9083 10.6098 20.7204 11.9293 21.9833 12.4585C22.3664 12.6196 22.7628 12.6986 23.1586 12.6986C23.1924 12.6986 23.2262 12.6944 23.26 12.6932L24.3256 14.0375C24.6496 14.4382 24.7908 14.9468 24.7226 15.4705C24.646 16.0655 24.302 16.6266 23.7789 17.0104L24.4933 17.983C25.2813 17.405 25.8008 16.5458 25.9197 15.625C26.0307 14.7712 25.7978 13.938 25.268 13.2833L24.541 12.3662C24.9169 12.1828 25.2795 11.9275 25.6156 11.5945L26.4096 10.6423L25.4834 9.86941L24.728 10.7787C24.0414 11.4581 23.2099 11.6657 22.4497 11.3453C21.6261 10.9995 21.1168 10.1403 21.1198 9.05606C21.1464 7.76967 21.5971 6.68962 22.4225 5.93359C23.2853 5.14317 24.5072 4.7552 25.8684 4.83726L28.6681 5.38211L32.4778 9.19061L30.1156 14.986ZM28.5287 2.65606L29.8096 1.37509C30.0347 1.15064 30.4004 1.15064 30.6254 1.37509L36.0353 6.78496C36.2603 7.01002 36.2603 7.37566 36.0359 7.60072L34.7549 8.88169C34.5178 9.11881 34.131 9.10614 33.8649 8.87445L28.475 3.48449C28.3084 3.27211 28.2897 2.8956 28.5287 2.65606Z" fill="#FF2249"/>
<path d="M25.5098 25.7683L26.3629 24.9151L32.3957 30.9479L31.5426 31.8011L25.5098 25.7683Z" fill="#FF2249"/>
<path d="M22.3242 26.5479H23.531V33.7884H22.3242V26.5479Z" fill="#FF2249"/>
<path d="M27.1504 21.7212H34.3909V22.9279H27.1504V21.7212Z" fill="#FF2249"/>
<path d="M3.79492 4.65015L4.64809 3.79697L10.0777 9.22657L9.22452 10.0797L3.79492 4.65015Z" fill="#FF2249"/>
<path d="M2.41016 12.0667H8.44391V13.2734H2.41016V12.0667Z" fill="#FF2249"/>
<path d="M12.668 2.41309H13.8747V8.44684H12.668V2.41309Z" fill="#FF2249"/>
</svg>
