<svg width="34" height="38" viewBox="0 0 34 38" fill="none" xmlns="http://www.w3.org/2000/svg">
<path d="M19.495 3.51381C19.3296 3.51384 19.1711 3.57955 19.0542 3.69648L17.2935 5.4565L14.7436 0.344149C14.6919 0.24091 14.6125 0.154067 14.5143 0.0933014C14.4161 0.0325357 14.3029 0.000234945 14.1875 0C14.072 3.2967e-06 13.9588 0.0320632 13.8605 0.0926073C13.7622 0.153151 13.6827 0.239801 13.6307 0.342902L12.0328 3.51381H9.64682C9.52302 3.51373 9.40201 3.55052 9.29919 3.61947C9.19638 3.68842 9.11642 3.78642 9.0695 3.90098L6.97904 9.01707L4.67599 3.88227C4.62682 3.77258 4.54699 3.67943 4.44611 3.61406C4.34523 3.54869 4.22761 3.51387 4.1074 3.51381H0.771895C0.606544 3.51381 0.447965 3.57949 0.331044 3.69641C0.214123 3.81334 0.148438 3.97191 0.148438 4.13727C0.148438 4.30262 0.214123 4.4612 0.331044 4.57812C0.447965 4.69504 0.606544 4.76072 0.771895 4.76072H3.70215L6.43476 10.855C6.48433 10.965 6.56472 11.0582 6.6662 11.1234C6.76767 11.1885 6.88587 11.2229 7.00647 11.2222H7.01707C7.13913 11.2202 7.25789 11.1823 7.35864 11.1134C7.45938 11.0445 7.53767 10.9475 7.5838 10.8345L10.0664 4.75948H12.4181C12.5336 4.75942 12.6468 4.72726 12.7451 4.6666C12.8434 4.60595 12.923 4.51917 12.9748 4.41595L14.185 2.01315L16.566 6.78634C16.6101 6.87458 16.6746 6.95107 16.7541 7.00954C16.8335 7.06801 16.9257 7.10678 17.0231 7.12267C17.1205 7.13855 17.2203 7.1311 17.3142 7.10092C17.4081 7.07074 17.4936 7.01869 17.5635 6.94906L19.7531 4.75948H22.2226C22.3879 4.75948 22.5465 4.69379 22.6634 4.57687C22.7804 4.45995 22.846 4.30137 22.846 4.13602C22.846 3.97067 22.7804 3.81209 22.6634 3.69517C22.5465 3.57825 22.3879 3.51256 22.2226 3.51256L19.495 3.51381Z" fill="#FF2249"/>
<path d="M24.2055 3.51392C24.0401 3.51392 23.8816 3.5796 23.7646 3.69652C23.6477 3.81344 23.582 3.97202 23.582 4.13737C23.582 4.30272 23.6477 4.4613 23.7646 4.57823C23.8816 4.69515 24.0401 4.76083 24.2055 4.76083H25.0341C25.1994 4.76083 25.358 4.69515 25.4749 4.57823C25.5918 4.4613 25.6575 4.30272 25.6575 4.13737C25.6575 3.97202 25.5918 3.81344 25.4749 3.69652C25.358 3.5796 25.1994 3.51392 25.0341 3.51392H24.2055Z" fill="#FF2249"/>
<path d="M29.5808 4.76063C29.7304 5.25795 30.0539 5.68487 30.4922 5.96347C30.9305 6.24207 31.4543 6.35375 31.9682 6.27813C32.482 6.20252 32.9514 5.94464 33.2909 5.55159C33.6303 5.15853 33.8171 4.65651 33.8171 4.13717C33.8171 3.61783 33.6303 3.11581 33.2909 2.72276C32.9514 2.3297 32.482 2.07183 31.9682 1.99621C31.4543 1.92059 30.9305 2.03228 30.4922 2.31087C30.0539 2.58947 29.7304 3.01639 29.5808 3.51371H27.3363C27.171 3.51371 27.0124 3.5794 26.8955 3.69632C26.7786 3.81324 26.7129 3.97182 26.7129 4.13717C26.7129 4.30252 26.7786 4.4611 26.8955 4.57802C27.0124 4.69494 27.171 4.76063 27.3363 4.76063H29.5808Z" fill="#FF2249"/>
<path d="M22.9293 16.4096C22.9908 16.3523 23.0472 16.2897 23.0976 16.2225C23.1122 16.1947 23.1311 16.1695 23.1537 16.1477C23.8176 15.3654 24.1635 14.3623 24.1231 13.337C24.0827 12.3118 23.6589 11.3391 22.9355 10.6114C22.2071 9.88707 21.2332 9.46268 20.2068 9.42226C19.1803 9.38185 18.1761 9.72837 17.393 10.3932C17.2802 10.4927 17.135 10.5476 16.9846 10.5476C16.8342 10.5476 16.689 10.4927 16.5763 10.3932C15.7973 9.72175 14.7927 9.37086 13.7651 9.41136C12.7375 9.45186 11.7636 9.88074 11.0399 10.6114C10.3121 11.3388 9.88478 12.3137 9.84319 13.3419C9.8016 14.3701 10.1487 15.3763 10.8155 16.1602C10.8343 16.1836 10.8509 16.2087 10.8654 16.235C10.9156 16.2966 10.9697 16.3549 11.0275 16.4096L16.9753 22.3636L22.9293 16.4096ZM15.4416 18.1739V16.7899H14.0512C13.8859 16.7899 13.7273 16.7242 13.6104 16.6073C13.4935 16.4903 13.4278 16.3318 13.4278 16.1664V14.3272C13.4278 14.1619 13.4935 14.0033 13.6104 13.8864C13.7273 13.7694 13.8859 13.7038 14.0512 13.7038H15.4416V12.3197C15.4416 12.1543 15.5072 11.9957 15.6242 11.8788C15.7411 11.7619 15.8997 11.6962 16.065 11.6962H17.898C18.0633 11.6962 18.2219 11.7619 18.3388 11.8788C18.4558 11.9957 18.5214 12.1543 18.5214 12.3197V13.7038H19.9118C20.0771 13.7038 20.2357 13.7694 20.3526 13.8864C20.4695 14.0033 20.5352 14.1619 20.5352 14.3272V16.1664C20.5352 16.3318 20.4695 16.4903 20.3526 16.6073C20.2357 16.7242 20.0771 16.7899 19.9118 16.7899H18.5214V18.1739C18.5214 18.3393 18.4558 18.4979 18.3388 18.6148C18.2219 18.7317 18.0633 18.7974 17.898 18.7974H16.065C15.8997 18.7974 15.7411 18.7317 15.6242 18.6148C15.5072 18.4979 15.4416 18.3393 15.4416 18.1739Z" fill="#FF2249"/>
<path d="M19.2894 15.5429V14.9506H17.8991C17.7337 14.9506 17.5751 14.885 17.4582 14.768C17.3413 14.6511 17.2756 14.4925 17.2756 14.3272V12.9431H16.6896V14.3272C16.6896 14.4925 16.6239 14.6511 16.5069 14.768C16.39 14.885 16.2314 14.9506 16.0661 14.9506H14.6758V15.5429H16.0661C16.2314 15.5429 16.39 15.6086 16.5069 15.7255C16.6239 15.8425 16.6896 16.001 16.6896 16.1664V17.5505H17.2756V16.1664C17.2756 16.001 17.3413 15.8425 17.4582 15.7255C17.5751 15.6086 17.7337 15.5429 17.8991 15.5429H19.2894Z" fill="#F4B2B0"/>
<path d="M7.23024 37.4074H15.2354C15.4008 37.4074 15.5594 37.3417 15.6763 37.2248C15.7932 37.1079 15.8589 36.9493 15.8589 36.784V33.1617C15.8589 32.9963 15.7932 32.8378 15.6763 32.7208C15.5594 32.6039 15.4008 32.5382 15.2354 32.5382H15.0952V30.9322C15.0937 30.0492 14.884 29.179 14.4832 28.3923C14.0824 27.6055 13.5018 26.9243 12.7884 26.404L4.0132 20.013V16.4243C4.01316 16.259 3.94745 16.1004 3.83052 15.9835L1.06424 13.2204C0.977051 13.1332 0.865973 13.0739 0.745052 13.0498C0.624131 13.0258 0.498795 13.0381 0.384889 13.0853C0.270983 13.1325 0.173622 13.2124 0.105114 13.3149C0.0366057 13.4174 2.64374e-05 13.5379 1.12318e-07 13.6612V25.8579C-9.26141e-05 26.0124 0.057232 26.1615 0.160852 26.2762L6.60678 33.4036V36.784C6.60678 36.9493 6.67247 37.1079 6.78939 37.2248C6.90631 37.3417 7.06489 37.4074 7.23024 37.4074ZM1.24505 15.1662L2.76628 16.6824V23.412C2.76632 23.5774 2.83203 23.7359 2.94896 23.8528L7.52015 28.4296C7.63773 28.5432 7.79522 28.606 7.95869 28.6046C8.12216 28.6032 8.27853 28.5376 8.39412 28.422C8.50972 28.3064 8.57529 28.1501 8.57671 27.9866C8.57813 27.8231 8.51529 27.6657 8.40172 27.5481L4.0132 23.1539V21.556L12.0558 27.4122C12.6101 27.8167 13.0612 28.3463 13.3724 28.958C13.6836 29.5696 13.8462 30.246 13.847 30.9322V32.5382H7.50456L1.24692 25.6178L1.24505 15.1662Z" fill="#F4B2B0"/>
<path d="M18.7289 37.4074H26.7341C26.8995 37.4074 27.0581 37.3417 27.175 37.2248C27.2919 37.1079 27.3576 36.9493 27.3576 36.784V33.4036L33.8035 26.2762C33.9071 26.1615 33.9645 26.0124 33.9644 25.8579V13.6612C33.9643 13.5379 33.9278 13.4174 33.8593 13.3149C33.7907 13.2124 33.6934 13.1325 33.5795 13.0853C33.4656 13.0381 33.3402 13.0258 33.2193 13.0498C33.0984 13.0739 32.9873 13.1332 32.9001 13.2204L30.1382 15.9835C30.0213 16.1004 29.9556 16.259 29.9555 16.4243V20.013L21.1741 26.404C20.4607 26.9243 19.8801 27.6055 19.4793 28.3923C19.0785 29.179 18.8688 30.0492 18.8673 30.9322V32.5382H18.7289C18.5636 32.5382 18.405 32.6039 18.2881 32.7208C18.1712 32.8378 18.1055 32.9963 18.1055 33.1617V36.784C18.1055 36.9493 18.1712 37.1079 18.2881 37.2248C18.405 37.3417 18.5636 37.4074 18.7289 37.4074ZM20.1161 30.9322C20.1171 30.2458 20.2798 29.5694 20.5913 28.9578C20.9027 28.3461 21.354 27.8166 21.9086 27.4122L29.9555 21.556V23.1539L25.5639 27.5449C25.5058 27.6028 25.4597 27.6714 25.4281 27.7471C25.3966 27.8227 25.3802 27.9038 25.38 27.9857C25.3796 28.1512 25.445 28.3101 25.5617 28.4275C25.6785 28.5448 25.837 28.6109 26.0025 28.6113C26.168 28.6117 26.3269 28.5464 26.4442 28.4296L31.0185 23.8559C31.1355 23.7391 31.2012 23.5805 31.2012 23.4152V16.6824L32.7175 15.1662V25.6178L26.4598 32.5382H20.1161V30.9322Z" fill="#F4B2B0"/>
</svg>
