<svg width="37" height="38" viewBox="0 0 37 38" fill="none" xmlns="http://www.w3.org/2000/svg">
<path d="M18.5453 20.8773H18.4139C17.1708 20.8773 16.0692 20.2728 15.2303 19.1354C14.0478 17.5164 13.5526 14.9342 14.0782 13.1205C14.0883 13.1 14.0883 13.0795 14.0984 13.059C14.5835 11.8601 15.3314 11.2043 16.3218 11.1121C17.1405 11.0301 18.0097 11.3375 18.8485 11.6347C19.6874 11.9318 20.5262 12.229 21.2539 12.1368C21.6223 12.0876 21.9957 12.1774 22.3031 12.3889C22.6105 12.6005 22.8306 12.9192 22.9215 13.2844C23.3965 15.1493 22.871 17.6393 21.6683 19.2173C20.8395 20.3035 19.7581 20.8773 18.5453 20.8773ZM15.2505 13.5098C14.8362 14.9546 15.2606 17.0962 16.2107 18.3976C16.8171 19.2276 17.565 19.6477 18.4139 19.6477H18.5453C19.3741 19.6477 20.1018 19.2481 20.6981 18.4591C21.6582 17.209 22.113 15.0674 21.739 13.5918C21.72 13.5195 21.6757 13.4568 21.6143 13.4153C21.5529 13.3738 21.4787 13.3564 21.4055 13.3664C20.3949 13.4996 19.4044 13.1512 18.4443 12.8028C16.6857 12.188 15.8772 11.9728 15.2505 13.5098Z" fill="#F4B2B0"/>
<path d="M14.554 16.3175C14.4147 16.3192 14.2791 16.2721 14.17 16.1843C13.6444 15.754 12.7045 14.2989 12.8157 12.7107C12.8662 11.9319 13.1997 10.8457 14.4328 9.98499C14.4833 9.47265 14.7056 9.09352 15.0897 8.85784C15.4535 8.63241 15.8881 8.58118 16.353 8.52994C16.8483 8.47871 17.3637 8.41723 17.7983 8.13032C17.9014 8.05905 18.0238 8.02179 18.1486 8.02362C18.2734 8.02546 18.3946 8.0663 18.4957 8.14056C18.5979 8.21327 18.6753 8.3165 18.717 8.43589C18.7586 8.55528 18.7625 8.68487 18.7281 8.80661C18.6829 8.96789 18.6491 9.13227 18.6271 9.29846C18.7787 9.28821 19.0111 9.24722 19.193 9.22673C19.5676 9.16063 19.9455 9.11616 20.325 9.09352C21.5681 9.02179 23.0033 10.0465 23.6703 11.481C24.3778 13.0078 24.0948 14.6268 22.9022 15.9282C22.7923 16.0477 22.64 16.1182 22.4789 16.1239C22.3178 16.1297 22.1611 16.0703 22.0431 15.9589C21.9252 15.8475 21.8557 15.6931 21.85 15.5298C21.8444 15.3664 21.9029 15.2075 22.0128 15.0879C23.1549 13.8378 22.8517 12.6184 22.5687 12.0139C22.0633 10.9277 21.0527 10.3026 20.3957 10.3334C20.0569 10.3555 19.7195 10.3966 19.3851 10.4563C18.6877 10.5691 18.0712 10.6613 17.6669 10.2002C17.5288 10.0383 17.4409 9.83869 17.4142 9.62635C17.1079 9.69539 16.7972 9.74332 16.4844 9.76981C15.6254 9.86203 15.6254 9.88253 15.6456 10.3026C15.6513 10.4132 15.627 10.5233 15.5753 10.6208C15.5236 10.7184 15.4466 10.7997 15.3525 10.856C14.5338 11.3581 14.0891 12.0036 14.0386 12.7926C13.9679 13.8993 14.6652 14.9957 14.9381 15.2211C15.001 15.2719 15.0533 15.3348 15.0919 15.4063C15.1306 15.4777 15.1549 15.5563 15.1634 15.6373C15.1718 15.7184 15.1643 15.8003 15.1412 15.8784C15.1182 15.9565 15.0801 16.0291 15.0291 16.0921C14.97 16.1615 14.8972 16.2175 14.8153 16.2564C14.7335 16.2952 14.6444 16.3161 14.554 16.3175Z" fill="#F4B2B0"/>
<path d="M20.3157 35.5406C20.1657 35.5384 20.0215 35.4811 19.91 35.3794C19.7985 35.2776 19.7272 35.1383 19.7093 34.9872C19.6911 34.8243 19.7372 34.6606 19.8375 34.532C19.9379 34.4034 20.0844 34.3202 20.245 34.3007C22.8995 33.9857 25.4253 32.9675 27.5685 31.3486C29.7117 29.7297 31.3967 27.5672 32.4539 25.0785C32.5169 24.9277 32.6364 24.8084 32.7861 24.7469C32.9358 24.6854 33.1035 24.6868 33.2523 24.7506C33.4011 24.8145 33.5187 24.9357 33.5794 25.0875C33.64 25.2393 33.6387 25.4093 33.5757 25.5601C32.4343 28.2489 30.6142 30.5851 28.2987 32.3337C25.9833 34.0822 23.2542 35.1812 20.3865 35.5201C20.3662 35.5357 20.341 35.543 20.3157 35.5406ZM16.4752 35.5201H16.3943C13.5643 35.1466 10.8785 34.0342 8.60007 32.2919C6.32165 30.5495 4.52876 28.2369 3.39707 25.5806C3.33407 25.4298 3.33276 25.2598 3.39341 25.108C3.45406 24.9562 3.57171 24.835 3.72048 24.7711C3.86925 24.7073 4.03694 24.7059 4.18668 24.7674C4.33641 24.8289 4.45592 24.9482 4.51891 25.099C5.56787 27.5562 7.22733 29.6955 9.33527 31.3083C11.4432 32.921 13.9276 33.952 16.5459 34.3007C16.6258 34.3108 16.703 34.3369 16.7728 34.3775C16.8427 34.4181 16.9039 34.4725 16.9528 34.5373C17.0017 34.6022 17.0374 34.6763 17.0578 34.7553C17.0782 34.8343 17.0828 34.9166 17.0715 34.9975C17.0526 35.1436 16.9815 35.2776 16.8715 35.3739C16.7615 35.4703 16.6205 35.5223 16.4752 35.5201ZM33.0198 13.2947C32.8995 13.2934 32.7822 13.2569 32.6818 13.1896C32.5814 13.1224 32.5023 13.0272 32.4539 12.9155C31.404 10.4571 29.743 8.31682 27.6332 6.70398C25.5234 5.09113 23.0369 4.06086 20.4168 3.71389C20.2559 3.69215 20.1102 3.60652 20.0117 3.47585C19.9131 3.34518 19.8698 3.18016 19.8912 3.0171C19.9127 2.85405 19.9971 2.7063 20.126 2.60638C20.2549 2.50645 20.4177 2.46253 20.5785 2.48427C23.4085 2.85769 26.0943 3.97009 28.3727 5.71248C30.6511 7.45486 32.444 9.76747 33.5757 12.4237C33.6073 12.4983 33.6239 12.5786 33.6248 12.6598C33.6256 12.741 33.6105 12.8215 33.5804 12.8968C33.5504 12.9721 33.5059 13.0405 33.4496 13.0983C33.3932 13.156 33.3262 13.2019 33.2523 13.2332C33.1809 13.2726 33.1011 13.2937 33.0198 13.2947ZM3.95293 13.2947C3.86971 13.2925 3.78754 13.2751 3.71037 13.2434C3.63648 13.2121 3.56944 13.1663 3.51312 13.1085C3.4568 13.0508 3.41232 12.9823 3.38225 12.907C3.35218 12.8318 3.33711 12.7512 3.33792 12.67C3.33873 12.5888 3.3554 12.5086 3.38696 12.4339C4.52838 9.74523 6.34849 7.40894 8.66396 5.66041C10.9794 3.91188 13.7085 2.81285 16.5762 2.47402C16.7371 2.455 16.8987 2.50153 17.0257 2.60338C17.1527 2.70522 17.2346 2.85405 17.2534 3.0171C17.2721 3.18016 17.2262 3.3441 17.1258 3.47285C17.0253 3.6016 16.8785 3.68462 16.7177 3.70364C14.0632 4.01866 11.5373 5.03682 9.39415 6.65571C7.25095 8.2746 5.56601 10.4371 4.5088 12.9258C4.46258 13.0362 4.38508 13.1301 4.28612 13.1958C4.18716 13.2615 4.0712 13.2959 3.95293 13.2947Z" fill="#FF2249"/>
<path d="M20.4961 5.94568C20.3899 5.94396 20.2858 5.91581 20.1929 5.8637L16.1704 3.50693C16.0782 3.45294 16.0016 3.37526 15.9484 3.28172C15.8952 3.18819 15.8672 3.08208 15.8672 2.97409C15.8659 2.86586 15.8934 2.75925 15.9467 2.66549C16.0001 2.57173 16.0773 2.49427 16.1704 2.44126L20.1929 0.0844869C20.2846 0.0291876 20.3894 0 20.4961 0C20.6028 0 20.7076 0.0291876 20.7993 0.0844869C20.8916 0.138481 20.9681 0.216156 21.0214 0.309694C21.0746 0.403232 21.1026 0.509334 21.1025 0.617322V5.33087C21.1051 5.43934 21.0781 5.54643 21.0246 5.64041C20.9712 5.73439 20.8932 5.81165 20.7993 5.8637C20.7069 5.91704 20.6025 5.94528 20.4961 5.94568ZM17.6965 2.97409L19.8897 4.25495V1.69324L17.6965 2.97409Z" fill="#F4B2B0"/>
<path d="M16.4738 37.9998C16.3676 37.9981 16.2635 37.97 16.1706 37.9179C16.0783 37.8639 16.0017 37.7862 15.9485 37.6927C15.8953 37.5991 15.8673 37.493 15.8674 37.385V32.6715C15.8648 32.563 15.8917 32.4559 15.9452 32.3619C15.9987 32.268 16.0767 32.1907 16.1706 32.1386C16.2631 32.0858 16.3675 32.058 16.4738 32.058C16.58 32.058 16.6844 32.0858 16.777 32.1386L20.7994 34.4954C20.8917 34.5494 20.9683 34.6271 21.0215 34.7206C21.0747 34.8142 21.1027 34.9203 21.1026 35.0283C21.1052 35.1367 21.0782 35.2438 21.0248 35.3378C20.9713 35.4318 20.8933 35.509 20.7994 35.5611L16.777 37.9158C16.6862 37.9733 16.5807 38.0025 16.4738 37.9998ZM17.0802 33.7474V36.3091L19.2733 35.0283L17.0802 33.7474Z" fill="#F4B2B0"/>
<path d="M27.2676 29.0441H9.70211C9.54128 29.0441 9.38704 28.9793 9.27331 28.864C9.15959 28.7487 9.0957 28.5923 9.0957 28.4293V27.8247C9.0957 23.4288 11.6729 22.5169 13.5427 21.8406C15.1294 21.277 15.8874 20.9491 15.847 19.5658C15.8403 19.4824 15.8503 19.3985 15.8763 19.3192C15.9024 19.2398 15.944 19.1666 15.9986 19.104C16.0533 19.0413 16.1199 18.9905 16.1944 18.9546C16.2688 18.9187 16.3497 18.8984 16.4321 18.8949C16.5146 18.8915 16.5968 18.9049 16.674 18.9345C16.7512 18.9641 16.8216 19.0092 16.8812 19.067C16.9407 19.1249 16.9882 19.1944 17.0206 19.2713C17.053 19.3482 17.0698 19.4309 17.0699 19.5145C17.1508 21.8713 15.4528 22.4759 13.957 23.0087C12.0873 23.6747 10.3287 24.2998 10.3186 27.8042H26.6713C26.6713 24.2896 24.9026 23.6645 23.0329 23.0087C21.5371 22.4759 19.829 21.8713 19.92 19.5145C19.9201 19.4309 19.9369 19.3482 19.9693 19.2713C20.0017 19.1944 20.0492 19.1249 20.1087 19.067C20.1683 19.0092 20.2387 18.9641 20.3159 18.9345C20.3931 18.9049 20.4753 18.8915 20.5577 18.8949C20.6402 18.8984 20.7211 18.9187 20.7955 18.9546C20.87 18.9905 20.9366 19.0413 20.9913 19.104C21.0459 19.1666 21.0875 19.2398 21.1136 19.3192C21.1396 19.3985 21.1496 19.4824 21.1429 19.5658C21.0924 20.9491 21.8605 21.277 23.4472 21.8406C25.3271 22.5066 27.8942 23.4186 27.8942 27.8247V28.4293C27.8892 28.5943 27.8209 28.7508 27.7039 28.8656C27.5869 28.9804 27.4304 29.0444 27.2676 29.0441Z" fill="#F4B2B0"/>
<path d="M36.3637 22.0147H34.1806C34.0198 22.0147 33.8656 21.95 33.7518 21.8347C33.6381 21.7194 33.5742 21.563 33.5742 21.3999V16.6024C33.5742 16.4393 33.6381 16.2829 33.7518 16.1676C33.8656 16.0523 34.0198 15.9875 34.1806 15.9875H36.3637C36.5245 15.9875 36.6787 16.0523 36.7925 16.1676C36.9062 16.2829 36.9701 16.4393 36.9701 16.6024V21.3979C36.9703 21.4788 36.9549 21.559 36.9245 21.6338C36.8941 21.7086 36.8495 21.7766 36.7932 21.8339C36.7368 21.8912 36.6699 21.9367 36.5962 21.9677C36.5225 21.9988 36.4435 22.0147 36.3637 22.0147ZM34.7971 20.7749H35.7573V17.2172H34.7971V20.7749Z" fill="#FF2249"/>
<path d="M28.9438 22.0147H26.7607C26.5999 22.0147 26.4456 21.95 26.3319 21.8347C26.2182 21.7194 26.1543 21.563 26.1543 21.3999V16.6024C26.1543 16.4393 26.2182 16.2829 26.3319 16.1676C26.4456 16.0523 26.5999 15.9875 26.7607 15.9875H28.9438C29.1046 15.9875 29.2588 16.0523 29.3725 16.1676C29.4863 16.2829 29.5502 16.4393 29.5502 16.6024V21.3979C29.5504 21.4788 29.5349 21.559 29.5046 21.6338C29.4742 21.7086 29.4296 21.7766 29.3733 21.8339C29.3169 21.8912 29.25 21.9367 29.1763 21.9677C29.1026 21.9988 29.0236 22.0147 28.9438 22.0147ZM27.3772 20.7749H28.3373V17.2172H27.3772V20.7749Z" fill="#FF2249"/>
<path d="M34.1815 20.6724H28.9462C28.7854 20.6724 28.6312 20.6076 28.5175 20.4923C28.4037 20.377 28.3398 20.2206 28.3398 20.0576C28.3398 19.8945 28.4037 19.7381 28.5175 19.6228C28.6312 19.5075 28.7854 19.4428 28.9462 19.4428H34.1815C34.3424 19.4428 34.4966 19.5075 34.6103 19.6228C34.724 19.7381 34.7879 19.8945 34.7879 20.0576C34.7894 20.1387 34.7748 20.2194 34.7448 20.2947C34.7149 20.3699 34.6703 20.4383 34.6137 20.4957C34.5571 20.5531 34.4896 20.5983 34.4154 20.6287C34.3411 20.6591 34.2616 20.6739 34.1815 20.6724ZM34.1815 18.5718H28.9462C28.7854 18.5718 28.6312 18.507 28.5175 18.3917C28.4037 18.2764 28.3398 18.12 28.3398 17.957C28.3398 17.7939 28.4037 17.6375 28.5175 17.5222C28.6312 17.4069 28.7854 17.3422 28.9462 17.3422H34.1815C34.3424 17.3422 34.4966 17.4069 34.6103 17.5222C34.724 17.6375 34.7879 17.7939 34.7879 17.957C34.7894 18.0381 34.7748 18.1188 34.7448 18.194C34.7149 18.2693 34.6703 18.3377 34.6137 18.3951C34.5571 18.4525 34.4896 18.4977 34.4154 18.5281C34.3411 18.5585 34.2616 18.5733 34.1815 18.5718Z" fill="#FF2249"/>
<path d="M10.2074 22.0147H8.02437C7.86354 22.0147 7.7093 21.95 7.59558 21.8347C7.48186 21.7194 7.41797 21.563 7.41797 21.3999V16.6024C7.41797 16.4393 7.48186 16.2829 7.59558 16.1676C7.7093 16.0523 7.86354 15.9875 8.02437 15.9875H10.2074C10.3683 15.9875 10.5225 16.0523 10.6362 16.1676C10.7499 16.2829 10.8138 16.4393 10.8138 16.6024V21.3979C10.8141 21.4788 10.7986 21.559 10.7682 21.6338C10.7379 21.7086 10.6933 21.7766 10.6369 21.8339C10.5806 21.8912 10.5137 21.9367 10.44 21.9677C10.3662 21.9988 10.2872 22.0147 10.2074 22.0147ZM8.63077 20.7749H9.59091V17.2172H8.63077V20.7749Z" fill="#FF2249"/>
<path d="M2.78945 22.0147H0.606403C0.445575 22.0147 0.291334 21.95 0.177611 21.8347C0.0638887 21.7194 0 21.563 0 21.3999L0 16.6024C0 16.4393 0.0638887 16.2829 0.177611 16.1676C0.291334 16.0523 0.445575 15.9875 0.606403 15.9875H2.78945C2.95028 15.9875 3.10452 16.0523 3.21825 16.1676C3.33197 16.2829 3.39586 16.4393 3.39586 16.6024V21.3979C3.39612 21.4788 3.38063 21.559 3.35028 21.6338C3.31992 21.7086 3.2753 21.7766 3.21896 21.8339C3.16263 21.8912 3.09569 21.9367 3.02198 21.9677C2.94828 21.9988 2.86926 22.0147 2.78945 22.0147ZM1.21281 20.7749H2.17294V17.2172H1.21281V20.7749Z" fill="#FF2249"/>
<path d="M8.02332 20.6724H2.78804C2.62722 20.6724 2.47297 20.6076 2.35925 20.4923C2.24553 20.377 2.18164 20.2206 2.18164 20.0576C2.18164 19.8945 2.24553 19.7381 2.35925 19.6228C2.47297 19.5075 2.62722 19.4428 2.78804 19.4428H8.02332C8.18415 19.4428 8.33839 19.5075 8.45211 19.6228C8.56584 19.7381 8.62973 19.8945 8.62973 20.0576C8.62973 20.2206 8.56584 20.377 8.45211 20.4923C8.33839 20.6076 8.18415 20.6724 8.02332 20.6724ZM8.02332 18.5718H2.78804C2.62722 18.5718 2.47297 18.507 2.35925 18.3917C2.24553 18.2764 2.18164 18.12 2.18164 17.957C2.18164 17.7939 2.24553 17.6375 2.35925 17.5222C2.47297 17.4069 2.62722 17.3422 2.78804 17.3422H8.02332C8.18415 17.3422 8.33839 17.4069 8.45211 17.5222C8.56584 17.6375 8.62973 17.7939 8.62973 17.957C8.62973 18.12 8.56584 18.2764 8.45211 18.3917C8.33839 18.507 8.18415 18.5718 8.02332 18.5718Z" fill="#FF2249"/>
</svg>
