<svg width="30" height="38" viewBox="0 0 30 38" fill="none" xmlns="http://www.w3.org/2000/svg">
<path fill-rule="evenodd" clip-rule="evenodd" d="M9.68774 11.3281C9.8253 14.2135 12.2512 16.6507 14.9872 16.6507C17.7232 16.6507 20.1404 14.2222 20.2867 11.3456L20.1829 7.21212C18.5911 8.65916 17.1718 8.60779 17.0168 8.59905C16.853 8.59031 16.7155 8.49522 16.6467 8.34112C16.6091 8.25755 16.5989 8.16424 16.6176 8.07453C16.6362 7.98482 16.6827 7.9033 16.7504 7.84165C17.0605 7.55748 17.2068 7.16949 17.2755 6.83396C14.1356 8.84059 10.9007 8.52145 9.61022 8.28101L9.68774 11.3281ZM14.9872 17.5207C13.4041 17.5207 11.8811 16.866 10.7118 15.6692C9.56764 14.4976 8.88747 12.9741 8.81869 11.3631V11.3543L8.73244 7.73672C8.73184 7.66852 8.74712 7.6011 8.77706 7.53983C8.807 7.47856 8.85078 7.42511 8.90494 7.38371C8.95891 7.34122 9.02251 7.31271 9.09012 7.3007C9.15772 7.28869 9.22724 7.29355 9.29252 7.31485C9.3351 7.3236 13.6891 8.53784 17.483 5.63501C17.6031 5.53993 17.7668 5.52353 17.9131 5.5749C18.0594 5.63501 18.1544 5.76398 18.1795 5.91917C18.1883 5.9618 18.2996 6.77166 17.9645 7.58153C18.5584 7.38371 19.3925 6.91812 20.2615 5.88529C20.3816 5.74758 20.5716 5.69622 20.7343 5.75633C20.8172 5.78503 20.8896 5.83817 20.9418 5.90878C20.994 5.9794 21.0237 6.06417 21.0269 6.15197L21.1557 11.3456V11.3806C21.0782 12.9916 20.4067 14.5151 19.2626 15.6867C18.0933 16.866 16.5703 17.5207 14.9872 17.5207Z" fill="#F4B2B0"/>
<path fill-rule="evenodd" clip-rule="evenodd" d="M3.87251 27.8543H0.438892C0.322606 27.8539 0.211189 27.8075 0.128962 27.7252C0.0467347 27.6429 0.000374238 27.5313 0 27.4149C0 24.7361 1.57433 22.2902 4.00898 21.1885L11.6743 17.7097V16.2451C11.6743 16.1286 11.7206 16.0169 11.8029 15.9345C11.8852 15.8521 11.9968 15.8058 12.1132 15.8058C12.2296 15.8058 12.3412 15.8521 12.4235 15.9345C12.5059 16.0169 12.5521 16.1286 12.5521 16.2451V17.9851C12.5518 18.0689 12.5273 18.1508 12.4816 18.221C12.4359 18.2912 12.3709 18.3466 12.2944 18.3807L4.37145 21.9809C2.37569 22.8847 1.04155 24.8225 0.88761 26.9843H3.87251C3.9888 26.9847 4.10022 27.0311 4.18244 27.1134C4.26467 27.1957 4.31103 27.3073 4.3114 27.4237C4.31031 27.6565 4.1127 27.8543 3.87251 27.8543ZM29.4571 27.8543H26.0245C25.9081 27.8543 25.7965 27.808 25.7142 27.7256C25.6319 27.6432 25.5857 27.5315 25.5857 27.4149C25.5857 27.2984 25.6319 27.1867 25.7142 27.1043C25.7965 27.0219 25.9081 26.9756 26.0245 26.9756H29.0095C28.8544 24.8137 27.5214 22.876 25.5256 21.9721L17.6026 18.3722C17.5261 18.3382 17.4611 18.2827 17.4154 18.2125C17.3697 18.1423 17.3452 18.0604 17.345 17.9766V16.2803C17.345 16.1638 17.3912 16.0521 17.4735 15.9697C17.5558 15.8873 17.6675 15.841 17.7839 15.841C17.9003 15.841 18.0119 15.8873 18.0942 15.9697C18.1765 16.0521 18.2228 16.1638 18.2228 16.2803V17.6924L25.8881 21.1712C28.3227 22.274 29.8971 24.72 29.8971 27.3977C29.8872 27.6567 29.6984 27.8545 29.4571 27.8545V27.8543Z" fill="#F4B2B0"/>
<path fill-rule="evenodd" clip-rule="evenodd" d="M9.2243 11.1466C9.13106 11.1483 9.04006 11.1178 8.96665 11.0603C8.7865 10.9226 7.88252 10.1641 7.58119 8.33885C7.09098 5.3158 8.614 2.31897 11.3838 0.880673C13.147 -0.0406705 16.5883 -1.04836 19.9182 2.4392C20.2883 2.52554 21.1661 2.81844 21.7426 3.79116C22.6378 5.29831 22.4227 7.68419 21.0886 10.8788C21.0666 10.9314 21.0344 10.9792 20.994 11.0194C20.9536 11.0595 20.9056 11.0913 20.8529 11.1129C20.8002 11.1346 20.7437 11.1456 20.6867 11.1453C20.6298 11.1451 20.5734 11.1337 20.5209 11.1116C20.4683 11.0896 20.4206 11.0574 20.3805 11.0169C20.3404 10.9765 20.3086 10.9285 20.287 10.8757C20.2654 10.8229 20.2544 10.7664 20.2546 10.7094C20.2549 10.6523 20.2663 10.5959 20.2883 10.5433C21.7939 6.9093 21.51 5.10923 21.0023 4.248C20.4947 3.38677 19.6857 3.27529 19.6518 3.27529C19.5486 3.26541 19.4532 3.21608 19.3854 3.13758C16.5555 0.105783 13.6896 0.657714 11.7889 1.64791C9.35422 2.91353 8.0037 5.54969 8.4426 8.20224C8.70025 9.75202 9.45794 10.3466 9.49179 10.3728C9.68067 10.5193 9.72434 10.7859 9.57804 10.9838C9.48196 11.0865 9.35313 11.1466 9.2243 11.1466Z" fill="#F4B2B0"/>
<path fill-rule="evenodd" clip-rule="evenodd" d="M12.1824 22.464C12.1392 22.4654 12.0961 22.4625 12.0535 22.4552C11.9531 22.4387 11.8571 22.4019 11.7713 22.347C11.6855 22.2922 11.6118 22.2204 11.5546 22.1361L9.54901 19.242C9.48386 19.1472 9.45899 19.0304 9.47987 18.9173C9.50076 18.8041 9.56568 18.7039 9.66037 18.6387C9.75505 18.5735 9.87174 18.5486 9.98476 18.5695C10.0978 18.5904 10.1979 18.6554 10.263 18.7502L12.1987 21.5579L17.5157 17.6485C17.7133 17.5108 17.9808 17.5447 18.126 17.7436C18.2712 17.9425 18.2297 18.2092 18.031 18.3545L12.6278 22.3339C12.5001 22.4115 12.345 22.464 12.1824 22.464Z" fill="#F4B2B0"/>
<path fill-rule="evenodd" clip-rule="evenodd" d="M17.7232 22.464C17.5621 22.4646 17.4052 22.4132 17.2755 22.3175L11.8647 18.3382C11.7733 18.2682 11.7125 18.1656 11.6948 18.0518C11.6771 17.938 11.7039 17.8217 11.7697 17.7272C11.9073 17.5381 12.1824 17.4944 12.38 17.6321L17.7057 21.5503L19.7189 18.7688C19.7514 18.7219 19.7931 18.682 19.8414 18.6517C19.8897 18.6213 19.9436 18.6011 19.9999 18.5922C20.0563 18.5833 20.1138 18.586 20.1691 18.6C20.2244 18.614 20.2762 18.6391 20.3216 18.6737C20.5192 18.8114 20.5629 19.0868 20.4166 19.2846L18.3433 22.1612C18.2232 22.3252 18.0507 22.4367 17.8443 22.4629C17.8007 22.464 17.7581 22.464 17.7232 22.464Z" fill="#F4B2B0"/>
<path fill-rule="evenodd" clip-rule="evenodd" d="M5.23955 23.9536C4.99326 23.954 4.75716 24.0521 4.583 24.2264C4.40884 24.4008 4.31083 24.6371 4.31046 24.8837V36.1912C4.31083 36.4377 4.40884 36.6741 4.583 36.8484C4.75716 37.0228 4.99326 37.1209 5.23955 37.1213H24.6567C24.903 37.1209 25.1391 37.0228 25.3133 36.8484C25.4874 36.6741 25.5854 36.4377 25.5858 36.1912V24.8837C25.5854 24.6371 25.4874 24.4008 25.3133 24.2264C25.1391 24.0521 24.903 23.954 24.6567 23.9536H5.23955ZM24.6567 38H5.23955C4.25041 38 3.44141 37.1901 3.44141 36.1999V24.8837C3.44141 23.8935 4.25041 23.0836 5.23955 23.0836H24.6567C25.6458 23.0836 26.4549 23.8935 26.4549 24.8837V36.1912C26.4636 37.1901 25.6546 38 24.6567 38Z" fill="#FF2249"/>
<path fill-rule="evenodd" clip-rule="evenodd" d="M12.0019 31.2741H17.8952V29.5604H12.0019V31.2741ZM18.3341 32.1441H11.5717C11.4554 32.1437 11.344 32.0973 11.2618 32.015C11.1795 31.9326 11.1332 31.8211 11.1328 31.7047V29.121C11.1328 28.8795 11.3304 28.6816 11.563 28.6816H18.3254C18.4417 28.682 18.5531 28.7284 18.6353 28.8107C18.7176 28.8931 18.7639 29.0046 18.7643 29.121V31.7047C18.7643 31.9451 18.5743 32.1441 18.3341 32.1441Z" fill="#FF2249"/>
<path fill-rule="evenodd" clip-rule="evenodd" d="M19.3411 26.3558C19.2654 26.3557 19.1904 26.3706 19.1204 26.3996C19.0505 26.4286 18.9869 26.4711 18.9334 26.5247C18.8798 26.5783 18.8374 26.6419 18.8084 26.712C18.7795 26.782 18.7646 26.8571 18.7647 26.9329V34.1506C18.7646 34.2264 18.7795 34.3015 18.8084 34.3715C18.8374 34.4416 18.8798 34.5052 18.9334 34.5588C18.9869 34.6124 19.0505 34.6549 19.1204 34.6839C19.1904 34.7129 19.2654 34.7278 19.3411 34.7277H19.4448C19.5206 34.7278 19.5956 34.7129 19.6655 34.6839C19.7355 34.6549 19.7991 34.6124 19.8526 34.5588C19.9062 34.5052 19.9486 34.4416 19.9776 34.3715C20.0065 34.3015 20.0214 34.2264 20.0213 34.1506V26.934C20.0214 26.8582 20.0065 26.7831 19.9776 26.7131C19.9486 26.643 19.9062 26.5794 19.8526 26.5258C19.7991 26.4722 19.7355 26.4297 19.6655 26.4007C19.5956 26.3717 19.5206 26.3568 19.4448 26.3569H19.3411V26.3558ZM19.4438 35.5966H19.34C19.1501 35.5969 18.962 35.5597 18.7865 35.4871C18.611 35.4145 18.4515 35.3079 18.3172 35.1735C18.1829 35.039 18.0764 34.8794 18.0039 34.7037C17.9314 34.528 17.8942 34.3397 17.8945 34.1495V26.9329C17.8942 26.7428 17.9314 26.5544 18.0039 26.3787C18.0764 26.203 18.1829 26.0434 18.3172 25.9089C18.4515 25.7745 18.611 25.6679 18.7865 25.5953C18.962 25.5227 19.1501 25.4855 19.34 25.4858H19.4438C19.6337 25.4855 19.8218 25.5227 19.9973 25.5953C20.1728 25.6679 20.3323 25.7745 20.4666 25.9089C20.6009 26.0434 20.7074 26.203 20.7799 26.3787C20.8524 26.5544 20.8896 26.7428 20.8893 26.9329V34.1506C20.8893 34.943 20.2353 35.5968 19.4438 35.5968V35.5966Z" fill="#FF2249"/>
<path fill-rule="evenodd" clip-rule="evenodd" d="M10.4535 26.3558C10.3778 26.3557 10.3028 26.3706 10.2328 26.3996C10.1628 26.4286 10.0993 26.4711 10.0457 26.5247C9.99217 26.5783 9.94971 26.6419 9.92077 26.712C9.89182 26.782 9.87696 26.8571 9.87703 26.9329V34.1506C9.87696 34.2264 9.89182 34.3015 9.92077 34.3715C9.94971 34.4416 9.99217 34.5052 10.0457 34.5588C10.0993 34.6124 10.1628 34.6549 10.2328 34.6839C10.3028 34.7129 10.3778 34.7278 10.4535 34.7277H10.5485C10.6242 34.7278 10.6992 34.7129 10.7692 34.6839C10.8391 34.6549 10.9027 34.6124 10.9562 34.5588C11.0098 34.5052 11.0523 34.4416 11.0812 34.3715C11.1101 34.3015 11.125 34.2264 11.1249 34.1506V26.934C11.125 26.8582 11.1101 26.7831 11.0812 26.7131C11.0523 26.643 11.0098 26.5794 10.9562 26.5258C10.9027 26.4722 10.8391 26.4297 10.7692 26.4007C10.6992 26.3717 10.6242 26.3568 10.5485 26.3569H10.4535V26.3558ZM10.5561 35.5966H10.4611C10.2712 35.5969 10.0831 35.5597 9.90757 35.4871C9.73204 35.4145 9.57256 35.3079 9.43827 35.1735C9.30397 35.039 9.19751 34.8794 9.12499 34.7037C9.05246 34.528 9.0153 34.3397 9.01563 34.1495V26.9329C9.0153 26.7428 9.05246 26.5544 9.12499 26.3787C9.19751 26.203 9.30397 26.0434 9.43827 25.9089C9.57256 25.7745 9.73204 25.6679 9.90757 25.5953C10.0831 25.5227 10.2712 25.4855 10.4611 25.4858H10.5561C10.746 25.4855 10.9342 25.5227 11.1097 25.5953C11.2852 25.6679 11.4447 25.7745 11.579 25.9089C11.7133 26.0434 11.8197 26.203 11.8923 26.3787C11.9648 26.5544 12.002 26.7428 12.0016 26.9329V34.1506C12.0016 34.943 11.3477 35.5968 10.5561 35.5968V35.5966Z" fill="#FF2249"/>
<path fill-rule="evenodd" clip-rule="evenodd" d="M8.25062 28.0871C8.16473 28.0871 8.07968 28.104 8.00032 28.1369C7.92096 28.1698 7.84886 28.218 7.78813 28.2788C7.72739 28.3396 7.67922 28.4118 7.64637 28.4912C7.61351 28.5707 7.59662 28.6558 7.59665 28.7418V32.3419C7.59662 32.4279 7.61351 32.5131 7.64637 32.5925C7.67922 32.6719 7.72739 32.7441 7.78813 32.8049C7.84886 32.8657 7.92096 32.9139 8.00032 32.9468C8.07968 32.9797 8.16473 32.9966 8.25062 32.9966H8.35433C8.44022 32.9966 8.52528 32.9797 8.60463 32.9468C8.68399 32.9139 8.75609 32.8657 8.81683 32.8049C8.87756 32.7441 8.92573 32.6719 8.95858 32.5925C8.99144 32.5131 9.00833 32.4279 9.00831 32.3419V28.7418C9.00833 28.6558 8.99144 28.5707 8.95858 28.4912C8.92573 28.4118 8.87756 28.3396 8.81683 28.2788C8.75609 28.218 8.68399 28.1698 8.60463 28.1369C8.52528 28.104 8.44022 28.0871 8.35433 28.0871H8.25062ZM8.36307 33.8666H8.25935C7.42524 33.8666 6.73633 33.1857 6.73633 32.3419V28.7418C6.73604 28.5415 6.77524 28.3431 6.85168 28.158C6.92811 27.9729 7.04029 27.8047 7.18177 27.6631C7.32325 27.5214 7.49126 27.4092 7.67618 27.3326C7.86109 27.2561 8.05926 27.2169 8.25935 27.2172H8.36307C9.19718 27.2172 9.88609 27.8981 9.88609 28.7418V32.3419C9.88609 33.1769 9.19718 33.8666 8.36307 33.8666Z" fill="#FF2249"/>
<path fill-rule="evenodd" clip-rule="evenodd" d="M21.5349 28.0871C21.449 28.0871 21.364 28.104 21.2846 28.1369C21.2053 28.1698 21.1332 28.218 21.0724 28.2788C21.0117 28.3396 20.9635 28.4118 20.9307 28.4912C20.8978 28.5707 20.8809 28.6558 20.8809 28.7418V32.3419C20.8809 32.4279 20.8978 32.5131 20.9307 32.5925C20.9635 32.6719 21.0117 32.7441 21.0724 32.8049C21.1332 32.8657 21.2053 32.9139 21.2846 32.9468C21.364 32.9797 21.449 32.9966 21.5349 32.9966H21.6386C21.7245 32.9966 21.8096 32.9797 21.8889 32.9468C21.9683 32.9139 22.0404 32.8657 22.1011 32.8049C22.1619 32.7441 22.21 32.6719 22.2429 32.5925C22.2757 32.5131 22.2926 32.4279 22.2926 32.3419V28.7418C22.2926 28.6558 22.2757 28.5707 22.2429 28.4912C22.21 28.4118 22.1619 28.3396 22.1011 28.2788C22.0404 28.218 21.9683 28.1698 21.8889 28.1369C21.8096 28.104 21.7245 28.0871 21.6386 28.0871H21.5349ZM21.6463 33.8666H21.5426C21.3425 33.8669 21.1443 33.8276 20.9594 33.7511C20.7745 33.6746 20.6065 33.5623 20.465 33.4207C20.3235 33.279 20.2113 33.1108 20.1349 32.9257C20.0584 32.7406 20.0192 32.5422 20.0195 32.3419V28.7418C20.0192 28.5415 20.0584 28.3431 20.1349 28.158C20.2113 27.9729 20.3235 27.8047 20.465 27.6631C20.6065 27.5214 20.7745 27.4092 20.9594 27.3326C21.1443 27.2561 21.3425 27.2169 21.5426 27.2172H21.6463C22.4804 27.2172 23.1693 27.8981 23.1693 28.7418V32.3419C23.1693 33.1769 22.4815 33.8666 21.6463 33.8666Z" fill="#FF2249"/>
</svg>
