<svg width="37" height="33" viewBox="0 0 37 33" fill="none" xmlns="http://www.w3.org/2000/svg">
<path fill-rule="evenodd" clip-rule="evenodd" d="M16.2968 29.3412C16.2968 29.0748 16.0804 28.8584 15.814 28.8584C15.5476 28.8584 15.3311 29.0748 15.3311 29.3412C15.3311 29.6073 15.5482 29.823 15.814 29.823C16.0797 29.823 16.2968 29.6073 16.2968 29.3412ZM25.7278 31.8618H13.8125V26.8193L14.1817 26.8189C17.9072 26.8154 21.6335 26.8064 25.359 26.8158L25.7277 26.8167V31.8618H25.7278Z" fill="#F4B2B0"/>
<path fill-rule="evenodd" clip-rule="evenodd" d="M34.1162 27.6631C34.0048 27.8531 33.8065 27.9596 33.6047 27.9596C33.5038 27.9596 33.3994 27.9335 33.3089 27.8795L30.5532 26.2894C30.2714 26.1262 30.174 25.7647 30.3375 25.4815C30.501 25.1993 30.8629 25.1015 31.1448 25.265L33.9005 26.8558C34.1823 27.0194 34.2797 27.3806 34.1162 27.6631ZM36.6667 18.5223C36.6667 18.849 36.4022 19.1138 36.0751 19.1138H32.8949C32.5679 19.1138 32.3034 18.849 32.3034 18.5223C32.3034 18.1959 32.5678 17.9311 32.8949 17.9311H36.0751C36.4022 17.931 36.6667 18.1959 36.6667 18.5223ZM30.5254 11.5122C30.3618 11.2293 30.4593 10.8674 30.7446 10.7043L33.4968 9.11418C33.7822 8.95066 34.1406 9.04772 34.3041 9.33063C34.4676 9.61353 34.3736 9.97501 34.0884 10.1386L31.3362 11.7287C31.2422 11.7823 31.1378 11.808 31.0404 11.808C30.835 11.8079 30.6367 11.7018 30.5254 11.5122ZM25.2679 5.5216L26.8581 2.76723C27.0181 2.4844 27.3834 2.38764 27.6653 2.55078C27.9472 2.71401 28.0445 3.07586 27.881 3.35869L26.2909 6.11298C26.1831 6.3026 25.9813 6.40875 25.7794 6.40875C25.6785 6.40875 25.5776 6.38302 25.4837 6.32943C25.1983 6.16599 25.1044 5.80443 25.2679 5.5216ZM6.14129 25.1534C6.30481 25.4366 6.20738 25.7981 5.92559 25.9613L3.16989 27.5514C3.07593 27.6053 2.97503 27.6303 2.87412 27.6303C2.66884 27.6303 2.4705 27.5249 2.36265 27.3349C2.19913 27.0524 2.29656 26.6902 2.57836 26.5267L5.33406 24.9366C5.61592 24.7742 5.97778 24.8709 6.14129 25.1534ZM3.77177 18.7345H0.591531C0.264496 18.7345 0 18.4697 0 18.1433C0 17.8166 0.264422 17.5518 0.591531 17.5518H3.77177C4.09888 17.5518 4.3633 17.8166 4.3633 18.1433C4.3633 18.4697 4.09888 18.7345 3.77177 18.7345ZM6.32921 11.1837C6.22135 11.3733 6.02302 11.4795 5.81773 11.4795C5.71683 11.4795 5.61592 11.4541 5.52197 11.4002L2.76967 9.81009C2.48433 9.64687 2.3869 9.28539 2.55049 9.00211C2.71401 8.71929 3.07593 8.62252 3.3612 8.78567L6.11343 10.3758C6.39529 10.5393 6.49272 10.9008 6.32921 11.1837ZM9.11625 3.16908C8.95273 2.88617 9.05016 2.52432 9.33196 2.36117C9.61382 2.19795 9.97568 2.29509 10.1392 2.57762L11.7293 5.33199C11.8928 5.61482 11.7954 5.97674 11.5136 6.13989C11.4196 6.19349 11.3187 6.21921 11.2178 6.21921C11.0125 6.21921 10.8142 6.11306 10.7063 5.92345L9.11625 3.16908ZM17.9332 3.77177V0.591531C17.9332 0.264792 18.1976 0 18.5247 0C18.8483 0 19.1128 0.264792 19.1128 0.591531V3.77177C19.1128 4.09844 18.8484 4.36293 18.5247 4.36293C18.1976 4.36293 17.9332 4.09844 17.9332 3.77177ZM16.6667 29.3413C16.6667 29.8113 16.2839 30.1927 15.8142 30.1927C15.3445 30.1927 14.9617 29.8113 14.9617 29.3413C14.9617 28.8702 15.3445 28.4888 15.8142 28.4888C16.2839 28.4889 16.6667 28.8702 16.6667 29.3413ZM25.6924 26.0034C25.5671 26.0028 17.9749 26.0028 14.1196 26.0066C13.8795 24.7951 12.9506 24.0181 12.0494 23.2641C10.7967 22.2189 9.61375 21.231 9.7599 19.0268L9.95128 16.189C10.0591 14.5905 11.6771 13.6354 13.1768 13.6354H17.1503C17.9123 13.6354 18.5351 14.2568 18.5351 15.0209C18.5351 15.785 17.9123 16.4065 17.1503 16.4065H12.8671C12.5401 16.4065 12.2756 16.6712 12.2756 16.998C12.2756 17.3247 12.54 17.5895 12.8671 17.5895H13.984C15.4384 17.5895 16.4718 17.8863 17.0528 18.4719C17.0807 18.4977 17.105 18.5241 17.1294 18.5513C17.1294 18.5537 17.1329 18.5565 17.1364 18.5589C17.8079 19.3209 17.8079 20.5008 17.8044 21.5467V21.7255C17.8044 22.0519 18.0688 22.317 18.3959 22.317C18.7231 22.317 18.9875 22.0519 18.9875 21.7255V21.5491C18.9909 20.7261 18.9909 19.7711 18.6778 18.8988C19.4398 18.7877 20.087 18.3139 20.435 17.6583C20.8421 17.9792 21.3535 18.1708 21.9102 18.1708C22.6235 18.1708 23.2603 17.8567 23.6987 17.3591C23.7335 17.3981 23.7682 17.4356 23.803 17.4725C24.2554 17.9231 24.8539 18.1708 25.4871 18.1708C25.9742 18.1708 26.437 18.0237 26.8337 17.7509C27.4774 21.5222 27.7209 23.7554 25.6924 26.0034ZM25.3584 31.4923V27.1854C24.2484 27.1826 21.263 27.1819 14.1823 27.1885V31.4922L25.3584 31.4923ZM14.7564 10.1409C15.4175 10.1409 15.9533 10.6774 15.9533 11.3375V12.4526H13.5595V11.3375C13.5595 10.6774 14.0988 10.1409 14.7564 10.1409ZM17.1364 10.5842V12.4527H17.1503C18.2254 12.4527 19.1475 13.1176 19.5302 14.0574V10.5842C19.5302 9.92452 18.9943 9.38762 18.3333 9.38762C17.6757 9.38762 17.1364 9.92452 17.1364 10.5842ZM17.9193 17.6652C18.0515 17.715 18.1907 17.7414 18.3333 17.7414C18.9944 17.7414 19.5303 17.2045 19.5303 16.5448V15.9843C19.2241 16.7401 18.5665 17.3173 17.7627 17.5149C17.8045 17.5546 17.8497 17.5946 17.8915 17.6364C17.9018 17.6458 17.9088 17.6558 17.9193 17.6652ZM21.9102 10.6423C21.2491 10.6423 20.7133 11.1792 20.7133 11.8389V15.7916C20.7133 16.4513 21.2491 16.9882 21.9102 16.9882C22.5679 16.9882 23.1071 16.4516 23.1071 15.7916V11.8389C23.1071 11.1792 22.5679 10.6423 21.9102 10.6423ZM25.4871 11.7087C24.826 11.7087 24.2902 12.2456 24.2902 12.9053V15.7898V15.7915C24.2902 16.1091 24.4155 16.4091 24.6416 16.636C24.8678 16.8632 25.167 16.9881 25.4871 16.9881C25.8038 16.9881 26.103 16.8629 26.3292 16.636C26.5553 16.4091 26.6806 16.1092 26.6806 15.7915V12.9052C26.6806 12.5876 26.5554 12.2876 26.3292 12.0605C26.103 11.834 25.8038 11.7087 25.4871 11.7087ZM27.794 16.3695C27.8392 16.1826 27.8635 15.9889 27.8635 15.7916V12.9053C27.8635 12.2717 27.6165 11.675 27.1676 11.2244C26.7153 10.7742 26.1203 10.526 25.4871 10.526C24.9791 10.526 24.5059 10.6858 24.1196 10.9578C23.7682 10.0806 22.9088 9.45955 21.9102 9.45955C21.4265 9.45955 20.9742 9.60496 20.5984 9.85408C20.2887 8.89825 19.391 8.20485 18.3333 8.20485C17.4251 8.20485 16.6318 8.7184 16.2316 9.47071C15.8245 9.14989 15.3131 8.9582 14.7563 8.9582C13.4446 8.9582 12.3799 10.0254 12.3799 11.3375V12.5208C10.5949 12.8225 8.90734 14.1165 8.77169 16.1092L8.58031 18.9474C8.3924 21.7529 9.99992 23.0939 11.2908 24.1718C12.3417 25.0508 12.9888 25.6385 12.9993 26.6029V32.0838C12.9993 32.4105 13.2637 32.675 13.5908 32.675H25.9498C26.2769 32.675 26.5414 32.4105 26.5414 32.0838V26.8298C27.7383 25.5188 28.3298 24.1628 28.4551 22.4624C28.5734 20.8583 28.2637 19.0772 27.8705 16.8218L27.794 16.3695Z" fill="#FF2249"/>
</svg>
