<svg width="38" height="38" viewBox="0 0 38 38" fill="none" xmlns="http://www.w3.org/2000/svg">
<path d="M0.613281 34.3228H37.3875V37.3873H0.613281V34.3228Z" fill="#FF2249"/>
<path d="M6.12903 21.9113V20.2258H4.90323V16.5484C4.90323 15.1944 6.00086 14.0968 7.35484 14.0968V10.4194C6.67781 10.4194 6.12903 9.87058 6.12903 9.19355C6.12903 8.51652 6.67781 7.96774 7.35484 7.96774V6.74194C7.35484 6.06491 7.90362 5.51613 8.58065 5.51613H12.2581C12.935 5.51613 13.4839 6.06491 13.4839 6.74194V7.35484H14.7098C15.7236 7.35476 16.5484 6.52987 16.5484 5.51613C16.5484 2.47452 14.0739 0 11.0323 0H8.1048C4.64964 0 1.83871 2.81093 1.83871 6.26617C1.83871 7.06693 1.98948 7.84991 2.2869 8.59336L2.84793 9.99576C2.99166 10.3552 3.06452 10.7337 3.06452 11.1207C3.06452 12.0459 2.65019 12.9079 1.92773 13.4858L1.25821 14.0215C0.458605 14.6611 0 15.6153 0 16.6394C0 17.5349 0.348742 18.3768 0.981948 19.0101L1.38348 19.4117C1.67706 19.7051 1.83871 20.0954 1.83871 20.5105C1.83871 22.0433 3.08574 23.2903 4.61853 23.2903H6.43908C6.2405 22.8723 6.12903 22.4049 6.12903 21.9113Z" fill="#FF2249"/>
<path d="M20.7762 25.742H21.3963C22.7786 25.742 23.9032 24.6174 23.9032 23.2351V22.7327C23.9032 22.1865 23.7272 21.681 23.4295 21.2689C24.6258 20.6927 25.7721 20.0051 26.8476 19.2199C27.6772 19.4804 28.5405 19.6129 29.4194 19.6129C34.1507 19.6129 38 15.7637 38 11.0323C38 6.30092 34.1507 2.45166 29.4194 2.45166C24.688 2.45166 20.8387 6.30092 20.8387 11.0323C20.8387 12.542 21.2292 14.0022 21.9724 15.2963L21.6781 15.4435C20.0602 16.2525 18.6428 17.4532 17.5789 18.9161L15.9043 21.2187L12.5262 21.0075C12.6463 20.768 12.8032 20.5475 12.9955 20.3552C13.7057 19.645 14.0968 18.7008 14.0968 17.6964C14.0968 16.0265 12.9753 14.5399 11.3697 14.0811L11.1298 14.0125C11.0974 14.0033 11.0647 13.9955 11.0323 13.9865V13.4328C12.7693 13.1402 14.0968 11.6254 14.0968 9.8065V6.74198C14.0968 5.72816 13.2719 4.90327 12.2581 4.90327H8.58065C8.24271 4.90327 7.96774 4.62831 7.96774 4.29037C7.96774 3.95243 8.24271 3.67747 8.58065 3.67747H9.19355V2.45166H8.58065C7.56683 2.45166 6.74194 3.27647 6.74194 4.29037C6.74194 4.76093 6.91983 5.19065 7.21165 5.51618C6.91983 5.84178 6.74194 6.27143 6.74194 6.74198V7.45992C6.02852 7.7129 5.51613 8.39452 5.51613 9.19359C5.51613 9.99267 6.02852 10.6743 6.74194 10.9273V13.5456C5.3449 13.8303 4.29032 15.0685 4.29032 16.5484V20.8388H5.51613V21.9113C5.51613 23.1666 6.12313 24.2828 7.05896 24.9819L7.29838 26.9678H0V38H38V26.9678H20.4569L20.7762 25.742ZM22.0645 11.0323C22.0645 6.9768 25.3639 3.67747 29.4194 3.67747C33.4749 3.67747 36.7742 6.9768 36.7742 11.0323C36.7742 15.0878 33.4749 18.3871 29.4194 18.3871C28.9628 18.3871 28.5114 18.3443 28.0684 18.2621C28.8518 17.6012 29.5891 16.8871 30.2692 16.1251L31.5897 14.6457L32.3814 14.4478C33.5243 14.162 34.3226 13.1397 34.3226 11.9616C34.3226 11.6859 34.2784 11.4133 34.1911 11.1512L33.7782 9.91299C33.7327 9.77624 33.7096 9.63397 33.7096 9.49009V7.8105C33.7097 6.88341 32.9553 6.12908 32.0283 6.12908C31.3033 6.12908 30.6623 6.59113 30.4331 7.27881L28.9182 11.8235L23.0707 14.7473C22.4111 13.6236 22.0645 12.35 22.0645 11.0323ZM32.6153 10.3005L33.0282 11.5387C33.0737 11.6755 33.0969 11.8177 33.0969 11.9616C33.0969 12.5761 32.6804 13.1095 32.0842 13.2585L31.4461 13.418L30.1207 12.0926L31.5961 7.66639C31.6582 7.48007 31.8319 7.35489 32.0283 7.35489C32.2795 7.35489 32.4839 7.55929 32.4839 7.8105V9.49009C32.4839 9.76582 32.5281 10.0384 32.6153 10.3005ZM18.5703 19.6369C19.5191 18.3323 20.7834 17.2613 22.2264 16.5399L29.2984 13.0039L30.4152 14.1207L29.3547 15.3089C27.4223 17.4739 25.0061 19.2345 22.3544 20.4165C22.0591 20.294 21.7355 20.2259 21.3964 20.2259C20.511 20.2259 19.7086 20.6815 19.2555 21.4281L17.3541 21.3092L18.5703 19.6369ZM12.871 17.6965C12.871 18.3734 12.6074 19.0098 12.1287 19.4884C11.7211 19.896 11.4169 20.3868 11.2332 20.9267L10.4194 20.8758V20.8388V20.2259V16.5484C10.4194 15.9803 10.2634 15.4483 9.993 14.9917C10.2615 15.0496 10.5285 15.1157 10.7931 15.1913L11.0329 15.2599C12.1152 15.569 12.871 16.571 12.871 17.6965ZM7.35484 8.58069H7.96774V6.74198C7.96774 6.40404 8.24271 6.12908 8.58065 6.12908H12.2581C12.596 6.12908 12.871 6.40404 12.871 6.74198V9.8065C12.871 11.1583 11.7712 12.2581 10.4194 12.2581H9.80645V13.7055C9.19914 13.5953 8.58494 13.5268 7.96774 13.4992V9.8065H7.35484C7.0169 9.8065 6.74194 9.53153 6.74194 9.19359C6.74194 8.85566 7.0169 8.58069 7.35484 8.58069ZM5.51613 16.5484C5.51613 15.5345 6.34102 14.7097 7.35484 14.7097C8.36866 14.7097 9.19355 15.5345 9.19355 16.5484V19.6129H5.51613V16.5484ZM6.74194 20.8388H9.19355V21.3069L8.64538 22.4033L9.74179 22.9516L10.1733 22.0887L19.9797 22.7016L20.2506 22.1599C20.469 21.7231 20.908 21.4517 21.3964 21.4517C22.1028 21.4517 22.6775 22.0264 22.6775 22.7329V23.2352C22.6775 23.9417 22.1028 24.5163 21.3964 24.5163H9.34677C7.91044 24.5163 6.74194 23.3478 6.74194 21.9115V20.8388ZM9.34677 25.742H13.7232C13.6965 25.857 13.6709 25.9722 13.6478 26.0875L13.4958 26.8476L14.6978 27.0881L14.8498 26.3279C14.889 26.1319 14.935 25.9362 14.986 25.7421H19.5095L18.945 27.9097C18.3376 30.2421 16.2301 31.871 13.82 31.871C11.143 31.871 8.88258 29.8667 8.56211 27.2089L8.36996 25.6153C8.682 25.6977 9.00922 25.742 9.34677 25.742ZM36.7742 28.1936V36.7742H1.22581V28.1936H7.50308C8.23114 31.0407 10.8114 33.0968 13.82 33.0968C16.7879 33.0968 19.3832 31.0908 20.1313 28.2186L20.1378 28.1936H36.7742Z" fill="#F4B2B0"/>
</svg>
