<svg width="53" height="33" viewBox="0 0 53 33" fill="none" xmlns="http://www.w3.org/2000/svg">
<path d="M34.7119 0C34.8188 5.58759e-05 34.9239 0.0278931 35.0166 0.0810547C35.1094 0.134266 35.1862 0.2114 35.2402 0.303711L36.1211 1.80859H39.3467C40.3232 1.80812 41.26 2.19485 41.9521 2.88379C42.6442 3.57274 43.0351 4.50789 43.0391 5.48438C43.0429 6.46103 42.6593 7.4002 41.9727 8.09473C41.5222 8.5502 40.9648 8.87432 40.3594 9.04688L42.2959 12.3545C42.8248 12.2501 43.3662 12.196 43.9131 12.1953C45.574 12.1953 47.1981 12.6886 48.5791 13.6113C49.9599 14.5341 51.0363 15.8455 51.6719 17.3799C52.3074 18.9143 52.4734 20.6026 52.1494 22.2314C51.8254 23.8603 51.0259 25.3568 49.8516 26.5312C49.3763 27.0065 48.8475 27.4198 48.2793 27.7656H51.6865C51.849 27.7656 52.0052 27.8295 52.1201 27.9443C52.235 28.0592 52.2997 28.2154 52.2998 28.3779V29.5273C52.299 30.2316 52.0185 30.9063 51.5205 31.4043C51.0225 31.9023 50.3478 32.1828 49.6436 32.1836H2.66992C1.96571 32.1828 1.29093 31.9023 0.792969 31.4043C0.295015 30.9063 0.0144633 30.2316 0.0136719 29.5273V28.3779C0.0137391 28.2154 0.0784632 28.0592 0.193359 27.9443C0.308292 27.8295 0.464494 27.7656 0.626953 27.7656H4.03027C2.99094 27.1328 2.0968 26.2791 1.41504 25.2588C0.492357 23.8779 7.0386e-05 22.2545 0 20.5938C0.00270352 18.3674 0.887687 16.2325 2.46191 14.6582C4.03623 13.0839 6.17105 12.198 8.39746 12.1953C10.0583 12.1953 11.6815 12.6886 13.0625 13.6113C14.4435 14.5341 15.5206 15.8454 16.1562 17.3799C16.4644 18.1239 16.661 18.9042 16.7461 19.6963C16.7433 19.6704 16.7423 19.6441 16.7393 19.6182C16.6918 19.2043 16.6135 18.7945 16.5039 18.3926H17.3242L18.7646 14.5459C18.8805 14.2351 18.8842 13.8938 18.7764 13.5801C18.6685 13.2663 18.4554 12.9991 18.1729 12.8252L8.07715 6.63086C7.9881 6.57595 7.91438 6.49949 7.86328 6.4082C7.81217 6.31689 7.78539 6.21402 7.78516 6.10938C7.78182 5.63337 7.90752 5.16543 8.14844 4.75488C8.38944 4.34429 8.73699 4.00556 9.1543 3.77637C9.56816 3.54162 10.038 3.42335 10.5137 3.43359C10.9895 3.44386 11.454 3.58245 11.8574 3.83496L16.9336 6.96387H26.1543C26.3165 6.96378 26.4721 6.89976 26.5869 6.78516C26.7018 6.67025 26.7665 6.51406 26.7666 6.35156C26.7666 6.18899 26.7019 6.03292 26.5869 5.91797C26.4721 5.80322 26.3166 5.73837 26.1543 5.73828H21.4922C22.6138 4.06245 24.329 2.8744 26.292 2.41309C28.2552 1.95182 30.3206 2.25179 32.0713 3.25293L30.8848 1.22656H26.8584C26.696 1.22644 26.5406 1.16172 26.4258 1.04688C26.3109 0.932019 26.2462 0.776666 26.2461 0.614258C26.2461 0.451685 26.3108 0.29562 26.4258 0.180664C26.4269 0.179522 26.4285 0.178866 26.4297 0.177734C26.5443 0.0644599 26.6981 0.000106209 26.8594 0H34.7119ZM34.8496 17.8467C34.1245 19.3261 33.0009 20.574 31.6045 21.4482C30.2079 22.3225 28.5939 22.789 26.9463 22.7949H16.5039C16.6978 22.0774 16.7962 21.337 16.7969 20.5938C16.7969 20.5573 16.7934 20.5208 16.793 20.4844C16.8006 21.0679 16.7488 21.6534 16.6338 22.2314C16.3098 23.8603 15.5102 25.3568 14.3359 26.5312C13.8607 27.0065 13.3318 27.4198 12.7637 27.7656H39.5459C38.5066 27.1328 37.6124 26.2791 36.9307 25.2588C36.008 23.8779 35.5157 22.2545 35.5156 20.5938C35.5183 18.3674 36.4034 16.2325 37.9775 14.6582C38.1384 14.4973 38.3064 14.3445 38.4785 14.1982L37.4639 12.4639L34.8496 17.8467ZM9.45605 15.2725C8.40376 15.0631 7.31254 15.1705 6.32129 15.5811C5.33012 15.9916 4.4828 16.6871 3.88672 17.5791C3.29063 18.4712 2.97266 19.5208 2.97266 20.5938C2.97432 22.0319 3.54654 23.4108 4.56348 24.4277C5.58048 25.4446 6.95928 26.017 8.39746 26.0186C9.47024 26.0185 10.5191 25.7004 11.4111 25.1045C12.3032 24.5084 12.9986 23.6602 13.4092 22.6689C13.8197 21.6778 13.9271 20.5873 13.7178 19.5352C13.5085 18.4829 12.992 17.5165 12.2334 16.7578C11.4748 15.9992 10.5083 15.4818 9.45605 15.2725ZM44.9717 15.2725C43.9194 15.0631 42.8282 15.1705 41.8369 15.5811C40.8457 15.9916 39.9984 16.6871 39.4023 17.5791C38.8063 18.4712 38.4883 19.5208 38.4883 20.5938C38.4899 22.0319 39.0622 23.4108 40.0791 24.4277C41.0961 25.4447 42.4749 26.017 43.9131 26.0186C44.9858 26.0186 46.0347 25.7004 46.9268 25.1045C47.8189 24.5084 48.5142 23.6602 48.9248 22.6689C49.3353 21.6778 49.4427 20.5874 49.2334 19.5352C49.0241 18.4829 48.5076 17.5165 47.749 16.7578C46.9904 15.9992 46.024 15.4818 44.9717 15.2725ZM8.39453 16.3955C10.7134 16.3955 12.5938 18.2759 12.5938 20.5947C12.5936 22.9135 10.7133 24.793 8.39453 24.793C6.07591 24.7928 4.1964 22.9134 4.19629 20.5947C4.19629 18.276 6.07585 16.3957 8.39453 16.3955ZM43.9141 16.3955C44.7445 16.3955 45.5566 16.6421 46.2471 17.1035C46.9375 17.5649 47.4752 18.2211 47.793 18.9883C48.1107 19.7555 48.1942 20.5996 48.0322 21.4141C47.8702 22.2285 47.47 22.9763 46.8828 23.5635C46.2956 24.1507 45.5478 24.5509 44.7334 24.7129C43.9191 24.8749 43.0747 24.7922 42.3076 24.4746C41.5404 24.1568 40.8842 23.6182 40.4229 22.9277C39.9615 22.2372 39.7148 21.4252 39.7148 20.5947C39.716 19.4815 40.1591 18.4141 40.9463 17.627C41.7335 16.8398 42.8008 16.3967 43.9141 16.3955ZM16.7852 20.2207C16.7834 20.1823 16.7845 20.1438 16.7822 20.1055L16.7793 20.0771C16.7822 20.1249 16.783 20.1729 16.7852 20.2207ZM22.7529 12.3398C22.6222 12.3399 22.4949 12.3815 22.3896 12.459C22.2843 12.5366 22.2067 12.6465 22.168 12.7715C22.1293 12.8964 22.1309 13.0308 22.1738 13.1543C22.2168 13.2777 22.2985 13.3841 22.4062 13.458V13.459L27.1074 16.6826H24.2783C24.1158 16.6827 23.9596 16.7474 23.8447 16.8623C23.7301 16.9771 23.6661 17.1327 23.666 17.2949C23.666 17.4573 23.73 17.6136 23.8447 17.7285C23.9596 17.8434 24.1158 17.9081 24.2783 17.9082H29.7168C30.2201 17.9082 30.7134 17.7653 31.1387 17.4961C31.5638 17.2269 31.9039 16.8425 32.1191 16.3877L33.6191 13.2148C33.6633 13.1214 33.684 13.0182 33.6777 12.915C33.6714 12.8119 33.6382 12.7123 33.583 12.625C33.5277 12.5377 33.4519 12.4649 33.3613 12.415C33.2708 12.3652 33.1688 12.3398 33.0654 12.3398H22.7529ZM31.0137 15.8643C30.9252 16.0514 30.7965 16.2178 30.6377 16.3506C30.479 16.4832 30.2934 16.5798 30.0938 16.6338C29.8939 16.6878 29.6845 16.6978 29.4805 16.6631C29.2764 16.6284 29.0819 16.5497 28.9111 16.4326L24.7334 13.5674H32.0986L31.0137 15.8643ZM39.4736 13.4707C39.9789 13.1555 40.5147 12.8936 41.0732 12.6924L34.3604 1.22559H32.3066L39.4736 13.4707Z" fill="#005ECD"/>
</svg>
