<svg width="55" height="55" viewBox="0 0 55 55" fill="none" xmlns="http://www.w3.org/2000/svg">
<path d="M3.22266 48.5547H16.4033C21.4395 48.5547 24.2429 51.3961 24.9414 51.7773H30.0586C30.7567 51.3962 33.561 48.5547 38.5967 48.5547H51.7773V16.1133H55V51.7773H38.6104C34.1069 51.7775 31.7383 54.8311 31.4971 55H23.5029C23.2582 54.8288 20.9235 51.7775 16.3896 51.7773H0V12.8906H3.22266V48.5547ZM48.5566 45.333C38.2605 45.333 34.8318 44.6544 29.8564 47.9727C29.5755 48.1571 29.329 48.3309 29.1133 48.4873V14.5029C29.1133 13.7493 29.0749 13.0044 29 12.2725C31.8979 10.5627 35.1854 9.66895 38.5986 9.66895H48.5566V45.333ZM12.8906 0C20.9463 0 25.8887 6.50558 25.8887 14.502V46.9434C25.8887 40.724 20.7807 35.6641 14.502 35.6641H12.8906V0ZM9.66797 38.8867H14.502C18.8934 38.8867 22.4853 42.3256 22.6582 46.6182C20.701 45.7717 18.5839 45.332 16.4033 45.332H6.44531V6.44531H9.66797V38.8867Z" fill="#005ECD"/>
</svg>
