<svg width="55" height="42" viewBox="0 0 55 42" fill="none" xmlns="http://www.w3.org/2000/svg">
<path fill-rule="evenodd" clip-rule="evenodd" d="M9.89062 3.4541V24.3515H44.664V3.4541H9.89062Z" fill="#005ECD"/>
<path fill-rule="evenodd" clip-rule="evenodd" d="M45.3258 25.6713H9.23268C8.86818 25.6713 8.57276 25.3759 8.57276 25.0115V2.79389C8.57276 2.42935 8.86818 2.13411 9.23268 2.13411L45.3258 2.13407C45.6903 2.13407 45.9857 2.42946 45.9857 2.79392L45.9858 25.0114C45.9858 25.3759 45.6903 25.6714 45.3258 25.6713ZM6.43754 0.581783L6.43765 27.8067H48.121V0.581709C48.121 0.261023 47.8601 0.000111609 47.5393 0.000111609L7.01925 0C6.69852 0 6.43754 0.261097 6.43754 0.581783Z" fill="#005ECD"/>
<path fill-rule="evenodd" clip-rule="evenodd" d="M48.4217 29.127H6.14617L0.515625 38.353L54.4409 38.353L48.4217 29.127ZM25.8777 31.9168C25.8777 32.2812 25.5822 32.5767 25.2177 32.5767H24.1699C23.8054 32.5767 23.5099 32.2813 23.5099 31.9168C23.5099 31.5523 23.8054 31.2568 24.1699 31.2568L25.2177 31.2567C25.5822 31.2567 25.8777 31.5523 25.8777 31.9168ZM20.7106 31.9168C20.7106 32.2812 20.4152 32.5767 20.0506 32.5767H19.0029C18.6385 32.5767 18.343 32.2813 18.343 31.9168C18.343 31.5523 18.6385 31.2568 19.0029 31.2568L20.0506 31.2567C20.4152 31.2567 20.7106 31.5523 20.7106 31.9168ZM15.5436 31.9168C15.5436 32.2812 15.2481 32.5767 14.8836 32.5767H13.8358C13.4714 32.5767 13.1759 32.2813 13.1759 31.9168C13.1759 31.5523 13.4714 31.2568 13.8358 31.2568L14.8836 31.2567C15.2481 31.2567 15.5436 31.5523 15.5436 31.9168ZM10.3767 31.9168C10.3767 32.2812 10.0812 32.5767 9.71676 32.5767H8.66893C8.30447 32.5767 8.009 32.2813 8.009 31.9168C8.009 31.5523 8.30447 31.2568 8.66893 31.2568L9.71676 31.2567C10.0812 31.2567 10.3767 31.5523 10.3767 31.9168ZM7.13264 34.9046C7.4971 34.9046 7.79253 35.2001 7.79253 35.5646C7.79257 35.929 7.4971 36.2244 7.13264 36.2244H6.08473C5.72027 36.2244 5.42481 35.929 5.42481 35.5646C5.42481 35.2 5.72027 34.9046 6.08473 34.9046L7.13264 34.9046ZM29.337 32.5767C28.9725 32.5767 28.677 32.2813 28.677 31.9168C28.677 31.5523 28.9725 31.2568 29.337 31.2568L30.3847 31.2567C30.7491 31.2567 31.0446 31.5523 31.0446 31.9168C31.0446 32.2812 30.7491 32.5767 30.3847 32.5767H29.337ZM41.5952 35.5646C41.5953 35.2 41.8906 34.9046 42.2551 34.9046L43.3029 34.9046C43.6674 34.9046 43.9628 35.2001 43.9628 35.5646C43.9629 35.929 43.6674 36.2244 43.3029 36.2244H42.2551C41.8906 36.2244 41.5952 35.929 41.5952 35.5646ZM47.4221 36.2244C47.0576 36.2244 46.7621 35.929 46.7621 35.5646C46.7621 35.2 47.0576 34.9046 47.4221 34.9046L48.4699 34.9046C48.8344 34.9046 49.1298 35.2001 49.1298 35.5646C49.1299 35.929 48.8344 36.2244 48.4699 36.2244H47.4221ZM21.5871 34.9046L32.969 34.9046C33.3335 34.9046 33.6288 35.2001 33.6288 35.5646C33.6288 35.929 33.3335 36.2244 32.969 36.2244H21.5871C21.2225 36.2244 20.9272 35.929 20.9272 35.5646C20.9272 35.2 21.2225 34.9046 21.5871 34.9046ZM18.1265 35.5646C18.1265 35.929 17.831 36.2244 17.4666 36.2244H16.4188C16.0543 36.2244 15.7588 35.929 15.7588 35.5646C15.7588 35.2 16.0543 34.9046 16.4188 34.9046L17.4666 34.9046C17.831 34.9046 18.1265 35.2001 18.1265 35.5646ZM12.9596 35.5646C12.9596 35.929 12.664 36.2244 12.2996 36.2244H11.2518C10.8872 36.2244 10.5918 35.929 10.5918 35.5646C10.5918 35.2 10.8872 34.9046 11.2518 34.9046L12.2996 34.9046C12.6641 34.9046 12.9596 35.2001 12.9596 35.5646ZM37.0881 36.2244C36.7237 36.2244 36.4282 35.929 36.4282 35.5646C36.4282 35.2 36.7236 34.9046 37.0881 34.9046L38.1359 34.9046C38.5004 34.9046 38.7958 35.2001 38.7958 35.5646C38.7958 35.929 38.5004 36.2244 38.1359 36.2244H37.0881ZM34.5052 32.5767C34.1407 32.5767 33.8453 32.2813 33.8453 31.9168C33.8453 31.5523 34.1407 31.2568 34.5052 31.2568L35.5518 31.2567C35.9162 31.2567 36.2117 31.5523 36.2117 31.9168C36.2117 32.2812 35.9162 32.5767 35.5518 32.5767H34.5052ZM39.6722 32.5767C39.3077 32.5767 39.0123 32.2813 39.0123 31.9168C39.0123 31.5523 39.3077 31.2568 39.6722 31.2568L40.72 31.2567C41.0846 31.2567 41.38 31.5523 41.38 31.9168C41.38 32.2812 41.0846 32.5767 40.72 32.5767H39.6722ZM44.8393 32.5767C44.4748 32.5767 44.1793 32.2813 44.1793 31.9168C44.1793 31.5523 44.4748 31.2568 44.8393 31.2568L45.8871 31.2567C46.2516 31.2567 46.547 31.5523 46.547 31.9168C46.547 32.2812 46.2516 32.5767 45.8871 32.5767H44.8393Z" fill="#005ECD"/>
<path fill-rule="evenodd" clip-rule="evenodd" d="M55 39.6729H0V41.5117C0 41.6493 0.111735 41.7616 0.249023 41.7616L54.7509 41.7616C54.8882 41.7616 54.9999 41.6493 54.9999 41.5119L55 39.6729Z" fill="#005ECD"/>
</svg>
