<svg width="55" height="55" viewBox="0 0 55 55" fill="none" xmlns="http://www.w3.org/2000/svg">
<path d="M50.7637 8.64727H46.3511V3.26499C46.3502 2.39932 46.006 1.56935 45.3939 0.957227C44.7818 0.345106 43.9518 0.000846064 43.0861 0H36.9124C36.0468 0.000846064 35.2168 0.345106 34.6047 0.957227C33.9926 1.56935 33.6483 2.39932 33.6475 3.26499C33.6445 4.37676 33.6496 7.60886 33.6475 8.64727H29.2348C28.1461 8.64794 27.1021 9.08075 26.3322 9.85062C25.5624 10.6205 25.1296 11.6645 25.1289 12.7532V26.2287C28.5311 25.8664 31.6584 27.9262 31.7182 31.5913C31.6708 32.2618 31.8197 47.8779 31.639 48.0645C31.5326 48.7687 31.2798 49.4428 30.8969 50.0433C30.8969 50.0433 47.0832 50.0643 50.7637 50.0433C51.8524 50.0426 52.8964 49.6098 53.6662 48.84C54.4361 48.0701 54.8689 47.0262 54.8696 45.9374V12.7532C54.8689 11.6645 54.4361 10.6205 53.6663 9.85063C52.8964 9.08075 51.8525 8.64794 50.7637 8.64727ZM46.3511 16.4536V42.2371C46.3472 42.4969 46.2413 42.7448 46.0562 42.9272C45.871 43.1096 45.6216 43.2119 45.3617 43.2119C45.1018 43.2118 44.8523 43.1096 44.6672 42.9272C44.4821 42.7448 44.3762 42.4969 44.3723 42.237V16.4536C44.3762 16.1937 44.4821 15.9458 44.6672 15.7634C44.8524 15.581 45.1018 15.4787 45.3617 15.4787C45.6216 15.4787 45.871 15.581 46.0562 15.7634C46.2413 15.9458 46.3472 16.1937 46.3511 16.4536ZM40.9886 16.4536V42.2371C40.9846 42.4968 40.8786 42.7445 40.6935 42.9268C40.5084 43.1091 40.259 43.2112 39.9992 43.2112C39.7395 43.2112 39.4901 43.109 39.305 42.9268C39.1199 42.7445 39.0139 42.4967 39.0099 42.237V16.4536C39.0139 16.1938 39.1199 15.9461 39.305 15.7638C39.4901 15.5815 39.7395 15.4794 39.9993 15.4794C40.259 15.4794 40.5084 15.5815 40.6935 15.7638C40.8786 15.9461 40.9846 16.1938 40.9886 16.4536ZM35.6262 16.4536V42.2371C35.6222 42.4968 35.5162 42.7445 35.3311 42.9268C35.1459 43.1091 34.8966 43.2112 34.6368 43.2112C34.377 43.2112 34.1277 43.109 33.9426 42.9268C33.7575 42.7445 33.6515 42.4967 33.6475 42.237V16.4536C33.6515 16.1938 33.7575 15.9461 33.9426 15.7638C34.1277 15.5815 34.3771 15.4794 34.6368 15.4794C34.8966 15.4794 35.146 15.5815 35.3311 15.7638C35.5162 15.9461 35.6222 16.1938 35.6262 16.4536ZM35.6262 7.16318V3.26499C35.6259 3.09598 35.6589 2.92857 35.7234 2.77237C35.7879 2.61616 35.8827 2.47423 36.0022 2.35473C36.1217 2.23523 36.2636 2.1405 36.4198 2.07598C36.576 2.01147 36.7434 1.97843 36.9124 1.97878H43.0861C43.4269 1.97976 43.7535 2.11559 43.9945 2.35659C44.2355 2.59758 44.3713 2.92417 44.3723 3.26499C44.372 4.31423 44.3725 7.65362 44.3723 8.64727H35.6262V7.16318Z" fill="#005ECD"/>
<path d="M29.5117 51.5271C29.5215 52.2438 29.8139 52.9276 30.3253 53.4297C30.8367 53.9318 31.5257 54.2117 32.2424 54.2084H33.3209C34.0402 54.2078 34.7311 53.9279 35.2479 53.4277C35.7648 52.9274 36.0671 52.246 36.0912 51.5271C34.9751 51.5265 29.5117 51.5271 29.5117 51.5271Z" fill="#005ECD"/>
<path d="M43.9062 51.5272C43.9303 52.2461 44.2326 52.9275 44.7495 53.4278C45.2663 53.928 45.9572 54.2079 46.6765 54.2085H47.7549C48.4737 54.2062 49.1637 53.9258 49.6801 53.4259C50.1966 52.926 50.4995 52.2455 50.5252 51.5272C49.4086 51.5264 43.9062 51.5272 43.9062 51.5272Z" fill="#005ECD"/>
<path d="M29.7407 47.2037V31.5911C29.7366 30.695 29.3788 29.8367 28.7451 29.203C28.1114 28.5693 27.2532 28.2115 26.357 28.2074C26.357 28.2074 23.4735 28.2114 23.0822 28.2074V26.2286C23.1486 25.8047 23.1236 25.3715 23.0087 24.9581C22.8939 24.5446 22.692 24.1606 22.4164 23.8316C22.1409 23.5027 21.7982 23.2365 21.4113 23.051C21.0244 22.8654 20.6023 22.7648 20.1734 22.7559H9.57722C8.8046 22.755 8.06324 23.0609 7.51599 23.6063C6.96874 24.1517 6.66033 24.892 6.65852 25.6647C6.67633 26.0015 6.64566 27.825 6.65852 28.2074H3.38368C2.48718 28.2103 1.62824 28.5678 0.994314 29.2017C0.360391 29.8357 0.00295013 30.6946 0 31.5911V47.2037C0.00128244 48.1007 0.358188 48.9606 0.992472 49.5949C1.62676 50.2292 2.48666 50.5861 3.38368 50.5874C7.40863 50.5962 26.3472 50.5874 26.3472 50.5874C26.7922 50.5882 27.2331 50.5014 27.6445 50.3317C28.056 50.1621 28.43 49.913 28.7451 49.5988C29.0603 49.2845 29.3104 48.9113 29.4813 48.5003C29.6521 48.0893 29.7403 47.6487 29.7407 47.2037ZM22.538 47.0553C22.2759 47.0544 22.0247 46.9499 21.8394 46.7646C21.654 46.5792 21.5495 46.328 21.5487 46.0659V32.7289C21.5487 32.4665 21.6529 32.2149 21.8385 32.0293C22.024 31.8438 22.2756 31.7395 22.538 31.7395C22.8004 31.7395 23.0521 31.8438 23.2376 32.0293C23.4232 32.2149 23.5274 32.4665 23.5274 32.7289V46.0659C23.5266 46.328 23.4221 46.5792 23.2367 46.7646C23.0514 46.95 22.8002 47.0545 22.538 47.0553ZM14.8704 47.0553C14.6082 47.0544 14.357 46.9499 14.1717 46.7646C13.9863 46.5792 13.8818 46.328 13.881 46.0659V32.7289C13.881 32.4665 13.9852 32.2149 14.1708 32.0293C14.3563 31.8438 14.608 31.7395 14.8704 31.7395C15.1328 31.7395 15.3844 31.8438 15.57 32.0293C15.7555 32.2149 15.8597 32.4665 15.8597 32.7289V46.0659C15.8606 46.1961 15.8356 46.3251 15.7862 46.4456C15.7368 46.566 15.664 46.6754 15.5719 46.7675C15.4799 46.8595 15.3705 46.9324 15.25 46.9818C15.1296 47.0312 15.0005 47.0562 14.8704 47.0553ZM7.21257 47.0553C7.0824 47.0562 6.95334 47.0312 6.83291 46.9818C6.71247 46.9324 6.60305 46.8595 6.511 46.7675C6.41895 46.6754 6.34611 46.566 6.2967 46.4456C6.24729 46.3251 6.22231 46.1961 6.22319 46.0659V32.7289C6.22319 32.4665 6.32743 32.2149 6.51297 32.0293C6.69852 31.8438 6.95017 31.7395 7.21257 31.7395C7.47497 31.7395 7.72662 31.8438 7.91217 32.0293C8.09771 32.2149 8.20195 32.4665 8.20195 32.7289V46.0659C8.20113 46.328 8.09663 46.5792 7.91126 46.7646C7.72589 46.95 7.47472 47.0545 7.21257 47.0553ZM8.63728 25.6647C8.63923 25.4169 8.7392 25.18 8.91532 25.0057C9.09145 24.8314 9.32941 24.734 9.57719 24.7346H20.1734C21.0345 24.7682 21.1634 25.5185 21.1034 26.2286L21.1035 28.2074H8.63728V25.6647Z" fill="#005ECD"/>
<path d="M4.36328 52.5661C4.44719 53.2369 4.7728 53.8542 5.2791 54.3022C5.78541 54.7503 6.43768 54.9983 7.11375 55H8.20207C8.87814 54.9983 9.53041 54.7503 10.0367 54.3022C10.543 53.8542 10.8686 53.2369 10.9525 52.5661C9.84025 52.5657 4.36328 52.5661 4.36328 52.5661Z" fill="#005ECD"/>
<path d="M18.7969 52.5661C18.8808 53.2369 19.2064 53.8542 19.7127 54.3022C20.219 54.7503 20.8713 54.9983 21.5473 55H22.6258C23.3023 54.9999 23.9554 54.7524 24.4621 54.3041C24.9687 53.8558 25.2939 53.2376 25.3762 52.5661C24.2657 52.5657 18.7969 52.5661 18.7969 52.5661Z" fill="#005ECD"/>
</svg>
