<svg width="108" height="108" viewBox="0 0 108 108" fill="none" xmlns="http://www.w3.org/2000/svg">
<g clip-path="url(#clip0_1206_222)">
<path d="M13.4111 108H25.5778C26.7023 108 27.614 107.088 27.614 105.964C27.614 104.839 26.7023 103.928 25.5778 103.928H13.4111C12.2866 103.928 11.375 104.839 11.375 105.964C11.375 107.088 12.2866 108 13.4111 108Z" fill="url(#paint0_linear_1206_222)"/>
<path d="M101.647 105.742H6.35294C2.84421 105.742 0 102.897 0 99.3886V32.2592C0 28.7505 2.84421 25.9062 6.35294 25.9062H101.647C105.156 25.9062 108 28.7505 108 32.2592V99.3886C108 102.897 105.156 105.742 101.647 105.742Z" fill="url(#paint1_linear_1206_222)"/>
<path d="M101.647 25.9062H62.8945V105.742H101.647C105.156 105.742 108 102.897 108 99.3886V32.2592C108 28.7505 105.156 25.9062 101.647 25.9062Z" fill="url(#paint2_linear_1206_222)"/>
<path d="M105.051 68.8174V62.8302C105.051 61.3643 103.811 60.1759 102.281 60.1759C100.752 60.1759 99.5117 61.3643 99.5117 62.8302V68.8174C99.5117 70.2834 100.752 71.4716 102.281 71.4716C103.811 71.4716 105.051 70.2834 105.051 68.8174Z" fill="url(#paint3_linear_1206_222)"/>
<path d="M0 86.7886V99.3886C0 102.897 2.84421 105.742 6.35294 105.742H101.647C105.156 105.742 108 102.897 108 99.3886V86.7886H0Z" fill="url(#paint4_linear_1206_222)"/>
<path d="M93.3948 32.3651H9.10315C7.11744 32.3651 5.50781 34.387 5.50781 36.8814V94.7664C5.50781 97.2608 7.11744 99.2828 9.10315 99.2828H93.3948C95.3805 99.2828 96.9902 97.2608 96.9902 94.7664V36.8812C96.9902 34.387 95.3805 32.3651 93.3948 32.3651Z" fill="url(#paint5_linear_1206_222)"/>
<path d="M59.6367 99.2827H93.3933C95.379 99.2827 96.9886 97.2608 96.9886 94.7664V36.8812C96.9886 34.3868 95.379 32.3649 93.3933 32.3649H59.6367V99.2827Z" fill="url(#paint6_linear_1206_222)"/>
<path d="M89.0453 74.3057C89.9224 74.3057 90.6335 73.5946 90.6335 72.7175V43.4006C90.6335 42.5234 89.9224 41.8123 89.0453 41.8123C88.1681 41.8123 87.457 42.5234 87.457 43.4006V72.7175C87.457 73.5946 88.1681 74.3057 89.0453 74.3057Z" fill="url(#paint7_linear_1206_222)"/>
<path d="M89.0453 66.2358C89.9224 66.2358 90.6335 65.5247 90.6335 64.6476V51.6594C90.6335 50.7823 89.9224 50.0712 89.0453 50.0712C88.1681 50.0712 87.457 50.7823 87.457 51.6594V64.6476C87.457 65.5247 88.1681 66.2358 89.0453 66.2358Z" fill="white"/>
<path d="M87.4606 2.92871V99.2816H20.543V2.92871C20.543 1.31082 21.8538 0 23.4717 0H84.5319C86.1498 0 87.4606 1.31082 87.4606 2.92871Z" fill="url(#paint8_linear_1206_222)"/>
<path d="M87.4606 2.92871V99.2816H20.543V2.92871C20.543 1.31082 21.8538 0 23.4717 0H84.5319C86.1498 0 87.4606 1.31082 87.4606 2.92871Z" fill="url(#paint9_linear_1206_222)"/>
<path d="M87.4613 2.92871V99.2816H53.3672V0H84.5326C86.1505 0 87.4613 1.31082 87.4613 2.92871Z" fill="url(#paint10_linear_1206_222)"/>
<path d="M35.0304 67.1072H39.3131C40.5314 67.1072 41.5193 66.1195 41.5193 64.901C41.5193 63.6825 40.5316 62.6948 39.3131 62.6948H35.0304C33.8119 62.6948 32.8242 63.6825 32.8242 64.901C32.8242 66.1193 33.8119 67.1072 35.0304 67.1072Z" fill="url(#paint11_linear_1206_222)"/>
<path d="M32.8242 73.4588C32.8242 74.7603 33.8792 75.8153 35.1807 75.8153H54.7565C56.058 75.8153 57.113 74.7603 57.113 73.4588C57.113 72.1573 56.058 71.1023 54.7565 71.1023H35.1807C33.8792 71.1021 32.8242 72.1573 32.8242 73.4588Z" fill="url(#paint12_linear_1206_222)"/>
<path d="M42.9421 79.6248H35.1807C33.8792 79.6248 32.8242 80.6798 32.8242 81.9813C32.8242 83.2828 33.8792 84.3378 35.1807 84.3378H42.9421C44.2436 84.3378 45.2986 83.2828 45.2986 81.9813C45.2986 80.6798 44.2436 79.6248 42.9421 79.6248Z" fill="url(#paint13_linear_1206_222)"/>
<path d="M57.0693 81.9813C57.0693 80.6796 56.0142 79.6248 54.7127 79.6248H50.1378C48.8363 79.6248 47.7812 80.6798 47.7812 81.9813C47.7812 83.2828 48.8363 84.3378 50.1378 84.3378H54.7127C56.0142 84.338 57.0693 83.2828 57.0693 81.9813Z" fill="url(#paint14_linear_1206_222)"/>
<path d="M35.0304 92.1814H39.3131C40.5314 92.1814 41.5193 91.1937 41.5193 89.9752C41.5193 88.7567 40.5316 87.769 39.3131 87.769H35.0304C33.8119 87.769 32.8242 88.7567 32.8242 89.9752C32.8242 91.1937 33.8119 92.1814 35.0304 92.1814Z" fill="url(#paint15_linear_1206_222)"/>
<path d="M57.113 98.533C57.113 97.2315 56.058 96.1765 54.7565 96.1765H35.1807C33.8792 96.1765 32.8242 97.2315 32.8242 98.533C32.8242 98.795 32.8687 99.0461 32.9477 99.2816H56.9897C57.0685 99.0461 57.113 98.795 57.113 98.533Z" fill="url(#paint16_linear_1206_222)"/>
<path d="M68.6893 90.1257C68.6893 88.8242 67.6343 87.7692 66.3327 87.7692H58.5714C57.2699 87.7692 56.2148 88.8242 56.2148 90.1257C56.2148 91.4272 57.2699 92.4823 58.5714 92.4823H66.3327C67.6343 92.4825 68.6893 91.4272 68.6893 90.1257Z" fill="url(#paint17_linear_1206_222)"/>
<path d="M46.7979 92.4825H51.3729C52.6744 92.4825 53.7294 91.4275 53.7294 90.126C53.7294 88.8245 52.6744 87.7695 51.3729 87.7695H46.7979C45.4964 87.7695 44.4414 88.8245 44.4414 90.126C44.4414 91.4275 45.4964 92.4825 46.7979 92.4825Z" fill="url(#paint18_linear_1206_222)"/>
<path d="M66.485 79.9257H62.2023C60.984 79.9257 59.9961 80.9134 59.9961 82.1319C59.9961 83.3504 60.9838 84.338 62.2023 84.338H66.485C67.7035 84.338 68.6912 83.3504 68.6912 82.1319C68.6909 80.9134 67.7033 79.9257 66.485 79.9257Z" fill="url(#paint19_linear_1206_222)"/>
<path d="M58.5714 67.408H66.3327C67.6343 67.408 68.6893 66.353 68.6893 65.0515C68.6893 63.75 67.6343 62.695 66.3327 62.695H58.5714C57.2699 62.695 56.2148 63.75 56.2148 65.0515C56.2146 66.353 57.2699 67.408 58.5714 67.408Z" fill="url(#paint20_linear_1206_222)"/>
<path d="M46.7979 67.408H51.3729C52.6744 67.408 53.7294 66.353 53.7294 65.0515C53.7294 63.75 52.6744 62.695 51.3729 62.695H46.7979C45.4964 62.695 44.4414 63.75 44.4414 65.0515C44.4414 66.353 45.4964 67.408 46.7979 67.408Z" fill="url(#paint21_linear_1206_222)"/>
<path d="M72.8795 57.0467H35.1202C33.0495 57.0467 31.3711 55.3682 31.3711 53.2976V29.5854C31.3711 27.5148 33.0495 25.8364 35.1202 25.8364H72.8793C74.9499 25.8364 76.6284 27.5148 76.6284 29.5854V53.2978C76.6286 55.3682 74.9499 57.0467 72.8795 57.0467Z" fill="url(#paint22_linear_1206_222)"/>
<path d="M61.0234 57.0467H72.8795C74.9501 57.0467 76.6286 55.3682 76.6286 53.2976V29.5854C76.6286 27.5148 74.9501 25.8364 72.8795 25.8364H61.0234V57.0467Z" fill="url(#paint23_linear_1206_222)"/>
<path d="M36.4739 39.1835H44.8145C46.2132 39.1835 47.347 38.0497 47.347 36.6512C47.347 35.2525 46.2132 34.1187 44.8145 34.1187H36.4739C35.0752 34.1187 33.9414 35.2525 33.9414 36.6512C33.9414 38.0497 35.0752 39.1835 36.4739 39.1835Z" fill="white"/>
<path d="M61.0222 41.8943C64.6179 41.8943 67.5327 38.9794 67.5327 35.3838C67.5327 31.7881 64.6179 28.8733 61.0222 28.8733C57.4266 28.8733 54.5117 31.7881 54.5117 35.3838C54.5117 38.9794 57.4266 41.8943 61.0222 41.8943Z" fill="url(#paint24_linear_1206_222)"/>
<path d="M54.5117 35.3838C54.5117 38.9793 57.4264 41.8943 61.0222 41.8943C64.6178 41.8943 67.5327 38.9793 67.5327 35.3838C67.5327 34.6051 67.3955 33.8584 67.1448 33.1664H54.8997C54.6487 33.8584 54.5117 34.6051 54.5117 35.3838Z" fill="url(#paint25_linear_1206_222)"/>
<path d="M56.4189 39.9873C58.9613 42.5298 63.0835 42.5298 65.626 39.9873C68.1684 37.4449 68.1684 33.3227 65.626 30.7802C65.0754 30.2297 64.4505 29.7987 63.7836 29.4866L55.125 38.1452C55.4374 38.8118 55.8683 39.4368 56.4189 39.9873Z" fill="url(#paint26_linear_1206_222)"/>
<path d="M64.6575 32.802H70.3699C71.7686 32.802 72.9023 31.6682 72.9023 30.2697C72.9023 28.871 71.7686 27.7372 70.3699 27.7372H64.6575C63.2588 27.7372 62.125 28.871 62.125 30.2697C62.1252 31.6682 63.2588 32.802 64.6575 32.802Z" fill="white"/>
<path d="M35.1202 57.0467H63.319L51.9256 39.7841C48.7413 34.9594 41.6622 34.9594 38.4779 39.7841L31.3711 50.5519V53.2976C31.3711 55.3683 33.0498 57.0467 35.1202 57.0467Z" fill="url(#paint27_linear_1206_222)"/>
<path d="M72.8799 57.0467C74.9505 57.0467 76.629 55.3682 76.629 53.2976V49.0856L75.5503 47.4512C72.366 42.6265 65.2869 42.6265 62.1026 47.4512L55.7695 57.0467H72.8799Z" fill="url(#paint28_linear_1206_222)"/>
<path d="M31.3711 41.4415V53.2976C31.3711 55.3682 33.0495 57.0467 35.1202 57.0467H72.8793C74.9499 57.0467 76.6284 55.3682 76.6284 53.2976V41.4415H31.3711Z" fill="url(#paint29_linear_1206_222)"/>
<path d="M34.8603 21.6498H38.8131C39.9376 21.6498 40.8493 20.7381 40.8493 19.6136C40.8493 18.489 39.9376 17.5775 38.8131 17.5775H34.8603C33.7357 17.5775 32.8242 18.4892 32.8242 19.6136C32.8242 20.7381 33.7357 21.6498 34.8603 21.6498Z" fill="url(#paint30_linear_1206_222)"/>
<path d="M56.2458 17.7082H44.0791C42.9544 17.7082 42.043 18.6198 42.043 19.7443C42.043 20.869 42.9546 21.7804 44.0791 21.7804H56.2458C57.3703 21.7804 58.2819 20.8688 58.2819 19.7443C58.2819 18.6198 57.3703 17.7082 56.2458 17.7082Z" fill="url(#paint31_linear_1206_222)"/>
<path d="M62.4658 21.7804H66.4186C67.5433 21.7804 68.4547 20.8688 68.4547 19.7443C68.4547 18.6196 67.5431 17.7082 66.4186 17.7082H62.4658C61.3413 17.7082 60.4297 18.6198 60.4297 19.7443C60.4297 20.8688 61.3413 21.7804 62.4658 21.7804Z" fill="url(#paint32_linear_1206_222)"/>
<path d="M84.5319 0H23.4717C21.8538 0 20.543 1.31082 20.543 2.92871V10.3765H87.4606V2.92871C87.4606 1.31082 86.1498 0 84.5319 0Z" fill="url(#paint33_linear_1206_222)"/>
<path d="M32.1452 3.1521H28.1924C27.0677 3.1521 26.1562 4.06375 26.1562 5.18822C26.1562 6.31269 27.0679 7.22434 28.1924 7.22434H32.1452C33.2696 7.22434 34.1813 6.31269 34.1813 5.18822C34.1813 4.06375 33.2696 3.1521 32.1452 3.1521Z" fill="url(#paint34_linear_1206_222)"/>
<path d="M43.1569 3.1521H39.2041C38.0794 3.1521 37.168 4.06375 37.168 5.18822C37.168 6.31269 38.0796 7.22434 39.2041 7.22434H43.1569C44.2814 7.22434 45.193 6.31269 45.193 5.18822C45.193 4.06375 44.2814 3.1521 43.1569 3.1521Z" fill="url(#paint35_linear_1206_222)"/>
<path d="M54.1686 3.1521H50.2158C49.0911 3.1521 48.1797 4.06375 48.1797 5.18822C48.1797 6.31269 49.0913 7.22434 50.2158 7.22434H54.1686C55.2931 7.22434 56.2047 6.31269 56.2047 5.18822C56.2047 4.06375 55.2931 3.1521 54.1686 3.1521Z" fill="url(#paint36_linear_1206_222)"/>
</g>
<defs>
<linearGradient id="paint0_linear_1206_222" x1="19.4947" y1="103.095" x2="19.4947" y2="109.874" gradientUnits="userSpaceOnUse">
<stop stop-color="#596C76"/>
<stop offset="0.2842" stop-color="#4A5960"/>
<stop offset="0.8747" stop-color="#232627"/>
<stop offset="1" stop-color="#1A1A1A"/>
</linearGradient>
<linearGradient id="paint1_linear_1206_222" x1="33.8735" y1="22.7495" x2="69.797" y2="99.6323" gradientUnits="userSpaceOnUse">
<stop stop-color="#596C76"/>
<stop offset="0.2842" stop-color="#4A5960"/>
<stop offset="0.8747" stop-color="#232627"/>
<stop offset="1" stop-color="#1A1A1A"/>
</linearGradient>
<linearGradient id="paint2_linear_1206_222" x1="99.5298" y1="65.8239" x2="105.459" y2="65.8239" gradientUnits="userSpaceOnUse">
<stop stop-color="#1A1A1A" stop-opacity="0"/>
<stop offset="0.4256" stop-color="#121212" stop-opacity="0.426"/>
<stop offset="1"/>
</linearGradient>
<linearGradient id="paint3_linear_1206_222" x1="98.8663" y1="62.409" x2="105.696" y2="69.2386" gradientUnits="userSpaceOnUse">
<stop stop-color="#016A74" stop-opacity="0"/>
<stop offset="1" stop-color="#016A74"/>
</linearGradient>
<linearGradient id="paint4_linear_1206_222" x1="54" y1="98.8592" x2="54" y2="104.153" gradientUnits="userSpaceOnUse">
<stop stop-color="#1A1A1A" stop-opacity="0"/>
<stop offset="0.4256" stop-color="#121212" stop-opacity="0.426"/>
<stop offset="1"/>
</linearGradient>
<linearGradient id="paint5_linear_1206_222" x1="37.3799" y1="26.3501" x2="63.8234" y2="101.612" gradientUnits="userSpaceOnUse">
<stop stop-color="#FEF48B"/>
<stop offset="1" stop-color="#FFBF51"/>
</linearGradient>
<linearGradient id="paint6_linear_1206_222" x1="85.6033" y1="65.8239" x2="97.9939" y2="65.8239" gradientUnits="userSpaceOnUse">
<stop stop-color="#FE9738" stop-opacity="0"/>
<stop offset="1" stop-color="#FE9738"/>
</linearGradient>
<linearGradient id="paint7_linear_1206_222" x1="91.057" y1="58.0589" x2="87.6425" y2="58.0589" gradientUnits="userSpaceOnUse">
<stop stop-color="#FE9738" stop-opacity="0"/>
<stop offset="1" stop-color="#FE9738"/>
</linearGradient>
<linearGradient id="paint8_linear_1206_222" x1="20.543" y1="49.6408" x2="87.4606" y2="49.6408" gradientUnits="userSpaceOnUse">
<stop stop-color="#F9F5F3"/>
<stop offset="1" stop-color="#EFE2DD"/>
</linearGradient>
<linearGradient id="paint9_linear_1206_222" x1="20.543" y1="49.6408" x2="87.4606" y2="49.6408" gradientUnits="userSpaceOnUse">
<stop stop-color="#F9F5F3"/>
<stop offset="1" stop-color="#EFE2DD"/>
</linearGradient>
<linearGradient id="paint10_linear_1206_222" x1="75.3028" y1="49.6408" x2="89.3111" y2="49.6408" gradientUnits="userSpaceOnUse">
<stop stop-color="#9E9797" stop-opacity="0"/>
<stop offset="0.3562" stop-color="#9B9494" stop-opacity="0.356"/>
<stop offset="0.6285" stop-color="#928B8B" stop-opacity="0.629"/>
<stop offset="0.872" stop-color="#827A7A" stop-opacity="0.872"/>
<stop offset="1" stop-color="#766E6E"/>
</linearGradient>
<linearGradient id="paint11_linear_1206_222" x1="-15.9376" y1="18.792" x2="64.137" y2="88.3122" gradientUnits="userSpaceOnUse">
<stop stop-color="#9E9797" stop-opacity="0"/>
<stop offset="0.3562" stop-color="#9B9494" stop-opacity="0.356"/>
<stop offset="0.6285" stop-color="#928B8B" stop-opacity="0.629"/>
<stop offset="0.872" stop-color="#827A7A" stop-opacity="0.872"/>
<stop offset="1" stop-color="#766E6E"/>
</linearGradient>
<linearGradient id="paint12_linear_1206_222" x1="-90.4406" y1="-44.1031" x2="113.721" y2="133.149" gradientUnits="userSpaceOnUse">
<stop stop-color="#9E9797" stop-opacity="0"/>
<stop offset="0.3562" stop-color="#9B9494" stop-opacity="0.356"/>
<stop offset="0.6285" stop-color="#928B8B" stop-opacity="0.629"/>
<stop offset="0.872" stop-color="#827A7A" stop-opacity="0.872"/>
<stop offset="1" stop-color="#766E6E"/>
</linearGradient>
<linearGradient id="paint13_linear_1206_222" x1="-34.3842" y1="18.2164" x2="76.352" y2="114.357" gradientUnits="userSpaceOnUse">
<stop stop-color="#9E9797" stop-opacity="0"/>
<stop offset="0.3562" stop-color="#9B9494" stop-opacity="0.356"/>
<stop offset="0.6285" stop-color="#928B8B" stop-opacity="0.629"/>
<stop offset="0.872" stop-color="#827A7A" stop-opacity="0.872"/>
<stop offset="1" stop-color="#766E6E"/>
</linearGradient>
<linearGradient id="paint14_linear_1206_222" x1="-4.30715" y1="32.7267" x2="81.2301" y2="106.99" gradientUnits="userSpaceOnUse">
<stop stop-color="#9E9797" stop-opacity="0"/>
<stop offset="0.3562" stop-color="#9B9494" stop-opacity="0.356"/>
<stop offset="0.6285" stop-color="#928B8B" stop-opacity="0.629"/>
<stop offset="0.872" stop-color="#827A7A" stop-opacity="0.872"/>
<stop offset="1" stop-color="#766E6E"/>
</linearGradient>
<linearGradient id="paint15_linear_1206_222" x1="-15.9376" y1="43.8662" x2="64.137" y2="113.386" gradientUnits="userSpaceOnUse">
<stop stop-color="#9E9797" stop-opacity="0"/>
<stop offset="0.3562" stop-color="#9B9494" stop-opacity="0.356"/>
<stop offset="0.6285" stop-color="#928B8B" stop-opacity="0.629"/>
<stop offset="0.872" stop-color="#827A7A" stop-opacity="0.872"/>
<stop offset="1" stop-color="#766E6E"/>
</linearGradient>
<linearGradient id="paint16_linear_1206_222" x1="-89.1539" y1="-18.1281" x2="113.127" y2="157.491" gradientUnits="userSpaceOnUse">
<stop stop-color="#9E9797" stop-opacity="0"/>
<stop offset="0.3562" stop-color="#9B9494" stop-opacity="0.356"/>
<stop offset="0.6285" stop-color="#928B8B" stop-opacity="0.629"/>
<stop offset="0.872" stop-color="#827A7A" stop-opacity="0.872"/>
<stop offset="1" stop-color="#766E6E"/>
</linearGradient>
<linearGradient id="paint17_linear_1206_222" x1="-10.9934" y1="26.3609" x2="99.7428" y2="122.501" gradientUnits="userSpaceOnUse">
<stop stop-color="#9E9797" stop-opacity="0"/>
<stop offset="0.3562" stop-color="#9B9494" stop-opacity="0.356"/>
<stop offset="0.6285" stop-color="#928B8B" stop-opacity="0.629"/>
<stop offset="0.872" stop-color="#827A7A" stop-opacity="0.872"/>
<stop offset="1" stop-color="#766E6E"/>
</linearGradient>
<linearGradient id="paint18_linear_1206_222" x1="-7.647" y1="40.8712" x2="77.8902" y2="115.134" gradientUnits="userSpaceOnUse">
<stop stop-color="#9E9797" stop-opacity="0"/>
<stop offset="0.3562" stop-color="#9B9494" stop-opacity="0.356"/>
<stop offset="0.6285" stop-color="#928B8B" stop-opacity="0.629"/>
<stop offset="0.872" stop-color="#827A7A" stop-opacity="0.872"/>
<stop offset="1" stop-color="#766E6E"/>
</linearGradient>
<linearGradient id="paint19_linear_1206_222" x1="11.2341" y1="36.0225" x2="91.3091" y2="105.543" gradientUnits="userSpaceOnUse">
<stop stop-color="#9E9797" stop-opacity="0"/>
<stop offset="0.3562" stop-color="#9B9494" stop-opacity="0.356"/>
<stop offset="0.6285" stop-color="#928B8B" stop-opacity="0.629"/>
<stop offset="0.872" stop-color="#827A7A" stop-opacity="0.872"/>
<stop offset="1" stop-color="#766E6E"/>
</linearGradient>
<linearGradient id="paint20_linear_1206_222" x1="-10.9934" y1="1.2866" x2="99.7429" y2="97.4272" gradientUnits="userSpaceOnUse">
<stop stop-color="#9E9797" stop-opacity="0"/>
<stop offset="0.3562" stop-color="#9B9494" stop-opacity="0.356"/>
<stop offset="0.6285" stop-color="#928B8B" stop-opacity="0.629"/>
<stop offset="0.872" stop-color="#827A7A" stop-opacity="0.872"/>
<stop offset="1" stop-color="#766E6E"/>
</linearGradient>
<linearGradient id="paint21_linear_1206_222" x1="-7.64699" y1="15.7967" x2="77.8903" y2="90.0598" gradientUnits="userSpaceOnUse">
<stop stop-color="#9E9797" stop-opacity="0"/>
<stop offset="0.3562" stop-color="#9B9494" stop-opacity="0.356"/>
<stop offset="0.6285" stop-color="#928B8B" stop-opacity="0.629"/>
<stop offset="0.872" stop-color="#827A7A" stop-opacity="0.872"/>
<stop offset="1" stop-color="#766E6E"/>
</linearGradient>
<linearGradient id="paint22_linear_1206_222" x1="42.7219" y1="30.1636" x2="62.2375" y2="49.6792" gradientUnits="userSpaceOnUse">
<stop stop-color="#A6E7F0"/>
<stop offset="0.1713" stop-color="#90E2ED"/>
<stop offset="0.5295" stop-color="#56D7E7"/>
<stop offset="1" stop-color="#02C7DD"/>
</linearGradient>
<linearGradient id="paint23_linear_1206_222" x1="70.8273" y1="41.4413" x2="76.3569" y2="41.4413" gradientUnits="userSpaceOnUse">
<stop stop-color="#0199B1" stop-opacity="0"/>
<stop offset="1" stop-color="#0199B1"/>
</linearGradient>
<linearGradient id="paint24_linear_1206_222" x1="58.5067" y1="32.8682" x2="64.4253" y2="38.7866" gradientUnits="userSpaceOnUse">
<stop stop-color="#FEF48B"/>
<stop offset="1" stop-color="#FFBF51"/>
</linearGradient>
<linearGradient id="paint25_linear_1206_222" x1="61.0222" y1="35.4661" x2="61.0222" y2="43.1248" gradientUnits="userSpaceOnUse">
<stop stop-color="#FE9738" stop-opacity="0"/>
<stop offset="1" stop-color="#FE9738"/>
</linearGradient>
<linearGradient id="paint26_linear_1206_222" x1="61.1747" y1="35.4027" x2="66.8741" y2="41.1021" gradientUnits="userSpaceOnUse">
<stop stop-color="#FE9738" stop-opacity="0"/>
<stop offset="1" stop-color="#FE9738"/>
</linearGradient>
<linearGradient id="paint27_linear_1206_222" x1="37.0309" y1="42.5806" x2="51.9805" y2="57.5302" gradientUnits="userSpaceOnUse">
<stop stop-color="#C9F6B0"/>
<stop offset="1" stop-color="#0BB494"/>
</linearGradient>
<linearGradient id="paint28_linear_1206_222" x1="61.8383" y1="48.3082" x2="69.6636" y2="56.1337" gradientUnits="userSpaceOnUse">
<stop stop-color="#C9F6B0"/>
<stop offset="1" stop-color="#0BB494"/>
</linearGradient>
<linearGradient id="paint29_linear_1206_222" x1="53.9998" y1="51.2452" x2="53.9998" y2="58.7512" gradientUnits="userSpaceOnUse">
<stop stop-color="#016A74" stop-opacity="0"/>
<stop offset="1" stop-color="#016A74"/>
</linearGradient>
<linearGradient id="paint30_linear_1206_222" x1="26.9401" y1="-10.5972" x2="45.0452" y2="44.6709" gradientUnits="userSpaceOnUse">
<stop stop-color="#9E9797" stop-opacity="0"/>
<stop offset="0.3562" stop-color="#9B9494" stop-opacity="0.356"/>
<stop offset="0.6285" stop-color="#928B8B" stop-opacity="0.629"/>
<stop offset="0.872" stop-color="#827A7A" stop-opacity="0.872"/>
<stop offset="1" stop-color="#766E6E"/>
</linearGradient>
<linearGradient id="paint31_linear_1206_222" x1="35.4946" y1="-25.0312" x2="62.3281" y2="56.8819" gradientUnits="userSpaceOnUse">
<stop stop-color="#9E9797" stop-opacity="0"/>
<stop offset="0.3562" stop-color="#9B9494" stop-opacity="0.356"/>
<stop offset="0.6285" stop-color="#928B8B" stop-opacity="0.629"/>
<stop offset="0.872" stop-color="#827A7A" stop-opacity="0.872"/>
<stop offset="1" stop-color="#766E6E"/>
</linearGradient>
<linearGradient id="paint32_linear_1206_222" x1="54.5456" y1="-10.4665" x2="72.6506" y2="44.8016" gradientUnits="userSpaceOnUse">
<stop stop-color="#9E9797" stop-opacity="0"/>
<stop offset="0.3562" stop-color="#9B9494" stop-opacity="0.356"/>
<stop offset="0.6285" stop-color="#928B8B" stop-opacity="0.629"/>
<stop offset="0.872" stop-color="#827A7A" stop-opacity="0.872"/>
<stop offset="1" stop-color="#766E6E"/>
</linearGradient>
<linearGradient id="paint33_linear_1206_222" x1="53.5742" y1="1.20706" x2="54.6331" y2="14.5482" gradientUnits="userSpaceOnUse">
<stop stop-color="#596C76"/>
<stop offset="0.2842" stop-color="#4A5960"/>
<stop offset="0.8747" stop-color="#232627"/>
<stop offset="1" stop-color="#1A1A1A"/>
</linearGradient>
<linearGradient id="paint34_linear_1206_222" x1="28.5443" y1="1.93911" x2="31.2973" y2="7.44499" gradientUnits="userSpaceOnUse">
<stop stop-color="#D9B1EE"/>
<stop offset="0.1228" stop-color="#DBA3E3"/>
<stop offset="0.3507" stop-color="#E381C8"/>
<stop offset="0.6587" stop-color="#EF499B"/>
<stop offset="1" stop-color="#FE0364"/>
</linearGradient>
<linearGradient id="paint35_linear_1206_222" x1="39.556" y1="1.93911" x2="42.309" y2="7.44499" gradientUnits="userSpaceOnUse">
<stop stop-color="#FEF48B"/>
<stop offset="1" stop-color="#FFBF51"/>
</linearGradient>
<linearGradient id="paint36_linear_1206_222" x1="50.5678" y1="1.93911" x2="53.3207" y2="7.44499" gradientUnits="userSpaceOnUse">
<stop stop-color="#C9F6B0"/>
<stop offset="1" stop-color="#0BB494"/>
</linearGradient>
<clipPath id="clip0_1206_222">
<rect width="108" height="108" fill="white"/>
</clipPath>
</defs>
</svg>
