<svg width="108" height="108" viewBox="0 0 108 108" fill="none" xmlns="http://www.w3.org/2000/svg">
<g clip-path="url(#clip0_1206_400)">
<path d="M46.8008 84.6H61.2008V95.4H46.8008V84.6Z" fill="url(#paint0_linear_1206_400)"/>
<path d="M92.0599 88.9979H15.938C7.13581 88.9979 0 81.8623 0 73.0599V19.2866C0 10.4844 7.1356 3.34863 15.938 3.34863H92.0599C100.862 3.34863 107.998 10.4842 107.998 19.2866V73.0599C107.998 81.8623 100.862 88.9979 92.0599 88.9979Z" fill="url(#paint1_linear_1206_400)"/>
<path d="M21.1528 89H15.9384C7.13538 89 0 81.8621 0 73.0615V19.2873C0 10.4842 7.13538 3.34882 15.9384 3.34882H21.1528C12.3498 3.34882 5.21438 10.4842 5.21438 19.2873V73.0618C5.21438 81.8621 12.3498 89 21.1528 89Z" fill="url(#paint2_linear_1206_400)"/>
<path d="M78.2615 107.999H29.7341C26.2049 107.999 23.3438 105.138 23.3438 101.608C23.3438 98.0792 26.2049 95.218 29.7341 95.218H78.2615C81.7907 95.218 84.6519 98.0792 84.6519 101.608C84.6519 105.138 81.7907 107.999 78.2615 107.999Z" fill="url(#paint3_linear_1206_400)"/>
<path d="M45.4816 108H29.7326C26.203 108 23.3438 105.138 23.3438 101.608C23.3438 99.842 24.0586 98.2471 25.2135 97.0893C26.3713 95.9314 27.9692 95.2168 29.7326 95.2168H45.4816C43.7184 95.2168 42.1174 95.9317 40.9625 97.0893C39.8047 98.2471 39.0898 99.8422 39.0898 101.608C39.0898 105.138 41.9518 108 45.4816 108Z" fill="url(#paint4_linear_1206_400)"/>
<path d="M15.9363 80.1369C12.0342 80.1369 8.85938 76.962 8.85938 73.0599V19.2867C8.85938 15.3845 12.0342 12.2097 15.9363 12.2097H92.0582C95.9603 12.2097 99.1351 15.3845 99.1351 19.2867V73.0599C99.1351 76.962 95.9603 80.1369 92.0582 80.1369H90.2102L37.3294 71.9074L17.7844 80.1369H15.9363Z" fill="#FEDB70"/>
<path d="M34.8918 80.1371H15.9368C12.034 80.1371 8.85938 76.9622 8.85938 73.0597V19.2867C8.85938 15.3839 12.0342 12.2093 15.9368 12.2093H34.8918C26.6648 12.2093 19.9958 18.8783 19.9958 27.1053V65.2413C19.9958 73.4683 26.6648 80.1371 34.8918 80.1371Z" fill="#FEA946"/>
<path d="M17.7852 80.1368V9.73477C17.7852 4.35839 22.1435 0 27.5199 0H80.4762C85.8526 0 90.211 4.35839 90.211 9.73477V80.1371H17.7852V80.1368Z" fill="#91C7DD"/>
<path d="M82.6066 20.018V80.1373H25.3906V20.018C25.3906 18.938 26.2664 18.0601 27.3464 18.0601H80.651C81.731 18.0601 82.6066 18.938 82.6066 20.018Z" fill="#DCD1CE"/>
<path d="M28.6728 12.2091C30.4855 12.2091 31.955 10.7396 31.955 8.9269C31.955 7.1142 30.4855 5.64471 28.6728 5.64471C26.8601 5.64471 25.3906 7.1142 25.3906 8.9269C25.3906 10.7396 26.8601 12.2091 28.6728 12.2091Z" fill="#FEDB70"/>
<path d="M39.6962 12.2091C41.509 12.2091 42.9784 10.7396 42.9784 8.9269C42.9784 7.1142 41.509 5.64471 39.6962 5.64471C37.8835 5.64471 36.4141 7.1142 36.4141 8.9269C36.4141 10.7396 37.8835 12.2091 39.6962 12.2091Z" fill="#FEDB70"/>
<path d="M50.7158 12.2091C52.5285 12.2091 53.998 10.7396 53.998 8.9269C53.998 7.1142 52.5285 5.64471 50.7158 5.64471C48.9031 5.64471 47.4336 7.1142 47.4336 8.9269C47.4336 10.7396 48.9031 12.2091 50.7158 12.2091Z" fill="#FEDB70"/>
<path d="M47.434 30.7163V41.5551L26.3255 45.8034L5.21484 46.5162V30.7163C5.21484 26.9528 8.26795 23.8997 12.0336 23.8997H40.6171C44.3832 23.8997 47.434 26.9526 47.434 30.7163Z" fill="#91C7DD"/>
<path d="M47.434 41.5543V46.5153C47.434 50.2812 44.3832 53.3341 40.6173 53.3341H12.0336C11.9511 53.3341 11.8684 53.332 11.786 53.3297C8.13527 53.1993 5.21484 50.1983 5.21484 46.5151L17.7857 38.2881L26.3255 45.8024L39.696 34.8157L47.434 41.5543Z" fill="#F9EF63"/>
<path d="M13.6441 34.8172C15.3741 34.8172 16.7766 33.4147 16.7766 31.6847C16.7766 29.9547 15.3741 28.5523 13.6441 28.5523C11.9142 28.5523 10.5117 29.9547 10.5117 31.6847C10.5117 33.4147 11.9142 34.8172 13.6441 34.8172Z" fill="#F9EF63"/>
<path d="M39.6968 34.8157L34.4251 53.3341H17.1562L26.3263 45.8024L39.6968 34.8157Z" fill="#FFD064"/>
<path d="M17.7857 38.2881L11.786 53.3296C8.13527 53.1993 5.21484 50.1983 5.21484 46.5151L17.7857 38.2881Z" fill="#FFD064"/>
<path d="M82.6053 44.782V74.2179H65.8229C62.057 74.2179 59.0039 71.1648 59.0039 67.4011V51.601C59.0039 47.8352 62.057 44.782 65.8229 44.782H82.6053Z" fill="#DDDAEC"/>
<path d="M96.8982 71.5234H68.314C64.5486 71.5234 61.4961 68.471 61.4961 64.7055V48.9063C61.4961 45.1409 64.5486 42.0884 68.314 42.0884H96.8982C100.664 42.0884 103.716 45.1409 103.716 48.9063V64.7055C103.716 68.471 100.664 71.5234 96.8982 71.5234Z" fill="white"/>
<path d="M96.917 52.4655H68.2977C67.3976 52.4655 66.668 51.7358 66.668 50.8358C66.668 49.9357 67.3976 49.2061 68.2977 49.2061H96.917C97.8171 49.2061 98.5467 49.9357 98.5467 50.8358C98.5467 51.7358 97.8171 52.4655 96.917 52.4655Z" fill="#91C7DD"/>
<path d="M96.917 58.4356H68.2977C67.3976 58.4356 66.668 57.706 66.668 56.8059C66.668 55.9058 67.3976 55.1762 68.2977 55.1762H96.917C97.8171 55.1762 98.5467 55.9058 98.5467 56.8059C98.5467 57.7058 97.8171 58.4356 96.917 58.4356Z" fill="#91C7DD"/>
<path d="M91.937 64.4058H68.2977C67.3976 64.4058 66.668 63.6761 66.668 62.7761C66.668 61.876 67.3976 61.1464 68.2977 61.1464H91.937C92.8371 61.1464 93.5667 61.876 93.5667 62.7761C93.5667 63.6761 92.8371 64.4058 91.937 64.4058Z" fill="#91C7DD"/>
<path d="M76.4656 28.7097H59.6727C58.7726 28.7097 58.043 27.98 58.043 27.08C58.043 26.1799 58.7726 25.4503 59.6727 25.4503H76.4656C77.3657 25.4503 78.0953 26.1799 78.0953 27.08C78.0953 27.98 77.3657 28.7097 76.4656 28.7097Z" fill="#756E78"/>
<path d="M71.8568 34.7576H59.6727C58.7726 34.7576 58.043 34.028 58.043 33.1279C58.043 32.2279 58.7726 31.4982 59.6727 31.4982H71.8568C72.7569 31.4982 73.4866 32.2279 73.4866 33.1279C73.4866 34.0278 72.7569 34.7576 71.8568 34.7576Z" fill="#756E78"/>
<path d="M49.7509 73.537H35.6463C33.6087 73.537 31.957 71.8852 31.957 69.8477V62.8864C31.957 60.8487 33.6089 59.1971 35.6463 59.1971H49.7509C51.7885 59.1971 53.4402 60.8489 53.4402 62.8864V69.8477C53.4402 71.8854 51.7885 73.537 49.7509 73.537Z" fill="#B1E4F9"/>
<path d="M49.7517 57.5674H35.6471C32.7143 57.5674 30.3281 59.9535 30.3281 62.8864V69.8477C30.3281 72.7806 32.7143 75.167 35.6471 75.167H49.7517C52.6845 75.167 55.0707 72.7808 55.0707 69.8477V62.8864C55.0707 59.9535 52.6848 57.5674 49.7517 57.5674ZM51.8113 62.8864V69.8477C51.8113 70.0515 51.7805 70.2479 51.7252 70.4337L45.6327 66.3664L51.725 62.2993C51.7803 62.4856 51.8113 62.6824 51.8113 62.8864ZM33.5875 69.8477V62.8864C33.5875 62.6833 33.6181 62.4873 33.6732 62.3019L39.7619 66.3666L33.673 70.4314C33.6181 70.2462 33.5875 70.0507 33.5875 69.8477ZM37.3346 60.827H48.06L42.6973 64.407L37.3346 60.827ZM42.6973 68.3263L48.0619 71.9075H37.3327L42.6973 68.3263Z" fill="#FEDB70"/>
</g>
<defs>
<linearGradient id="paint0_linear_1206_400" x1="54.0008" y1="84.6" x2="54.0008" y2="95.4" gradientUnits="userSpaceOnUse">
<stop stop-color="#A2A2A2"/>
<stop offset="0.495192" stop-color="#1A1A1A"/>
<stop offset="1"/>
</linearGradient>
<linearGradient id="paint1_linear_1206_400" x1="100.35" y1="39.15" x2="8.55" y2="74.7" gradientUnits="userSpaceOnUse">
<stop stop-color="#1A1A1A"/>
<stop offset="0.473575" stop-color="#596C76"/>
<stop offset="0.513685" stop-color="#596C76"/>
<stop offset="1"/>
</linearGradient>
<linearGradient id="paint2_linear_1206_400" x1="21.1528" y1="46.1744" x2="-1.18387e-06" y2="45.9" gradientUnits="userSpaceOnUse">
<stop stop-color="#596C76"/>
<stop offset="0.333729" stop-color="#1A1A1A"/>
<stop offset="0.661363" stop-color="#596C76"/>
<stop offset="1"/>
</linearGradient>
<linearGradient id="paint3_linear_1206_400" x1="23.3438" y1="101.608" x2="84.6519" y2="101.608" gradientUnits="userSpaceOnUse">
<stop stop-color="#1A1A1A"/>
<stop offset="0.485577" stop-color="#596C76" stop-opacity="0.33"/>
<stop offset="1"/>
</linearGradient>
<linearGradient id="paint4_linear_1206_400" x1="52.65" y1="100.8" x2="23.4" y2="100.35" gradientUnits="userSpaceOnUse">
<stop stop-color="#596C76"/>
<stop offset="0.495192" stop-color="#1A1A1A"/>
<stop offset="1"/>
</linearGradient>
<clipPath id="clip0_1206_400">
<rect width="108" height="108" fill="white"/>
</clipPath>
</defs>
</svg>
