<svg width="103" height="108" viewBox="0 0 103 108" fill="none" xmlns="http://www.w3.org/2000/svg">
<path fill-rule="evenodd" clip-rule="evenodd" d="M9.39959 0H92.9226C98.0948 0 102.329 4.2274 102.329 9.39959V78.277C102.329 83.4431 98.095 87.6766 92.9226 87.6766H9.39959C4.2274 87.6766 0 83.4431 0 78.277V9.39959C0 4.2274 4.2274 0 9.39959 0Z" fill="#EAF6FF"/>
<path fill-rule="evenodd" clip-rule="evenodd" d="M0 16.5782H102.329V9.39959C102.329 4.2274 98.095 0 92.9226 0H9.39959C4.2274 0 0 4.2274 0 9.39959V16.5782Z" fill="#36D1E3"/>
<path fill-rule="evenodd" clip-rule="evenodd" d="M72.9928 92.3827H72.2931H60.6418L54.8438 79.8479L72.9928 46.7834L91.1478 79.8479L85.3434 92.3827H73.6921H72.9928Z" fill="#24CDE1"/>
<path fill-rule="evenodd" clip-rule="evenodd" d="M55.9688 92.3826H90.021V99.8618H55.9688V92.3826Z" fill="#FEA543"/>
<path fill-rule="evenodd" clip-rule="evenodd" d="M61.3672 99.8618H84.6207V107.789H61.3672V99.8618Z" fill="#3B5892"/>
<path fill-rule="evenodd" clip-rule="evenodd" d="M72.9957 85.6581C75.3395 85.6581 77.2476 83.75 77.2476 81.4124C77.2476 79.0687 75.3395 77.1605 72.9957 77.1605C70.6581 77.1605 68.75 79.0687 68.75 81.4124C68.7498 83.75 70.6579 85.6581 72.9957 85.6581Z" fill="#01A8BF"/>
<path fill-rule="evenodd" clip-rule="evenodd" d="M7.33203 24.0636H57.1772V59.349H7.33203V24.0636Z" fill="#008CDF"/>
<path d="M48.8325 64.9078H7.33178C6.49478 64.9078 5.81641 65.5864 5.81641 66.4234C5.81641 67.2604 6.49499 67.939 7.33178 67.939H48.8325C49.6695 67.939 50.3478 67.2604 50.3478 66.4234C50.3478 65.5864 49.6693 64.9078 48.8325 64.9078Z" fill="#23CDE1"/>
<path d="M48.8325 71.8285H7.33178C6.49478 71.8285 5.81641 72.5071 5.81641 73.3441C5.81641 74.1811 6.49499 74.8597 7.33178 74.8597H48.8325C49.6695 74.8597 50.3478 74.1811 50.3478 73.3441C50.3478 72.5071 49.6693 71.8285 48.8325 71.8285Z" fill="#23CDE1"/>
<path d="M48.8325 78.7434H7.33178C6.49478 78.7434 5.81641 79.422 5.81641 80.259C5.81641 81.096 6.49499 81.7746 7.33178 81.7746H48.8325C49.6695 81.7746 50.3478 81.096 50.3478 80.259C50.3478 79.422 49.6693 78.7434 48.8325 78.7434Z" fill="#23CDE1"/>
<path d="M66.7498 25.579H95.2495C96.0865 25.579 96.7649 24.9004 96.7649 24.0636C96.7649 23.2268 96.0863 22.5482 95.2495 22.5482H66.7498C65.9128 22.5482 65.2344 23.2268 65.2344 24.0636C65.2344 24.9004 65.9128 25.579 66.7498 25.579Z" fill="#58CF9F"/>
<path d="M95.2495 30.868H66.7497C65.9127 30.868 65.2344 31.5466 65.2344 32.3834C65.2344 33.2202 65.913 33.8988 66.7497 33.8988H95.2495C96.0865 33.8988 96.7649 33.2202 96.7649 32.3834C96.7649 31.5466 96.0865 30.868 95.2495 30.868Z" fill="#58CF9F"/>
<path d="M95.2495 39.1816H66.7497C65.9127 39.1816 65.2344 39.8602 65.2344 40.697C65.2344 41.5338 65.913 42.2124 66.7497 42.2124H95.2495C96.0865 42.2124 96.7649 41.5338 96.7649 40.697C96.7649 39.8602 96.0865 39.1816 95.2495 39.1816Z" fill="#58CF9F"/>
<path fill-rule="evenodd" clip-rule="evenodd" d="M26.3455 40.3289L7.77331 58.9011L7.42969 59.3489H45.3963L44.6357 58.6127L26.3455 40.3289Z" fill="url(#paint0_linear_3792_26)"/>
<path fill-rule="evenodd" clip-rule="evenodd" d="M49.0166 42.5868L39.3407 52.2625L38.8438 52.827L44.6359 58.6128L45.3965 59.3489H57.1768V51.0661L56.3056 49.8696L49.0166 42.5868Z" fill="url(#paint1_linear_3792_26)"/>
<path fill-rule="evenodd" clip-rule="evenodd" d="M88.4241 0H92.9215C98.0937 0 102.327 4.2274 102.327 9.39959V78.277C102.327 83.4431 98.0939 87.6766 92.9215 87.6766H88.418C93.5902 87.6766 97.8176 83.4431 97.8176 78.277V9.39959C97.8176 9.07432 97.8053 8.75538 97.7684 8.44256C97.7623 8.36283 97.7562 8.28288 97.7439 8.20948C97.7256 8.0498 97.7009 7.89645 97.6703 7.74309C97.6581 7.66336 97.6459 7.58953 97.6273 7.5098C97.6089 7.43618 97.5967 7.36256 97.5784 7.28283C97.56 7.20921 97.5414 7.13559 97.5231 7.05586C97.5047 6.98224 97.4801 6.90863 97.4617 6.83501C97.4372 6.76139 97.4187 6.68777 97.3942 6.61416C97.3697 6.54054 97.3453 6.46692 97.3206 6.3933C97.2961 6.31969 97.2714 6.24607 97.247 6.17857C97.1426 5.89634 97.0261 5.6141 96.8972 5.3441L96.8911 5.33187C96.8542 5.26437 96.8236 5.19687 96.7867 5.12937C96.4737 4.52187 96.0995 3.95128 95.6639 3.42984C95.6147 3.36846 95.5719 3.3132 95.5228 3.25814H95.5167C95.4675 3.20288 95.4186 3.14149 95.3694 3.08644C95.3203 3.03117 95.265 2.97591 95.2161 2.92085C95.1608 2.86559 95.1119 2.81665 95.0566 2.76138C94.9522 2.65697 94.848 2.55277 94.7374 2.45468L94.7313 2.44856C94.6761 2.39941 94.6208 2.35048 94.5657 2.30133C94.5166 2.25851 94.4613 2.21548 94.4124 2.17245L94.3879 2.15409C94.3327 2.10495 94.2713 2.05601 94.2162 2.01298C94.1057 1.92713 93.9893 1.84106 93.8726 1.75521L93.8543 1.74298L93.8481 1.73686C93.7929 1.69404 93.7315 1.65101 93.664 1.61409V1.60755C93.6026 1.57085 93.5412 1.52782 93.4798 1.48479C93.4185 1.44809 93.351 1.40505 93.2896 1.36814H93.2835C93.2404 1.33755 93.1915 1.30676 93.1423 1.28229C93.124 1.27005 93.1056 1.25782 93.0932 1.2517H93.0871C93.0257 1.20867 92.9582 1.17197 92.8907 1.14117C92.8354 1.11059 92.7802 1.07979 92.7251 1.0492L92.6882 1.03085C92.6207 0.994148 92.5532 0.963352 92.4857 0.932766C92.4427 0.908297 92.3937 0.889945 92.3446 0.865266C92.3262 0.853031 92.3018 0.846914 92.2832 0.834469H92.2771C92.2096 0.803883 92.1421 0.773086 92.0685 0.7425C92.001 0.711703 91.9273 0.681117 91.8598 0.656648C91.8107 0.638297 91.7679 0.619734 91.7187 0.601383C91.6943 0.589148 91.6696 0.583031 91.6451 0.570797H91.639C91.5715 0.546328 91.4979 0.521648 91.4304 0.49718H91.4243C91.3506 0.472711 91.2831 0.448031 91.2095 0.423562H91.2034C91.1298 0.399094 91.0623 0.380531 90.9887 0.356063H90.9825C90.9089 0.337711 90.8353 0.313242 90.7617 0.29468C90.7003 0.282445 90.6328 0.263883 90.5714 0.251648L90.5347 0.239414C90.4917 0.233297 90.4489 0.221063 90.4058 0.214945C90.3753 0.202711 90.3445 0.196594 90.3078 0.190477C90.2341 0.172125 90.1544 0.15968 90.0808 0.147445H90.0747C90.0011 0.135211 89.9274 0.116859 89.8477 0.110742C89.7924 0.0985078 89.7433 0.0923906 89.6882 0.0862734C89.6638 0.0801562 89.6391 0.0801563 89.6146 0.0740391C89.5777 0.0679219 89.5349 0.0679219 89.498 0.0618047C89.4549 0.0556875 89.4182 0.0495703 89.3752 0.0495703C89.2955 0.0373359 89.2219 0.0312188 89.1421 0.0251016C89.0869 0.0251016 89.0379 0.0189844 88.9826 0.0189844C88.958 0.0128672 88.9274 0.0128672 88.9029 0.0128672C88.8599 0.00675 88.8109 0.00675 88.7679 0.00675C88.731 0.00675 88.7004 0.000632817 88.6635 0.000632817H88.6574C88.5774 4.42014e-09 88.5038 0 88.4241 0ZM97.5231 7.05586C97.5047 6.98224 97.4801 6.90863 97.4617 6.83501L97.5231 7.05586ZM97.3942 6.61416C97.3697 6.54054 97.3453 6.46692 97.3206 6.3933L97.3942 6.61416ZM94.5657 2.30091C94.5166 2.25809 94.4613 2.21505 94.4124 2.17202L94.5657 2.30091ZM93.4798 1.48479C93.4185 1.44809 93.351 1.40505 93.2896 1.36814L93.4798 1.48479ZM92.8907 1.14117C92.8354 1.11059 92.7802 1.07979 92.7251 1.0492L92.8907 1.14117ZM92.4859 0.932555C92.4429 0.908086 92.3939 0.889734 92.3448 0.865055L92.4859 0.932555Z" fill="#C4D3E4"/>
<path fill-rule="evenodd" clip-rule="evenodd" d="M97.8178 16.5782H102.327V9.39959C102.327 4.2274 98.0939 0 92.9215 0H88.418H88.6572C88.7369 0.00611719 88.8166 0.00611719 88.8964 0.0122344C88.9761 0.0122344 89.0558 0.0183516 89.1356 0.0244687C89.2153 0.0305859 89.295 0.0367031 89.3748 0.0489375C89.4545 0.0550547 89.5342 0.0611719 89.6081 0.0734062C89.6878 0.0856406 89.7675 0.097875 89.8412 0.103992C89.9209 0.116227 90.0006 0.134578 90.0743 0.146812C90.154 0.159047 90.2276 0.171281 90.3073 0.189844C90.381 0.208195 90.4607 0.22043 90.5343 0.238781C90.6079 0.257133 90.6815 0.275695 90.7613 0.294047C90.8349 0.312398 90.9085 0.336867 90.9821 0.35543C91.0557 0.379898 91.1294 0.398461 91.203 0.42293C91.2766 0.447398 91.3502 0.471867 91.4238 0.496547C91.4974 0.521016 91.5711 0.545695 91.6386 0.570164C91.7122 0.594633 91.7858 0.62543 91.8533 0.649898C91.9269 0.680484 91.9944 0.711281 92.068 0.741867C92.1355 0.766336 92.2091 0.797133 92.2766 0.833836C92.3441 0.864633 92.4178 0.895219 92.4853 0.925805C92.5528 0.962719 92.6203 0.993305 92.6878 1.03022C92.7553 1.06713 92.8228 1.09772 92.8903 1.13463C92.9578 1.17134 93.0191 1.20825 93.0866 1.24516V1.25128C93.1541 1.28798 93.2155 1.3249 93.283 1.36181C93.3444 1.40463 93.4119 1.44155 93.4733 1.48458C93.5408 1.52761 93.6022 1.56431 93.6636 1.60734C93.7249 1.65037 93.7863 1.6932 93.8477 1.73623C93.9091 1.78537 93.9705 1.8282 94.0319 1.87123C94.0932 1.92037 94.1546 1.9632 94.2097 2.01234C94.2711 2.05516 94.3324 2.10431 94.3877 2.15346C94.4491 2.2024 94.5044 2.25155 94.5594 2.3007C94.6208 2.34984 94.6761 2.39878 94.7311 2.44793C94.7864 2.49708 94.8417 2.55213 94.8967 2.60128C94.952 2.65655 95.0011 2.7057 95.0562 2.76075C95.1114 2.81602 95.1604 2.86516 95.2156 2.92022C95.2648 2.97548 95.3201 3.03075 95.369 3.0858C95.4181 3.14107 95.4671 3.19634 95.5162 3.25751C95.5652 3.31277 95.6143 3.36804 95.6635 3.42921C95.7126 3.48448 95.7615 3.54586 95.8046 3.60703C95.8537 3.6623 95.8965 3.72368 95.9457 3.78485C95.9887 3.84623 96.0315 3.90762 96.0807 3.969C96.1237 4.03038 96.1666 4.09177 96.2096 4.15294C96.2893 4.2757 96.3752 4.40459 96.4549 4.53347C96.4918 4.60097 96.5285 4.66235 96.5654 4.72964C96.6085 4.79714 96.6452 4.85852 96.6821 4.92602C96.7496 5.06102 96.8232 5.19602 96.8907 5.33102C96.9213 5.39852 96.9521 5.47214 96.9827 5.53964C97.0135 5.60714 97.044 5.68076 97.0746 5.74826C97.1052 5.82187 97.136 5.88937 97.1666 5.96299C97.1911 6.03049 97.2219 6.10411 97.2463 6.17773C97.2708 6.24523 97.2955 6.31884 97.32 6.39246C97.3444 6.46608 97.3691 6.53969 97.3936 6.61331C97.418 6.68693 97.4366 6.76055 97.4611 6.83416C97.5225 7.05501 97.5777 7.28198 97.6267 7.50895C97.6575 7.6623 97.688 7.81566 97.7125 7.97534C97.7186 8.04895 97.7309 8.12869 97.7433 8.20842C97.7555 8.28204 97.7617 8.36177 97.7678 8.44151C97.78 8.52124 97.7861 8.60098 97.7922 8.68071C97.7984 8.76044 97.8045 8.84018 97.8045 8.91991C97.8106 8.99965 97.8106 9.07938 97.8167 9.15912V9.39832V16.5782H97.8178ZM96.2104 4.15378C96.2902 4.27655 96.376 4.40543 96.4557 4.53431L96.2104 4.15378ZM97.6275 7.5098C97.6583 7.66315 97.6889 7.8165 97.7134 7.97618L97.6275 7.5098Z" fill="#01A8BF"/>
<path fill-rule="evenodd" clip-rule="evenodd" d="M70.8164 50.7531L72.9948 46.7834L91.1497 79.8479L85.3454 92.3827H80.9832L86.7873 79.8479L70.8164 50.7531Z" fill="#01A8BF"/>
<path d="M74.5114 49.5383V77.1603C74.5114 78.0009 73.8364 78.6759 72.9961 78.6759C72.1616 78.6759 71.4805 78.0009 71.4805 77.1603V49.5383L72.9961 46.7834L74.5114 49.5383Z" fill="#01A8BF"/>
<path fill-rule="evenodd" clip-rule="evenodd" d="M80.9844 92.3826H90.022V99.8618H80.9844V92.3826Z" fill="#F27F00"/>
<path fill-rule="evenodd" clip-rule="evenodd" d="M80.9844 99.8618H84.6226V107.789H80.9844V99.8618Z" fill="#2D477A"/>
<path d="M80.9998 25.5788H95.2465C96.0835 25.5788 96.7618 24.9003 96.7618 24.0635C96.7618 23.2267 96.0833 22.5481 95.2465 22.5481H80.9998C80.1628 22.5481 79.4844 23.2267 79.4844 24.0635C79.4844 24.9003 80.1628 25.5788 80.9998 25.5788Z" fill="#48AFFB"/>
<path d="M95.2465 30.8679H80.9998C80.1628 30.8679 79.4844 31.5465 79.4844 32.3833C79.4844 33.2201 80.163 33.8987 80.9998 33.8987H95.2465C96.0835 33.8987 96.7618 33.2201 96.7618 32.3833C96.7618 31.5465 96.0835 30.8679 95.2465 30.8679Z" fill="#48AFFB"/>
<path d="M95.2465 39.1816H80.9998C80.1628 39.1816 79.4844 39.8602 79.4844 40.697C79.4844 41.5337 80.163 42.2123 80.9998 42.2123H95.2465C96.0835 42.2123 96.7618 41.5337 96.7618 40.697C96.7618 39.8602 96.0835 39.1816 95.2465 39.1816Z" fill="#48AFFB"/>
<path d="M48.8321 64.9077H28.0818C27.2448 64.9077 26.5664 65.5863 26.5664 66.4233C26.5664 67.2603 27.245 67.9389 28.0818 67.9389H48.8321C49.6691 67.9389 50.3475 67.2603 50.3475 66.4233C50.3475 65.5863 49.6689 64.9077 48.8321 64.9077Z" fill="#48AFFB"/>
<path d="M48.8321 71.8284H28.0818C27.2448 71.8284 26.5664 72.507 26.5664 73.344C26.5664 74.181 27.245 74.8595 28.0818 74.8595H48.8321C49.6691 74.8595 50.3475 74.181 50.3475 73.344C50.3475 72.507 49.6689 71.8284 48.8321 71.8284Z" fill="#48AFFB"/>
<path d="M48.8321 78.7433H28.0818C27.2448 78.7433 26.5664 79.4219 26.5664 80.2589C26.5664 81.0959 27.245 81.7745 28.0818 81.7745H48.8321C49.6691 81.7745 50.3475 81.0959 50.3475 80.2589C50.3475 79.4219 49.6689 78.7433 48.8321 78.7433Z" fill="#48AFFB"/>
<defs>
<linearGradient id="paint0_linear_3792_26" x1="26.413" y1="40.3289" x2="26.413" y2="59.3489" gradientUnits="userSpaceOnUse">
<stop stop-color="#B4EFAD"/>
<stop offset="1" stop-color="#25A18B"/>
</linearGradient>
<linearGradient id="paint1_linear_3792_26" x1="48.0103" y1="42.5868" x2="48.0103" y2="59.3489" gradientUnits="userSpaceOnUse">
<stop stop-color="#B4EFAD"/>
<stop offset="1" stop-color="#25A18B"/>
</linearGradient>
</defs>
</svg>
