<svg width="165" height="46" viewBox="0 0 165 46" fill="none" xmlns="http://www.w3.org/2000/svg">
<path d="M17.0353 16.7569C19.915 18.0981 22.8832 18.7636 25.3859 18.632H25.4315L25.6111 0.789457C25.6125 0.647654 25.5753 0.508149 25.5034 0.385875C25.4316 0.263602 25.3279 0.163163 25.2034 0.0953123C25.0788 0.0274611 24.9382 -0.00524854 24.7965 0.000684872C24.6548 0.00661828 24.5174 0.0509713 24.399 0.128996L9.39062 10.251C10.6053 12.5715 13.4116 15.0665 17.0353 16.7569Z" fill="#B49077"/>
<path d="M24.7686 20.3452C22.1496 20.3452 19.1813 19.629 16.3193 18.2929C12.3717 16.4532 9.40343 13.8291 7.96863 11.2075L0.346767 16.3571C0.214833 16.4455 0.112933 16.5719 0.0546232 16.7196C-0.00368679 16.8673 -0.0156431 17.0293 0.0203448 17.1839C0.0563327 17.3386 0.138559 17.4786 0.256085 17.5854C0.373612 17.6922 0.520867 17.7607 0.678262 17.7818L13.4927 19.5253C14.246 19.6277 14.9365 20 15.4361 20.5729L23.9487 30.3077C24.0533 30.4269 24.1915 30.5116 24.3452 30.5507C24.4989 30.5897 24.6608 30.5813 24.8096 30.5265C24.9583 30.4717 25.087 30.3731 25.1786 30.2437C25.2703 30.1143 25.3205 29.9602 25.3228 29.8016L25.4164 20.33C25.2056 20.3401 24.9896 20.3452 24.7686 20.3452Z" fill="#B49077"/>
<path d="M24.7689 18.9939C22.1498 18.9939 19.1815 18.2778 16.3195 16.9416C9.58841 13.8038 5.69144 8.3835 7.46279 4.6004C9.23414 0.8173 15.8767 0.318791 22.6078 3.45661C24.7243 4.42546 26.6728 5.72558 28.3799 7.30803C28.5433 7.46273 28.6386 7.67601 28.6448 7.90095C28.6509 8.12589 28.5675 8.34407 28.4128 8.50749C28.2581 8.67091 28.0448 8.76618 27.8199 8.77235C27.5949 8.77852 27.3768 8.69508 27.2133 8.54039C25.6411 7.08507 23.8474 5.88922 21.8993 4.99769C16.2183 2.34825 10.3121 2.49755 8.99628 5.30894C7.68042 8.12032 11.3623 12.7587 17.0357 15.4056C19.9154 16.7468 22.8837 17.4149 25.3863 17.2807C27.7068 17.1593 29.3187 16.3799 29.9235 15.0817C30.5536 13.7279 29.9438 12.1818 29.3212 11.124C29.2648 11.028 29.2277 10.9218 29.2123 10.8114C29.1968 10.7011 29.2033 10.5888 29.2313 10.4809C29.2592 10.3731 29.3082 10.2718 29.3753 10.1828C29.4424 10.0939 29.5263 10.019 29.6224 9.96253C29.7184 9.90603 29.8246 9.86901 29.935 9.85357C30.0453 9.83813 30.1576 9.84457 30.2655 9.87254C30.4833 9.92901 30.6698 10.0697 30.7839 10.2637C31.9555 12.2552 32.1959 14.2214 31.4621 15.7979C30.5789 17.6907 28.4533 18.8345 25.4749 18.9762C25.2471 18.9888 25.0093 18.9939 24.7689 18.9939Z" fill="#B49077"/>
<path d="M164.724 17.1007C164.724 17.6626 164.688 18.1701 164.616 18.6232H153.169C153.26 19.8195 153.704 20.7802 154.501 21.5052C155.299 22.2303 156.278 22.5928 157.438 22.5928C159.105 22.5928 160.284 21.8949 160.972 20.4993H164.316C163.863 21.8768 163.039 23.0097 161.842 23.8978C160.664 24.7679 159.196 25.2029 157.438 25.2029C156.006 25.2029 154.719 24.8857 153.577 24.2513C152.453 23.5987 151.565 22.6925 150.913 21.5324C150.278 20.3543 149.961 18.9948 149.961 17.4541C149.961 15.9135 150.269 14.5631 150.885 13.4031C151.52 12.2249 152.399 11.3186 153.523 10.6842C154.665 10.0498 155.97 9.7326 157.438 9.7326C158.852 9.7326 160.111 10.0407 161.217 10.657C162.323 11.2733 163.184 12.1433 163.8 13.2671C164.416 14.3728 164.724 15.6506 164.724 17.1007ZM161.489 16.1219C161.471 14.98 161.063 14.0646 160.265 13.3759C159.468 12.6871 158.48 12.3427 157.302 12.3427C156.232 12.3427 155.317 12.6871 154.556 13.3759C153.795 14.0465 153.341 14.9619 153.196 16.1219H161.489Z" fill="#B49077"/>
<path d="M140.878 9.7326C142.056 9.7326 143.107 9.9773 144.032 10.4667C144.974 10.9561 145.708 11.6811 146.234 12.6418C146.778 13.6024 147.05 14.7625 147.05 16.1219V24.9582H143.977V16.5841C143.977 15.2428 143.642 14.2187 142.971 13.5118C142.301 12.7868 141.385 12.4243 140.225 12.4243C139.065 12.4243 138.141 12.7868 137.452 13.5118C136.782 14.2187 136.446 15.2428 136.446 16.5841V24.9582H133.374V16.5841C133.374 15.2428 133.039 14.2187 132.368 13.5118C131.697 12.7868 130.782 12.4243 129.622 12.4243C128.462 12.4243 127.537 12.7868 126.849 13.5118C126.178 14.2187 125.843 15.2428 125.843 16.5841V24.9582H122.743V9.9773H125.843V11.6902C126.35 11.0739 126.994 10.5936 127.773 10.2492C128.552 9.9048 129.386 9.7326 130.274 9.7326C131.471 9.7326 132.54 9.98636 133.483 10.4939C134.425 11.0014 135.15 11.7355 135.658 12.6962C136.111 11.7899 136.818 11.0739 137.778 10.5483C138.739 10.0045 139.772 9.7326 140.878 9.7326Z" fill="#B49077"/>
<path d="M118.654 9.97729V24.9582H115.555V23.1909C115.065 23.8072 114.422 24.2966 113.624 24.6591C112.845 25.0035 112.011 25.1757 111.123 25.1757C109.945 25.1757 108.884 24.931 107.942 24.4416C107.018 23.9522 106.283 23.2272 105.74 22.2665C105.214 21.3058 104.951 20.1458 104.951 18.7864V9.97729H108.023V18.3242C108.023 19.6655 108.359 20.6986 109.029 21.4237C109.7 22.1306 110.615 22.484 111.775 22.484C112.936 22.484 113.851 22.1306 114.522 21.4237C115.21 20.6986 115.555 19.6655 115.555 18.3242V9.97729H118.654Z" fill="#B49077"/>
<path d="M102.748 9.97729L93.5582 32H90.3499L93.395 24.7135L87.4951 9.97729H90.9481L95.1623 21.3965L99.5396 9.97729H102.748Z" fill="#B49077"/>
<path d="M79.211 22.4296H86.0081V24.9582H75.6221V22.4296L82.4464 12.5058H75.6221V9.97729H86.0081V12.5058L79.211 22.4296Z" fill="#B49077"/>
<path d="M73.4147 17.1007C73.4147 17.6626 73.3785 18.1701 73.306 18.6232H61.8596C61.9502 19.8195 62.3943 20.7802 63.1919 21.5052C63.9894 22.2303 64.9682 22.5928 66.1282 22.5928C67.7958 22.5928 68.9739 21.8949 69.6627 20.4993H73.0069C72.5538 21.8768 71.729 23.0097 70.5327 23.8978C69.3546 24.7679 67.8864 25.2029 66.1282 25.2029C64.6963 25.2029 63.4094 24.8857 62.2674 24.2513C61.1436 23.5987 60.2555 22.6925 59.603 21.5324C58.9686 20.3543 58.6514 18.9948 58.6514 17.4541C58.6514 15.9135 58.9595 14.5631 59.5758 13.4031C60.2102 12.2249 61.0893 11.3186 62.2131 10.6842C63.355 10.0498 64.66 9.7326 66.1282 9.7326C67.542 9.7326 68.8017 10.0407 69.9074 10.657C71.0131 11.2733 71.874 12.1433 72.4903 13.2671C73.1066 14.3728 73.4147 15.6506 73.4147 17.1007ZM70.1793 16.1219C70.1612 14.98 69.7533 14.0646 68.9558 13.3759C68.1583 12.6871 67.1704 12.3427 65.9923 12.3427C64.9229 12.3427 64.0075 12.6871 63.2462 13.3759C62.4849 14.0465 62.0318 14.9619 61.8868 16.1219H70.1793Z" fill="#B49077"/>
<path d="M52.3209 24.9582L47.9708 17.3998H45.6054V24.9582H42.5059V6.06216H49.0311C50.4812 6.06216 51.7046 6.31592 52.7016 6.82344C53.7166 7.33096 54.4688 8.01067 54.9582 8.86258C55.4657 9.71449 55.7195 10.6661 55.7195 11.7174C55.7195 12.9499 55.357 14.0737 54.6319 15.0888C53.925 16.0857 52.8284 16.7654 51.3421 17.1279L56.0186 24.9582H52.3209ZM45.6054 14.9256H49.0311C50.1911 14.9256 51.0612 14.6356 51.6412 14.0556C52.2393 13.4756 52.5384 12.6962 52.5384 11.7174C52.5384 10.7386 52.2484 9.97731 51.6684 9.43354C51.0884 8.87164 50.2093 8.5907 49.0311 8.5907H45.6054V14.9256Z" fill="#B49077"/>
<path d="M116.915 43.14H113.267L112.595 45H111.443L114.467 36.684H115.727L118.739 45H117.587L116.915 43.14ZM116.603 42.252L115.091 38.028L113.579 42.252H116.603ZM121.149 39.492C121.341 39.116 121.613 38.824 121.965 38.616C122.325 38.408 122.761 38.304 123.273 38.304V39.432H122.985C121.761 39.432 121.149 40.096 121.149 41.424V45H120.057V38.424H121.149V39.492ZM124.125 41.7C124.125 41.02 124.261 40.428 124.533 39.924C124.805 39.412 125.181 39.016 125.661 38.736C126.149 38.456 126.705 38.316 127.329 38.316C128.137 38.316 128.801 38.512 129.321 38.904C129.849 39.296 130.197 39.84 130.365 40.536H129.189C129.077 40.136 128.857 39.82 128.529 39.588C128.209 39.356 127.809 39.24 127.329 39.24C126.705 39.24 126.201 39.456 125.817 39.888C125.433 40.312 125.241 40.916 125.241 41.7C125.241 42.492 125.433 43.104 125.817 43.536C126.201 43.968 126.705 44.184 127.329 44.184C127.809 44.184 128.209 44.072 128.529 43.848C128.849 43.624 129.069 43.304 129.189 42.888H130.365C130.189 43.56 129.837 44.1 129.309 44.508C128.781 44.908 128.121 45.108 127.329 45.108C126.705 45.108 126.149 44.968 125.661 44.688C125.181 44.408 124.805 44.012 124.533 43.5C124.261 42.988 124.125 42.388 124.125 41.7ZM135.086 38.304C135.582 38.304 136.03 38.412 136.43 38.628C136.83 38.836 137.142 39.152 137.366 39.576C137.598 40 137.714 40.516 137.714 41.124V45H136.634V41.28C136.634 40.624 136.47 40.124 136.142 39.78C135.814 39.428 135.366 39.252 134.798 39.252C134.222 39.252 133.762 39.432 133.418 39.792C133.082 40.152 132.914 40.676 132.914 41.364V45H131.822V36.12H132.914V39.36C133.13 39.024 133.426 38.764 133.802 38.58C134.186 38.396 134.614 38.304 135.086 38.304ZM140.062 37.356C139.854 37.356 139.678 37.284 139.534 37.14C139.39 36.996 139.318 36.82 139.318 36.612C139.318 36.404 139.39 36.228 139.534 36.084C139.678 35.94 139.854 35.868 140.062 35.868C140.262 35.868 140.43 35.94 140.566 36.084C140.71 36.228 140.782 36.404 140.782 36.612C140.782 36.82 140.71 36.996 140.566 37.14C140.43 37.284 140.262 37.356 140.062 37.356ZM140.59 38.424V45H139.498V38.424H140.59ZM143.783 39.324V43.2C143.783 43.52 143.851 43.748 143.987 43.884C144.123 44.012 144.359 44.076 144.695 44.076H145.499V45H144.515C143.907 45 143.451 44.86 143.147 44.58C142.843 44.3 142.691 43.84 142.691 43.2V39.324H141.839V38.424H142.691V36.768H143.783V38.424H145.499V39.324H143.783ZM152.822 41.46C152.822 41.668 152.81 41.888 152.786 42.12H147.53C147.57 42.768 147.79 43.276 148.19 43.644C148.598 44.004 149.09 44.184 149.666 44.184C150.138 44.184 150.53 44.076 150.842 43.86C151.162 43.636 151.386 43.34 151.514 42.972H152.69C152.514 43.604 152.162 44.12 151.634 44.52C151.106 44.912 150.45 45.108 149.666 45.108C149.042 45.108 148.482 44.968 147.986 44.688C147.498 44.408 147.114 44.012 146.834 43.5C146.554 42.98 146.414 42.38 146.414 41.7C146.414 41.02 146.55 40.424 146.822 39.912C147.094 39.4 147.474 39.008 147.962 38.736C148.458 38.456 149.026 38.316 149.666 38.316C150.29 38.316 150.842 38.452 151.322 38.724C151.802 38.996 152.17 39.372 152.426 39.852C152.69 40.324 152.822 40.86 152.822 41.46ZM151.694 41.232C151.694 40.816 151.602 40.46 151.418 40.164C151.234 39.86 150.982 39.632 150.662 39.48C150.35 39.32 150.002 39.24 149.618 39.24C149.066 39.24 148.594 39.416 148.202 39.768C147.818 40.12 147.598 40.608 147.542 41.232H151.694ZM153.856 41.7C153.856 41.02 153.992 40.428 154.264 39.924C154.536 39.412 154.912 39.016 155.392 38.736C155.88 38.456 156.436 38.316 157.06 38.316C157.868 38.316 158.532 38.512 159.052 38.904C159.58 39.296 159.928 39.84 160.096 40.536H158.92C158.808 40.136 158.588 39.82 158.26 39.588C157.94 39.356 157.54 39.24 157.06 39.24C156.436 39.24 155.932 39.456 155.548 39.888C155.164 40.312 154.972 40.916 154.972 41.7C154.972 42.492 155.164 43.104 155.548 43.536C155.932 43.968 156.436 44.184 157.06 44.184C157.54 44.184 157.94 44.072 158.26 43.848C158.58 43.624 158.8 43.304 158.92 42.888H160.096C159.92 43.56 159.568 44.1 159.04 44.508C158.512 44.908 157.852 45.108 157.06 45.108C156.436 45.108 155.88 44.968 155.392 44.688C154.912 44.408 154.536 44.012 154.264 43.5C153.992 42.988 153.856 42.388 153.856 41.7ZM162.885 39.324V43.2C162.885 43.52 162.953 43.748 163.089 43.884C163.225 44.012 163.461 44.076 163.797 44.076H164.601V45H163.617C163.009 45 162.553 44.86 162.249 44.58C161.945 44.3 161.793 43.84 161.793 43.2V39.324H160.941V38.424H161.793V36.768H162.885V38.424H164.601V39.324H162.885Z" fill="#B49077"/>
</svg>
