<svg width="26" height="27" viewBox="0 0 26 27" fill="none" xmlns="http://www.w3.org/2000/svg">
<path d="M25.2304 25.7017C25.2304 26.1712 24.8519 26.5519 24.3851 26.5519H0.845263C0.378436 26.5519 0 26.1712 0 25.7017C0 25.2321 0.378436 24.8515 0.845263 24.8515H24.385C24.8519 24.8515 25.2304 25.232 25.2304 25.7017ZM25.2304 20.8502C25.2304 21.3198 24.8519 21.7004 24.3851 21.7004H0.845263C0.378436 21.7004 0 21.3198 0 20.8502C0 20.3806 0.378436 20 0.845263 20H24.385C24.8519 20 25.2304 20.3806 25.2304 20.8502Z" fill="#ED4330"/>
<path d="M12.5 0.75C13.4187 0.750032 14.207 1.52968 14.207 2.53613C14.207 2.64018 14.1981 2.74406 14.1807 2.84668L14.0645 3.53418L14.7412 3.70117C18.7575 4.68782 21.8517 8.27348 22.2119 12.6562L22.2666 13.3135L22.9248 13.3438C23.6407 13.3771 24.25 13.996 24.25 14.7949C24.25 15.6188 23.6052 16.2499 22.8633 16.25H2.13672C1.39489 16.25 0.749992 15.619 0.75 14.7949C0.75 13.9961 1.35938 13.377 2.0752 13.3438L2.7334 13.3135L2.78711 12.6562C3.1473 8.2736 6.24251 4.68793 10.2588 3.70117L10.9355 3.53418L10.8193 2.84668C10.8019 2.74404 10.793 2.64017 10.793 2.53613C10.793 1.52966 11.5813 0.75 12.5 0.75Z" stroke="#ED4330" stroke-width="1.5"/>
</svg>
