<svg width="52" height="52" viewBox="0 0 52 52" fill="none" xmlns="http://www.w3.org/2000/svg">
<path fill-rule="evenodd" clip-rule="evenodd" d="M42.759 17.0692C42.742 17.0692 42.7247 17.0687 42.7077 17.0674C42.3065 17.0386 42.004 16.6796 42.0317 16.2661L42.4876 9.51638L35.9429 9.98654C35.5448 10.0146 35.1937 9.70314 35.1658 9.28932C35.1381 8.87574 35.4406 8.51674 35.8419 8.48795L43.2216 7.95796C43.4302 7.94243 43.638 8.02255 43.787 8.17626C43.9361 8.32973 44.0132 8.54277 43.9987 8.75933L43.4848 16.3702C43.4578 16.7663 43.1379 17.0692 42.759 17.0692ZM8.53474 16.3704C8.56243 16.7665 8.89422 17.0694 9.28744 17.0694C9.30531 17.0694 9.32293 17.0689 9.34055 17.0674C9.75668 17.0386 10.0703 16.6796 10.0416 16.266L9.56888 9.5165L16.356 9.98665C16.7638 10.0159 17.1329 9.70326 17.1618 9.28944C17.1905 8.87587 16.8768 8.51688 16.4607 8.48809L8.80762 7.95811C8.58912 7.94284 8.37564 8.0227 8.22133 8.17641C8.06676 8.32987 7.9867 8.54292 8.00181 8.75946L8.53474 16.3704ZM43.2216 43.7559C43.2384 43.7571 43.2554 43.7576 43.2721 43.7576C43.4646 43.7576 43.6499 43.6815 43.787 43.5454C43.9361 43.3974 44.0132 43.192 43.9987 42.9831L43.4848 35.6442C43.4569 35.2451 43.1032 34.9426 42.7077 34.9719C42.3065 34.9996 42.004 35.3458 42.0317 35.7446L42.4876 42.2531L35.9429 41.7998C35.5464 41.7737 35.1937 42.073 35.1658 42.4721C35.1381 42.8709 35.4406 43.2171 35.8419 43.2448L43.2216 43.7559ZM39.6796 40.1774C39.495 40.1774 39.3107 40.1074 39.1699 39.9674L30.139 30.9862C29.8573 30.7064 29.8573 30.2523 30.139 29.9725C30.4206 29.6924 30.8767 29.6924 31.1583 29.9725L40.1892 38.9537C40.4709 39.2335 40.4709 39.6875 40.1892 39.9674C40.0484 40.1074 39.8639 40.1774 39.6796 40.1774ZM25.3275 28.3002C25.3275 28.5014 25.4093 28.6833 25.5418 28.8151C25.6744 28.9469 25.8573 29.0283 26.0596 29.0286C26.4639 29.0288 26.7918 28.7027 26.7917 28.3006V26.6437H28.4572C28.8616 26.6439 29.1895 26.3178 29.1893 25.9156C29.1893 25.5133 28.8618 25.1876 28.4572 25.1876H26.7917V23.5317C26.7917 23.1294 26.4641 22.8036 26.0596 22.8036C25.6552 22.8035 25.3273 23.1296 25.3275 23.5317V25.1876H23.6619C23.2575 25.1874 22.9296 25.5135 22.9298 25.9156C22.9298 26.1168 23.0116 26.2987 23.1442 26.4305C23.2765 26.5622 23.4596 26.6437 23.6619 26.6437H25.3275V28.3002ZM21.3514 21.9508C21.1669 21.9508 20.9826 21.8808 20.8418 21.7408L11.8108 12.7596C11.5292 12.4798 11.5292 12.0257 11.8108 11.7459C12.0925 11.4658 12.5486 11.4658 12.8302 11.7459L21.8611 20.727C22.1427 21.0069 22.1427 21.4609 21.8611 21.7408C21.7203 21.8808 21.536 21.9508 21.3514 21.9508ZM8.22132 43.5454C8.3633 43.6818 8.55563 43.7576 8.75526 43.7576C8.77288 43.7576 8.79025 43.7571 8.80762 43.7559L16.4607 43.2448C16.8768 43.217 17.1905 42.8709 17.1618 42.472C17.1329 42.0732 16.7676 41.7748 16.356 41.7997L9.56888 42.2531L10.0416 35.7443C10.0703 35.3455 9.75668 34.9993 9.34055 34.9715C8.93022 34.9452 8.56369 35.2448 8.53474 35.6439L8.00181 42.9831C7.9867 43.1919 8.06676 43.3974 8.22132 43.5454ZM11.8108 39.9674C11.9516 40.1074 12.136 40.1774 12.3205 40.1774C12.5051 40.1774 12.6894 40.1074 12.8302 39.9674L21.8611 30.9862C22.1427 30.7064 22.1427 30.2523 21.8611 29.9725C21.5795 29.6924 21.1234 29.6924 20.8418 29.9725L11.8108 38.9537C11.5292 39.2335 11.5292 39.6875 11.8108 39.9674ZM30.6486 21.9508C30.4641 21.9508 30.2798 21.8808 30.139 21.7408C29.8573 21.4609 29.8573 21.0069 30.139 20.727L39.1699 11.7459C39.4515 11.4658 39.9076 11.4658 40.1892 11.7459C40.4709 12.0257 40.4709 12.4798 40.1892 12.7596L31.1583 21.7408C31.0175 21.8808 30.8329 21.9508 30.6486 21.9508Z" fill="white"/>
<rect x="0.75" y="0.75" width="50.5" height="50.2134" rx="1.25" stroke="white" stroke-width="1.5"/>
</svg>
