<svg width="40" height="37" viewBox="0 0 40 37" fill="none" xmlns="http://www.w3.org/2000/svg">
<path d="M36.25 12.4744L36.05 16.2244H31.45L31.25 12.4744H36.25Z" fill="#9923AF"/>
<path d="M36.1188 14.9744L36.05 16.2244H31.45L31.25 12.4744H33.1938L33.2625 13.7931C33.3001 14.4556 33.8438 14.9744 34.5125 14.9744H36.1188Z" fill="#9923AF"/>
<path d="M36.0492 16.2244L35.068 34.3494C35.0305 35.0494 34.4492 35.5994 33.7492 35.5994C33.0492 35.5994 32.468 35.0494 32.4305 34.3494L31.4492 16.2244H36.0492Z" fill="#9923AF"/>
<path d="M34.9617 34.7931C34.7617 35.2681 34.293 35.5994 33.7492 35.5994C33.0492 35.5994 32.468 35.0494 32.4305 34.3494L31.4492 16.2244H33.3555L34.3055 33.7244C34.3305 34.1806 34.5867 34.5744 34.9617 34.7931Z" fill="#9923AF"/>
<path d="M28.125 3.43149C28.125 3.62524 28.1583 3.81762 28.2235 4.00012L31.25 12.4744H36.25L39.2765 4.00012C39.3417 3.81762 39.375 3.6253 39.375 3.43155C39.375 2.83774 39.0634 2.28743 38.5542 1.98193L38.3938 1.88562C36.991 1.04399 35.3859 0.599365 33.75 0.599365C32.1141 0.599365 30.509 1.04393 29.1062 1.88562L28.9458 1.98193C28.4366 2.28743 28.125 2.83768 28.125 3.43149Z" fill="#F4F4F4"/>
<path d="M36.6937 11.2243L36.25 12.4743H31.25L28.225 3.99927C28.1562 3.81802 28.125 3.62427 28.125 3.43052C28.125 2.83677 28.4375 2.28677 28.9438 1.98052L29.1062 1.88677C29.4687 1.66802 29.85 1.47427 30.2437 1.31177C30.0875 1.56802 30 1.86802 30 2.18052C30 2.37427 30.0312 2.56802 30.1 2.74927L32.5312 9.56802C32.8875 10.5618 33.8312 11.2243 34.8875 11.2243H36.6937Z" fill="#F4EFE9"/>
<path d="M8.8175 35.5994H2.4325C1.76906 35.5994 1.22125 35.0811 1.18444 34.4187L0.625 24.3494H10.625L10.0656 34.4187C10.0288 35.0811 9.48088 35.5994 8.8175 35.5994Z" fill="#9923AF"/>
<path d="M10.0688 34.3494L10.0625 34.4181C10.0312 35.0806 9.48125 35.5994 8.81875 35.5994H2.43125C1.76875 35.5994 1.21875 35.0806 1.1875 34.4181L0.625 24.3494H2.56875L2.8625 29.6244C3.0125 32.2744 5.2 34.3494 7.85625 34.3494H10.0688Z" fill="#9923AF"/>
<path d="M1.875 20.5994H9.375V24.3494H1.875V20.5994Z" fill="#9923AF"/>
<path d="M9.375 23.0994V24.3494H1.875V20.5994H3.75V21.2244C3.75 22.2619 4.5875 23.0994 5.625 23.0994H9.375Z" fill="#9923AF"/>
<path d="M8.125 10.893V20.5992H3.125V11.8492L3.4625 11.7805C5.20625 11.4367 6.71875 10.3555 7.61875 8.82422C7.85625 9.28678 8.01875 9.79297 8.0875 10.3242C8.1125 10.5117 8.125 10.6992 8.125 10.893Z" fill="#9923AF"/>
<path d="M8.125 19.3494V20.5994H3.125V11.8494L3.4625 11.7806C4 11.6744 4.51875 11.4994 5 11.2556V16.8494C5 18.2306 6.11875 19.3494 7.5 19.3494H8.125Z" fill="#9923AF"/>
<path d="M8.0875 10.3242C7 11.7055 5.44375 12.6617 3.70625 13.0055L3.125 13.1242V11.8492L3.4625 11.7805C5.20625 11.4367 6.71875 10.3555 7.61875 8.82422C7.85625 9.28678 8.01875 9.79297 8.0875 10.3242Z" fill="#9923AF"/>
<path d="M7.61875 8.82437C6.71875 10.3556 5.20625 11.4369 3.4625 11.7806L3.125 11.8494V10.8931C3.125 9.18061 4.09375 7.61812 5.625 6.84937C6.3875 7.23687 7.0125 7.81812 7.45 8.51812C7.5125 8.61812 7.56875 8.71812 7.61875 8.82437Z" fill="#9923AF"/>
<path d="M6.5625 7.48062C5.58125 8.32437 5 9.56186 5 10.8931V11.2556C4.51875 11.4994 4 11.6744 3.4625 11.7806L3.125 11.8494V10.8931C3.125 9.18061 4.09375 7.61812 5.625 6.84937C5.96875 7.02437 6.28125 7.23687 6.5625 7.48062Z" fill="#9923AF"/>
<path d="M29.3746 30.5994V31.8494C29.3746 33.9181 27.6934 35.5994 25.6246 35.5994H8.81836C9.48086 35.5994 10.0309 35.0806 10.0621 34.4181L10.2746 30.5994H29.3746Z" fill="#9923AF"/>
<path d="M28.5434 34.1994C27.8621 35.0494 26.8059 35.5994 25.6246 35.5994H8.81836C9.48086 35.5994 10.0309 35.0806 10.0621 34.4181L10.2746 30.5994H12.0809L12.0559 31.0556C11.9559 32.8431 13.3809 34.3494 15.1747 34.3494H27.4997C27.8622 34.3494 28.2121 34.2994 28.5434 34.1994Z" fill="#9923AF"/>
<path d="M29.375 21.8494C29.375 25.2556 28.0125 28.3431 25.7938 30.5994H10.275L10.625 24.3494H9.375V20.5994H8.125V12.9244C10.3812 10.7119 13.4688 9.34937 16.875 9.34937C23.7812 9.34937 29.375 14.9431 29.375 21.8494Z" fill="#9923AF"/>
<path d="M26.8688 29.3493C26.5375 29.7868 26.1812 30.2056 25.7938 30.5993H10.275L10.625 24.3493H9.375V20.5993H8.125V12.9243C9.0125 12.0493 10.0313 11.3118 11.15 10.7368C10.4062 11.4931 10 12.5431 10 13.6181V19.3493H11.25V23.0993H12.5L12.3717 25.3896C12.2514 27.5398 13.9624 29.3493 16.1159 29.3493H26.8688Z" fill="#9923AF"/>
<path d="M8.12461 12.9243L8.09961 12.9493L8.12461 12.9243Z" fill="#9923AF"/>
<path d="M26.875 21.8494C26.875 25.6119 24.7875 28.8931 21.7062 30.5994H10.275L10.625 24.3494H9.375V20.5994H8.125V17.0181C9.83125 13.9369 13.1125 11.8494 16.875 11.8494C22.3875 11.8494 26.875 16.3369 26.875 21.8494Z" fill="#F4F4F4"/>
<path d="M23.475 29.3494C22.9375 29.8307 22.3438 30.2494 21.7062 30.5994H10.275L10.625 24.3494H9.375V20.5994H8.125V17.0182C9.0875 15.2869 10.5438 13.8682 12.3063 12.9619C11.375 13.7432 10.5938 14.6994 10 15.7682V19.3494H11.25V23.0994H12.5L12.3688 25.3869C12.25 27.5369 13.9625 29.3494 16.1188 29.3494H23.475Z" fill="#F4EFE9"/>
<path d="M18.75 32.4744H15C14.6546 32.4744 14.375 32.7542 14.375 33.0994C14.375 33.4445 14.6546 33.7244 15 33.7244H18.75C19.0954 33.7244 19.375 33.4445 19.375 33.0994C19.375 32.7542 19.0954 32.4744 18.75 32.4744Z" fill="#030001"/>
<path d="M16.8748 8.7244C13.8919 8.7244 11.0583 9.72252 8.74982 11.5501V10.8945C8.74982 8.93221 7.65975 7.16796 5.90438 6.29027C5.72863 6.2024 5.52107 6.2024 5.34532 6.29027C3.58994 7.16796 2.49988 8.93221 2.49988 10.8945V19.9743H1.87488C1.52944 19.9743 1.24988 20.2542 1.24988 20.5993V23.7243H0.624816C0.453316 23.7243 0.289129 23.7951 0.170691 23.92C0.0528788 24.0448 -0.0087462 24.2126 0.0010038 24.3841L0.560691 34.4531C0.615629 35.4465 1.43713 36.2244 2.432 36.2244H25.6248C28.0369 36.2244 29.9998 34.2618 29.9998 31.8494V30.5994C29.9998 30.2543 29.7203 29.9744 29.3748 29.9744H27.1718C29.0015 27.6685 29.9998 24.8334 29.9998 21.8494C29.9998 14.6121 24.1118 8.7244 16.8748 8.7244ZM21.5341 29.9744H10.9379L11.2486 24.3842C11.2584 24.2127 11.1968 24.0448 11.0789 23.92C10.9605 23.7952 10.7964 23.7244 10.6248 23.7244H9.99982V20.5994C9.99982 20.2543 9.72025 19.9744 9.37482 19.9744H8.74982V17.1904C10.4239 14.2789 13.5211 12.4744 16.8748 12.4744C22.0445 12.4744 26.2498 16.68 26.2498 21.8494C26.2498 25.2031 24.4456 28.3003 21.5341 29.9744ZM5.62482 7.56227C6.14575 7.87721 6.56938 8.3054 6.88563 8.80133C6.13925 9.90633 5.02869 10.708 3.74982 11.0638V10.8945C3.74982 9.51565 4.46025 8.26627 5.62482 7.56227ZM3.74982 12.3516C5.18394 12.0308 6.46719 11.2551 7.42182 10.1531C7.46813 10.395 7.49982 10.6413 7.49982 10.8945V19.9743H3.74982V12.3516ZM2.49982 21.2244H8.74982V23.7244H2.49982V21.2244ZM2.43207 34.9744C2.10063 34.9744 1.82657 34.715 1.80832 34.3839L1.28588 24.9744H9.96444L9.65238 30.5881C9.65232 30.592 9.65007 30.5954 9.65007 30.5994L9.65138 30.6058L9.44132 34.3842C9.423 34.715 9.14894 34.9744 8.81757 34.9744H2.43207ZM28.7498 31.8494C28.7498 33.5724 27.3478 34.9744 25.6248 34.9744H10.5761C10.6348 34.8092 10.6788 34.6369 10.6889 34.4535L10.8684 31.2244H28.7498V31.8494ZM23.7085 29.9744C26.0841 27.9754 27.4998 25.013 27.4998 21.8494C27.4998 15.9906 22.7336 11.2244 16.8748 11.2244C13.7115 11.2244 10.7488 12.6401 8.74982 15.0159V13.2052C10.961 11.1252 13.8308 9.9744 16.8748 9.9744C23.4227 9.9744 28.7498 15.3015 28.7498 21.8494C28.7498 24.8949 27.5974 27.7665 25.5144 29.9744H23.7085Z" fill="#030001"/>
<path d="M39.8657 4.209C39.9549 3.95781 40 3.69631 40 3.43144C40 2.62244 39.5691 1.86163 38.8751 1.44569L38.7152 1.34987C35.7159 -0.450063 31.7834 -0.44975 28.7854 1.34956L28.6249 1.44569C27.9309 1.86163 27.5 2.62244 27.5 3.43144C27.5 3.69631 27.5452 3.95788 27.6349 4.21056L30.6304 12.5973L31.8078 34.3851C31.8639 35.4163 32.7166 36.2244 33.7499 36.2244C34.7833 36.2244 35.6359 35.4163 35.6921 34.3851L36.8695 12.5973L39.8657 4.209ZM31.9098 13.0994H35.5903L35.4551 15.5994H32.0449L31.9098 13.0994ZM28.75 3.43138C28.75 3.05906 28.9484 2.709 29.2669 2.518L29.4281 2.42156C32.0379 0.855375 35.4614 0.855125 38.0725 2.42187L38.233 2.518C38.5516 2.70906 38.7499 3.05906 38.7499 3.43138C38.7499 3.55344 38.7292 3.67463 38.6883 3.78994L35.8093 11.8493H31.6907L28.8123 3.79144C28.7708 3.67456 28.75 3.55344 28.75 3.43138ZM34.4434 34.3173C34.4239 34.6857 34.1192 34.9744 33.75 34.9744C33.3808 34.9744 33.0762 34.6857 33.0566 34.3173L32.1124 16.8494H35.3875L34.4434 34.3173Z" fill="#030001"/>
</svg>
