<svg width="31" height="40" viewBox="0 0 31 40" fill="none" xmlns="http://www.w3.org/2000/svg">
<path d="M19.9219 9.375C20.5691 9.375 21.0938 8.85031 21.0938 8.20312C21.0938 7.55594 20.5691 7.03125 19.9219 7.03125C19.2747 7.03125 18.75 7.55594 18.75 8.20312C18.75 8.85031 19.2747 9.375 19.9219 9.375ZM3.51562 0C1.57711 0 0 1.57711 0 3.51562C0 5.04336 0.979766 6.34594 2.34375 6.82969V38.8281C2.34375 39.4753 2.86844 40 3.51562 40C4.16281 40 4.6875 39.4753 4.6875 38.8281V6.82969C6.05148 6.34594 7.03125 5.04336 7.03125 3.51562C7.03125 1.57711 5.45414 0 3.51562 0ZM3.51562 4.6875C2.86945 4.6875 2.34375 4.1618 2.34375 3.51562C2.34375 2.86945 2.86945 2.34375 3.51562 2.34375C4.1618 2.34375 4.6875 2.86945 4.6875 3.51562C4.6875 4.1618 4.1618 4.6875 3.51562 4.6875ZM19.9219 18.75C20.5691 18.75 21.0938 18.2253 21.0938 17.5781C21.0938 16.9309 20.5691 16.4062 19.9219 16.4062C19.2747 16.4062 18.75 16.9309 18.75 17.5781C18.75 18.2253 19.2747 18.75 19.9219 18.75ZM19.9219 14.0625C20.5691 14.0625 21.0938 13.5378 21.0938 12.8906C21.0938 12.2434 20.5691 11.7188 19.9219 11.7188C19.2747 11.7188 18.75 12.2434 18.75 12.8906C18.75 13.5378 19.2747 14.0625 19.9219 14.0625ZM19.9219 32.8125C20.5691 32.8125 21.0938 32.2878 21.0938 31.6406C21.0938 30.9934 20.5691 30.4688 19.9219 30.4688C19.2747 30.4688 18.75 30.9934 18.75 31.6406C18.75 32.2878 19.2747 32.8125 19.9219 32.8125ZM29.2969 14.0625C29.9441 14.0625 30.4688 13.5378 30.4688 12.8906C30.4688 12.2434 29.9441 11.7188 29.2969 11.7188H28.125V9.375H29.2969C29.9441 9.375 30.4688 8.85031 30.4688 8.20312C30.4688 7.55594 29.9441 7.03125 29.2969 7.03125H28.125V3.51562C28.125 2.86844 27.6003 2.34375 26.9531 2.34375H12.8906C12.2434 2.34375 11.7188 2.86844 11.7188 3.51562V7.03125H10.5469C9.89969 7.03125 9.375 7.55594 9.375 8.20312C9.375 8.85031 9.89969 9.375 10.5469 9.375H11.7188V11.7188H10.5469C9.89969 11.7188 9.375 12.2434 9.375 12.8906C9.375 13.5378 9.89969 14.0625 10.5469 14.0625H11.7188V16.4062H10.5469C9.89969 16.4062 9.375 16.9309 9.375 17.5781C9.375 18.2253 9.89969 18.75 10.5469 18.75H11.7188V21.0938H10.5469C9.89969 21.0938 9.375 21.6184 9.375 22.2656C9.375 22.9128 9.89969 23.4375 10.5469 23.4375H11.7188V25.7812H10.5469C9.89969 25.7812 9.375 26.3059 9.375 26.9531C9.375 27.6003 9.89969 28.125 10.5469 28.125H11.7188V30.4688H10.5469C9.89969 30.4688 9.375 30.9934 9.375 31.6406C9.375 32.2878 9.89969 32.8125 10.5469 32.8125H11.7188V36.3281C11.7188 36.9753 12.2434 37.5 12.8906 37.5H26.9531C27.6003 37.5 28.125 36.9753 28.125 36.3281V32.8125H29.2969C29.9441 32.8125 30.4688 32.2878 30.4688 31.6406C30.4688 30.9934 29.9441 30.4688 29.2969 30.4688H28.125V28.125H29.2969C29.9441 28.125 30.4688 27.6003 30.4688 26.9531C30.4688 26.3059 29.9441 25.7812 29.2969 25.7812H28.125V23.4375H29.2969C29.9441 23.4375 30.4688 22.9128 30.4688 22.2656C30.4688 21.6184 29.9441 21.0938 29.2969 21.0938H28.125V18.75H29.2969C29.9441 18.75 30.4688 18.2253 30.4688 17.5781C30.4688 16.9309 29.9441 16.4062 29.2969 16.4062H28.125V14.0625H29.2969ZM25.7812 7.03125H24.6094C23.9622 7.03125 23.4375 7.55594 23.4375 8.20312C23.4375 8.85031 23.9622 9.375 24.6094 9.375H25.7812V11.7188H24.6094C23.9622 11.7188 23.4375 12.2434 23.4375 12.8906C23.4375 13.5378 23.9622 14.0625 24.6094 14.0625H25.7812V16.4062H24.6094C23.9622 16.4062 23.4375 16.9309 23.4375 17.5781C23.4375 18.2253 23.9622 18.75 24.6094 18.75H25.7812V21.0938H24.6094C23.9622 21.0938 23.4375 21.6184 23.4375 22.2656C23.4375 22.9128 23.9622 23.4375 24.6094 23.4375H25.7812V25.7812H24.6094C23.9622 25.7812 23.4375 26.3059 23.4375 26.9531C23.4375 27.6003 23.9622 28.125 24.6094 28.125H25.7812V30.4688H24.6094C23.9622 30.4688 23.4375 30.9934 23.4375 31.6406C23.4375 32.2878 23.9622 32.8125 24.6094 32.8125H25.7812V35.1562H14.0625V32.8125H15.2344C15.8816 32.8125 16.4062 32.2878 16.4062 31.6406C16.4062 30.9934 15.8816 30.4688 15.2344 30.4688H14.0625V28.125H15.2344C15.8816 28.125 16.4062 27.6003 16.4062 26.9531C16.4062 26.3059 15.8816 25.7812 15.2344 25.7812H14.0625V23.4375H15.2344C15.8816 23.4375 16.4062 22.9128 16.4062 22.2656C16.4062 21.6184 15.8816 21.0938 15.2344 21.0938H14.0625V18.75H15.2344C15.8816 18.75 16.4062 18.2253 16.4062 17.5781C16.4062 16.9309 15.8816 16.4062 15.2344 16.4062H14.0625V14.0625H15.2344C15.8816 14.0625 16.4062 13.5378 16.4062 12.8906C16.4062 12.2434 15.8816 11.7188 15.2344 11.7188H14.0625V9.375H15.2344C15.8816 9.375 16.4062 8.85031 16.4062 8.20312C16.4062 7.55594 15.8816 7.03125 15.2344 7.03125H14.0625V4.6875H25.7812V7.03125ZM19.9219 23.4375C20.5691 23.4375 21.0938 22.9128 21.0938 22.2656C21.0938 21.6184 20.5691 21.0938 19.9219 21.0938C19.2747 21.0938 18.75 21.6184 18.75 22.2656C18.75 22.9128 19.2747 23.4375 19.9219 23.4375ZM19.9219 28.125C20.5691 28.125 21.0938 27.6003 21.0938 26.9531C21.0938 26.3059 20.5691 25.7812 19.9219 25.7812C19.2747 25.7812 18.75 26.3059 18.75 26.9531C18.75 27.6003 19.2747 28.125 19.9219 28.125Z" fill="#9923AF"/>
</svg>
