<svg width="40" height="40" viewBox="0 0 40 40" fill="none" xmlns="http://www.w3.org/2000/svg">
<g clip-path="url(#clip0_614_714)">
<path d="M33.3688 31.6625C31.8159 30.0436 30.5518 28.1707 29.6313 26.125L26.875 20L31.225 27.5125C32.0095 28.868 33.097 30.0237 34.4025 30.8889C35.708 31.7542 37.196 32.3056 38.75 32.5C36.7138 30.8704 35.21 28.6703 34.4313 26.1812L34.1313 25.225C33.0455 21.7432 32.1422 18.2072 31.425 14.6313C30.6697 10.8589 28.6314 7.46448 25.6564 5.02504C22.6814 2.5856 18.9535 1.25167 15.1063 1.25C11.4325 1.25364 7.9102 2.71466 5.31244 5.31242C2.71468 7.91018 1.25366 11.4325 1.25002 15.1062C1.24766 16.0832 1.47006 17.0477 1.90002 17.925C2.32013 18.7869 2.92639 19.5447 3.67502 20.1437L4.37502 18.75C3.96213 17.5084 3.75112 16.2085 3.75002 14.9C3.74983 13.9963 3.93944 13.1026 4.30657 12.2768C4.67371 11.451 5.21019 10.7115 5.88127 10.1062L9.23127 19.6375C10.6421 23.6551 12.9325 27.3069 15.9354 30.3259C18.9382 33.345 22.5775 35.6551 26.5875 37.0875C28.1286 37.6355 29.7135 38.0516 31.325 38.3313C32.9349 38.6115 34.566 38.7516 36.2 38.75H38.75L32.8875 36.2812C30.6914 35.3553 28.7712 33.8785 27.3125 31.9937L27.3063 31.9875C30.8444 33.9409 34.7333 35.177 38.75 35.625C36.7418 34.6234 34.9213 33.2829 33.3688 31.6625ZM14.0075 9.33875L13.75 10.625L13.4925 9.33875C13.3889 8.82027 13.1089 8.35371 12.7 8.01847C12.2911 7.68323 11.7787 7.50001 11.25 7.5C11.7787 7.49999 12.2911 7.31677 12.7 6.98153C13.1089 6.64629 13.3889 6.17973 13.4925 5.66125L13.75 4.375L14.0075 5.66125C14.1111 6.17973 14.3912 6.64629 14.8 6.98153C15.2089 7.31677 15.7213 7.49999 16.25 7.5C15.7213 7.50001 15.2089 7.68323 14.8 8.01847C14.3912 8.35371 14.1111 8.82027 14.0075 9.33875Z" fill="#9923AF"/>
<path d="M1.51063 23.0806C1.34526 23.4113 1.25626 23.775 1.25021 24.1447C1.24417 24.5144 1.32123 24.8808 1.4757 25.2167C1.63018 25.5526 1.85813 25.8496 2.14272 26.0857C2.42732 26.3218 2.7613 26.4909 3.12001 26.5806L3.83251 26.7581L4.59813 30.97C4.73963 31.7503 5.15068 32.4561 5.75954 32.9642C6.36839 33.4723 7.13637 33.7504 7.92938 33.75C8.08938 33.7501 8.24917 33.7386 8.40751 33.7156L12.1863 33.1763C12.8019 34.2224 13.126 35.4143 13.125 36.6281V39.375H14.375V36.625C14.3747 35.3418 14.067 34.0773 13.4775 32.9375L15.75 32.4875L15.5 31.2625L12.3906 31.8838L8.22751 32.4788C7.6824 32.5513 7.13017 32.4127 6.68396 32.0913C6.23775 31.7699 5.93134 31.29 5.82751 30.75L4.98938 26.1381C4.96787 26.0199 4.91274 25.9104 4.83061 25.8228C4.74847 25.7351 4.6428 25.6729 4.52626 25.6437L3.42313 25.3675C3.24608 25.3232 3.08122 25.2398 2.94074 25.1232C2.80026 25.0067 2.68774 24.8601 2.61149 24.6943C2.53524 24.5285 2.49721 24.3477 2.5002 24.1652C2.50319 23.9827 2.54712 23.8032 2.62876 23.64L4.93751 19.0294C5.0113 18.8811 5.02322 18.7096 4.97063 18.5525C4.57685 17.3746 4.37572 16.1408 4.37501 14.8987C4.37433 13.5866 4.81801 12.3128 5.63376 11.285L8.64188 19.8475C9.93323 23.5431 11.9579 26.9397 14.5943 29.8335C17.2308 32.7272 20.4247 35.0586 23.9844 36.6875L24.3813 39.4644L25.6188 39.2869L25.33 37.2669C25.6775 37.4062 26.0231 37.5475 26.3769 37.6738C29.5295 38.8013 32.853 39.3768 36.2013 39.375H38.75C38.8944 39.3751 39.0344 39.3252 39.1461 39.2339C39.2579 39.1425 39.3346 39.0152 39.3632 38.8737C39.3917 38.7322 39.3704 38.5851 39.3028 38.4575C39.2353 38.3299 39.1256 38.2297 38.9925 38.1737L33.1313 35.7056C32.1803 35.303 31.28 34.7901 30.4488 34.1775C33.0871 35.235 35.8564 35.9309 38.6813 36.2463C38.7041 36.2487 38.727 36.25 38.75 36.25C38.892 36.2514 39.0303 36.2045 39.1421 36.1169C39.2538 36.0292 39.3324 35.9061 39.3649 35.7679C39.3973 35.6296 39.3817 35.4844 39.3206 35.3562C39.2595 35.228 39.1566 35.1244 39.0288 35.0625C37.1054 34.1002 35.3596 32.8177 33.8663 31.27C35.2956 32.2644 36.9444 32.8981 38.6719 33.1169C38.807 33.1338 38.9439 33.1061 39.0618 33.0381C39.1797 32.97 39.2722 32.8653 39.3252 32.7399C39.3782 32.6145 39.3888 32.4752 39.3553 32.3433C39.3219 32.2113 39.2463 32.0938 39.14 32.0088C37.1982 30.4591 35.7657 28.3628 35.0275 25.9906L34.7294 25.0381C33.6484 21.5762 32.75 18.0599 32.0381 14.5037C31.2469 10.5937 29.1296 7.07687 26.0443 4.54798C22.959 2.01908 19.0949 0.633311 15.1056 0.625C11.2667 0.630126 7.58648 2.15741 4.87195 4.87194C2.15741 7.58647 0.630134 11.2667 0.625008 15.1056C0.623567 16.0809 0.825722 17.0458 1.21854 17.9385C1.61136 18.8313 2.18619 19.6322 2.90626 20.29L1.51063 23.0806ZM1.87501 15.1056C1.87898 11.5979 3.27419 8.23491 5.75455 5.75455C8.23492 3.27418 11.5979 1.87897 15.1056 1.875C18.8061 1.88334 22.3903 3.16914 25.2522 5.51505C28.1141 7.86096 30.0782 11.1231 30.8125 14.75C31.533 18.349 32.4422 21.9077 33.5363 25.4113L33.8344 26.3644C34.4037 28.1942 35.3517 29.8837 36.6169 31.3231C34.5768 30.5415 32.8651 29.0861 31.7656 27.1981L27.4156 19.6875C27.335 19.5496 27.2046 19.4478 27.0512 19.4031C26.8979 19.3584 26.7332 19.374 26.591 19.4469C26.4489 19.5198 26.34 19.6443 26.2868 19.795C26.2336 19.9456 26.2401 20.1109 26.305 20.2569L29.0625 26.3819C30.5204 29.6149 32.7995 32.4097 35.6731 34.4881C32.0019 33.6868 28.5144 32.2011 25.3931 30.1087C23.3298 27.1028 21.8561 23.7322 21.0506 20.1763L19.9881 15.4887L18.7681 15.7662L19.8306 20.4538C20.4352 23.1103 21.3982 25.6723 22.6931 28.0694C19.4847 25.3455 16.8831 21.9791 15.0563 18.1875L13.6875 15.3531L12.5625 15.8969L13.9306 18.7312C16.7295 24.5583 21.2698 29.3717 26.9238 32.5056C28.4354 34.4141 30.4035 35.911 32.6463 36.8581L35.6419 38.1194C29.9468 38.0056 24.4223 36.155 19.8079 32.8153C15.1934 29.4756 11.7091 24.8062 9.82126 19.4319L6.61313 10.3025L7.90063 9.23L7.09938 8.27L5.67313 9.4575C4.87446 10.1213 4.23202 10.9531 3.79159 11.8936C3.35115 12.8342 3.12355 13.8602 3.12501 14.8987C3.12486 16.1872 3.31934 17.4684 3.70188 18.6987L3.49126 19.12C2.452 18.0423 1.87242 16.6028 1.87501 15.1056Z" fill="#030001"/>
<path d="M11.25 8.12489C11.634 8.12567 12.0059 8.2591 12.3029 8.5026C12.5998 8.74611 12.8034 9.08473 12.8794 9.46114L13.1375 10.7499C13.1662 10.8912 13.2428 11.0182 13.3545 11.1094C13.4661 11.2007 13.6058 11.2505 13.75 11.2505C13.8942 11.2505 14.0339 11.2007 14.1455 11.1094C14.2572 11.0182 14.3338 10.8912 14.3625 10.7499L14.6206 9.46364C14.6961 9.08677 14.8995 8.74757 15.1965 8.50357C15.4934 8.25957 15.8656 8.12579 16.25 8.12489C16.4158 8.12489 16.5747 8.05905 16.6919 7.94184C16.8092 7.82463 16.875 7.66565 16.875 7.49989C16.875 7.33413 16.8092 7.17516 16.6919 7.05795C16.5747 6.94074 16.4158 6.87489 16.25 6.87489C15.866 6.87412 15.4941 6.74069 15.1971 6.49718C14.9002 6.25368 14.6966 5.91506 14.6206 5.53864L14.3625 4.24989C14.3338 4.10861 14.2572 3.98158 14.1455 3.89035C14.0339 3.79911 13.8942 3.74927 13.75 3.74927C13.6058 3.74927 13.4661 3.79911 13.3545 3.89035C13.2428 3.98158 13.1662 4.10861 13.1375 4.24989L12.8794 5.53614C12.8039 5.91302 12.6005 6.25222 12.3035 6.49622C12.0066 6.74022 11.6344 6.874 11.25 6.87489C11.0842 6.87489 10.9253 6.94074 10.8081 7.05795C10.6908 7.17516 10.625 7.33413 10.625 7.49989C10.625 7.66565 10.6908 7.82463 10.8081 7.94184C10.9253 8.05905 11.0842 8.12489 11.25 8.12489ZM13.75 6.70427C13.9335 7.00983 14.1712 7.27943 14.4512 7.49989C14.1712 7.72036 13.9335 7.98996 13.75 8.29552C13.5665 7.98996 13.3288 7.72036 13.0488 7.49989C13.3288 7.27943 13.5665 7.00983 13.75 6.70427Z" fill="#030001"/>
<path d="M38.75 16.2499C38.366 16.2491 37.9941 16.1157 37.6971 15.8722C37.4002 15.6287 37.1966 15.2901 37.1206 14.9136L36.8625 13.6249C36.8338 13.4836 36.7572 13.3566 36.6455 13.2653C36.5339 13.1741 36.3942 13.1243 36.25 13.1243C36.1058 13.1243 35.9661 13.1741 35.8545 13.2653C35.7428 13.3566 35.6662 13.4836 35.6375 13.6249L35.3794 14.9111C35.3039 15.288 35.1005 15.6272 34.8035 15.8712C34.5066 16.1152 34.1344 16.249 33.75 16.2499C33.5842 16.2499 33.4253 16.3157 33.3081 16.433C33.1908 16.5502 33.125 16.7091 33.125 16.8749C33.125 17.0407 33.1908 17.1996 33.3081 17.3168C33.4253 17.434 33.5842 17.4999 33.75 17.4999C34.134 17.5007 34.5059 17.6341 34.8029 17.8776C35.0998 18.1211 35.3034 18.4597 35.3794 18.8361L35.6375 20.1249C35.6662 20.2662 35.7428 20.3932 35.8545 20.4844C35.9661 20.5757 36.1058 20.6255 36.25 20.6255C36.3942 20.6255 36.5339 20.5757 36.6455 20.4844C36.7572 20.3932 36.8338 20.2662 36.8625 20.1249L37.1206 18.8386C37.1961 18.4618 37.3995 18.1226 37.6965 17.8786C37.9934 17.6346 38.3656 17.5008 38.75 17.4999C38.9158 17.4999 39.0747 17.434 39.1919 17.3168C39.3092 17.1996 39.375 17.0407 39.375 16.8749C39.375 16.7091 39.3092 16.5502 39.1919 16.433C39.0747 16.3157 38.9158 16.2499 38.75 16.2499ZM36.25 17.6705C36.0665 17.365 35.8288 17.0954 35.5487 16.8749C35.8288 16.6544 36.0665 16.3848 36.25 16.0793C36.4335 16.3848 36.6712 16.6544 36.9513 16.8749C36.6712 17.0954 36.4335 17.365 36.25 17.6705Z" fill="#030001"/>
<path d="M29.375 4.99989C29.759 5.00067 30.1309 5.1341 30.4279 5.3776C30.7248 5.62111 30.9284 5.95973 31.0044 6.33614L31.2625 7.62489C31.2912 7.76618 31.3678 7.8932 31.4795 7.98444C31.5911 8.07568 31.7308 8.12552 31.875 8.12552C32.0192 8.12552 32.1589 8.07568 32.2705 7.98444C32.3822 7.8932 32.4588 7.76618 32.4875 7.62489L32.7456 6.33864C32.8211 5.96177 33.0245 5.62257 33.3215 5.37857C33.6184 5.13457 33.9906 5.00079 34.375 4.99989C34.5408 4.99989 34.6997 4.93405 34.8169 4.81684C34.9342 4.69963 35 4.54065 35 4.37489C35 4.20913 34.9342 4.05016 34.8169 3.93295C34.6997 3.81574 34.5408 3.74989 34.375 3.74989C33.991 3.74912 33.6191 3.61569 33.3221 3.37218C33.0252 3.12868 32.8216 2.79006 32.7456 2.41364L32.4875 1.12489C32.4588 0.983608 32.3822 0.856585 32.2705 0.765347C32.1589 0.674109 32.0192 0.624268 31.875 0.624268C31.7308 0.624268 31.5911 0.674109 31.4795 0.765347C31.3678 0.856585 31.2912 0.983608 31.2625 1.12489L31.0044 2.41114C30.9289 2.78802 30.7255 3.12722 30.4285 3.37122C30.1316 3.61522 29.7594 3.749 29.375 3.74989C29.2092 3.74989 29.0503 3.81574 28.9331 3.93295C28.8158 4.05016 28.75 4.20913 28.75 4.37489C28.75 4.54065 28.8158 4.69963 28.9331 4.81684C29.0503 4.93405 29.2092 4.99989 29.375 4.99989ZM31.875 3.57927C32.0585 3.88483 32.2962 4.15443 32.5763 4.37489C32.2962 4.59536 32.0585 4.86496 31.875 5.17052C31.6915 4.86496 31.4538 4.59536 31.1737 4.37489C31.4538 4.15443 31.6915 3.88483 31.875 3.57927Z" fill="#030001"/>
</g>
<defs>
<clipPath id="clip0_614_714">
<rect width="40" height="40" fill="white"/>
</clipPath>
</defs>
</svg>
