<svg width="39" height="39" viewBox="0 0 39 39" fill="none" xmlns="http://www.w3.org/2000/svg">
<path d="M25.9892 21.3282L15.7517 21.8711C15.199 21.9015 14.6683 22.0981 14.2293 22.4352C13.7902 22.7723 13.4632 23.2341 13.291 23.7602C13.4707 24.3102 13.8193 24.7894 14.2873 25.1296C14.7553 25.4698 15.3187 25.6536 15.8973 25.6547H26.1494C26.8002 25.6531 27.4331 25.4412 27.9536 25.0506C28.4741 24.66 28.8545 24.1116 29.0379 23.4872C28.8459 22.8373 28.4408 22.2709 27.8878 21.8792C27.3347 21.4876 26.666 21.2935 25.9892 21.3282Z" fill="#9923AF"/>
<path d="M8.03594 2.02124C7.67822 2.02218 7.32924 2.13192 7.03537 2.33589C6.74149 2.53986 6.51662 2.82841 6.39062 3.16321C6.5167 3.49796 6.74158 3.78646 7.03544 3.99042C7.3293 4.19438 7.67824 4.30415 8.03594 4.30518H10.0201C10.3778 4.30415 10.7267 4.19438 11.0206 3.99042C11.3144 3.78646 11.5393 3.49796 11.6654 3.16321C11.5394 2.82841 11.3145 2.53986 11.0206 2.33589C10.7268 2.13192 10.3778 2.02218 10.0201 2.02124H8.03594Z" fill="#9923AF"/>
<path d="M19.3353 36.6252H13.9338L13.0703 38.3224H19.3353H25.6003L24.7368 36.6252H19.3353Z" fill="#9923AF"/>
<path d="M33.7321 30.0751H28.7962V25.1008C29.2938 24.5724 29.6218 23.9072 29.7379 23.1907C29.854 22.4743 29.7529 21.7395 29.4476 21.0811C29.1424 20.4226 28.6469 19.8707 28.0251 19.4963C27.4033 19.122 26.6837 18.9424 25.9589 18.9808L24.2259 19.0728L23.8084 15.1168C24.2965 15.0432 24.7401 14.7915 25.0537 14.4103C25.3673 14.0291 25.5287 13.5453 25.5068 13.0522C25.4849 12.5175 25.2517 12.0133 24.8585 11.6503C24.4653 11.2874 23.944 11.0953 23.4093 11.1162L14.3905 11.4776L14.1224 9.38437C13.999 8.39978 13.5207 7.49402 12.7771 6.83695C12.0335 6.17987 11.0758 5.8166 10.0835 5.81526C10.0171 5.81526 9.95247 5.82318 9.88605 5.82623L9.77575 4.90059H10.0195C10.6498 4.90059 11.2543 4.6502 11.7 4.20451C12.1457 3.75882 12.3961 3.15433 12.3961 2.52402C12.3961 1.89372 12.1457 1.28923 11.7 0.84354C11.2543 0.397848 10.6498 0.147461 10.0195 0.147461H8.03477C7.40446 0.147461 6.79997 0.397848 6.35428 0.84354C5.90859 1.28923 5.6582 1.89372 5.6582 2.52402C5.6582 3.15433 5.90859 3.75882 6.35428 4.20451C6.79997 4.6502 7.40446 4.90059 8.03477 4.90059H8.54847L8.6868 6.0584C7.73277 6.40744 6.94361 7.10039 6.47416 8.00129C6.00471 8.90219 5.88887 9.94601 6.14936 10.9279L9.73127 24.4201C9.87155 24.9443 10.1808 25.4075 10.6112 25.738C11.0415 26.0686 11.5689 26.2479 12.1115 26.2482H13.3912L14.4417 28.4042C14.4918 28.507 14.5698 28.5936 14.6668 28.6542C14.7638 28.7147 14.8758 28.7468 14.9902 28.7467H16.9006V32.1957H16.5349C16.3733 32.1957 16.2183 32.2599 16.104 32.3742C15.9898 32.4885 15.9256 32.6435 15.9256 32.8051V34.596H14.6459C14.5334 34.5959 14.4231 34.627 14.3271 34.6857C14.2312 34.7444 14.1534 34.8285 14.1023 34.9288L12.524 38.0293C12.4767 38.1222 12.454 38.2258 12.4581 38.33C12.4622 38.4342 12.493 38.5357 12.5476 38.6246C12.6021 38.7135 12.6786 38.7869 12.7696 38.8378C12.8607 38.8887 12.9633 38.9154 13.0676 38.9153H25.5994C25.7036 38.9153 25.8061 38.8887 25.8971 38.8378C25.9881 38.7869 26.0645 38.7136 26.119 38.6247C26.1735 38.5359 26.2044 38.4346 26.2086 38.3304C26.2128 38.2263 26.1902 38.1228 26.143 38.0299L24.5653 34.9294C24.5143 34.829 24.4365 34.7448 24.3406 34.6859C24.2446 34.6271 24.1343 34.596 24.0217 34.596H22.742V32.8051C22.742 32.6435 22.6778 32.4885 22.5636 32.3742C22.4493 32.2599 22.2943 32.1957 22.1327 32.1957H21.767V28.7467H23.678C23.7924 28.7468 23.9044 28.7147 24.0014 28.6542C24.0984 28.5936 24.1764 28.507 24.2265 28.4042L25.2776 26.25H26.1497C26.6403 26.2503 27.1259 26.1508 27.5768 25.9575V33.1482C27.5768 33.3098 27.641 33.4648 27.7553 33.5791C27.8696 33.6933 28.0246 33.7575 28.1862 33.7575H33.7315C34.2194 33.7575 34.6874 33.5637 35.0324 33.2187C35.3774 32.8737 35.5712 32.4058 35.5712 31.9178C35.5712 31.4299 35.3774 30.962 35.0324 30.617C34.6874 30.272 34.2194 30.0781 33.7315 30.0781L33.7321 30.0751ZM6.87634 2.52159C6.87634 2.21452 6.99833 1.92002 7.21546 1.70289C7.43259 1.48576 7.72709 1.36377 8.03416 1.36377H10.0177C10.3247 1.36377 10.6192 1.48576 10.8364 1.70289C11.0535 1.92002 11.1755 2.21452 11.1755 2.52159C11.1755 2.82866 11.0535 3.12315 10.8364 3.34028C10.6192 3.55742 10.3247 3.6794 10.0177 3.6794H8.03477C7.88267 3.67948 7.73205 3.64959 7.5915 3.59144C7.45096 3.53329 7.32325 3.44802 7.21567 3.3405C7.1081 3.23298 7.02276 3.10531 6.96454 2.9648C6.90631 2.82429 6.87634 2.67368 6.87634 2.52159ZM15.4076 19.5713L14.8939 15.497L22.5885 15.1893L23.0053 19.1374L15.7214 19.5244C15.6117 19.5299 15.5118 19.5561 15.4076 19.5713ZM23.4556 12.3337C23.5624 12.3266 23.6695 12.3409 23.7707 12.3759C23.8718 12.4109 23.9649 12.4658 24.0444 12.5374C24.124 12.609 24.1883 12.6958 24.2337 12.7927C24.2791 12.8896 24.3046 12.9946 24.3087 13.1016C24.3128 13.2085 24.2953 13.3152 24.2575 13.4153C24.2196 13.5154 24.162 13.6068 24.0882 13.6843C24.0143 13.7617 23.9257 13.8236 23.8275 13.8661C23.7293 13.9087 23.6236 13.9311 23.5165 13.9321L14.7415 14.2837L14.5405 12.6908L23.4556 12.3337ZM10.9074 24.1075L7.32789 10.6147C7.22764 10.237 7.20611 9.8427 7.26463 9.45632C7.32315 9.06993 7.46047 8.69971 7.66807 8.36862C7.87566 8.03753 8.1491 7.75265 8.47141 7.53167C8.79372 7.31068 9.15801 7.15831 9.54167 7.08402C9.92533 7.00972 10.3202 7.01509 10.7017 7.09978C11.0832 7.18447 11.4432 7.34668 11.7594 7.57633C12.0756 7.80599 12.3412 8.09819 12.5397 8.4348C12.7382 8.77141 12.8654 9.14523 12.9134 9.53306L14.2303 19.9771C13.8036 20.2184 13.4352 20.5504 13.1511 20.9498C12.8669 21.3491 12.674 21.806 12.5859 22.2882C12.4978 22.7703 12.5168 23.2659 12.6414 23.7399C12.766 24.214 12.9933 24.6548 13.3071 25.0313H12.1115C11.837 25.0315 11.5702 24.941 11.3525 24.774C11.1347 24.6069 10.9783 24.3726 10.9074 24.1075ZM24.6031 37.6965H14.0609L15.0188 35.8148H23.6482L24.6031 37.6965ZM17.1461 34.596V33.4145H21.5233V34.596H17.1461ZM20.5489 32.1957H18.1199V28.7467H20.5489V32.1957ZM23.2978 27.5279H15.3716L14.7483 26.2482H23.9212L23.2978 27.5279ZM24.8968 25.0295H15.8963C15.3371 25.0292 14.8 24.8107 14.3995 24.4204C13.999 24.0302 13.7666 23.499 13.7518 22.9399C13.737 22.3809 13.9411 21.8382 14.3204 21.4273C14.6998 21.0164 15.2245 20.7699 15.783 20.7401L26.0205 20.1965C26.0643 20.1965 26.1082 20.1935 26.1521 20.1935C26.7929 20.1941 27.4071 20.4492 27.8599 20.9026C28.3126 21.356 28.5668 21.9707 28.5664 22.6115C28.5658 23.2526 28.3108 23.8672 27.8575 24.3205C27.4042 24.7739 26.7895 25.0288 26.1484 25.0295H24.8968ZM33.7327 32.5339H28.7968V31.2938H33.7327C33.8974 31.2938 34.0554 31.3593 34.1718 31.4757C34.2883 31.5922 34.3537 31.7501 34.3537 31.9148C34.3537 32.0795 34.2883 32.2374 34.1718 32.3539C34.0554 32.4703 33.8974 32.5357 33.7327 32.5357V32.5339Z" fill="#030001"/>
</svg>
