<svg width="38" height="40" viewBox="0 0 38 40" fill="none" xmlns="http://www.w3.org/2000/svg">
<path d="M36.7336 22.2588L34.3697 34.9388C33.9034 37.4153 31.7405 39.2164 29.2157 39.2164H14.7909C13.2793 39.2164 11.8963 38.5731 10.9395 37.5198V34.577L14.0994 30.7818C14.7588 29.9938 15.1125 29.0048 15.1125 27.9837V22.2588H36.7336Z" fill="#9923AF"/>
<path d="M15.1081 6.42847V27.9804C15.1081 29.0031 14.7563 29.9932 14.1017 30.7787L10.9352 34.5752H6.214L3.05559 30.7787C2.40103 29.9932 2.04102 29.0032 2.04102 27.9804V6.42847H15.1081Z" fill="#9923AF"/>
<path d="M16.5069 1.4855L15.1133 6.42458H2.04638L0.652799 1.4855C0.530912 1.05352 0.855448 0.624756 1.30431 0.624756H15.8554C16.3042 0.624756 16.6287 1.0536 16.5069 1.4855Z" fill="white"/>
<path d="M10.938 34.5752V38.2335C10.938 38.8638 10.4271 39.3748 9.79667 39.3748H7.35813C6.72781 39.3748 6.2168 38.8639 6.2168 38.2335V34.5752H10.938Z" fill="white"/>
<path d="M15.11 13.2933V24.192C13.2199 24.8303 10.978 25.1903 8.58055 25.1903C6.18314 25.1903 3.93305 24.8303 2.04297 24.192V13.2933C3.93305 12.6552 6.18314 12.2952 8.58055 12.2952C10.978 12.2952 13.2199 12.6552 15.11 13.2933Z" fill="white"/>
<path d="M15.113 6.427V13.2936C13.2154 12.6584 10.9801 12.2966 8.57602 12.2966C6.17994 12.2966 3.92852 12.6584 2.03906 13.2936V6.427H15.113Z" fill="#9923AF"/>
<path d="M36.7337 21.6338H29.6784C31.7062 19.1435 35.3883 14.2181 33.9334 12.9308C31.9228 11.1542 24.5323 19.5077 22.7854 21.6338H15.734C15.7344 20.0868 15.7327 27.2369 15.7377 6.5098L17.1074 1.65525C17.3416 0.824801 16.7187 0 15.8543 0H1.30287C0.439372 0 -0.184978 0.82386 0.0498493 1.65525L1.41337 6.48822C1.41824 30.4585 1.41706 3.95361 1.41706 27.9803C1.41706 29.1455 1.8284 30.2813 2.57613 31.1786L5.59004 34.8011V38.2336C5.59004 39.2078 6.38227 40 7.35643 40H9.79481C10.5707 40 11.2239 39.4941 11.4605 38.7972C12.4281 39.4679 13.5895 39.8413 14.7911 39.8413H29.2155C32.0353 39.8413 34.4615 37.8284 34.9846 35.0537L37.3485 22.3736C37.4193 21.9869 37.1233 21.6338 36.7337 21.6338ZM33.0472 13.9324C32.9648 14.7295 31.5879 17.4334 28.1462 21.5258H24.5042C25.8795 19.9082 30.9913 14.3974 33.0472 13.9324ZM2.66694 12.446V7.05378H14.4839V12.4472C10.6246 11.3643 6.10373 11.4806 2.66694 12.446ZM2.66694 13.7636C6.48321 12.5984 10.9368 12.6845 14.4839 13.7639V23.7365C10.8389 24.8532 6.23974 24.8312 2.66694 23.7365V13.7636ZM1.30287 1.24996L15.8958 1.27068C15.911 1.29085 15.9061 1.30913 15.9043 1.3158H15.9037L14.639 5.79951H2.51805L1.25342 1.31588C1.25279 1.31588 1.30287 1.24996 1.30287 1.24996ZM2.66694 27.9803V25.0203C6.33275 26.0595 10.6713 26.1011 14.4839 25.0203V27.9803C14.4839 28.7296 14.2503 29.4515 13.8412 30.0631C13.474 30.6098 14.081 29.7934 10.6436 33.9501H6.50793L3.53671 30.379C2.97578 29.7057 2.66694 28.8537 2.66694 27.9803ZM10.311 38.2335C10.311 38.518 10.0791 38.7499 9.79465 38.7499H7.35628C7.07184 38.7499 6.83992 38.518 6.83992 38.2335V35.2001H10.311V38.2335ZM33.7558 34.8229C33.3438 37.0067 31.4346 38.5912 29.2154 38.5912H14.791C13.5776 38.5912 12.4143 38.112 11.5641 37.2692V34.8033C14.2262 31.5871 14.5974 31.1893 14.8452 30.8336C14.8481 30.8293 14.8505 30.8248 14.8534 30.8206C15.4259 29.9921 15.7376 29.0006 15.7376 27.9838V22.8837H35.9812L33.7558 34.8229Z" fill="#030001"/>
</svg>
