<svg width="30" height="18" viewBox="0 0 30 18" fill="none" xmlns="http://www.w3.org/2000/svg">
<path fill-rule="evenodd" clip-rule="evenodd" d="M0 1C0 1.26522 0.150852 1.51957 0.41937 1.70711C0.687888 1.89464 1.05208 2 1.43182 2H19.5682C19.9479 2 20.3121 1.89464 20.5806 1.70711C20.8491 1.51957 21 1.26522 21 1C21 0.734784 20.8491 0.48043 20.5806 0.292893C20.3121 0.105357 19.9479 0 19.5682 0H1.43182C1.05208 0 0.687888 0.105357 0.41937 0.292893C0.150852 0.48043 0 0.734784 0 1ZM28.5938 8H1.40625C1.03329 8 0.675604 8.10536 0.411881 8.29289C0.148158 8.48043 0 8.73478 0 9C0 9.26522 0.148158 9.51957 0.411881 9.70711C0.675604 9.89464 1.03329 10 1.40625 10H28.5938C28.9667 10 29.3244 9.89464 29.5881 9.70711C29.8518 9.51957 30 9.26522 30 9C30 8.73478 29.8518 8.48043 29.5881 8.29289C29.3244 8.10536 28.9667 8 28.5938 8ZM10.4318 16H28.5682C28.9479 16 29.3121 16.1054 29.5806 16.2929C29.8491 16.4804 30 16.7348 30 17C30 17.2652 29.8491 17.5196 29.5806 17.7071C29.3121 17.8946 28.9479 18 28.5682 18H10.4318C10.0521 18 9.68789 17.8946 9.41937 17.7071C9.15085 17.5196 9 17.2652 9 17C9 16.7348 9.15085 16.4804 9.41937 16.2929C9.68789 16.1054 10.0521 16 10.4318 16Z" fill="url(#paint0_linear_928_608)"/>
<defs>
<linearGradient id="paint0_linear_928_608" x1="30" y1="9" x2="0" y2="9" gradientUnits="userSpaceOnUse">
<stop stop-color="#00BDCE"/>
<stop offset="1" stop-color="#FC0689"/>
</linearGradient>
</defs>
</svg>
