<svg width="71" height="71" viewBox="0 0 71 71" fill="none" xmlns="http://www.w3.org/2000/svg">
<path d="M71 20.8008V66.8398H49.8428C44.029 66.8398 40.9714 70.782 40.66 71H30.34C30.0241 70.779 27.0102 66.8398 21.1572 66.8398H0V16.6406H4.16016V62.6797H21.1752C27.6764 62.6797 31.2952 66.3477 32.1968 66.8398H38.8032C39.7044 66.3478 43.3241 62.6797 49.8248 62.6797H66.8398V20.8008H71Z" fill="url(#paint0_linear_921_249)"/>
<path d="M29.2501 60.1794C26.7235 59.0867 23.9902 58.5195 21.1752 58.5195H8.32031V8.32031H12.4805V50.1992H18.7207C24.3896 50.1992 29.0268 54.6381 29.2501 60.1794Z" fill="url(#paint1_linear_921_249)"/>
<path d="M49.8245 12.481C45.4183 12.481 41.1745 13.6353 37.4336 15.8425C37.5302 16.7874 37.5798 17.7483 37.5798 18.7212V62.593C37.8583 62.3909 38.1769 62.167 38.5398 61.9287C44.9625 57.6451 49.3879 58.52 62.6794 58.52V12.481H49.8245Z" fill="url(#paint2_linear_921_249)"/>
<path d="M33.416 60.5996C33.416 52.5709 26.822 46.0391 18.7168 46.0391H16.6367V0C27.0359 0 33.416 8.39811 33.416 18.7207V60.5996Z" fill="url(#paint3_linear_921_249)"/>
<defs>
<linearGradient id="paint0_linear_921_249" x1="35.5" y1="16.6406" x2="35.5" y2="71" gradientUnits="userSpaceOnUse">
<stop stop-color="#00BDCE"/>
<stop offset="1" stop-color="#FC0689"/>
</linearGradient>
<linearGradient id="paint1_linear_921_249" x1="18.7852" y1="8.32031" x2="18.7852" y2="60.1794" gradientUnits="userSpaceOnUse">
<stop stop-color="#00BDCE"/>
<stop offset="1" stop-color="#FC0689"/>
</linearGradient>
<linearGradient id="paint2_linear_921_249" x1="50.0565" y1="12.481" x2="50.0565" y2="62.593" gradientUnits="userSpaceOnUse">
<stop stop-color="#00BDCE"/>
<stop offset="1" stop-color="#FC0689"/>
</linearGradient>
<linearGradient id="paint3_linear_921_249" x1="25.0264" y1="0" x2="25.0264" y2="60.5996" gradientUnits="userSpaceOnUse">
<stop stop-color="#00BDCE"/>
<stop offset="1" stop-color="#FC0689"/>
</linearGradient>
</defs>
</svg>
