<svg width="33" height="33" viewBox="0 0 33 33" fill="none" xmlns="http://www.w3.org/2000/svg">
<path d="M16.1679 25.1143H10.0037C9.46312 25.1143 8.94464 24.8995 8.56237 24.5173C8.18009 24.135 7.96533 23.6165 7.96533 23.0759V9.99342C7.96533 9.4528 8.18009 8.93433 8.56237 8.55205C8.94464 8.16978 9.46312 7.95502 10.0037 7.95502H19.4415C19.9822 7.95502 20.5006 8.16978 20.8829 8.55205C21.2652 8.93433 21.48 9.4528 21.48 9.99342V14.8856C21.486 14.9495 21.4786 15.0139 21.4583 15.0747C21.438 15.1356 21.4052 15.1915 21.362 15.2389C21.3188 15.2864 21.2662 15.3243 21.2076 15.3502C21.1489 15.3762 21.0855 15.3896 21.0213 15.3896C20.9572 15.3896 20.8937 15.3762 20.8351 15.3502C20.7764 15.3243 20.7238 15.2864 20.6806 15.2389C20.6374 15.1915 20.6046 15.1356 20.5843 15.0747C20.564 15.0139 20.5566 14.9495 20.5627 14.8856V9.99342C20.5627 9.84799 20.534 9.70399 20.4782 9.56968C20.4224 9.43537 20.3407 9.3134 20.2376 9.21075C20.1346 9.10811 20.0123 9.02681 19.8778 8.97153C19.7433 8.91625 19.5992 8.88807 19.4538 8.88861H10.0037C9.85762 8.88699 9.71264 8.91437 9.57719 8.96917C9.44173 9.02397 9.31849 9.10509 9.2146 9.20784C9.11071 9.3106 9.02823 9.43294 8.97194 9.56778C8.91566 9.70263 8.88668 9.8473 8.88669 9.99342V23.0881C8.88668 23.2343 8.91566 23.3789 8.97194 23.5138C9.02823 23.6486 9.11071 23.771 9.2146 23.8737C9.31849 23.9765 9.44173 24.0576 9.57719 24.1124C9.71264 24.1672 9.85762 24.1946 10.0037 24.1929H16.1679C16.2901 24.1929 16.4072 24.2415 16.4936 24.3279C16.58 24.4143 16.6286 24.5314 16.6286 24.6536C16.6286 24.7758 16.58 24.893 16.4936 24.9794C16.4072 25.0658 16.2901 25.1143 16.1679 25.1143Z" fill="#CCA967"/>
<path d="M18.5854 12.8799H10.8394C10.7756 12.8859 10.7111 12.8785 10.6503 12.8582C10.5894 12.8379 10.5335 12.8051 10.4861 12.7619C10.4386 12.7188 10.4007 12.6661 10.3748 12.6075C10.3488 12.5488 10.3354 12.4854 10.3354 12.4212C10.3354 12.3571 10.3488 12.2936 10.3748 12.235C10.4007 12.1763 10.4386 12.1237 10.4861 12.0805C10.5335 12.0373 10.5894 12.0045 10.6503 11.9842C10.7111 11.9639 10.7756 11.9566 10.8394 11.9626H18.5854C18.6995 11.9734 18.8056 12.0263 18.8828 12.1112C18.96 12.196 19.0027 12.3065 19.0027 12.4212C19.0027 12.5359 18.96 12.6465 18.8828 12.7313C18.8056 12.8161 18.6995 12.8691 18.5854 12.8799Z" fill="#CCA967"/>
<path d="M15.1116 16.4593H10.8513C10.7291 16.4593 10.6119 16.4108 10.5256 16.3244C10.4392 16.238 10.3906 16.1208 10.3906 15.9986C10.3906 15.8764 10.4392 15.7593 10.5256 15.6729C10.6119 15.5865 10.7291 15.5379 10.8513 15.5379H15.1116C15.2338 15.5379 15.3509 15.5865 15.4373 15.6729C15.5237 15.7593 15.5722 15.8764 15.5722 15.9986C15.5722 16.1208 15.5237 16.238 15.4373 16.3244C15.3509 16.4108 15.2338 16.4593 15.1116 16.4593Z" fill="#CCA967"/>
<path d="M24.557 25.1144H18.0341C17.9079 25.1133 17.7872 25.0627 17.698 24.9735C17.6088 24.8842 17.5582 24.7635 17.5571 24.6374V23.0393C17.5571 22.9128 17.6074 22.7914 17.6968 22.702C17.7863 22.6125 17.9076 22.5623 18.0341 22.5623C18.1606 22.5623 18.2819 22.6125 18.3714 22.702C18.4608 22.7914 18.5111 22.9128 18.5111 23.0393V24.1563H24.08V23.0963C24.08 22.9698 24.1303 22.8485 24.2197 22.7591C24.3092 22.6696 24.4305 22.6193 24.557 22.6193C24.6835 22.6193 24.8048 22.6696 24.8943 22.7591C24.9837 22.8485 25.034 22.9698 25.034 23.0963V24.6333C25.034 24.7602 24.9839 24.8819 24.8945 24.972C24.8052 25.0621 24.6839 25.1133 24.557 25.1144Z" fill="#CCA967"/>
<path d="M21.2604 22.7865C21.1369 22.7869 21.0182 22.7385 20.9302 22.6519L18.9733 20.797C18.8814 20.7099 18.8278 20.59 18.8244 20.4634C18.821 20.3369 18.8679 20.2142 18.955 20.1223C19.042 20.0304 19.162 19.9768 19.2885 19.9734C19.415 19.9699 19.5378 20.0169 19.6297 20.1039L21.2604 21.6531L22.9727 20.0224C23.0171 19.9744 23.0709 19.9361 23.1308 19.9098C23.1907 19.8835 23.2553 19.8698 23.3207 19.8696C23.3861 19.8693 23.4508 19.8825 23.5109 19.9083C23.571 19.9342 23.6251 19.972 23.6699 20.0197C23.7147 20.0673 23.7492 20.1236 23.7714 20.1851C23.7935 20.2466 23.8028 20.3121 23.7985 20.3773C23.7943 20.4426 23.7767 20.5063 23.7469 20.5644C23.717 20.6226 23.6755 20.674 23.6249 20.7155L21.5865 22.6479C21.4994 22.7339 21.3828 22.7835 21.2604 22.7865Z" fill="#CCA967"/>
<path d="M21.3041 22.5663C21.1776 22.5663 21.0563 22.5161 20.9669 22.4266C20.8774 22.3372 20.8271 22.2158 20.8271 22.0893V16.9607C20.8271 16.8342 20.8774 16.7129 20.9669 16.6234C21.0563 16.534 21.1776 16.4837 21.3041 16.4837C21.4306 16.4837 21.552 16.534 21.6414 16.6234C21.7309 16.7129 21.7811 16.8342 21.7811 16.9607V22.0893C21.7811 22.2158 21.7309 22.3372 21.6414 22.4266C21.552 22.5161 21.4306 22.5663 21.3041 22.5663Z" fill="#CCA967"/>
<circle cx="16.5" cy="16.5" r="16" stroke="#CCA967"/>
</svg>
