<svg width="25" height="18" viewBox="0 0 25 18" fill="none" xmlns="http://www.w3.org/2000/svg">
<path d="M6.25 1.25C6.25 0.559668 6.80967 0 7.5 0H23.75C24.4403 0 25 0.559668 25 1.25C25 1.94033 24.4403 2.5 23.75 2.5H7.5C6.80967 2.5 6.25 1.94028 6.25 1.25ZM23.75 7.5H1.25C0.559668 7.5 0 8.05972 0 8.75C0 9.44033 0.559668 10 1.25 10H23.75C24.4403 10 25 9.44033 25 8.75C25 8.05972 24.4403 7.5 23.75 7.5ZM23.75 15H12.5C11.8097 15 11.25 15.5597 11.25 16.25C11.25 16.9403 11.8097 17.5 12.5 17.5H23.75C24.4403 17.5 25 16.9403 25 16.25C25 15.5597 24.4403 15 23.75 15Z" fill="#CCA967"/>
</svg>
