<svg width="18" height="18" viewBox="0 0 18 18" fill="none" xmlns="http://www.w3.org/2000/svg">
<path d="M15.1427 16.4576C14.4199 16.4576 13.8317 15.8694 13.8317 15.1465C13.8317 14.4236 14.4199 13.8354 15.1427 13.8354C15.8656 13.8354 16.4537 14.4236 16.4537 15.1465C16.4537 15.8727 15.8689 16.4576 15.1427 16.4576ZM15.1427 17.1641C16.2566 17.1641 17.1602 16.2605 17.1602 15.1465C17.1602 14.0326 16.2566 13.1289 15.1427 13.1289C14.0289 13.1289 13.1253 14.0326 13.1253 15.1465C13.1286 16.2605 14.0289 17.1641 15.1427 17.1641Z" fill="#EDEDED"/>
<path fill-rule="evenodd" clip-rule="evenodd" d="M12.7881 15.1475L12.7881 15.1465C12.7881 13.8467 13.8423 12.7924 15.1421 12.7924C16.4419 12.7924 17.4961 13.8467 17.4961 15.1465C17.4961 16.4463 16.4419 17.5007 15.1421 17.5007C13.8414 17.5007 12.7919 16.4457 12.7881 15.1475ZM14.1677 15.1465C14.1677 15.6836 14.6051 16.1211 15.1421 16.1211C15.6823 16.1211 16.1165 15.6869 16.1165 15.1465C16.1165 14.6095 15.679 14.172 15.1421 14.172C14.6051 14.172 14.1677 14.6095 14.1677 15.1465ZM13.1247 15.1465C13.1247 14.0326 14.0282 13.1289 15.1421 13.1289C16.2559 13.1289 17.1595 14.0326 17.1595 15.1465C17.1595 16.2605 16.2559 17.1641 15.1421 17.1641C14.0282 17.1641 13.1279 16.2605 13.1247 15.1465ZM13.8311 15.1465C13.8311 15.8694 14.4192 16.4576 15.1421 16.4576C15.8682 16.4576 16.4531 15.8727 16.4531 15.1465C16.4531 14.4236 15.8649 13.8354 15.1421 13.8354C14.4192 13.8354 13.8311 14.4236 13.8311 15.1465Z" fill="#EDEDED"/>
<path d="M8.7482 16.4576C8.02534 16.4576 7.4372 15.8694 7.4372 15.1465C7.4372 14.4236 8.02534 13.8354 8.7482 13.8354C9.47105 13.8354 10.0592 14.4236 10.0592 15.1465C10.0592 15.8727 9.47105 16.4576 8.7482 16.4576ZM8.7482 17.1641C9.86205 17.1641 10.7656 16.2605 10.7656 15.1465C10.7656 14.0326 9.86205 13.1289 8.7482 13.1289C7.63434 13.1289 6.73077 14.0326 6.73077 15.1465C6.73077 16.2605 7.63434 17.1641 8.7482 17.1641Z" fill="#EDEDED"/>
<path fill-rule="evenodd" clip-rule="evenodd" d="M7.77118 15.1465C7.77118 15.6836 8.20866 16.1211 8.7456 16.1211C9.2831 16.1211 9.72002 15.6863 9.72002 15.1465C9.72002 14.6095 9.28255 14.172 8.7456 14.172C8.20866 14.172 7.77118 14.6095 7.77118 15.1465ZM11.0996 15.1465C11.0996 16.4463 10.0454 17.5007 8.7456 17.5007C7.44583 17.5007 6.39159 16.4463 6.39159 15.1465C6.39159 13.8467 7.44583 12.7924 8.7456 12.7924C10.0454 12.7924 11.0996 13.8467 11.0996 15.1465ZM7.4346 15.1465C7.4346 15.8694 8.02274 16.4576 8.7456 16.4576C9.46846 16.4576 10.0566 15.8727 10.0566 15.1465C10.0566 14.4236 9.46846 13.8354 8.7456 13.8354C8.02275 13.8354 7.4346 14.4236 7.4346 15.1465ZM10.763 15.1465C10.763 16.2605 9.85946 17.1641 8.7456 17.1641C7.63174 17.1641 6.72817 16.2605 6.72817 15.1465C6.72817 14.0326 7.63175 13.1289 8.7456 13.1289C9.85946 13.1289 10.763 14.0326 10.763 15.1465Z" fill="#EDEDED"/>
<path d="M2.35562 16.4576C1.63276 16.4576 1.04462 15.8694 1.04462 15.1465C1.04462 14.4236 1.63276 13.8354 2.35562 13.8354C3.07848 13.8354 3.66662 14.4236 3.66662 15.1465C3.66333 15.8727 3.07848 16.4576 2.35562 16.4576ZM2.35562 17.1641C3.46948 17.1641 4.37305 16.2605 4.37305 15.1465C4.37305 14.0326 3.46948 13.1289 2.35562 13.1289C1.24176 13.1289 0.338189 14.0326 0.338189 15.1465C0.338189 16.2605 1.24176 17.1641 2.35562 17.1641Z" fill="#EDEDED"/>
<path fill-rule="evenodd" clip-rule="evenodd" d="M1.38056 15.1465C1.38056 15.6836 1.81803 16.1211 2.35498 16.1211C2.89083 16.1211 3.32654 15.6878 3.3294 15.1458C3.32899 14.6091 2.89167 14.172 2.35498 14.172C1.81803 14.172 1.38056 14.6095 1.38056 15.1465ZM3.66598 15.1465C3.66598 14.4236 3.07783 13.8354 2.35498 13.8354C1.63212 13.8354 1.04398 14.4236 1.04398 15.1465C1.04398 15.8694 1.63212 16.4576 2.35498 16.4576C3.07783 16.4576 3.66269 15.8727 3.66598 15.1465ZM4.70898 15.1465C4.70898 16.4463 3.65475 17.5007 2.35498 17.5007C1.05521 17.5007 0.000969502 16.4463 0.000969616 15.1465C0.000969729 13.8467 1.05521 12.7924 2.35498 12.7924C3.65475 12.7924 4.70898 13.8467 4.70898 15.1465ZM4.37241 15.1465C4.37241 16.2605 3.46883 17.1641 2.35498 17.1641C1.24112 17.1641 0.337548 16.2605 0.337548 15.1465C0.337549 14.0326 1.24112 13.1289 2.35498 13.1289C3.46883 13.1289 4.37241 14.0326 4.37241 15.1465Z" fill="#EDEDED"/>
<path d="M15.1427 10.0631C14.4199 10.0631 13.8317 9.47492 13.8317 8.752C13.8317 8.02908 14.4199 7.44089 15.1427 7.44089C15.8656 7.44089 16.4537 8.02908 16.4537 8.752C16.4537 9.47492 15.8689 10.0631 15.1427 10.0631ZM15.1427 10.7696C16.2566 10.7696 17.1602 9.86595 17.1602 8.752C17.1602 7.63805 16.2566 6.7344 15.1427 6.7344C14.0289 6.7344 13.1253 7.63805 13.1253 8.752C13.1286 9.86595 14.0289 10.7696 15.1427 10.7696Z" fill="#EDEDED"/>
<path fill-rule="evenodd" clip-rule="evenodd" d="M12.7881 8.75299L12.7881 8.752C12.7881 7.45219 13.8423 6.39783 15.1421 6.39783C16.4419 6.39783 17.4961 7.45219 17.4961 8.752C17.4961 10.0518 16.4419 11.1062 15.1421 11.1062C13.8414 11.1062 12.7919 10.0511 12.7881 8.75299ZM14.1677 8.752C14.1677 9.28906 14.6051 9.72653 15.1421 9.72653C15.6818 9.72653 16.1165 9.28961 16.1165 8.752C16.1165 8.21494 15.679 7.77747 15.1421 7.77747C14.6051 7.77747 14.1677 8.21494 14.1677 8.752ZM13.8311 8.752C13.8311 9.47492 14.4192 10.0631 15.1421 10.0631C15.8682 10.0631 16.4531 9.47492 16.4531 8.752C16.4531 8.02908 15.8649 7.44089 15.1421 7.44089C14.4192 7.44089 13.8311 8.02908 13.8311 8.752ZM17.1595 8.752C17.1595 9.86595 16.2559 10.7696 15.1421 10.7696C14.0282 10.7696 13.1279 9.86595 13.1247 8.752C13.1247 7.63805 14.0282 6.7344 15.1421 6.7344C16.2559 6.7344 17.1595 7.63805 17.1595 8.752Z" fill="#EDEDED"/>
<path d="M8.7482 10.0631C8.02534 10.0631 7.4372 9.47492 7.4372 8.752C7.4372 8.02908 8.02534 7.44089 8.7482 7.44089C9.47105 7.44089 10.0592 8.02908 10.0592 8.752C10.0592 9.47492 9.47105 10.0631 8.7482 10.0631ZM8.7482 10.7696C9.86205 10.7696 10.7656 9.86595 10.7656 8.752C10.7656 7.63805 9.86205 6.7344 8.7482 6.7344C7.63434 6.7344 6.73077 7.63805 6.73077 8.752C6.73077 9.86595 7.63434 10.7696 8.7482 10.7696Z" fill="#EDEDED"/>
<path fill-rule="evenodd" clip-rule="evenodd" d="M7.77118 8.75203C7.77118 9.28909 8.20866 9.72656 8.7456 9.72656C9.28255 9.72656 9.72002 9.28909 9.72002 8.75203C9.72002 8.21497 9.28255 7.7775 8.7456 7.7775C8.20866 7.7775 7.77118 8.21497 7.77118 8.75203ZM11.0996 8.75203C11.0996 10.0518 10.0454 11.1062 8.7456 11.1062C7.44583 11.1062 6.39159 10.0518 6.39159 8.75203C6.39159 7.45222 7.44583 6.39786 8.7456 6.39786C10.0454 6.39786 11.0996 7.45222 11.0996 8.75203ZM7.4346 8.75203C7.4346 9.47495 8.02274 10.0631 8.7456 10.0631C9.46846 10.0631 10.0566 9.47495 10.0566 8.75203C10.0566 8.02911 9.46846 7.44092 8.7456 7.44092C8.02275 7.44092 7.4346 8.02911 7.4346 8.75203ZM10.763 8.75203C10.763 9.86598 9.85946 10.7696 8.7456 10.7696C7.63174 10.7696 6.72817 9.86598 6.72817 8.75203C6.72817 7.63808 7.63175 6.73443 8.7456 6.73443C9.85946 6.73443 10.763 7.63808 10.763 8.75203Z" fill="#EDEDED"/>
<path d="M2.35562 10.0631C1.63276 10.0631 1.04462 9.47492 1.04462 8.752C1.04462 8.02908 1.63276 7.44089 2.35562 7.44089C3.07848 7.44089 3.66662 8.02908 3.66662 8.752C3.66333 9.47492 3.07848 10.0631 2.35562 10.0631ZM2.35562 10.7696C3.46948 10.7696 4.37305 9.86595 4.37305 8.752C4.37305 7.63805 3.46948 6.7344 2.35562 6.7344C1.24176 6.7344 0.338189 7.63805 0.338189 8.752C0.338189 9.86595 1.24176 10.7696 2.35562 10.7696Z" fill="#EDEDED"/>
<path fill-rule="evenodd" clip-rule="evenodd" d="M1.38056 8.75203C1.38056 9.28909 1.81803 9.72656 2.35498 9.72656C2.89028 9.72656 3.32654 9.29056 3.3294 8.75126C3.32898 8.21456 2.89166 7.7775 2.35498 7.7775C1.81803 7.7775 1.38056 8.21497 1.38056 8.75203ZM4.70898 8.75203C4.70898 10.0518 3.65475 11.1062 2.35498 11.1062C1.05521 11.1062 0.000969502 10.0518 0.000969616 8.75203C0.000969729 7.45222 1.05521 6.39786 2.35498 6.39786C3.65475 6.39786 4.70898 7.45222 4.70898 8.75203ZM1.04398 8.75203C1.04398 9.47495 1.63212 10.0631 2.35498 10.0631C3.07783 10.0631 3.66269 9.47495 3.66598 8.75203C3.66598 8.02911 3.07783 7.44092 2.35498 7.44092C1.63212 7.44092 1.04398 8.02911 1.04398 8.75203ZM4.37241 8.75203C4.37241 9.86598 3.46883 10.7696 2.35498 10.7696C1.24112 10.7696 0.337548 9.86598 0.337548 8.75203C0.337549 7.63808 1.24112 6.73443 2.35498 6.73443C3.46883 6.73443 4.37241 7.63808 4.37241 8.75203Z" fill="#EDEDED"/>
<path d="M15.1427 3.66857C14.4199 3.66857 13.8317 3.08038 13.8317 2.35746C13.8317 1.63454 14.4199 1.04635 15.1427 1.04635C15.8656 1.04635 16.4537 1.63454 16.4537 2.35746C16.4537 3.08038 15.8689 3.66528 15.1427 3.66857ZM15.1427 4.37177C16.2566 4.37177 17.1602 3.47141 17.1602 2.35746C17.1602 1.24351 16.2566 0.339864 15.1427 0.339864C14.0289 0.339864 13.1253 1.24351 13.1253 2.35746C13.1286 3.47141 14.0289 4.37177 15.1427 4.37177Z" fill="#EDEDED"/>
<path fill-rule="evenodd" clip-rule="evenodd" d="M12.7881 2.35845L12.7881 2.35746C12.7881 1.05765 13.8423 0.00328471 15.1421 0.00328482C16.4419 0.00328494 17.4961 1.05765 17.4961 2.35746C17.4961 3.65798 16.4411 4.70835 15.1421 4.70835C13.8421 4.70835 12.7919 3.6573 12.7881 2.35845ZM15.1413 3.33199C15.6832 3.32913 16.1165 2.89343 16.1165 2.35746C16.1165 1.8204 15.679 1.38293 15.1421 1.38293C14.6051 1.38293 14.1677 1.8204 14.1677 2.35746C14.1677 2.89426 14.6047 3.33158 15.1413 3.33199ZM13.8311 2.35746C13.8311 3.08038 14.4192 3.66857 15.1421 3.66857C15.8682 3.66528 16.4531 3.08038 16.4531 2.35746C16.4531 1.63454 15.8649 1.04635 15.1421 1.04635C14.4192 1.04635 13.8311 1.63454 13.8311 2.35746ZM17.1595 2.35746C17.1595 3.47141 16.2559 4.37177 15.1421 4.37177C14.0282 4.37177 13.1279 3.47141 13.1247 2.35746C13.1247 1.24351 14.0282 0.339864 15.1421 0.339864C16.2559 0.339864 17.1595 1.24351 17.1595 2.35746Z" fill="#EDEDED"/>
<path d="M8.7482 3.66857C8.02534 3.66857 7.4372 3.08038 7.4372 2.35746C7.4372 1.63454 8.02534 1.04635 8.7482 1.04635C9.47105 1.04635 10.0592 1.63454 10.0592 2.35746C10.0592 3.08038 9.47105 3.66528 8.7482 3.66857ZM8.7482 4.37177C9.86205 4.37177 10.7656 3.46812 10.7656 2.35417C10.7656 1.24022 9.86205 0.339864 8.7482 0.339864C7.63434 0.339864 6.73077 1.24351 6.73077 2.35746C6.73077 3.47141 7.63434 4.37177 8.7482 4.37177Z" fill="#EDEDED"/>
<path fill-rule="evenodd" clip-rule="evenodd" d="M8.74483 3.33199C9.28402 3.32913 9.72002 2.89288 9.72002 2.35746C9.72002 1.8204 9.28255 1.38293 8.7456 1.38293C8.20866 1.38293 7.77118 1.8204 7.77118 2.35746C7.77118 2.89426 8.20824 3.33157 8.74483 3.33199ZM11.0996 2.35417C11.0996 3.65398 10.0454 4.70835 8.7456 4.70835C7.44655 4.70835 6.39159 3.65798 6.39159 2.35746C6.39159 1.05765 7.44583 0.00328471 8.7456 0.00328482C10.0447 0.00328494 11.0996 1.05365 11.0996 2.35417ZM7.4346 2.35746C7.4346 3.08038 8.02274 3.66857 8.7456 3.66857C9.46846 3.66528 10.0566 3.08038 10.0566 2.35746C10.0566 1.63454 9.46846 1.04635 8.7456 1.04635C8.02275 1.04635 7.4346 1.63454 7.4346 2.35746ZM10.763 2.35417C10.763 3.46812 9.85946 4.37177 8.7456 4.37177C7.63174 4.37177 6.72817 3.47141 6.72817 2.35746C6.72817 1.24351 7.63175 0.339864 8.7456 0.339864C9.85946 0.339864 10.763 1.24022 10.763 2.35417Z" fill="#EDEDED"/>
<path d="M2.35562 3.66857C1.63276 3.66857 1.04462 3.08038 1.04462 2.35746C1.04462 1.63454 1.63276 1.04635 2.35562 1.04635C3.07848 1.04635 3.66662 1.63454 3.66662 2.35746C3.66333 3.08038 3.07848 3.66528 2.35562 3.66857ZM2.35562 4.37177C3.46948 4.37177 4.37305 3.46812 4.37305 2.35417C4.37305 1.24022 3.46948 0.336577 2.35562 0.336577C1.24176 0.336577 0.338189 1.24022 0.338189 2.35417C0.338189 3.47141 1.24176 4.37177 2.35562 4.37177Z" fill="#EDEDED"/>
<path fill-rule="evenodd" clip-rule="evenodd" d="M2.35421 3.33199C2.89174 3.32914 3.32655 2.89434 3.3294 2.35669C3.32898 1.81998 2.89166 1.38293 2.35498 1.38293C1.81803 1.38293 1.38056 1.8204 1.38056 2.35746C1.38056 2.89426 1.81762 3.33157 2.35421 3.33199ZM3.66598 2.35746C3.66598 1.63454 3.07783 1.04635 2.35498 1.04635C1.63212 1.04635 1.04398 1.63454 1.04398 2.35746C1.04398 3.08038 1.63212 3.66857 2.35498 3.66857C3.07783 3.66528 3.66269 3.08038 3.66598 2.35746ZM4.70898 2.35417C4.70898 3.65398 3.65475 4.70835 2.35498 4.70835C1.05556 4.70835 0.000969502 3.65763 0.000969616 2.35417C0.000969729 1.05436 1.05521 -1.65102e-06 2.35498 -1.53739e-06C3.65475 -1.42376e-06 4.70898 1.05436 4.70898 2.35417ZM4.37241 2.35417C4.37241 3.46812 3.46883 4.37177 2.35498 4.37177C1.24112 4.37177 0.337548 3.47141 0.337548 2.35417C0.337549 1.24022 1.24112 0.336577 2.35498 0.336577C3.46883 0.336577 4.37241 1.24022 4.37241 2.35417Z" fill="#EDEDED"/>
</svg>
