<svg width="50" height="50" viewBox="0 0 50 50" fill="none" xmlns="http://www.w3.org/2000/svg">
<path d="M36.813 18.6331H24.1938L27.4552 13.1726L25.1503 11.9048L20.5405 19.6118L18.8464 22.4477L15.608 16.9872L13.3031 18.255L17.5557 25.3726C17.584 25.4653 17.6227 25.5548 17.6709 25.6395L19.5724 28.8202H13.0957V31.3669H25.715L22.4536 36.8274L24.7585 38.0953L29.011 30.9777C29.0817 30.907 29.1436 30.8287 29.1954 30.7441L31.0969 27.5635L34.3583 33.024L36.6632 31.7562L32.2724 24.4273L30.3709 21.2466H36.9052L36.813 18.6331ZM27.2593 28.7979H22.6495L20.3446 24.9833L22.6495 21.1688H27.2593L29.5641 24.9833L27.2593 28.7979Z" fill="#EDEDED"/>
<circle cx="25" cy="25" r="24" stroke="#EDEDED" stroke-width="2"/>
</svg>
