<svg width="60" height="60" viewBox="0 0 60 60" fill="none" xmlns="http://www.w3.org/2000/svg">
<path d="M59.3906 28.7597L53.3566 24.097C52.8793 23.7281 52.2481 23.6634 51.7097 23.928C51.1672 24.1945 50.8304 24.7348 50.8307 25.3372V26.7007H46.3251V18.3404L47.0624 17.6031L48.0259 18.5668C48.4521 18.9934 49.0724 19.1371 49.6446 18.9422C50.2125 18.7486 50.6128 18.2566 50.6895 17.6583L51.6592 10.0946C51.7214 9.60928 51.5587 9.13257 51.2131 8.78681C50.8673 8.44104 50.3905 8.27834 49.9052 8.34069L42.3417 9.31034C41.7433 9.38692 41.2513 9.78727 41.0576 10.3552C40.8624 10.9273 41.0062 11.5475 41.4325 11.9734L42.3966 12.9375L41.6594 13.6748H33.2991V9.16916H34.6618H34.6628C35.2656 9.16916 35.8056 8.83234 36.072 8.28998C36.3366 7.7514 36.2718 7.12046 35.903 6.64328L31.2402 0.609411C30.9411 0.222117 30.4891 0.000117647 30.0001 0C29.9999 0 29.9999 0 29.9999 0C29.5111 0 29.059 0.222 28.7597 0.609293L24.097 6.64328C23.7281 7.12057 23.6632 7.75151 23.9278 8.28998C24.1943 8.83234 24.7341 9.16916 25.3364 9.16916H25.3372H26.7008V13.6747H18.3404L17.6033 12.9374L18.5668 11.9739C18.9936 11.5476 19.1375 10.9274 18.9422 10.3552C18.7486 9.78716 18.2564 9.38681 17.6583 9.31022L10.0946 8.34057C9.60986 8.27857 9.13269 8.44092 8.78681 8.78669C8.44104 9.13245 8.27834 9.60916 8.34057 10.0946L9.3101 17.6583C9.38681 18.2566 9.78727 18.7487 10.3552 18.9423C10.927 19.1375 11.5475 18.9937 11.9733 18.5673L12.9374 17.6033L13.6746 18.3404V26.7008H9.16904V25.3381C9.16939 24.7349 8.83269 24.1945 8.28998 23.928C7.7514 23.6634 7.12046 23.7282 6.64328 24.0969L0.609058 28.7597C0.222 29.059 0 29.511 0 29.9999C0 30.4889 0.222 30.9409 0.609175 31.2402L6.64328 35.903C7.12069 36.2719 7.75163 36.3366 8.2901 36.0719C8.83257 35.8053 9.16939 35.2651 9.16904 34.6626V33.2992H13.6746V41.6596L12.9374 42.3967L11.9739 41.4332C11.5476 41.0065 10.9276 40.8624 10.3552 41.0577C9.78727 41.2513 9.38692 41.7433 9.31022 42.3416L8.34045 49.9054C8.27834 50.3907 8.44092 50.8674 8.78681 51.2132C9.13257 51.5588 9.60798 51.7213 10.0946 51.6593L17.6582 50.6897C18.2566 50.6131 18.7486 50.2126 18.9422 49.6447C19.1374 49.0726 18.9936 48.4525 18.5673 48.0266L17.6031 47.0625L18.3403 46.3253H26.7007V50.8307H25.3379C25.3376 50.8307 25.3374 50.8307 25.337 50.8307C24.7342 50.8307 24.1942 51.1675 23.9277 51.7099C23.6631 52.2485 23.728 52.8794 24.0968 53.3566L28.7596 59.3907C29.0586 59.7779 29.5106 59.9999 29.9996 60H29.9998C30.4886 60 30.9408 59.778 31.2401 59.3907L35.9028 53.3567C36.2717 52.8795 36.3365 52.2486 36.0719 51.71C35.8053 51.1677 35.2656 50.8307 34.663 50.8307C34.6629 50.8307 34.6625 50.8307 34.6623 50.8307H33.2989V46.3253H41.6592L42.3964 47.0625L41.4327 48.0261C41.006 48.4525 40.8623 49.0727 41.0576 49.6448C41.2512 50.2126 41.7432 50.613 42.3413 50.6897L49.9051 51.6593C50.3904 51.7214 50.8671 51.559 51.2128 51.2132C51.5586 50.8675 51.7213 50.3908 51.6591 49.9054L50.6894 42.3416C50.6128 41.7434 50.2124 41.2514 49.6445 41.0577C49.0731 40.8626 48.4523 41.0062 48.0263 41.4326L47.0623 42.3967L46.325 41.6594V33.2992H50.8306V34.6618C50.8303 35.265 51.167 35.8053 51.7097 36.0719C52.2482 36.3366 52.8792 36.2717 53.3564 35.903L59.3905 31.2402C59.7778 30.941 59.9999 30.4889 59.9999 29.9999C59.9999 29.511 59.7778 29.0589 59.3906 28.7597ZM52.7131 34.0212V32.3579C52.7131 31.8382 52.2917 31.4168 51.7719 31.4168H45.3839C44.8641 31.4168 44.4427 31.8382 44.4427 32.3579V42.0492C44.4427 42.2989 44.5419 42.5383 44.7185 42.7147L46.397 44.3931C46.7644 44.7607 47.3603 44.7606 47.7279 44.3931L48.904 43.2169L49.7403 49.7403L43.2169 48.904L44.3931 47.7278C44.7606 47.3603 44.7606 46.7644 44.3931 46.3969L42.7147 44.7185C42.5382 44.542 42.2989 44.4429 42.0492 44.4429H32.3578C31.8381 44.4429 31.4166 44.8643 31.4166 45.384V51.7718C31.4166 52.2915 31.8381 52.713 32.3578 52.713H34.0212L29.9999 57.9172L25.9785 52.7131H27.6419C28.1617 52.7131 28.5831 52.2917 28.5831 51.7719V45.3841C28.5831 44.8644 28.1617 44.443 27.6419 44.443H17.9506C17.7009 44.443 17.4616 44.5421 17.285 44.7186L15.6067 46.397C15.2391 46.7645 15.2391 47.3604 15.6067 47.7279L16.7829 48.9041L10.2595 49.7404L11.0957 43.217L12.2719 44.3932C12.4484 44.5697 12.6877 44.6689 12.9374 44.6689C13.187 44.6689 13.4263 44.5697 13.6029 44.3932L15.2813 42.7149C15.4577 42.5384 15.5569 42.299 15.5569 42.0493V32.3581C15.5569 31.8383 15.1355 31.4169 14.6157 31.4169H8.22787C7.7081 31.4169 7.28669 31.8383 7.28669 32.3581V34.0213L2.0827 29.9999L7.28669 25.9787V27.6419C7.28669 28.1617 7.7081 28.5831 8.22787 28.5831H14.6157C15.1355 28.5831 15.5569 28.1617 15.5569 27.6419V17.9506C15.5569 17.7009 15.4577 17.4615 15.2813 17.285L13.6029 15.6067C13.2355 15.2391 12.6396 15.2391 12.2719 15.6067L11.0957 16.7829L10.2595 10.2595L16.7829 11.0957L15.6067 12.272C15.2391 12.6395 15.2391 13.2354 15.6067 13.6029L17.285 15.2814C17.4615 15.4579 17.7009 15.557 17.9506 15.557H27.6419C28.1617 15.557 28.5831 15.1356 28.5831 14.6159V8.22798C28.5831 7.70822 28.1617 7.28681 27.6419 7.28681H25.9785L29.9999 2.0827L34.0213 7.28669H32.3579C31.8382 7.28669 31.4168 7.7081 31.4168 8.22787V14.6157C31.4168 15.1355 31.8382 15.5569 32.3579 15.5569H42.0493C42.299 15.5569 42.5383 15.4577 42.7149 15.2813L44.3932 13.6028C44.7607 13.2353 44.7607 12.6394 44.3932 12.2719L43.217 11.0956L49.7404 10.2594L48.9041 16.7828L47.728 15.6066C47.3606 15.239 46.7647 15.239 46.3971 15.6066L44.7186 17.2849C44.542 17.4614 44.4429 17.7008 44.4429 17.9504V27.6417C44.4429 28.1615 44.8643 28.5829 45.384 28.5829H51.772C52.2918 28.5829 52.7132 28.1615 52.7132 27.6417V25.9784L57.9171 29.9999L52.7131 34.0212ZM29.6472 30.6028V39.6995C29.6472 40.2192 29.2258 40.6406 28.7061 40.6406H25.2388C24.719 40.6406 24.2976 40.2192 24.2976 39.6995V30.6028C24.2976 30.083 24.719 29.6616 25.2388 29.6616H28.7062C29.2258 29.6616 29.6472 30.083 29.6472 30.6028ZM41.757 24.2547V39.6995C41.757 40.2192 41.3356 40.6406 40.8158 40.6406H37.3485C36.8288 40.6406 36.4073 40.2192 36.4073 39.6995V24.2547C36.4073 23.7349 36.8288 23.3135 37.3485 23.3135H40.8158C41.3356 23.3135 41.757 23.7349 41.757 24.2547ZM36.4128 22.4022C36.3122 22.4022 36.2098 22.386 36.1093 22.3517C35.6172 22.1842 35.3542 21.6496 35.5217 21.1575L35.7072 20.6125L21.445 28.8469C21.2968 28.9324 21.1349 28.9731 20.9754 28.9731C20.65 28.9731 20.3337 28.8043 20.1594 28.5024C19.8994 28.0523 20.0537 27.4767 20.5038 27.2168L34.7659 18.9824L34.2015 18.8707C33.6916 18.7697 33.3601 18.2746 33.461 17.7647C33.5618 17.2548 34.0577 16.9231 34.567 17.0242L37.5878 17.6222C37.854 17.6749 38.0844 17.8398 38.22 18.0749C38.3557 18.3098 38.3835 18.592 38.296 18.8488L37.3037 21.764C37.1704 22.1556 36.8045 22.4022 36.4128 22.4022ZM23.5924 33.7766V39.6995C23.5924 40.2192 23.171 40.6406 22.6512 40.6406H19.184C18.6642 40.6406 18.2428 40.2192 18.2428 39.6995V33.7766C18.2428 33.2569 18.6642 32.8355 19.184 32.8355H22.6512C23.171 32.8355 23.5924 33.2569 23.5924 33.7766ZM35.702 27.4287V39.6995C35.702 40.2192 35.2806 40.6406 34.7609 40.6406H31.2936C30.7738 40.6406 30.3524 40.2192 30.3524 39.6995V27.4287C30.3524 26.9089 30.7738 26.4875 31.2936 26.4875H34.7609C35.2806 26.4875 35.702 26.9088 35.702 27.4287Z" fill="url(#paint0_linear_944_329)"/>
<defs>
<linearGradient id="paint0_linear_944_329" x1="29.9999" y1="0" x2="29.9999" y2="60" gradientUnits="userSpaceOnUse">
<stop stop-color="#00BDCE"/>
<stop offset="1" stop-color="#FC0689"/>
</linearGradient>
</defs>
</svg>
