<svg width="45" height="60" viewBox="0 0 45 60" fill="none" xmlns="http://www.w3.org/2000/svg">
<path fill-rule="evenodd" clip-rule="evenodd" d="M36.1567 3.41091C33.9563 3.41091 32.1701 5.19712 32.1701 7.39686C32.1701 9.59684 33.9563 11.3831 36.1567 11.3831C38.356 11.3831 40.1422 9.59684 40.1422 7.39686C40.1422 5.19712 38.356 3.41091 36.1567 3.41091ZM31.4026 26.014L34.3108 23.1052L38.7547 27.5492L35.8464 30.458C37.0717 32.2589 37.943 34.3259 38.3713 36.5553H42.4901V42.8298H38.3713C37.943 45.0592 37.0717 47.1115 35.8464 48.9273L38.7547 51.8357L34.3108 56.2794L31.4026 53.371C29.6015 54.5965 27.5345 55.4677 25.3198 55.8958V60H19.0302V55.8958C16.8156 55.4677 14.7486 54.5965 12.948 53.371L10.0245 56.2794L5.58064 51.8357L8.50375 48.9273C7.27842 47.1115 6.40709 45.0593 5.97929 42.8298H1.86001V36.5553H5.97941C6.40721 34.326 7.27854 32.2589 8.50387 30.458L5.58076 27.5492L10.0246 23.1052L12.9481 26.014C14.7487 24.7882 16.8157 23.9176 19.0304 23.4892V19.3704H25.32V23.4892C27.5345 23.9176 29.6015 24.7882 31.4026 26.014ZM16.3579 22.6475V18.4401C16.3579 18.0413 16.0334 17.7168 15.6346 17.7168C15.2359 17.7168 14.9114 18.0413 14.9114 18.4401V23.2235C14.3062 23.4891 13.7304 23.7847 13.1546 24.1093L12.5198 23.4743V19.6506C12.5198 15.074 16.2695 11.3238 20.846 11.3238H23.4889C28.0807 11.3238 31.816 15.074 31.816 19.6506V23.4743L31.1956 24.1093C30.6197 23.7847 30.044 23.4891 29.4388 23.2235V18.4401C29.4388 18.0413 29.1142 17.7168 28.7155 17.7168C28.3169 17.7168 27.9923 18.0413 27.9923 18.4401V22.6475C27.5936 22.5147 27.2095 22.3967 26.8112 22.2934V17.8789H17.5248V22.2934C17.1406 22.3969 16.7424 22.5147 16.3579 22.6475ZM22.175 0C19.5764 0 17.4799 2.11118 17.4799 4.7098C17.4799 7.29354 19.5764 9.40436 22.175 9.40436C24.7736 9.40436 26.87 7.29354 26.87 4.7098C26.8701 2.11118 24.7736 0 22.175 0ZM8.19391 3.41091C5.99405 3.41091 4.20771 5.19712 4.20771 7.39686C4.20771 9.59684 5.99405 11.3831 8.19391 11.3831C10.3936 11.3831 12.1652 9.59684 12.1652 7.39686C12.1652 5.19712 10.3936 3.41091 8.19391 3.41091ZM3.26271 35.0494V19.075C3.26271 18.7205 2.98202 18.4402 2.62802 18.4402C2.28818 18.4402 2.0075 18.7205 2.0075 19.075V29.2916C0.855846 28.9963 0 27.948 0 26.6931V20.079C0 16.1963 3.17427 13.007 7.0719 13.007H9.31603C10.6003 13.007 11.7966 13.3616 12.8443 13.9668C11.6928 15.576 11.0286 17.5393 11.0286 19.6508V21.9833L10.0245 20.9793L3.46923 27.5492L6.59933 30.6792C5.80181 32.0524 5.18236 33.5137 4.7836 35.0494H3.26271ZM31.5058 13.9668C32.5393 13.3616 33.7498 13.007 35.0346 13.007H37.2787C41.1615 13.007 44.3507 16.1962 44.3507 20.079V26.6931C44.3507 27.948 43.494 28.9963 42.3426 29.2916V19.075C42.3426 18.7205 42.0618 18.4402 41.7221 18.4402C41.3681 18.4402 41.0872 18.7205 41.0872 19.075V35.0494H39.5666C39.1534 33.5137 38.5483 32.0524 37.7507 30.6792L40.881 27.5492L34.3109 20.9793L33.3217 21.9833V19.6508C33.3216 17.5393 32.6427 15.576 31.5058 13.9668ZM32.5098 47.6429C32.6131 48.0417 32.3766 48.4546 31.9783 48.5579C31.5796 48.6765 31.1661 48.4251 31.0627 48.0268L30.6644 46.5209C29.808 47.5691 28.7744 48.4545 27.6081 49.1342C26.0137 50.064 24.1531 50.5953 22.175 50.5953C19.1634 50.5953 16.4464 49.3702 14.4684 47.3916C12.4903 45.4285 11.2797 42.6969 11.2797 39.6848C11.2797 39.3162 11.294 38.9469 11.3388 38.5628C11.3826 38.1793 11.4415 37.8101 11.5158 37.4405C11.5897 37.0277 11.9877 36.7765 12.4019 36.865C12.8001 36.9387 13.0661 37.3376 12.9775 37.7362C12.9032 38.0608 12.8591 38.3858 12.8297 38.7107C12.8001 39.0205 12.7705 39.3456 12.7705 39.6847C12.7705 42.2834 13.8335 44.6306 15.5314 46.3284C17.229 48.0414 19.5764 49.0892 22.175 49.0892C23.8875 49.0892 25.4822 48.6319 26.87 47.8344C27.6967 47.362 28.4642 46.7418 29.1142 46.0333L28.0806 46.3137C27.6819 46.4175 27.2689 46.1809 27.1652 45.782C27.0619 45.3838 27.2984 44.9702 27.6967 44.8672L30.7672 44.04C31.1659 43.9369 31.5796 44.1733 31.6827 44.5716L32.5098 47.6429ZM13.6855 32.8494C14.5277 31.8161 15.5608 30.9305 16.7423 30.2509C18.3363 29.3213 20.1969 28.7897 22.1749 28.7897C25.1865 28.7897 27.9035 30.0149 29.8816 31.9931C31.8454 33.9567 33.0707 36.6881 33.0707 39.6849C33.0707 40.0543 33.0558 40.4382 33.0117 40.8219C32.9674 41.2058 32.9083 41.5749 32.8342 41.9439C32.7456 42.3426 32.3622 42.6085 31.9487 42.5203C31.5499 42.4459 31.2839 42.0477 31.3731 41.6342C31.432 41.3238 31.491 40.9994 31.5205 40.6743C31.5501 40.3645 31.5647 40.0396 31.5647 39.685C31.5647 37.1019 30.5165 34.754 28.8186 33.0414C27.1208 31.3438 24.7736 30.2954 22.1749 30.2954C20.4623 30.2954 18.8531 30.7531 17.4798 31.5508C16.6385 32.0226 15.8858 32.6433 15.2357 33.3516L16.2693 33.0708C16.668 32.9677 17.0815 33.2041 17.1847 33.6024C17.2885 34.0012 17.052 34.4148 16.6533 34.5182L13.5827 35.3451C13.1838 35.4485 12.7703 35.2119 12.6672 34.8135L11.84 31.7425C11.7369 31.3438 11.9732 30.9306 12.3721 30.827C12.7703 30.709 13.1838 30.9452 13.2871 31.3438L13.6855 32.8494Z" fill="url(#paint0_linear_939_87)"/>
<defs>
<linearGradient id="paint0_linear_939_87" x1="6.84042" y1="54.4411" x2="36.5332" y2="3.01166" gradientUnits="userSpaceOnUse">
<stop offset="0.2463" stop-color="#00BDCE"/>
<stop offset="0.9563" stop-color="#FC0689"/>
</linearGradient>
</defs>
</svg>
