<svg width="60" height="60" viewBox="0 0 60 60" fill="none" xmlns="http://www.w3.org/2000/svg">
<path fill-rule="evenodd" clip-rule="evenodd" d="M10.855 30.8119C10.7067 30.7387 10.5773 30.6323 10.4768 30.501L7.27043 26.2259C7.10249 25.999 7.03113 25.7148 7.07194 25.4355C7.11275 25.1562 7.2624 24.9044 7.48823 24.735C7.71406 24.5656 7.99773 24.4924 8.27731 24.5315C8.55689 24.5705 8.80967 24.7186 8.98047 24.9433L10.263 26.6534V14.6401C10.2637 13.7899 10.6017 12.9747 11.2029 12.3735C11.804 11.7724 12.6192 11.4343 13.4694 11.4337L17.1247 11.4338C19.103 -3.81369 40.6708 -3.80881 42.6476 11.4337H46.3029C47.1531 11.4343 47.9683 11.7724 48.5695 12.3735C49.1706 12.9747 49.5087 13.7899 49.5093 14.6401V26.6534L50.7919 24.9434C50.9627 24.7186 51.2155 24.5706 51.4951 24.5315C51.7747 24.4925 52.0583 24.5656 52.2842 24.735C52.51 24.9044 52.6596 25.1562 52.7004 25.4356C52.7413 25.7149 52.6699 25.999 52.502 26.2259L49.2956 30.501C49.195 30.6323 49.0656 30.7387 48.9173 30.8119C48.7691 30.8851 48.6059 30.9232 48.4406 30.9232C48.2752 30.9232 48.112 30.8851 47.9638 30.8119C47.8155 30.7387 47.6861 30.6324 47.5855 30.5011L44.3791 26.2259C44.2112 25.999 44.1398 25.7148 44.1806 25.4355C44.2214 25.1562 44.3711 24.9044 44.5969 24.735C44.8228 24.5656 45.1064 24.4924 45.386 24.5315C45.6656 24.5705 45.9184 24.7186 46.0892 24.9433L47.3717 26.6534V14.6401C47.3722 14.4996 47.3449 14.3604 47.2913 14.2305C47.2378 14.1006 47.1591 13.9826 47.0597 13.8832C46.9604 13.7839 46.8424 13.7052 46.7125 13.6516C46.5826 13.5981 46.4434 13.5708 46.3029 13.5713L42.6796 13.5711C41.2065 29.4886 18.5718 29.5007 17.0926 13.5713H13.4694C13.3289 13.5708 13.1897 13.5981 13.0598 13.6516C12.9299 13.7052 12.8119 13.7839 12.7125 13.8832C12.6132 13.9826 12.5345 14.1006 12.4809 14.2305C12.4274 14.3604 12.4001 14.4996 12.4006 14.6401V26.6534L13.6831 24.9433C13.8554 24.7228 14.1073 24.5786 14.3848 24.5417C14.6622 24.5048 14.943 24.5782 15.167 24.7462C15.3909 24.9141 15.54 25.1631 15.5823 25.4398C15.6246 25.7165 15.5567 25.9987 15.3932 26.2259L12.1868 30.501C12.0863 30.6323 11.9569 30.7386 11.8086 30.8118C11.6603 30.8851 11.4972 30.9231 11.3318 30.9232C11.1664 30.9232 11.0033 30.8851 10.855 30.8119ZM27.3101 12.8438C28.0229 13.4703 28.9372 13.8196 29.8861 13.8278C30.2455 13.8278 30.5967 13.9343 30.8955 14.134C31.1943 14.3336 31.4272 14.6174 31.5647 14.9494C31.7022 15.2814 31.7382 15.6467 31.6681 15.9991C31.598 16.3516 31.425 16.6753 31.1709 16.9295C30.9168 17.1836 30.5931 17.3566 30.2406 17.4267C29.8882 17.4969 29.5229 17.4609 29.1909 17.3234C28.8589 17.1859 28.5751 16.953 28.3754 16.6542C28.1758 16.3555 28.0692 16.0042 28.0692 15.6448C28.0633 15.3653 27.9481 15.0991 27.7483 14.9035C27.5485 14.7078 27.2801 14.5982 27.0004 14.5982C26.7208 14.5982 26.4523 14.7078 26.2525 14.9034C26.0527 15.0991 25.9375 15.3652 25.9316 15.6448C25.933 16.5066 26.2155 17.3445 26.7363 18.0312C27.2571 18.718 27.9878 19.216 28.8174 19.4497V21.4268C28.8216 21.7075 28.9361 21.9752 29.1361 22.1722C29.3361 22.3691 29.6055 22.4796 29.8862 22.4796C30.1668 22.4796 30.4363 22.3692 30.6363 22.1722C30.8362 21.9753 30.9507 21.7076 30.955 21.4269L30.9549 19.4496C31.8666 19.1839 32.6523 18.5992 33.1689 17.8024C33.6854 17.0055 33.8984 16.0495 33.7688 15.1088C33.6392 14.168 33.1758 13.3052 32.4631 12.6776C31.7504 12.0501 30.8358 11.6996 29.8862 11.6902C29.5268 11.6902 29.1755 11.5836 28.8767 11.384C28.5779 11.1843 28.3451 10.9006 28.2075 10.5686C28.07 10.2366 28.034 9.87122 28.1041 9.51876C28.1742 9.1663 28.3473 8.84255 28.6014 8.58843C28.8555 8.33432 29.1792 8.16126 29.5317 8.09115C29.8841 8.02103 30.2495 8.057 30.5815 8.19452C30.9135 8.33203 31.1973 8.5649 31.3969 8.8637C31.5966 9.16249 31.7032 9.51378 31.7032 9.87314C31.709 10.1527 31.8242 10.4189 32.024 10.6145C32.2238 10.8102 32.4923 10.9197 32.7719 10.9197C33.0515 10.9197 33.32 10.8102 33.5198 10.6145C33.7196 10.4189 33.8348 10.1528 33.8407 9.87321C33.8407 9.01224 33.5586 8.175 33.0374 7.48972C32.5162 6.80444 31.7847 6.30889 30.955 6.07898V4.09107C30.9508 3.81041 30.8363 3.54269 30.6363 3.34573C30.4363 3.14876 30.1669 3.03835 29.8862 3.03834C29.6055 3.03833 29.3361 3.14872 29.1361 3.34568C28.9362 3.54264 28.8217 3.81035 28.8174 4.091L28.8175 6.07895C27.9062 6.34366 27.1205 6.92737 26.604 7.72347C26.0875 8.51958 25.8746 9.47493 26.0043 10.415C26.1339 11.3551 26.5974 12.2172 27.3101 12.8438ZM25.1835 44.6411C26.3107 45.3726 27.593 45.8309 28.9285 45.9798C30.264 46.1286 31.6157 45.9638 32.8763 45.4984C34.1369 45.0331 35.2715 44.28 36.1899 43.2991C37.1083 42.3183 37.7852 41.1366 38.1667 39.8482C38.5482 38.5598 38.6238 37.2001 38.3876 35.8773C38.1513 34.5545 37.6097 33.3051 36.8057 32.2284C36.0018 31.1517 34.9577 30.2775 33.7565 29.6752C32.5554 29.0729 31.2302 28.7592 29.8865 28.7589C28.0385 28.7884 26.2481 29.407 24.7761 30.5247C23.3041 31.6424 22.2273 33.2007 21.7026 34.9729C21.1778 36.7451 21.2324 38.6385 21.8585 40.3775C22.4847 42.1165 23.6495 43.6102 25.1835 44.6411ZM41.5481 39.0087C41.8438 48.1014 55.0314 48.1008 55.3357 39.0089C55.0109 29.8869 41.8735 29.8863 41.5481 39.0087ZM48.9781 48.0002C51.1077 47.873 53.1239 46.9976 54.6709 45.5284C57.3466 47.2316 61.3678 51.7177 59.1171 55.0516C58.7676 55.5427 58.3061 55.9434 57.7707 56.2204C57.2354 56.4974 56.6417 56.6426 56.0389 56.6441H46.3877C46.9159 52.6111 44.1401 48.8023 41.343 46.1483C42.1401 45.4284 42.2885 45.5329 43.0316 46.2235C44.7424 47.4981 46.8485 48.1273 48.9781 48.0002ZM39.7405 47.5805C38.8623 46.8098 37.8932 46.1494 36.8547 45.6139C36.5034 45.9086 36.1359 46.1833 35.7538 46.4369C34.0059 47.5627 31.9707 48.1614 29.8915 48.1614C27.8123 48.1615 25.7771 47.5628 24.0291 46.4369C23.6443 46.1804 23.2703 45.9025 22.9175 45.6139C21.8791 46.1494 20.91 46.8099 20.0319 47.5805C18.0209 49.309 16.5112 51.5459 15.6605 54.0574C15.4446 54.7404 15.3924 55.4646 15.5082 56.1715C15.6239 56.8783 15.9043 57.5481 16.3267 58.1265C16.7491 58.705 17.3017 59.176 17.9397 59.5015C18.5778 59.8269 19.2835 59.9977 19.9998 60L39.7726 60C40.7733 59.9921 41.7446 59.6611 42.542 59.0564C43.3393 58.4516 43.92 57.6055 44.1974 56.644C44.881 53.2414 42.0713 49.7373 39.7405 47.5805ZM16.7406 46.2231C17.4584 45.546 17.649 45.4301 18.4293 46.1377C15.6312 48.8069 12.8451 52.6309 13.3843 56.6438L3.73331 56.644C3.13055 56.6425 2.53684 56.4972 2.00149 56.2203C1.46613 55.9433 1.00458 55.5426 0.655156 55.0515C-1.58812 51.7301 2.43606 47.2255 5.10115 45.5284C6.64815 46.9975 8.66443 47.8729 10.7941 48C12.9237 48.1271 15.0298 47.4978 16.7406 46.2231ZM18.224 39.0089C17.8993 29.8869 4.76187 29.8863 4.43649 39.0087C4.73885 48.0971 17.9264 48.1051 18.224 39.0089Z" fill="url(#paint0_linear_944_359)"/>
<defs>
<linearGradient id="paint0_linear_944_359" x1="29.8881" y1="0" x2="29.8881" y2="60" gradientUnits="userSpaceOnUse">
<stop stop-color="#00BDCE"/>
<stop offset="1" stop-color="#FC0689"/>
</linearGradient>
</defs>
</svg>
