<svg width="61" height="60" viewBox="0 0 61 60" fill="none" xmlns="http://www.w3.org/2000/svg">
<path d="M21.3341 36.149C20.0954 34.4087 19.3637 32.2835 19.3637 29.9893C19.3637 24.1203 24.1385 19.3457 30.0074 19.3457C35.8763 19.3457 40.6546 24.1203 40.6546 29.9893C40.6546 32.2857 39.9212 34.4129 38.68 36.1541C37.9351 33.9139 35.7357 32.2928 33.147 32.2357C34.368 31.005 35.0078 29.0873 35.0078 27.2386C35.0078 24.4823 32.7637 22.24 30.0052 22.24C27.2467 22.24 25.0066 24.4823 25.0066 27.2386C25.0066 29.0873 25.646 31.005 26.866 32.2357C24.2815 32.2934 22.0831 33.9119 21.3341 36.149ZM36.9685 37.6212C36.8518 35.7076 35.1113 34.2087 33.0062 34.2087H27.0084C24.9043 34.2087 23.162 35.7084 23.042 37.6228V38.0297C24.9103 39.6515 27.3453 40.6365 30.0074 40.6365C32.6696 40.6365 35.1004 39.6539 36.9685 38.0355V37.6212ZM26.9828 27.2386C26.9828 29.0414 27.9206 31.5806 30.0053 31.5806C32.292 31.5806 33.0318 28.6553 33.0318 27.2386C33.0318 25.572 31.6742 24.216 30.0053 24.216C28.3364 24.216 26.9828 25.5719 26.9828 27.2386ZM38.2789 20.4639L42.5371 8.48749C42.617 8.26285 42.5251 8.0134 42.3186 7.89422C42.112 7.77481 41.8502 7.82025 41.6955 8.00166L33.334 17.8152C35.1856 18.3214 36.8691 19.239 38.2788 20.464L38.2789 20.4639ZM17.1705 13.8539C20.4613 11.2391 24.5658 9.62944 29.0195 9.42123V0C22.0038 0.228711 15.5413 2.88136 10.504 7.18735L17.1705 13.8539ZM14.5603 27.4407C14.635 27.4579 14.7095 27.4662 14.7828 27.4662C15.2328 27.4662 15.6396 27.1567 15.7449 26.6995C17.2824 20.0208 23.1473 15.3562 30.0075 15.3562C30.8963 15.3562 31.773 15.4356 32.6328 15.5914L34.0864 13.8853C32.7621 13.55 31.3975 13.3802 30.0075 13.3802C26.2281 13.3802 22.5289 14.6847 19.5913 17.0531C16.6981 19.3858 14.6482 22.6543 13.8191 26.2563C13.6967 26.788 14.0285 27.3185 14.5603 27.4407ZM50.9748 8.5217L44.3374 15.1591C47.4249 18.1417 49.5871 22.108 50.3285 26.6374L50.428 27.2455H59.9043L59.7975 26.3595C58.9525 19.3528 55.7201 13.1496 50.9748 8.5217ZM30.9954 0V9.4211C33.0568 9.51743 35.0435 9.91434 36.9095 10.5716L40.1911 6.72004C40.6617 6.16803 41.3469 5.85176 42.0715 5.85176C42.5046 5.85176 42.9319 5.96636 43.3071 6.18322C44.3385 6.77846 44.798 8.02624 44.3986 9.14942L42.7526 13.7792C42.7842 13.804 42.8157 13.8292 42.8472 13.8543L49.5138 7.18772C44.4764 2.88136 38.0128 0.228587 30.9952 0H30.9954ZM60.018 34.3532V29.2216H44.6404V29.9893C44.6404 38.0598 38.076 44.6259 30.0074 44.6259C21.9388 44.6259 15.3744 38.06 15.3744 29.9893V29.2216H0V34.3532L6.04169 37.145L8.00401 41.8786L5.70319 48.1235L11.8728 54.2972L18.1182 51.996L22.855 53.9583L25.6431 60H34.3717L37.1598 53.9583L41.8967 51.996L48.142 54.2972L54.3114 48.1237L52.014 41.8789L53.9765 37.145L60.0182 34.3532H60.018ZM9.6897 26.6374C10.431 22.1078 12.5932 18.1413 15.6804 15.1586L9.04309 8.5212C4.29734 13.1493 1.0639 19.3525 0.217226 26.3593L0.110157 27.2455H9.59016L9.6897 26.6374ZM45.232 27.4662C45.3053 27.4662 45.3797 27.4579 45.4543 27.4407C45.986 27.3185 46.3181 26.7882 46.1959 26.2564C45.4471 23.0007 43.7426 20.0742 41.3157 17.8209L40.5854 19.875C42.3971 21.767 43.6757 24.1154 44.2698 26.6993C44.3751 27.1567 44.7818 27.4662 45.232 27.4662Z" fill="url(#paint0_linear_944_315)"/>
<defs>
<linearGradient id="paint0_linear_944_315" x1="30.0091" y1="0" x2="30.0091" y2="60" gradientUnits="userSpaceOnUse">
<stop stop-color="#00BDCE"/>
<stop offset="1" stop-color="#FC0689"/>
</linearGradient>
</defs>
</svg>
