<svg width="46" height="60" viewBox="0 0 46 60" fill="none" xmlns="http://www.w3.org/2000/svg">
<path fill-rule="evenodd" clip-rule="evenodd" d="M34.1781 22.6794C33.8867 22.2309 34.0141 21.631 34.4628 21.3396C34.9113 21.0483 35.5112 21.1757 35.8026 21.6243C39.7528 27.7078 38.9133 35.748 33.7681 40.8932C28.2433 46.4178 19.4768 46.9242 13.3641 42.1133L13.4037 42.6064C13.4456 43.141 13.0462 43.6083 12.5117 43.6503C11.9772 43.6922 11.5098 43.2928 11.4679 42.7583L11.2314 39.8127C11.1842 39.2167 11.6814 38.7172 12.291 38.7702L15.2208 39.0052C15.7554 39.0471 16.1547 39.5145 16.1128 40.049C16.0698 40.5969 15.6107 40.9844 15.0184 40.9369C20.3586 44.7769 27.7233 44.1896 32.3939 39.5192C36.8888 35.0243 37.6242 27.9884 34.1781 22.6794ZM40.5976 13.1265L37.9267 3.15812C37.0195 3.52893 36.0533 3.61407 34.9277 3.35598L29.7472 2.16836C28.5676 1.89787 27.4588 2.00245 26.4105 2.60767L13.4554 10.0871C12.2994 10.7545 11.8998 12.2462 12.5672 13.4025C13.2345 14.5585 14.7266 14.9584 15.8825 14.291L23.0583 10.1481C22.7664 7.5968 25.1688 5.5404 27.6499 6.21582L32.4811 7.53073C32.9989 7.67113 33.3047 8.20482 33.1643 8.72247C33.0239 9.24025 32.4902 9.54608 31.9725 9.40567L27.1413 8.09077C26.2323 7.84336 25.2845 8.38531 25.0374 9.29296C24.6501 10.7158 25.4999 12.2014 26.9229 12.5887L35.9673 15.0504C37.1357 15.3684 38.2575 14.9186 39.219 14.1824L40.5976 13.1265ZM42.5469 12.893L39.427 1.24941C39.3509 0.965318 39.5209 0.670783 39.805 0.59475L41.957 0.0181894C42.2408 -0.0579648 42.5355 0.112076 42.6117 0.396166L45.7315 12.0399C45.8077 12.3239 45.6375 12.6185 45.3536 12.6945L43.2016 13.2712C42.9176 13.3471 42.6231 13.1772 42.5469 12.893ZM5.15209 46.8734L7.82319 56.8418C8.73036 56.471 9.69656 56.3858 10.8221 56.6439L16.0027 57.8316C17.1823 58.102 18.2909 57.9975 19.3393 57.3922L32.2945 49.9127C33.4506 49.2453 33.85 47.7536 33.1828 46.5973C32.5156 45.4413 31.0234 45.0414 29.8674 45.7088L22.6916 49.8517C22.9834 52.403 20.581 54.4594 18.1 53.784L13.2688 52.4691C12.751 52.3287 12.4452 51.795 12.5856 51.2773C12.726 50.7596 13.2596 50.4537 13.7773 50.5941L18.6085 51.909C19.5175 52.1564 20.4654 51.6145 20.7124 50.7068C21.0998 49.284 20.2499 47.7983 18.8269 47.4111L9.78255 44.9494C8.61412 44.6314 7.49234 45.0812 6.531 45.8174L5.15209 46.8734ZM3.20281 47.1069L6.3227 58.7506C6.39885 59.0347 6.22881 59.3293 5.94472 59.4053L3.79273 59.9819C3.50888 60.0579 3.21423 59.888 3.13807 59.6039L0.0181819 47.9603C-0.0579722 47.6762 0.11219 47.3817 0.396038 47.3057L2.54803 46.729C2.83224 46.6528 3.12665 46.8227 3.20281 47.1069ZM22.8749 26.2378C21.5733 26.2378 20.5183 27.2929 20.5183 28.5943C20.5183 29.8958 21.5734 30.9509 22.8749 30.9509C24.1763 30.9509 25.2314 29.8959 25.2314 28.5943C25.2314 27.2928 24.1763 26.2378 22.8749 26.2378ZM18.5269 35.2116C18.5137 35.3892 18.6523 35.5384 18.8302 35.5384H26.9195C27.0976 35.5384 27.2362 35.389 27.2228 35.2116C27.0542 32.9646 25.163 31.1783 22.8749 31.1783C20.5867 31.1783 18.6955 32.9647 18.5269 35.2116ZM26.7269 30.5064L26.709 30.5419C27.7515 31.3437 28.5403 32.4645 28.9226 33.7621H33.6639C33.8419 33.7621 33.9805 33.6127 33.9671 33.4353C33.7985 31.1883 31.9073 29.402 29.6192 29.402C28.5121 29.402 27.4979 29.8202 26.7269 30.5064ZM11.7825 33.4353C11.7691 33.6128 11.9077 33.7621 12.0858 33.7621H16.827C17.2093 32.4643 17.9981 31.3435 19.0406 30.5419L19.0227 30.5063C18.2516 29.8202 17.2374 29.4019 16.1304 29.4019C13.8423 29.402 11.9511 31.1883 11.7825 33.4353ZM29.6192 24.4614C28.3178 24.4614 27.2627 25.5163 27.2627 26.8179C27.2627 28.1194 28.3178 29.1744 29.6192 29.1744C30.9207 29.1744 31.9757 28.1194 31.9757 26.8179C31.9757 25.5165 30.9207 24.4614 29.6192 24.4614ZM16.1304 24.4614C14.829 24.4614 13.7739 25.5163 13.7739 26.8179C13.7739 28.1194 14.829 29.1744 16.1304 29.1744C17.432 29.1744 18.487 28.1194 18.487 26.8179C18.4871 25.5165 17.432 24.4614 16.1304 24.4614ZM32.346 17.3935L32.3855 17.8857C26.2726 13.0761 17.5062 13.5822 11.9817 19.1068C6.83598 24.2525 5.99671 32.2909 9.94798 38.3757C10.2394 38.8242 10.8392 38.9518 11.2878 38.6604C11.7363 38.369 11.8639 37.7691 11.5725 37.3206C8.12526 32.012 8.86081 24.9757 13.3557 20.4808C18.0265 15.81 25.3922 15.2233 30.7325 19.0632C30.139 19.0154 29.6798 19.4025 29.6368 19.951C29.5949 20.4856 29.9942 20.9529 30.5288 20.9948L33.4586 21.2298C34.0682 21.2828 34.5656 20.7834 34.5183 20.1874L34.2818 17.2418C34.2399 16.7072 33.7726 16.3079 33.238 16.3498C32.7035 16.3916 32.3041 16.8589 32.346 17.3935Z" fill="url(#paint0_linear_944_311)"/>
<defs>
<linearGradient id="paint0_linear_944_311" x1="22.8749" y1="0" x2="22.8749" y2="60" gradientUnits="userSpaceOnUse">
<stop stop-color="#00BDCE"/>
<stop offset="1" stop-color="#FC0689"/>
</linearGradient>
</defs>
</svg>
