<svg width="61" height="60" viewBox="0 0 61 60" fill="none" xmlns="http://www.w3.org/2000/svg">
<path d="M35.1588 8.71115L33.5931 6.36749C32.9833 5.45525 31.6186 5.41464 30.9835 6.37676L29.4178 8.71115C28.733 9.7073 29.4261 11.1503 30.7178 11.1503H31.401V11.6247V17.7457C31.401 19.9475 29.6073 21.7407 27.4059 21.7407C24.1606 21.7407 21.5225 24.3791 21.5225 27.6244V32.8529C20.3648 33.2422 19.5391 34.3329 19.5391 35.6238C19.5391 37.2372 20.8485 38.5467 22.4714 38.5467C24.0846 38.5467 25.394 37.2372 25.394 35.6238C25.394 34.3329 24.5686 33.2422 23.4204 32.8529V27.6244C23.4204 25.4226 25.2043 23.6386 27.4059 23.6386C30.6513 23.6386 33.2989 20.991 33.2989 17.7457V11.6247V11.141H33.8494C35.1451 11.141 35.8157 9.71326 35.1588 8.71115Z" fill="url(#paint0_linear_944_300)"/>
<path d="M39.4071 58.8972V56.8686C39.4071 55.3794 38.194 54.1775 36.7052 54.1775H35.0712V50.7505H44.2971C44.0598 51.2815 43.8036 51.794 43.5284 52.2972H42.9022C41.4597 52.2972 40.2828 53.4741 40.2828 54.9161V58.1327C40.2828 58.9964 40.9852 59.7081 41.8582 59.7081H58.9584C59.8313 59.7081 60.5336 58.9964 60.5336 58.1327V54.9161C60.5336 53.4741 59.3569 52.2972 57.9144 52.2972H57.2882C55.2196 48.5014 54.1851 44.1643 54.2799 39.6095H54.3749C55.4473 39.6095 56.3203 38.7366 56.3203 37.6644C56.3203 36.9619 55.9503 36.3447 55.3998 36.0037C56.007 35.0733 56.3582 33.9631 56.3582 32.7769C56.3582 30.917 55.4948 29.2563 54.1471 28.1646V15.8282C54.1471 12.5449 51.528 9.85003 48.2636 9.73604V5.33323C48.2636 2.39184 45.8723 0 42.9304 0H11.226C8.28435 0 5.89296 2.39184 5.89296 5.33323V9.73604C2.62839 9.85003 0 12.5449 0 15.8282V44.6388C0 48.0074 2.74237 50.7505 6.11121 50.7505H19.0808V54.1775H17.4507C15.9619 54.1775 14.7491 55.3794 14.7491 56.8686V58.8972C14.7491 59.5042 15.2453 60 15.8519 60H38.3043C38.9108 60 39.4071 59.5042 39.4071 58.8972ZM5.89296 41.7354H1.89791V15.8282C1.89791 13.5893 3.66283 11.7479 5.89296 11.6339V41.7354ZM57.9144 54.1951C58.2882 54.1951 58.6356 54.5063 58.6356 54.9161V57.8102H42.1807V54.9161C42.1807 54.5463 42.4657 54.2423 42.8262 54.2043C42.9219 54.1577 44.6624 54.1951 57.9144 54.1951ZM55.1626 52.2972H45.654C47.1637 49.3324 48.1774 45.6469 48.3966 41.7354C48.4344 41.033 48.4439 40.3213 48.4249 39.6095H52.42V41.7354C52.6354 45.4646 53.5375 49.0471 55.1626 52.2972ZM48.2636 11.6339C50.4841 11.7479 52.2492 13.5893 52.2492 15.8282V27.1304C51.6702 26.9414 51.0535 26.8367 50.4083 26.8367C49.6491 26.8367 48.9279 26.9785 48.2636 27.2352V11.6339ZM50.4083 28.7346C52.6006 28.7346 54.4603 30.5258 54.4603 32.7769C54.4603 33.9185 53.9538 35.007 53.1982 35.709C53.0569 35.709 47.385 35.709 47.6184 35.709C46.1828 34.4018 46.3828 32.6633 46.3657 32.5684C46.4552 30.4225 48.2942 28.7346 50.4083 28.7346ZM7.79087 41.7354C7.79087 28.2644 7.79087 18.4562 7.79087 5.33323C7.79087 3.44459 9.32806 1.89791 11.226 1.89791H42.9304C44.8191 1.89791 46.3657 3.44459 46.3657 5.33323V28.4306C45.189 29.513 44.4583 31.0597 44.4583 32.7769C44.4583 33.9631 44.8093 35.0733 45.4168 36.0037C44.8663 36.3447 44.4963 36.9619 44.4963 37.6644C44.4963 38.7171 45.3313 39.5715 46.3657 39.6095V41.7354H7.79087ZM27.0829 47.7609C26.2195 47.7609 25.5173 47.0687 25.5173 46.205C25.5173 45.3505 26.2195 44.6481 27.0829 44.6481C27.9371 44.6481 28.6299 45.3505 28.6299 46.205C28.6299 47.0687 27.9371 47.7609 27.0829 47.7609Z" fill="url(#paint1_linear_944_300)"/>
<defs>
<linearGradient id="paint0_linear_944_300" x1="27.4767" y1="5.66919" x2="27.4767" y2="38.5467" gradientUnits="userSpaceOnUse">
<stop stop-color="#00BDCE"/>
<stop offset="1" stop-color="#FC0689"/>
</linearGradient>
<linearGradient id="paint1_linear_944_300" x1="30.2668" y1="0" x2="30.2668" y2="60" gradientUnits="userSpaceOnUse">
<stop stop-color="#00BDCE"/>
<stop offset="1" stop-color="#FC0689"/>
</linearGradient>
</defs>
</svg>
