<svg width="24" height="14" viewBox="0 0 24 14" fill="none" xmlns="http://www.w3.org/2000/svg">
<path d="M23.0769 1.55556H9.53846C9.29365 1.55556 9.05886 1.47361 8.88575 1.32775C8.71264 1.18189 8.61539 0.984057 8.61539 0.777778C8.61539 0.571498 8.71264 0.373667 8.88575 0.227806C9.05886 0.0819441 9.29365 0 9.53846 0H23.0769C23.3217 0 23.5565 0.0819441 23.7296 0.227806C23.9028 0.373667 24 0.571498 24 0.777778C24 0.984057 23.9028 1.18189 23.7296 1.32775C23.5565 1.47361 23.3217 1.55556 23.0769 1.55556ZM24 7C24 6.79372 23.9028 6.59589 23.7296 6.45003C23.5565 6.30417 23.3217 6.22222 23.0769 6.22222H0.923077C0.678262 6.22222 0.443473 6.30417 0.270363 6.45003C0.0972523 6.59589 0 6.79372 0 7C0 7.20628 0.0972523 7.40411 0.270363 7.54997C0.443473 7.69583 0.678262 7.77778 0.923077 7.77778H23.0769C23.3217 7.77778 23.5565 7.69583 23.7296 7.54997C23.9028 7.40411 24 7.20628 24 7ZM15.3846 13.2222C15.3846 13.0159 15.2874 12.8181 15.1143 12.6722C14.9411 12.5264 14.7064 12.4444 14.4615 12.4444H0.923077C0.678262 12.4444 0.443473 12.5264 0.270363 12.6722C0.0972523 12.8181 0 13.0159 0 13.2222C0 13.4285 0.0972523 13.6263 0.270363 13.7722C0.443473 13.9181 0.678262 14 0.923077 14H14.4615C14.7064 14 14.9411 13.9181 15.1143 13.7722C15.2874 13.6263 15.3846 13.4285 15.3846 13.2222Z" fill="white"/>
</svg>
