<svg width="57" height="57" viewBox="0 0 57 57" fill="none" xmlns="http://www.w3.org/2000/svg">
<circle opacity="0.38" cx="28.5" cy="28.5" r="28.5" fill="#D9D9D9"/>
<path d="M28.5 8C17.1897 8 8 17.1897 8 28.5C8 39.8103 17.1897 49 28.5 49C39.8103 49 49 39.8103 49 28.5C49 17.1897 39.8103 8 28.5 8ZM25.319 32.9181L22.4914 35.7457H24.6121V37.5129H19.4871V32.5647H21.2543V34.6853L24.0819 31.8578C24.4353 31.5043 24.9655 31.5043 25.319 31.8578C25.6724 32.0345 25.6724 32.5647 25.319 32.9181ZM25.319 25.319C25.1422 25.4957 24.9655 25.4957 24.7888 25.4957C24.6121 25.4957 24.2586 25.4957 24.2586 25.319L21.2543 22.4914V24.6121H19.4871V19.4871H24.4353V21.2543H22.4914L25.319 24.0819C25.6724 24.4353 25.6724 24.9655 25.319 25.319ZM37.5129 37.5129H32.5647V35.7457H34.6853L31.8578 32.9181C31.5043 32.5647 31.5043 32.0345 31.8578 31.681C32.2112 31.3276 32.7414 31.3276 33.0948 31.681L35.9224 34.5086V32.3879H37.6897V37.5129H37.5129ZM37.5129 24.6121H35.7457V22.4914L32.9181 25.319C32.7414 25.4957 32.5647 25.4957 32.3879 25.4957C32.2112 25.4957 31.8578 25.4957 31.681 25.319C31.3276 24.9655 31.3276 24.4353 31.681 24.0819L34.5086 21.2543H32.3879V19.4871H37.3362V24.6121H37.5129Z" fill="white"/>
</svg>
