<svg width="19" height="19" viewBox="0 0 19 19" fill="none" xmlns="http://www.w3.org/2000/svg">
<path d="M14.2998 0.100403C14.5647 0.100833 14.8185 0.206036 15.0059 0.393372C15.1932 0.580709 15.2984 0.834505 15.2988 1.09943V5.2049C15.6865 5.22948 16.0537 5.39251 16.3301 5.66876C16.6103 5.94897 16.773 6.32285 16.7939 6.71661C16.9908 6.74262 17.1814 6.80359 17.3555 6.90021C17.5548 7.01096 17.7283 7.16366 17.8633 7.34747C18.0131 7.54798 18.1138 7.78146 18.1562 8.02814C18.1986 8.27452 18.1814 8.52763 18.1074 8.76642L18.1084 8.7674L15.541 17.1678C15.442 17.4961 15.2395 17.7841 14.9639 17.9881C14.7225 18.1666 14.4363 18.2729 14.1387 18.2957L14.0107 18.2996H1.69922C1.27505 18.2991 0.868292 18.1308 0.568359 17.8309C0.268426 17.5309 0.100088 17.1242 0.0996094 16.7V6.79962C0.10016 6.37555 0.268491 5.96863 0.568359 5.66876C0.868274 5.36895 1.27514 5.20049 1.69922 5.20001H1.89941V1.09943C1.89984 0.834549 2.00511 0.5807 2.19238 0.393372C2.37983 0.205922 2.63432 0.100706 2.89941 0.100403H14.2998ZM4.56934 7.51056C4.44286 7.5315 4.32243 7.58248 4.21875 7.65997C4.08045 7.76346 3.97911 7.9095 3.92969 8.07501L1.20703 17.327C1.34725 17.4375 1.51954 17.5 1.69922 17.4998H14.0117C14.183 17.5005 14.3496 17.4455 14.4873 17.3436C14.625 17.2416 14.7269 17.0985 14.7764 16.9344V16.9334L17.3428 8.534C17.3793 8.41453 17.3873 8.28797 17.3662 8.16486C17.345 8.04161 17.2951 7.92456 17.2207 7.82404C17.1463 7.72356 17.0491 7.64202 16.9375 7.58575C16.826 7.52959 16.703 7.49987 16.5781 7.49982H4.69727L4.56934 7.51056ZM2.89941 0.900208C2.84636 0.900268 2.79533 0.921286 2.75781 0.958801C2.72036 0.996307 2.69928 1.04739 2.69922 1.1004V8.70001H1.89941V5.99982H1.69922C1.48722 6.00009 1.28374 6.08434 1.13379 6.23419C0.983791 6.38419 0.899657 6.58847 0.899414 6.8006V15.5408L3.16211 7.84845L3.2041 7.72638C3.31278 7.4464 3.4984 7.20128 3.74023 7.02032C4.01636 6.81385 4.3515 6.70153 4.69629 6.70001H14.499V1.1004C14.499 1.04735 14.4779 0.996316 14.4404 0.958801C14.4029 0.921286 14.3519 0.900268 14.2988 0.900208H2.89941ZM15.2988 6.70001H15.9922C15.9699 6.52484 15.8908 6.36038 15.7646 6.23419C15.6384 6.10801 15.4741 6.02885 15.2988 6.00665V6.70001Z" fill="#EDEDED" stroke="#EDEDED" stroke-width="0.2"/>
<path d="M10.0996 8.84033C10.3647 8.84064 10.6192 8.94585 10.8066 9.1333C10.994 9.32063 11.0992 9.57445 11.0996 9.83936V13.3403H12.4697L12.3281 13.5054L9.87598 16.3657L9.7998 16.4546L9.72363 16.3657L7.27148 13.5054L7.12988 13.3403H8.5V9.83936C8.50043 9.5745 8.60573 9.32062 8.79297 9.1333C8.98042 8.94585 9.23491 8.84064 9.5 8.84033H10.0996ZM9.46094 9.64404C9.42246 9.65175 9.38655 9.67058 9.3584 9.69873C9.32098 9.73623 9.29987 9.78735 9.2998 9.84033V14.1401H8.87012L9.7998 15.2251L10.7305 14.1401H10.2998V9.84033C10.2997 9.7873 10.2787 9.73624 10.2412 9.69873C10.2037 9.66121 10.1527 9.6402 10.0996 9.64014H9.5L9.46094 9.64404Z" fill="#EDEDED" stroke="#EDEDED" stroke-width="0.2"/>
</svg>
