<svg width="22" height="14" viewBox="0 0 22 14" fill="none" xmlns="http://www.w3.org/2000/svg">
<path fill-rule="evenodd" clip-rule="evenodd" d="M21.8008 1.05C21.8008 0.470106 21.3307 0 20.7508 0H8.40078C7.8209 0 7.35078 0.470106 7.35078 1.05C7.35078 1.62989 7.8209 2.1 8.40078 2.1H20.7508C21.3307 2.1 21.8008 1.62989 21.8008 1.05Z" fill="#FF2249"/>
<path fill-rule="evenodd" clip-rule="evenodd" d="M21.8008 7.00001C21.8008 6.42013 21.3307 5.95001 20.7508 5.95001H8.40078C7.8209 5.95001 7.35078 6.42013 7.35078 7.00001C7.35078 7.57989 7.8209 8.05001 8.40078 8.05001H20.7508C21.3307 8.05001 21.8008 7.57989 21.8008 7.00001Z" fill="#FF2249"/>
<path fill-rule="evenodd" clip-rule="evenodd" d="M21.8008 12.95C21.8008 12.3701 21.3307 11.9 20.7508 11.9H1.05078C0.470901 11.9 0.000782013 12.3701 0.000782013 12.95C0.000782013 13.5299 0.470901 14 1.05078 14H20.7508C21.3307 14 21.8008 13.5299 21.8008 12.95Z" fill="#FF2249"/>
<path fill-rule="evenodd" clip-rule="evenodd" d="M4.5948 0.657541C4.18474 0.247495 3.52002 0.247495 3.10996 0.657541L0.309958 3.45754C-0.100102 3.86759 -0.100102 4.53236 0.309958 4.94242L3.10996 7.74242C3.52002 8.15248 4.18474 8.15248 4.5948 7.74242C5.00486 7.33236 5.00486 6.66764 4.5948 6.25758L2.53736 4.2L4.5948 2.14246C5.00486 1.73242 5.00486 1.06759 4.5948 0.657541Z" fill="#FF2249"/>
</svg>
