<svg width="24" height="24" viewBox="0 0 24 24" fill="none" xmlns="http://www.w3.org/2000/svg">
<path d="M23.9316 4.53234C23.9316 3.06131 22.9274 1.78758 21.5183 1.43344C21.0961 0.556641 20.2186 0 19.2328 0H9.47062C8.52802 0 7.67489 0.517406 7.23577 1.3357H3.19659C1.43395 1.3357 0 2.7697 0 4.53234V20.8036C0 22.5661 1.43391 24 3.19636 24H6.58167C6.77588 24 6.93324 23.8426 6.93324 23.6484C6.93324 23.4543 6.77588 23.2969 6.58167 23.2969H3.19641C1.82161 23.2969 0.703172 22.1784 0.703172 20.8036V8.99203C0.703172 7.61723 1.82161 6.49875 3.19641 6.49875H8.77734C9.61992 6.49875 10.399 6.91922 10.8615 7.62361L12.1369 9.56559C12.7297 10.4685 13.7285 11.0077 14.8087 11.0077H20.7352C22.11 11.0077 23.2284 12.1261 23.2284 13.5009V20.8036C23.2284 22.1784 22.11 23.2969 20.7352 23.2969H7.98797C7.79377 23.2969 7.63641 23.4543 7.63641 23.6484C7.63641 23.8426 7.79377 24 7.98797 24H20.7352C22.4977 24 23.9315 22.5661 23.9315 20.8036L23.9316 4.53234ZM0.703078 6.99525V4.53234C0.703078 3.15741 1.82166 2.03883 3.19655 2.03883H6.98222C6.94973 2.20172 6.93324 2.36822 6.93324 2.53734V3.33623H5.98041C4.60762 3.33623 3.48675 4.4325 3.44503 5.79562H3.19641C2.18892 5.79562 1.28939 6.26466 0.703078 6.99525ZM12.7246 9.17967L11.4492 7.23769C10.8564 6.33473 9.85753 5.79562 8.77734 5.79562H4.14816C4.18945 4.8202 4.99533 4.03936 5.98041 4.03936H15.7425C16.7539 4.03936 17.5768 4.86244 17.5768 5.87414V10.3045H14.8087C13.9662 10.3045 13.1871 9.88406 12.7246 9.17967ZM21.7702 10.4775V4.88063C21.7702 4.68647 21.6128 4.52906 21.4186 4.52906C21.2244 4.52906 21.067 4.68647 21.067 4.88063V10.3218C20.9579 10.3105 20.8472 10.3045 20.7352 10.3045H18.2799V5.87414C18.2799 4.47473 17.1416 3.33623 15.7425 3.33623H7.63641V2.53734C7.63641 2.28956 7.68473 2.0498 7.78027 1.82423C8.06775 1.14319 8.73127 0.703125 9.47062 0.703125H19.2328C19.9919 0.703125 20.6622 1.15959 20.9403 1.86525C21.0244 2.08027 21.067 2.30639 21.067 2.5373V3.50714C21.067 3.7013 21.2244 3.8587 21.4186 3.8587C21.6128 3.8587 21.7702 3.7013 21.7702 3.50714V2.53734C21.7702 2.44289 21.7643 2.34914 21.754 2.25609C22.6339 2.64952 23.2284 3.53245 23.2284 4.53239V11.5042C22.853 11.0362 22.3489 10.6762 21.7702 10.4775Z" fill="#FEA233"/>
<path d="M16.4547 5.83649C16.2832 5.74532 16.0705 5.81053 15.9792 5.98195L14.6917 8.40449L13.8014 7.29651C13.6799 7.1452 13.4586 7.12101 13.3072 7.24265C13.1558 7.36429 13.1317 7.58554 13.2533 7.7369L14.4777 9.26071C14.5448 9.3442 14.6458 9.39206 14.7517 9.39206C14.7627 9.39206 14.7738 9.39154 14.7848 9.39051C14.9025 9.3794 15.0067 9.30989 15.0622 9.20549L16.6002 6.31195C16.6913 6.14048 16.6262 5.92762 16.4547 5.83649Z" fill="#FEA233"/>
<path d="M3.0625 13.1789H9.05908C9.25328 13.1789 9.41064 13.0215 9.41064 12.8273C9.41064 12.6332 9.25328 12.4758 9.05908 12.4758H3.0625C2.8683 12.4758 2.71094 12.6332 2.71094 12.8273C2.71094 13.0215 2.86834 13.1789 3.0625 13.1789Z" fill="#FEA233"/>
<path d="M3.0625 14.4797H9.05908C9.25328 14.4797 9.41064 14.3223 9.41064 14.1282C9.41064 13.934 9.25328 13.7766 9.05908 13.7766H3.0625C2.8683 13.7766 2.71094 13.934 2.71094 14.1282C2.71094 14.3223 2.86834 14.4797 3.0625 14.4797Z" fill="#FEA233"/>
</svg>
