<svg width="25" height="25" viewBox="0 0 25 25" fill="none" xmlns="http://www.w3.org/2000/svg">
<path d="M18.9834 0.100403C19.3278 0.100797 19.6579 0.23777 19.9014 0.481262C20.1449 0.724766 20.2818 1.05486 20.2822 1.39923V6.89923C20.8023 6.92448 21.2962 7.13976 21.666 7.50958C22.04 7.88361 22.2553 8.38444 22.2764 8.91095C22.5441 8.94282 22.8039 9.02391 23.04 9.15509C23.3015 9.30035 23.5281 9.50093 23.7051 9.742C23.9017 10.0051 24.0342 10.3119 24.0898 10.6356C24.1453 10.9587 24.1225 11.2902 24.0254 11.6033L24.0264 11.6043L20.6064 22.7947C20.4766 23.2255 20.2113 23.6033 19.8496 23.8709C19.5332 24.105 19.1578 24.2443 18.7676 24.2742L18.5996 24.2801H2.19727C1.64112 24.2794 1.10814 24.0581 0.714844 23.6649C0.321485 23.2715 0.100237 22.7378 0.0996094 22.1815V8.99298C0.100237 8.43669 0.321485 7.90294 0.714844 7.50958C1.10814 7.1164 1.64114 6.89502 2.19727 6.89435H2.49707V1.39923C2.49746 1.05499 2.6346 0.72474 2.87793 0.481262C3.12138 0.237811 3.45161 0.100856 3.7959 0.100403H18.9834ZM6.19141 9.8924C5.95443 9.89347 5.72397 9.9702 5.53418 10.1121C5.34422 10.2543 5.2046 10.4541 5.13672 10.6815L1.50391 23.032C1.69919 23.192 1.94359 23.2812 2.19727 23.2811H18.6006C18.836 23.2819 19.0657 23.2063 19.2549 23.0662C19.4439 22.9262 19.5825 22.7289 19.6504 22.5037V22.5027L23.0703 11.3123C23.1205 11.148 23.1317 10.9738 23.1025 10.8045C23.0734 10.6354 23.0044 10.4757 22.9023 10.3377C22.8001 10.1996 22.6671 10.0869 22.5137 10.0096C22.3604 9.93236 22.1912 9.89245 22.0195 9.8924H6.19141ZM3.7959 1.09943C3.71668 1.09964 3.64103 1.13136 3.58496 1.18732C3.52876 1.24352 3.49618 1.31975 3.49609 1.39923V11.491H2.49707V7.89337H2.19727C1.90611 7.89381 1.62683 8.00981 1.4209 8.21564C1.21485 8.42169 1.09897 8.70158 1.09863 8.99298V20.869L4.17871 10.3992V10.3983C4.30822 9.96484 4.57341 9.58437 4.93555 9.31329C5.29795 9.04213 5.73878 8.89427 6.19141 8.8924H19.2832V1.39923C19.2831 1.31975 19.2515 1.24352 19.1953 1.18732C19.1391 1.13113 19.0629 1.09952 18.9834 1.09943H3.7959ZM20.2822 8.8924H21.2764C21.2527 8.63787 21.1412 8.39787 20.959 8.21564C20.7766 8.03343 20.5369 7.9217 20.2822 7.89825V8.8924Z" fill="white" stroke="white" stroke-width="0.2"/>
<path d="M13.3896 11.744C13.7339 11.7445 14.0642 11.8815 14.3076 12.1249C14.5509 12.3684 14.6881 12.6986 14.6885 13.0429V17.7392H16.4736L16.333 17.9042L13.0654 21.7148L12.9893 21.8036L12.9141 21.7148L9.64648 17.9042L9.50488 17.7392H11.291V13.0429C11.2914 12.6986 11.4285 12.3684 11.6719 12.1249C11.9154 11.8814 12.2455 11.7444 12.5898 11.744H13.3896ZM12.5898 12.7431C12.5104 12.7432 12.4341 12.7748 12.3779 12.831C12.3218 12.8871 12.2901 12.9635 12.29 13.0429V18.7382H11.6777L12.9893 20.2685L14.3008 18.7382H13.6885V13.0429C13.6884 12.9634 13.6568 12.8872 13.6006 12.831C13.5445 12.775 13.4689 12.7433 13.3896 12.7431H12.5898Z" fill="white" stroke="white" stroke-width="0.2"/>
</svg>
