<svg width="24" height="24" viewBox="0 0 24 24" fill="none" xmlns="http://www.w3.org/2000/svg">
<path d="M20.3321 22.0988C19.3615 22.0988 18.5717 21.3089 18.5717 20.3382C18.5717 19.3675 19.3615 18.5777 20.3321 18.5777C21.3027 18.5777 22.0924 19.3675 22.0924 20.3382C22.0924 21.3134 21.3071 22.0988 20.3321 22.0988ZM20.3321 23.0474C21.8277 23.0474 23.041 21.834 23.041 20.3382C23.041 18.8425 21.8277 17.6291 20.3321 17.6291C18.8364 17.6291 17.6231 18.8425 17.6231 20.3382C17.6276 21.834 18.8364 23.0474 20.3321 23.0474Z" fill="#00A198"/>
<path fill-rule="evenodd" clip-rule="evenodd" d="M17.1704 20.3396L17.1704 20.3382C17.1704 18.5929 18.586 17.1771 20.3313 17.1771C22.0766 17.1771 23.4922 18.5929 23.4922 20.3382C23.4922 22.0836 22.0766 23.4993 20.3313 23.4993C18.5848 23.4993 17.1756 22.0827 17.1704 20.3396ZM19.0229 20.3382C19.0229 21.0594 19.6103 21.6468 20.3313 21.6468C21.0567 21.6468 21.6397 21.0638 21.6397 20.3382C21.6397 19.6171 21.0523 19.0297 20.3313 19.0297C19.6103 19.0297 19.0229 19.6171 19.0229 20.3382ZM17.6224 20.3382C17.6224 18.8425 18.8357 17.6291 20.3313 17.6291C21.827 17.6291 23.0402 18.8425 23.0402 20.3382C23.0402 21.834 21.827 23.0474 20.3313 23.0474C18.8357 23.0474 17.6268 21.834 17.6224 20.3382ZM18.5709 20.3382C18.5709 21.309 19.3607 22.0988 20.3313 22.0988C21.3063 22.0988 22.0917 21.3134 22.0917 20.3382C22.0917 19.3675 21.3019 18.5777 20.3313 18.5777C19.3607 18.5777 18.5709 19.3675 18.5709 20.3382Z" fill="#00A198"/>
<path d="M11.7442 22.0988C10.7736 22.0988 9.98383 21.3089 9.98383 20.3382C9.98383 19.3675 10.7736 18.5777 11.7442 18.5777C12.7148 18.5777 13.5046 19.3675 13.5046 20.3382C13.5046 21.3134 12.7148 22.0988 11.7442 22.0988ZM11.7442 23.0474C13.2398 23.0474 14.4531 21.834 14.4531 20.3382C14.4531 18.8425 13.2398 17.6291 11.7442 17.6291C10.2485 17.6291 9.03526 18.8425 9.03526 20.3382C9.03526 21.834 10.2485 23.0474 11.7442 23.0474Z" fill="#00A198"/>
<path fill-rule="evenodd" clip-rule="evenodd" d="M10.435 20.3382C10.435 21.0594 11.0224 21.6468 11.7434 21.6468C12.4651 21.6468 13.0518 21.0631 13.0518 20.3382C13.0518 19.6171 12.4644 19.0297 11.7434 19.0297C11.0224 19.0297 10.435 19.6171 10.435 20.3382ZM14.9043 20.3382C14.9043 22.0836 13.4887 23.4993 11.7434 23.4993C9.99813 23.4993 8.58254 22.0836 8.58254 20.3382C8.58254 18.5929 9.99813 17.1771 11.7434 17.1771C13.4887 17.1771 14.9043 18.5929 14.9043 20.3382ZM9.98305 20.3382C9.98305 21.309 10.7728 22.0988 11.7434 22.0988C12.714 22.0988 13.5038 21.3134 13.5038 20.3382C13.5038 19.3675 12.714 18.5777 11.7434 18.5777C10.7728 18.5777 9.98305 19.3675 9.98305 20.3382ZM14.4524 20.3382C14.4524 21.834 13.2391 23.0474 11.7434 23.0474C10.2478 23.0474 9.03448 21.834 9.03448 20.3382C9.03448 18.8425 10.2478 17.6291 11.7434 17.6291C13.2391 17.6291 14.4524 18.8425 14.4524 20.3382Z" fill="#00A198"/>
<path d="M3.16216 22.0988C2.19153 22.0988 1.40179 21.3089 1.40179 20.3382C1.40179 19.3675 2.19153 18.5777 3.16216 18.5777C4.13279 18.5777 4.92253 19.3675 4.92253 20.3382C4.91811 21.3134 4.13279 22.0988 3.16216 22.0988ZM3.16216 23.0474C4.65781 23.0474 5.87109 21.834 5.87109 20.3382C5.87109 18.8425 4.65781 17.6291 3.16216 17.6291C1.66651 17.6291 0.453226 18.8425 0.453226 20.3382C0.453226 21.834 1.66651 23.0474 3.16216 23.0474Z" fill="#00A198"/>
<path fill-rule="evenodd" clip-rule="evenodd" d="M1.85297 20.3382C1.85297 21.0594 2.4404 21.6468 3.16139 21.6468C3.88091 21.6468 4.46597 21.065 4.4698 20.3372C4.46925 19.6165 3.88204 19.0297 3.16139 19.0297C2.4404 19.0297 1.85297 19.6171 1.85297 20.3382ZM4.92175 20.3382C4.92175 19.3675 4.13201 18.5777 3.16139 18.5777C2.19076 18.5777 1.40102 19.3675 1.40102 20.3382C1.40102 21.309 2.19076 22.0988 3.16139 22.0988C4.13201 22.0988 4.91734 21.3134 4.92175 20.3382ZM6.32227 20.3382C6.32227 22.0836 4.90667 23.4993 3.16139 23.4993C1.4161 23.4993 0.000505571 22.0836 0.000505724 20.3382C0.000505876 18.5929 1.4161 17.1771 3.16139 17.1771C4.90667 17.1771 6.32227 18.5929 6.32227 20.3382ZM5.87032 20.3382C5.87032 21.834 4.65704 23.0474 3.16139 23.0474C1.66574 23.0474 0.452452 21.834 0.452452 20.3382C0.452452 18.8425 1.66574 17.6291 3.16139 17.6291C4.65704 17.6291 5.87032 18.8425 5.87032 20.3382Z" fill="#00A198"/>
<path d="M20.3321 13.5124C19.3615 13.5124 18.5717 12.7226 18.5717 11.7519C18.5717 10.7812 19.3615 9.99138 20.3321 9.99138C21.3027 9.99138 22.0924 10.7812 22.0924 11.7519C22.0924 12.7226 21.3071 13.5124 20.3321 13.5124ZM20.3321 14.461C21.8277 14.4611 23.041 13.2477 23.041 11.7519C23.041 10.2561 21.8277 9.04273 20.3321 9.04273C18.8364 9.04273 17.6231 10.2561 17.6231 11.7519C17.6276 13.2477 18.8364 14.461 20.3321 14.461Z" fill="#00A198"/>
<path fill-rule="evenodd" clip-rule="evenodd" d="M17.1704 11.7532L17.1704 11.7519C17.1704 10.0066 18.586 8.5908 20.3313 8.5908C22.0766 8.59081 23.4922 10.0066 23.4922 11.7519C23.4922 13.4973 22.0766 14.913 20.3313 14.913C18.5848 14.913 17.1756 13.4963 17.1704 11.7532ZM19.0229 11.7519C19.0229 12.4731 19.6103 13.0605 20.3313 13.0605C21.056 13.0605 21.6397 12.4738 21.6397 11.7519C21.6397 11.0308 21.0523 10.4433 20.3313 10.4433C19.6103 10.4433 19.0229 11.0308 19.0229 11.7519ZM18.5709 11.7519C18.5709 12.7226 19.3607 13.5124 20.3313 13.5124C21.3063 13.5124 22.0917 12.7226 22.0917 11.7519C22.0917 10.7812 21.3019 9.9914 20.3313 9.9914C19.3607 9.9914 18.5709 10.7812 18.5709 11.7519ZM23.0402 11.7519C23.0402 13.2477 21.827 14.4611 20.3313 14.4611C18.8357 14.4611 17.6268 13.2477 17.6224 11.7519C17.6224 10.2561 18.8357 9.04275 20.3313 9.04275C21.827 9.04275 23.0402 10.2561 23.0402 11.7519Z" fill="#00A198"/>
<path d="M11.7442 13.5124C10.7736 13.5124 9.98383 12.7226 9.98383 11.7519C9.98383 10.7812 10.7736 9.99138 11.7442 9.99138C12.7148 9.99138 13.5046 10.7812 13.5046 11.7519C13.5046 12.7226 12.7148 13.5124 11.7442 13.5124ZM11.7442 14.461C13.2398 14.4611 14.4531 13.2477 14.4531 11.7519C14.4531 10.2561 13.2398 9.04273 11.7442 9.04273C10.2485 9.04273 9.03526 10.2561 9.03526 11.7519C9.03526 13.2477 10.2485 14.461 11.7442 14.461Z" fill="#00A198"/>
<path fill-rule="evenodd" clip-rule="evenodd" d="M10.435 11.7519C10.435 12.4731 11.0224 13.0605 11.7434 13.0605C12.4644 13.0605 13.0518 12.4731 13.0518 11.7519C13.0518 11.0308 12.4644 10.4433 11.7434 10.4433C11.0224 10.4433 10.435 11.0308 10.435 11.7519ZM14.9043 11.7519C14.9043 13.4973 13.4887 14.913 11.7434 14.913C9.99813 14.913 8.58254 13.4973 8.58254 11.7519C8.58254 10.0066 9.99813 8.5908 11.7434 8.5908C13.4887 8.59081 14.9043 10.0066 14.9043 11.7519ZM9.98305 11.7519C9.98305 12.7226 10.7728 13.5124 11.7434 13.5124C12.714 13.5124 13.5038 12.7226 13.5038 11.7519C13.5038 10.7812 12.714 9.9914 11.7434 9.9914C10.7728 9.9914 9.98305 10.7812 9.98305 11.7519ZM14.4524 11.7519C14.4524 13.2477 13.2391 14.4611 11.7434 14.4611C10.2478 14.4611 9.03448 13.2477 9.03448 11.7519C9.03448 10.2561 10.2478 9.04275 11.7434 9.04275C13.2391 9.04275 14.4524 10.2561 14.4524 11.7519Z" fill="#00A198"/>
<path d="M3.16216 13.5124C2.19153 13.5124 1.40179 12.7226 1.40179 11.7519C1.40179 10.7812 2.19153 9.99138 3.16216 9.99138C4.13279 9.99138 4.92253 10.7812 4.92253 11.7519C4.91811 12.7226 4.13279 13.5124 3.16216 13.5124ZM3.16216 14.461C4.65781 14.4611 5.87109 13.2477 5.87109 11.7519C5.87109 10.2561 4.65781 9.04273 3.16216 9.04273C1.66651 9.04273 0.453226 10.2561 0.453226 11.7519C0.453226 13.2477 1.66651 14.461 3.16216 14.461Z" fill="#00A198"/>
<path fill-rule="evenodd" clip-rule="evenodd" d="M1.85297 11.7519C1.85297 12.4731 2.4404 13.0605 3.16139 13.0605C3.88017 13.0605 4.46597 12.475 4.4698 11.7509C4.46925 11.0302 3.88203 10.4433 3.16139 10.4433C2.4404 10.4433 1.85297 11.0308 1.85297 11.7519ZM6.32227 11.7519C6.32227 13.4973 4.90667 14.913 3.16139 14.913C1.4161 14.913 0.000505571 13.4973 0.000505724 11.7519C0.000505876 10.0066 1.4161 8.5908 3.16139 8.5908C4.90667 8.59081 6.32227 10.0066 6.32227 11.7519ZM1.40102 11.7519C1.40102 12.7226 2.19076 13.5124 3.16139 13.5124C4.13201 13.5124 4.91734 12.7226 4.92175 11.7519C4.92175 10.7812 4.13201 9.9914 3.16139 9.9914C2.19076 9.9914 1.40102 10.7812 1.40102 11.7519ZM5.87032 11.7519C5.87032 13.2477 4.65704 14.4611 3.16139 14.4611C1.66574 14.4611 0.452452 13.2477 0.452452 11.7519C0.452452 10.2561 1.66574 9.04275 3.16139 9.04275C4.65704 9.04275 5.87032 10.2561 5.87032 11.7519Z" fill="#00A198"/>
<path d="M20.3321 4.92602C19.3615 4.92602 18.5717 4.13622 18.5717 3.16551C18.5717 2.1948 19.3615 1.405 20.3321 1.405C21.3027 1.405 22.0924 2.1948 22.0924 3.16551C22.0924 4.13622 21.3071 4.92161 20.3321 4.92602ZM20.3321 5.87026C21.8277 5.87026 23.041 4.66129 23.041 3.16551C23.041 1.66974 21.8277 0.456355 20.3321 0.456355C18.8364 0.456355 17.6231 1.66974 17.6231 3.16551C17.6276 4.66129 18.8364 5.87026 20.3321 5.87026Z" fill="#00A198"/>
<path fill-rule="evenodd" clip-rule="evenodd" d="M17.1704 3.16683L17.1704 3.1655C17.1704 1.42016 18.586 0.00439711 20.3313 0.00439726C22.0766 0.00439741 23.4922 1.42016 23.4922 3.1655C23.4922 4.9118 22.0756 6.3222 20.3313 6.32219C18.5858 6.32219 17.1756 4.91088 17.1704 3.16683ZM20.3303 4.47407C21.0579 4.47023 21.6397 3.88518 21.6397 3.1655C21.6397 2.44436 21.0523 1.85694 20.3313 1.85694C19.6103 1.85694 19.0229 2.44436 19.0229 3.1655C19.0229 3.8863 19.6098 4.47351 20.3303 4.47407ZM18.5709 3.1655C18.5709 4.13621 19.3607 4.92601 20.3313 4.92601C21.3063 4.9216 22.0917 4.13621 22.0917 3.1655C22.0917 2.19479 21.3019 1.40499 20.3313 1.40499C19.3607 1.40499 18.5709 2.19479 18.5709 3.1655ZM23.0402 3.1655C23.0402 4.66128 21.827 5.87025 20.3313 5.87025C18.8357 5.87025 17.6268 4.66127 17.6224 3.1655C17.6224 1.66973 18.8357 0.456343 20.3313 0.456344C21.827 0.456344 23.0402 1.66973 23.0402 3.1655Z" fill="#00A198"/>
<path d="M11.7442 4.92602C10.7736 4.92602 9.98383 4.13622 9.98383 3.16551C9.98383 2.1948 10.7736 1.405 11.7442 1.405C12.7148 1.405 13.5046 2.1948 13.5046 3.16551C13.5046 4.13622 12.7148 4.92161 11.7442 4.92602ZM11.7442 5.87026C13.2398 5.87026 14.4531 4.65687 14.4531 3.1611C14.4531 1.66533 13.2398 0.456355 11.7442 0.456355C10.2485 0.456355 9.03526 1.66974 9.03526 3.16551C9.03526 4.66129 10.2485 5.87026 11.7442 5.87026Z" fill="#00A198"/>
<path fill-rule="evenodd" clip-rule="evenodd" d="M11.7424 4.47407C12.4664 4.47023 13.0518 3.88444 13.0518 3.1655C13.0518 2.44436 12.4644 1.85694 11.7434 1.85694C11.0224 1.85694 10.435 2.44436 10.435 3.1655C10.435 3.8863 11.0219 4.47351 11.7424 4.47407ZM14.9043 3.16109C14.9043 4.90643 13.4887 6.3222 11.7434 6.32219C9.99909 6.32219 8.58254 4.9118 8.58254 3.1655C8.58254 1.42016 9.99813 0.00439711 11.7434 0.00439726C13.4877 0.00439741 14.9043 1.41479 14.9043 3.16109ZM9.98305 3.1655C9.98305 4.13621 10.7728 4.92601 11.7434 4.92601C12.714 4.9216 13.5038 4.13621 13.5038 3.1655C13.5038 2.19479 12.714 1.40499 11.7434 1.40499C10.7728 1.40499 9.98305 2.19479 9.98305 3.1655ZM14.4524 3.16109C14.4524 4.65686 13.2391 5.87025 11.7434 5.87025C10.2478 5.87025 9.03448 4.66127 9.03448 3.1655C9.03448 1.66973 10.2478 0.456343 11.7434 0.456344C13.2391 0.456344 14.4524 1.66532 14.4524 3.16109Z" fill="#00A198"/>
<path d="M3.16216 4.92602C2.19153 4.92602 1.40179 4.13622 1.40179 3.16551C1.40179 2.1948 2.19153 1.405 3.16216 1.405C4.13279 1.405 4.92253 2.1948 4.92253 3.16551C4.91811 4.13622 4.13279 4.92161 3.16216 4.92602ZM3.16216 5.87026C4.65781 5.87026 5.87109 4.65687 5.87109 3.1611C5.87109 1.66533 4.65781 0.451942 3.16216 0.451942C1.66651 0.451942 0.453226 1.66533 0.453226 3.1611C0.453226 4.66129 1.66651 5.87026 3.16216 5.87026Z" fill="#00A198"/>
<path fill-rule="evenodd" clip-rule="evenodd" d="M3.16035 4.4741C3.88214 4.47027 4.46598 3.88643 4.4698 3.1645C4.46924 2.44383 3.88203 1.85697 3.16139 1.85697C2.4404 1.85697 1.85297 2.44439 1.85297 3.16553C1.85297 3.88633 2.43984 4.47354 3.16035 4.4741ZM4.92175 3.16553C4.92175 2.19482 4.13201 1.40502 3.16139 1.40502C2.19076 1.40502 1.40102 2.19482 1.40102 3.16553C1.40102 4.13624 2.19076 4.92604 3.16139 4.92604C4.13201 4.92163 4.91734 4.13624 4.92175 3.16553ZM6.32227 3.16112C6.32227 4.90646 4.90667 6.32223 3.16139 6.32223C1.41658 6.32223 0.000505571 4.91135 0.000505724 3.16112C0.000505876 1.41578 1.4161 1.49762e-05 3.16139 1.51288e-05C4.90667 1.52814e-05 6.32227 1.41578 6.32227 3.16112ZM5.87032 3.16112C5.87032 4.65689 4.65704 5.87028 3.16139 5.87028C1.66574 5.87028 0.452452 4.6613 0.452452 3.16112C0.452452 1.66535 1.66574 0.451961 3.16139 0.451961C4.65704 0.451962 5.87032 1.66535 5.87032 3.16112Z" fill="#00A198"/>
</svg>
