<svg width="50" height="41" viewBox="0 0 50 41" fill="none" xmlns="http://www.w3.org/2000/svg">
<path d="M24.7344 12.7322C28.8433 12.7322 31.9785 15.686 31.9785 19.0906C31.9783 22.3215 30.2036 25.6808 27.2822 29.2156C24.3872 32.7183 20.4986 36.2389 16.4893 39.8181C12.4798 36.2387 8.59038 32.7185 5.69531 29.2156C2.77389 25.6808 1.00018 22.3215 1 19.0906C1 15.686 4.13506 12.7322 8.24414 12.7322C9.91319 12.7322 11.1367 13.0571 12.1367 13.6511C13.1459 14.2507 14.0113 15.174 14.8809 16.5115V16.5105C15.2399 17.0653 15.8329 17.3845 16.4902 17.3845C17.1487 17.3845 17.7395 17.0631 18.0986 16.5125L18.0996 16.5105C18.9681 15.1731 19.8329 14.2496 20.8418 13.6501C21.8415 13.0562 23.0653 12.7322 24.7344 12.7322Z" stroke="white" stroke-width="2"/>
<path fill-rule="evenodd" clip-rule="evenodd" d="M20.6201 29.8383C20.2234 29.8383 19.9014 29.5163 19.9014 29.1196C19.9014 28.7229 20.2234 28.401 20.6201 28.401H31.328C31.6164 28.401 31.8768 28.5733 31.9896 28.8389L33.2012 31.695L35.9066 23.352C36.0097 23.034 36.3185 22.8291 36.6517 22.8576C36.9849 22.8863 37.2543 23.1409 37.3017 23.4718L38.8834 34.5168L40.315 26.9752C40.3749 26.66 40.6364 26.4226 40.9558 26.3935C41.2753 26.3643 41.5754 26.5504 41.6913 26.8496L43.1524 30.622L44.1316 28.786C44.2564 28.5519 44.5001 28.4057 44.7654 28.4055L49.2807 28.4029C49.6773 28.4027 49.9995 28.7245 49.9998 29.1212C50 29.5178 49.6781 29.8401 49.2815 29.8403L45.1971 29.8426L43.6827 32.6821C43.5505 32.93 43.2859 33.0782 43.0053 33.0612C42.7248 33.0444 42.4799 32.8655 42.3784 32.6034L41.2586 29.712L39.4902 39.0272C39.4247 39.3724 39.1191 39.6196 38.7678 39.6116C38.4165 39.6037 38.1225 39.3429 38.0726 38.9951L36.318 26.7429L33.9749 33.969C33.8823 34.2544 33.6223 34.4522 33.3227 34.4653C33.023 34.4785 32.7468 34.3041 32.6296 34.028L30.8521 29.8383H20.6201Z" fill="white"/>
<path d="M7.93224 20.3435C9.02365 20.3435 9.90842 19.4587 9.90842 18.3673C9.90842 17.2759 9.02365 16.3911 7.93224 16.3911C6.84082 16.3911 5.95605 17.2759 5.95605 18.3673C5.95605 19.4587 6.84082 20.3435 7.93224 20.3435Z" fill="white"/>
<path fill-rule="evenodd" clip-rule="evenodd" d="M8.65124 18.3672C8.65124 18.7639 8.32917 19.0859 7.93255 19.0859C7.53584 19.0859 7.21387 18.7639 7.21387 18.3672V2.92352C7.21387 2.5266 7.53563 2.20483 7.93255 2.20483H27.1856C27.5824 2.20483 27.9043 2.52681 27.9043 2.92352C27.9043 3.32013 27.5824 3.64221 27.1856 3.64221H8.65124V18.3672Z" fill="white"/>
<path fill-rule="evenodd" clip-rule="evenodd" d="M32.4795 0C32.7552 0 32.9787 0.223511 32.9787 0.499282V5.34795C32.9787 5.62362 32.7552 5.84713 32.4795 5.84713C30.9558 5.84713 26.3765 5.84713 24.8528 5.84713C24.577 5.84713 24.3535 5.62362 24.3535 5.34795C24.3535 4.24343 24.3535 1.6037 24.3535 0.499282C24.3535 0.223511 24.577 0 24.8528 0H32.4795Z" fill="white"/>
</svg>
