<svg width="50" height="39" viewBox="0 0 50 39" fill="none" xmlns="http://www.w3.org/2000/svg">
<path d="M3.5517 7.86585C3.68414 7.86442 3.81406 7.8295 3.92937 7.76436C4.04468 7.69921 4.14164 7.60595 4.21121 7.49325C4.28079 7.38055 4.32072 7.25208 4.32729 7.1198C4.33386 6.98752 4.30686 6.85573 4.2488 6.73669L3.46147 5.16926C3.41543 5.0776 3.35179 4.99591 3.27418 4.92885C3.19657 4.86178 3.10651 4.81066 3.00914 4.7784C2.91177 4.74614 2.80901 4.73338 2.7067 4.74084C2.6044 4.74829 2.50457 4.77583 2.41292 4.82187C2.32126 4.86791 2.23956 4.93155 2.1725 5.00916C2.10543 5.08677 2.05431 5.17683 2.02206 5.2742C1.9898 5.37156 1.97703 5.47433 1.98449 5.57663C1.99195 5.67893 2.01948 5.77876 2.06552 5.87042L2.85285 7.43785C2.91903 7.5663 3.01919 7.67413 3.14241 7.7496C3.26564 7.82506 3.40721 7.86527 3.5517 7.86585Z" fill="white"/>
<path d="M4.2021 14.4041C4.49771 14.4083 6.06132 13.7266 6.12522 13.701C6.31775 13.6244 6.47197 13.4745 6.55395 13.2842C6.63593 13.0939 6.63897 12.8789 6.56238 12.6863C6.4858 12.4938 6.33587 12.3396 6.14558 12.2576C5.95529 12.1756 5.74022 12.1726 5.54769 12.2492L3.91331 12.9C3.81794 12.9379 3.73097 12.9942 3.65739 13.0658C3.58381 13.1373 3.52505 13.2227 3.48449 13.317C3.44392 13.4112 3.42233 13.5126 3.42097 13.6152C3.4196 13.7178 3.43848 13.8197 3.47652 13.915C3.53668 14.0584 3.63739 14.181 3.76629 14.2679C3.89519 14.3548 4.04666 14.4021 4.2021 14.4041Z" fill="white"/>
<path d="M9.03034 13.357C8.9305 13.5385 8.90682 13.7523 8.9645 13.9513C9.02219 14.1503 9.15653 14.3182 9.33799 14.4182L10.8785 15.2666C11.06 15.3664 11.2737 15.3901 11.4727 15.3325C11.6717 15.2748 11.8396 15.1404 11.9395 14.959C12.0394 14.7775 12.0632 14.5638 12.0056 14.3648C11.948 14.1658 11.8137 13.9979 11.6323 13.8979L10.0919 13.0495C9.91032 12.9498 9.69657 12.9261 9.49757 12.9838C9.29856 13.0414 9.13053 13.1756 9.03034 13.357Z" fill="white"/>
<path d="M0.281694 10.3538C0.325192 10.5554 0.445505 10.7322 0.617128 10.8466C0.78875 10.9611 0.998191 11.0042 1.20105 10.9668L3.16863 10.5739C3.37178 10.5334 3.55051 10.4138 3.66551 10.2415C3.78051 10.0692 3.82234 9.85829 3.78182 9.65514C3.7413 9.45199 3.62173 9.27326 3.44943 9.15826C3.27713 9.04326 3.0662 9.00143 2.86305 9.04195L0.894924 9.43487C0.691755 9.47542 0.513013 9.59502 0.398013 9.76734C0.283012 9.93967 0.241172 10.1506 0.281694 10.3538Z" fill="white"/>
<path d="M7.75507 9.48143C7.75506 9.27424 7.67275 9.07553 7.52624 8.92902C7.37973 8.78252 7.18103 8.7002 6.97383 8.7002H5.95702C5.74982 8.7002 5.55111 8.7825 5.4046 8.92901C5.25809 9.07552 5.17578 9.27423 5.17578 9.48143C5.17578 9.68863 5.25809 9.88734 5.4046 10.0338C5.55111 10.1804 5.74982 10.2627 5.95702 10.2627H6.97383C7.18103 10.2627 7.37973 10.1803 7.52624 10.0338C7.67275 9.88733 7.75506 9.68862 7.75507 9.48143Z" fill="white"/>
<path d="M10.4646 10.3662L11.3852 10.7957C11.573 10.8834 11.7879 10.8928 11.9826 10.822C12.1774 10.7512 12.336 10.6059 12.4236 10.4181C12.5112 10.2303 12.5207 10.0155 12.4498 9.82072C12.379 9.62599 12.2337 9.46737 12.046 9.37975L11.1253 8.95023C10.9375 8.86262 10.7226 8.85318 10.5279 8.92401C10.3332 8.99483 10.1746 9.14011 10.0869 9.32788C9.99934 9.51565 9.9899 9.73054 10.0607 9.92526C10.1315 10.12 10.2768 10.2786 10.4646 10.3662Z" fill="white"/>
<path d="M7.372 17.1671C7.49136 17.3357 7.67207 17.4508 7.87534 17.4877C8.0786 17.5245 8.28823 17.4803 8.45921 17.3643C8.54353 17.3059 8.61552 17.2315 8.67107 17.1452C8.72662 17.059 8.76463 16.9627 8.78294 16.8618C8.80125 16.7608 8.7995 16.6573 8.77779 16.557C8.75607 16.4568 8.71482 16.3618 8.65639 16.2775L8.07847 15.4433C7.96051 15.273 7.77973 15.1565 7.5759 15.1195C7.37207 15.0825 7.16189 15.128 6.9916 15.2459C6.8213 15.3639 6.70484 15.5447 6.66784 15.7485C6.63083 15.9523 6.67632 16.1625 6.79428 16.3328L7.372 17.1671Z" fill="white"/>
<path d="M0.781003 15.1438C0.986689 15.1458 1.18479 15.0662 1.33201 14.9226L2.11938 14.139C2.26602 13.9928 2.34863 13.7944 2.34905 13.5873C2.34948 13.3803 2.26769 13.1815 2.12165 13.0347C1.97561 12.8879 1.77726 12.8051 1.5702 12.8044C1.36313 12.8038 1.16428 12.8854 1.01733 13.0313L0.230154 13.8148C0.123564 13.9245 0.0514529 14.0631 0.0227231 14.2134C-0.00600668 14.3637 0.00990265 14.5191 0.0684871 14.6605C0.127072 14.8018 0.225766 14.9229 0.352387 15.0088C0.479008 15.0947 0.628011 15.1416 0.781003 15.1438Z" fill="white"/>
<path d="M15.2009 13.1452V11.2841C15.2009 11.0769 15.1186 10.8782 14.9722 10.7317C14.8257 10.5852 14.627 10.5029 14.4198 10.5029C14.2126 10.5029 14.014 10.5852 13.8675 10.7317C13.721 10.8782 13.6387 11.0769 13.6387 11.2841V13.1452C13.6387 13.3524 13.721 13.5511 13.8675 13.6976C14.014 13.8441 14.2126 13.9264 14.4198 13.9264C14.627 13.9264 14.8257 13.8441 14.9722 13.6976C15.1186 13.5511 15.2009 13.3524 15.2009 13.1452Z" fill="white"/>
<path d="M10.3783 18.8325L12.3218 19.4935C12.4189 19.5266 12.5216 19.5402 12.624 19.5336C12.7264 19.5269 12.8265 19.5002 12.9186 19.4549C13.0106 19.4096 13.0929 19.3466 13.1606 19.2695C13.2283 19.1924 13.2802 19.1028 13.3132 19.0056C13.3463 18.9085 13.3599 18.8058 13.3533 18.7034C13.3467 18.601 13.3199 18.5009 13.2746 18.4089C13.2293 18.3168 13.1663 18.2346 13.0892 18.1669C13.0122 18.0991 12.9225 18.0473 12.8254 18.0142L10.8816 17.3532C10.6854 17.2864 10.4708 17.3003 10.2849 17.3918C10.099 17.4834 9.95703 17.645 9.89028 17.8411C9.82353 18.0373 9.83744 18.252 9.92896 18.4379C10.0205 18.6238 10.1821 18.7657 10.3783 18.8325Z" fill="white"/>
<path d="M15.9905 15.3878L15.1296 14.6295C15.0526 14.5614 14.963 14.5093 14.8658 14.4759C14.7687 14.4426 14.6659 14.4287 14.5634 14.4351C14.4609 14.4415 14.3607 14.4681 14.2684 14.5133C14.1762 14.5585 14.0938 14.6215 14.0259 14.6985C13.9581 14.7756 13.906 14.8653 13.8729 14.9626C13.8397 15.0598 13.8261 15.1626 13.8327 15.2651C13.8393 15.3676 13.8661 15.4678 13.9114 15.5599C13.9568 15.652 14.0199 15.7343 14.0971 15.8021L14.9579 16.5604C15.1143 16.6953 15.3173 16.7635 15.5235 16.7505C15.7296 16.7374 15.9224 16.6441 16.0605 16.4906C16.1284 16.4136 16.1804 16.324 16.2136 16.2269C16.2468 16.1298 16.2605 16.0271 16.254 15.9247C16.2475 15.8223 16.2209 15.7222 16.1757 15.63C16.1305 15.5379 16.0676 15.4556 15.9905 15.3878Z" fill="white"/>
<path d="M14.4502 19.0233V21.0073C14.4502 21.1099 14.4704 21.2115 14.5097 21.3062C14.5489 21.401 14.6064 21.4871 14.679 21.5597C14.7515 21.6322 14.8376 21.6897 14.9324 21.729C15.0272 21.7682 15.1288 21.7884 15.2313 21.7884C15.3339 21.7884 15.4355 21.7682 15.5303 21.729C15.625 21.6897 15.7111 21.6322 15.7837 21.5597C15.8562 21.4871 15.9138 21.401 15.953 21.3062C15.9923 21.2115 16.0125 21.1099 16.0125 21.0073V19.0233C16.0125 18.9207 15.9923 18.8192 15.953 18.7244C15.9138 18.6296 15.8562 18.5435 15.7837 18.471C15.7111 18.3984 15.625 18.3409 15.5303 18.3016C15.4355 18.2624 15.3339 18.2422 15.2313 18.2422C15.1288 18.2422 15.0272 18.2624 14.9324 18.3016C14.8376 18.3409 14.7515 18.3984 14.679 18.471C14.6064 18.5435 14.5489 18.6296 14.5097 18.7244C14.4704 18.8192 14.4502 18.9207 14.4502 19.0233Z" fill="white"/>
<path d="M25.3429 21.0859L23.9259 19.6917C23.7782 19.5463 23.5788 19.4656 23.3716 19.4673C23.1644 19.469 22.9664 19.5529 22.8211 19.7006C22.6757 19.8483 22.595 20.0477 22.5967 20.2549C22.5984 20.4621 22.6823 20.6602 22.83 20.8055L24.2469 22.1998C24.3957 22.3431 24.5947 22.4223 24.8013 22.4206C25.0078 22.4189 25.2055 22.3363 25.3518 22.1906C25.4971 22.0429 25.5778 21.8435 25.5761 21.6364C25.5744 21.4292 25.4905 21.2312 25.3429 21.0859Z" fill="white"/>
<path d="M41.6014 31.9929C41.7132 32.1666 41.8884 32.2896 42.0897 32.3357C42.291 32.3817 42.5024 32.3471 42.6785 32.2393C42.8539 32.1291 42.9785 31.9537 43.0247 31.7517C43.0709 31.5497 43.035 31.3376 42.9249 31.1621L41.8689 29.4794C41.7587 29.3039 41.5833 29.1794 41.3813 29.1332C41.1793 29.087 40.9672 29.1229 40.7917 29.2331C40.6162 29.3433 40.4916 29.5187 40.4454 29.7207C40.3993 29.9227 40.4352 30.1348 40.5454 30.3103L41.6014 31.9929Z" fill="white"/>
<path d="M40.2212 25.7531L38.2588 26.0941C38.0662 26.1276 37.8931 26.2321 37.7738 26.3869C37.6544 26.5418 37.5975 26.7358 37.6142 26.9306C37.6309 27.1254 37.72 27.3068 37.8639 27.4391C38.0079 27.5714 38.1962 27.6449 38.3917 27.6451C38.4362 27.6451 40.4888 27.2926 40.4888 27.2926C40.59 27.2751 40.6866 27.2378 40.7734 27.1829C40.8601 27.128 40.9351 27.0566 40.9942 26.9727C41.0533 26.8887 41.0953 26.794 41.1178 26.6939C41.1403 26.5937 41.1428 26.4901 41.1252 26.389C41.1076 26.2879 41.0703 26.1912 41.0154 26.1045C40.9604 26.0178 40.8889 25.9428 40.805 25.8837C40.721 25.8247 40.6263 25.7827 40.5261 25.7603C40.4259 25.7379 40.3223 25.7354 40.2212 25.7531Z" fill="white"/>
<path d="M18.0605 18.6289C18.1631 18.6289 18.2647 18.6087 18.3595 18.5694C18.4543 18.5302 18.5404 18.4726 18.613 18.4001C18.6855 18.3275 18.7431 18.2414 18.7823 18.1466C18.8216 18.0518 18.8418 17.9502 18.8418 17.8476V16.8684C18.8418 16.6612 18.7595 16.4625 18.6129 16.316C18.4664 16.1695 18.2677 16.0872 18.0605 16.0872C17.8533 16.0872 17.6546 16.1695 17.5081 16.316C17.3616 16.4625 17.2793 16.6612 17.2793 16.8684V17.8476C17.2793 18.0548 17.3617 18.2535 17.5082 18.4C17.6547 18.5465 17.8533 18.6288 18.0605 18.6289Z" fill="white"/>
<path d="M17.2273 23.0725C17.3286 23.2525 17.4964 23.3857 17.6948 23.4433C17.8932 23.501 18.1063 23.4787 18.2883 23.3811L19.9366 22.4751C20.1182 22.3753 20.2528 22.2074 20.3106 22.0084C20.3684 21.8095 20.3449 21.5956 20.2451 21.414C20.1453 21.2324 19.9774 21.0979 19.7784 21.0401C19.5794 20.9822 19.3656 21.0058 19.184 21.1056L17.5357 22.0116C17.3542 22.1114 17.2198 22.2793 17.1619 22.4782C17.1041 22.6771 17.1276 22.8909 17.2273 23.0725Z" fill="white"/>
<path d="M20.8632 20.4887C21.018 20.4879 21.1691 20.4416 21.2977 20.3555C21.4263 20.2694 21.5267 20.1474 21.5864 20.0046L21.9366 19.1498C21.9758 19.0548 21.9959 18.9531 21.9957 18.8503C21.9955 18.7476 21.975 18.6459 21.9354 18.551C21.8958 18.4562 21.8379 18.3701 21.765 18.2977C21.6921 18.2253 21.6057 18.168 21.5106 18.1291C21.4155 18.0901 21.3137 18.0703 21.2109 18.0708C21.1082 18.0713 21.0065 18.092 20.9118 18.1319C20.8171 18.1717 20.7312 18.2298 20.6589 18.3029C20.5867 18.376 20.5296 18.4626 20.4909 18.5578C20.4909 18.5578 20.1417 19.4104 20.1407 19.4126C20.0945 19.5313 20.0777 19.6593 20.0917 19.7858C20.1057 19.9124 20.15 20.0336 20.221 20.1393C20.2919 20.245 20.3874 20.332 20.4992 20.3928C20.6111 20.4537 20.7359 20.4866 20.8632 20.4887Z" fill="white"/>
<path d="M25.5077 24.8377C26.1068 25.0044 27.1108 25.4469 27.3629 24.5432C27.4184 24.3436 27.3924 24.1302 27.2906 23.9498C27.1887 23.7694 27.0195 23.6368 26.8199 23.5811L25.9269 23.3324C25.7275 23.2773 25.5143 23.3036 25.3341 23.4054C25.154 23.5073 25.0217 23.6765 24.9661 23.8759C24.9106 24.0752 24.9365 24.2885 25.038 24.4688C25.1395 24.6491 25.3085 24.7818 25.5077 24.8377Z" fill="white"/>
<path d="M33.869 25.8962C33.7012 26.0177 33.5885 26.2009 33.5557 26.4055C33.523 26.6101 33.5728 26.8193 33.6943 26.9872L34.2366 27.736C34.3583 27.9033 34.5414 28.0156 34.7457 28.0481C34.9501 28.0806 35.1589 28.0307 35.3265 27.9093C35.4941 27.788 35.6068 27.6051 35.6397 27.4009C35.6727 27.1966 35.6232 26.9876 35.5022 26.8197L34.9598 26.0709C34.8997 25.9878 34.8237 25.9174 34.7364 25.8636C34.649 25.8099 34.5519 25.7739 34.4506 25.7576C34.3493 25.7414 34.2458 25.7453 34.146 25.7691C34.0462 25.7928 33.9521 25.836 33.869 25.8962Z" fill="white"/>
<path d="M43.9012 28.4447C44.044 28.4431 44.1836 28.4026 44.305 28.3274C44.4263 28.2523 44.5249 28.1454 44.5899 28.0183C44.655 27.8913 44.6841 27.7488 44.6741 27.6064C44.6642 27.464 44.6155 27.327 44.5333 27.2103L43.9911 26.4615C43.9309 26.3784 43.855 26.308 43.7676 26.2542C43.6802 26.2005 43.5831 26.1645 43.4818 26.1482C43.3805 26.132 43.277 26.1359 43.1772 26.1597C43.0774 26.1835 42.9833 26.2267 42.9002 26.2869C42.8171 26.347 42.7467 26.423 42.6929 26.5104C42.6392 26.5977 42.6032 26.6949 42.587 26.7961C42.5708 26.8974 42.5746 27.0009 42.5984 27.1007C42.6222 27.2005 42.6654 27.2947 42.7256 27.3777L43.2678 28.1266C43.3354 28.2313 43.4297 28.3161 43.5411 28.3721C43.6525 28.428 43.7769 28.4531 43.9012 28.4447Z" fill="white"/>
<path d="M41.8592 24.2953C42.2639 24.298 42.7057 23.936 43.0476 23.7434C43.2281 23.6417 43.3608 23.4724 43.4165 23.2729C43.4722 23.0734 43.4464 22.8599 43.3447 22.6794C43.243 22.4989 43.0738 22.3662 42.8742 22.3105C42.6747 22.2548 42.4612 22.2806 42.2807 22.3823L41.4749 22.8363C41.2944 22.938 41.1618 23.1072 41.106 23.3067C41.0502 23.5062 41.076 23.7196 41.1775 23.9002C41.2466 24.0199 41.346 24.1195 41.4656 24.1888C41.5852 24.2582 41.7209 24.2949 41.8592 24.2953Z" fill="white"/>
<path d="M45.2124 33.5689C45.6165 33.5716 46.0585 33.2096 46.4006 33.0169C46.4902 32.9667 46.569 32.8993 46.6326 32.8185C46.6961 32.7378 46.743 32.6453 46.7708 32.5464C46.7985 32.4475 46.8064 32.3441 46.7941 32.2421C46.7819 32.1401 46.7496 32.0416 46.6991 31.9521C46.6487 31.8626 46.5811 31.7839 46.5003 31.7206C46.4194 31.6573 46.3268 31.6105 46.2279 31.583C46.1289 31.5555 46.0255 31.5477 45.9235 31.5603C45.8216 31.5728 45.7231 31.6053 45.6337 31.6559L44.828 32.1098C44.6774 32.1942 44.559 32.3263 44.4916 32.4853C44.4241 32.6442 44.4114 32.8211 44.4554 32.9881C44.4994 33.1551 44.5976 33.3028 44.7346 33.4079C44.8716 33.513 45.0397 33.5696 45.2124 33.5689Z" fill="white"/>
<path d="M48.4339 27.8052C48.4231 27.7032 48.3922 27.6042 48.3431 27.5141C48.294 27.424 48.2276 27.3444 48.1476 27.28C48.0677 27.2156 47.9759 27.1676 47.8774 27.1387C47.7789 27.1098 47.6757 27.1007 47.5737 27.1117L46.4422 27.233C46.2435 27.2543 46.0604 27.3509 45.9308 27.503C45.8011 27.6552 45.7347 27.8512 45.7452 28.0508C45.7557 28.2504 45.8424 28.4384 45.9873 28.5761C46.1322 28.7138 46.3244 28.7907 46.5243 28.7909C46.5521 28.7909 47.7404 28.665 47.7404 28.665C47.9463 28.6429 48.1351 28.54 48.2652 28.3787C48.3952 28.2175 48.4559 28.0112 48.4339 27.8052Z" fill="white"/>
<path d="M47.3346 25.4182C47.5232 25.4181 47.7054 25.3497 47.8476 25.2258C47.9898 25.1018 48.0823 24.9306 48.1081 24.7438C48.134 24.557 48.0914 24.3671 47.9882 24.2092C47.885 24.0513 47.7282 23.9361 47.5467 23.8847L46.2295 23.5124C46.0302 23.4565 45.817 23.482 45.6364 23.5832C45.4559 23.6845 45.323 23.8532 45.2667 24.0523C45.2105 24.2515 45.2355 24.4648 45.3364 24.6455C45.4373 24.8262 45.6057 24.9595 45.8047 25.0161C45.8047 25.0161 47.2642 25.4182 47.3346 25.4182Z" fill="white"/>
<path d="M48.7563 32.9199C47.53 33.8169 46.2122 34.5818 44.8251 35.2018C43.7285 35.1843 42.6373 35.0429 41.5724 34.7803C39.326 34.1192 37.7389 32.6045 36.0587 31.0012C34.5987 29.6073 33.0889 28.1665 31.1068 27.3201C29.8045 26.7819 28.4342 26.4256 27.0347 26.2611C25.6271 26.1083 24.2111 26.0466 22.7955 26.0765C19.8434 26.075 17.0549 26.0731 14.7178 24.5469C13.5709 23.5753 12.3586 22.6835 11.0896 21.8778C7.95619 19.9767 4.53567 18.5955 0.960801 17.7877C0.759295 17.7402 0.547159 17.7746 0.370978 17.8833C0.194797 17.992 0.0689745 18.1663 0.021142 18.3677C-0.0266905 18.5691 0.00737715 18.7813 0.115864 18.9577C0.22435 19.134 0.398386 19.2601 0.599753 19.3082C4.01036 20.0769 7.27402 21.3927 10.2641 23.2045C12.5078 24.601 14.5334 26.4145 16.4928 28.1685C17.131 28.7399 17.7688 29.3109 18.4157 29.8701C22.871 33.7229 29.8739 38.2814 38.0612 38.2814C38.1673 38.2814 38.2733 38.2806 38.3794 38.2791C42.1164 38.2222 46.1282 36.7674 49.6762 34.1826C49.8436 34.0606 49.9558 33.8771 49.9879 33.6724C50.02 33.4678 49.9696 33.2587 49.8476 33.0913C49.7256 32.9239 49.5421 32.8117 49.3374 32.7796C49.1328 32.7475 48.9237 32.7979 48.7563 32.9199ZM38.3563 36.7166C30.5283 36.8429 23.7456 32.4133 19.4375 28.6884C18.9359 28.2547 18.4415 27.811 17.9462 27.3681C19.5522 27.5908 21.1739 27.6814 22.7947 27.639C24.1421 27.6089 25.4899 27.666 26.8299 27.8099C28.0884 27.9565 29.3208 28.2752 30.4926 28.757C32.2148 29.4921 33.5579 30.7742 34.98 32.1315C36.7212 33.7927 38.5211 35.5108 41.1313 36.2795C41.2154 36.3043 41.3016 36.3241 41.387 36.3462C40.392 36.5725 39.3765 36.6966 38.3563 36.7166Z" fill="white"/>
<path d="M0.642214 1.55025C9.29704 3.13256 16.2621 9.00858 22.9978 14.6916C22.9978 14.6916 23.9332 15.4794 24.0018 15.5369C24.3337 16.1259 24.6492 16.7672 24.9814 17.4454C26.1205 19.7723 27.4119 22.4094 29.907 23.6518C31.0346 24.2023 32.2751 24.482 33.5298 24.4685C36.2332 24.4685 38.9881 23.3043 40.9956 21.7617C44.2357 20.8923 47.4482 18.2919 49.8777 14.4765C49.989 14.3017 50.0263 14.0899 49.9815 13.8877C49.9366 13.6854 49.8132 13.5093 49.6385 13.398C49.4637 13.2867 49.2519 13.2494 49.0497 13.2943C48.8474 13.3392 48.6713 13.4625 48.56 13.6373C45.906 17.8047 42.3095 20.377 38.9391 20.5181C33.3055 20.7596 28.172 17.0082 24.8031 14.1702L24.0054 13.4973C17.1138 7.68263 9.98691 1.67001 0.923185 0.0129766C0.822166 -0.00566715 0.718462 -0.0042085 0.618008 0.0172685C0.517553 0.0387454 0.42232 0.0798193 0.337756 0.13814C0.253192 0.196461 0.180958 0.270884 0.125187 0.357151C0.0694157 0.443418 0.0312023 0.539835 0.012733 0.640886C-0.00573629 0.741937 -0.00409886 0.845638 0.0175516 0.946055C0.039202 1.04647 0.0804405 1.14163 0.138907 1.2261C0.197374 1.31056 0.271922 1.38267 0.358285 1.43829C0.444648 1.49391 0.541131 1.53196 0.642214 1.55025ZM30.6034 22.2534C28.8924 21.4012 27.8298 19.635 26.8883 17.7742C29.8138 19.8467 33.4236 21.7601 37.3894 22.0519C35.2088 22.969 32.6784 23.2871 30.6034 22.2534Z" fill="white"/>
<path d="M29.2959 30.9839C29.7273 30.9839 30.0771 30.6306 30.0771 30.1948C30.0771 29.759 29.7273 29.4058 29.2959 29.4058C28.8644 29.4058 28.5146 29.759 28.5146 30.1948C28.5146 30.6306 28.8644 30.9839 29.2959 30.9839Z" fill="white"/>
<path d="M24.6094 31.7651C25.0408 31.7651 25.3906 31.4153 25.3906 30.9839C25.3906 30.5524 25.0408 30.2026 24.6094 30.2026C24.1779 30.2026 23.8281 30.5524 23.8281 30.9839C23.8281 31.4153 24.1779 31.7651 24.6094 31.7651Z" fill="white"/>
<path d="M27.3428 32.9581C27.7742 32.9581 28.124 32.6045 28.124 32.1682C28.124 31.732 27.7742 31.3784 27.3428 31.3784C26.9113 31.3784 26.5615 31.732 26.5615 32.1682C26.5615 32.6045 26.9113 32.9581 27.3428 32.9581Z" fill="white"/>
<path d="M29.6865 34.1421C30.118 34.1421 30.4677 33.7887 30.4677 33.3527C30.4677 32.9167 30.118 32.5632 29.6865 32.5632C29.255 32.5632 28.9053 32.9167 28.9053 33.3527C28.9053 33.7887 29.255 34.1421 29.6865 34.1421Z" fill="white"/>
<path d="M33.2021 34.932C33.6336 34.932 33.9834 34.5783 33.9834 34.1421C33.9834 33.7059 33.6336 33.3523 33.2021 33.3523C32.7707 33.3523 32.4209 33.7059 32.4209 34.1421C32.4209 34.5783 32.7707 34.932 33.2021 34.932Z" fill="white"/>
<path d="M35.5459 36.1171C35.9773 36.1171 36.3271 35.7633 36.3271 35.3268C36.3271 34.8904 35.9773 34.5366 35.5459 34.5366C35.1144 34.5366 34.7646 34.8904 34.7646 35.3268C34.7646 35.7633 35.1144 36.1171 35.5459 36.1171Z" fill="white"/>
<path d="M32.0303 32.5635C32.4617 32.5635 32.8115 32.2099 32.8115 31.7737C32.8115 31.3375 32.4617 30.9839 32.0303 30.9839C31.5988 30.9839 31.249 31.3375 31.249 31.7737C31.249 32.2099 31.5988 32.5635 32.0303 32.5635Z" fill="white"/>
<path d="M26.6982 30.3018C27.1297 30.3018 27.4795 29.9482 27.4795 29.512C27.4795 29.0758 27.1297 28.7222 26.6982 28.7222C26.2668 28.7222 25.917 29.0758 25.917 29.512C25.917 29.9482 26.2668 30.3018 26.6982 30.3018Z" fill="white"/>
<path d="M23.0469 30.1948C23.4783 30.1948 23.8281 29.8414 23.8281 29.4054C23.8281 28.9694 23.4783 28.616 23.0469 28.616C22.6154 28.616 22.2656 28.9694 22.2656 29.4054C22.2656 29.8414 22.6154 30.1948 23.0469 30.1948Z" fill="white"/>
</svg>
