<svg width="40" height="38" viewBox="0 0 40 38" fill="none" xmlns="http://www.w3.org/2000/svg">
<path d="M36.0732 22.1645H17.7099C16.0853 22.1645 14.7637 20.8428 14.7637 19.2184V12.4827H16.0224V19.2184C16.0224 20.1488 16.7794 20.9058 17.7099 20.9058H36.0732C37.0036 20.9058 37.7606 20.1488 37.7606 19.2184V2.9461C37.7606 2.01568 37.0036 1.25872 36.0732 1.25872H17.7099C16.7793 1.25872 16.0224 2.01568 16.0224 2.9461V10.0412H14.7637V2.9461C14.7637 1.32165 16.0853 0 17.7099 0H36.0732C37.6976 0 39.0193 1.32157 39.0193 2.9461V19.2184C39.0193 20.8428 37.6977 22.1645 36.0732 22.1645Z" fill="#F4F4F4"/>
<path d="M7.92819 36.9798C7.58062 36.9798 7.29883 36.698 7.29883 36.3504V24.1914C7.29883 23.8438 7.58062 23.562 7.92819 23.562C8.27575 23.562 8.55754 23.8438 8.55754 24.1914V36.3504C8.55754 36.698 8.27583 36.9798 7.92819 36.9798Z" fill="#F4F4F4"/>
<path d="M8.05576 10.1569C5.8991 10.1569 4.14453 7.93969 4.14453 5.21433C4.14453 2.71972 5.64319 1.16992 8.05576 1.16992C10.4682 1.16992 11.9669 2.71964 11.9669 5.21433C11.967 7.93969 10.2124 10.1569 8.05576 10.1569ZM8.05576 2.42864C7.06515 2.42864 5.40325 2.79052 5.40325 5.21433C5.40325 7.24559 6.59313 8.8982 8.05576 8.8982C9.51838 8.8982 10.7082 7.24566 10.7082 5.21433C10.7083 2.7906 9.04636 2.42864 8.05576 2.42864Z" fill="#F4F4F4"/>
<path d="M12.2136 36.9796C12.2132 36.9796 12.2129 36.9796 12.2126 36.9796C11.865 36.9791 11.5837 36.6968 11.5842 36.3492L11.6194 14.5989C11.6196 14.4529 11.6707 14.3114 11.7637 14.1988L13.5142 12.0815C13.6338 11.9369 13.8116 11.8532 13.9993 11.8532H18.418C18.5679 11.8532 18.7109 11.7971 18.8205 11.6951C18.8337 11.6828 18.8474 11.6711 18.8616 11.66L22.2354 9.02355C22.359 8.92694 22.4376 8.78817 22.4567 8.63256C22.4758 8.47695 22.4332 8.32323 22.3367 8.1998C22.1376 7.94475 21.768 7.89944 21.513 8.09855L18.3926 10.5371C18.2819 10.6235 18.1455 10.6705 18.005 10.6705H4.45511C3.1359 10.6705 1.30431 11.4909 1.2966 13.0311L1.25876 20.5695C1.25569 21.1649 1.49508 21.7349 1.93264 22.1748C2.28807 22.532 2.75112 22.7749 3.24973 22.8737V13.0239C3.24973 12.6763 3.53153 12.3945 3.87909 12.3945C4.22665 12.3945 4.50845 12.6763 4.50845 13.0239V36.3503C4.50845 36.6978 4.22665 36.9796 3.87909 36.9796C3.53153 36.9796 3.24973 36.6978 3.24973 36.3503V24.1485C2.4156 24.0375 1.63024 23.6553 1.04037 23.0625C0.364835 22.3836 -0.0045983 21.4959 4.32101e-05 20.5631L0.0378046 13.0249C0.0490544 10.7932 2.33937 9.41186 4.45503 9.41186H17.7882L20.738 7.10668C21.5401 6.48024 22.7022 6.6231 23.3286 7.42498C23.9551 8.22694 23.8122 9.38897 23.0103 10.0155L19.6557 12.6369C19.3154 12.9435 18.877 13.112 18.418 13.112H14.2954L12.8776 14.8269L12.8428 36.3512C12.8423 36.6985 12.5607 36.9796 12.2136 36.9796Z" fill="#F4F4F4"/>
<path d="M22.0445 38.0001H13.8715C13.6929 38.0001 13.5228 37.9243 13.4034 37.7915C13.2841 37.6587 13.2267 37.4814 13.2458 37.3038C13.5038 34.8921 15.5297 33.0735 17.9581 33.0735C20.3865 33.0735 22.4123 34.8922 22.6704 37.3038C22.6894 37.4814 22.6321 37.6586 22.5128 37.7914C22.3933 37.9242 22.2231 38.0001 22.0445 38.0001ZM14.6442 36.7414H21.2718C20.8189 35.3286 19.4988 34.3321 17.958 34.3321C16.4173 34.3321 15.0972 35.3287 14.6442 36.7414Z" fill="#F4F4F4"/>
<path d="M17.9575 34.3322C16.4646 34.3322 15.25 33.1177 15.25 31.6247C15.25 30.1318 16.4646 28.9172 17.9575 28.9172C19.4504 28.9172 20.665 30.1318 20.665 31.6247C20.665 33.1177 19.4504 34.3322 17.9575 34.3322ZM17.9575 30.176C17.1586 30.176 16.5087 30.8258 16.5087 31.6247C16.5087 32.4236 17.1586 33.0735 17.9575 33.0735C18.7564 33.0735 19.4063 32.4236 19.4063 31.6247C19.4063 30.8258 18.7564 30.176 17.9575 30.176Z" fill="#F4F4F4"/>
<path d="M30.2164 38.0001H22.0434C21.8648 38.0001 21.6946 37.9243 21.5753 37.7914C21.456 37.6586 21.3986 37.4814 21.4176 37.3038C21.6758 34.8921 23.7017 33.0735 26.13 33.0735C28.5583 33.0735 30.5842 34.8922 30.8422 37.3038C30.8612 37.4814 30.8039 37.6586 30.6845 37.7914C30.5651 37.9242 30.395 38.0001 30.2164 38.0001ZM22.8162 36.7414H29.4437C28.9908 35.3286 27.6706 34.3321 26.13 34.3321C24.5892 34.3321 23.2691 35.3286 22.8162 36.7414Z" fill="#F4F4F4"/>
<path d="M26.1294 34.3322C24.6365 34.3322 23.4219 33.1177 23.4219 31.6247C23.4219 30.1318 24.6365 28.9172 26.1294 28.9172C27.6223 28.9172 28.8369 30.1318 28.8369 31.6247C28.8369 33.1177 27.6223 34.3322 26.1294 34.3322ZM26.1294 30.176C25.3305 30.176 24.6806 30.8258 24.6806 31.6247C24.6806 32.4236 25.3305 33.0735 26.1294 33.0735C26.9283 33.0735 27.5782 32.4236 27.5782 31.6247C27.5782 30.8258 26.9282 30.176 26.1294 30.176Z" fill="#F4F4F4"/>
<path d="M38.3922 38.0001H30.2192C30.0406 38.0001 29.8704 37.9243 29.7511 37.7915C29.6317 37.6587 29.5744 37.4814 29.5934 37.3038C29.8515 34.8921 31.8774 33.0735 34.3057 33.0735C36.7341 33.0735 38.7599 34.8922 39.0181 37.3038C39.0371 37.4814 38.9798 37.6586 38.8604 37.7914C38.741 37.9242 38.5708 38.0001 38.3922 38.0001ZM30.9919 36.7414H37.6196C37.1667 35.3286 35.8465 34.3321 34.3057 34.3321C32.765 34.3321 31.4448 35.3287 30.9919 36.7414Z" fill="#F4F4F4"/>
<path d="M34.3052 34.3322C32.8122 34.3322 31.5977 33.1177 31.5977 31.6247C31.5977 30.1318 32.8122 28.9172 34.3052 28.9172C35.7981 28.9172 37.0127 30.1318 37.0127 31.6247C37.0127 33.1177 35.7981 34.3322 34.3052 34.3322ZM34.3052 30.176C33.5063 30.176 32.8564 30.8258 32.8564 31.6247C32.8564 32.4236 33.5063 33.0735 34.3052 33.0735C35.104 33.0735 35.7539 32.4236 35.7539 31.6247C35.7539 30.8258 35.104 30.176 34.3052 30.176Z" fill="#F4F4F4"/>
<path d="M26.1669 12.3404C25.9553 12.3404 25.7487 12.2338 25.6299 12.0401C25.0428 11.0834 24.7324 9.98168 24.7324 8.85426C24.7324 5.49089 27.4687 2.7546 30.8321 2.7546C31.2924 2.7546 31.7483 2.80629 32.192 2.90746C32.2093 2.73328 32.2988 2.56713 32.4525 2.45739C32.7353 2.25529 33.1284 2.3209 33.3304 2.60371L34.1925 3.81082C34.2344 3.86668 34.2663 3.92883 34.2875 3.99412C34.2875 3.99428 34.2876 3.99444 34.2876 3.9946C34.2953 4.0182 34.3015 4.04227 34.3063 4.06658C34.3063 4.06674 34.3064 4.06689 34.3064 4.06705C34.3064 4.06713 34.3064 4.06721 34.3065 4.06737C34.3345 4.21054 34.3132 4.36387 34.2359 4.49966C34.2272 4.51507 34.2178 4.53002 34.2078 4.5445C34.1291 4.65951 34.0179 4.74078 33.8942 4.78334C33.8629 4.7942 33.8304 4.80261 33.7973 4.80836C33.7792 4.81158 33.761 4.81394 33.7425 4.81551L32.2587 4.95932C31.9134 4.9937 31.605 4.73968 31.5715 4.39369C31.5606 4.28174 31.5798 4.17381 31.6225 4.07783C31.3626 4.03503 31.0982 4.01324 30.8321 4.01324C28.1628 4.01324 25.9911 6.18484 25.9911 8.85418C25.9911 9.74913 26.2372 10.6231 26.7027 11.3818C26.8845 11.678 26.7918 12.0656 26.4955 12.2473C26.3928 12.3104 26.2791 12.3404 26.1669 12.3404Z" fill="#F4F4F4"/>
<path d="M28.835 15.3763C28.6367 15.3763 28.4414 15.2828 28.3189 15.1079L27.468 13.8929C27.4282 13.8388 27.3976 13.7789 27.3771 13.716C27.3771 13.716 27.377 13.7158 27.377 13.7157C27.377 13.7157 27.377 13.7157 27.3769 13.7156C27.3688 13.6908 27.3623 13.6656 27.3574 13.6402C27.3294 13.4967 27.3511 13.3432 27.429 13.2074C27.4372 13.193 27.4459 13.1792 27.4551 13.1657C27.5337 13.0501 27.645 12.9684 27.7689 12.9256C27.8003 12.9146 27.8328 12.9061 27.8662 12.9003C27.8664 12.9002 27.8667 12.9002 27.867 12.9002C27.8871 12.8966 27.9074 12.8941 27.9278 12.8925L29.4124 12.7625C29.7586 12.7313 30.0639 12.9882 30.0942 13.3345C30.1034 13.4396 30.0863 13.5408 30.0482 13.6319C30.306 13.674 30.568 13.6954 30.8318 13.6954C33.5012 13.6954 35.6728 11.5238 35.6728 8.85441C35.6728 7.95954 35.4267 7.08552 34.9611 6.32683C34.7793 6.03056 34.8721 5.64303 35.1684 5.46123C35.4647 5.27934 35.8522 5.37225 36.034 5.66852C36.6211 6.62546 36.9315 7.72707 36.9315 8.85441C36.9315 12.2178 34.1952 14.9541 30.8318 14.9541C30.368 14.9541 29.9084 14.9015 29.4616 14.7988C29.4467 14.9787 29.3549 15.1509 29.1954 15.2626C29.0857 15.3393 28.9597 15.3763 28.835 15.3763Z" fill="#F4F4F4"/>
<path d="M29.0322 17.4992H18.5415C18.1939 17.4992 17.9121 17.2174 17.9121 16.8698C17.9121 16.5223 18.1939 16.2405 18.5415 16.2405H29.0322C29.3798 16.2405 29.6616 16.5223 29.6616 16.8698C29.6616 17.2174 29.3798 17.4992 29.0322 17.4992Z" fill="#F4F4F4"/>
<path d="M33.7523 19.8593H18.688C18.3404 19.8593 18.0586 19.5775 18.0586 19.2299C18.0586 18.8824 18.3404 18.6006 18.688 18.6006H33.7523C34.0998 18.6006 34.3816 18.8824 34.3816 19.2299C34.3816 19.5775 34.0998 19.8593 33.7523 19.8593Z" fill="#F4F4F4"/>
</svg>
