<svg width="38" height="38" viewBox="0 0 38 38" fill="none" xmlns="http://www.w3.org/2000/svg">
<path d="M27.7004 0H2.28401C1.02459 0 0 1.02466 0 2.28401V35.7159C0 36.9753 1.02459 38 2.28401 38H27.7004C28.9598 38 29.9844 36.9753 29.9844 35.716V2.28401C29.9844 1.02466 28.9598 0 27.7004 0ZM28.5 35.716C28.5 36.1569 28.1413 36.5156 27.7004 36.5156H2.28401C1.84307 36.5156 1.48438 36.1569 1.48438 35.716V2.28401C1.48438 1.84307 1.84307 1.48438 2.28401 1.48438H27.7004C28.1413 1.48438 28.5 1.84307 28.5 2.28401V35.716Z" fill="#F4F4F4"/>
<path d="M25.2344 10.5391H14.25C13.8401 10.5391 13.5078 10.8714 13.5078 11.2812C13.5078 11.6911 13.8401 12.0234 14.25 12.0234H25.2344C25.6443 12.0234 25.9766 11.6911 25.9766 11.2812C25.9766 10.8714 25.6443 10.5391 25.2344 10.5391Z" fill="#F4F4F4"/>
<path d="M14.25 7.27344H19.1631C19.573 7.27344 19.9052 6.94109 19.9052 6.53125C19.9052 6.12141 19.573 5.78906 19.1631 5.78906H14.25C13.8401 5.78906 13.5078 6.12141 13.5078 6.53125C13.5078 6.94109 13.8401 7.27344 14.25 7.27344Z" fill="#F4F4F4"/>
<path d="M25.2351 5.78906H22.5879C22.178 5.78906 21.8457 6.12141 21.8457 6.53125C21.8457 6.94109 22.178 7.27344 22.5879 7.27344H25.2351C25.645 7.27344 25.9772 6.94109 25.9772 6.53125C25.9772 6.12141 25.645 5.78906 25.2351 5.78906Z" fill="#F4F4F4"/>
<path d="M25.2344 20.6328H14.25C13.8401 20.6328 13.5078 20.9652 13.5078 21.375C13.5078 21.7848 13.8401 22.1172 14.25 22.1172H25.2344C25.6443 22.1172 25.9766 21.7848 25.9766 21.375C25.9766 20.9652 25.6443 20.6328 25.2344 20.6328Z" fill="#F4F4F4"/>
<path d="M14.25 17.3672H19.1631C19.573 17.3672 19.9052 17.0348 19.9052 16.625C19.9052 16.2152 19.573 15.8828 19.1631 15.8828H14.25C13.8401 15.8828 13.5078 16.2152 13.5078 16.625C13.5078 17.0348 13.8401 17.3672 14.25 17.3672Z" fill="#F4F4F4"/>
<path d="M25.2351 15.8828H22.5879C22.178 15.8828 21.8457 16.2152 21.8457 16.625C21.8457 17.0348 22.178 17.3672 22.5879 17.3672H25.2351C25.645 17.3672 25.9772 17.0348 25.9772 16.625C25.9772 16.2152 25.645 15.8828 25.2351 15.8828Z" fill="#F4F4F4"/>
<path d="M25.2344 30.7266H14.25C13.8401 30.7266 13.5078 31.0589 13.5078 31.4688C13.5078 31.8786 13.8401 32.2109 14.25 32.2109H25.2344C25.6443 32.2109 25.9766 31.8786 25.9766 31.4688C25.9766 31.0589 25.6443 30.7266 25.2344 30.7266Z" fill="#F4F4F4"/>
<path d="M14.25 27.4609H19.1631C19.573 27.4609 19.9052 27.1286 19.9052 26.7188C19.9052 26.3089 19.573 25.9766 19.1631 25.9766H14.25C13.8401 25.9766 13.5078 26.3089 13.5078 26.7188C13.5078 27.1286 13.8401 27.4609 14.25 27.4609Z" fill="#F4F4F4"/>
<path d="M25.2351 25.9766H22.5879C22.178 25.9766 21.8457 26.3089 21.8457 26.7188C21.8457 27.1286 22.178 27.4609 22.5879 27.4609H25.2351C25.645 27.4609 25.9772 27.1286 25.9772 26.7188C25.9772 26.3089 25.645 25.9766 25.2351 25.9766Z" fill="#F4F4F4"/>
<path d="M8.97721 7.55892L6.30444 10.2317L5.27681 9.20405C4.98699 8.9143 4.51703 8.9143 4.22713 9.20405C3.93731 9.49388 3.93731 9.96383 4.22713 10.2537L5.77957 11.8062C5.92452 11.951 6.11444 12.0236 6.30437 12.0236C6.49429 12.0236 6.68429 11.951 6.82917 11.8062L10.0267 8.6086C10.3166 8.31877 10.3166 7.84882 10.0267 7.55892C9.73706 7.2691 9.26703 7.2691 8.97721 7.55892Z" fill="#F4F4F4"/>
<path d="M10.0249 16.1002C9.73503 15.8104 9.26508 15.8104 8.97518 16.1002L7.12506 17.9503L5.27486 16.1001C4.98503 15.8104 4.51508 15.8104 4.22518 16.1001C3.93536 16.3899 3.93536 16.8599 4.22518 17.1498L6.07538 19L4.22518 20.8502C3.93536 21.14 3.93536 21.61 4.22518 21.8999C4.37013 22.0447 4.56013 22.1172 4.75006 22.1172C4.93998 22.1172 5.12998 22.0447 5.27486 21.8998L7.12506 20.0497L8.97526 21.8999C9.1202 22.0447 9.31013 22.1173 9.50006 22.1173C9.68998 22.1173 9.87998 22.0447 10.0249 21.8999C10.3147 21.6101 10.3147 21.1401 10.0249 20.8502L8.17473 19L10.0249 17.1498C10.3147 16.86 10.3147 16.39 10.0249 16.1002Z" fill="#F4F4F4"/>
<path d="M10.0249 26.1939C9.73503 25.9042 9.26508 25.9042 8.97518 26.1939L7.12506 28.0441L5.27486 26.1939C4.98503 25.9041 4.51508 25.9041 4.22518 26.1939C3.93536 26.4837 3.93536 26.9537 4.22518 27.2436L6.07538 29.0937L4.22518 30.9439C3.93536 31.2338 3.93536 31.7037 4.22518 31.9936C4.37013 32.1384 4.56013 32.2109 4.75006 32.2109C4.93998 32.2109 5.12998 32.1384 5.27486 31.9936L7.12506 30.1434L8.97526 31.9936C9.1202 32.1385 9.31013 32.211 9.50006 32.211C9.68998 32.211 9.87998 32.1385 10.0249 31.9936C10.3147 31.7038 10.3147 31.2338 10.0249 30.9439L8.17473 29.0937L10.0249 27.2436C10.3147 26.9537 10.3147 26.4838 10.0249 26.1939Z" fill="#F4F4F4"/>
<path d="M35.1797 4.00781C33.6246 4.00781 32.3594 5.27302 32.3594 6.82812V24.4196C32.3594 24.8295 32.6917 25.1618 33.1016 25.1618C33.5115 25.1618 33.8438 24.8295 33.8438 24.4196V9.18457H36.5156V31.9079H33.8438V24.3438C33.8438 23.9339 33.5115 23.6016 33.1016 23.6016C32.6917 23.6016 32.3594 23.9339 32.3594 24.3438V32.6501C32.3594 32.7553 32.3817 32.8593 32.425 32.9552L34.5031 37.5629C34.6231 37.8289 34.8879 38 35.1797 38C35.4715 38 35.7363 37.8289 35.8563 37.5629L37.9344 32.9552C37.9777 32.8593 38 32.7553 38 32.6501V6.82812C38 5.27302 36.7348 4.00781 35.1797 4.00781ZM33.8438 7.7002V6.82812C33.8438 6.0915 34.4431 5.49219 35.1797 5.49219C35.9163 5.49219 36.5156 6.0915 36.5156 6.82812V7.7002H33.8438ZM35.1797 35.4526L34.2505 33.3923H36.1089L35.1797 35.4526Z" fill="#F4F4F4"/>
<path d="M33.1016 21.7461C33.2968 21.7461 33.4882 21.6667 33.6263 21.5286C33.7643 21.3906 33.8438 21.1991 33.8438 21.0039C33.8438 20.8079 33.7643 20.6172 33.6263 20.4792C33.4882 20.3411 33.2968 20.2617 33.1016 20.2617C32.9064 20.2617 32.7149 20.3411 32.5768 20.4792C32.4388 20.6172 32.3594 20.8087 32.3594 21.0039C32.3594 21.1991 32.4388 21.3906 32.5768 21.5286C32.7149 21.6667 32.9064 21.7461 33.1016 21.7461Z" fill="#F4F4F4"/>
</svg>
