<svg width="38" height="27" viewBox="0 0 38 27" fill="none" xmlns="http://www.w3.org/2000/svg">
<path fill-rule="evenodd" clip-rule="evenodd" d="M26.6112 25.807C26.6112 26.125 26.3532 26.3829 26.0352 26.3829H11.9697C11.6513 26.3829 11.3941 26.125 11.3941 25.807C11.3941 25.4893 11.6513 25.2313 11.9697 25.2313H26.0351C26.3532 25.2312 26.6112 25.4892 26.6112 25.807ZM25.3588 12.5032C25.113 12.5032 24.9137 12.3035 24.9137 12.0579C24.9137 11.813 25.113 11.6133 25.3588 11.6133C25.6037 11.6133 25.8034 11.813 25.8034 12.0579C25.8035 12.3035 25.6037 12.5032 25.3588 12.5032ZM12.6461 12.5032C12.4012 12.5032 12.2015 12.3035 12.2015 12.0579C12.2015 11.813 12.4013 11.6133 12.6461 11.6133C12.8918 11.6133 13.0916 11.813 13.0916 12.0579C13.0916 12.3035 12.8918 12.5032 12.6461 12.5032ZM25.3588 10.462C24.682 10.462 24.1029 10.8864 23.8716 11.4822H22.0962L20.8749 7.30445C20.7143 6.75395 19.9305 6.75471 19.7701 7.30445L17.6376 14.5982C17.538 14.2569 16.8715 11.9142 16.804 11.7876C16.7005 11.5933 16.5022 11.4801 16.2823 11.4822H14.1332C13.9019 10.8864 13.3232 10.462 12.646 10.462C11.7656 10.462 11.0497 11.1781 11.0497 12.058C11.0497 12.9384 11.7655 13.6547 12.646 13.6547C13.3233 13.6547 13.9019 13.2302 14.1332 12.6337H15.8639L17.0856 16.812C17.2458 17.3618 18.0304 17.361 18.1904 16.812L20.3229 9.51849C20.4207 9.85322 21.093 12.2071 21.1547 12.3266C21.2555 12.522 21.4551 12.6337 21.6778 12.6337H23.8711C24.1029 13.2301 24.6819 13.6547 25.3587 13.6547C26.2387 13.6547 26.955 12.9384 26.955 12.058C26.9551 11.1781 26.2389 10.462 25.3588 10.462ZM36.8489 13.4919H35.5983V10.6247H36.8489V13.4919ZM34.4466 16.0752H32.7277V8.04075H34.4466V16.0752ZM29.9575 12.6874C30.117 12.2683 30.258 11.8484 30.3811 11.4292H31.5762V12.6874H29.9575ZM18.8121 22.892C28.3823 18.0495 31.0789 9.09696 29.3271 4.43939C28.5478 2.3651 26.9664 1.26654 24.873 1.33878C23.512 1.38634 21.7125 2.19008 19.3732 3.79376C19.1722 3.93199 18.9058 3.92804 18.7082 3.7845C16.3831 2.09099 14.5844 1.23203 13.2098 1.15912C10.912 1.04294 9.18785 2.38674 8.49196 4.90688C7.78184 7.47872 8.29395 10.8718 9.86261 13.9831C11.1519 16.5412 13.7469 20.1431 18.8121 22.892ZM6.42357 12.6874V11.4292H7.62029C7.7416 11.8476 7.88135 12.2684 8.03862 12.6874H6.42357ZM5.27189 16.0752H3.55304V8.04075H5.27197L5.27189 16.0752ZM1.1516 13.4919V10.6247H2.40178V13.4919H1.1516ZM37.4245 9.47311H35.5983V7.46491C35.5983 7.14702 35.3403 6.88915 35.0227 6.88915H32.1522C31.8342 6.88915 31.5762 7.14702 31.5762 7.46491V10.2777H30.6712C31.1535 8.00682 31.0768 5.81964 30.4048 4.03411C29.4515 1.49772 27.4208 0.0959198 24.8324 0.188105C23.2948 0.24249 21.4533 1.01566 19.058 2.61707C16.6719 0.922049 14.8264 0.0921315 13.2704 0.00912288C10.4192 -0.141235 8.21793 1.5745 7.38212 4.60069C6.91211 6.30254 6.90461 8.25871 7.33127 10.2777H6.42365V7.46491C6.42365 7.14702 6.16604 6.88915 5.84806 6.88915H2.97736C2.65931 6.88915 2.40178 7.14702 2.40178 7.46491V9.47311H0.575588C0.257529 9.47311 0 9.73115 0 10.049V14.0677C0 14.3854 0.257613 14.6435 0.575588 14.6435H2.40186V16.6508C2.40186 16.9687 2.65947 17.2266 2.97745 17.2266H5.84798C6.16604 17.2266 6.42357 16.9687 6.42357 16.6508V13.8389H8.51655C9.94891 16.9784 12.857 21.0424 18.5335 24.0498C18.6966 24.1363 18.8912 24.1385 19.0561 24.0575C25.0601 21.1067 28.0189 16.9457 29.473 13.8389H31.5761V16.6508C31.5761 16.9687 31.8341 17.2266 32.1521 17.2266H35.0226C35.3403 17.2266 35.5982 16.9687 35.5982 16.6508V14.6435H37.4244C37.7425 14.6435 38 14.3854 38 14.0677V10.049C38.0002 9.73115 37.7426 9.47311 37.4245 9.47311Z" fill="#F4F4F4"/>
</svg>
