<svg width="38" height="38" viewBox="0 0 38 38" fill="none" xmlns="http://www.w3.org/2000/svg">
<path d="M16.0407 2.79697C16.0755 2.79698 16.1102 2.79398 16.1445 2.788C16.2212 2.77459 16.2946 2.74618 16.3603 2.70441C16.4261 2.66263 16.4829 2.60831 16.5277 2.54455C16.5724 2.48078 16.6041 2.40882 16.621 2.33279C16.6379 2.25675 16.6397 2.17813 16.6262 2.10141L16.3893 0.760332C16.3619 0.605397 16.274 0.467706 16.1451 0.377505C16.0161 0.287305 15.8567 0.251972 15.7017 0.279268C15.5467 0.306565 15.4089 0.394259 15.3186 0.523085C15.2282 0.651912 15.1927 0.811336 15.2198 0.966336L15.4567 2.30741C15.4811 2.44458 15.553 2.5688 15.6598 2.6583C15.7665 2.7478 15.9014 2.79689 16.0407 2.79697Z" fill="#F4F4F4"/>
<path d="M10.312 2.7498C10.2332 2.61391 10.1037 2.51482 9.95192 2.47424C9.80015 2.43367 9.63848 2.45492 9.50235 2.53334C9.36622 2.61176 9.26673 2.74095 9.22569 2.8926C9.18465 3.04425 9.20541 3.20599 9.28341 3.34236L9.96529 4.5217C10.0441 4.65759 10.1736 4.75668 10.3254 4.79726C10.4772 4.83783 10.6388 4.81658 10.775 4.73816C10.9111 4.65974 11.0106 4.53054 11.0516 4.3789C11.0927 4.22725 11.0719 4.06551 10.9939 3.92914L10.312 2.7498Z" fill="#F4F4F4"/>
<path d="M5.28211 6.69503C5.22251 6.64479 5.15359 6.6068 5.07929 6.58322C5.00499 6.55963 4.92678 6.55093 4.84911 6.55759C4.77145 6.56426 4.69586 6.58616 4.62667 6.62206C4.55747 6.65796 4.49603 6.70714 4.44586 6.76679C4.39569 6.82645 4.35776 6.89541 4.33426 6.96973C4.31075 7.04405 4.30212 7.12227 4.30886 7.19993C4.31561 7.27759 4.33759 7.35316 4.37356 7.42231C4.40952 7.49147 4.45877 7.55286 4.51847 7.60297L5.56317 8.47821C5.62279 8.52835 5.6917 8.56626 5.76596 8.58977C5.84023 8.61328 5.9184 8.62193 5.99601 8.61523C6.07362 8.60854 6.14915 8.58662 6.21828 8.55073C6.28742 8.51484 6.34881 8.46568 6.39896 8.40607C6.4491 8.34645 6.48701 8.27754 6.51052 8.20328C6.53403 8.12901 6.54268 8.05084 6.53598 7.97323C6.52928 7.89562 6.50736 7.82009 6.47147 7.75095C6.43558 7.68182 6.38643 7.62042 6.32681 7.57028L5.28211 6.69503Z" fill="#F4F4F4"/>
<path d="M1.14709 12.4739C1.12044 12.547 1.10848 12.6247 1.1119 12.7025C1.11531 12.7803 1.13404 12.8566 1.167 12.9271C1.19997 12.9976 1.24652 13.061 1.304 13.1135C1.36147 13.166 1.42874 13.2066 1.50195 13.2331L2.78353 13.6987C2.85667 13.7255 2.93438 13.7376 3.01221 13.7344C3.09005 13.7311 3.16648 13.7126 3.23713 13.6798C3.30779 13.647 3.37128 13.6005 3.42398 13.5432C3.47668 13.4858 3.51754 13.4186 3.54424 13.3454C3.57094 13.2722 3.58294 13.1945 3.57957 13.1167C3.5762 13.0388 3.55751 12.9624 3.52458 12.8918C3.49165 12.8212 3.44512 12.7578 3.38766 12.7052C3.3302 12.6526 3.26293 12.6119 3.1897 12.5853L1.90812 12.1197C1.8349 12.093 1.75713 12.081 1.67925 12.0843C1.60137 12.0876 1.52491 12.1063 1.45424 12.1391C1.38357 12.172 1.32007 12.2185 1.26737 12.276C1.21466 12.3334 1.1738 12.4006 1.14709 12.4739Z" fill="#F4F4F4"/>
<path d="M0 18.962C0.000166837 19.1193 0.0628137 19.2701 0.174161 19.3812C0.285508 19.4923 0.436437 19.5547 0.593748 19.5545H1.95766C2.11482 19.5545 2.26554 19.4921 2.37667 19.381C2.4878 19.2698 2.55023 19.1191 2.55023 18.962C2.55023 18.8048 2.4878 18.6541 2.37667 18.5429C2.26554 18.4318 2.11482 18.3694 1.95766 18.3694H0.593748C0.436433 18.3692 0.285502 18.4316 0.174154 18.5427C0.0628058 18.6538 0.00016133 18.8047 0 18.962Z" fill="#F4F4F4"/>
<path d="M1.14709 25.4501C1.17372 25.5234 1.21455 25.5907 1.26724 25.6482C1.31992 25.7057 1.38343 25.7522 1.45412 25.7851C1.52482 25.818 1.60131 25.8366 1.67921 25.8399C1.75712 25.8432 1.8349 25.8311 1.90812 25.8043L3.18969 25.3387C3.33733 25.2849 3.45753 25.1745 3.52385 25.0321C3.59016 24.8896 3.59715 24.7266 3.54329 24.5789C3.48943 24.4313 3.37913 24.3111 3.23664 24.2448C3.09416 24.1785 2.93116 24.1715 2.78352 24.2253L1.50195 24.6909C1.42874 24.7174 1.36147 24.758 1.304 24.8105C1.24652 24.863 1.19997 24.9264 1.16701 24.9969C1.13404 25.0674 1.11532 25.1437 1.1119 25.2215C1.10848 25.2993 1.12044 25.377 1.14709 25.4501Z" fill="#F4F4F4"/>
<path d="M35.2175 24.2253C35.1444 24.1987 35.0668 24.1867 34.989 24.19C34.9113 24.1933 34.835 24.212 34.7644 24.2448C34.6939 24.2776 34.6305 24.324 34.5779 24.3814C34.5252 24.4387 34.4844 24.5058 34.4578 24.5789C34.4311 24.652 34.4191 24.7297 34.4224 24.8074C34.4258 24.8852 34.4444 24.9615 34.4772 25.0321C34.51 25.1026 34.5565 25.166 34.6138 25.2186C34.6711 25.2712 34.7383 25.312 34.8114 25.3387L36.0929 25.8043C36.166 25.8309 36.2437 25.8429 36.3214 25.8396C36.3992 25.8363 36.4755 25.8177 36.5461 25.7848C36.6166 25.752 36.68 25.7056 36.7326 25.6482C36.7852 25.5909 36.826 25.5238 36.8527 25.4507C36.8794 25.3776 36.8914 25.2999 36.888 25.2222C36.8847 25.1444 36.8661 25.0681 36.8333 24.9975C36.8004 24.927 36.754 24.8636 36.6967 24.811C36.6393 24.7584 36.5722 24.7176 36.4991 24.6909L35.2175 24.2253Z" fill="#F4F4F4"/>
<path d="M37.4057 18.3694H36.0418C35.8846 18.3694 35.7339 18.4318 35.6228 18.5429C35.5117 18.6541 35.4492 18.8048 35.4492 18.962C35.4492 19.1191 35.5117 19.2698 35.6228 19.381C35.7339 19.4921 35.8846 19.5545 36.0418 19.5545H37.4057C37.4835 19.5545 37.5606 19.5392 37.6325 19.5094C37.7044 19.4796 37.7697 19.436 37.8247 19.381C37.8797 19.3259 37.9234 19.2606 37.9532 19.1887C37.9829 19.1168 37.9983 19.0398 37.9983 18.962C37.9983 18.8841 37.9829 18.8071 37.9532 18.7352C37.9234 18.6633 37.8797 18.598 37.8247 18.5429C37.7697 18.4879 37.7044 18.4443 37.6325 18.4145C37.5606 18.3847 37.4835 18.3694 37.4057 18.3694Z" fill="#F4F4F4"/>
<path d="M36.0939 12.1199L34.8123 12.5854C34.7391 12.612 34.6718 12.6527 34.6143 12.7053C34.5569 12.7579 34.5104 12.8214 34.4774 12.892C34.4445 12.9626 34.4258 13.039 34.4224 13.1168C34.4191 13.1946 34.4311 13.2723 34.4578 13.3455C34.4845 13.4187 34.5253 13.4859 34.578 13.5433C34.6307 13.6007 34.6942 13.6471 34.7649 13.6799C34.8355 13.7127 34.912 13.7313 34.9898 13.7345C35.0676 13.7378 35.1453 13.7256 35.2185 13.6988L36.5 13.2332C36.5732 13.2066 36.6403 13.1658 36.6976 13.1131C36.755 13.0605 36.8014 12.9971 36.8342 12.9266C36.867 12.856 36.8857 12.7797 36.889 12.702C36.8923 12.6242 36.8803 12.5466 36.8536 12.4735C36.827 12.4004 36.7862 12.3332 36.7336 12.2759C36.6809 12.2186 36.6175 12.1722 36.547 12.1393C36.4764 12.1065 36.4001 12.0879 36.3224 12.0845C36.2446 12.0812 36.167 12.0932 36.0939 12.1199Z" fill="#F4F4F4"/>
<path d="M32.7181 6.69503L31.6734 7.57028C31.5533 7.67166 31.4784 7.81651 31.465 7.97306C31.4517 8.12961 31.501 8.28506 31.6021 8.4053C31.7032 8.52555 31.848 8.60075 32.0045 8.61442C32.161 8.62809 32.3166 8.5791 32.437 8.47821L33.4817 7.60297C33.5414 7.55286 33.5906 7.49147 33.6266 7.42231C33.6626 7.35316 33.6846 7.27759 33.6913 7.19993C33.698 7.12227 33.6894 7.04405 33.6659 6.96973C33.6424 6.89541 33.6045 6.82645 33.5543 6.76679C33.5041 6.70714 33.4427 6.65796 33.3735 6.62206C33.3043 6.58616 33.2287 6.56426 33.1511 6.55759C33.0734 6.55093 32.9952 6.55963 32.9209 6.58322C32.8466 6.6068 32.7777 6.64479 32.7181 6.69503Z" fill="#F4F4F4"/>
<path d="M28.499 2.53287C28.3626 2.45438 28.2007 2.43315 28.0486 2.47383C27.8966 2.5145 27.7669 2.61377 27.688 2.74989L27.0061 3.92922C26.9281 4.06559 26.9073 4.22732 26.9483 4.37897C26.9894 4.53062 27.0889 4.65982 27.225 4.73824C27.3611 4.81666 27.5228 4.83791 27.6746 4.79734C27.8264 4.75676 27.9559 4.65767 28.0347 4.52178L28.7166 3.34244C28.7555 3.27502 28.7808 3.20057 28.791 3.12337C28.8011 3.04617 28.7959 2.96772 28.7757 2.89252C28.7555 2.81732 28.7207 2.74685 28.6732 2.68513C28.6257 2.62342 28.5665 2.57168 28.499 2.53287Z" fill="#F4F4F4"/>
<path d="M21.9597 2.79696C22.099 2.79688 22.2339 2.74779 22.3406 2.65829C22.4474 2.56879 22.5193 2.44458 22.5437 2.30741L22.7806 0.966336C22.8077 0.811336 22.7722 0.651912 22.6818 0.523085C22.5915 0.394259 22.4537 0.306565 22.2987 0.279268C22.1437 0.251972 21.9843 0.287305 21.8553 0.377505C21.7264 0.467706 21.6385 0.605397 21.6111 0.760332L21.3742 2.10141C21.3607 2.17813 21.3625 2.25675 21.3794 2.33279C21.3963 2.40882 21.428 2.48078 21.4727 2.54455C21.5175 2.60831 21.5743 2.66263 21.6401 2.70441C21.7058 2.74618 21.7792 2.77459 21.8559 2.788C21.8902 2.79397 21.9249 2.79697 21.9597 2.79696Z" fill="#F4F4F4"/>
<path d="M19.0664 2.54617C19.2233 2.5463 19.3739 2.48427 19.4852 2.37365C19.5964 2.26302 19.6594 2.11282 19.6602 1.95592L19.6654 0.594873C19.6656 0.516977 19.6505 0.439797 19.6209 0.367742C19.5913 0.295686 19.5478 0.230167 19.4929 0.174926C19.438 0.119685 19.3727 0.0758045 19.3008 0.0457904C19.2289 0.0157763 19.1518 0.000216646 19.0739 2.06392e-07H19.0716C18.9147 -0.000130583 18.7642 0.0619033 18.6529 0.172525C18.5416 0.283147 18.4787 0.433346 18.4779 0.590251L18.4727 1.95128C18.4724 2.02918 18.4875 2.10636 18.5171 2.17841C18.5467 2.25047 18.5902 2.31599 18.6451 2.37123C18.7001 2.42648 18.7653 2.47036 18.8372 2.50037C18.9091 2.53039 18.9862 2.54595 19.0641 2.54617H19.0664Z" fill="#F4F4F4"/>
<path d="M13.3274 1.50844C13.2739 1.36064 13.1639 1.2401 13.0217 1.17327C12.8794 1.10643 12.7164 1.09876 12.5685 1.15194C12.4206 1.20512 12.2998 1.31481 12.2327 1.45693C12.1655 1.59906 12.1575 1.76201 12.2103 1.91004L12.672 3.18863C12.7253 3.33676 12.8352 3.45766 12.9776 3.52475C13.12 3.59184 13.2832 3.59961 13.4314 3.54635C13.5795 3.49309 13.7004 3.38317 13.7675 3.24077C13.8346 3.09837 13.8423 2.93515 13.7891 2.78702L13.3274 1.50844Z" fill="#F4F4F4"/>
<path d="M8.0907 6.54065C8.20346 6.54074 8.31391 6.50866 8.40907 6.44818C8.50424 6.38769 8.58017 6.30132 8.62796 6.19918C8.67575 6.09705 8.69341 5.98341 8.67887 5.87159C8.66433 5.75977 8.61819 5.65442 8.54587 5.56791L7.67293 4.52657C7.57198 4.40616 7.42739 4.33072 7.27087 4.31679C7.11436 4.30286 6.95872 4.35159 6.83809 4.45229C6.71747 4.55298 6.64171 4.69741 6.62745 4.85389C6.61319 5.01037 6.66158 5.16612 6.76202 5.28696L7.63495 6.32829C7.69074 6.39489 7.76048 6.44843 7.83923 6.48512C7.91798 6.52182 8.00382 6.54077 8.0907 6.54065Z" fill="#F4F4F4"/>
<path d="M2.57351 9.50383C2.53457 9.57123 2.50932 9.64565 2.49918 9.72283C2.48904 9.80001 2.49423 9.87842 2.51444 9.9536C2.53465 10.0288 2.56949 10.0992 2.61696 10.1609C2.66443 10.2226 2.7236 10.2743 2.79109 10.3131L3.97016 10.9919C4.03758 11.031 4.11205 11.0565 4.18931 11.0668C4.26658 11.0771 4.34512 11.0721 4.42044 11.0521C4.49577 11.032 4.5664 10.9973 4.62829 10.9499C4.69018 10.9025 4.74212 10.8434 4.78113 10.7759C4.82014 10.7084 4.84546 10.6339 4.85564 10.5566C4.86583 10.4793 4.86067 10.4008 4.84046 10.3255C4.82026 10.2502 4.78541 10.1796 4.7379 10.1178C4.6904 10.056 4.63117 10.0042 4.56361 9.96532L3.38453 9.28653C3.24815 9.20783 3.08611 9.18652 2.93403 9.22726C2.78194 9.26801 2.65226 9.36749 2.57351 9.50383Z" fill="#F4F4F4"/>
<path d="M0.292018 15.6956C0.278636 15.7723 0.280506 15.8509 0.29752 15.9269C0.314534 16.0029 0.34636 16.0748 0.391177 16.1385C0.435993 16.2022 0.492923 16.2564 0.558711 16.2981C0.624498 16.3398 0.697854 16.3681 0.774584 16.3814L2.11733 16.6157C2.19403 16.6293 2.27266 16.6276 2.34871 16.6108C2.42477 16.594 2.49676 16.5623 2.56056 16.5176C2.62437 16.473 2.67873 16.4161 2.72055 16.3504C2.76237 16.2847 2.79083 16.2114 2.80428 16.1347C2.81773 16.0579 2.81593 15.9793 2.79896 15.9033C2.782 15.8273 2.75021 15.7553 2.70542 15.6916C2.66062 15.6279 2.6037 15.5736 2.53791 15.5319C2.47213 15.4902 2.39876 15.4619 2.32201 15.4485L0.979264 15.2142C0.902518 15.2006 0.823844 15.2022 0.747747 15.2191C0.671649 15.2359 0.599622 15.2676 0.535787 15.3124C0.471952 15.3571 0.417564 15.4139 0.375735 15.4797C0.333906 15.5455 0.305458 15.6188 0.292018 15.6956Z" fill="#F4F4F4"/>
<path d="M2.09251 21.3558L0.747741 21.5942C0.601714 21.6199 0.470612 21.6993 0.380325 21.8169C0.290038 21.9345 0.247131 22.0817 0.260076 22.2294C0.273022 22.3771 0.34088 22.5146 0.450248 22.6147C0.559617 22.7148 0.702545 22.7702 0.850807 22.7701C0.885852 22.7701 0.920831 22.767 0.955321 22.7608L2.3001 22.5224C2.37681 22.5089 2.45011 22.4804 2.5158 22.4385C2.58149 22.3967 2.63828 22.3423 2.68292 22.2784C2.72756 22.2146 2.75917 22.1426 2.77595 22.0665C2.79272 21.9904 2.79433 21.9118 2.78069 21.8351C2.76704 21.7584 2.73841 21.6852 2.69642 21.6196C2.65443 21.5539 2.59992 21.4973 2.536 21.4527C2.47208 21.4082 2.40001 21.3767 2.32391 21.3601C2.24782 21.3435 2.16918 21.342 2.09251 21.3558Z" fill="#F4F4F4"/>
<path d="M37.1245 22.7187C37.2729 22.7188 37.4159 22.6633 37.5253 22.563C37.6348 22.4628 37.7026 22.3251 37.7153 22.1773C37.7281 22.0294 37.6849 21.8821 37.5943 21.7646C37.5037 21.6471 37.3723 21.5678 37.2261 21.5425L35.8834 21.3082C35.8067 21.2946 35.728 21.2962 35.652 21.3131C35.5759 21.3299 35.5039 21.3616 35.4401 21.4062C35.3763 21.4509 35.322 21.5078 35.2801 21.5735C35.2383 21.6392 35.2099 21.7125 35.1964 21.7892C35.183 21.866 35.1848 21.9446 35.2017 22.0206C35.2187 22.0966 35.2505 22.1686 35.2953 22.2323C35.3401 22.296 35.397 22.3503 35.4628 22.392C35.5286 22.4337 35.6019 22.462 35.6787 22.4753L37.0214 22.7097C37.0555 22.7157 37.0899 22.7187 37.1245 22.7187Z" fill="#F4F4F4"/>
<path d="M35.9065 16.5684L37.2513 16.33C37.328 16.3165 37.4013 16.288 37.467 16.2461C37.5327 16.2043 37.5895 16.1499 37.6341 16.086C37.6787 16.0222 37.7103 15.9502 37.7271 15.8741C37.7439 15.798 37.7455 15.7194 37.7319 15.6427C37.7182 15.566 37.6896 15.4928 37.6476 15.4272C37.6056 15.3616 37.5511 15.3049 37.4872 15.2604C37.4233 15.2158 37.3512 15.1844 37.2751 15.1677C37.199 15.1511 37.1204 15.1496 37.0437 15.1634L35.6989 15.4018C35.5529 15.4275 35.4218 15.5069 35.3315 15.6245C35.2412 15.7421 35.1983 15.8893 35.2112 16.037C35.2242 16.1847 35.2921 16.3222 35.4014 16.4223C35.5108 16.5224 35.6537 16.5778 35.802 16.5777C35.837 16.5777 35.872 16.5746 35.9065 16.5684Z" fill="#F4F4F4"/>
<path d="M34.6865 9.24157L33.5022 9.92384C33.3664 10.0027 33.2674 10.1323 33.227 10.2841C33.1866 10.4359 33.2081 10.5975 33.2867 10.7335C33.3653 10.8694 33.4947 10.9687 33.6465 11.0093C33.7982 11.05 33.9598 11.0288 34.096 10.9504L35.2803 10.2681C35.3478 10.2292 35.407 10.1774 35.4545 10.1156C35.502 10.0537 35.5368 9.98317 35.557 9.90787C35.5772 9.83257 35.5824 9.75403 35.5722 9.67675C35.562 9.59946 35.5366 9.52494 35.4976 9.45746C35.4586 9.38998 35.4066 9.33085 35.3447 9.28347C35.2828 9.23609 35.2122 9.20138 35.1368 9.18133C35.0615 9.16128 34.9829 9.15628 34.9057 9.16661C34.8284 9.17695 34.7539 9.20242 34.6865 9.24157Z" fill="#F4F4F4"/>
<path d="M30.4367 4.49195L29.5557 5.53588C29.4551 5.65641 29.4064 5.81187 29.4203 5.96823C29.4341 6.12458 29.5094 6.26907 29.6295 6.37005C29.7497 6.47103 29.905 6.52026 30.0614 6.50697C30.2178 6.49368 30.3626 6.41895 30.464 6.29914L31.345 5.25521C31.4456 5.13468 31.4943 4.97921 31.4804 4.82286C31.4666 4.66651 31.3913 4.52202 31.2711 4.42104C31.151 4.32006 30.9957 4.27082 30.8393 4.28411C30.6829 4.2974 30.5381 4.37214 30.4367 4.49195Z" fill="#F4F4F4"/>
<path d="M25.5707 1.1354C25.423 1.08107 25.2597 1.08757 25.1168 1.15348C24.9739 1.21939 24.863 1.33933 24.8085 1.48694L24.3369 2.76669C24.2829 2.91443 24.2897 3.07758 24.3558 3.2203C24.422 3.36302 24.5421 3.47364 24.6898 3.52785C24.8375 3.58206 25.0006 3.57544 25.1434 3.50942C25.2862 3.44341 25.397 3.32341 25.4514 3.1758L25.9229 1.89607C25.9498 1.823 25.962 1.74534 25.9589 1.66754C25.9558 1.58974 25.9373 1.51332 25.9046 1.44267C25.8718 1.37201 25.8255 1.3085 25.7682 1.25578C25.7109 1.20305 25.6438 1.16215 25.5707 1.1354Z" fill="#F4F4F4"/>
<path d="M20.6455 27.321L20.4478 27.0383L19.7266 28.0696C20.1451 28.6481 20.6764 29.136 21.2884 29.5039C21.9004 29.8718 22.5805 30.1121 23.2877 30.2103C23.5575 30.2332 23.8125 30.3433 24.0143 30.5238L23.9757 30.55C23.8463 30.6375 23.7568 30.7726 23.7266 30.9259C23.6963 31.0791 23.7279 31.2381 23.8144 31.3682L28.0493 37.7351C28.1364 37.866 28.2719 37.9571 28.426 37.9882C28.5801 38.0194 28.7403 37.9881 28.8714 37.9012C29.0024 37.8144 29.0937 37.679 29.1251 37.525C29.1565 37.3709 29.1255 37.2107 29.0388 37.0794L27.8978 35.364L35.206 30.4988L36.9239 32.6566C37.0217 32.7799 37.1644 32.8593 37.3208 32.8774C37.4771 32.8954 37.6341 32.8507 37.7574 32.7529C37.8807 32.6551 37.9601 32.5124 37.9782 32.3561C37.9963 32.1998 37.9515 32.0427 37.8537 31.9194L32.6269 25.3543C32.5336 25.2373 32.3996 25.1597 32.2516 25.1371C32.1037 25.1145 31.9526 25.1486 31.8286 25.2325L31.1753 25.6749C31.0913 25.5317 31.0369 25.373 31.0153 25.2083C30.9938 25.0437 31.0056 24.8764 31.0499 24.7163C31.2004 24.001 31.2029 23.2624 31.0573 22.546C30.9117 21.8296 30.621 21.1506 30.2032 20.5507L29.6525 19.7632L26.6708 15.4975C26.3539 15.0328 25.8662 14.7123 25.314 14.6057C25.1296 14.5753 24.9415 14.5751 24.757 14.6051C24.8756 14.9854 24.9205 15.3847 24.8895 15.7818C24.9618 15.7634 25.0371 15.7605 25.1106 15.7735C25.3508 15.8268 25.5611 15.971 25.6972 16.1759L26.5262 17.3619L26.5291 17.3672L28.5567 20.2667L28.6787 20.4414L29.2293 21.2287C29.5545 21.6956 29.7807 22.2241 29.894 22.7817C30.0073 23.3393 30.0054 23.9142 29.8883 24.471C29.8104 24.7869 29.7974 25.1153 29.8501 25.4363C29.9028 25.7574 30.0201 26.0644 30.195 26.3388L25.0071 29.8516C24.6108 29.3905 24.0529 29.0986 23.4481 29.0362C22.888 28.9586 22.35 28.7662 21.8677 28.4711C21.3855 28.1759 20.9694 27.7844 20.6455 27.321ZM32.0397 26.5218L34.4646 29.5676L27.2409 34.3765L25.1289 31.2013L32.0397 26.5218Z" fill="#F4F4F4"/>
<path d="M25.4436 19.8943C25.5336 20.0234 25.6711 20.1115 25.826 20.1392C25.9809 20.1669 26.1404 20.1319 26.2695 20.042C26.3986 19.952 26.4867 19.8145 26.5144 19.6596C26.5421 19.5047 26.5071 19.3452 26.4172 19.2161L24.7623 16.8502C24.7325 16.8072 24.7058 16.7623 24.6823 16.7156C24.6222 16.8749 24.5501 17.0295 24.4668 17.178C24.7489 17.4969 24.9596 17.8723 25.085 18.2791C25.2104 18.686 25.2475 19.1149 25.1939 19.5372L25.4436 19.8943Z" fill="#F4F4F4"/>
<path d="M5.37275 25.3545L0.145984 31.9195C0.0975775 31.9806 0.0616691 32.0506 0.0403094 32.1255C0.0189497 32.2004 0.012557 32.2788 0.0214962 32.3562C0.0304355 32.4336 0.0545316 32.5085 0.0924089 32.5766C0.130286 32.6447 0.181203 32.7046 0.242252 32.753C0.303301 32.8014 0.373286 32.8373 0.448212 32.8587C0.523139 32.8801 0.601538 32.8865 0.678935 32.8775C0.756332 32.8686 0.83121 32.8445 0.899295 32.8066C0.967379 32.7687 1.02734 32.7178 1.07574 32.6568L2.79368 30.499L10.1019 35.3642L8.96089 37.0796C8.87425 37.2108 8.84322 37.371 8.87462 37.5251C8.90601 37.6792 8.99726 37.8145 9.12834 37.9013C9.25942 37.9882 9.4196 38.0195 9.57372 37.9883C9.72785 37.9572 9.86331 37.8662 9.95038 37.7352L14.1853 31.3683C14.2718 31.2383 14.3034 31.0793 14.2731 30.926C14.2429 30.7727 14.1534 30.6376 14.024 30.5501L13.9867 30.5248C14.1877 30.3441 14.4421 30.2337 14.7114 30.2104C15.434 30.1107 16.1282 29.8629 16.7506 29.4824C17.3729 29.1019 17.91 28.597 18.3281 27.9993L19.4337 26.4185L19.5308 26.2797L21.0288 24.1378L21.0312 24.1336L23.6314 20.4143C24.2634 19.5099 24.1347 18.3181 23.3438 17.7576C23.1807 17.6441 22.9978 17.5623 22.8044 17.5165L23.3177 16.7825C23.9494 15.8772 23.82 14.6854 23.0298 14.1261C22.8613 14.0077 22.6713 13.9235 22.4704 13.8782L22.4729 13.8747C23.106 12.9688 22.9766 11.7764 22.1845 11.2171C22.0059 11.0932 21.8045 11.0059 21.5919 10.9604C21.3793 10.9149 21.1597 10.9121 20.946 10.9521C20.3939 11.0592 19.9065 11.3802 19.5902 11.8453L19.3292 12.2185C19.2227 12.0542 19.0862 11.9113 18.9269 11.7972C18.7486 11.673 18.5473 11.5856 18.3349 11.5399C18.1224 11.4943 17.903 11.4914 17.6894 11.5313C17.1368 11.638 16.6489 11.959 16.3322 12.4242L14.3265 15.2925C14.2198 15.1279 14.083 14.9848 13.9232 14.8709C13.7448 14.7469 13.5435 14.6597 13.3311 14.6142C13.1186 14.5687 12.8993 14.5658 12.6857 14.6058C12.1334 14.7125 11.6456 15.0331 11.3286 15.4979L8.34714 19.7633L8.34696 19.7636L7.7963 20.5512C7.37853 21.151 7.08792 21.8299 6.94233 22.5463C6.79674 23.2626 6.79927 24.0011 6.94975 24.7165C6.99412 24.8765 7.00589 25.0438 6.98435 25.2085C6.96281 25.3731 6.90841 25.5318 6.82438 25.675L6.17103 25.2326C6.04709 25.1487 5.89602 25.1146 5.74802 25.1372C5.60003 25.1597 5.46601 25.2374 5.37275 25.3545ZM8.11144 24.4711C7.99433 23.9144 7.99237 23.3395 8.10567 22.782C8.21898 22.2244 8.44515 21.696 8.77027 21.2291L11.4706 17.3673L11.4737 17.3616L12.3022 16.1764C12.4384 15.9713 12.6488 15.827 12.8891 15.7736C12.9483 15.7609 13.0095 15.76 13.0691 15.771C13.1287 15.7819 13.1855 15.8046 13.2363 15.8376C13.4922 16.0189 13.4933 16.48 13.2403 16.8459L12.2277 18.294L11.5826 19.2162C11.4927 19.3453 11.4577 19.5048 11.4854 19.6597C11.5131 19.8146 11.6012 19.9521 11.7303 20.042C11.8594 20.132 12.0189 20.1669 12.1738 20.1392C12.3287 20.1115 12.4662 20.0235 12.5561 19.8944L13.1071 19.1069L13.1084 19.1053L13.5567 18.4643L14.2119 17.5279L14.2154 17.5223L17.306 13.1025C17.4419 12.8971 17.6522 12.7525 17.8926 12.6991C17.9517 12.6865 18.0127 12.6857 18.0721 12.6967C18.1315 12.7077 18.1882 12.7304 18.2388 12.7634C18.4946 12.9448 18.4962 13.405 18.2441 13.7705L13.4992 20.5564L13.4987 20.5573L13.4739 20.5928C13.3842 20.722 13.3494 20.8814 13.3772 21.0362C13.405 21.191 13.4931 21.3284 13.6221 21.4182C13.7512 21.5081 13.9106 21.543 14.0654 21.5155C14.2202 21.4879 14.3577 21.3999 14.4477 21.271L19.2149 14.4537L19.2202 14.4453L20.5642 12.5232C20.7 12.318 20.91 12.1734 21.1501 12.1196C21.2096 12.1069 21.2709 12.106 21.3307 12.1172C21.3905 12.1283 21.4474 12.1511 21.4983 12.1844C21.7553 12.3658 21.7556 12.8293 21.499 13.1965L15.4082 21.9079C15.3184 22.0477 15.281 22.2148 15.3027 22.3796C15.3243 22.5443 15.4036 22.6961 15.5265 22.808C15.6556 22.8981 15.8152 22.9332 15.9703 22.9057C16.1253 22.8781 16.263 22.7901 16.3532 22.661L21.4082 15.4305C21.5441 15.2251 21.7544 15.0806 21.9948 15.0271C22.0541 15.0145 22.1154 15.0137 22.175 15.025C22.2346 15.0362 22.2914 15.0592 22.3421 15.0925C22.599 15.2742 22.5996 15.738 22.3436 16.1046L20.7495 18.3842L20.7493 18.3845L20.6642 18.5061L18.146 22.1072L18.1426 22.1133L17.3109 23.3031C17.2212 23.4322 17.1865 23.5917 17.2143 23.7464C17.242 23.9012 17.3301 24.0386 17.4592 24.1284C17.5882 24.2183 17.7476 24.2533 17.9024 24.2257C18.0572 24.1981 18.1947 24.1102 18.2847 23.9813L21.4911 19.3946L21.7235 19.0622C21.8593 18.8576 22.069 18.7135 22.3086 18.66C22.368 18.6473 22.4293 18.6464 22.4891 18.6575C22.5488 18.6685 22.6057 18.6912 22.6567 18.7243C22.9134 18.906 22.9135 19.3698 22.6574 19.7364L18.5604 25.5965L17.3543 27.3211C17.0303 27.7846 16.6141 28.1762 16.1317 28.4713C15.6493 28.7665 15.1112 28.9588 14.5511 29.0363C13.9464 29.0989 13.3886 29.3906 12.9923 29.8515L7.80474 26.3389C7.97956 26.0645 8.09688 25.7575 8.1496 25.4365C8.20231 25.1154 8.18933 24.787 8.11144 24.4711ZM12.8708 31.2014L10.7588 34.3767L3.53508 29.5677L5.95997 26.5219L12.8708 31.2014Z" fill="#F4F4F4"/>
<path d="M10.4639 31.8765C10.6486 31.6061 10.579 31.2372 10.3086 31.0526C10.0382 30.868 9.66933 30.9375 9.4847 31.2079C9.30007 31.4783 9.3696 31.8472 9.64 32.0318C9.9104 32.2165 10.2793 32.1469 10.4639 31.8765Z" fill="#F4F4F4"/>
<path d="M8.77013 11.5998C8.75563 11.6763 8.75635 11.755 8.77226 11.8312C8.78817 11.9074 8.81894 11.9798 8.86283 12.0441C8.90672 12.1085 8.96286 12.1635 9.02804 12.2061C9.09322 12.2487 9.16616 12.2781 9.24269 12.2925L10.6091 12.5515C10.6458 12.5585 10.6831 12.562 10.7205 12.5619C10.8682 12.562 11.0106 12.507 11.1198 12.4076C11.229 12.3083 11.2972 12.1717 11.3109 12.0247C11.3247 11.8777 11.2831 11.7308 11.1942 11.6129C11.1054 11.495 10.9757 11.4145 10.8306 11.3872L9.46419 11.1282C9.38765 11.1136 9.30898 11.1142 9.23267 11.13C9.15636 11.1458 9.08391 11.1764 9.01946 11.2202C8.955 11.264 8.89981 11.3201 8.85703 11.3852C8.81425 11.4504 8.78472 11.5233 8.77013 11.5998Z" fill="#F4F4F4"/>
<path d="M14.3849 9.54989H14.3888C14.5455 9.54999 14.6958 9.48815 14.807 9.37784C14.9182 9.26753 14.9813 9.11772 14.9824 8.96108L14.9914 7.57313C14.9918 7.49523 14.9769 7.41801 14.9475 7.34587C14.9181 7.27374 14.8748 7.20811 14.82 7.15273C14.7652 7.09735 14.7 7.05331 14.6282 7.02313C14.5564 6.99294 14.4793 6.9772 14.4014 6.97681H14.3975C14.2409 6.9767 14.0906 7.03855 13.9794 7.14885C13.8681 7.25916 13.8051 7.40898 13.8039 7.56561L13.7949 8.95356C13.7945 9.03146 13.8094 9.10869 13.8388 9.18082C13.8682 9.25295 13.9116 9.31858 13.9664 9.37396C14.0212 9.42934 14.0863 9.47338 14.1581 9.50356C14.2299 9.53375 14.307 9.54949 14.3849 9.54989Z" fill="#F4F4F4"/>
<path d="M11.0447 8.63406C10.9845 8.68343 10.9346 8.74419 10.8979 8.81287C10.8612 8.88154 10.8385 8.95678 10.8309 9.03427C10.8234 9.11175 10.8312 9.18997 10.8539 9.26443C10.8766 9.3389 10.9138 9.40815 10.9633 9.46822L12.0941 10.8403C12.194 10.9617 12.338 11.0385 12.4945 11.0539C12.651 11.0692 12.8072 11.0217 12.9288 10.9219C13.0503 10.8222 13.1272 10.6782 13.1427 10.5217C13.1581 10.3652 13.1108 10.209 13.0112 10.0874L11.8803 8.71536C11.78 8.59414 11.6358 8.51755 11.4793 8.50231C11.3227 8.48708 11.1664 8.53444 11.0447 8.63406Z" fill="#F4F4F4"/>
<path d="M28.5368 11.1282L27.1704 11.3871C27.0253 11.4144 26.8956 11.4949 26.8068 11.6128C26.7179 11.7308 26.6763 11.8776 26.6901 12.0246C26.7039 12.1716 26.772 12.3082 26.8812 12.4076C26.9904 12.5069 27.1328 12.562 27.2805 12.5618C27.3179 12.5619 27.3552 12.5584 27.3919 12.5514L28.7583 12.2925C28.8349 12.2781 28.908 12.2487 28.9732 12.2061C29.0385 12.1635 29.0947 12.1084 29.1386 12.044C29.1825 11.9796 29.2133 11.9072 29.2292 11.8309C29.2451 11.7546 29.2458 11.6759 29.2312 11.5993C29.2167 11.5227 29.1871 11.4498 29.1443 11.3846C29.1015 11.3195 29.0463 11.2634 28.9818 11.2196C28.9173 11.1759 28.8448 11.1453 28.7684 11.1296C28.6921 11.1139 28.6134 11.1134 28.5368 11.1282Z" fill="#F4F4F4"/>
<path d="M23.6037 6.97681H23.5998C23.5219 6.9772 23.4448 6.99294 23.373 7.02313C23.3012 7.05331 23.236 7.09735 23.1812 7.15273C23.1264 7.20811 23.0831 7.27374 23.0537 7.34587C23.0243 7.41801 23.0093 7.49523 23.0098 7.57313L23.0188 8.96108C23.0199 9.11772 23.083 9.26753 23.1942 9.37784C23.3054 9.48815 23.4557 9.54999 23.6124 9.54989H23.6163C23.6942 9.54949 23.7712 9.53375 23.8431 9.50356C23.9149 9.47338 23.98 9.42934 24.0348 9.37396C24.0896 9.31858 24.1329 9.25295 24.1624 9.18082C24.1918 9.10869 24.2067 9.03146 24.2063 8.95356L24.1973 7.56561C24.1961 7.40898 24.133 7.25916 24.0218 7.14885C23.9106 7.03855 23.7603 6.9767 23.6037 6.97681Z" fill="#F4F4F4"/>
<path d="M26.1187 8.71543L24.9879 10.0875C24.8882 10.2091 24.8409 10.3653 24.8564 10.5218C24.8718 10.6783 24.9488 10.8222 25.0703 10.922C25.1919 11.0218 25.348 11.0692 25.5045 11.0539C25.661 11.0386 25.805 10.9618 25.9049 10.8403L27.0357 9.46829C27.1354 9.34667 27.1827 9.19045 27.1673 9.03397C27.1518 8.87748 27.0749 8.73353 26.9533 8.63375C26.8318 8.53397 26.6756 8.48653 26.5191 8.50185C26.3626 8.51716 26.2186 8.59398 26.1187 8.71543Z" fill="#F4F4F4"/>
</svg>
