<svg width="38" height="33" viewBox="0 0 38 33" fill="none" xmlns="http://www.w3.org/2000/svg">
<path d="M29.87 7.67038C31.9844 7.67038 33.7049 5.95026 33.7049 3.83584C33.7049 1.72143 31.9844 0.000976562 29.87 0.000976562C27.7556 0.000976562 26.0352 1.72143 26.0352 3.83584C26.0352 5.95026 27.7556 7.67038 29.87 7.67038ZM29.87 1.38491C31.2215 1.38491 32.321 2.48435 32.321 3.83584C32.321 5.187 31.2215 6.28644 29.87 6.28644C28.5185 6.28644 27.4191 5.187 27.4191 3.83584C27.4191 2.48435 28.5185 1.38491 29.87 1.38491Z" fill="#F4F4F4"/>
<path d="M33.7399 8.4634H25.4573C24.5822 8.4634 23.751 8.79519 23.1172 9.39695L21.7792 10.6667L20.9582 10.0308V0.691966C20.9582 0.30983 20.6487 0 20.2662 0H3.4029C3.02077 0 2.71094 0.30983 2.71094 0.691966V12.1094C2.71094 12.4915 3.02077 12.8014 3.4029 12.8014H16.8582L20.2736 15.3564C21.2075 16.0558 22.4725 16.1429 23.4692 15.5932L24.8545 14.9015V26.1528C24.8545 27.7259 26.1344 29.0058 27.7075 29.0058C28.5761 29.0058 29.3455 28.6077 29.8692 27.9939C30.393 28.6077 31.1624 29.0058 32.031 29.0058C33.6041 29.0058 34.884 27.7259 34.884 26.1528V18.798C35.1508 18.9097 35.4433 18.9723 35.7503 18.9723C36.9909 18.9723 37.9998 17.9634 37.9998 16.7227V12.7233C37.9998 10.3744 36.0888 8.4634 33.7399 8.4634ZM16.2374 9.46486C15.8209 10.0481 15.7222 10.765 15.8897 11.4174H4.09487V1.38393H19.5742V8.96156C18.5014 8.14614 17.0012 8.39644 16.2374 9.46486ZM36.6159 16.7227C36.6159 17.1998 36.2274 17.5884 35.7503 17.5884C35.2725 17.5884 34.884 17.1998 34.884 16.7227C34.884 16.4046 34.884 14.0997 34.884 13.7829C34.884 13.4008 34.5745 13.0909 34.192 13.0909C33.8095 13.0909 33.5 13.4008 33.5 13.7829V26.1528C33.5 26.963 32.8412 27.6219 32.031 27.6219C31.2207 27.6219 30.5612 26.963 30.5612 26.1528C30.5612 22.6353 30.5612 22.191 30.5612 20.0102C30.5612 19.6278 30.2517 19.3183 29.8692 19.3183C29.4868 19.3183 29.1773 19.6278 29.1773 20.0102V26.1528C29.1773 26.963 28.5177 27.6219 27.7075 27.6219C26.8973 27.6219 26.2384 26.963 26.2384 26.1528C26.2384 25.962 26.2408 13.9526 26.2342 13.7619C26.2196 13.2416 25.6628 12.9513 25.2377 13.1639L22.8266 14.3681C22.2779 14.6695 21.6015 14.6215 21.1021 14.2481L17.5962 11.625C17.5882 11.6169 17.5779 11.612 17.5695 11.6043C17.1535 11.2913 17.061 10.6929 17.3639 10.269C17.6785 9.82806 18.302 9.72497 18.7434 10.0663L21.4014 12.1243C21.6711 12.3331 22.0529 12.3152 22.3015 12.0793L24.07 10.4008C24.4457 10.044 24.9383 9.84733 25.4573 9.84733H33.7399C35.3259 9.84733 36.6159 11.1373 36.6159 12.7233V16.7227Z" fill="#F4F4F4"/>
<path d="M16.0728 3.61963H7.59626C7.21413 3.61963 6.9043 3.92946 6.9043 4.31159C6.9043 4.69373 7.21413 5.00356 7.59626 5.00356H16.0728C16.455 5.00356 16.7648 4.69373 16.7648 4.31159C16.7648 3.92946 16.455 3.61963 16.0728 3.61963Z" fill="#F4F4F4"/>
<path d="M16.0728 6.28638H7.59626C7.21413 6.28638 6.9043 6.59621 6.9043 6.97834C6.9043 7.36048 7.21413 7.67031 7.59626 7.67031H16.0728C16.455 7.67031 16.7648 7.36048 16.7648 6.97834C16.7648 6.59621 16.455 6.28638 16.0728 6.28638Z" fill="#F4F4F4"/>
<path d="M20.6721 25.0911C21.3464 24.3638 21.7625 23.3938 21.7625 22.326C21.7625 20.0799 19.9346 18.252 17.6877 18.252C15.4412 18.252 13.6133 20.0799 13.6133 22.326C13.6133 23.3938 14.0293 24.3638 14.7036 25.0911C13.5882 25.3014 12.6296 25.9584 12.0226 26.8708C11.4156 25.9584 10.4568 25.3014 9.34116 25.0911C10.0155 24.3638 10.4315 23.3938 10.4315 22.326C10.4315 20.0799 8.60362 18.252 6.3571 18.252C4.11057 18.252 2.28268 20.0799 2.28268 22.326C2.28268 23.3938 2.69873 24.3638 3.37304 25.0911C1.45577 25.4526 0 27.1371 0 29.1578V31.7737C0 32.1561 0.30983 32.4656 0.691966 32.4656H4.07442H23.3532C23.7356 32.4656 24.0451 32.1561 24.0451 31.7737V29.1578C24.0451 27.1371 22.5894 25.4525 20.6721 25.0911ZM6.3571 19.6359C7.8407 19.6359 9.04759 20.8428 9.04759 22.326C9.04759 23.81 7.8407 25.0169 6.3571 25.0169C4.87349 25.0169 3.66661 23.81 3.66661 22.326C3.66661 20.8428 4.87349 19.6359 6.3571 19.6359ZM11.3306 31.0817H9.33208V29.241C9.33208 28.8585 9.02225 28.549 8.64011 28.549C8.25798 28.549 7.94815 28.8585 7.94815 29.241V31.0817H4.76639V29.241C4.76639 28.8585 4.45656 28.549 4.07442 28.549C3.69229 28.549 3.38246 28.8585 3.38246 29.241V31.0817H1.38393V29.1578C1.38393 27.6374 2.62089 26.4008 4.14098 26.4008H8.57321C10.0936 26.4008 11.3306 27.6374 11.3306 29.1578V31.0817ZM17.6877 19.6359C19.1713 19.6359 20.3785 20.8428 20.3785 22.326C20.3785 23.81 19.1713 25.0169 17.6877 25.0169C16.2041 25.0169 14.9972 23.81 14.9972 22.326C14.9972 20.8428 16.2041 19.6359 17.6877 19.6359ZM22.6612 31.0817H20.6623V29.241C20.6623 28.8585 20.3528 28.549 19.9704 28.549C19.5882 28.549 19.2784 28.8585 19.2784 29.241V31.0817H16.097V29.241C16.097 28.8585 15.7872 28.549 15.405 28.549C15.0229 28.549 14.7131 28.8585 14.7131 29.241V31.0817H12.7145V29.1578C12.7145 27.6374 13.9515 26.4008 15.4716 26.4008H19.9042C21.4246 26.4008 22.6612 27.6374 22.6612 29.1578V31.0817Z" fill="#F4F4F4"/>
</svg>
