<svg width="38" height="38" viewBox="0 0 38 38" fill="none" xmlns="http://www.w3.org/2000/svg">
<path d="M17.3301 17.6895H18.4431V18.8025H17.3301V17.6895Z" fill="#F4F4F4"/>
<path d="M19.5566 17.6895H20.6697V18.8025H19.5566V17.6895Z" fill="#F4F4F4"/>
<path d="M19.5391 36.8632L19.5721 37.9758C23.3957 37.8624 27.0514 36.6168 30.144 34.3735L29.4905 33.4724C26.5796 35.584 23.1384 36.7565 19.5391 36.8632Z" fill="#F4F4F4"/>
<path d="M1.1171 18.9879C1.1171 14.6836 2.62879 10.6105 5.39995 7.37452V10.4092H6.51301V5.40039H1.50422V6.51345H4.67356C-5.82018 18.5207 2.47897 37.5197 18.4266 37.9757L18.4596 36.8631C8.73476 36.5746 1.1171 28.7228 1.1171 18.9879Z" fill="#F4F4F4"/>
<path d="M37.996 18.9879C38.1948 8.99155 29.5646 0.100398 19.5719 0L19.5391 1.11262C34.494 1.43919 42.3083 19.3484 32.6001 30.6009V27.6101H31.4871V32.6189H36.4958V31.5058H33.288C36.3322 28.0397 37.996 23.6413 37.996 18.9879Z" fill="#F4F4F4"/>
<path d="M18.459 1.11262L18.4261 0C14.6025 0.113384 10.9473 1.35905 7.85547 3.60232L8.50921 4.50323C11.4193 2.39175 14.8598 1.21925 18.459 1.11262Z" fill="#F4F4F4"/>
<path d="M22.6758 11.3821C21.2861 11.3821 19.978 11.9216 18.9995 12.8811C13.0645 7.45326 2.34218 17.9029 18.9995 26.6627L19.2533 26.5327C19.6077 26.3512 27.9355 22.023 27.9355 16.6418C27.9355 13.7416 25.576 11.3821 22.6758 11.3821ZM18.9993 25.4054C17.6273 24.6498 11.1765 20.8706 11.1765 16.6418C11.1765 14.3553 13.0366 12.4951 15.3232 12.4951C16.5904 12.4951 17.7718 13.0645 18.5646 14.0573L18.9995 14.602L19.4343 14.0573C21.8609 11.0073 26.8199 12.7449 26.8224 16.6418C26.8225 20.8657 20.3705 24.6493 18.9993 25.4054Z" fill="#F4F4F4"/>
<path d="M18.4434 4.51807H19.5564V8.02414H18.4434V4.51807Z" fill="#F4F4F4"/>
<path d="M18.4434 29.9517H19.5564V33.4577H18.4434V29.9517Z" fill="#F4F4F4"/>
<path d="M4.52344 18.6802L8.02951 18.6206L8.04844 19.7336L4.54236 19.7932L4.52344 18.6802Z" fill="#F4F4F4"/>
<path d="M29.957 18.248L33.4631 18.1884L33.482 19.3015L29.976 19.3611L29.957 18.248Z" fill="#F4F4F4"/>
<path d="M8.20898 9.33228L8.98256 8.53198L11.5034 10.9687L10.7299 11.769L8.20898 9.33228Z" fill="#F4F4F4"/>
<path d="M26.4961 27.0088L27.2696 26.2085L29.7904 28.6452L29.0169 29.4455L26.4961 27.0088Z" fill="#F4F4F4"/>
<path d="M26.4961 10.9675L29.0169 8.53086L29.7904 9.3311L27.2696 11.7678L26.4961 10.9675Z" fill="#F4F4F4"/>
<path d="M8.20898 28.6431L10.7299 26.2063L11.5034 27.0066L8.98256 29.4434L8.20898 28.6431Z" fill="#F4F4F4"/>
</svg>
