<svg width="38" height="40" viewBox="0 0 38 40" fill="none" xmlns="http://www.w3.org/2000/svg">
<mask id="path-1-outside-1_690_205" maskUnits="userSpaceOnUse" x="-0.699219" y="-0.699951" width="39" height="41" fill="black">
<rect fill="white" x="-0.699219" y="-0.699951" width="39" height="41"/>
<path d="M0.983931 22.1533L4.86271 22.677C5.1891 23.9143 5.68249 25.106 6.32009 26.2066L3.95943 29.3263C3.72412 29.6375 3.75448 30.0854 4.02774 30.3587L7.48145 33.8124C7.75471 34.1008 8.20255 34.1312 8.52135 33.8883L11.6335 31.52C12.2559 31.9451 12.6278 32.6889 13.2123 33.1975L13.4932 33.486H13.1288C12.6658 33.486 12.2863 33.8655 12.2863 34.3285V38.2832C12.2863 38.7462 12.6658 39.1257 13.1288 39.1257H26.3667C26.8298 39.1257 27.2093 38.7462 27.2093 38.2832V34.3285C27.2017 33.7137 26.6628 33.4176 26.1011 33.486C26.4578 33.0685 26.7842 32.6358 27.0879 32.188L29.3271 33.8807C29.6459 34.1236 30.0785 34.0856 30.3594 33.8048L33.8131 30.3511C34.0863 30.0778 34.1243 29.6451 33.889 29.3187L31.5207 26.2142C32.1583 25.1136 32.6517 23.9294 32.9781 22.6846L36.8569 22.1533C37.244 22.0925 37.5325 21.7585 37.5325 21.3714V16.4755C37.5325 16.0808 37.2364 15.7468 36.8569 15.7013L32.9781 15.1624C32.6441 13.9251 32.1583 12.7486 31.5207 11.6479L33.889 8.52821C34.1167 8.217 34.0863 7.76916 33.8131 7.4959L30.3518 4.02701C30.0709 3.75375 29.6383 3.72339 29.3271 3.9587L26.2073 6.31936C25.1143 5.68934 23.9302 5.19596 22.6853 4.86197L22.154 0.99838C22.1084 0.603671 21.7669 0.300049 21.3722 0.300049H16.4838C16.0967 0.300049 15.7552 0.596081 15.702 0.990789L15.1707 4.86197C13.9334 5.19596 12.7493 5.68175 11.6487 6.31936L8.53653 3.9587C8.22532 3.72339 7.77748 3.74616 7.49663 4.02701L4.02774 7.4959C3.74689 7.76916 3.72412 8.217 3.95943 8.5358L6.32009 11.6479C5.67489 12.7562 5.1891 13.9327 4.86271 15.1699L0.983931 15.7089C0.596813 15.7544 0.300781 16.0884 0.300781 16.4831V21.379C0.300781 21.7661 0.596813 22.1001 0.983931 22.1533ZM26.5413 34.3361V38.2908C26.5413 38.3819 26.4654 38.4578 26.3743 38.4578H13.1364C13.0453 38.4578 12.9694 38.3819 12.9694 38.2908V34.3361C12.9694 34.245 13.0453 34.1691 13.1364 34.1691H14.3054H25.3496H26.3743C26.4654 34.1691 26.5413 34.2374 26.5413 34.3361ZM14.442 33.4935C12.514 31.6415 10.9124 29.4326 9.90283 26.9505C9.6903 26.3736 9.13619 25.3261 9.16655 24.7037C9.13619 23.9446 9.40945 23.2008 9.97115 22.6466L11.679 20.9388L12.4381 20.1797L13.3717 19.2461C15.2618 17.523 17.5465 20.415 15.8462 22.1001L13.6602 24.2862C13.5691 24.3773 13.5387 24.5063 13.5767 24.6278C13.6146 24.7492 13.7209 24.8403 13.8499 24.8555C15.8994 25.0453 17.7591 26.9429 18.1917 28.3699C18.3511 28.7798 18.9811 28.5445 18.8217 28.127C18.427 26.7911 16.6205 24.7113 14.5786 24.3166C14.7456 24.1344 16.4687 22.4645 16.5522 22.2975C17.5086 23.6866 19.7933 23.5575 20.6131 22.0774C21.5012 23.6638 23.9302 23.6638 24.8183 22.0774C25.5849 23.4512 27.6268 23.6941 28.6819 22.5252V24.7113C28.6895 27.9524 27.4294 31.1405 25.1978 33.5011H14.442V33.4935ZM13.0529 12.7334C14.1308 11.6403 16.0891 12.4373 16.0664 13.9858V14.2211V14.2287V18.5402C14.8671 17.6672 13.44 18.0164 12.5368 19.1246V13.9858C12.5292 13.5076 12.7189 13.0674 13.0529 12.7334ZM20.985 14.9574C21.4481 12.9231 24.4387 13.1888 24.4767 15.3142V16.4528V20.8249C24.416 23.1552 21.0078 23.1552 20.9471 20.8249V15.299C20.9471 15.1851 20.9699 15.0789 20.985 14.9574ZM25.676 15.2079C26.7235 14.0997 28.7198 14.9119 28.6819 16.4603V20.8629C28.6667 21.8269 27.8849 22.6087 26.9209 22.6087C25.9493 22.6087 25.1523 21.8193 25.1523 20.8401V16.4528C25.1674 15.9821 25.342 15.5343 25.676 15.2079ZM18.5029 12.4525C19.4745 12.4525 20.2715 13.2419 20.2715 14.2135V15.3142V20.8401C20.2715 22.6694 17.7363 23.2691 16.9241 21.6295C17.2125 20.8705 17.1442 20.0051 16.7343 19.3068V14.2211C16.7192 13.2647 17.5617 12.4449 18.5029 12.4525ZM0.976341 16.4831C0.976341 16.43 1.01429 16.3844 1.07502 16.3768L5.18151 15.8076C5.31814 15.7924 5.432 15.6861 5.46236 15.5571C5.78875 14.2363 6.3125 12.9763 7.01842 11.8073C7.08674 11.6859 7.07915 11.5417 6.99565 11.4278L4.49836 8.12591C4.46041 8.08037 4.468 8.01205 4.50595 7.9741L7.96724 4.51281C8.0052 4.47485 8.07351 4.46726 8.11905 4.50522L11.4134 7.00251C11.5196 7.08601 11.6714 7.0936 11.7929 7.02528C12.9542 6.32695 14.2219 5.8032 15.5502 5.46922C15.6868 5.43886 15.7855 5.325 15.8007 5.18837L16.3624 1.09706C16.37 1.03633 16.4231 0.983199 16.4763 0.983199H21.3646C21.4253 0.983199 21.4708 1.02874 21.4784 1.08947L22.0401 5.18837C22.0553 5.325 22.1616 5.43886 22.2906 5.46922C23.6341 5.8032 24.8942 6.32695 26.0479 7.02528C26.1618 7.0936 26.3136 7.08601 26.4275 7.00251L29.7294 4.50522C29.7749 4.46726 29.8356 4.47485 29.8812 4.51281L33.3349 7.9741C33.3728 8.01205 33.3804 8.08796 33.3501 8.12591L30.8452 11.4202C30.7617 11.5265 30.7541 11.6783 30.8224 11.7997C31.5207 12.9687 32.0521 14.2287 32.3785 15.5495C32.4088 15.6861 32.5227 15.7848 32.6593 15.8L36.7658 16.3693C36.8189 16.3768 36.8569 16.4224 36.8569 16.4755V21.3714C36.8569 21.4246 36.8114 21.4777 36.7582 21.4853L32.6593 22.0394C32.5227 22.0546 32.4088 22.1608 32.3785 22.2899C32.0445 23.6258 31.5207 24.8934 30.8224 26.0548C30.7541 26.1763 30.7617 26.3205 30.8452 26.4343L33.3425 29.7286C33.3804 29.7742 33.3728 29.8425 33.3349 29.8804L29.8812 33.3341C29.8356 33.3797 29.7825 33.3797 29.7294 33.3493L27.4446 31.6187C28.5225 29.8121 29.1677 27.7779 29.3195 25.6525C29.3878 25.0377 29.3498 21.5157 29.3574 20.8249V16.4452C29.3878 14.2287 26.5261 13.1585 25.0991 14.8208C24.7272 12.8852 22.1768 12.1945 20.8864 13.6898C20.4537 11.6176 17.6148 11.0786 16.4611 12.8624C15.5958 11.0559 12.81 11.147 12.0586 12.999C11.9219 13.3027 11.8536 13.6291 11.8536 13.9706V19.7926L9.48535 22.1609C8.49858 23.14 8.22532 24.6278 8.73389 25.8878C9.41704 27.626 10.2216 29.3946 11.3147 30.9128L8.11146 33.3493C8.06592 33.3873 7.9976 33.3797 7.95965 33.3341L4.50595 29.888C4.468 29.8501 4.46041 29.7894 4.49836 29.7362L6.99565 26.4419C7.07915 26.3357 7.08674 26.1838 7.01842 26.0624C6.32009 24.8934 5.79634 23.6334 5.46236 22.2975C5.432 22.1609 5.31814 22.0622 5.18151 22.047L1.08261 21.4929C1.02947 21.4853 0.983931 21.4322 0.983931 21.379V16.4831H0.976341Z"/>
</mask>
<path d="M0.983931 22.1533L4.86271 22.677C5.1891 23.9143 5.68249 25.106 6.32009 26.2066L3.95943 29.3263C3.72412 29.6375 3.75448 30.0854 4.02774 30.3587L7.48145 33.8124C7.75471 34.1008 8.20255 34.1312 8.52135 33.8883L11.6335 31.52C12.2559 31.9451 12.6278 32.6889 13.2123 33.1975L13.4932 33.486H13.1288C12.6658 33.486 12.2863 33.8655 12.2863 34.3285V38.2832C12.2863 38.7462 12.6658 39.1257 13.1288 39.1257H26.3667C26.8298 39.1257 27.2093 38.7462 27.2093 38.2832V34.3285C27.2017 33.7137 26.6628 33.4176 26.1011 33.486C26.4578 33.0685 26.7842 32.6358 27.0879 32.188L29.3271 33.8807C29.6459 34.1236 30.0785 34.0856 30.3594 33.8048L33.8131 30.3511C34.0863 30.0778 34.1243 29.6451 33.889 29.3187L31.5207 26.2142C32.1583 25.1136 32.6517 23.9294 32.9781 22.6846L36.8569 22.1533C37.244 22.0925 37.5325 21.7585 37.5325 21.3714V16.4755C37.5325 16.0808 37.2364 15.7468 36.8569 15.7013L32.9781 15.1624C32.6441 13.9251 32.1583 12.7486 31.5207 11.6479L33.889 8.52821C34.1167 8.217 34.0863 7.76916 33.8131 7.4959L30.3518 4.02701C30.0709 3.75375 29.6383 3.72339 29.3271 3.9587L26.2073 6.31936C25.1143 5.68934 23.9302 5.19596 22.6853 4.86197L22.154 0.99838C22.1084 0.603671 21.7669 0.300049 21.3722 0.300049H16.4838C16.0967 0.300049 15.7552 0.596081 15.702 0.990789L15.1707 4.86197C13.9334 5.19596 12.7493 5.68175 11.6487 6.31936L8.53653 3.9587C8.22532 3.72339 7.77748 3.74616 7.49663 4.02701L4.02774 7.4959C3.74689 7.76916 3.72412 8.217 3.95943 8.5358L6.32009 11.6479C5.67489 12.7562 5.1891 13.9327 4.86271 15.1699L0.983931 15.7089C0.596813 15.7544 0.300781 16.0884 0.300781 16.4831V21.379C0.300781 21.7661 0.596813 22.1001 0.983931 22.1533ZM26.5413 34.3361V38.2908C26.5413 38.3819 26.4654 38.4578 26.3743 38.4578H13.1364C13.0453 38.4578 12.9694 38.3819 12.9694 38.2908V34.3361C12.9694 34.245 13.0453 34.1691 13.1364 34.1691H14.3054H25.3496H26.3743C26.4654 34.1691 26.5413 34.2374 26.5413 34.3361ZM14.442 33.4935C12.514 31.6415 10.9124 29.4326 9.90283 26.9505C9.6903 26.3736 9.13619 25.3261 9.16655 24.7037C9.13619 23.9446 9.40945 23.2008 9.97115 22.6466L11.679 20.9388L12.4381 20.1797L13.3717 19.2461C15.2618 17.523 17.5465 20.415 15.8462 22.1001L13.6602 24.2862C13.5691 24.3773 13.5387 24.5063 13.5767 24.6278C13.6146 24.7492 13.7209 24.8403 13.8499 24.8555C15.8994 25.0453 17.7591 26.9429 18.1917 28.3699C18.3511 28.7798 18.9811 28.5445 18.8217 28.127C18.427 26.7911 16.6205 24.7113 14.5786 24.3166C14.7456 24.1344 16.4687 22.4645 16.5522 22.2975C17.5086 23.6866 19.7933 23.5575 20.6131 22.0774C21.5012 23.6638 23.9302 23.6638 24.8183 22.0774C25.5849 23.4512 27.6268 23.6941 28.6819 22.5252V24.7113C28.6895 27.9524 27.4294 31.1405 25.1978 33.5011H14.442V33.4935ZM13.0529 12.7334C14.1308 11.6403 16.0891 12.4373 16.0664 13.9858V14.2211V14.2287V18.5402C14.8671 17.6672 13.44 18.0164 12.5368 19.1246V13.9858C12.5292 13.5076 12.7189 13.0674 13.0529 12.7334ZM20.985 14.9574C21.4481 12.9231 24.4387 13.1888 24.4767 15.3142V16.4528V20.8249C24.416 23.1552 21.0078 23.1552 20.9471 20.8249V15.299C20.9471 15.1851 20.9699 15.0789 20.985 14.9574ZM25.676 15.2079C26.7235 14.0997 28.7198 14.9119 28.6819 16.4603V20.8629C28.6667 21.8269 27.8849 22.6087 26.9209 22.6087C25.9493 22.6087 25.1523 21.8193 25.1523 20.8401V16.4528C25.1674 15.9821 25.342 15.5343 25.676 15.2079ZM18.5029 12.4525C19.4745 12.4525 20.2715 13.2419 20.2715 14.2135V15.3142V20.8401C20.2715 22.6694 17.7363 23.2691 16.9241 21.6295C17.2125 20.8705 17.1442 20.0051 16.7343 19.3068V14.2211C16.7192 13.2647 17.5617 12.4449 18.5029 12.4525ZM0.976341 16.4831C0.976341 16.43 1.01429 16.3844 1.07502 16.3768L5.18151 15.8076C5.31814 15.7924 5.432 15.6861 5.46236 15.5571C5.78875 14.2363 6.3125 12.9763 7.01842 11.8073C7.08674 11.6859 7.07915 11.5417 6.99565 11.4278L4.49836 8.12591C4.46041 8.08037 4.468 8.01205 4.50595 7.9741L7.96724 4.51281C8.0052 4.47485 8.07351 4.46726 8.11905 4.50522L11.4134 7.00251C11.5196 7.08601 11.6714 7.0936 11.7929 7.02528C12.9542 6.32695 14.2219 5.8032 15.5502 5.46922C15.6868 5.43886 15.7855 5.325 15.8007 5.18837L16.3624 1.09706C16.37 1.03633 16.4231 0.983199 16.4763 0.983199H21.3646C21.4253 0.983199 21.4708 1.02874 21.4784 1.08947L22.0401 5.18837C22.0553 5.325 22.1616 5.43886 22.2906 5.46922C23.6341 5.8032 24.8942 6.32695 26.0479 7.02528C26.1618 7.0936 26.3136 7.08601 26.4275 7.00251L29.7294 4.50522C29.7749 4.46726 29.8356 4.47485 29.8812 4.51281L33.3349 7.9741C33.3728 8.01205 33.3804 8.08796 33.3501 8.12591L30.8452 11.4202C30.7617 11.5265 30.7541 11.6783 30.8224 11.7997C31.5207 12.9687 32.0521 14.2287 32.3785 15.5495C32.4088 15.6861 32.5227 15.7848 32.6593 15.8L36.7658 16.3693C36.8189 16.3768 36.8569 16.4224 36.8569 16.4755V21.3714C36.8569 21.4246 36.8114 21.4777 36.7582 21.4853L32.6593 22.0394C32.5227 22.0546 32.4088 22.1608 32.3785 22.2899C32.0445 23.6258 31.5207 24.8934 30.8224 26.0548C30.7541 26.1763 30.7617 26.3205 30.8452 26.4343L33.3425 29.7286C33.3804 29.7742 33.3728 29.8425 33.3349 29.8804L29.8812 33.3341C29.8356 33.3797 29.7825 33.3797 29.7294 33.3493L27.4446 31.6187C28.5225 29.8121 29.1677 27.7779 29.3195 25.6525C29.3878 25.0377 29.3498 21.5157 29.3574 20.8249V16.4452C29.3878 14.2287 26.5261 13.1585 25.0991 14.8208C24.7272 12.8852 22.1768 12.1945 20.8864 13.6898C20.4537 11.6176 17.6148 11.0786 16.4611 12.8624C15.5958 11.0559 12.81 11.147 12.0586 12.999C11.9219 13.3027 11.8536 13.6291 11.8536 13.9706V19.7926L9.48535 22.1609C8.49858 23.14 8.22532 24.6278 8.73389 25.8878C9.41704 27.626 10.2216 29.3946 11.3147 30.9128L8.11146 33.3493C8.06592 33.3873 7.9976 33.3797 7.95965 33.3341L4.50595 29.888C4.468 29.8501 4.46041 29.7894 4.49836 29.7362L6.99565 26.4419C7.07915 26.3357 7.08674 26.1838 7.01842 26.0624C6.32009 24.8934 5.79634 23.6334 5.46236 22.2975C5.432 22.1609 5.31814 22.0622 5.18151 22.047L1.08261 21.4929C1.02947 21.4853 0.983931 21.4322 0.983931 21.379V16.4831H0.976341Z" fill="#F4F4F4"/>
<path d="M0.983931 22.1533L4.86271 22.677C5.1891 23.9143 5.68249 25.106 6.32009 26.2066L3.95943 29.3263C3.72412 29.6375 3.75448 30.0854 4.02774 30.3587L7.48145 33.8124C7.75471 34.1008 8.20255 34.1312 8.52135 33.8883L11.6335 31.52C12.2559 31.9451 12.6278 32.6889 13.2123 33.1975L13.4932 33.486H13.1288C12.6658 33.486 12.2863 33.8655 12.2863 34.3285V38.2832C12.2863 38.7462 12.6658 39.1257 13.1288 39.1257H26.3667C26.8298 39.1257 27.2093 38.7462 27.2093 38.2832V34.3285C27.2017 33.7137 26.6628 33.4176 26.1011 33.486C26.4578 33.0685 26.7842 32.6358 27.0879 32.188L29.3271 33.8807C29.6459 34.1236 30.0785 34.0856 30.3594 33.8048L33.8131 30.3511C34.0863 30.0778 34.1243 29.6451 33.889 29.3187L31.5207 26.2142C32.1583 25.1136 32.6517 23.9294 32.9781 22.6846L36.8569 22.1533C37.244 22.0925 37.5325 21.7585 37.5325 21.3714V16.4755C37.5325 16.0808 37.2364 15.7468 36.8569 15.7013L32.9781 15.1624C32.6441 13.9251 32.1583 12.7486 31.5207 11.6479L33.889 8.52821C34.1167 8.217 34.0863 7.76916 33.8131 7.4959L30.3518 4.02701C30.0709 3.75375 29.6383 3.72339 29.3271 3.9587L26.2073 6.31936C25.1143 5.68934 23.9302 5.19596 22.6853 4.86197L22.154 0.99838C22.1084 0.603671 21.7669 0.300049 21.3722 0.300049H16.4838C16.0967 0.300049 15.7552 0.596081 15.702 0.990789L15.1707 4.86197C13.9334 5.19596 12.7493 5.68175 11.6487 6.31936L8.53653 3.9587C8.22532 3.72339 7.77748 3.74616 7.49663 4.02701L4.02774 7.4959C3.74689 7.76916 3.72412 8.217 3.95943 8.5358L6.32009 11.6479C5.67489 12.7562 5.1891 13.9327 4.86271 15.1699L0.983931 15.7089C0.596813 15.7544 0.300781 16.0884 0.300781 16.4831V21.379C0.300781 21.7661 0.596813 22.1001 0.983931 22.1533ZM26.5413 34.3361V38.2908C26.5413 38.3819 26.4654 38.4578 26.3743 38.4578H13.1364C13.0453 38.4578 12.9694 38.3819 12.9694 38.2908V34.3361C12.9694 34.245 13.0453 34.1691 13.1364 34.1691H14.3054H25.3496H26.3743C26.4654 34.1691 26.5413 34.2374 26.5413 34.3361ZM14.442 33.4935C12.514 31.6415 10.9124 29.4326 9.90283 26.9505C9.6903 26.3736 9.13619 25.3261 9.16655 24.7037C9.13619 23.9446 9.40945 23.2008 9.97115 22.6466L11.679 20.9388L12.4381 20.1797L13.3717 19.2461C15.2618 17.523 17.5465 20.415 15.8462 22.1001L13.6602 24.2862C13.5691 24.3773 13.5387 24.5063 13.5767 24.6278C13.6146 24.7492 13.7209 24.8403 13.8499 24.8555C15.8994 25.0453 17.7591 26.9429 18.1917 28.3699C18.3511 28.7798 18.9811 28.5445 18.8217 28.127C18.427 26.7911 16.6205 24.7113 14.5786 24.3166C14.7456 24.1344 16.4687 22.4645 16.5522 22.2975C17.5086 23.6866 19.7933 23.5575 20.6131 22.0774C21.5012 23.6638 23.9302 23.6638 24.8183 22.0774C25.5849 23.4512 27.6268 23.6941 28.6819 22.5252V24.7113C28.6895 27.9524 27.4294 31.1405 25.1978 33.5011H14.442V33.4935ZM13.0529 12.7334C14.1308 11.6403 16.0891 12.4373 16.0664 13.9858V14.2211V14.2287V18.5402C14.8671 17.6672 13.44 18.0164 12.5368 19.1246V13.9858C12.5292 13.5076 12.7189 13.0674 13.0529 12.7334ZM20.985 14.9574C21.4481 12.9231 24.4387 13.1888 24.4767 15.3142V16.4528V20.8249C24.416 23.1552 21.0078 23.1552 20.9471 20.8249V15.299C20.9471 15.1851 20.9699 15.0789 20.985 14.9574ZM25.676 15.2079C26.7235 14.0997 28.7198 14.9119 28.6819 16.4603V20.8629C28.6667 21.8269 27.8849 22.6087 26.9209 22.6087C25.9493 22.6087 25.1523 21.8193 25.1523 20.8401V16.4528C25.1674 15.9821 25.342 15.5343 25.676 15.2079ZM18.5029 12.4525C19.4745 12.4525 20.2715 13.2419 20.2715 14.2135V15.3142V20.8401C20.2715 22.6694 17.7363 23.2691 16.9241 21.6295C17.2125 20.8705 17.1442 20.0051 16.7343 19.3068V14.2211C16.7192 13.2647 17.5617 12.4449 18.5029 12.4525ZM0.976341 16.4831C0.976341 16.43 1.01429 16.3844 1.07502 16.3768L5.18151 15.8076C5.31814 15.7924 5.432 15.6861 5.46236 15.5571C5.78875 14.2363 6.3125 12.9763 7.01842 11.8073C7.08674 11.6859 7.07915 11.5417 6.99565 11.4278L4.49836 8.12591C4.46041 8.08037 4.468 8.01205 4.50595 7.9741L7.96724 4.51281C8.0052 4.47485 8.07351 4.46726 8.11905 4.50522L11.4134 7.00251C11.5196 7.08601 11.6714 7.0936 11.7929 7.02528C12.9542 6.32695 14.2219 5.8032 15.5502 5.46922C15.6868 5.43886 15.7855 5.325 15.8007 5.18837L16.3624 1.09706C16.37 1.03633 16.4231 0.983199 16.4763 0.983199H21.3646C21.4253 0.983199 21.4708 1.02874 21.4784 1.08947L22.0401 5.18837C22.0553 5.325 22.1616 5.43886 22.2906 5.46922C23.6341 5.8032 24.8942 6.32695 26.0479 7.02528C26.1618 7.0936 26.3136 7.08601 26.4275 7.00251L29.7294 4.50522C29.7749 4.46726 29.8356 4.47485 29.8812 4.51281L33.3349 7.9741C33.3728 8.01205 33.3804 8.08796 33.3501 8.12591L30.8452 11.4202C30.7617 11.5265 30.7541 11.6783 30.8224 11.7997C31.5207 12.9687 32.0521 14.2287 32.3785 15.5495C32.4088 15.6861 32.5227 15.7848 32.6593 15.8L36.7658 16.3693C36.8189 16.3768 36.8569 16.4224 36.8569 16.4755V21.3714C36.8569 21.4246 36.8114 21.4777 36.7582 21.4853L32.6593 22.0394C32.5227 22.0546 32.4088 22.1608 32.3785 22.2899C32.0445 23.6258 31.5207 24.8934 30.8224 26.0548C30.7541 26.1763 30.7617 26.3205 30.8452 26.4343L33.3425 29.7286C33.3804 29.7742 33.3728 29.8425 33.3349 29.8804L29.8812 33.3341C29.8356 33.3797 29.7825 33.3797 29.7294 33.3493L27.4446 31.6187C28.5225 29.8121 29.1677 27.7779 29.3195 25.6525C29.3878 25.0377 29.3498 21.5157 29.3574 20.8249V16.4452C29.3878 14.2287 26.5261 13.1585 25.0991 14.8208C24.7272 12.8852 22.1768 12.1945 20.8864 13.6898C20.4537 11.6176 17.6148 11.0786 16.4611 12.8624C15.5958 11.0559 12.81 11.147 12.0586 12.999C11.9219 13.3027 11.8536 13.6291 11.8536 13.9706V19.7926L9.48535 22.1609C8.49858 23.14 8.22532 24.6278 8.73389 25.8878C9.41704 27.626 10.2216 29.3946 11.3147 30.9128L8.11146 33.3493C8.06592 33.3873 7.9976 33.3797 7.95965 33.3341L4.50595 29.888C4.468 29.8501 4.46041 29.7894 4.49836 29.7362L6.99565 26.4419C7.07915 26.3357 7.08674 26.1838 7.01842 26.0624C6.32009 24.8934 5.79634 23.6334 5.46236 22.2975C5.432 22.1609 5.31814 22.0622 5.18151 22.047L1.08261 21.4929C1.02947 21.4853 0.983931 21.4322 0.983931 21.379V16.4831H0.976341Z" stroke="white" stroke-width="0.6" mask="url(#path-1-outside-1_690_205)"/>
</svg>
