<svg width="37" height="36" viewBox="0 0 37 36" fill="none" xmlns="http://www.w3.org/2000/svg">
<path d="M28.7259 20.3506L27.5097 22.1835L26.0036 14.6519L24.8516 17.8898C25.0286 18.3961 25.3332 19.3508 25.5695 20.5017L25.7915 19.8831L26.7524 24.6857L29.2366 21.5841H36.999V20.3506H28.7259Z" fill="#292D32"/>
<path d="M13.3039 7.02315C13.7591 6.8005 14.2346 6.62041 14.7249 6.4835L14.263 0.474559C14.2383 0.152002 13.8904 -0.0761937 13.5852 0.0237189L12.9585 0.232795C12.5823 0.357994 12.3301 0.708305 12.3301 1.10425C12.3301 1.15483 12.3344 1.2054 12.3424 1.25597L13.3039 7.02315Z" fill="#292D32"/>
<path d="M14.4315 12.3329C15.7205 12.3329 16.9855 11.8894 17.9926 11.084C18.9603 10.31 20.1179 9.79313 21.3397 9.5896L21.9867 9.48167C20.694 8.18589 18.9097 7.39893 16.9621 7.39893C14.6486 7.39893 12.4759 8.53003 11.1499 10.4259C11.0055 10.6325 10.8705 10.8441 10.7422 11.0581C11.7549 11.8814 13.0112 12.3329 14.3304 12.3329H14.4315Z" fill="#292D32"/>
<path d="M4.52012 20.3502C6.4789 20.3502 8.01274 18.7898 8.01274 16.7971V16.4629C8.01274 15.1745 8.21996 13.912 8.62331 12.7137L7.31088 12.4509C6.9174 12.3726 6.51405 12.3325 6.11255 12.3325H6.03176C2.78522 12.3325 0.128899 14.9648 0 18.2496L0.390399 18.64C1.49375 19.7427 2.96037 20.3502 4.52012 20.3502Z" fill="#292D32"/>
<path d="M18.2237 6.26774L19.6712 1.92524C19.7107 1.80806 19.7304 1.68471 19.7304 1.56136C19.7304 1.17528 19.5386 0.816952 19.2173 0.602942L18.4248 0.0743926C18.1639 -0.0995292 17.7735 0.0688419 17.7223 0.379064L16.7559 6.17831C16.8249 6.17646 16.8922 6.16536 16.9612 6.16536C17.3905 6.16536 17.8105 6.20483 18.2237 6.26774Z" fill="#292D32"/>
<path d="M23.8998 4.88666C23.996 4.77133 24.0484 4.62578 24.0484 4.47591C24.0484 4.23106 23.9128 4.0115 23.6938 3.90172L23.4854 3.79749C23.0629 3.58595 22.5134 3.74014 22.263 4.14164L20.5059 6.95276C20.9012 7.1384 21.278 7.35796 21.637 7.60157L23.8998 4.88666Z" fill="#292D32"/>
<path d="M14.1803 22.8174C15.2022 22.8174 16.0305 21.989 16.0305 20.9672C16.0305 19.9453 15.2022 19.1169 14.1803 19.1169C13.1585 19.1169 12.3301 19.9453 12.3301 20.9672C12.3301 21.989 13.1585 22.8174 14.1803 22.8174Z" fill="#292D32"/>
<path d="M20.3658 18.1819L19.6097 21.5839H17.2025C16.9157 22.9894 15.6705 24.0508 14.1811 24.0508C12.4807 24.0508 11.0974 22.6675 11.0974 20.9671C11.0974 19.2667 12.4807 17.8834 14.1811 17.8834C15.6699 17.8834 16.9157 18.9448 17.2025 20.3504H18.6204L20.3313 12.6509L22.8735 23.4544L24.8532 17.8896C24.7687 17.6472 24.712 17.5022 24.7095 17.4961L24.675 17.3746L23.9491 13.2615C23.7752 12.2772 23.4002 11.3749 22.8784 10.5842L21.5432 10.8069C20.5286 10.9759 19.5677 11.4051 18.7641 12.0478C17.5387 13.0265 16.0005 13.5662 14.4321 13.5662H14.3304C12.8119 13.5662 11.3638 13.0722 10.168 12.1711C9.56663 13.5138 9.24715 14.9674 9.24715 16.463V16.7973C9.24715 19.437 7.12679 21.5839 4.52105 21.5839C2.88359 21.5839 1.33125 21.0313 0.0761719 20.0142C0.391945 22.871 1.62975 25.568 3.64218 27.7353C6.32379 30.6235 9.67518 32.9258 13.3343 34.3942L16.4236 35.6321C16.9608 35.8467 17.6127 35.8078 18.0654 35.439L18.3713 35.1892C22.0569 32.1727 24.728 27.9739 25.8992 23.3588C25.8925 22.3708 25.7525 21.3809 25.5717 20.5009L22.7582 28.3483L20.3658 18.1819Z" fill="#292D32"/>
</svg>
