<svg width="35" height="35" viewBox="0 0 35 35" fill="none" xmlns="http://www.w3.org/2000/svg">
<path d="M17.5 6.83594C19.3877 6.83594 20.918 5.30566 20.918 3.41797C20.918 1.53028 19.3877 0 17.5 0C15.6123 0 14.082 1.53028 14.082 3.41797C14.082 5.30566 15.6123 6.83594 17.5 6.83594Z" fill="black"/>
<path d="M12.7148 17.5684H16.4746C17.6073 17.5684 18.5254 16.6503 18.5254 15.5176C18.5254 14.385 17.6073 13.4669 16.4746 13.4669H14.082C13.5157 13.4669 13.0566 13.0078 13.0566 12.4415V10.9376C13.0566 10.3713 13.5157 9.91217 14.082 9.91217C14.6483 9.91217 15.1074 10.3713 15.1074 10.9376V11.4161H16.4746C18.3822 11.4161 19.9899 12.7252 20.4464 14.4922H20.918C20.918 12.2841 22.6723 10.4789 24.8602 10.3947C24.4342 8.78376 23.1893 7.50619 21.5979 7.03369C20.5951 8.16894 19.1302 8.88678 17.5 8.88678C15.87 8.88678 14.4052 8.16907 13.4025 7.03417C11.424 7.62124 9.98047 9.45218 9.98047 11.6212V14.834C9.98047 16.3442 11.2047 17.5684 12.7148 17.5684Z" fill="black"/>
<path d="M22.9688 14.4922H27.0703C27.0703 13.3595 26.1522 12.4414 25.0195 12.4414C23.8869 12.4414 22.9688 13.3595 22.9688 14.4922Z" fill="black"/>
<path d="M31.9238 30.8984H3.07617C1.37724 30.8984 0 32.2757 0 33.9746C0 34.5409 0.459102 35 1.02539 35H33.9746C34.5409 35 35 34.5409 35 33.9746C35 32.2757 33.6228 30.8984 31.9238 30.8984Z" fill="black"/>
<path d="M4.10156 28.8477C5.80049 28.8477 7.17773 27.4704 7.17773 25.7715C7.17773 24.0726 5.80049 22.6953 4.10156 22.6953C2.40264 22.6953 1.02539 24.0726 1.02539 25.7715C1.02539 27.4704 2.40264 28.8477 4.10156 28.8477Z" fill="black"/>
<path d="M12.7148 19.6191H14.7656V20.6445H12.7148V19.6191Z" fill="black"/>
<path d="M23.4492 28.8477H31.9244C33.0571 28.8477 33.9752 27.9295 33.9752 26.7969C33.9752 25.6642 33.0571 24.7461 31.9244 24.7461H25.0201C25.0201 26.3205 24.4254 27.7583 23.4492 28.8477Z" fill="black"/>
<path d="M10.2541 28.8477H18.8674C21.1326 28.8477 22.9689 27.0113 22.9689 24.7461V20.6445H29.1213C30.2539 20.6445 31.172 19.7264 31.172 18.5938C31.172 17.4611 30.2539 16.543 29.1213 16.543H20.4465C20.0176 18.2033 18.572 19.4582 16.8166 19.6038V22.6953H10.2541C9.62072 22.6953 9.03222 22.8869 8.54297 23.215C8.97821 23.9682 9.22868 24.8408 9.22868 25.7715C9.22868 26.7021 8.97821 27.5748 8.54297 28.3279C9.03222 28.656 9.62072 28.8477 10.2541 28.8477Z" fill="black"/>
</svg>
