<svg width="35" height="35" viewBox="0 0 35 35" fill="none" xmlns="http://www.w3.org/2000/svg">
<path fill-rule="evenodd" clip-rule="evenodd" d="M20.8999 11.8817C22.5826 11.8817 24.1095 12.561 25.2214 13.6599C25.2313 13.6683 25.2413 13.6745 25.2504 13.6836C25.2588 13.6928 25.2657 13.7027 25.2734 13.7119C26.3723 14.8238 27.0524 16.3507 27.0524 18.0342C27.0524 19.7169 26.3723 21.2438 25.2734 22.3557C25.2657 22.3648 25.2588 22.3755 25.2504 22.3847C25.2413 22.3931 25.2313 22.4 25.2214 22.4076C24.1393 23.4767 22.6644 24.1477 21.0352 24.1829C19.6527 25.9856 17.5115 27.0509 15.2265 27.0509C13.4842 27.0509 11.7961 26.4281 10.4733 25.2971C9.16572 24.1783 8.29072 22.6323 8.0095 20.9434C7.47151 17.7124 10.539 13.1067 13.0035 9.40568C13.7058 8.35109 14.3691 7.35535 14.8292 6.5583C14.9117 6.41616 15.063 6.32904 15.2265 6.32904C15.3901 6.32904 15.5414 6.41616 15.6239 6.5583C16.0954 7.37445 16.7733 8.38395 17.4916 9.45306C18.0663 10.309 18.6585 11.1916 19.2408 12.1109C19.7689 11.9627 20.3252 11.8817 20.8999 11.8817ZM14.7474 18.0342C14.7474 16.3507 15.4275 14.8238 16.5257 13.7119C16.5341 13.7027 16.5402 13.6928 16.5493 13.6836C16.5585 13.6745 16.5685 13.6683 16.5784 13.6599C17.0912 13.1533 17.6933 12.736 18.3582 12.4334C17.8164 11.5844 17.2662 10.7621 16.7305 9.9643C16.1841 9.1512 15.6598 8.37173 15.2265 7.67631C14.8055 8.35415 14.2973 9.11758 13.7669 9.91387C11.5171 13.2924 8.43515 17.9188 8.9143 20.7929C9.42937 23.8879 12.0842 26.1338 15.2265 26.1338C17.0132 26.1338 18.7005 25.3895 19.9019 24.1041C18.6173 23.894 17.4656 23.2849 16.5784 22.4076C16.5685 22.4 16.5585 22.3931 16.5493 22.3847C16.5402 22.3755 16.5341 22.3648 16.5257 22.3557C15.4275 21.2438 14.7474 19.7169 14.7474 18.0342ZM15.3404 24.2096C12.9454 24.2096 10.9967 22.2609 10.9967 19.8659C10.9967 19.613 10.7912 19.4074 10.5382 19.4074C10.2853 19.4074 10.0797 19.613 10.0797 19.8659C10.0797 22.7668 12.4395 25.1266 15.3404 25.1266C15.5933 25.1266 15.7989 24.9211 15.7989 24.6681C15.7989 24.4152 15.5933 24.2096 15.3404 24.2096ZM21.2514 18.0342C21.2514 17.8401 21.094 17.6826 20.8999 17.6826C20.7058 17.6826 20.5484 17.8401 20.5484 18.0342C20.5484 18.2275 20.7058 18.3857 20.8999 18.3857C21.094 18.3857 21.2514 18.2275 21.2514 18.0342ZM24.2608 14.0245C23.4607 13.3527 22.4581 12.9156 21.3584 12.8201V13.3757C21.3584 13.6286 21.1528 13.8342 20.8999 13.8342C20.6469 13.8342 20.4414 13.6286 20.4414 13.3757V12.8201C19.3417 12.9156 18.3383 13.3527 17.5382 14.0245L17.9302 14.4157C18.1091 14.5945 18.1091 14.8849 17.9302 15.0645C17.8408 15.1539 17.7231 15.1983 17.6055 15.1983C17.4885 15.1983 17.3709 15.1539 17.2814 15.0645L16.8902 14.6725C16.2185 15.4726 15.7813 16.476 15.6858 17.5757H16.2414C16.4943 17.5757 16.6999 17.7805 16.6999 18.0342C16.6999 18.2871 16.4943 18.4927 16.2414 18.4927H15.6858C15.7813 19.5924 16.2185 20.595 16.8902 21.3951L17.2814 21.0038C17.4603 20.825 17.7514 20.825 17.9302 21.0038C18.1091 21.1826 18.1091 21.473 17.9302 21.6519L17.5382 22.0439C18.3383 22.7156 19.3417 23.152 20.4414 23.2483V22.6927C20.4414 22.439 20.6469 22.2342 20.8999 22.2342C21.1528 22.2342 21.3584 22.439 21.3584 22.6927V23.2483C22.4581 23.152 23.4607 22.7156 24.2608 22.0439L23.8695 21.6519C23.6907 21.473 23.6907 21.1826 23.8695 21.0038C24.0484 20.825 24.3388 20.825 24.5176 21.0038L24.9096 21.3951C25.5813 20.595 26.0177 19.5924 26.114 18.4927H25.5584C25.3047 18.4927 25.0999 18.2871 25.0999 18.0342C25.0999 17.7805 25.3047 17.5757 25.5584 17.5757H26.114C26.0177 16.476 25.5813 15.4726 24.9096 14.6725L24.5176 15.0645C24.4282 15.1539 24.3112 15.1983 24.1936 15.1983C24.0766 15.1983 23.959 15.1539 23.8695 15.0645C23.6907 14.8849 23.6907 14.5945 23.8695 14.4157L24.2608 14.0245ZM22.1685 18.0342C22.1685 17.8523 22.1287 17.6788 22.0599 17.5222L22.7187 16.8634C22.8983 16.6846 22.8983 16.3942 22.7187 16.2146C22.5399 16.0358 22.2495 16.0358 22.0706 16.2146L21.4111 16.8741C21.2545 16.8046 21.0818 16.7656 20.8999 16.7656C20.2007 16.7656 19.6313 17.3342 19.6313 18.0342C19.6313 18.7334 20.2007 19.3027 20.8999 19.3027C21.5991 19.3027 22.1685 18.7334 22.1685 18.0342ZM0 15.3488V19.6512C0 20.2373 0.476856 20.7142 1.06376 20.7142H3.24705C4.08919 20.7142 4.81976 21.2254 5.10786 22.0164C5.23701 22.371 5.38373 22.724 5.54345 23.0664C5.89956 23.8298 5.74443 24.7086 5.14913 25.3039L3.60469 26.8484C3.18974 27.2633 3.18974 27.9381 3.60469 28.3531L6.64694 31.3953C6.8464 31.5955 7.11386 31.7056 7.39891 31.7056C7.68319 31.7056 7.95066 31.5955 8.15087 31.3953L9.69531 29.8509C10.0782 29.468 10.5779 29.267 11.0892 29.267C11.3727 29.267 11.66 29.3289 11.9329 29.4565C12.2752 29.6155 12.6283 29.7622 12.9829 29.8914C13.7738 30.1802 14.285 30.9108 14.285 31.7522V33.9362C14.285 34.5224 14.7619 35 15.3488 35H19.6512C20.2373 35 20.715 34.5224 20.715 33.9362V31.7522C20.715 30.9108 21.2254 30.1802 22.0164 29.8914C22.3717 29.7622 22.7248 29.6155 23.0664 29.4565C23.8306 29.0997 24.7086 29.2548 25.3047 29.8509L26.8491 31.3953C27.0493 31.5955 27.316 31.7056 27.6011 31.7056C27.8861 31.7056 28.1528 31.5955 28.3531 31.3953L31.3938 28.3531C31.8087 27.9381 31.8087 27.2633 31.3938 26.8484L29.8509 25.3039C29.2548 24.7086 29.1004 23.8298 29.4566 23.0664C29.6163 22.7233 29.763 22.3702 29.8921 22.0164C30.1802 21.2254 30.91 20.7142 31.7522 20.7142H33.937C34.5209 20.7142 35.0015 20.2373 35.0015 19.6512V15.3488C35.0015 14.7619 34.5209 14.285 33.937 14.285H31.7522C30.9093 14.285 30.1802 13.7738 29.8921 12.9829C29.7622 12.6283 29.6163 12.2752 29.4566 11.9329C29.1004 11.1694 29.2548 10.2906 29.8509 9.69531L31.3938 8.15087C31.5963 7.95065 31.7056 7.68319 31.7056 7.39891C31.7056 7.11386 31.5963 6.8464 31.3938 6.64618L28.3531 3.60393C27.9381 3.18974 27.2633 3.18974 26.8491 3.60393L25.3047 5.14836C24.7086 5.74443 23.8298 5.89956 23.0664 5.54269C22.7248 5.38373 22.371 5.23701 22.0164 5.10786C21.2254 4.81899 20.715 4.08843 20.715 3.24705V1.06299C20.715 0.476856 20.2373 0 19.6512 0H15.3488C14.7619 0 14.285 0.476856 14.285 1.06299V3.24705C14.285 4.08919 13.7738 4.81899 12.9829 5.10786C12.6283 5.23701 12.2752 5.38373 11.9329 5.54345C11.1694 5.89956 10.2914 5.74443 9.69531 5.14836L8.15087 3.60393C7.73592 3.18974 7.06114 3.18974 6.64694 3.60393L3.60469 6.64618C3.40448 6.8464 3.29367 7.11386 3.29367 7.39891C3.29367 7.68319 3.40448 7.95065 3.60469 8.15087L5.14913 9.69531C5.74443 10.2906 5.89956 11.1694 5.54345 11.9329C5.38373 12.2752 5.23701 12.6283 5.10786 12.9829C4.81976 13.7738 4.08919 14.285 3.24705 14.285H1.06376C0.476856 14.285 0 14.7619 0 15.3488Z" fill="black"/>
</svg>
