<svg width="37" height="30" viewBox="0 0 37 30" fill="none" xmlns="http://www.w3.org/2000/svg">
<path d="M8.45964 7.12757C8.94343 6.32957 10.1987 6.32957 10.6825 7.12757L12.3562 9.90012L12.9184 10.8333L13.4676 9.94074C13.4937 9.87313 13.546 9.80544 13.5983 9.73783C13.8598 9.41325 14.2521 9.23742 14.6574 9.2645H22.2543C22.895 6.78945 22.2804 4.05742 20.4368 2.12339C19.1293 0.77092 17.3902 0.0270759 15.5335 0.0270759C15.5335 0.0270759 15.5204 0.0270759 15.5073 0.0270759C13.9514 0.0270759 12.4738 0.554561 11.2578 1.5283C10.0418 0.541023 8.55118 0 6.98211 0C5.11233 0 3.34718 0.77092 2.02654 2.16401C0.209035 4.0845 -0.392385 6.81652 0.2483 9.2645H7.16519L8.45964 7.12757Z" fill="black"/>
<path d="M30.8327 5C27.6224 5 25.0124 7.57166 25.0124 10.7191C25.0124 13.4315 26.9438 15.7088 29.5277 16.2846C29.5276 16.2846 29.5278 16.2846 29.5277 16.2846L29.528 19.4834C29.528 23.8715 25.8858 27.4411 21.4101 27.4411H20.7843C16.6004 27.4411 13.1477 24.3214 12.7149 20.3301C12.8263 20.2522 12.9342 20.1681 13.0326 20.0717L20.5623 12.5359C20.732 12.3567 20.9016 12.1777 21.0582 11.9985H15.4337L14.1418 14.02C13.9069 14.391 13.4893 14.6213 13.0326 14.6213C12.5888 14.6213 12.1582 14.391 11.9233 14.02L10.2529 11.3971L9.69177 10.5143L9.13063 11.3971C8.90873 11.7426 8.55643 11.9473 8.16487 11.9857C8.1127 11.9985 8.06053 11.9985 8.00828 11.9985H1.66602C1.82261 12.1904 1.99226 12.3695 2.16192 12.5359L9.69177 20.0717C9.81706 20.1945 9.95717 20.2987 10.1045 20.3912C10.5764 25.7657 15.1823 30 20.7843 30H21.4101C27.3259 30 32.138 25.2821 32.138 19.4834V16.2845C34.7349 15.7086 36.666 13.4314 36.666 10.7191C36.666 7.57166 34.056 5 30.8327 5ZM30.8588 11.9985C30.141 11.9985 29.5538 11.4228 29.5538 10.7191C29.5538 10.0154 30.128 9.43966 30.8457 9.43966H30.8588C31.5896 9.43966 32.1638 10.0154 32.1638 10.7191C32.1638 11.4228 31.5896 11.9985 30.8588 11.9985Z" fill="black"/>
</svg>
