<svg width="35" height="35" viewBox="0 0 35 35" fill="none" xmlns="http://www.w3.org/2000/svg">
<path fill-rule="evenodd" clip-rule="evenodd" d="M24.3459 3.0353C24.4674 3.09338 24.5583 3.20189 24.5927 3.33257C24.6271 3.46324 24.6019 3.60232 24.5239 3.71313L24.1991 4.17393L27.7541 4.49106L26.2532 1.25478L25.9285 1.7171C25.797 1.90203 25.554 1.96469 25.3508 1.86535L25.1788 1.78129C22.7755 0.605227 20.1918 0.00917002 17.4989 0.00917002C14.7027 0.00917002 11.9379 0.68088 9.47196 1.95476C9.71191 2.38958 9.89607 2.86107 10.0122 3.35702C12.3063 2.14122 14.8808 1.50084 17.4989 1.50084C19.8923 1.50008 22.1985 2.01666 24.3459 3.0353ZM20.2545 21.3816C20.2545 20.4898 19.6775 19.7325 18.8155 19.4964L16.0003 18.7246C15.3294 19.1862 14.5147 19.4567 13.6382 19.4567C12.761 19.4567 11.9471 19.1862 11.2762 18.7246L8.45789 19.4964C7.59972 19.7325 7.02201 20.4898 7.02201 21.3816V25.9224C9.73789 28.5458 13.4334 31.0622 17.4981 31.0622C18.4357 31.0622 19.3566 30.9774 20.2537 30.8123V21.3816H20.2545ZM24.6424 12.829C23.7063 12.829 22.9413 13.5909 22.9413 14.5277V14.5896C22.9413 15.5258 23.7063 16.2876 24.6424 16.2876H26.7836C27.0365 16.2876 27.2421 16.4932 27.2421 16.7461V18.8897C27.2421 19.8258 28.0032 20.5876 28.9401 20.5876H29.0028C29.9389 20.5876 30.7038 19.8258 30.7038 18.8897V16.7461C30.7038 16.4932 30.9063 16.2876 31.1593 16.2876H33.3035C34.2396 16.2876 35.0015 15.5258 35.0015 14.5896V14.5277C35.0015 13.5909 34.2404 12.829 33.3035 12.829H31.1593C30.9063 12.829 30.7038 12.6242 30.7038 12.3705V10.2277C30.7038 9.29084 29.9389 8.52973 29.0028 8.52973H28.9401C28.004 8.52973 27.2421 9.29161 27.2421 10.2277V12.3705C27.2421 12.6242 27.0358 12.829 26.7836 12.829H24.6424ZM13.6382 11.9823C11.831 11.9823 10.3584 13.4525 10.3584 15.2606C10.3584 17.0679 11.8317 18.5389 13.6382 18.5389C15.4455 18.5389 16.915 17.0679 16.915 15.2606C16.915 13.4533 15.4455 11.9823 13.6382 11.9823ZM3.35549 10.0092C2.13511 12.307 1.49243 14.8838 1.49243 17.5042C1.49243 21.779 3.1591 25.7986 6.17989 28.8209C9.20373 31.844 13.2233 33.5083 17.4989 33.5083C20.7008 33.5083 23.7964 32.5615 26.4489 30.7711C29.1013 28.9821 31.1363 26.4703 32.3376 23.5068L32.6188 22.8152L34.0012 23.3754L33.72 24.0669C31.0301 30.7084 24.6638 35 17.4981 35C7.84885 35 0 27.1519 0 17.505C0 14.7066 0.674003 11.9387 1.95018 9.47043C2.38805 9.71038 2.85954 9.89225 3.35549 10.0092ZM7.01284 2.76249C6.7385 2.48816 6.37017 2.33685 5.97967 2.33685C5.58612 2.33685 5.21855 2.48892 4.94651 2.76402C4.85939 2.84961 4.74018 2.89852 4.61868 2.89852C4.50023 2.89852 4.38178 2.85037 4.29696 2.76402C4.00963 2.47899 3.63518 2.33608 3.26074 2.33608C2.88629 2.33608 2.5149 2.47822 2.23063 2.76249C1.9433 3.0483 1.80957 3.34785 1.81568 3.67798C1.83784 4.71878 3.19807 5.96745 4.19379 6.87911C4.34052 7.01437 4.48418 7.14657 4.61791 7.27189C4.76463 7.13358 4.92053 6.98762 5.08635 6.83784C6.06297 5.93841 7.40486 4.70656 7.42702 3.67874C7.43466 3.34938 7.29711 3.04906 7.01284 2.76249ZM9.24117 4.6202C9.24117 7.16797 7.16873 9.24041 4.6225 9.24041C2.07626 9.24041 0.000764193 7.16797 0.000764193 4.6202C0.000764193 2.07244 2.07626 0 4.6225 0C7.16873 0 9.24117 2.07321 9.24117 4.6202ZM1.58337 2.11447C2.40715 1.28916 3.69326 1.19899 4.6202 1.84396C5.01681 1.56885 5.48449 1.4206 5.97738 1.41984H5.98044C6.617 1.41984 7.21305 1.66667 7.65933 2.11371C8.12777 2.57986 8.35549 3.11325 8.3425 3.69784C8.31423 5.11615 6.86917 6.44506 5.70533 7.51261C5.42106 7.77472 5.15284 8.02231 4.95033 8.23093C4.86627 8.32034 4.74782 8.37078 4.6225 8.37154C4.6225 8.37154 4.6225 8.37154 4.61944 8.37154C4.49794 8.37154 4.37949 8.32187 4.29467 8.23475C4.09827 8.0353 3.84227 7.80147 3.57405 7.55464C2.39722 6.47409 0.930766 5.12915 0.899435 3.69708C0.887208 3.11249 1.11799 2.57909 1.58337 2.11447Z" fill="black"/>
</svg>
