<svg width="35" height="35" viewBox="0 0 35 35" fill="none" xmlns="http://www.w3.org/2000/svg">
<path d="M13.7449 23.1152V30.1742C13.7449 30.3961 13.5643 30.5775 13.3417 30.5775H11.6263C10.5832 30.5775 9.7355 29.7298 9.7355 28.6882V24.6014C9.7355 23.5583 10.5832 22.7098 11.6263 22.7098H13.3417C13.5643 22.7097 13.7449 22.8918 13.7449 23.1152ZM34.9317 21.8259V34.0709C34.9317 34.5449 34.5461 34.9297 34.0729 34.9297H23.533C23.0589 34.9297 22.6742 34.5449 22.6742 34.0709V21.8259C22.6742 21.3534 23.0589 20.9694 23.533 20.9694H34.0729C34.5461 20.9693 34.9317 21.3534 34.9317 21.8259ZM24.7426 27.7815H32.8624V23.0364H24.7426V27.7815ZM25.6619 31.998C25.6619 31.7135 25.4312 31.482 25.1458 31.482H24.2266C23.9413 31.482 23.7106 31.7134 23.7106 31.998C23.7106 32.2833 23.9413 32.5147 24.2266 32.5147H25.1458C25.4312 32.5147 25.6619 32.2833 25.6619 31.998ZM29.6595 31.998C29.6595 31.5269 29.2747 31.1436 28.8028 31.1436C28.3303 31.1436 27.9455 31.5269 27.9455 31.998C27.9455 32.4705 28.3303 32.8553 28.8028 32.8553C29.2747 32.8553 29.6595 32.4705 29.6595 31.998ZM33.8952 31.998C33.8952 31.7135 33.6637 31.482 33.3785 31.482H32.4593C32.174 31.482 31.9433 31.7134 31.9433 31.998C31.9433 32.2833 32.174 32.5147 32.4593 32.5147H33.3785C33.6637 32.5147 33.8952 32.2833 33.8952 31.998ZM8.70273 28.6882V24.6014C8.70273 23.8811 8.96516 23.2199 9.39938 22.7098H2.77447C2.55107 22.7098 2.36903 22.8918 2.36903 23.1152V30.1742C2.36903 30.3924 2.55483 30.5775 2.77447 30.5775H9.39863C8.96516 30.0681 8.70273 29.4083 8.70273 28.6882ZM4.3645 34.9297H11.7494V31.6095H4.3645V34.9297ZM25.3383 19.9373H27.4487V17.8916H25.3383V19.9373ZM25.8771 8.7811V16.8589H26.9092V8.7811C26.9092 6.46495 25.0265 4.58076 22.7118 4.58076C20.3956 4.58076 18.5114 6.46495 18.5114 8.7811V24.2711C18.5114 25.4793 17.5281 26.4627 16.3191 26.4627H14.7769V27.4955H16.3191C18.0971 27.4955 19.5434 26.0492 19.5434 24.2712V8.7811C19.5434 7.03404 20.9647 5.61278 22.7118 5.61278C24.4573 5.61278 25.8771 7.03404 25.8771 8.7811ZM13.394 4.22543C12.9259 4.22543 12.5455 4.60503 12.5455 5.07172V8.74132C12.5455 9.0259 12.3148 9.25736 12.0295 9.25736C11.7442 9.25736 11.5135 9.0259 11.5135 8.74132V2.88374C11.5135 2.41637 11.1338 2.03526 10.6672 2.03526C10.1991 2.03526 9.81876 2.41637 9.81876 2.88374V8.74125C9.81876 9.02583 9.5873 9.25729 9.30272 9.25729C9.01746 9.25729 8.78599 9.02583 8.78599 8.74125V0.846289C8.78599 0.379668 8.40707 0 7.93977 0C7.4724 0 7.09204 0.3796 7.09204 0.846289V8.74125C7.09204 9.02583 6.86058 9.25729 6.57607 9.25729C6.29073 9.25729 6.05927 9.02583 6.05927 8.74125V3.72634C6.05927 3.25821 5.6796 2.87786 5.21305 2.87786C4.74568 2.87786 4.36457 3.25821 4.36457 3.72634V12.9069C5.7239 13.0573 7.42824 13.7318 8.26195 14.8295C8.43442 15.0566 8.39019 15.3801 8.16317 15.5526C8.06958 15.6234 7.96041 15.6573 7.85131 15.6573C7.69579 15.6573 7.54171 15.5872 7.43999 15.4538C6.7456 14.5404 5.06635 13.9404 3.90827 13.9087C3.90164 13.908 3.8957 13.9072 3.88982 13.9072C3.6576 13.9257 3.4394 13.7856 3.36126 13.563L1.48958 8.2075C1.33331 7.76077 0.999378 7.59712 0.73763 7.63253C0.423587 7.67525 0.0690066 8.02177 0.0130203 8.86505C-0.0990207 10.5487 0.537132 13.3455 0.958089 15.1966C1.09741 15.8091 1.20945 16.3023 1.27507 16.6613C1.84635 17.6904 2.71034 18.4276 4.06304 19.0453C4.24658 19.1293 4.36457 19.3128 4.36457 19.5148V21.6776H11.7494V19.5148C11.7494 19.2981 11.8851 19.1042 12.0885 19.0297C13.2385 18.6103 13.9432 17.6387 14.2425 16.059V5.07172C14.2425 4.60503 13.8621 4.22543 13.394 4.22543Z" fill="black"/>
</svg>
