<svg width="33" height="35" viewBox="0 0 33 35" fill="none" xmlns="http://www.w3.org/2000/svg">
<path d="M4.53759 10.5806C2.33946 11.1319 0.621974 12.9271 0.19792 15.21C0.0707043 15.9098 0 16.6165 0 17.3162C0 19.7334 0.76334 22.1153 2.20517 24.1014C2.9261 25.0909 3.84491 25.9107 4.88391 26.5044C5.49173 26.8508 6.13489 27.1193 6.80634 27.3031C4.89098 24.5113 3.39963 21.041 3.08865 16.8427C2.89784 14.3124 3.63288 12.185 4.53759 10.5806Z" fill="black"/>
<path d="M24.5808 9.09632C25.6197 8.71467 26.8425 8.91962 27.7755 9.63348L28.9275 10.517C29.9241 10.7714 31.1609 10.8986 32.5321 10.6583L32.0727 8.40368L31.684 8.33298C30.5884 8.12803 29.5778 7.64742 28.6377 7.06077C27.21 6.17729 25.4996 6.30451 24.5596 6.47413C24.6444 6.79219 24.4747 7.14558 24.1567 7.28695C22.9128 7.83119 21.7748 8.46727 20.7853 9.17405C19.0184 10.418 18.2339 12.6585 18.8205 14.7577C19.2516 16.2843 19.6969 18.3128 19.8524 20.5179C20.8278 19.9172 22.3473 19.2246 23.9305 19.4083C25.2098 19.5567 26.2983 20.2353 27.1535 21.4226C27.3867 21.7407 27.316 22.186 26.998 22.4122C26.8708 22.504 26.7294 22.5465 26.581 22.5465C26.3619 22.5465 26.1498 22.4404 26.0085 22.2496C25.3865 21.3873 24.6514 20.9137 23.775 20.8148C22.1636 20.624 20.5026 21.7407 19.9089 22.1931C19.8948 25.2534 19.2163 28.4763 17.0888 31.0279C16.9475 31.1975 16.7496 31.2823 16.5446 31.2823C16.382 31.2823 16.2266 31.2257 16.0923 31.1197C15.7954 30.8653 15.753 30.42 16.0004 30.1232C19.2516 26.2217 18.7074 20.4119 17.8239 16.56C16.9263 19.1114 15.1735 22.8504 12.0141 25.423C11.8798 25.5291 11.7244 25.5785 11.5688 25.5785C11.3639 25.5785 11.1589 25.4937 11.0176 25.317C10.7702 25.0202 10.8197 24.5749 11.1236 24.3275C12.1413 23.4935 13.0036 22.5182 13.7316 21.5004C11.9081 18.9701 9.19406 19.9172 9.08099 19.9596C8.71345 20.0939 8.3035 19.903 8.16921 19.5426C8.03492 19.1751 8.21869 18.7722 8.57916 18.6308C9.84429 18.1573 12.5866 17.9594 14.5444 20.2494C16.4103 17.1325 17.1242 13.9873 17.2231 13.5349C17.1666 11.3792 18.1632 9.28716 19.9655 8.01492C21.0327 7.25869 22.2554 6.58016 23.5913 5.98645C23.9447 5.83098 24.3617 5.99352 24.5242 6.35399V6.36106C26.2417 5.67546 28.2985 5.07471 30.7581 4.70014L30.4683 2.2405L25.1745 3.49152L25.443 0.183771H22.4463C22.4463 0.183771 22.8421 2.8978 20.9761 4.33259C19.1527 5.1666 17.6401 6.18437 16.5446 7.0537C16.4739 4.1276 19.1739 0.636124 19.1739 0.636124L16.1912 0C13.1662 2.52323 12.4947 6.43173 12.4947 6.43173C10.9963 2.38186 7.55431 1.24395 7.55431 1.24395L5.49051 3.30067C5.49051 3.30067 8.11973 5.15245 8.19043 8.27647C8.19043 8.27647 4.11227 11.5701 4.49396 16.7367C5.41985 29.2468 17.8592 35 17.8592 35C17.8592 35 25.7823 31.6428 28.666 23.8611C30.6309 18.5673 29.1183 13.959 27.9451 11.5488L26.9132 10.7502C26.3619 10.3332 25.6621 10.206 25.0755 10.4251C23.1814 11.1248 22.934 13.2734 22.9269 13.2946C22.8916 13.6551 22.5876 13.9237 22.2272 13.9237C22.206 13.9237 22.1777 13.9237 22.1494 13.9166C21.7607 13.8813 21.4851 13.5279 21.5275 13.1391C21.5345 13.019 21.8809 10.0999 24.5808 9.09632Z" fill="black"/>
</svg>
