<svg width="73" height="63" viewBox="0 0 73 63" fill="none" xmlns="http://www.w3.org/2000/svg">
<path fill-rule="evenodd" clip-rule="evenodd" d="M36.8535 10.582H29.6959V3.10999L36.8535 10.582ZM49.7288 20.9954C55.7863 27.0535 55.7861 36.9076 49.7288 42.9657C43.6721 49.0232 33.815 49.0232 27.7581 42.9657C21.7016 36.9085 21.7018 27.0528 27.7581 20.9954C33.8138 14.9387 43.6729 14.9391 49.7288 20.9954ZM38.7439 18.6834C31.3943 18.6834 25.4479 24.6319 25.4479 31.9811C25.4479 39.3293 31.3957 45.2773 38.7439 45.2773C46.0922 45.2773 52.0408 39.3297 52.0408 31.9811C52.0408 24.6318 46.0934 18.6834 38.7439 18.6834ZM67.5154 18.905C69.2964 18.905 70.7429 20.3561 70.7429 22.1363C70.7429 23.916 69.2956 25.3661 67.5154 25.3661C65.7338 25.3661 64.2834 23.9182 64.2834 22.1363C64.2834 20.3539 65.733 18.905 67.5154 18.905ZM64.2834 8.17957C64.2834 6.39716 65.733 4.94827 67.5154 4.94827C69.2964 4.94827 70.7429 6.39937 70.7429 8.17957C70.7429 9.95925 69.2956 11.4093 67.5154 11.4093C65.7338 11.4093 64.2834 9.96146 64.2834 8.17957ZM67.5154 32.8618C69.2964 32.8618 70.7429 34.3129 70.7429 36.0931C70.7429 37.8726 69.2954 39.3227 67.5154 39.3227C65.734 39.3227 64.2834 37.8748 64.2834 36.0931C64.2834 34.3105 65.733 32.8618 67.5154 32.8618ZM62.4095 60.7351C62.5444 60.8741 62.7761 60.8739 62.912 60.7353L67.5 56.1474C67.6384 56.0091 67.637 55.7771 67.4938 55.6422L58.9745 47.1229C58.8369 46.9841 58.6067 46.9851 58.4674 47.1328L53.7993 51.7989V52.1254L62.4095 60.7351Z" fill="#F2F2F2"/>
<path fill-rule="evenodd" clip-rule="evenodd" d="M25.5273 47.8204C25.5273 48.4276 25.035 48.9209 24.4271 48.9209H8.19612C7.58904 48.9209 7.09489 48.4276 7.09489 47.8204C7.09489 47.2114 7.58887 46.7195 8.19612 46.7195H24.4271C25.0352 46.7193 25.5273 47.2114 25.5273 47.8204ZM7.09489 39.5644C7.09489 38.9568 7.58887 38.4639 8.19612 38.4639H17.9881C18.5962 38.4639 19.0885 38.9568 19.0885 39.5644C19.0885 40.172 18.5962 40.665 17.9881 40.665H8.19612C7.58887 40.665 7.09489 40.172 7.09489 39.5644ZM7.09489 31.3087C7.09489 30.7011 7.58887 30.208 8.19612 30.208H16.8331C17.441 30.208 17.9333 30.7009 17.9333 31.3087C17.9333 31.9177 17.441 32.4092 16.8331 32.4092H8.19612C7.58887 32.4091 7.09489 31.9175 7.09489 31.3087ZM7.09489 23.0545C7.09489 22.4455 7.58887 21.9539 8.19612 21.9539H18.042C18.6518 21.9539 19.1432 22.4455 19.1432 23.0545C19.1432 23.6621 18.6518 24.155 18.042 24.155H8.19612C7.58887 24.155 7.09489 23.6621 7.09489 23.0545ZM49.5072 42.7578C55.4504 36.8145 55.4504 27.1456 49.5072 21.2024C43.5655 15.2597 33.8925 15.2614 27.9515 21.2024C22.01 27.1456 22.01 36.8145 27.9515 42.7578C33.8947 48.7005 43.5656 48.7005 49.5072 42.7578ZM55.2975 47.5897L54.3395 48.548L50.5755 44.7824L51.5318 43.8258L55.2975 47.5897ZM58.7124 47.3138C58.7371 47.3138 58.7487 47.3255 58.7531 47.3301L67.2786 55.8555C67.3008 55.8763 67.3008 55.9173 67.2786 55.9395L62.6884 60.5294C62.6681 60.5502 62.6257 60.5515 62.6053 60.5294L54.0789 52.0035V51.92L58.6708 47.3301C58.6734 47.3257 58.6858 47.3138 58.7124 47.3138ZM36.0899 55.9335C36.925 55.9335 37.6294 55.0266 37.6294 53.954V49.38C33.5367 49.1231 29.5174 47.4357 26.396 44.3143C19.5946 37.5129 19.5946 26.4473 26.396 19.6472C29.5174 16.5258 33.5367 14.8384 37.6294 14.5816V12.4891H28.8749C28.267 12.4891 27.7747 11.9975 27.7747 11.3886V2.20093H3.74095C2.90766 2.20093 2.20144 3.10781 2.20144 4.18042V53.954C2.20144 55.0266 2.90766 55.9335 3.74095 55.9335H36.0899ZM29.9753 3.84009L36.1519 10.288H29.9753V3.84009ZM67.5013 33.1548C69.1185 33.1548 70.4353 34.4725 70.4353 36.0926C70.4353 37.711 69.1185 39.0287 67.5013 39.0287C65.8805 39.0287 64.5628 37.711 64.5628 36.0926C64.5628 34.4724 65.8803 33.1548 67.5013 33.1548ZM67.5013 5.24128C69.1185 5.24128 70.4353 6.55901 70.4353 8.17909C70.4353 9.79781 69.1185 11.1154 67.5013 11.1154C65.8805 11.1154 64.5628 9.79764 64.5628 8.17909C64.5628 6.55901 65.8803 5.24128 67.5013 5.24128ZM67.5013 19.198C69.1185 19.198 70.4353 20.5158 70.4353 22.1359C70.4353 23.7546 69.1185 25.0723 67.5013 25.0723C65.8805 25.0723 64.5628 23.7546 64.5628 22.1359C64.5628 20.5158 65.8803 19.198 67.5013 19.198ZM67.5013 27.2732C70.3381 27.2732 72.6359 24.9679 72.6359 22.1359C72.6359 19.3023 70.3382 16.9969 67.5013 16.9969C65.0568 16.9969 63.0074 18.7124 62.4886 21.0016L52.2273 20.9312C50.7828 19.1711 49.0307 17.7265 47.0697 16.6595L54.3492 9.27981H62.4814C62.986 11.5852 65.0435 13.3168 67.5011 13.3168C70.3379 13.3168 72.6357 11.0115 72.6357 8.17926C72.6357 5.3457 70.3381 3.04035 67.5011 3.04035C65.0435 3.04035 62.986 4.772 62.4814 7.07871H53.8888C53.5936 7.07871 53.3117 7.19607 53.1049 7.40593L44.9433 15.6821C43.2943 15.057 41.5691 14.6904 39.8308 14.5816V11.3886C39.8308 11.1051 39.7203 10.8324 39.5251 10.6285L29.6704 0.338971C29.4619 0.121791 29.1745 0 28.8751 0H3.74095C1.67919 0 0 1.87524 0 4.18059V53.9542C0 56.2592 1.67919 58.1348 3.74095 58.1348H36.0899C38.1535 58.1348 39.8308 56.2592 39.8308 53.9542V49.3801C43.0149 49.1807 46.1532 48.1138 48.8592 46.1814L52.7831 50.1036L52.5225 50.3647C51.6405 51.247 51.6407 52.6777 52.5225 53.5607L61.048 62.0865C61.9307 62.9674 63.3641 62.9662 64.2454 62.0865L68.8357 57.4947C69.7194 56.6144 69.7194 55.1808 68.8357 54.2986L60.3101 45.7731C59.4286 44.8919 57.9953 44.8921 57.1136 45.7731L56.8537 46.0327L52.9298 42.1103C54.0186 40.5854 54.8333 38.9229 55.3716 37.193H62.4813C62.9858 39.4983 65.0433 41.2295 67.5009 41.2295C70.3377 41.2295 72.6356 38.9245 72.6356 36.0923C72.6356 33.2587 70.3379 30.9534 67.5009 30.9534C65.0433 30.9534 62.9858 32.6847 62.4813 34.9917H55.9027C56.6034 30.9725 55.8911 26.7549 53.7694 23.1422L62.4743 23.2023C62.9659 25.5256 65.0321 27.2732 67.5013 27.2732ZM46.4864 28.026L37.1293 38.6134C36.6823 39.1188 35.8974 39.1067 35.4651 38.5976L30.8617 33.1708C30.4684 32.7072 30.5258 32.0132 30.989 31.6201C31.4521 31.2266 32.1476 31.2838 32.5409 31.7475L36.3207 36.2042L44.8374 26.5675C45.2396 26.1126 45.935 26.0688 46.3902 26.4723C46.8462 26.8743 46.8886 27.5696 46.4864 28.026ZM7.09489 14.7986C7.09489 14.191 7.58887 13.698 8.19612 13.698H24.4271C25.035 13.698 25.5273 14.191 25.5273 14.7986C25.5273 15.4062 25.035 15.8991 24.4271 15.8991H8.19612C7.58887 15.8991 7.09489 15.4062 7.09489 14.7986ZM46.7833 40.0339C42.3341 44.4838 35.1264 44.4838 30.6769 40.0339C26.2273 35.584 26.2272 28.3777 30.6769 23.9275C35.1283 19.4757 42.3322 19.476 46.7833 23.9275C51.2329 28.3774 51.233 35.5843 46.7833 40.0339ZM38.7298 18.3896C46.241 18.3896 52.3201 24.469 52.3201 31.9808C52.3201 39.4919 46.2396 45.5705 38.7298 45.5705C31.2196 45.5705 25.1403 39.4912 25.1403 31.9808C25.1403 24.4696 31.2181 18.3896 38.7298 18.3896Z" fill="#1D1C1A"/>
</svg>
