<svg width="70" height="70" viewBox="0 0 70 70" fill="none" xmlns="http://www.w3.org/2000/svg">
<path fill-rule="evenodd" clip-rule="evenodd" d="M57.4236 58.5994C60.6504 58.5994 63.2782 55.9686 63.2782 52.745C63.2782 49.5213 60.6504 46.8905 57.4236 46.8905C54.2001 46.8905 51.5723 49.5213 51.5723 52.745C51.5723 55.9686 54.2001 58.5994 57.4236 58.5994Z" fill="#F2F2F2"/>
<path fill-rule="evenodd" clip-rule="evenodd" d="M35.0017 12.7778C38.2285 12.7778 40.8562 10.147 40.8562 6.9233C40.8562 3.69963 38.2285 1.06885 35.0017 1.06885C31.7781 1.06885 29.1504 3.69963 29.1504 6.9233C29.1504 10.147 31.7781 12.7778 35.0017 12.7778Z" fill="#F2F2F2"/>
<path fill-rule="evenodd" clip-rule="evenodd" d="M12.5781 58.5994C15.8047 58.5994 18.4325 55.9686 18.4325 52.745C18.4325 49.5213 15.8047 46.8905 12.5781 46.8905C9.35438 46.8905 6.72656 49.5213 6.72656 52.745C6.72656 55.9686 9.35438 58.5994 12.5781 58.5994Z" fill="#F2F2F2"/>
<path fill-rule="evenodd" clip-rule="evenodd" d="M28.2852 47.5846V38.2217C28.2852 37.331 28.639 36.4769 29.2687 35.8472C29.8985 35.2173 30.7527 34.8635 31.6433 34.8635H38.3597C39.2503 34.8635 40.1044 35.2173 40.7343 35.8472C41.364 36.4769 41.7178 37.331 41.7178 38.2217V47.5846H28.2852Z" fill="#F2F2F2"/>
<path fill-rule="evenodd" clip-rule="evenodd" d="M39.3112 12.3987C43.7638 14.0134 47.0504 18.0579 47.5709 22.9291C47.6049 23.2476 47.5022 23.5656 47.2879 23.8038C47.0738 24.042 46.7686 24.1781 46.4484 24.1781H23.5516C23.2312 24.1781 22.926 24.042 22.7117 23.8037C22.4976 23.5653 22.3949 23.2472 22.4291 22.9285C22.9522 18.0572 26.2397 14.013 30.6912 12.3985C29.0847 11.1232 28.0516 9.15391 28.0516 6.95145C28.0516 3.12361 31.1721 0 35 0C38.8313 0 41.9514 3.12375 41.9514 6.95145C41.9514 9.15391 40.9184 11.1234 39.3112 12.3987ZM35 13.9029C30.0801 13.9029 25.959 17.3254 24.8863 21.9202C24.8863 21.9202 45.1144 21.92 45.1144 21.9202C44.0439 17.3253 39.9224 13.9029 35 13.9029ZM35 11.6448C37.5867 11.6448 39.6934 9.5358 39.6934 6.95145C39.6934 4.36709 37.5867 2.25806 35 2.25806C32.4158 2.25806 30.3097 4.36724 30.3097 6.95145C30.3097 9.53566 32.4158 11.6448 35 11.6448ZM61.7338 58.2205C66.1864 59.8352 69.473 63.8796 69.9936 68.751C70.0276 69.0695 69.9247 69.3875 69.7107 69.6257C69.4966 69.8639 69.1913 70 68.8709 70H45.9743C45.6539 70 45.3485 69.8638 45.1345 69.6254C44.9202 69.387 44.8175 69.0689 44.8518 68.7504C45.3748 63.8791 48.6624 59.8347 53.1137 58.2204C51.5073 56.945 50.4742 54.9757 50.4742 52.7733C50.4742 48.9454 53.5947 45.8219 57.4226 45.8219C61.2539 45.8219 64.3741 48.9456 64.3741 52.7733C64.3741 54.9758 63.3411 56.9453 61.7338 58.2205ZM57.4226 59.7248C52.5028 59.7248 48.3817 63.1473 47.309 67.7419H67.537C66.4667 63.1472 62.345 59.7248 57.4226 59.7248ZM57.4226 57.4667C60.0094 57.4667 62.1161 55.3576 62.1161 52.7733C62.1161 50.189 60.0094 48.08 57.4226 48.08C54.8385 48.08 52.7323 50.1891 52.7323 52.7733C52.7323 55.3574 54.8385 57.4667 57.4226 57.4667ZM16.8885 58.2205C21.3411 59.8352 24.6277 63.8796 25.1483 68.751C25.1823 69.0695 25.0795 69.3875 24.8654 69.6257C24.6513 69.8639 24.346 70 24.0257 70H1.12903C0.808665 70 0.503262 69.8638 0.289169 69.6254C0.0749353 69.387 -0.0278066 69.0689 0.00648775 68.7504C0.529653 63.8791 3.81711 59.8347 8.26846 58.2204C6.66199 56.945 5.62892 54.9757 5.62892 52.7733C5.62892 48.9454 8.74943 45.8219 12.5774 45.8219C16.4086 45.8219 19.5289 48.9456 19.5289 52.7733C19.5289 54.9758 18.4958 56.9453 16.8885 58.2205ZM12.5774 59.7248C7.65751 59.7248 3.53641 63.1473 2.46368 67.7419H22.6917C21.6214 63.1472 17.4997 59.7248 12.5774 59.7248ZM12.5774 57.4667C15.1642 57.4667 17.2708 55.3576 17.2708 52.7733C17.2708 50.189 15.1642 48.08 12.5774 48.08C9.9932 48.08 7.88699 50.1891 7.88699 52.7733C7.88699 55.3574 9.9932 57.4667 12.5774 57.4667ZM42.8453 46.4556H43.3829C43.9481 46.4556 44.4902 46.6801 44.8899 47.0798C45.2896 47.4795 45.5141 48.0215 45.5141 48.5869V51.1192C45.5141 51.6844 45.2896 52.2266 44.8899 52.6263C44.4902 53.026 43.9481 53.2505 43.3829 53.2505H26.8395C26.2743 53.2505 25.7322 53.026 25.3325 52.6263C24.9328 52.2266 24.7083 51.6844 24.7083 51.1192V48.5869C24.7083 48.0215 24.9328 47.4795 25.3325 47.0798C25.7322 46.6801 26.2743 46.4556 26.8395 46.4556H27.1546V38.2217C27.1546 37.0317 27.6274 35.8902 28.4688 35.0488C29.3104 34.2073 30.4517 33.7345 31.6418 33.7345H38.3581C39.5483 33.7345 40.6896 34.2073 41.5312 35.0488C42.3726 35.8902 42.8453 37.0317 42.8453 38.2217V46.4556ZM29.4127 46.4556H33.8709V42.6029C33.8709 41.9798 34.3769 41.4739 35 41.4739C35.6231 41.4739 36.129 41.9798 36.129 42.6029V46.4556H40.5873V38.2217C40.5873 37.6305 40.3524 37.0636 39.9344 36.6454C39.5164 36.2274 38.9493 35.9925 38.3581 35.9925H31.6418C31.0506 35.9925 30.4836 36.2274 30.0655 36.6454C29.6475 37.0636 29.4127 37.6305 29.4127 38.2217V46.4556ZM43.256 48.7136H26.9664V50.9924H43.256V48.7136ZM11.2406 43.6C11.3239 44.2175 10.8902 44.7864 10.2726 44.8698C9.65505 44.9531 9.08616 44.5193 9.0029 43.9017C8.84709 42.7466 8.76664 41.5677 8.76664 40.3702C8.76664 31.467 13.2112 23.5932 20.0014 18.8502C20.5121 18.4934 21.2166 18.6183 21.5734 19.1292C21.9303 19.6401 21.8053 20.3444 21.2944 20.7014C15.0882 25.0366 11.0247 32.2326 11.0247 40.3702C11.0247 41.4654 11.0982 42.5436 11.2406 43.6ZM48.7068 20.7022C48.1961 20.3454 48.0711 19.6409 48.428 19.13C48.7848 18.6193 49.4893 18.4942 50 18.8512C56.7894 23.5944 61.2333 31.4675 61.2333 40.3702C61.2333 41.5676 61.1529 42.7463 60.9972 43.9013C60.9139 44.5189 60.3449 44.9527 59.7273 44.8694C59.1099 44.7862 58.6761 44.2171 58.7593 43.5995C58.9017 42.5433 58.9753 41.4652 58.9753 40.3702C58.9753 32.2332 54.9123 25.0375 48.7068 20.7022ZM43.3191 62.8607C43.9034 62.6442 44.5536 62.9428 44.7701 63.5272C44.9865 64.1115 44.6879 64.7617 44.1036 64.9782C41.2671 66.029 38.2001 66.6036 35 66.6036C31.8006 66.6036 28.7343 66.0293 25.8983 64.9789C25.314 64.7624 25.0154 64.1124 25.2317 63.5279C25.4482 62.9437 26.0983 62.645 26.6827 62.8614C29.2742 63.8213 32.0764 64.3455 35 64.3455C37.9243 64.3455 40.7271 63.8211 43.3191 62.8607ZM33.8709 28.619C33.8709 27.9959 34.3769 27.4899 35 27.4899C35.6231 27.4899 36.129 27.9959 36.129 28.619V30.6303C36.129 31.2534 35.6231 31.7594 35 31.7594C34.3769 31.7594 33.8709 31.2534 33.8709 30.6303V28.619ZM27.0303 31.057C26.7187 30.5173 26.9038 29.8263 27.4435 29.5147C27.9832 29.2031 28.6742 29.3883 28.9858 29.928L29.9915 31.6699C30.3031 32.2094 30.1179 32.9006 29.5782 33.2122C29.0386 33.5236 28.3474 33.3385 28.036 32.7989L27.0303 31.057ZM22.325 36.5887C21.7854 36.2772 21.6002 35.5861 21.9118 35.0464C22.2233 34.5067 22.9144 34.3216 23.4541 34.6332L25.1959 35.6389C25.7356 35.9505 25.9207 36.6415 25.6093 37.1811C25.2976 37.7208 24.6065 37.906 24.0669 37.5944L22.325 36.5887ZM41.0142 29.928C41.3258 29.3883 42.0168 29.2031 42.5564 29.5147C43.0961 29.8263 43.2813 30.5173 42.9697 31.057L41.964 32.7989C41.6525 33.3385 40.9614 33.5236 40.4217 33.2122C39.8821 32.9006 39.6969 32.2094 40.0085 31.6699L41.0142 29.928ZM46.5459 34.6332C47.0856 34.3216 47.7767 34.5067 48.0881 35.0464C48.3998 35.5861 48.2146 36.2772 47.6749 36.5887L45.9331 37.5944C45.3934 37.906 44.7023 37.7208 44.3907 37.1811C44.0792 36.6415 44.2644 35.9505 44.8041 35.6389L46.5459 34.6332Z" fill="#1D1C1A"/>
</svg>
