<svg width="70" height="70" viewBox="0 0 70 70" fill="none" xmlns="http://www.w3.org/2000/svg">
<path d="M46.7095 38.8928H23.2835C22.6992 38.8928 22.2279 38.4172 22.2279 37.833V7.71929C22.2279 7.13929 22.6992 6.66653 23.2835 6.66653H27.5524V8.30635C27.5524 8.93011 28.0562 9.43814 28.6799 9.43814H41.313C41.9368 9.43814 42.4448 8.93011 42.4448 8.30635V6.66794H46.7095C47.2937 6.66794 47.7651 7.13929 47.7651 7.7207V37.8344C47.7665 38.4172 47.2937 38.8928 46.7095 38.8928ZM25.293 29.4406C25.293 30.0685 25.7968 30.5723 26.4206 30.5723H38.6049C39.2287 30.5723 39.7367 30.0685 39.7367 29.4406C39.7367 28.8168 39.2287 28.313 38.6049 28.313H26.4206C25.7968 28.313 25.293 28.8168 25.293 29.4406ZM25.293 25.2521C25.293 25.8801 25.7968 26.3839 26.4206 26.3839H42.2091C42.8329 26.3839 43.3367 25.8801 43.3367 25.2521C43.3367 24.6284 42.8329 24.1245 42.2091 24.1245H26.4206C25.7968 24.1245 25.293 24.6284 25.293 25.2521ZM25.293 21.336C25.293 21.964 25.7968 22.4678 26.4206 22.4678H38.6049C39.2287 22.4678 39.7367 21.964 39.7367 21.336C39.7367 20.7123 39.2287 20.2085 38.6049 20.2085H26.4206C25.7968 20.2085 25.293 20.7123 25.293 21.336ZM25.293 17.1476C25.293 17.7713 25.7968 18.2751 26.4206 18.2751H42.2091C42.8329 18.2751 43.3367 17.7713 43.3367 17.1476C43.3367 16.5196 42.8329 16.0158 42.2091 16.0158H26.4206C25.7968 16.0158 25.293 16.5196 25.293 17.1476ZM25.293 13.2315C25.293 13.8552 25.7968 14.359 26.4206 14.359H38.6049C39.2287 14.359 39.7367 13.8552 39.7367 13.2315C39.7367 12.6035 39.2287 12.0997 38.6049 12.0997H26.4206C25.7968 12.0997 25.293 12.6035 25.293 13.2315Z" fill="#F1F1F1"/>
<path d="M8.1229 32.9488C6.46332 32.9488 5.11138 31.5969 5.11138 29.9331C5.11138 28.2735 6.46332 26.9216 8.1229 26.9216C9.78247 26.9216 11.1344 28.2735 11.1344 29.9331C11.1358 31.5969 9.78389 32.9488 8.1229 32.9488Z" fill="#F1F1F1"/>
<path d="M13.2315 42.0412H3.01151C2.59521 42.0412 2.25934 41.7053 2.25934 41.2933V38.1406C2.25934 36.5248 3.83566 35.2082 5.77606 35.2082H10.4683C12.4087 35.2082 13.9879 36.5248 13.9879 38.1406V41.2933C13.9879 41.7053 13.6478 42.0412 13.2315 42.0412Z" fill="#F1F1F1"/>
<path d="M17.2478 58.6426C15.5882 58.6426 14.2362 57.2907 14.2362 55.6269C14.2362 53.9701 15.5882 52.6182 17.2478 52.6182C18.9116 52.6182 20.2593 53.9701 20.2593 55.6269C20.2607 57.2907 18.9116 58.6426 17.2478 58.6426Z" fill="#F1F1F1"/>
<path d="M22.3605 67.7393H12.1392C11.7229 67.7393 11.387 67.3992 11.387 66.9871V63.8344C11.387 62.2186 12.9633 60.902 14.9037 60.902H19.5918C21.5322 60.902 23.1113 62.2186 23.1113 63.8344V66.9871C23.1127 67.3992 22.7726 67.7393 22.3605 67.7393Z" fill="#F1F1F1"/>
<path d="M57.8552 67.7393H47.6338C47.2217 67.7393 46.8859 67.3992 46.8859 66.9871V63.8344C46.8859 62.2186 48.4622 60.902 50.4026 60.902H55.0906C57.031 60.902 58.6102 62.2186 58.6102 63.8344V66.9871C58.6102 67.3992 58.2715 67.7393 57.8552 67.7393Z" fill="#F1F1F1"/>
<path d="M40.1855 7.1788H29.8131V3.97113H31.0818C31.7055 3.97113 32.2136 3.4631 32.2136 2.84358V2.25934H37.7864V2.84358C37.7864 3.4631 38.2902 3.97113 38.914 3.97113H40.1855V7.1788Z" fill="#F1F1F1"/>
<path d="M52.7466 58.6426C51.087 58.6426 49.7351 57.2907 49.7351 55.6269C49.7351 53.9701 51.087 52.6182 52.7466 52.6182C54.4104 52.6182 55.7624 53.9701 55.7624 55.6269C55.7624 57.2907 54.4104 58.6426 52.7466 58.6426Z" fill="#F1F1F1"/>
<path d="M61.8715 32.9488C60.2119 32.9488 58.8628 31.5969 58.8628 29.9331C58.8628 28.2735 60.2105 26.9216 61.8715 26.9216C63.5353 26.9216 64.8872 28.2735 64.8872 29.9331C64.8872 31.5969 63.5353 32.9488 61.8715 32.9488Z" fill="#F1F1F1"/>
<path d="M66.9828 42.0412H56.7615C56.3452 42.0412 56.0093 41.7053 56.0093 41.2933V38.1406C56.0093 36.5248 57.5856 35.2082 59.526 35.2082H64.2183C66.1587 35.2082 67.7393 36.5248 67.7393 38.1406V41.2933C67.7393 41.7053 67.3992 42.0412 66.9828 42.0412Z" fill="#F1F1F1"/>
<path d="M38.6049 14.3604H26.4206C25.7968 14.3604 25.293 13.8566 25.293 13.2329C25.293 12.6049 25.7968 12.1011 26.4206 12.1011H38.6049C39.2287 12.1011 39.7367 12.6049 39.7367 13.2329C39.7381 13.8552 39.2301 14.3604 38.6049 14.3604Z" fill="#1D1C1A"/>
<path d="M8.07492 22.8291C7.45116 22.8291 6.94736 22.3253 6.94736 21.7015V14.2334C6.94736 13.6816 7.34673 13.2089 7.89569 13.1171L16.9161 11.665C16.9796 11.6523 17.0403 11.6495 17.0996 11.6495C17.6443 11.6495 18.1241 12.046 18.2116 12.6021C18.2201 12.6627 18.2271 12.7262 18.2271 12.7855C18.2229 13.3302 17.8306 13.8058 17.2746 13.8933L9.2067 15.1973V21.7015C9.20811 22.3239 8.70008 22.8291 8.07492 22.8291Z" fill="#1D1C1A"/>
<path d="M22.3605 70H12.1392C10.4796 70 9.12767 68.6481 9.12767 66.9885V63.8359C9.12767 61.5314 10.8042 59.5797 13.1157 58.8995C12.4031 57.9991 11.9755 56.8631 11.9755 55.6269C11.9755 52.7226 14.3393 50.3588 17.2477 50.3588C20.1562 50.3588 22.5242 52.7226 22.5242 55.6269C22.5242 56.8631 22.0966 57.9991 21.384 58.8995C23.6927 59.5797 25.3721 61.5314 25.3721 63.8359V66.9885C25.3721 68.6481 24.0201 70 22.3605 70ZM11.3884 66.9871C11.3884 67.3991 11.7243 67.7393 12.1406 67.7393H22.362C22.774 67.7393 23.1141 67.3991 23.1141 66.9871V63.8344C23.1141 62.2186 21.5336 60.902 19.5946 60.902L14.9037 60.902C12.9633 60.902 11.387 62.2186 11.387 63.8344V66.9871L11.3884 66.9871ZM14.2362 55.6269C14.2362 57.2907 15.5882 58.6426 17.2478 58.6426C18.9116 58.6426 20.2593 57.2907 20.2593 55.6269C20.2593 53.9701 18.9116 52.6182 17.2478 52.6182C15.5882 52.6182 14.2362 53.9701 14.2362 55.6269Z" fill="#1D1C1A"/>
<path d="M57.8552 70H47.6338C45.9742 70 44.6223 68.6481 44.6223 66.9885V63.8359C44.6223 61.5314 46.3031 59.5797 48.6146 58.8995C47.9019 57.9991 47.4743 56.8631 47.4743 55.6269C47.4743 52.7226 49.8381 50.3588 52.7466 50.3588C55.6551 50.3588 58.0231 52.7226 58.0231 55.6269C58.0231 56.8631 57.5955 57.9991 56.8786 58.8995C59.1944 59.5797 60.8709 61.5314 60.8709 63.8359V66.9885C60.8709 68.6481 59.519 70 57.8552 70ZM46.8859 66.9871C46.8859 67.3992 47.2217 67.7393 47.6338 67.7393H57.8552C58.2715 67.7393 58.6116 67.3991 58.6116 66.9871V63.8344C58.6116 62.2186 57.031 60.902 55.092 60.902H50.404C48.4636 60.902 46.8873 62.2186 46.8873 63.8344V66.9871L46.8859 66.9871ZM49.7337 55.6269C49.7337 57.2907 51.0856 58.6426 52.7452 58.6426C54.409 58.6426 55.7609 57.2907 55.7609 55.6269C55.7609 53.9701 54.409 52.6182 52.7452 52.6182C51.087 52.6182 49.7337 53.9701 49.7337 55.6269Z" fill="#1D1C1A"/>
<path d="M38.6049 30.5723H26.4206C25.7968 30.5723 25.293 30.0685 25.293 29.4406C25.293 28.8168 25.7968 28.313 26.4206 28.313H38.6049C39.2287 28.313 39.7367 28.8168 39.7367 29.4406C39.7381 30.0685 39.2301 30.5723 38.6049 30.5723Z" fill="#1D1C1A"/>
<path d="M42.2091 18.2765H26.4206C25.7968 18.2765 25.293 17.7727 25.293 17.149C25.293 16.521 25.7968 16.0172 26.4206 16.0172H42.2091C42.8329 16.0172 43.3367 16.521 43.3367 17.149C43.3381 17.7727 42.8343 18.2765 42.2091 18.2765Z" fill="#1D1C1A"/>
<path d="M66.9829 44.302H56.7615C55.1019 44.302 53.75 42.95 53.75 41.2933V38.1406C53.75 35.8361 55.4265 33.8802 57.7423 33.2042C57.0268 32.3039 56.602 31.1679 56.602 29.9317C56.602 27.0232 58.9658 24.6594 61.8701 24.6594C64.7785 24.6594 67.1466 27.0232 67.1466 29.9317C67.1466 31.1679 66.719 32.3039 66.0063 33.2042C68.3178 33.8802 69.9986 35.8361 69.9986 38.1406V41.2933C70 42.95 68.6438 44.302 66.9829 44.302ZM56.0107 41.2933C56.0107 41.7053 56.3466 42.0412 56.7629 42.0412H66.9843C67.4006 42.0412 67.7407 41.7053 67.7407 41.2933V38.1406C67.7407 36.5248 66.1601 35.2082 64.2197 35.2082H59.5275C57.587 35.2082 56.0107 36.5248 56.0107 38.1406V41.2933ZM58.8628 29.9331C58.8628 31.5969 60.2105 32.9488 61.8715 32.9488C63.5353 32.9488 64.8872 31.5969 64.8872 29.9331C64.8872 28.2735 63.5353 26.9216 61.8715 26.9216C60.2105 26.9201 58.8628 28.2735 58.8628 29.9331Z" fill="#1D1C1A"/>
<path d="M42.2091 26.3853H26.4206C25.7968 26.3853 25.293 25.8815 25.293 25.2535C25.293 24.6298 25.7968 24.126 26.4206 24.126H42.2091C42.8329 24.126 43.3367 24.6298 43.3367 25.2535C43.3381 25.8801 42.8343 26.3853 42.2091 26.3853Z" fill="#1D1C1A"/>
<path d="M46.7095 41.1536H23.2835C21.456 41.1536 19.9671 39.6662 19.9671 37.833V7.71929C19.9671 5.8946 21.4545 4.40719 23.2835 4.40719H27.5524V2.84358C27.5524 2.21983 28.0562 1.71179 28.6799 1.71179H29.9514V1.13179C29.9514 0.5038 30.4552 0 31.079 0H38.9112C39.5349 0 40.0429 0.5038 40.0429 1.13179V1.71179H41.3116C41.9354 1.71179 42.4434 2.21983 42.4434 2.84358V4.40719H46.7081C48.5356 4.40719 50.0286 5.8946 50.0286 7.71929V37.833C50.03 39.6662 48.5384 41.1536 46.7095 41.1536ZM22.2279 37.833C22.2279 38.4172 22.6992 38.8928 23.2835 38.8928H46.7095C47.2937 38.8928 47.7651 38.4172 47.7651 37.833V7.71929C47.7651 7.13929 47.2937 6.66653 46.7095 6.66653H42.4448V8.30635C42.4448 8.93011 41.9368 9.43814 41.313 9.43814H28.6799C28.0562 9.43814 27.5524 8.93011 27.5524 8.30635V6.66794H23.2835C22.6992 6.66794 22.2279 7.13929 22.2279 7.7207V37.833ZM29.8131 7.1788H40.1855V3.97113H38.914C38.2902 3.97113 37.7864 3.4631 37.7864 2.84358V2.25934H32.2136V2.84358C32.2136 3.4631 31.7055 3.97113 31.0818 3.97113H29.8131V7.1788Z" fill="#1D1C1A"/>
<path d="M38.6049 22.4678H26.4206C25.7968 22.4678 25.293 21.964 25.293 21.336C25.293 20.7123 25.7968 20.2085 26.4206 20.2085H38.6049C39.2287 20.2085 39.7367 20.7123 39.7367 21.336C39.7381 21.964 39.2301 22.4678 38.6049 22.4678Z" fill="#1D1C1A"/>
<path d="M44.6181 57.0748C44.5574 57.0748 44.4939 57.0705 44.4346 57.0592L35.5906 55.6353L26.7494 57.0592C26.6887 57.0705 26.6294 57.0748 26.5688 57.0748C26.0212 57.0748 25.5442 56.6782 25.4525 56.1222C25.444 56.0615 25.437 55.998 25.437 55.9388C25.4412 55.394 25.8363 54.9185 26.3895 54.8267L34.4616 53.527V47.0312C34.4616 46.4032 34.9654 45.8994 35.5892 45.8994C36.2129 45.8994 36.721 46.4032 36.721 47.0312V53.527L44.7931 54.8267C45.3448 54.9185 45.7414 55.3954 45.7456 55.9388C45.7456 55.9994 45.7372 56.0629 45.7301 56.1222C45.6426 56.6782 45.1614 57.0748 44.6181 57.0748Z" fill="#1D1C1A"/>
<path d="M61.8715 22.8291C61.2477 22.8291 60.7439 22.3253 60.7439 21.7015V15.1973L52.6718 13.8933C52.12 13.8058 51.7235 13.3288 51.7235 12.7855C51.7235 12.7248 51.7277 12.6613 51.7348 12.6021C51.8265 12.046 52.3035 11.6495 52.851 11.6495C52.9075 11.6495 52.971 11.6537 53.0317 11.665L62.0521 13.1171C62.5996 13.2089 63.0047 13.6816 63.0047 14.2334V21.7015C63.0033 22.3239 62.4952 22.8291 61.8715 22.8291Z" fill="#1D1C1A"/>
<path d="M13.2315 44.302H3.01151C1.35193 44.302 0 42.95 0 41.2933V38.1406C0 35.8361 1.67651 33.8802 3.9923 33.2042C3.27964 32.3039 2.85205 31.1679 2.85205 29.9317C2.85205 27.0232 5.21581 24.6594 8.12431 24.6594C11.0328 24.6594 13.3923 27.0232 13.3923 29.9317C13.3923 31.1679 12.969 32.3039 12.2563 33.2042C14.5679 33.8802 16.2486 35.8361 16.2486 38.1406V41.2933C16.2486 42.95 14.8953 44.302 13.2315 44.302ZM2.25934 41.2933C2.25934 41.7053 2.59521 42.0412 3.01151 42.0412H13.2329C13.6492 42.0412 13.9893 41.7053 13.9893 41.2933V38.1406C13.9893 36.5248 12.4087 35.2082 10.4697 35.2082H5.77465C3.83424 35.2082 2.25793 36.5248 2.25793 38.1406V41.2933L2.25934 41.2933ZM5.11138 29.9331C5.11138 31.5969 6.46332 32.9488 8.1229 32.9488C9.78247 32.9488 11.1344 31.5969 11.1344 29.9331C11.1344 28.2735 9.78247 26.9216 8.1229 26.9216C6.46332 26.9216 5.11138 28.2735 5.11138 29.9331Z" fill="#1D1C1A"/>
</svg>
