<svg width="70" height="70" viewBox="0 0 70 70" fill="none" xmlns="http://www.w3.org/2000/svg">
<path d="M44.7129 34.2962V22.8113H61.9343V34.2962C61.9343 35.5554 60.9135 36.5762 59.6543 36.5762H46.993C45.7337 36.5762 44.7129 35.5554 44.7129 34.2962Z" fill="#1D1C1A"/>
<path d="M52.6103 54.3494V64.6838C52.6103 65.8328 51.6789 66.7642 50.5298 66.7642C49.3808 66.7642 48.4492 65.8328 48.4492 64.6838V54.3494" fill="#F2F2F2"/>
<path d="M55.0465 23.3487L61.9079 23.3488C63.0569 23.3488 63.9885 24.2804 63.9885 25.4294V25.8158C63.9885 26.9648 63.0569 27.8962 61.9079 27.8962L46.6737 27.8959C45.0965 27.8959 43.5694 27.3412 42.3598 26.329C41.1501 25.3168 39.6232 24.7623 38.0458 24.7621H37.2773V12.3046L41.3278 12.3047C43.5648 9.49703 47.0229 7.69335 49.1616 6.53476C50.4762 5.82267 54.392 3.63538 54.392 3.63538C55.4336 3.05799 56.7395 3.31142 57.4896 4.23647C58.4568 5.42933 58.104 7.20721 56.7546 7.9403L51.3781 10.8615L55.0509 10.8617L63.6871 10.8618C64.8361 10.8618 65.7676 11.7933 65.7676 12.9424C65.7676 14.0914 64.8362 15.0227 63.6871 15.0227L55.0509 15.0226" fill="#F2F2F2"/>
<path d="M55.0508 19.1836L65.3853 19.1839C66.5343 19.1839 67.4659 20.1154 67.4659 21.2644C67.4659 22.4134 66.5345 23.3448 65.3853 23.3448L55.0508 23.3445" fill="#F2F2F2"/>
<path d="M55.0508 15.0227L67.0838 15.023C68.2328 15.023 69.1643 15.9545 69.1643 17.1035C69.1643 18.2525 68.2329 19.1839 67.0838 19.1839L55.0508 19.1836" fill="#F2F2F2"/>
<path d="M34.9958 27.0804L23.5107 27.0801V9.85876L34.9958 9.85905C36.255 9.85905 37.2758 10.8799 37.2758 12.1391V24.8005C37.2759 26.0596 36.2551 27.0804 34.9958 27.0804Z" fill="#1D1C1A"/>
<path d="M14.7998 54.3928L4.4653 54.3931C3.31629 54.3931 2.38477 55.3246 2.38477 56.4736C2.38477 57.6226 3.31615 58.554 4.4653 58.554L14.7998 58.5537" fill="#F2F2F2"/>
<path d="M14.7991 50.2317L2.76608 50.232C1.61708 50.232 0.685547 51.1635 0.685547 52.3125C0.685547 53.4615 1.61694 54.3929 2.76608 54.3929L14.7991 54.3926" fill="#F2F2F2"/>
<path d="M22.4859 14.8027V7.94122C22.4859 6.79222 23.4173 5.86069 24.5664 5.86069H24.9529C26.1019 5.86069 27.0334 6.79208 27.0334 7.94122V23.1754C27.0334 24.7526 26.4788 26.2797 25.4666 27.4894C24.4544 28.699 23.8999 30.226 23.8999 31.8033V32.5718H11.4424V28.5213C8.63466 26.2844 6.83084 22.8262 5.67224 20.6876C4.96002 19.373 2.77287 15.4572 2.77287 15.4572C2.19547 14.4155 2.44877 13.1097 3.37395 12.3595C4.56682 11.3923 6.34469 11.7452 7.07779 13.0946L9.99902 18.4712V14.7984V6.16208C9.99902 5.01307 10.9304 4.08154 12.0796 4.08154C13.2286 4.08154 14.1601 5.01293 14.1601 6.16208V14.7983" fill="#F2F2F2"/>
<path d="M18.3203 14.7983V4.46359C18.3203 3.31459 19.2517 2.38306 20.4008 2.38306C21.5499 2.38306 22.4814 3.31445 22.4814 4.46359V14.7981" fill="#F2F2F2"/>
<path d="M14.1602 14.7984V2.76535C14.1602 1.61634 15.0915 0.684814 16.2407 0.684814C17.3897 0.684814 18.3212 1.6162 18.3212 2.76535V14.7984" fill="#F2F2F2"/>
<path d="M26.2184 34.8519V46.337H8.99707V34.8519C8.99707 33.5927 10.0179 32.5719 11.277 32.5719H23.9384C25.1976 32.5719 26.2184 33.5927 26.2184 34.8519Z" fill="#1D1C1A"/>
<path d="M34.8532 62.2898L46.3383 62.2895V45.0681L34.8532 45.0684C33.594 45.0684 32.5732 46.0892 32.5732 47.3485V60.0098C32.5732 61.269 33.594 62.2898 34.8532 62.2898Z" fill="#1D1C1A"/>
<path d="M14.802 58.558L7.94059 58.5582C6.79159 58.5582 5.86006 59.4897 5.86006 60.6387V61.0251C5.86006 62.1741 6.79145 63.1055 7.94059 63.1055L23.1748 63.1053C24.752 63.1053 26.2791 62.5506 27.4887 61.5384C28.6984 60.5262 30.2254 59.9716 31.8027 59.9715H32.5712V47.5139L28.5207 47.5141C26.2837 44.7064 22.8256 42.9027 20.687 41.7441C19.3724 41.032 15.4566 38.8447 15.4566 38.8447C14.4149 38.2673 13.1091 38.5208 12.3589 39.4458C11.3917 40.6387 11.7446 42.4166 13.094 43.1497L18.4706 46.0707L14.7978 46.0709L6.16159 46.071C5.01258 46.071 4.08105 47.0026 4.08105 48.1516C4.08105 49.3006 5.01244 50.232 6.16159 50.232L14.7978 50.2318" fill="#F2F2F2"/>
<path d="M48.445 54.3452V61.2065C48.445 62.3555 47.5136 63.2869 46.3644 63.2869H45.978C44.829 63.2869 43.8975 62.3555 43.8975 61.2065V45.9724C43.8975 44.3952 44.452 42.8682 45.4642 41.6586C46.4764 40.4489 47.031 38.922 47.031 37.3448V36.5763H59.4883V40.6268C62.2961 42.8637 64.0999 46.3217 65.2585 48.4604C65.9707 49.775 68.158 53.6906 68.158 53.6906C68.7354 54.7323 68.4821 56.0381 67.5569 56.7882C66.364 57.7552 64.5862 57.4025 63.8531 56.0531L60.9318 50.6766V54.3493V62.9853C60.9318 64.1343 60.0004 65.0657 58.8513 65.0657C57.7023 65.0657 56.7708 64.1343 56.7708 62.9853V54.3493" fill="#F2F2F2"/>
<path d="M56.7704 54.3494V66.3821C56.7704 67.5311 55.8391 68.4625 54.6899 68.4625C53.5409 68.4625 52.6094 67.5311 52.6094 66.3821V54.3494" fill="#F2F2F2"/>
<path d="M2.13427 54.9983C1.86249 55.4262 1.69932 55.9301 1.69932 56.4735C1.69932 57.9982 2.93985 59.2388 4.46457 59.2388H5.57084C5.32657 59.651 5.17665 60.1259 5.17665 60.6388V61.0254C5.17665 62.5501 6.41719 63.7907 7.94191 63.7907L23.1763 63.7904C24.911 63.7904 26.5989 63.1772 27.9295 62.0641C29.0142 61.1567 30.3904 60.6567 31.8041 60.6567H31.9637C32.2603 61.9806 33.4406 62.9749 34.8522 62.9749L43.8688 62.9746C44.3765 63.579 45.1279 63.972 45.9771 63.972H46.3637C46.8764 63.972 47.3512 63.8224 47.7633 63.5781V64.6842C47.7633 66.209 49.0038 67.4495 50.5291 67.4495C51.0726 67.4495 51.5765 67.2863 52.0044 67.0144C52.2919 68.2344 53.3835 69.1477 54.6899 69.1477C56.2146 69.1477 57.4551 67.9072 57.4551 66.3824V65.3594C57.8664 65.6022 58.3396 65.7512 58.8508 65.7512C60.3755 65.7512 61.6161 64.5106 61.6161 62.9859V53.3719L63.2505 56.3802C64.1881 58.1066 66.4628 58.5566 67.9878 57.3204C69.1728 56.3594 69.4958 54.6937 68.7555 53.3568C68.716 53.2856 65.5209 47.5163 65.7194 47.875C64.5625 45.7341 62.8319 42.5329 60.1723 40.3023V37.2087C61.5592 36.9618 62.6178 35.7534 62.6178 34.2964V28.4769C63.797 28.1608 64.6721 27.0933 64.6721 25.816V25.4294C64.6721 24.9165 64.5223 24.4416 64.2781 24.0294H65.3843C66.9098 24.0294 68.1502 22.7888 68.1502 21.2641C68.1502 20.7206 67.987 20.2167 67.7149 19.7886C68.9349 19.5011 69.8481 18.4096 69.8481 17.1032C69.8481 15.5785 68.6075 14.3379 67.0828 14.3379H66.0598C66.3026 13.9267 66.4515 13.4534 66.4515 12.942C66.4515 11.4173 65.211 10.1767 63.6863 10.1767H54.0713L57.0805 8.542C58.8069 7.60371 59.2566 5.32939 58.0208 3.80538C57.0598 2.61971 55.3934 2.29603 54.0572 3.03731C53.986 3.0768 48.219 6.26952 48.5776 6.07095C46.4363 7.22856 43.2338 8.95947 41.003 11.6198H37.9091C37.6621 10.2327 36.4538 9.17398 34.9965 9.17398L27.7187 9.17384V7.94092C27.7187 6.4162 26.4781 5.17567 24.9534 5.17567H24.5668C24.0538 5.17567 23.5788 5.32544 23.1665 5.57V4.46344C23.1665 2.93872 21.926 1.69819 20.4013 1.69819C19.8577 1.69819 19.3538 1.86137 18.9259 2.13328C18.6385 0.913336 17.5469 0 16.2405 0C14.7158 0 13.4752 1.24053 13.4752 2.76525V3.78831C13.064 3.54545 12.5908 3.39652 12.0796 3.39652C10.5548 3.39652 9.31431 4.63706 9.31431 6.16177V15.7758L7.67986 12.7671C6.73705 11.0337 4.46076 10.5964 2.94253 11.8275C1.75757 12.7885 1.4346 14.4543 2.17489 15.7907C2.17489 15.791 4.35894 19.7012 5.07045 21.0135C6.5994 23.8417 8.21142 26.7097 10.7579 28.8457V31.9393C9.37044 32.1862 8.3117 33.3946 8.3117 34.8516V45.386L6.16234 45.3861C4.63762 45.3861 3.39709 46.6267 3.39709 48.1514C3.39709 48.6626 3.54602 49.136 3.78902 49.5474H2.76525C1.24053 49.5474 0 50.7879 0 52.3126C0.000564136 53.6193 0.914182 54.7109 2.13427 54.9983ZM24.5852 31.9628C24.6251 31.7579 24.3332 30.0233 26.1174 27.7649L34.9966 27.7652C36.4083 27.7652 37.5887 26.7709 37.8851 25.447H38.0453C39.4591 25.447 40.8353 25.9469 41.92 26.854C42.5521 27.3832 43.2667 27.7953 44.0271 28.0864V34.2959C44.0271 35.708 45.0214 36.8884 46.3456 37.1849V37.3447C46.3456 38.7584 45.8461 40.1343 44.9386 41.219C44.1704 42.1367 43.6471 43.2268 43.3922 44.3832L34.8522 44.3835C33.3956 44.3835 32.1871 45.4423 31.9402 46.8293H28.8464C28.255 46.1243 27.5937 45.4885 26.9038 44.9075V34.8518C26.9036 33.4397 25.9094 32.2594 24.5852 31.9628ZM34.8522 61.6051C33.9728 61.6051 33.2572 60.8894 33.2572 60.0098V59.9717C33.2572 55.208 33.2572 51.8197 33.2572 47.3485C33.2572 46.4687 33.9728 45.7533 34.8522 45.7533L43.2217 45.753C43.2194 45.8287 43.1585 60.9653 43.2523 61.6049L34.8522 61.6051ZM64.515 48.526C64.5545 48.5972 67.7568 54.381 67.5584 54.0222C67.9757 54.7749 67.7931 55.7145 67.125 56.2561C66.2657 56.9528 64.9823 56.7003 64.4541 55.7261L61.5331 50.3494C61.3841 50.075 61.069 49.9352 60.7628 50.0128C60.4592 50.09 60.2465 50.3632 60.2465 50.6765V62.9855C60.2465 63.7553 59.6206 64.3812 58.8508 64.3812C58.081 64.3812 57.4551 63.7553 57.4551 62.9855V54.3491C57.4551 53.971 57.1488 53.6644 56.7704 53.6644C56.3919 53.6644 56.0857 53.971 56.0857 54.3491V66.3819C56.0857 67.1516 55.4598 67.7775 54.69 67.7775C53.9203 67.7775 53.2943 67.1516 53.2943 66.3819C53.2943 63.3014 53.2943 57.4299 53.2943 54.3491C53.2943 53.971 52.988 53.6644 52.6096 53.6644C52.2311 53.6644 51.9249 53.971 51.9249 54.3491V64.6837C51.9249 65.4534 51.299 66.0794 50.5292 66.0794C49.7595 66.0794 49.133 65.4534 49.133 64.6837V54.3491C49.133 54.159 49.0553 53.9874 48.9302 53.8633C48.8061 53.7382 48.6344 53.6603 48.4442 53.6603C48.0657 53.6603 47.7595 53.9669 47.7595 54.345V61.2062C47.7595 61.976 47.1336 62.6019 46.3638 62.6019H45.9772C45.2075 62.6019 44.5815 61.976 44.5815 61.2062V45.9724C44.5815 44.558 45.0811 43.1822 45.9885 42.0978C47.102 40.767 47.7152 39.0791 47.7152 37.3448V37.2612H58.8027V40.6265C58.8027 40.8351 58.8976 41.0321 59.0608 41.1622C61.6482 43.2237 63.3735 46.4144 64.515 48.526ZM59.6533 35.8913H46.9922C46.1122 35.8913 45.3966 35.1757 45.3966 34.2961V28.4691C45.8159 28.5427 46.2426 28.5808 46.6725 28.5808L61.2481 28.5811V34.2961C61.2482 35.1758 60.5328 35.8913 59.6533 35.8913ZM41.3275 12.9897C41.5361 12.9897 41.7334 12.8947 41.8631 12.7316C43.9255 10.1433 47.1173 8.4179 49.2292 7.27637C49.3004 7.23688 55.0814 4.03569 54.7227 4.23426C55.4757 3.81737 56.4146 3.99916 56.957 4.66794C57.6567 5.53093 57.3974 6.81194 56.4267 7.33856L51.0501 10.2595C50.7752 10.4093 50.6361 10.7263 50.7137 11.0298C50.7906 11.3335 51.0642 11.5462 51.3771 11.5462L63.6864 11.5465C64.4562 11.5465 65.0821 12.1728 65.0821 12.9424C65.0821 13.7117 64.4566 14.3375 63.6874 14.3379L55.0498 14.3377C54.6713 14.3377 54.3651 14.6443 54.3651 15.0224C54.3651 15.4005 54.6714 15.7071 55.0498 15.7071C56.3895 15.7071 65.5757 15.7074 67.083 15.7074C67.8527 15.7074 68.4786 16.3333 68.4786 17.103C68.4786 17.8728 67.8527 18.4987 67.083 18.4987L55.0498 18.4984C54.6713 18.4984 54.3651 18.805 54.3651 19.1832C54.3651 19.5613 54.6714 19.8679 55.0498 19.8679L65.385 19.8682C66.1548 19.8682 66.7807 20.4941 66.7807 21.2638C66.7807 22.0336 66.1541 22.6595 65.3843 22.6595H55.0498C54.6687 22.6595 54.361 22.9733 54.361 23.3483C54.361 23.7264 54.6673 24.033 55.0457 24.033L61.9069 24.0333C62.6766 24.0333 63.3025 24.6592 63.3025 25.429V25.8156C63.3025 26.5853 62.6766 27.2112 61.9069 27.2112L46.6725 27.211C45.2581 27.211 43.8826 26.7111 42.7986 25.8036C41.4678 24.6905 39.7799 24.0773 38.0453 24.0773H37.9617V12.9895L41.3275 12.9897ZM34.9966 10.5438C35.8766 10.5438 36.5923 11.2594 36.5923 12.1391L36.5916 24.8005C36.5916 25.6803 35.8759 26.3958 34.9966 26.3958L26.9771 26.3955C27.459 25.3973 27.7188 24.2969 27.7188 23.1754V10.5436L34.9966 10.5438ZM6.2746 20.3611C5.56168 19.0449 3.37226 15.1249 3.37226 15.1249C2.95494 14.3726 3.13758 13.4333 3.80566 12.8914C4.66512 12.1934 5.94797 12.4488 6.47656 13.4214L9.39752 18.798C9.54659 19.0729 9.86222 19.2136 10.1678 19.1346C10.4715 19.0574 10.6842 18.7842 10.6842 18.4709V6.16192C10.6842 5.39215 11.3101 4.76624 12.0798 4.76624C12.8496 4.76624 13.4755 5.39215 13.4755 6.16192V14.7983C13.4755 15.1764 13.7818 15.483 14.1602 15.483C14.5388 15.483 14.845 15.1764 14.845 14.7983C14.845 11.9899 14.845 5.55152 14.845 2.76554C14.845 1.99577 15.4709 1.36986 16.2406 1.36986C17.0104 1.36986 17.6363 1.99577 17.6363 2.76554V14.7983C17.6363 15.1764 17.9426 15.483 18.321 15.483C18.6994 15.483 19.0057 15.1764 19.0057 14.7983V4.46373C19.0057 3.69396 19.6316 3.06805 20.4014 3.06805C21.1712 3.06805 21.7971 3.69396 21.7971 4.46373V14.7983C21.7971 15.1746 22.1067 15.4874 22.4866 15.4874C22.8651 15.4874 23.1713 15.1808 23.1713 14.8026V7.94106C23.1713 7.1713 23.7972 6.54539 24.567 6.54539H24.9536C25.7233 6.54539 26.3492 7.1713 26.3492 7.94106V23.1754C26.3492 24.5898 25.8497 25.9656 24.9423 27.05C23.8288 28.3801 23.2156 30.0683 23.2156 31.8033V31.8869H12.1281V28.5212C12.1281 28.3126 12.0332 28.1155 11.87 27.9855C9.35521 25.9824 7.71019 23.0162 6.2746 20.3611ZM9.68184 34.8518C9.68184 33.972 10.3974 33.2565 11.2775 33.2565H23.9005H23.9385C24.8186 33.2565 25.5342 33.9721 25.5342 34.8518V43.8541C23.7039 42.5514 18.0086 39.4672 15.7895 38.2459C14.4567 37.5063 12.7895 37.8305 11.8285 39.0147C10.5909 40.5406 11.0435 42.815 12.7681 43.7516L15.7768 45.386L9.68198 45.3861L9.68184 34.8518ZM2.76582 50.9171L14.799 50.9168C15.1775 50.9168 15.4837 50.6102 15.4837 50.2321C15.4837 49.854 15.1774 49.5474 14.799 49.5474H6.16304C5.39328 49.5474 4.76737 48.9214 4.76737 48.1517C4.76737 47.3819 5.39328 46.756 6.16304 46.756L18.4716 46.7557C18.7846 46.7557 19.0581 46.543 19.1351 46.2394C19.2126 45.9358 19.0736 45.6188 18.7987 45.4691L13.4221 42.5481C12.4488 42.0201 12.1948 40.7372 12.8918 39.8775C13.434 39.2091 14.3736 39.0269 15.1241 39.4428C21.4012 42.9027 25.4902 44.808 27.9864 47.9411C28.1161 48.1043 28.3134 48.1992 28.522 48.1992H31.8878V59.287H31.8041C30.0694 59.287 28.3815 59.9002 27.0509 61.0134C25.9662 61.9208 24.59 62.4208 23.1763 62.4208H7.94176C7.172 62.4208 6.54609 61.7949 6.54609 61.0251V60.6385C6.54609 59.8688 7.172 59.2429 7.94176 59.2429L14.8036 59.2426C15.1822 59.2426 15.4884 58.936 15.4884 58.5579C15.4884 58.1824 15.1795 57.8691 14.7988 57.8691H4.46443C3.69467 57.8691 3.06876 57.2431 3.06876 56.4734C3.06876 55.7036 3.69467 55.0777 4.46443 55.0777L14.799 55.0774C15.1775 55.0774 15.4837 54.7708 15.4837 54.3927C15.4837 54.0146 15.1774 53.708 14.799 53.708L2.76582 53.7083C1.99605 53.7083 1.37014 53.0824 1.37014 52.3126C1.37014 51.5428 1.99605 50.9171 2.76582 50.9171Z" fill="#1D1C1A"/>
<path d="M34.536 19.7415V13.2833C34.536 12.9052 34.2297 12.5985 33.8513 12.5985L31.3214 12.5983C30.9436 12.5983 30.6367 12.9049 30.6367 13.283C30.6367 13.6611 30.943 13.9677 31.3214 13.9677L33.1664 13.968V19.7415C33.1664 20.1196 33.4728 20.4262 33.8512 20.4262C34.2297 20.4262 34.536 20.1196 34.536 19.7415Z" fill="#1D1C1A"/>
</svg>
