<svg width="62" height="62" viewBox="0 0 62 62" fill="none" xmlns="http://www.w3.org/2000/svg">
<g clip-path="url(#clip0_400_1156)">
<path d="M35.8666 54.7926L31.9684 58.6928V45.6631C31.9684 45.1283 31.5344 44.6943 30.9996 44.6943C30.4649 44.6943 30.0309 45.1283 30.0309 45.6631V58.6928L26.1307 54.7926C25.7529 54.4148 25.1387 54.4148 24.7609 54.7926C24.3831 55.1704 24.3831 55.7846 24.7609 56.1624L30.3138 61.7153C30.4959 61.8974 30.742 62.0001 30.9996 62.0001C31.2573 62.0001 31.5034 61.8974 31.6855 61.7172L37.2365 56.1643C37.6143 55.7865 37.6143 55.1723 37.2365 54.7945C36.8586 54.4167 36.2445 54.4148 35.8666 54.7926Z" fill="#B49077"/>
<path d="M16.337 30.0294H3.30731L7.20556 26.1292C7.58337 25.7514 7.58337 25.1372 7.20556 24.7594C6.82775 24.3816 6.21356 24.3816 5.83575 24.7594L0.282875 30.3123C0.102687 30.4944 0 30.7405 0 30.9982C0 31.2559 0.102687 31.5019 0.282875 31.6841L5.83575 37.235C6.02562 37.4249 6.27362 37.5179 6.52162 37.5179C6.76962 37.5179 7.01762 37.4229 7.2075 37.235C7.58531 36.8572 7.58531 36.243 7.2075 35.8652L3.30925 31.9669H16.3389C16.8737 31.9669 17.3077 31.5329 17.3077 30.9982C17.3077 30.4634 16.8717 30.0294 16.337 30.0294Z" fill="#B49077"/>
<path d="M26.1327 7.20557L30.0309 3.30732V16.337C30.0309 16.8718 30.4649 17.3058 30.9997 17.3058C31.5344 17.3058 31.9684 16.8718 31.9684 16.337V3.30732L35.8686 7.20557C36.0585 7.39545 36.3065 7.48845 36.5545 7.48845C36.8025 7.48845 37.0505 7.39351 37.2404 7.20557C37.6182 6.82776 37.6182 6.21357 37.2404 5.83576L31.6875 0.284824C31.3097 -0.0929883 30.6955 -0.0929883 30.3177 0.284824L24.7668 5.83576C24.3889 6.21357 24.3889 6.82776 24.7668 7.20557C25.1446 7.58339 25.7549 7.58339 26.1327 7.20557Z" fill="#B49077"/>
<path d="M61.7172 30.314L56.1643 24.7631C55.7865 24.3853 55.1723 24.3853 54.7945 24.7631C54.4167 25.1409 54.4167 25.7551 54.7945 26.1329L58.6928 30.0312H45.6631C45.1283 30.0312 44.6943 30.4652 44.6943 30.9999C44.6943 31.5347 45.1283 31.9687 45.6631 31.9687H58.6928L54.7945 35.8688C54.4167 36.2467 54.4167 36.8608 54.7945 37.2387C54.9844 37.4285 55.2324 37.5215 55.4804 37.5215C55.7284 37.5215 55.9764 37.4266 56.1663 37.2387L61.7191 31.6858C61.8974 31.5017 62.0001 31.2557 62.0001 30.998C62.0001 30.7403 61.8974 30.4942 61.7172 30.314Z" fill="#B49077"/>
<path d="M40.2435 20.7854H21.7539C21.2192 20.7854 20.7852 21.2194 20.7852 21.7542V40.2437C20.7852 40.7785 21.2192 41.2125 21.7539 41.2125H40.2435C40.7782 41.2125 41.2122 40.7785 41.2122 40.2437V21.7542C41.2122 21.2175 40.7802 20.7854 40.2435 20.7854ZM39.2747 39.275H22.7227V22.7229H39.2747V39.275Z" fill="#B49077"/>
</g>
<defs>
<clipPath id="clip0_400_1156">
<rect width="62" height="62" fill="white"/>
</clipPath>
</defs>
</svg>
