<svg width="44" height="44" viewBox="0 0 44 44" fill="none" xmlns="http://www.w3.org/2000/svg">
<path d="M44 12.8906V41.4219H30.8885C27.2856 41.4219 25.3907 43.8649 25.1977 44H18.8023C18.6065 43.863 16.7387 41.4219 13.1115 41.4219H0V10.3125H2.57812V38.8438H13.1227C17.1516 38.8438 19.3942 41.1169 19.953 41.4219H24.047C24.6055 41.117 26.8488 38.8438 30.8773 38.8438H41.4219V12.8906H44Z" fill="#CCA967"/>
<path d="M18.1268 37.2943C16.561 36.6171 14.8672 36.2656 13.1227 36.2656H5.15625V5.15625H7.73438V31.1094H11.6016C15.1147 31.1094 17.9884 33.8602 18.1268 37.2943Z" fill="#CCA967"/>
<path d="M30.8771 7.73438C28.1465 7.73438 25.5166 8.44972 23.1982 9.81759C23.2581 10.4032 23.2888 10.9986 23.2888 11.6016V38.7897C23.4615 38.6645 23.6589 38.5257 23.8838 38.3781C27.864 35.7234 30.6066 36.2656 38.8435 36.2656V7.73438H30.8771Z" fill="#CCA967"/>
<path d="M20.7109 37.5547C20.7109 32.5792 16.6245 28.5312 11.6016 28.5312H10.3125V0C16.757 0 20.7109 5.20446 20.7109 11.6016V37.5547Z" fill="#CCA967"/>
</svg>
