<svg width="50" height="31" viewBox="0 0 50 31" fill="none" xmlns="http://www.w3.org/2000/svg">
<path d="M41.9736 15.6716C42.7674 15.6716 43.5434 15.907 44.2035 16.3481C44.8635 16.7891 45.378 17.416 45.6818 18.1494C45.9856 18.8828 46.0651 19.6898 45.9102 20.4684C45.7553 21.247 45.373 21.9622 44.8117 22.5235C44.2504 23.0848 43.5352 23.4671 42.7566 23.622C41.978 23.7769 41.171 23.6974 40.4376 23.3936C39.7042 23.0898 39.0773 22.5753 38.6363 21.9153C38.1952 21.2552 37.9598 20.4792 37.9598 19.6854C37.9609 18.6212 38.3842 17.6009 39.1366 16.8485C39.8891 16.096 40.9094 15.6727 41.9736 15.6716Z" fill="#CCA967"/>
<path d="M41.9735 11.6572C43.5612 11.6572 45.1132 12.128 46.4333 13.0101C47.7534 13.8922 48.7823 15.1459 49.3899 16.6127C49.9975 18.0796 50.1565 19.6936 49.8467 21.2508C49.537 22.808 48.7724 24.2383 47.6498 25.361C46.5271 26.4837 45.0968 27.2482 43.5396 27.558C41.9824 27.8677 40.3683 27.7087 38.9015 27.1011C37.4347 26.4936 36.1809 25.4647 35.2989 24.1445C34.4168 22.8244 33.946 21.2724 33.946 19.6847C33.9486 17.5565 34.7952 15.5162 36.3001 14.0113C37.8049 12.5064 39.8453 11.6598 41.9735 11.6572ZM41.9735 24.8704C42.9991 24.8704 44.0017 24.5662 44.8545 23.9964C45.7072 23.4266 46.3719 22.6167 46.7644 21.6692C47.1569 20.7216 47.2596 19.679 47.0595 18.673C46.8594 17.6671 46.3655 16.7431 45.6403 16.0179C44.9151 15.2927 43.9911 14.7988 42.9852 14.5987C41.9792 14.3986 40.9366 14.5013 39.989 14.8938C39.0415 15.2863 38.2316 15.951 37.6618 16.8037C37.092 17.6565 36.7878 18.6591 36.7878 19.6847C36.7893 21.0596 37.3362 22.3777 38.3083 23.3499C39.2805 24.322 40.5986 24.8689 41.9735 24.8704Z" fill="#CCA967"/>
<path d="M8.02756 23.6985C5.811 23.6985 4.01412 21.9016 4.01412 19.6851C4.01412 17.4685 5.811 15.6716 8.02756 15.6716C10.2441 15.6716 12.041 17.4685 12.041 19.6851C12.041 21.9016 10.2441 23.6985 8.02756 23.6985Z" fill="#CCA967"/>
<path d="M8.02769 11.6572C9.61537 11.6572 11.1674 12.128 12.4875 13.0101C13.8076 13.8922 14.8365 15.1459 15.4441 16.6127C16.0517 18.0796 16.2107 19.6936 15.9009 21.2508C15.5912 22.808 14.8266 24.2383 13.704 25.361C12.5813 26.4837 11.1509 27.2482 9.59377 27.558C8.03659 27.8677 6.42253 27.7087 4.9557 27.1011C3.48887 26.4936 2.23515 25.4647 1.35308 24.1445C0.471005 22.8244 0.000200272 21.2724 0.000200272 19.6847C0.00278473 17.5565 0.849364 15.5162 2.35425 14.0113C3.85914 12.5064 5.89946 11.6598 8.02769 11.6572ZM8.02769 24.8704C9.05331 24.8704 10.0559 24.5662 10.9087 23.9964C11.7614 23.4266 12.4261 22.6167 12.8186 21.6692C13.2111 20.7216 13.3138 19.679 13.1137 18.673C12.9136 17.6671 12.4197 16.7431 11.6945 16.0179C10.9693 15.2927 10.0453 14.7988 9.03935 14.5987C8.03344 14.3986 6.99078 14.5013 6.04323 14.8938C5.09568 15.2863 4.28579 15.951 3.71598 16.8037C3.14618 17.6565 2.84205 18.6591 2.84205 19.6847C2.84355 21.0596 3.39037 22.3777 4.36254 23.3499C5.33471 24.322 6.65283 24.8689 8.02769 24.8704Z" fill="#CCA967"/>
<path d="M37.541 14.2933C37.6441 14.2932 37.7454 14.2659 37.8346 14.2142C37.9238 14.1624 37.9978 14.088 38.049 13.9985C38.1003 13.909 38.127 13.8076 38.1265 13.7045C38.1259 13.6013 38.0982 13.5002 38.0461 13.4112L30.3646 0.289946C30.3129 0.201694 30.2391 0.128498 30.1504 0.0776319C30.0617 0.0267661 29.9612 2.22996e-06 29.8589 0H25.6746C25.5192 0 25.3701 0.0617332 25.2603 0.17162C25.1504 0.281506 25.0886 0.430545 25.0886 0.585948C25.0886 0.741351 25.1504 0.890388 25.2603 1.00027C25.3701 1.11016 25.5192 1.1719 25.6746 1.1719H29.523L37.0348 14.0033C37.0865 14.0916 37.1605 14.1649 37.2493 14.2158C37.3381 14.2667 37.4386 14.2934 37.541 14.2933Z" fill="#CCA967"/>
<path d="M40.1402 13.057C40.2433 13.0569 40.3446 13.0296 40.4337 12.9778C40.5229 12.9261 40.5969 12.8517 40.6481 12.7622C40.6994 12.6727 40.7261 12.5713 40.7256 12.4682C40.7251 12.3651 40.6974 12.2639 40.6453 12.1749L33.6875 0.289946C33.6359 0.201694 33.562 0.128498 33.4733 0.0776319C33.3846 0.0267661 33.2841 2.22996e-06 33.1819 0H28.9975C28.8421 0 28.6931 0.0617332 28.5832 0.17162C28.4733 0.281506 28.4116 0.430545 28.4116 0.585948C28.4116 0.741351 28.4733 0.890388 28.5832 1.00027C28.6931 1.11016 28.8421 1.1719 28.9975 1.1719H32.8459L39.634 12.7669C39.6857 12.8553 39.7596 12.9285 39.8484 12.9794C39.9372 13.0303 40.0378 13.057 40.1402 13.057Z" fill="#CCA967"/>
<path d="M33.6861 2.02271C33.7374 1.93324 33.8115 1.85889 33.9007 1.80719C33.99 1.75549 34.0913 1.72827 34.1944 1.72827H37.6113C38.5449 1.72781 39.4406 2.0974 40.1022 2.75608C40.7638 3.41476 41.1374 4.30881 41.1411 5.2424C41.1448 6.17598 40.7783 7.07296 40.1219 7.73686C39.4655 8.40075 38.5728 8.77742 37.6392 8.78435C37.537 8.78435 37.4365 8.75759 37.3478 8.70672C37.2591 8.65586 37.1852 8.58266 37.1335 8.49441L33.6888 2.61022C33.6366 2.52119 33.6089 2.41998 33.6085 2.31682C33.608 2.21366 33.6348 2.1122 33.6861 2.02271Z" fill="#CCA967"/>
<path d="M8.75039 3.60993C9.14611 3.38537 9.59518 3.27199 10.0501 3.28179C10.505 3.29159 10.9487 3.4242 11.3344 3.66559L16.187 6.65686H19.5063H19.5096H25.0007C25.1561 6.65686 25.3051 6.59512 25.415 6.48523C25.5249 6.37535 25.5866 6.22631 25.5866 6.07091C25.5866 5.9155 25.5249 5.76647 25.415 5.65658C25.3051 5.54669 25.1561 5.48496 25.0007 5.48496H20.5444C21.6165 3.88287 23.2562 2.74685 25.1329 2.30592C27.0095 1.865 28.9836 2.15195 30.657 3.10894L29.5232 1.17238H25.6745C25.5191 1.17238 25.3701 1.11065 25.2602 1.00076C25.1503 0.890876 25.0886 0.741839 25.0886 0.586436C25.0886 0.431033 25.1503 0.281995 25.2602 0.172108C25.3701 0.0622215 25.5191 0.000488324 25.6745 0.000488324H29.8592C29.9612 0.000449142 30.0615 0.027107 30.1501 0.0778163C30.2387 0.128526 30.3124 0.201521 30.3641 0.289555L33.0213 4.8287L38.0458 13.4109C38.0861 13.4773 38.1128 13.5511 38.1244 13.6279C38.1359 13.7047 38.132 13.7831 38.113 13.8584C38.094 13.9337 38.0602 14.0045 38.0135 14.0666C37.9669 14.1288 37.9084 14.181 37.8413 14.2203C37.7743 14.2596 37.7002 14.2852 37.6232 14.2956C37.5462 14.306 37.4679 14.3009 37.3929 14.2808C37.3178 14.2606 37.2476 14.2257 37.1861 14.1781C37.1247 14.1306 37.0734 14.0713 37.0351 14.0037L35.8114 11.9138L33.3133 17.0594C32.6202 18.4736 31.5454 19.6659 30.2105 20.5017C28.8755 21.3374 27.3335 21.7833 25.7585 21.789H15.7759C15.9613 21.1031 16.0555 20.3959 16.0562 19.6854C16.0563 19.3737 16.038 19.0623 16.0015 18.7528C15.9561 18.357 15.8807 17.9652 15.7759 17.5809H16.5601L17.9371 13.9041C18.0478 13.6069 18.052 13.2804 17.9488 12.9805C17.8457 12.6806 17.6417 12.4258 17.3716 12.2595L7.72108 6.33849C7.63587 6.28599 7.56549 6.21259 7.51661 6.12525C7.46773 6.03792 7.44197 5.93954 7.44177 5.83946C7.43858 5.38437 7.55852 4.93688 7.78889 4.54439C8.01926 4.1519 8.35149 3.82901 8.75039 3.60993ZM21.4186 12.8647L25.9123 15.9464H23.208C23.0526 15.9464 22.9035 16.0081 22.7936 16.118C22.6838 16.2279 22.622 16.3769 22.622 16.5323C22.622 16.6877 22.6838 16.8368 22.7936 16.9466C22.9035 17.0565 23.0526 17.1183 23.208 17.1183H28.3925C28.3955 17.1183 28.3983 17.1183 28.4011 17.1183H28.4064C28.8875 17.1183 29.3588 16.9816 29.7653 16.7243C30.1718 16.4669 30.4969 16.0994 30.7027 15.6645L32.137 12.6316C32.1793 12.5423 32.1983 12.4437 32.1922 12.3451C32.1862 12.2465 32.1553 12.151 32.1024 12.0675C32.0496 11.984 31.9765 11.9153 31.8899 11.8676C31.8033 11.82 31.7061 11.795 31.6073 11.795H21.75C21.6249 11.795 21.5031 11.835 21.4023 11.9092C21.3016 11.9835 21.2272 12.088 21.1902 12.2075C21.1531 12.327 21.1553 12.4552 21.1964 12.5734C21.2375 12.6916 21.3154 12.7935 21.4186 12.8643V12.8647Z" fill="#CCA967"/>
<path d="M29.6433 15.1632C29.5587 15.3421 29.4363 15.5005 29.2845 15.6274C29.1327 15.7544 28.9551 15.8469 28.7641 15.8985C28.5731 15.9501 28.3731 15.9597 28.1781 15.9265C27.983 15.8933 27.7974 15.8181 27.6342 15.7062L23.64 12.9673H30.6812L29.6433 15.1632Z" fill="#CCA967"/>
<path d="M0.596489 26.5408H49.4048C49.5602 26.5408 49.7092 26.6025 49.8191 26.7124C49.929 26.8223 49.9907 26.9713 49.9907 27.1267V28.2252C49.99 28.8984 49.7222 29.5438 49.2462 30.0198C48.7702 30.4958 48.1248 30.7635 47.4516 30.7643H2.54965C1.87646 30.7635 1.23107 30.4958 0.755058 30.0198C0.279045 29.5438 0.0112915 28.8984 0.0105438 28.2252V27.1267C0.0105438 26.9713 0.0722771 26.8223 0.182167 26.7124C0.292053 26.6025 0.441086 26.5408 0.596489 26.5408Z" fill="#CCA967"/>
</svg>
