<svg width="50" height="38" viewBox="0 0 50 38" fill="none" xmlns="http://www.w3.org/2000/svg">
<path fill-rule="evenodd" clip-rule="evenodd" d="M8.99268 3.14014V22.1378H40.6048V3.14014H8.99268Z" fill="#CCA967"/>
<path fill-rule="evenodd" clip-rule="evenodd" d="M41.2046 23.3376H8.39264C8.06128 23.3376 7.7927 23.069 7.7927 22.7377V2.5399C7.7927 2.2085 8.06128 1.9401 8.39264 1.9401L41.2046 1.94006C41.5359 1.94006 41.8045 2.2086 41.8045 2.53993L41.8045 22.7376C41.8045 23.069 41.5359 23.3377 41.2046 23.3376ZM5.8516 0.528894L5.8517 25.2788H43.7456V0.528827C43.7456 0.237294 43.5085 0.000101463 43.2168 0.000101463L6.38042 0C6.08886 0 5.8516 0.237361 5.8516 0.528894Z" fill="#CCA967"/>
<path fill-rule="evenodd" clip-rule="evenodd" d="M44.0207 26.4788H5.58841L0.469727 34.8661L49.4927 34.8661L44.0207 26.4788ZM23.5261 29.015C23.5262 29.3463 23.2575 29.6149 22.9262 29.6149H21.9736C21.6423 29.6149 21.3736 29.3464 21.3736 29.015C21.3736 28.6836 21.6423 28.415 21.9736 28.415L22.9262 28.4149C23.2575 28.4149 23.5261 28.6837 23.5261 29.015ZM18.8288 29.015C18.8288 29.3463 18.5603 29.6149 18.2288 29.6149H17.2764C16.9451 29.6149 16.6764 29.3464 16.6764 29.015C16.6764 28.6836 16.945 28.415 17.2764 28.415L18.2288 28.4149C18.5603 28.4149 18.8288 28.6837 18.8288 29.015ZM14.1315 29.015C14.1315 29.3463 13.8629 29.6149 13.5315 29.6149H12.579C12.2477 29.6149 11.979 29.3464 11.979 29.015C11.979 28.6836 12.2477 28.415 12.579 28.415L13.5315 28.4149C13.8629 28.4149 14.1315 28.6837 14.1315 29.015ZM9.43429 29.015C9.43429 29.3463 9.16572 29.6149 8.83439 29.6149H7.88182C7.55049 29.6149 7.28188 29.3464 7.28188 29.015C7.28188 28.6836 7.55049 28.415 7.88182 28.415L8.83439 28.4149C9.16572 28.4149 9.43429 28.6837 9.43429 29.015ZM6.48519 31.7311C6.81652 31.7311 7.08509 31.9998 7.08509 32.3312C7.08513 32.6624 6.81652 32.931 6.48519 32.931H5.53255C5.20122 32.931 4.93262 32.6625 4.93262 32.3312C4.93262 31.9997 5.20122 31.7312 5.53255 31.7312L6.48519 31.7311ZM26.671 29.6149C26.3396 29.6149 26.071 29.3464 26.071 29.015C26.071 28.6836 26.3396 28.415 26.671 28.415L27.6234 28.4149C27.9547 28.4149 28.2234 28.6837 28.2234 29.015C28.2234 29.3463 27.9547 29.6149 27.6234 29.6149H26.671ZM37.8148 32.3312C37.8149 31.9997 38.0834 31.7312 38.4147 31.7312L39.3673 31.7311C39.6986 31.7311 39.9672 31.9998 39.9672 32.3312C39.9672 32.6624 39.6986 32.931 39.3673 32.931H38.4147C38.0834 32.931 37.8148 32.6625 37.8148 32.3312ZM43.112 32.931C42.7806 32.931 42.512 32.6625 42.512 32.3312C42.512 31.9997 42.7806 31.7312 43.112 31.7312L44.0645 31.7311C44.3959 31.7311 44.6644 31.9998 44.6644 32.3312C44.6645 32.6624 44.3958 32.931 44.0645 32.931H43.112ZM19.6256 31.7312L29.9728 31.7311C30.3041 31.7311 30.5726 31.9998 30.5726 32.3312C30.5727 32.6624 30.3041 32.931 29.9728 32.931H19.6256C19.2942 32.931 19.0257 32.6625 19.0257 32.3312C19.0257 31.9997 19.2942 31.7312 19.6256 31.7312ZM16.4796 32.3312C16.4796 32.6624 16.211 32.931 15.8797 32.931H14.9271C14.5958 32.931 14.3272 32.6625 14.3272 32.3312C14.3272 31.9997 14.5958 31.7312 14.9271 31.7312L15.8797 31.7311C16.211 31.7311 16.4796 31.9998 16.4796 32.3312ZM11.7824 32.3312C11.7824 32.6624 11.5137 32.931 11.1824 32.931H10.2299C9.89844 32.931 9.62991 32.6625 9.62991 32.3312C9.62991 31.9997 9.89844 31.7312 10.2299 31.7312L11.1824 31.7311C11.5138 31.7311 11.7824 31.9998 11.7824 32.3312ZM33.7175 32.931C33.3861 32.931 33.1175 32.6625 33.1175 32.3312C33.1175 31.9997 33.3861 31.7312 33.7175 31.7312L34.67 31.7311C35.0014 31.7311 35.2699 31.9998 35.2699 32.3312C35.2699 32.6624 35.0014 32.931 34.67 32.931H33.7175ZM31.3694 29.6149C31.038 29.6149 30.7694 29.3464 30.7694 29.015C30.7694 28.6836 31.038 28.415 31.3694 28.415L32.3208 28.4149C32.6521 28.4149 32.9207 28.6837 32.9207 29.015C32.9207 29.3463 32.6521 29.6149 32.3208 29.6149H31.3694ZM36.0666 29.6149C35.7353 29.6149 35.4667 29.3464 35.4667 29.015C35.4667 28.6836 35.7353 28.415 36.0666 28.415L37.0192 28.4149C37.3506 28.4149 37.6191 28.6837 37.6191 29.015C37.6191 29.3463 37.3506 29.6149 37.0192 29.6149H36.0666ZM40.764 29.6149C40.4326 29.6149 40.164 29.3464 40.164 29.015C40.164 28.6836 40.4326 28.415 40.764 28.415L41.7165 28.4149C42.0479 28.4149 42.3165 28.6837 42.3165 29.015C42.3165 29.3463 42.0479 29.6149 41.7165 29.6149H40.764Z" fill="#CCA967"/>
<path fill-rule="evenodd" clip-rule="evenodd" d="M50 36.0662H0V37.7379C0 37.8629 0.101577 37.965 0.226385 37.965L49.7735 37.965C49.8984 37.965 49.9999 37.863 49.9999 37.738L50 36.0662Z" fill="#CCA967"/>
</svg>
