<svg width="50" height="50" viewBox="0 0 50 50" fill="none" xmlns="http://www.w3.org/2000/svg">
<g clip-path="url(#clip0_266_716)">
<path d="M48.5352 2.86592H47.1341V1.46484C47.1341 0.655859 46.4782 0 45.6692 0C44.8603 0 44.2044 0.655859 44.2044 1.46484V2.86592H42.8032C41.9942 2.86592 41.3384 3.52178 41.3384 4.33076C41.3384 5.13975 41.9942 5.79561 42.8032 5.79561H44.2044V7.19678C44.2044 8.00576 44.8603 8.66162 45.6692 8.66162C46.4782 8.66162 47.1341 8.00576 47.1341 7.19678V5.79561H48.5352C49.3441 5.79561 50 5.13975 50 4.33076C50 3.52178 49.3441 2.86592 48.5352 2.86592Z" fill="#CCA967"/>
<path d="M7.19668 31.3476H5.79561V29.9465C5.79561 29.1375 5.13975 28.4817 4.33076 28.4817C3.52178 28.4817 2.86592 29.1375 2.86592 29.9465V31.3476H1.46484C0.655859 31.3476 0 32.0035 0 32.8124C0 33.6214 0.655859 34.2773 1.46484 34.2773H2.86592V35.6784C2.86592 36.4874 3.52178 37.1432 4.33076 37.1432C5.13975 37.1432 5.79561 36.4874 5.79561 35.6784V34.2773H7.19668C8.00566 34.2773 8.66152 33.6214 8.66152 32.8124C8.66152 32.0035 8.00576 31.3476 7.19668 31.3476Z" fill="#CCA967"/>
<path d="M5.04297 7.09888C5.85198 7.09888 6.50781 6.44304 6.50781 5.63403C6.50781 4.82502 5.85198 4.16919 5.04297 4.16919C4.23396 4.16919 3.57812 4.82502 3.57812 5.63403C3.57812 6.44304 4.23396 7.09888 5.04297 7.09888Z" fill="#CCA967"/>
<path d="M44.1157 30.7114C44.9247 30.7114 45.5806 30.0556 45.5806 29.2466C45.5806 28.4376 44.9247 27.7817 44.1157 27.7817C43.3067 27.7817 42.6509 28.4376 42.6509 29.2466C42.6509 30.0556 43.3067 30.7114 44.1157 30.7114Z" fill="#CCA967"/>
<path d="M42.0137 18.3057H36.9463C36.75 22.96 35.6172 27.3066 33.708 30.6738C33.448 31.1324 29.0088 39.2578 29.0088 39.2578H20.9912C20.9912 39.2578 16.5527 31.1338 16.292 30.6738C14.3828 27.3066 13.25 22.96 13.0537 18.3057H7.98633C8.22334 21.0824 9.12803 23.6713 10.538 25.9113C12.9134 30.3602 15.2887 34.809 17.6641 39.2578H17.4199C16.6163 39.2578 15.9551 39.919 15.9551 40.7227C15.9551 41.5263 16.6163 42.1875 17.4199 42.1875H18.6523V45.8887C18.6523 48.1553 20.4971 50 22.7637 50H27.2363C29.5029 50 31.3477 48.1553 31.3477 45.8887V42.1875H32.5801C33.3837 42.1875 34.0449 41.5263 34.0449 40.7227C34.0449 39.919 33.3837 39.2578 32.5801 39.2578H32.3359C34.7111 34.8093 37.0863 30.3606 39.4615 25.9121C40.8718 23.6718 41.7766 21.0827 42.0137 18.3057Z" fill="#CCA967"/>
<path d="M32.8926 1.7002C33.1748 2.1123 33.4473 2.54688 33.708 3.00684C35.6172 6.375 36.75 10.7217 36.9463 15.376H42.0137C41.5059 9.42773 37.9365 4.34082 32.8926 1.7002Z" fill="#CCA967"/>
<path d="M16.292 3.00684C16.5527 2.54688 16.8252 2.1123 17.1074 1.7002C12.0635 4.34082 8.49414 9.42773 7.98633 15.376H13.0537C13.25 10.7217 14.3828 6.375 16.292 3.00684Z" fill="#CCA967"/>
<path d="M34.0127 18.3057H26.4648V33.6816C30.4512 32.3965 33.6475 25.9863 34.0127 18.3057Z" fill="#CCA967"/>
<path d="M23.5352 33.6816V18.3057H15.9873C16.3525 25.9863 19.5488 32.3965 23.5352 33.6816Z" fill="#CCA967"/>
<path d="M23.5352 15.376V0C19.5488 1.28516 16.3525 7.69531 15.9873 15.376H23.5352Z" fill="#CCA967"/>
<path d="M26.4648 0V15.376H34.0127C33.6475 7.69531 30.4512 1.28516 26.4648 0Z" fill="#CCA967"/>
<path d="M44.9434 16.8408C44.9434 16.0318 44.2875 15.376 43.4785 15.376H42.0137V18.3057H43.4785C44.2875 18.3057 44.9434 17.6498 44.9434 16.8408Z" fill="#CCA967"/>
<path d="M6.52148 15.376C5.7125 15.376 5.05664 16.0318 5.05664 16.8408C5.05664 17.6498 5.7125 18.3057 6.52148 18.3057H7.98633V15.376H6.52148Z" fill="#CCA967"/>
</g>
<defs>
<clipPath id="clip0_266_716">
<rect width="50" height="50" fill="white"/>
</clipPath>
</defs>
</svg>
