<svg width="72" height="45" viewBox="0 0 72 45" fill="none" xmlns="http://www.w3.org/2000/svg">
<path d="M60.1781 22.4688C61.3162 22.4688 62.4288 22.8063 63.3752 23.4386C64.3215 24.0709 65.0591 24.9696 65.4946 26.0212C65.9302 27.0727 66.0442 28.2297 65.8221 29.346C65.6001 30.4623 65.052 31.4877 64.2472 32.2925C63.4424 33.0973 62.417 33.6453 61.3008 33.8674C60.1845 34.0894 59.0274 33.9755 57.9759 33.5399C56.9244 33.1044 56.0256 32.3668 55.3933 31.4204C54.761 30.4741 54.4235 29.3615 54.4235 28.2233C54.4251 26.6976 55.0319 25.2348 56.1107 24.156C57.1896 23.0771 58.6524 22.4703 60.1781 22.4688Z" fill="#BB9A65"/>
<path d="M60.1774 16.7129C62.4537 16.7129 64.6789 17.3879 66.5716 18.6525C68.4642 19.9172 69.9394 21.7147 70.8105 23.8177C71.6816 25.9207 71.9095 28.2349 71.4654 30.4674C71.0214 32.7 69.9252 34.7507 68.3156 36.3603C66.706 37.9699 64.6553 39.066 62.4227 39.5101C60.1902 39.9542 57.876 39.7263 55.773 38.8552C53.67 37.9841 51.8725 36.5089 50.6078 34.6163C49.3432 32.7236 48.6682 30.4984 48.6682 28.2221C48.6719 25.1708 49.8857 22.2455 52.0433 20.0879C54.2008 17.9304 57.1261 16.7166 60.1774 16.7129ZM60.1774 35.6569C61.6479 35.6569 63.0853 35.2208 64.3079 34.4039C65.5306 33.5869 66.4835 32.4258 67.0462 31.0673C67.609 29.7087 67.7562 28.2138 67.4693 26.7716C67.1824 25.3294 66.4743 24.0047 65.4346 22.9649C64.3948 21.9251 63.0701 21.217 61.6278 20.9302C60.1856 20.6433 58.6908 20.7905 57.3322 21.3533C55.9737 21.916 54.8126 22.8689 53.9956 24.0915C53.1787 25.3142 52.7426 26.7516 52.7426 28.2221C52.7448 30.1932 53.5288 32.0831 54.9226 33.4769C56.3164 34.8707 58.2062 35.6547 60.1774 35.6569Z" fill="#BB9A65"/>
<path d="M11.5066 33.9771C8.32869 33.9771 5.75246 31.4009 5.75246 28.2229C5.75246 25.045 8.32869 22.4688 11.5066 22.4688C14.6846 22.4688 17.2608 25.045 17.2608 28.2229C17.2608 31.4009 14.6846 33.9771 11.5066 33.9771Z" fill="#BB9A65"/>
<path d="M11.5094 16.7129C13.7857 16.7129 16.0109 17.3879 17.9036 18.6525C19.7963 19.9172 21.2714 21.7147 22.1425 23.8177C23.0136 25.9207 23.2416 28.2349 22.7975 30.4674C22.3534 32.7 21.2573 34.7507 19.6477 36.3603C18.0381 37.9699 15.9873 39.066 13.7548 39.5101C11.5222 39.9542 9.20808 39.7263 7.10505 38.8552C5.00202 37.9841 3.20453 36.5089 1.93988 34.6163C0.675236 32.7236 0.000232697 30.4984 0.000232697 28.2221C0.00393677 25.1708 1.2177 22.2455 3.37529 20.0879C5.53288 17.9304 8.45814 16.7166 11.5094 16.7129ZM11.5094 35.6569C12.9799 35.6569 14.4173 35.2208 15.64 34.4039C16.8626 33.5869 17.8155 32.4258 18.3783 31.0673C18.941 29.7087 19.0882 28.2138 18.8013 26.7716C18.5145 25.3294 17.8064 24.0047 16.7666 22.9649C15.7268 21.9251 14.4021 21.217 12.9599 20.9302C11.5177 20.6433 10.0228 20.7905 8.66426 21.3533C7.30574 21.916 6.14458 22.8689 5.32764 24.0915C4.5107 25.3142 4.07466 26.7516 4.07466 28.2221C4.07681 30.1932 4.8608 32.0831 6.25462 33.4769C7.64845 34.8707 9.53827 35.6547 11.5094 35.6569Z" fill="#BB9A65"/>
<path d="M53.8218 20.4927C53.9697 20.4925 54.1149 20.4534 54.2428 20.3792C54.3707 20.305 54.4767 20.1983 54.5502 20.07C54.6236 19.9417 54.6619 19.7963 54.6612 19.6484C54.6605 19.5005 54.6207 19.3555 54.546 19.2279L43.5328 0.415702C43.4588 0.289173 43.3529 0.18423 43.2257 0.111303C43.0985 0.0383752 42.9545 3.19714e-06 42.8079 0H36.8086C36.5858 0 36.3722 0.0885083 36.2146 0.246055C36.0571 0.403602 35.9686 0.617282 35.9686 0.840087C35.9686 1.06289 36.0571 1.27657 36.2146 1.43412C36.3722 1.59166 36.5858 1.68017 36.8086 1.68017H42.3262L53.0961 20.0768C53.1702 20.2035 53.2762 20.3085 53.4035 20.3815C53.5309 20.4544 53.6751 20.4928 53.8218 20.4927Z" fill="#BB9A65"/>
<path d="M57.5504 18.7201C57.6983 18.7199 57.8434 18.6808 57.9713 18.6066C58.0992 18.5324 58.2052 18.4258 58.2787 18.2975C58.3521 18.1692 58.3904 18.0238 58.3897 17.8759C58.389 17.7281 58.3493 17.583 58.2746 17.4555L48.2991 0.415702C48.225 0.289173 48.1191 0.18423 47.992 0.111303C47.8648 0.0383752 47.7207 3.19714e-06 47.5741 0H41.5749C41.3521 0 41.1384 0.0885083 40.9809 0.246055C40.8233 0.403602 40.7348 0.617282 40.7348 0.840087C40.7348 1.06289 40.8233 1.27657 40.9809 1.43412C41.1384 1.59166 41.3521 1.68017 41.5749 1.68017H47.0924L56.8247 18.3042C56.8988 18.4309 57.0048 18.5359 57.1321 18.6089C57.2595 18.6819 57.4037 18.7202 57.5504 18.7201Z" fill="#BB9A65"/>
<path d="M48.2951 2.90017C48.3686 2.77189 48.4748 2.6653 48.6027 2.59118C48.7307 2.51706 48.876 2.47802 49.0239 2.47803H53.9227C55.2612 2.47737 56.5454 3.00726 57.494 3.95162C58.4425 4.89598 58.9781 6.17781 58.9834 7.51631C58.9887 8.85481 58.4633 10.1408 57.5222 11.0927C56.5812 12.0445 55.3012 12.5846 53.9627 12.5945C53.8161 12.5945 53.6721 12.5561 53.5449 12.4832C53.4177 12.4103 53.3118 12.3053 53.2377 12.1788L48.2989 3.7425C48.2241 3.61486 48.1844 3.46975 48.1838 3.32184C48.1831 3.17394 48.2215 3.02848 48.2951 2.90017Z" fill="#BB9A65"/>
<path d="M12.5456 5.17542C13.1129 4.85347 13.7567 4.69092 14.4089 4.70497C15.0611 4.71901 15.6974 4.90915 16.2503 5.25523L23.2077 9.54388H27.9666H27.9712H35.844C36.0668 9.54388 36.2805 9.45537 36.438 9.29782C36.5956 9.14028 36.6841 8.9266 36.6841 8.70379C36.6841 8.48099 36.5956 8.26731 36.438 8.10976C36.2805 7.95221 36.0668 7.86371 35.844 7.86371H29.4548C30.992 5.56676 33.3429 3.93802 36.0335 3.30585C38.7241 2.67368 41.5544 3.08509 43.9536 4.45715L42.328 1.68066H36.8101C36.5873 1.68066 36.3736 1.59215 36.216 1.43461C36.0585 1.27706 35.97 1.06338 35.97 0.840576C35.97 0.617771 36.0585 0.40409 36.216 0.246544C36.3736 0.0889966 36.5873 0.000488343 36.8101 0.000488343H42.8097C42.956 0.000432166 43.0998 0.0386522 43.2268 0.111355C43.3538 0.184058 43.4595 0.288714 43.5336 0.41493L47.3434 6.92281L54.5471 19.2273C54.6049 19.3225 54.6432 19.4283 54.6597 19.5384C54.6762 19.6486 54.6707 19.7609 54.6434 19.8689C54.6161 19.9769 54.5677 20.0784 54.5008 20.1675C54.4339 20.2565 54.35 20.3314 54.2539 20.3878C54.1578 20.4441 54.0515 20.4808 53.9411 20.4957C53.8307 20.5106 53.7185 20.5033 53.6109 20.4744C53.5034 20.4455 53.4026 20.3955 53.3145 20.3273C53.2265 20.2591 53.1529 20.1741 53.098 20.0772L51.3436 17.0809L47.762 24.4582C46.7682 26.4859 45.2273 28.1953 43.3134 29.3935C41.3994 30.5917 39.1886 31.231 36.9305 31.2391H22.6182C22.884 30.2558 23.0191 29.2418 23.02 28.2232C23.0202 27.7764 22.994 27.3299 22.9416 26.8861C22.8765 26.3186 22.7684 25.757 22.6182 25.2059H23.7425L25.7167 19.9344C25.8755 19.5083 25.8814 19.0403 25.7336 18.6103C25.5858 18.1803 25.2933 17.8149 24.906 17.5765L11.0698 9.08743C10.9476 9.01216 10.8467 8.90692 10.7766 8.7817C10.7066 8.65649 10.6696 8.51545 10.6694 8.37196C10.6648 7.71948 10.8367 7.07791 11.167 6.51519C11.4973 5.95246 11.9736 5.48953 12.5456 5.17542ZM30.7082 18.4442L37.151 22.8625H33.2737C33.0509 22.8625 32.8372 22.951 32.6797 23.1085C32.5221 23.2661 32.4336 23.4798 32.4336 23.7026C32.4336 23.9254 32.5221 24.1391 32.6797 24.2966C32.8372 24.4541 33.0509 24.5427 33.2737 24.5427H40.707C40.7112 24.5427 40.7152 24.5427 40.7193 24.5427H40.7268C41.4166 24.5426 42.0923 24.3467 42.6751 23.9778C43.2579 23.6088 43.724 23.0819 44.0191 22.4584L46.0755 18.11C46.1361 17.9819 46.1633 17.8406 46.1547 17.6992C46.146 17.5578 46.1017 17.4209 46.0259 17.3013C45.9501 17.1816 45.8453 17.083 45.7212 17.0147C45.5971 16.9464 45.4578 16.9106 45.3161 16.9106H31.1834C31.004 16.9106 30.8293 16.9679 30.6849 17.0743C30.5405 17.1807 30.4339 17.3306 30.3808 17.502C30.3277 17.6733 30.3308 17.8572 30.3897 18.0266C30.4486 18.1961 30.5603 18.3422 30.7082 18.4436V18.4442Z" fill="#BB9A65"/>
<path d="M42.5034 21.7402C42.382 21.9966 42.2065 22.2237 41.9889 22.4057C41.7712 22.5877 41.5167 22.7203 41.2428 22.7943C40.9689 22.8683 40.6822 22.882 40.4025 22.8344C40.1228 22.7868 39.8568 22.6791 39.6228 22.5186L33.8962 18.5918H43.9913L42.5034 21.7402Z" fill="#BB9A65"/>
<path d="M0.855247 38.0513H70.8328C71.0556 38.0513 71.2693 38.1398 71.4269 38.2973C71.5844 38.4549 71.6729 38.6686 71.6729 38.8914V40.4662C71.6719 41.4314 71.288 42.3567 70.6055 43.0392C69.923 43.7217 68.9977 44.1055 68.0325 44.1066H3.65554C2.69038 44.1055 1.76506 43.7217 1.0826 43.0392C0.400124 42.3567 0.0162354 41.4314 0.0151596 40.4662V38.8914C0.0151596 38.6686 0.103676 38.4549 0.261223 38.2973C0.41877 38.1398 0.632446 38.0513 0.855247 38.0513Z" fill="#BB9A65"/>
</svg>
