<svg width="79" height="79" viewBox="0 0 79 79" fill="none" xmlns="http://www.w3.org/2000/svg">
<path d="M78.4673 22.9883V73.8695H55.085C48.6597 73.8695 45.2806 78.2263 44.9363 78.4672H33.531C33.1819 78.2229 29.851 73.8695 23.3823 73.8695H0V18.3906H4.5977V69.2718H23.4023C30.5872 69.2718 34.5866 73.3256 35.5831 73.8695H42.8842C43.8803 73.3257 47.8807 69.2718 55.0651 69.2718H73.8696V22.9883H78.4673Z" fill="#BB9A65"/>
<path d="M32.3263 66.5087C29.534 65.301 26.5133 64.6742 23.4022 64.6742H9.19531V9.19531H13.793V55.4788H20.6896C26.9547 55.4788 32.0796 60.3845 32.3263 66.5087Z" fill="#BB9A65"/>
<path d="M55.0652 13.7935C50.1956 13.7935 45.5055 15.0692 41.3711 17.5085C41.4779 18.5528 41.5326 19.6148 41.5326 20.69V69.1759C41.8405 68.9526 42.1925 68.7051 42.5936 68.4418C49.6918 63.7077 54.5827 64.6746 69.2721 64.6746V13.7935H55.0652Z" fill="#BB9A65"/>
<path d="M36.9327 66.9731C36.9327 58.1 29.6452 50.8812 20.6875 50.8812H18.3887V0C29.8815 0 36.9327 9.28137 36.9327 20.6896V66.9731Z" fill="#BB9A65"/>
</svg>
