<svg width="79" height="79" viewBox="0 0 79 79" fill="none" xmlns="http://www.w3.org/2000/svg">
<path d="M20.8015 58.0071C16.293 72.1701 7.73919 77.9242 7.25083 78.2422C6.96035 78.4317 6.60649 78.498 6.26711 78.4266C5.92772 78.3551 5.63061 78.1518 5.44113 77.8614C5.25165 77.5709 5.18532 77.217 5.25674 76.8776C5.32816 76.5382 5.53147 76.2411 5.82195 76.0517C5.9276 75.9821 13.2414 71.0144 17.6493 58.9785C12.2561 60.7169 6.98461 62.8123 1.86978 65.251C1.55711 65.3971 1.19933 65.4138 0.87447 65.2972C0.549604 65.1806 0.284004 64.9403 0.135588 64.6287C-0.0128286 64.3171 -0.0320212 63.9595 0.0821954 63.6338C0.196412 63.3081 0.434772 63.0408 0.745297 62.8901C6.53441 60.1307 12.5205 57.8052 18.6541 55.9327C20.0856 50.9231 20.8402 45.7446 20.8977 40.5348H1.30754C0.960758 40.5348 0.62818 40.3971 0.382969 40.1519C0.137758 39.9067 0 39.5741 0 39.2273C0 38.8805 0.137758 38.5479 0.382969 38.3027C0.62818 38.0575 0.960758 37.9198 1.30754 37.9198H20.8977C20.8392 32.8367 20.1192 27.7829 18.756 22.8857C12.5137 21.0268 6.46639 18.5671 0.698879 15.541C0.546917 15.461 0.412197 15.3519 0.30241 15.2198C0.192623 15.0878 0.10992 14.9354 0.0590224 14.7714C0.00812466 14.6074 -0.0099705 14.4349 0.00576971 14.2639C0.0215099 14.0929 0.0707774 13.9267 0.150759 13.7747C0.230741 13.6228 0.339871 13.4881 0.471918 13.3783C0.603964 13.2685 0.756343 13.1858 0.920352 13.1349C1.08436 13.084 1.25679 13.0659 1.42779 13.0816C1.59879 13.0974 1.76502 13.1466 1.91698 13.2266C7.00114 15.894 12.3101 18.1088 17.7825 19.8455C13.3902 7.54223 5.92864 2.47316 5.82195 2.40294C5.53147 2.21346 5.32816 1.91635 5.25674 1.57696C5.18532 1.23758 5.25165 0.883724 5.44113 0.593243C5.63061 0.302761 5.92772 0.0994487 6.26711 0.028031C6.60649 -0.0433868 6.96035 0.0229407 7.25083 0.212422C7.74312 0.53303 16.4362 6.37799 20.9134 20.7987C24.6921 21.8725 28.5285 22.7312 32.4044 23.3708C32.7285 23.4238 33.0209 23.5968 33.2233 23.8556C33.4257 24.1143 33.5233 24.4398 33.4966 24.7672C33.47 25.0946 33.3211 25.4 33.0796 25.6226C32.838 25.8452 32.5215 25.9688 32.1931 25.9687C32.1214 25.9686 32.0499 25.9628 31.9791 25.9515C28.4985 25.3774 25.0845 24.6209 21.7301 23.7233C22.86 28.3727 23.4581 33.1354 23.5131 37.9198H27.4583C27.8051 37.9198 28.1377 38.0575 28.3829 38.3027C28.6281 38.5479 28.7659 38.8805 28.7659 39.2273C28.7659 39.5741 28.6281 39.9067 28.3829 40.1519C28.1377 40.3971 27.8051 40.5348 27.4583 40.5348H23.5131C23.459 45.4325 22.8343 50.3072 21.6515 55.0603C25.1246 54.0989 28.6033 53.2878 32.0781 52.6628C32.2471 52.6324 32.4205 52.6357 32.5883 52.6723C32.756 52.709 32.9149 52.7783 33.0559 52.8763C33.1969 52.9744 33.3172 53.0993 33.4099 53.2438C33.5026 53.3883 33.566 53.5497 33.5963 53.7188C33.6267 53.8878 33.6234 54.0611 33.5868 54.2289C33.5501 54.3967 33.4808 54.5556 33.3827 54.6965C33.2847 54.8375 33.1598 54.9578 33.0153 55.0505C32.8707 55.1432 32.7094 55.2066 32.5403 55.2369C28.5813 55.9528 24.6629 56.8775 20.8015 58.0071ZM55.8756 11.3661C45.2275 9.25721 34.9785 5.48278 25.5059 0.181825C25.2075 0.0148075 24.8556 -0.0286702 24.5255 0.0607111C24.1954 0.150092 23.9135 0.365219 23.7402 0.659982C23.5668 0.954744 23.5159 1.30568 23.5982 1.63758C23.6805 1.96947 23.8896 2.25591 24.1806 2.4355C28.3051 4.8261 32.6196 6.87279 37.0802 8.55478C38.8206 11.127 40.1793 13.9377 41.114 16.8994C41.2263 17.2275 41.4643 17.4977 41.7757 17.6503C42.0871 17.803 42.4464 17.8257 42.7746 17.7134C43.1027 17.6012 43.3729 17.3632 43.5255 17.0518C43.6782 16.7403 43.7009 16.381 43.5886 16.0529C42.8847 13.9608 42.0182 11.927 40.997 9.97019C45.6924 11.5583 50.4746 12.8774 55.3202 13.9212C61.1231 15.1476 66.3282 18.331 70.0634 22.9382C73.7986 27.5453 75.837 33.2962 75.837 39.2273C75.837 45.1584 73.7986 50.9093 70.0634 55.5164C66.3282 60.1236 61.1231 63.307 55.3202 64.5334C50.4746 65.5771 45.6924 66.8962 40.997 68.4843C42.0182 66.5274 42.8847 64.4936 43.5886 62.4016C43.7009 62.0734 43.6782 61.7141 43.5255 61.4027C43.3729 61.0913 43.1027 60.8533 42.7746 60.741C42.4464 60.6288 42.0871 60.6515 41.7757 60.8041C41.4643 60.9568 41.2263 61.2269 41.114 61.5551C40.1787 64.5164 38.8202 67.327 37.0806 69.8996C32.6198 71.5815 28.3052 73.6282 24.1806 76.0188C24.0287 76.1038 23.8953 76.2183 23.7883 76.3556C23.6812 76.4928 23.6026 76.65 23.5571 76.818C23.5116 76.986 23.5001 77.1614 23.5233 77.3339C23.5465 77.5064 23.6039 77.6726 23.6921 77.8226C23.7804 77.9726 23.8976 78.1036 24.0371 78.2077C24.1766 78.3118 24.3355 78.387 24.5044 78.4289C24.6734 78.4708 24.849 78.4785 25.0209 78.4517C25.1929 78.4248 25.3578 78.3639 25.5059 78.2725C34.9785 72.9715 45.2275 69.1971 55.8756 67.0882C62.262 65.7351 67.9896 62.2291 72.0996 57.1571C76.2095 52.0851 78.4523 45.7552 78.4523 39.227C78.4523 32.6989 76.2095 26.3689 72.0996 21.2969C67.9896 16.225 62.262 12.7192 55.8756 11.3661ZM31.3809 39.2273C31.3809 35.0896 32.6079 31.0448 34.9067 27.6044C37.2055 24.164 40.4728 21.4826 44.2956 19.8992C48.1183 18.3157 52.3248 17.9014 56.383 18.7087C60.4412 19.5159 64.1689 21.5084 67.0947 24.4342C70.0205 27.36 72.013 31.0877 72.8202 35.1459C73.6274 39.2041 73.2131 43.4105 71.6297 47.2333C70.0463 51.056 67.3648 54.3234 63.9244 56.6222C60.4841 58.9209 56.4393 60.1479 52.3016 60.1479C46.755 60.1416 41.4375 57.9354 37.5154 54.0134C33.5934 50.0914 31.3873 44.7738 31.3809 39.2273ZM36.7055 29.6918C35.1982 32.1416 34.2946 34.9145 34.0692 37.7821L38.3285 34.6873L36.7055 29.6918ZM34.086 41.002C34.3458 43.6505 35.1851 46.2095 36.5441 48.4975H43.9595L46.1823 45.5177L43.793 37.8376L40.0961 36.6363L34.086 41.002ZM46.3672 37.3094L48.5909 44.4575H56.0122L58.236 37.3101L52.3016 32.9979L46.3672 37.3094ZM58.4215 45.5171L60.6437 48.4977H68.0587C69.4178 46.2097 70.257 43.6508 70.5169 41.0023L64.5074 36.6359L60.8105 37.8372L58.4215 45.5171ZM66.2746 34.6866L70.5339 37.7814C70.3085 34.9139 69.405 32.1409 67.8976 29.6912L66.2746 34.6866ZM45.2972 56.1338L43.6659 51.1128H38.4073C40.2785 53.3035 42.6387 55.0234 45.2972 56.1338ZM52.3016 57.5328C53.6278 57.53 54.9498 57.3828 56.2442 57.0938L58.5345 50.0447L56.3188 47.0725H48.2843L46.0687 50.0447L48.3589 57.0938C49.6533 57.3828 50.9753 57.53 52.3016 57.5328ZM66.1959 51.1128H60.9372L59.3059 56.1338C61.9644 55.0234 64.3246 53.3035 66.1959 51.1128ZM59.6133 22.4558L53.6091 26.8188V30.7152L59.9926 35.3531L63.6994 34.1483L65.9861 27.1102C64.2241 25.1154 62.0497 23.5273 59.6133 22.4558ZM52.3016 20.9217C50.8668 20.9271 49.4376 21.1017 48.0437 21.442L52.3016 24.536L56.5594 21.442C55.1656 21.1017 53.7364 20.9271 52.3016 20.9217ZM38.617 27.1107L40.9037 34.1488L44.6105 35.3536L50.994 30.7152V26.8188L44.9898 22.4563C42.5535 23.5278 40.379 25.1159 38.617 27.1107Z" fill="#BB9A65"/>
</svg>
