<svg width="79" height="60" viewBox="0 0 79 60" fill="none" xmlns="http://www.w3.org/2000/svg">
<path fill-rule="evenodd" clip-rule="evenodd" d="M14.1133 4.92773V34.7416H63.7237V4.92773H14.1133Z" fill="#BB9A65"/>
<path fill-rule="evenodd" clip-rule="evenodd" d="M64.6647 36.6247H13.1714C12.6514 36.6247 12.2299 36.2033 12.2299 35.6833V3.98598C12.2299 3.4659 12.6514 3.04469 13.1714 3.04469L64.6647 3.04463C65.1847 3.04463 65.6062 3.46606 65.6062 3.98603L65.6063 35.6832C65.6063 36.2033 65.1847 36.6249 64.6647 36.6247ZM9.18365 0.830018L9.18381 39.6712H68.6525V0.829912C68.6525 0.372396 68.2803 0.000159231 67.8227 0.000159231L10.0136 0C9.55599 0 9.18365 0.372502 9.18365 0.830018Z" fill="#BB9A65"/>
<path fill-rule="evenodd" clip-rule="evenodd" d="M69.0848 41.5547H8.77127L0.738281 54.7174L77.6723 54.7173L69.0848 41.5547ZM36.9218 45.5349C36.9218 46.0548 36.5002 46.4764 35.9803 46.4763H34.4853C33.9654 46.4763 33.5438 46.0549 33.5438 45.5349C33.5438 45.0149 33.9654 44.5933 34.4853 44.5933L35.9803 44.5932C36.5002 44.5932 36.9218 45.0149 36.9218 45.5349ZM29.55 45.5349C29.55 46.0548 29.1286 46.4764 28.6084 46.4763H27.1137C26.5938 46.4763 26.1722 46.0549 26.1722 45.5349C26.1722 45.0149 26.5938 44.5933 27.1137 44.5933L28.6084 44.5932C29.1286 44.5932 29.55 45.0149 29.55 45.5349ZM22.1784 45.5349C22.1784 46.0548 21.7568 46.4764 21.2368 46.4763H19.7419C19.222 46.4763 18.8004 46.0549 18.8004 45.5349C18.8004 45.0149 19.222 44.5933 19.7419 44.5933L21.2368 44.5932C21.7568 44.5932 22.1784 45.0149 22.1784 45.5349ZM14.8068 45.5349C14.8068 46.0548 14.3853 46.4764 13.8653 46.4763H12.3704C11.8505 46.4763 11.4289 46.0549 11.4289 45.5349C11.4289 45.0149 11.8505 44.5933 12.3704 44.5933L13.8653 44.5932C14.3853 44.5932 14.8068 45.0149 14.8068 45.5349ZM10.1786 49.7975C10.6986 49.7975 11.1201 50.2191 11.1201 50.7392C11.1201 51.259 10.6986 51.6805 10.1786 51.6804H8.68361C8.16364 51.6804 7.74211 51.2591 7.74211 50.7392C7.74211 50.219 8.16364 49.7976 8.68361 49.7976L10.1786 49.7975ZM41.8571 46.4763C41.3371 46.4763 40.9156 46.0549 40.9156 45.5349C40.9156 45.0149 41.3371 44.5933 41.8571 44.5933L43.3518 44.5932C43.8718 44.5932 44.2934 45.0149 44.2934 45.5349C44.2934 46.0548 43.8718 46.4764 43.3518 46.4763H41.8571ZM59.3457 50.7392C59.3457 50.219 59.7671 49.7976 60.2871 49.7976L61.782 49.7975C62.302 49.7975 62.7235 50.2191 62.7235 50.7392C62.7236 51.259 62.302 51.6805 61.782 51.6804H60.2871C59.7671 51.6804 59.3457 51.2591 59.3457 50.7392ZM67.6588 51.6804C67.1387 51.6804 66.7172 51.2591 66.7172 50.7392C66.7172 50.219 67.1387 49.7976 67.6588 49.7976L69.1536 49.7975C69.6737 49.7975 70.0951 50.2191 70.0951 50.7392C70.0952 51.259 69.6736 51.6805 69.1536 51.6804H67.6588ZM30.8005 49.7976L47.0388 49.7975C47.5588 49.7975 47.9802 50.2191 47.9802 50.7392C47.9802 51.259 47.5588 51.6805 47.0388 51.6804H30.8005C30.2804 51.6804 29.859 51.2591 29.859 50.7392C29.859 50.219 30.2804 49.7976 30.8005 49.7976ZM25.8634 50.7392C25.8634 51.259 25.4418 51.6805 24.9218 51.6804H23.427C22.907 51.6804 22.4854 51.2591 22.4854 50.7392C22.4854 50.219 22.907 49.7976 23.427 49.7976L24.9218 49.7975C25.4418 49.7975 25.8634 50.2191 25.8634 50.7392ZM18.4918 50.7392C18.4918 51.259 18.0702 51.6805 17.5503 51.6804H16.0553C15.5352 51.6804 15.1138 51.2591 15.1138 50.7392C15.1138 50.219 15.5352 49.7976 16.0553 49.7976L17.5503 49.7975C18.0702 49.7975 18.4918 50.2191 18.4918 50.7392ZM52.9155 51.6804C52.3955 51.6804 51.974 51.2591 51.974 50.7392C51.974 50.219 52.3955 49.7976 52.9155 49.7976L54.4104 49.7975C54.9304 49.7975 55.3518 50.2191 55.3518 50.7392C55.3518 51.259 54.9304 51.6805 54.4104 51.6804H52.9155ZM49.2305 46.4763C48.7105 46.4763 48.289 46.0549 48.289 45.5349C48.289 45.0149 48.7105 44.5933 49.2305 44.5933L50.7236 44.5932C51.2436 44.5932 51.6651 45.0149 51.6651 45.5349C51.6652 46.0548 51.2436 46.4764 50.7236 46.4763H49.2305ZM56.6022 46.4763C56.0821 46.4763 55.6607 46.0549 55.6607 45.5349C55.6607 45.0149 56.0821 44.5933 56.6021 44.5933L58.097 44.5932C58.6172 44.5932 59.0386 45.0149 59.0386 45.5349C59.0386 46.0548 58.6172 46.4764 58.097 46.4763H56.6022ZM63.9739 46.4763C63.4539 46.4763 63.0323 46.0549 63.0323 45.5349C63.0323 45.0149 63.4539 44.5933 63.9739 44.5933L65.4688 44.5932C65.9888 44.5932 66.4103 45.0149 66.4103 45.5349C66.4103 46.0548 65.9888 46.4764 65.4688 46.4763H63.9739Z" fill="#BB9A65"/>
<path fill-rule="evenodd" clip-rule="evenodd" d="M78.4673 56.6006H0V59.2241C0 59.4203 0.159409 59.5806 0.355277 59.5806L78.112 59.5805C78.3078 59.5805 78.4672 59.4204 78.4672 59.2243L78.4673 56.6006Z" fill="#BB9A65"/>
</svg>
