<svg width="79" height="79" viewBox="0 0 79 79" fill="none" xmlns="http://www.w3.org/2000/svg">
<path d="M76.1673 4.49762H73.9685V2.29885C73.9685 1.02927 72.9392 0 71.6697 0C70.4001 0 69.3708 1.02927 69.3708 2.29885V4.49762H67.1719C65.9023 4.49762 64.873 5.52689 64.873 6.79647C64.873 8.06604 65.9023 9.09532 67.1719 9.09532H69.3708V11.2942C69.3708 12.5638 70.4001 13.5931 71.6697 13.5931C72.9392 13.5931 73.9685 12.5638 73.9685 11.2942V9.09532H76.1673C77.4369 9.09532 78.4661 8.06604 78.4661 6.79647C78.4661 5.52689 77.4369 4.49762 76.1673 4.49762Z" fill="#BB9A65"/>
<path d="M11.2941 49.1959H9.09532V46.9971C9.09532 45.7275 8.06604 44.6982 6.79647 44.6982C5.52689 44.6982 4.49762 45.7275 4.49762 46.9971V49.1959H2.29885C1.02927 49.1959 0 50.2251 0 51.4947C0 52.7643 1.02927 53.7936 2.29885 53.7936H4.49762V55.9923C4.49762 57.2619 5.52689 58.2912 6.79647 58.2912C8.06604 58.2912 9.09532 57.2619 9.09532 55.9923V53.7936H11.2941C12.5637 53.7936 13.5929 52.7643 13.5929 51.4947C13.5929 50.2251 12.5638 49.1959 11.2941 49.1959Z" fill="#BB9A65"/>
<path d="M7.91604 11.1412C9.18565 11.1412 10.2149 10.1119 10.2149 8.8423C10.2149 7.57269 9.18565 6.54346 7.91604 6.54346C6.64642 6.54346 5.61719 7.57269 5.61719 8.8423C5.61719 10.1119 6.64642 11.1412 7.91604 11.1412Z" fill="#BB9A65"/>
<path d="M69.2305 48.1968C70.5001 48.1968 71.5293 47.1676 71.5293 45.898C71.5293 44.6284 70.5001 43.5991 69.2305 43.5991C67.9609 43.5991 66.9316 44.6284 66.9316 45.898C66.9316 47.1676 67.9609 48.1968 69.2305 48.1968Z" fill="#BB9A65"/>
<path d="M65.9339 28.728H57.9814C57.6734 36.0322 55.8956 42.8537 52.8994 48.138C52.4915 48.8577 45.5247 61.6092 45.5247 61.6092H32.9424C32.9424 61.6092 25.9769 48.8598 25.5677 48.138C22.5715 42.8537 20.7937 36.0322 20.4857 28.728H12.5332C12.9052 33.0857 14.3249 37.1486 16.5376 40.664C20.2655 47.6457 23.9931 54.6275 27.7209 61.6092H27.3378C26.0766 61.6092 25.0389 62.6469 25.0389 63.9081C25.0389 65.1692 26.0766 66.2069 27.3378 66.2069H29.2719V72.0153C29.2719 75.5724 32.1669 78.4674 35.724 78.4674H42.7431C46.3002 78.4674 49.1952 75.5724 49.1952 72.0153V66.2069H51.1293C52.3905 66.2069 53.4282 65.1692 53.4282 63.9081C53.4282 62.6469 52.3905 61.6092 51.1293 61.6092H50.7462C54.4737 54.6279 58.2012 47.6465 61.9287 40.6652C64.1419 37.1493 65.5618 33.0862 65.9339 28.728Z" fill="#BB9A65"/>
<path d="M51.6211 2.66797C52.064 3.31471 52.4916 3.9967 52.9008 4.71854C55.897 10.0044 57.6747 16.8258 57.9828 24.13H65.9353C65.1383 14.7952 59.5368 6.81203 51.6211 2.66797Z" fill="#BB9A65"/>
<path d="M25.5677 4.71854C25.9769 3.9967 26.4044 3.31471 26.8474 2.66797C18.9317 6.81203 13.3301 14.7952 12.5332 24.13H20.4857C20.7937 16.8258 22.5715 10.0044 25.5677 4.71854Z" fill="#BB9A65"/>
<path d="M53.3784 28.728H41.5332V52.8583C47.7891 50.8414 52.8052 40.7817 53.3784 28.728Z" fill="#BB9A65"/>
<path d="M36.9331 52.8583V28.728H25.0879C25.6611 40.7817 30.6772 50.8414 36.9331 52.8583Z" fill="#BB9A65"/>
<path d="M36.9331 24.1302V0C30.6772 2.01686 25.6611 12.0766 25.0879 24.1302H36.9331Z" fill="#BB9A65"/>
<path d="M41.5332 0V24.1302H53.3784C52.8052 12.0766 47.7891 2.01686 41.5332 0Z" fill="#BB9A65"/>
<path d="M70.5313 26.4287C70.5313 25.1592 69.502 24.1299 68.2324 24.1299H65.9336V28.7276H68.2324C69.502 28.7276 70.5313 27.6983 70.5313 26.4287Z" fill="#BB9A65"/>
<path d="M10.2344 24.1299C8.96482 24.1299 7.93555 25.1592 7.93555 26.4287C7.93555 27.6983 8.96482 28.7276 10.2344 28.7276H12.5332V24.1299H10.2344Z" fill="#BB9A65"/>
</svg>
