<svg width="70" height="68" viewBox="0 0 70 68" fill="none" xmlns="http://www.w3.org/2000/svg">
<path d="M65.1724 50.6896C66.4528 50.6896 67.6807 50.181 68.586 49.2756C69.4914 48.3703 70 47.1424 70 45.862V6.03442H0V45.862C0 47.1424 0.508619 48.3703 1.41397 49.2756C2.31931 50.181 3.54723 50.6896 4.82759 50.6896H65.1724Z" fill="white"/>
<path d="M70 45.8621C70 44.5817 69.4914 43.3538 68.5861 42.4485C67.6807 41.5431 66.4528 41.0345 65.1724 41.0345H61.5518V0H65.1724C66.4528 0 67.6807 0.508619 68.5861 1.41397C69.4914 2.31931 70 3.54723 70 4.82759V45.8621Z" fill="#B49077"/>
<path d="M0 45.8621C0 44.5817 0.508619 43.3538 1.41397 42.4485C2.31931 41.5431 3.54723 41.0345 4.82759 41.0345H8.44828V0H4.82759C3.54723 0 2.31931 0.508619 1.41397 1.41397C0.508619 2.31931 0 3.54723 0 4.82759V45.8621Z" fill="#B49077"/>
<path d="M28.9658 42.2415H41.0348V51.8966H28.9658V42.2415Z" fill="#E9BEA1"/>
<path d="M45.8618 31.3794C45.862 33.7403 45.1633 36.0484 43.8538 38.0128L41.0342 42.2415H28.9653L26.1457 38.0128C24.8363 36.0483 24.1376 33.7403 24.1377 31.3794C24.1377 28.4986 25.2821 25.7358 27.3191 23.6988C29.3562 21.6617 32.119 20.5173 34.9998 20.5173C37.8806 20.5173 40.6434 21.6617 42.6804 23.6988C44.7174 25.7358 45.8618 28.4986 45.8618 31.3794Z" fill="#B49077"/>
<path d="M41.0103 30.4092L38.6448 42.2413H36.1827L38.0247 33.0327L35.7241 34.7585C35.5151 34.915 35.261 34.9995 35 34.9995C34.7389 34.9995 34.4848 34.915 34.2758 34.7585L31.9752 33.0327L33.8157 42.2413H31.3566L28.9896 30.4092C28.9413 30.1695 28.967 29.9208 29.0632 29.696C29.1595 29.4713 29.3218 29.2811 29.5286 29.1507C29.7354 29.0203 29.977 28.9558 30.2213 28.9659C30.4656 28.9759 30.7011 29.0599 30.8965 29.2068L35 32.2844L39.1034 29.2068C39.2988 29.0599 39.5343 28.9759 39.7786 28.9659C40.0229 28.9558 40.2645 29.0203 40.4713 29.1507C40.6781 29.2811 40.8404 29.4713 40.9367 29.696C41.0329 29.9208 41.0586 30.1695 41.0103 30.4092Z" fill="#E9BEA1"/>
<path d="M28.9658 51.8965L31.3796 56.7241H38.621L41.0348 51.8965H28.9658Z" fill="#B49077"/>
<path d="M20.7243 44.6553C20.276 44.6553 19.8321 44.7436 19.418 44.9151C19.0038 45.0867 18.6275 45.3381 18.3105 45.6551L0.749891 63.2157C0.391834 63.5738 0.147991 64.03 0.0491999 64.5266C-0.0495917 65.0232 0.00110443 65.538 0.194878 66.0058C0.388651 66.4737 0.716798 66.8735 1.13782 67.1548C1.55885 67.4362 2.05384 67.5863 2.5602 67.5863H20.5172C20.9927 67.5863 21.4635 67.4927 21.9028 67.3107C22.3421 67.1287 22.7412 66.862 23.0775 66.5258C23.4137 66.1896 23.6804 65.7905 23.8623 65.3512C24.0443 64.9119 24.1379 64.4411 24.1379 63.9656V48.0689C24.1379 47.6206 24.0496 47.1767 23.8781 46.7626C23.7065 46.3484 23.4551 45.9721 23.1381 45.6551C22.8211 45.3381 22.4448 45.0867 22.0306 44.9151C21.6165 44.7436 21.1726 44.6553 20.7243 44.6553ZM16.8966 60.3449H10.8621L16.8966 54.3104V60.3449Z" fill="#B49077"/>
<path d="M6.03418 63.9656H8.44797V67.5863H6.03418V63.9656Z" fill="#E9BEA1"/>
<path d="M10.8623 63.9656H13.2761V67.5863H10.8623V63.9656Z" fill="#E9BEA1"/>
<path d="M15.6895 63.9656H18.1032V67.5863H15.6895V63.9656Z" fill="#E9BEA1"/>
<path d="M20.5176 49.4827H24.1383V51.8965H20.5176V49.4827Z" fill="#E9BEA1"/>
<path d="M20.5176 54.3103H24.1383V56.7241H20.5176V54.3103Z" fill="#E9BEA1"/>
<path d="M20.5176 59.1379H24.1383V61.5517H20.5176V59.1379Z" fill="#E9BEA1"/>
<path d="M56.7238 61.5518L53.1031 67.5862L49.4824 61.5518H56.7238Z" fill="#FFCEB6"/>
<path d="M49.4824 35H56.7238V39.8276H49.4824V35Z" fill="#B49077"/>
<path d="M49.4824 43.4482H56.7238V61.5517H49.4824V43.4482Z" fill="#B49077"/>
<path d="M49.4824 39.8276H56.7238V43.4483H49.4824V39.8276Z" fill="#E9BEA1"/>
<path d="M51.8965 43.4482H54.3103V61.5517H51.8965V43.4482Z" fill="#E9BEA1"/>
<path d="M33.793 12.0688H36.2068V15.6895H33.793V12.0688Z" fill="#E9BEA1"/>
<path d="M21.3408 18.2251L23.0474 16.5185L25.6072 19.0784L23.9006 20.7849L21.3408 18.2251Z" fill="#E9BEA1"/>
<path d="M33.793 12.0688H36.2068V15.6895H33.793V12.0688Z" fill="#E9BEA1"/>
<path d="M44.3809 19.0833L46.9407 16.5234L48.6472 18.23L46.0874 20.7898L44.3809 19.0833Z" fill="#E9BEA1"/>
<path d="M44.3809 19.0833L46.9407 16.5234L48.6472 18.23L46.0874 20.7898L44.3809 19.0833Z" fill="#E9BEA1"/>
<path d="M49.4824 28.9656H53.1031V31.3794H49.4824V28.9656Z" fill="#E9BEA1"/>
<path d="M49.4824 28.9656H53.1031V31.3794H49.4824V28.9656Z" fill="#E9BEA1"/>
<path d="M16.8965 28.9656H20.5172V31.3794H16.8965V28.9656Z" fill="#E9BEA1"/>
</svg>
