<svg width="70" height="54" viewBox="0 0 70 54" fill="none" xmlns="http://www.w3.org/2000/svg">
<path d="M26.6602 24.6094C27.7908 24.6094 28.7109 25.5295 28.7109 26.6602C28.7109 27.7908 27.7908 28.7109 26.6602 28.7109C25.5295 28.7109 24.6094 27.7908 24.6094 26.6602C24.6094 25.5295 25.5295 24.6094 26.6602 24.6094Z" fill="#B49077"/>
<path d="M28.7109 16.6113V20.8605C28.0697 20.6322 27.3793 20.5078 26.6602 20.5078C23.2682 20.5078 20.5078 23.2682 20.5078 26.6602C20.5078 30.0521 23.2682 32.8125 26.6602 32.8125C27.3793 32.8125 28.0697 32.6881 28.7109 32.4598V36.709C28.0396 36.8457 27.3533 36.9141 26.6602 36.9141C21.0068 36.9141 16.4062 32.3135 16.4062 26.6602C16.4062 21.0068 21.0068 16.4062 26.6602 16.4062C27.3533 16.4062 28.0396 16.4746 28.7109 16.6113Z" fill="#B49077"/>
<path d="M12.3047 26.6602C12.3047 34.5762 18.7441 41.0156 26.6602 41.0156C27.3506 41.0156 28.0355 40.9678 28.7109 40.8693V53.3203H22.5586C21.4266 53.3203 20.5078 52.4016 20.5078 51.2695V48.3656C18.8303 47.8885 17.2129 47.2131 15.6721 46.3477L13.609 48.4121C12.8078 49.2133 11.5104 49.2133 10.7092 48.4121L4.9082 42.6111C4.10676 41.8097 4.1099 40.5096 4.9082 39.7113L6.97266 37.6469C6.10586 36.1074 5.43184 34.49 4.95469 32.8125H2.05078C0.91875 32.8125 0 31.8937 0 30.7617V22.5586C0 21.4266 0.91875 20.5078 2.05078 20.5078H4.95469C5.43184 18.8303 6.10586 17.2129 6.97266 15.6721L4.9082 13.609C4.1099 12.8107 4.10676 11.5106 4.9082 10.7092L10.7092 4.9082C11.5104 4.10703 12.8078 4.10703 13.609 4.9082L15.6734 6.97266C17.2129 6.10586 18.8303 5.43184 20.5078 4.95469V2.05078C20.5078 0.91875 21.4266 0 22.5586 0H28.7109V12.451C28.0355 12.3525 27.3506 12.3047 26.6602 12.3047C18.7441 12.3047 12.3047 18.7441 12.3047 26.6602Z" fill="#B49077"/>
<path d="M57.6953 1.20039V12.3047H68.7996L57.6953 1.20039ZM38.9648 12.3047H47.4414C48.5734 12.3047 49.4922 13.2234 49.4922 14.3555C49.4922 15.4875 48.5734 16.4062 47.4414 16.4062H38.9648C37.8328 16.4062 36.9141 15.4875 36.9141 14.3555C36.9141 13.2234 37.8328 12.3047 38.9648 12.3047ZM59.7461 41.0156H38.9648C37.8328 41.0156 36.9141 40.0969 36.9141 38.9648C36.9141 37.8328 37.8328 36.9141 38.9648 36.9141H59.7461C60.8781 36.9141 61.7969 37.8328 61.7969 38.9648C61.7969 40.0969 60.8781 41.0156 59.7461 41.0156ZM59.7461 32.8125H38.9648C37.8328 32.8125 36.9141 31.8937 36.9141 30.7617C36.9141 29.6297 37.8328 28.7109 38.9648 28.7109H59.7461C60.8781 28.7109 61.7969 29.6297 61.7969 30.7617C61.7969 31.8937 60.8781 32.8125 59.7461 32.8125ZM59.7461 24.6094H38.9648C37.8328 24.6094 36.9141 23.6906 36.9141 22.5586C36.9141 21.4266 37.8328 20.5078 38.9648 20.5078H59.7461C60.8781 20.5078 61.7969 21.4266 61.7969 22.5586C61.7969 23.6906 60.8781 24.6094 59.7461 24.6094ZM55.6445 16.4062C54.5125 16.4062 53.5938 15.4875 53.5938 14.3555V0H32.8125V53.3203H67.9492C69.0812 53.3203 70 52.4016 70 51.2695V16.4062H55.6445Z" fill="white"/>
</svg>
