<svg width="70" height="70" viewBox="0 0 70 70" fill="none" xmlns="http://www.w3.org/2000/svg">
<circle cx="34.5898" cy="35.957" r="21.4648" fill="white"/>
<path d="M35.0005 25.1682C34.9602 25.1682 34.9203 25.1663 34.8798 25.1668C30.478 25.23 26.8641 28.8151 26.7666 33.2168C26.7227 35.2468 27.4131 37.1135 28.5907 38.5698C29.6896 39.9282 30.4177 41.5349 30.7215 43.2351L32.861 44.6076L35.0005 43.2352L36.3731 34.8874L35.0005 25.1682Z" fill="#E9BEA1"/>
<path d="M35 25.1682V43.2352L37.0588 44.6078L39.2777 43.2352C39.5779 41.5411 40.2969 39.9385 41.3933 38.589C42.5449 37.1739 43.2353 35.3676 43.2353 33.4008C43.2353 28.8528 39.5481 25.1671 35 25.1682Z" fill="#B49077"/>
<path d="M34.9998 43.2354H30.7207C30.9675 44.6163 30.8514 45.3937 30.8821 47.353L32.6664 48.7255L34.9998 47.353L36.3723 45.2942L34.9998 43.2354Z" fill="#B49077"/>
<path d="M35 47.353L37.0588 48.7255L39.1176 47.353C39.148 45.3996 39.033 44.6168 39.2777 43.2354H35V47.353Z" fill="#E9BEA1"/>
<path d="M30.8828 47.353V53.0702L32.8959 54.6846L35.0005 53.5295L35.4809 50.5785L35.0005 47.353H30.8828Z" fill="#B49077"/>
<path d="M35 53.5295L36.8529 55.5425L39.1176 53.0701V47.353H35V53.5295Z" fill="#B49077"/>
<path d="M16.4706 35C16.4706 24.7664 24.7664 16.4706 35 16.4706L36.3726 8.55551L35 0H30.625V6.89747C26.037 7.60598 21.8123 9.41212 18.2246 12.0375L13.3449 7.15757L7.15757 13.3449L12.0375 18.2247C9.41198 21.8124 7.60598 26.0373 6.89747 30.6251H0V39.3751H6.89747C7.60598 43.963 9.41198 48.1879 12.0375 51.7756L7.15757 56.6554L13.3447 62.8426L18.2246 57.9627C21.8123 60.588 26.037 62.3942 30.625 63.1027V70H35L36.3726 59.9804L35 53.5294C24.7664 53.5294 16.4706 45.2336 16.4706 35Z" fill="#B49077"/>
<path d="M63.1025 30.625C62.3942 26.0371 60.5879 21.8123 57.9625 18.2246L62.8424 13.3447L56.6551 7.15757L51.7754 12.0375C48.1876 9.41212 43.9629 7.60598 39.375 6.89747V0H35V16.4706C45.2336 16.4706 53.5294 24.7664 53.5294 35C53.5294 45.2336 45.2336 53.5294 35 53.5294V70H39.375V63.1025C43.9629 62.394 48.1876 60.5879 51.7754 57.9626L56.6551 62.8424L62.8424 56.6553L57.9625 51.7754C60.5879 48.1877 62.3942 43.9629 63.1025 39.375H70V30.625H63.1025Z" fill="#E9BEA1"/>
</svg>
