<svg width="65" height="70" viewBox="0 0 65 70" fill="none" xmlns="http://www.w3.org/2000/svg">
<path d="M17.79 31.5558H22.6651C23.7202 31.5558 24.5871 30.6885 24.5871 29.6369V24.7603C24.5871 23.7082 23.7202 22.8413 22.6651 22.8413H17.79C16.732 22.8413 15.8721 23.7037 15.8721 24.7603V29.6369C15.8721 30.6885 16.7315 31.5558 17.79 31.5558Z" fill="#B49077"/>
<path d="M32.8386 25.8742H38.7175C39.9912 25.8742 41.0279 24.8346 41.0279 23.5639V17.6865C41.0279 16.4148 39.9912 15.3777 38.7175 15.3777H32.8386C31.568 15.3777 30.5283 16.4148 30.5283 17.6865V23.5639C30.5283 24.8341 31.5685 25.8742 32.8386 25.8742Z" fill="#B49077"/>
<path d="M37.2073 45.6116H31.3269C30.0567 45.6116 29.0166 46.6487 29.0166 47.9224V53.8013C29.0166 55.0655 30.0567 56.1086 31.3269 56.1086H37.2073C38.4745 56.1086 39.5176 55.0655 39.5176 53.8013V47.9224C39.5171 46.6547 38.4745 45.6116 37.2073 45.6116Z" fill="#B49077"/>
<path d="M47.3822 40.4844V33.3657C47.3822 31.8256 46.127 30.5659 44.5869 30.5659H37.4682C35.9311 30.5659 34.6699 31.8256 34.6699 33.3657V40.4844C34.6699 42.022 35.9311 43.2832 37.4682 43.2832H44.5869C46.1245 43.2832 47.3822 42.022 47.3822 40.4844Z" fill="#B49077"/>
<path d="M45.6482 9.96276H48.9589C49.6714 9.96276 50.2624 9.37572 50.2624 8.6622V5.35256C50.2624 4.63855 49.6739 4.052 48.9589 4.052H45.6482C44.9387 4.052 44.3477 4.63855 44.3477 5.35256V8.66171C44.3477 9.37622 44.9387 9.96276 45.6482 9.96276Z" fill="#B49077"/>
<path d="M57.4911 34.9956H54.1804C53.4644 34.9956 52.8799 35.5822 52.8799 36.2996V39.6088C52.8799 40.3248 53.4649 40.9128 54.1804 40.9128H57.4911C58.2036 40.9128 58.7886 40.3303 58.7886 39.6088V36.2996C58.7886 35.5822 58.2066 34.9956 57.4911 34.9956Z" fill="#B49077"/>
<path d="M30.4177 38.6019C31.0162 38.6019 31.5166 38.105 31.5166 37.5045V34.7077C31.5166 34.1013 31.0162 33.6073 30.4177 33.6073H27.6164C27.5616 33.6073 27.5333 33.6601 27.471 33.6711V10.633L5.98346 0H0V70H5.98346L27.4705 43.4163V38.5472C27.5328 38.5531 27.5616 38.6079 27.6159 38.6079H30.4172L30.4177 38.6019ZM24.8131 42.4702L8.64133 62.475V4.27461L24.8131 12.2791V42.4702Z" fill="white"/>
<path d="M50.3533 45.6116H47.552C46.9515 45.6116 46.4541 46.109 46.4541 46.7125V49.5043C46.4541 50.1112 46.9485 50.6082 47.552 50.6082H50.3468C50.9503 50.6082 51.4477 50.1112 51.4477 49.5043V46.7125C51.4507 46.109 50.9538 45.6116 50.3533 45.6116Z" fill="#B49077"/>
<path d="M60.6074 13.5149H51.0599C48.9955 13.5149 47.3096 15.2038 47.3096 17.2687V26.8127C47.3096 28.8726 48.9955 30.5665 51.0599 30.5665H60.6074C62.6748 30.5665 64.3637 28.8731 64.3637 26.8127V17.2682C64.3637 15.2033 62.6748 13.5149 60.6074 13.5149Z" fill="#B49077"/>
</svg>
