<svg width="66" height="60" viewBox="0 0 66 60" fill="none" xmlns="http://www.w3.org/2000/svg">
<path d="M35.7674 7.71067C32.1253 6.15491 27.9306 7.83368 26.3697 11.4826C24.8126 15.1186 26.4946 19.327 30.131 20.8837C33.7494 22.4294 37.9751 20.7606 39.5353 17.1144C41.0958 13.4688 39.4067 9.26736 35.7674 7.71067ZM38.2734 16.5753C37.017 19.5106 33.6071 20.8755 30.6712 19.6204C27.7349 18.3643 26.3731 14.9629 27.6315 12.0215C28.8967 9.06562 32.2931 7.71633 35.227 8.97363C38.1502 10.2224 39.5419 13.6087 38.2734 16.5753Z" fill="#39C0AC"/>
<path d="M47.1939 10.1954L46.0917 7.42909C45.969 7.12065 45.6451 6.94362 45.3161 7.01078L42.5243 7.5847C41.7915 6.54279 40.9065 5.63769 39.8854 4.88951L40.5216 2.10576C40.596 1.78259 40.4277 1.45273 40.1227 1.3213L37.3832 0.149424C37.0795 0.0207626 36.7235 0.126688 36.5404 0.402803L34.9663 2.78428C33.7186 2.56166 32.4548 2.54694 31.1997 2.73999L29.6812 0.322374C29.5035 0.0394244 29.1495 -0.0745177 28.8431 0.0502008L26.0802 1.1632C25.7731 1.28661 25.5982 1.6124 25.6646 1.93819L26.2331 4.71788C25.2716 5.35619 24.3377 6.27469 23.5426 7.36746L20.7582 6.7319C20.4324 6.6541 20.1039 6.82574 19.9744 7.13156L18.8058 9.86301C18.6751 10.1674 18.7817 10.5227 19.0579 10.7052L21.4413 12.2808C21.2194 13.5304 21.204 14.7937 21.3964 16.0473L18.9781 17.5652C18.6965 17.7422 18.5819 18.0948 18.706 18.4033L19.8123 21.1628C19.9357 21.47 20.2608 21.6442 20.5859 21.5798L23.3911 21.01C24.1172 22.0491 24.9981 22.9516 26.0173 23.6998L25.3783 26.4916C25.3039 26.8147 25.4722 27.1446 25.7772 27.276L28.516 28.4479C28.8238 28.5793 29.177 28.4721 29.3595 28.1945L30.937 25.805C32.188 26.0277 33.4513 26.0437 34.7029 25.8493L36.2221 28.2683C36.3992 28.5503 36.7522 28.6641 37.0589 28.5404L39.8178 27.4341C40.1256 27.3107 40.3012 26.9849 40.2348 26.6604L39.6637 23.862C40.7028 23.1352 41.6059 22.2529 42.3569 21.2297L45.1413 21.8653C45.4638 21.939 45.795 21.7715 45.9251 21.4656L47.0937 18.7342C47.2244 18.4298 47.1185 18.0745 46.8416 17.892L44.4588 16.3164C44.6808 15.0668 44.6955 13.8035 44.5031 12.5499L46.9214 11.032C47.202 10.8551 47.3166 10.5038 47.1939 10.1954ZM43.383 11.6315C43.1424 11.7831 43.0196 12.066 43.0739 12.3449C43.3421 13.7234 43.3253 15.1166 43.025 16.4882C42.964 16.7658 43.0799 17.0513 43.3166 17.2083L45.6056 18.7208L44.8882 20.3996L42.2131 19.7881C41.9368 19.7223 41.65 19.8377 41.4911 20.0736C40.706 21.2388 39.7097 22.2137 38.5283 22.97C38.289 23.1229 38.169 23.4071 38.2259 23.6847L38.775 26.3732L37.08 27.053L35.6205 24.7292C35.4938 24.5267 35.2725 24.4074 35.0392 24.4074C34.9956 24.4074 34.9514 24.4114 34.9078 24.4195C33.5327 24.6903 32.1368 24.6728 30.7645 24.3712C30.4856 24.3109 30.202 24.4248 30.0444 24.6635L28.5293 26.9592L26.8445 26.2378L27.4586 23.556C27.5223 23.2798 27.4083 22.9929 27.173 22.8333C26.0124 22.053 25.0403 21.0567 24.2833 19.8753C24.1311 19.6367 23.8469 19.516 23.5687 19.5723L20.8735 20.1194L20.1936 18.4231L22.5168 16.9655C22.7574 16.814 22.8801 16.531 22.8259 16.2522C22.557 14.875 22.5738 13.4818 22.8748 12.1089C22.9357 11.8313 22.8198 11.5457 22.5831 11.3888L20.2935 9.87497L21.0109 8.19751L23.6867 8.80901C23.9642 8.87341 24.2505 8.75802 24.4087 8.52344C25.2568 7.26429 26.2987 6.24262 27.3419 5.64453C27.5993 5.49839 27.7334 5.20203 27.6737 4.91107L27.124 2.22259L28.8235 1.53867L30.2818 3.85983C30.432 4.09981 30.7182 4.22058 30.9938 4.16959C32.3743 3.89873 33.7675 3.91884 35.1379 4.21782C35.4128 4.27552 35.701 4.16289 35.8573 3.92554L37.3698 1.63803L39.0553 2.3594L38.4445 5.03316C38.3807 5.3094 38.4948 5.59761 38.73 5.75584C39.8919 6.53753 40.8688 7.53515 41.6351 8.7232C41.7879 8.96054 42.0683 9.07856 42.3498 9.02349L45.0289 8.47244L45.7068 10.1726L43.383 11.6315Z" fill="#39C0AC"/>
<path d="M65.6691 24.3955C65.2715 23.4154 64.4173 22.6993 63.3835 22.4766C60.3846 21.8398 57.3026 22.5785 54.9198 24.5201L44.2481 33.4298C43.2744 32.9691 42.2009 32.7076 41.0817 32.7076H32.2855C27.3839 29.4465 20.8323 29.7764 16.2827 33.5362L11.8652 37.1879L11.3529 36.0773C11.3529 36.0759 11.3529 36.0759 11.3529 36.0759C10.7803 34.8397 9.30869 34.2966 8.07044 34.8678L1.45024 37.9211C0.203841 38.4963 -0.345235 39.9713 0.226052 41.209L8.23051 58.5629C8.80613 59.8111 10.275 60.3453 11.5264 59.7669L18.1471 56.7138C19.3847 56.1426 19.9272 54.6703 19.3573 53.4326L18.9033 52.4484L34.6374 52.085C43.4009 51.7819 51.41 47.5595 56.6294 40.4728L65.368 27.3614C65.954 26.4833 66.0666 25.3743 65.6691 24.3955ZM17.5718 55.4667L10.9511 58.5199C10.3842 58.7818 9.73462 58.5452 9.47743 57.9889L1.47297 40.6351C1.21486 40.0746 1.4576 39.4295 2.02547 39.1681L8.64554 36.115C9.2071 35.857 9.85461 36.1091 10.1058 36.6513L17.2125 52.06C17.2139 52.0632 17.2154 52.0662 17.2168 52.0693L18.1102 54.0065C18.3636 54.5575 18.1223 55.2133 17.5718 55.4667ZM64.2257 26.5998L55.5058 39.6844C50.5545 46.405 42.9316 50.4236 34.5979 50.7119L18.2763 51.0891L12.4602 38.4782L17.1569 34.5957C21.2928 31.1764 27.2679 30.9136 31.6855 33.9602C31.8001 34.038 31.9356 34.0808 32.075 34.0808H41.0818C43.3178 34.0808 45.3593 35.3065 46.4105 37.2788C46.793 37.9964 46.2833 38.8759 45.4512 38.8759H29.2544C28.875 38.8759 28.5679 39.183 28.5679 39.5624C28.5679 39.9418 28.875 40.2489 29.2544 40.2489H45.4512C47.3067 40.2489 48.4966 38.273 47.6221 36.6325C47.0958 35.6449 46.3595 34.8203 45.4947 34.1777L55.7936 25.5795C57.8465 23.9046 60.5082 23.2624 63.0955 23.8203C63.6928 23.9476 64.1675 24.346 64.3975 24.9117C64.6265 25.4775 64.5642 26.0931 64.2257 26.5998Z" fill="#39C0AC"/>
<path d="M7.1826 38.8571C5.70162 38.8571 4.49609 40.0559 4.49609 41.5295C4.49609 43.0098 5.70162 44.2154 7.1826 44.2154C8.66358 44.2154 9.86911 43.0098 9.86911 41.5295C9.86911 40.0557 8.66372 38.8571 7.1826 38.8571ZM7.1826 42.8421C6.45847 42.8421 5.86918 42.2535 5.86918 41.5294C5.86918 40.8134 6.45847 40.23 7.1826 40.23C7.90673 40.23 8.49602 40.8133 8.49602 41.5294C8.49602 42.2535 7.90673 42.8421 7.1826 42.8421Z" fill="#39C0AC"/>
</svg>
