<svg width="54" height="60" viewBox="0 0 54 60" fill="none" xmlns="http://www.w3.org/2000/svg">
<path fill-rule="evenodd" clip-rule="evenodd" d="M30.2968 30.7697L37.9587 21.4532C38.2827 21.0638 38.8537 21.0072 39.2472 21.3252C39.6408 21.6425 39.6948 22.2149 39.3784 22.6034L31.0684 32.6978C30.7282 33.1137 30.0981 33.1457 29.7181 32.7659L26.3695 29.443C26.0145 29.0882 26.0145 28.5127 26.3695 28.1586C26.7245 27.8038 27.3032 27.8038 27.6657 28.1586L30.2968 30.7697ZM38.8614 28.9811C38.7885 28.7058 38.5021 28.5389 38.221 28.6125C37.5517 28.7874 37.8317 29.8001 38.491 29.6194C38.7672 29.5439 38.9392 29.2514 38.8614 28.9811ZM37.7426 26.8561C35.788 27.3785 35.3571 29.975 37.0791 31.0825C35.7045 35.2129 30.835 37.0434 27.1179 34.9832C25.8627 34.2875 25.0484 33.3352 24.425 32.0151C24.209 31.5614 23.6611 31.3675 23.206 31.5821C22.743 31.7975 22.5501 32.3393 22.7662 32.793C23.5562 34.4495 24.6359 35.6934 26.2229 36.5711C31.0173 39.2224 37.27 36.8054 38.9078 31.389C38.9233 31.3843 38.9464 31.3805 38.9618 31.3744C39.5713 31.2135 40.0805 30.8273 40.3969 30.2847C41.4274 28.4992 39.7815 26.3156 37.7426 26.8561ZM23.0284 28.2739C22.7608 28.7123 22.1371 28.5859 22.0176 28.1436C21.8317 27.455 22.8945 27.1656 23.0824 27.8608C23.121 28.001 23.0979 28.1481 23.0284 28.2739ZM24.6102 29.1834C25.2036 28.1573 24.9489 26.8801 24.0315 26.1548C25.7791 22.0958 30.8316 20.6672 34.4866 23.2181C34.9032 23.5078 35.4743 23.4113 35.7674 23.0013C36.053 22.5905 35.9603 22.0235 35.5437 21.7338C30.8729 18.468 24.3619 20.3765 22.2569 25.6599C20.0085 25.9309 19.3856 28.9058 21.3619 30.0488C22.4886 30.7003 23.9536 30.3176 24.6102 29.1834ZM52.1713 52.7479V10.0148C52.1713 8.71892 51.1142 7.66588 49.8102 7.66588L39.1547 7.66658V8.16249C39.1547 9.28749 38.2365 10.2025 37.1023 10.2025H23.9312C22.797 10.2025 21.8788 9.28749 21.8788 8.16249V7.66814L11.7093 7.67039C10.1352 7.67039 8.86207 8.93788 8.86207 10.4967V49.6411H41.7085C42.2023 49.6411 42.6113 50.0373 42.6189 50.5332C42.6884 54.2869 44.5479 57.1016 47.6033 58.1062C48.7144 57.9238 49.7484 57.3997 50.5663 56.5882C51.6004 55.559 52.1713 54.1949 52.1713 52.7479ZM7.99786 58.1285C4.54115 57.6871 1.97181 54.844 1.84056 51.4597H40.8365C41.0834 54.2155 42.2176 56.5505 44.0232 58.1285H7.99786ZM23.7074 5.86115C23.7074 5.7408 23.8077 5.63809 23.9311 5.63809H27.1641C27.7255 5.63809 28.1441 5.13993 28.0746 4.60664C27.8794 3.11003 29.0297 1.8187 30.5128 1.8187C32.0077 1.8187 33.1538 3.1113 32.9587 4.60664C32.8884 5.14572 33.3004 5.63809 33.8693 5.63809H37.1023C37.218 5.63809 37.326 5.7408 37.326 5.86115V8.16249C37.326 8.28283 37.218 8.3847 37.1023 8.3847H23.9312C23.8078 8.3847 23.7075 8.28283 23.7075 8.16249L23.7074 5.86115ZM49.8025 5.84732L39.1547 5.84887C39.147 4.72839 38.2288 3.81954 37.1023 3.81954H34.7875C34.5552 1.65025 32.7181 0 30.5128 0C28.3076 0 26.4681 1.67084 26.2382 3.81954H23.9311C22.8045 3.81954 21.8865 4.72994 21.8787 5.84958L11.7091 5.85183C9.12429 5.85183 7.03336 7.93634 7.03336 10.4967V49.6411H0.937853C0.45944 49.6411 0.0659696 50.006 0.0273329 50.4796C-0.342983 55.2149 3.09057 59.3692 7.83579 59.9402C7.87442 59.9455 7.90525 59.9471 7.94388 59.9471H46.3921C46.4732 59.9615 46.5133 60 46.7008 60C50.695 60 54 56.7732 54 52.7481V10.0148C54 7.71639 52.1173 5.84732 49.8025 5.84732Z" fill="#39C0AC"/>
</svg>
