<svg width="46" height="60" viewBox="0 0 46 60" fill="none" xmlns="http://www.w3.org/2000/svg">
<path d="M40.991 8.61432H37.3162V4.15291C37.3149 3.05188 36.877 1.9963 36.0985 1.21775C35.3199 0.439197 34.2643 0.00125593 33.1633 0H4.15291C3.05188 0.00125593 1.9963 0.439197 1.21775 1.21775C0.439196 1.9963 0.00125593 3.05188 0 4.15291V47.2328C0.0012531 48.3338 0.439193 49.3894 1.21774 50.1679C1.99629 50.9465 3.05187 51.3844 4.15291 51.3857H7.82877V55.8471C7.83008 56.9483 8.26818 58.004 9.04693 58.7825C9.82568 59.5611 10.8815 59.9989 11.9827 60H40.991C42.092 59.9987 43.1476 59.5608 43.9262 58.7823C44.7047 58.0037 45.1427 56.9481 45.1439 55.8471V12.7682C45.1429 11.667 44.705 10.6112 43.9265 9.83248C43.1479 9.05373 42.0922 8.61563 40.991 8.61432ZM2.14242 47.2328V4.15287C2.14294 3.61979 2.35493 3.10869 2.73187 2.73175C3.10882 2.3548 3.61992 2.14281 4.153 2.14229H33.1634C33.6965 2.14281 34.2076 2.3548 34.5845 2.73175C34.9614 3.10869 35.1734 3.61979 35.174 4.15287V38.3026H28.9342C27.9248 38.3035 26.957 38.7048 26.2432 39.4185C25.5294 40.1321 25.1278 41.0998 25.1266 42.1092V49.2433H4.15295C3.61989 49.2428 3.1088 49.0308 2.73187 48.6539C2.35493 48.2769 2.14294 47.7658 2.14242 47.2328ZM34.2624 40.4449L27.4069 48.532C27.3653 48.581 27.3144 48.6186 27.2688 48.663V42.1092C27.2695 41.6678 27.4452 41.2447 27.7574 40.9327C28.0696 40.6207 28.4928 40.4453 28.9341 40.4449H34.2624ZM43.0015 55.8471C43.001 56.3802 42.789 56.8913 42.4121 57.2682C42.0351 57.6452 41.524 57.8572 40.991 57.8577H11.9827C11.4495 57.8572 10.9383 57.6452 10.5612 57.2683C10.1841 56.8914 9.9719 56.3803 9.97115 55.8471V51.3857H25.8733C26.4751 51.3792 27.0686 51.245 27.6146 50.992C28.1606 50.739 28.6467 50.3729 29.0408 49.9181L36.3318 41.3163C36.7014 40.8724 36.9741 40.356 37.1325 39.8005C37.2477 39.4215 37.3095 39.0282 37.3161 38.6321V10.7566H40.991C41.5241 10.7574 42.0352 10.9696 42.4122 11.3467C42.7891 11.7238 43.001 12.235 43.0015 12.7682L43.0015 55.8471Z" fill="#39C0AC"/>
<path d="M29.3652 34.2449C30.2172 34.2439 31.034 33.9051 31.6365 33.3026C32.2389 32.7002 32.5778 31.8834 32.5787 31.0314V17.3834C32.5778 16.5314 32.2389 15.7146 31.6365 15.1122C31.034 14.5097 30.2172 14.1709 29.3652 14.1699H25.9446V11.8299C25.9436 10.9779 25.6048 10.1611 25.0023 9.55863C24.3999 8.95619 23.5831 8.61732 22.7311 8.61639H14.578C13.7261 8.61732 12.9092 8.95619 12.3068 9.55863C11.7043 10.1611 11.3655 10.9779 11.3645 11.8299V14.1699H7.94397C7.09198 14.1709 6.27515 14.5097 5.67271 15.1122C5.07026 15.7146 4.7314 16.5314 4.73047 17.3834V31.0314C4.7314 31.8834 5.07026 32.7002 5.67271 33.3026C6.27515 33.9051 7.09198 34.2439 7.94397 34.2449H29.3652ZM13.5069 11.8299C13.5071 11.5459 13.62 11.2735 13.8208 11.0727C14.0217 10.8718 14.294 10.7589 14.578 10.7587H22.731C23.0151 10.7589 23.2874 10.8718 23.4883 11.0727C23.6891 11.2735 23.802 11.5459 23.8022 11.8299V14.1699H13.5069V11.8299ZM7.94392 16.3123C10.9051 16.3123 21.7221 16.3122 24.8734 16.3123H29.3652C29.6492 16.3125 29.9215 16.4254 30.1224 16.6262C30.3232 16.8271 30.4361 17.0994 30.4363 17.3834V17.6274L19.7059 23.5217C19.384 23.6994 19.0224 23.7927 18.6547 23.7929C18.2871 23.7931 17.9253 23.7002 17.6033 23.5228L6.8728 17.6274C6.84439 17.4689 6.85056 17.3061 6.89089 17.1501C6.93123 16.9942 7.00476 16.8488 7.10648 16.7239C7.20819 16.5991 7.33568 16.4976 7.48023 16.4266C7.62477 16.3555 7.78292 16.3165 7.94392 16.3123ZM6.87276 31.0314V20.0709L16.5718 25.4004C17.2095 25.7526 17.9262 25.9372 18.6547 25.937C19.3832 25.9369 20.0997 25.7519 20.7372 25.3994L30.4363 20.0707V31.0314C30.4361 31.3154 30.3232 31.5877 30.1224 31.7886C29.9215 31.9894 29.6492 32.1024 29.3652 32.1025H7.94398C7.65994 32.1024 7.3876 31.9894 7.18675 31.7886C6.98591 31.5878 6.87295 31.3154 6.87276 31.0314Z" fill="#39C0AC"/>
</svg>
