<svg width="57" height="60" viewBox="0 0 57 60" fill="none" xmlns="http://www.w3.org/2000/svg">
<path d="M56.2881 33.3465C56.4522 33.3191 56.6012 33.2343 56.7087 33.1073C56.8162 32.9804 56.8752 32.8194 56.8752 32.653V24.2227C56.8752 24.0563 56.8162 23.8953 56.7087 23.7683C56.6012 23.6413 56.4522 23.5566 56.2881 23.5291L50.3283 22.5318C49.8199 20.6438 49.0678 18.8302 48.0911 17.1364L51.6016 12.2154C51.6982 12.0799 51.7436 11.9147 51.7298 11.7489C51.716 11.5831 51.6439 11.4276 51.5263 11.31L45.5652 5.34855C45.4475 5.23096 45.292 5.15889 45.1263 5.14514C44.9605 5.13138 44.7952 5.17684 44.6598 5.27344L39.7379 8.78484C38.0446 7.80814 36.2314 7.05608 34.3439 6.54762L33.3466 0.587109C33.3192 0.423018 33.2344 0.273976 33.1075 0.166479C32.9805 0.0589817 32.8195 -6.61545e-06 32.6531 5.56467e-10H24.2222C24.0558 -6.61545e-06 23.8948 0.0589817 23.7679 0.166479C23.6409 0.273976 23.5561 0.423018 23.5287 0.587109L22.5314 6.54762C20.6438 7.05599 18.8305 7.80797 17.1371 8.78461L12.2155 5.27344C12.0801 5.17687 11.9148 5.13145 11.749 5.14525C11.5832 5.15904 11.4277 5.23116 11.3101 5.34879L5.34855 11.3099C5.2309 11.4275 5.15876 11.583 5.14496 11.7488C5.13117 11.9146 5.17661 12.0799 5.2732 12.2154L8.78438 17.1373C7.80756 18.8307 7.05546 20.6441 6.54703 22.5318L0.587109 23.5286C0.423018 23.556 0.273977 23.6408 0.166479 23.7677C0.0589817 23.8947 -6.61545e-06 24.0557 5.56466e-10 24.2221V32.653C-6.61545e-06 32.8194 0.0589817 32.9804 0.166479 33.1073C0.273977 33.2343 0.423018 33.3191 0.587109 33.3465L6.54703 34.3433C7.05532 36.2311 7.80723 38.0447 8.78379 39.7383L5.2732 44.6602C5.17664 44.7956 5.13122 44.9609 5.14501 45.1267C5.15881 45.2924 5.23093 45.4479 5.34855 45.5655L11.3101 51.5271C11.4277 51.6447 11.5832 51.7169 11.749 51.7306C11.9148 51.7444 12.0801 51.699 12.2155 51.6025L17.1374 48.0909C17.3227 48.1977 17.51 48.3011 17.698 48.4024V49.3354C17.6994 50.421 18.0902 51.4701 18.7994 52.2921C19.5085 53.114 20.489 53.6544 21.5627 53.8148C21.7423 55.5129 22.544 57.0845 23.8133 58.2267C25.0826 59.3689 26.7297 60.0009 28.4373 60.0009C30.1449 60.0009 31.792 59.3689 33.0613 58.2267C34.3307 57.0845 35.1323 55.5129 35.3119 53.8148C36.3855 53.6543 37.366 53.114 38.0752 52.292C38.7843 51.47 39.1751 50.421 39.1765 49.3354V48.4039C39.3649 48.3023 39.5528 48.1989 39.7384 48.0919L44.6595 51.6025C44.7949 51.699 44.9602 51.7444 45.126 51.7306C45.2917 51.7169 45.4472 51.6447 45.5648 51.5271L51.5264 45.5655C51.644 45.4479 51.7161 45.2924 51.7299 45.1266C51.7437 44.9609 51.6982 44.7956 51.6016 44.6602L48.0902 39.7383C49.0669 38.045 49.8188 36.2317 50.3272 34.3443L56.2881 33.3465ZM37.9093 45.877H32.7711V36.5193H38.3421C38.469 36.5193 38.5936 36.4849 38.7026 36.4198C38.8116 36.3548 38.9009 36.2614 38.9611 36.1497C39.0213 36.0379 39.0501 35.912 39.0446 35.7852C39.039 35.6583 38.9991 35.5354 38.9293 35.4294L29.025 20.3777C28.961 20.2805 28.8738 20.2006 28.7713 20.1453C28.6688 20.0901 28.5541 20.0611 28.4377 20.0611C28.3212 20.0611 28.2066 20.0901 28.104 20.1453C28.0015 20.2006 27.9143 20.2805 27.8503 20.3777L17.946 35.4296C17.8762 35.5357 17.8364 35.6586 17.8308 35.7854C17.8252 35.9122 17.854 36.0382 17.9142 36.1499C17.9744 36.2616 18.0638 36.355 18.1727 36.4201C18.2817 36.4851 18.4063 36.5195 18.5332 36.5195H24.1042V45.8773H18.9659C18.7559 45.1155 18.3151 44.4375 17.7042 43.9363C15.8388 42.3713 14.3392 40.4165 13.3109 38.2093C12.2826 36.0022 11.7506 33.5965 11.7525 31.1616C11.7525 21.9613 19.2374 14.4764 28.4377 14.4764C37.6379 14.4764 45.1228 21.9609 45.1228 31.1616C45.1246 33.5964 44.5927 36.0021 43.5644 38.2092C42.5361 40.4163 41.0365 42.3711 39.1712 43.9361C38.5602 44.4371 38.1193 45.1152 37.9093 45.877ZM24.8078 35.113H19.8376L28.4377 22.043L37.0377 35.1127H32.068C31.8815 35.1127 31.7027 35.1867 31.5708 35.3186C31.439 35.4505 31.3649 35.6293 31.3649 35.8158V45.8767H25.5104V35.8161C25.5104 35.6297 25.4364 35.4508 25.3045 35.319C25.1726 35.1871 24.9943 35.113 24.8078 35.113ZM28.4377 58.5938C27.1132 58.5885 25.8346 58.1082 24.8343 57.2402C23.834 56.3721 23.1783 55.174 22.9866 53.8635H33.8887C33.697 55.174 33.0413 56.3721 32.041 57.2402C31.0407 58.1082 29.7621 58.5885 28.4377 58.5938ZM34.6486 52.4572H22.2267C21.3989 52.4563 20.6053 52.127 20.0199 51.5417C19.4346 50.9563 19.1053 50.1627 19.1044 49.3349V47.2833H37.7706V49.3349C37.7697 50.1626 37.4404 50.9562 36.8552 51.5416C36.2699 52.1269 35.4763 52.4562 34.6486 52.4572ZM49.0784 33.5569C48.5682 35.619 47.7498 37.5923 46.6508 39.4102C46.5799 39.5276 46.5449 39.6633 46.5501 39.8005C46.5554 39.9376 46.6006 40.0702 46.6804 40.182L50.1115 44.9918L44.9919 50.1115L40.1832 46.6812C40.0715 46.6015 39.9389 46.5562 39.8017 46.551C39.6646 46.5458 39.5289 46.5808 39.4114 46.6518C39.3353 46.6977 39.2582 46.7429 39.1812 46.7882C39.1954 46.4455 39.2826 46.1098 39.437 45.8036C39.5913 45.4973 39.8093 45.2275 40.0763 45.0122C42.0987 43.3154 43.7247 41.1959 44.8395 38.8029C45.9544 36.4099 46.5311 33.8015 46.5291 31.1616C46.5291 21.186 38.4132 13.0702 28.4377 13.0702C18.4621 13.0702 10.3463 21.186 10.3463 31.1616C10.3443 33.8015 10.921 36.4097 12.0359 38.8026C13.1508 41.1956 14.7766 43.315 16.7991 45.0117C17.0654 45.2266 17.2829 45.4957 17.4372 45.8012C17.5914 46.1067 17.6789 46.4415 17.6937 46.7834C17.6176 46.7387 17.5399 46.6958 17.4647 46.6504C17.3472 46.5794 17.2116 46.5444 17.0744 46.5497C16.9373 46.5549 16.8047 46.6002 16.693 46.6799L11.8834 50.111L6.76371 44.9918L10.194 40.1836C10.2737 40.0719 10.3189 39.9393 10.3242 39.8022C10.3294 39.665 10.2944 39.5294 10.2234 39.4119C9.1244 37.5934 8.3059 35.6195 7.79555 33.5569C7.76263 33.4237 7.69147 33.303 7.59084 33.2098C7.4902 33.1166 7.36449 33.0548 7.22918 33.0321L1.40637 32.058V24.8174L7.22977 23.8433C7.36511 23.8207 7.49086 23.7589 7.59152 23.6656C7.69218 23.5723 7.76335 23.4517 7.79625 23.3184C8.30648 21.2561 9.12495 19.2825 10.224 17.4643C10.295 17.3469 10.33 17.2112 10.3248 17.074C10.3196 16.9369 10.2743 16.8043 10.1946 16.6925L6.76383 11.8828L11.8834 6.76336L16.6928 10.1953C16.8045 10.275 16.9371 10.3203 17.0743 10.3255C17.2114 10.3308 17.3471 10.2958 17.4646 10.2248C19.2827 9.1259 21.2562 8.30751 23.3184 7.79731C23.4518 7.76448 23.5727 7.6933 23.666 7.59257C23.7594 7.49183 23.8213 7.36595 23.8439 7.23047L24.8175 1.40625H32.0578L33.032 7.23047C33.0547 7.36581 33.1164 7.49156 33.2097 7.59222C33.303 7.69288 33.4236 7.76405 33.5569 7.79695C35.6191 8.30719 37.5925 9.12562 39.4105 10.2246C39.528 10.2956 39.6636 10.3306 39.8008 10.3254C39.9379 10.3202 40.0706 10.275 40.1823 10.1953L44.9919 6.76418L50.1115 11.8828L46.6812 16.6915C46.6015 16.8032 46.5563 16.9358 46.551 17.0729C46.5458 17.21 46.5808 17.3457 46.6518 17.4632C47.7508 19.2817 48.5693 21.2556 49.0796 23.3182C49.1126 23.4514 49.1838 23.5721 49.2844 23.6653C49.3851 23.7586 49.5108 23.8203 49.6461 23.843L55.4689 24.8169V32.0572L49.6447 33.0315C49.5093 33.0542 49.3836 33.1161 49.2829 33.2095C49.1823 33.3028 49.1112 33.4236 49.0784 33.5569Z" fill="#39C0AC"/>
</svg>
