<svg width="48" height="60" viewBox="0 0 48 60" fill="none" xmlns="http://www.w3.org/2000/svg">
<path d="M41.0643 39.1991L37.5429 38.1652L29.8816 33.1612V32.0146C32.0998 30.3415 33.623 27.7841 33.9061 24.8527C35.0186 24.6736 35.8709 23.7069 35.8709 22.5449V19.392C35.8709 19.3798 35.8696 19.3678 35.869 19.3557V15.3617C36.3122 15.0443 36.5934 14.5274 36.5934 13.9476V10.2925L41.8806 9.3919C42.7495 9.2439 43.3744 8.55378 43.4358 7.67452C43.497 6.79526 42.9739 6.02511 42.1341 5.75804L24.3102 0.0887402C23.9382 -0.0296191 23.5454 -0.029502 23.1737 0.088623L5.34961 5.75804C4.50973 6.02511 3.9866 6.79526 4.04789 7.6744C4.0868 8.23304 4.35375 8.71468 4.76578 9.03015V13.8099H4.72219C3.71848 13.8099 2.90191 14.6264 2.90191 15.6301V18.0027L1.72688 24.8994C1.52379 26.0923 2.44254 27.1841 3.65543 27.1841H7.63383C8.84402 27.1841 9.76594 26.0949 9.56238 24.8993L8.38734 18.0027V15.6301C8.38734 14.6264 7.57078 13.8099 6.56707 13.8099H6.52359V9.54858L10.894 10.293V13.9476C10.894 14.525 11.1739 15.041 11.615 15.3589L11.6167 19.3923V22.5449C11.6167 23.7071 12.469 24.6736 13.5814 24.8527C13.8645 27.7825 15.386 30.3387 17.602 32.0119V33.1639L9.94242 38.1669L6.42387 39.1997C2.65875 40.3048 0.000234246 43.7615 0.000234246 47.7796V50.399C0.000234246 50.8844 0.393633 51.2779 0.87914 51.2779C1.36465 51.2779 1.75805 50.8845 1.75805 50.399V47.7796C1.75805 44.6127 3.8802 41.7781 6.91898 40.8863L10.1974 39.9239L23.295 47.7067C23.5609 47.8647 23.9127 47.8731 24.1929 47.7067L37.2913 39.9235L40.5694 40.8858C43.6077 41.7778 45.7298 44.6124 45.7298 47.779V56.2678C45.7298 57.3566 44.844 58.2425 43.7552 58.2425H39.8814V54.454C39.8814 53.9686 39.488 53.5751 39.0025 53.5751C38.5171 53.5751 38.1236 53.9685 38.1236 54.454V58.2425H9.36012V54.454C9.36012 53.9686 8.96672 53.5751 8.48121 53.5751C7.9957 53.5751 7.6023 53.9685 7.6023 54.454V58.2425H3.73242C2.64363 58.2425 1.75781 57.3566 1.75781 56.2678V54.5075C1.75781 54.0221 1.36441 53.6285 0.878906 53.6285C0.393398 53.6285 0 54.0219 0 54.5075V56.2677C0 58.3258 1.67426 60 3.7323 60H43.755C45.813 60 47.4873 58.3258 47.4873 56.2677V47.7789C47.4873 43.8555 44.9195 40.331 41.0643 39.1991ZM7.63371 25.4263H3.65543C3.5325 25.4263 3.43875 25.3165 3.45961 25.1945L4.5225 18.9559H6.76664L7.82953 25.1944C7.85027 25.3162 7.75723 25.4263 7.63371 25.4263ZM6.62953 15.6301V17.1982H4.65949V15.6301C4.65949 15.5956 4.6875 15.5676 4.72207 15.5676H6.56684C6.60152 15.5675 6.62953 15.5956 6.62953 15.6301ZM20.6004 43.731L20.9502 44.2687L11.9773 38.937L17.6727 35.2169C17.931 38.2473 18.9299 41.1635 20.6004 43.731ZM20.5943 39.9371C22.663 40.231 24.8232 40.2312 26.8931 39.9371C26.4932 40.9212 26.0003 41.8709 25.4138 42.7725L23.7437 45.3394L22.0737 42.7725C21.4871 41.8709 20.9943 40.9212 20.5943 39.9371ZM26.887 43.731C28.5575 41.1635 29.5564 38.2473 29.8146 35.2169L35.51 38.9369L26.5372 44.2687L26.887 43.731ZM32.0282 15.689H34.1113V18.513H33.0773C32.4988 18.513 32.028 18.0423 32.028 17.4638V15.689H32.0282ZM5.88234 7.43312L23.7067 1.76358C23.7295 1.75632 23.7541 1.7562 23.7773 1.7637L41.6016 7.43312C41.6384 7.44483 41.6889 7.46077 41.6824 7.5523C41.676 7.6437 41.6238 7.65249 41.5856 7.65905L35.6925 8.66276L33.48 8.38913C32.9986 8.32948 32.5596 8.6719 32.5 9.15355C32.4404 9.6353 32.7827 10.0741 33.2644 10.1336L34.8359 10.328V13.9313L12.6517 13.9305V10.3279L21.7463 9.20253C23.0709 9.03882 24.4139 9.03882 25.7377 9.20253L29.1798 9.62827C29.6614 9.68792 30.1003 9.34562 30.16 8.86397C30.2196 8.38222 29.8773 7.94347 29.3957 7.88382L25.9535 7.45808C24.4867 7.27655 22.9984 7.27655 21.5305 7.45808L11.7929 8.663L5.89805 7.65905C5.85984 7.65249 5.80769 7.6437 5.80125 7.5523C5.79492 7.46077 5.84543 7.44472 5.88234 7.43312ZM13.3739 18.513L13.3727 15.689H15.4593V17.4639C15.4593 18.0423 14.9886 18.5131 14.41 18.5131L13.3739 18.513ZM15.3083 24.4009C15.2631 23.6853 14.6682 23.1246 13.9542 23.1246C13.6344 23.1246 13.3743 22.8645 13.3743 22.5448V20.2708H14.41C15.9577 20.2708 17.217 19.0116 17.217 17.4639V15.689H30.2704V17.4639C30.2704 19.0116 31.5296 20.2708 33.0773 20.2708H34.113V22.5448C34.113 22.8645 33.8529 23.1246 33.5331 23.1246C32.8191 23.1246 32.2242 23.6853 32.179 24.401C31.899 28.8388 28.1938 32.3152 23.7436 32.3152C19.2934 32.3152 15.5883 28.8388 15.3083 24.4009ZM23.7437 34.0729C25.3069 34.0729 26.7926 33.7155 28.1239 33.08V33.6369C28.1239 35.1396 27.9212 36.6219 27.5309 38.0516C25.1423 38.507 22.442 38.5254 19.9566 38.0516C19.5662 36.6221 19.3635 35.1398 19.3635 33.6369C19.3635 33.6183 19.3609 33.6001 19.3597 33.5817C19.3595 33.5781 19.3598 33.5745 19.3596 33.5709V33.0782C20.6919 33.7148 22.179 34.0729 23.7437 34.0729Z" fill="#39C0AC"/>
</svg>
