<svg width="60" height="60" viewBox="0 0 60 60" fill="none" xmlns="http://www.w3.org/2000/svg">
<path d="M60 30C60 27.51 58.1013 25.4758 55.679 25.2135C55.0161 21.6474 53.5993 18.2274 51.5419 15.2294C52.2348 14.3719 52.6306 13.3258 52.6306 12.2081C52.6306 10.9152 52.1274 9.70064 51.2139 8.7871C49.4526 7.02581 46.6713 6.93097 44.7726 8.45903C41.7735 6.40065 38.3535 4.9829 34.7874 4.32C34.5232 1.89871 32.49 0 30 0C27.51 0 25.4768 1.89871 25.2135 4.32097C21.6474 4.98387 18.2274 6.40161 15.2284 8.46C13.3306 6.93097 10.5484 7.02581 8.7871 8.7871C7.87355 9.70064 7.37032 10.9152 7.37032 12.2081C7.37032 13.3258 7.76613 14.3729 8.45903 15.2294C6.40161 18.2274 4.98484 21.6465 4.32194 25.2135C1.89871 25.4758 0 27.509 0 30C0 32.491 1.89871 34.5242 4.32097 34.7864C4.98387 38.3526 6.40064 41.7726 8.45806 44.7706C7.76516 45.6281 7.36935 46.6742 7.36935 47.7919C7.36935 49.0848 7.87258 50.2994 8.78613 51.2129C9.72968 52.1564 10.9684 52.6277 12.2081 52.6277C13.2832 52.6277 14.3458 52.2513 15.2274 51.541C18.2255 53.5984 21.6465 55.0161 25.2135 55.679C25.4758 58.1013 27.509 60 30 60C32.49 60 34.5232 58.1013 34.7864 55.679C38.3535 55.0161 41.7735 53.5984 44.7726 51.541C45.6542 52.2503 46.7168 52.6277 47.7919 52.6277C49.0306 52.6277 50.2703 52.1564 51.2139 51.2129C52.1274 50.2994 52.6306 49.0848 52.6306 47.7919C52.6306 46.6742 52.2348 45.6271 51.5419 44.7706C53.5993 41.7726 55.0161 38.3526 55.679 34.7864C58.1013 34.5242 60 32.491 60 30ZM44.761 44.0516L40.0326 40.05C40.411 39.361 40.6452 38.5819 40.6452 37.7419C40.6452 37.4477 40.6084 37.1632 40.5581 36.8845L51.1248 32.6574C51.7365 33.5835 52.6635 34.2687 53.7455 34.6026C53.13 37.7864 51.8642 40.8406 50.0429 43.5348C48.361 42.6484 46.2823 42.8197 44.761 44.0516ZM32.9032 37.7419C32.9032 36.1413 34.2058 34.8387 35.8064 34.8387C37.4071 34.8387 38.7097 36.1413 38.7097 37.7419C38.7097 39.3426 37.4071 40.6452 35.8064 40.6452C34.2058 40.6452 32.9032 39.3426 32.9032 37.7419ZM15.63 44.371C15.3823 44.1232 15.1132 43.9132 14.8306 43.7303L18.7819 31.8774C18.9716 31.9006 19.1584 31.9355 19.3548 31.9355C20.7058 31.9355 21.9252 31.3761 22.8039 30.481L31.3094 35.9845C31.0955 36.5313 30.9677 37.1206 30.9677 37.7419C30.9677 38.0932 31.0094 38.4339 31.081 38.7639L16.3171 45.2594C16.1216 44.9429 15.9 44.641 15.63 44.371ZM9.95613 43.5358C8.13484 40.8416 6.86903 37.7874 6.25355 34.6035C8.22194 33.9958 9.66581 32.1842 9.67452 30.0203L14.8955 28.9761C15.3068 29.9487 16.0384 30.7423 16.9442 31.2677L13.0219 43.0345C11.9835 42.8574 10.9084 43.0335 9.95613 43.5358ZM12.2081 17.0439C12.6455 17.0439 13.0781 16.9635 13.5029 16.8455L16.4806 23.2258C15.3 24.1045 14.5248 25.4971 14.5181 27.0765L9.2971 28.1206C8.74452 26.8132 7.6229 25.8194 6.25452 25.3965C6.87 22.2116 8.13581 19.1574 9.95613 16.4642C10.6606 16.8358 11.43 17.0439 12.2081 17.0439ZM15.63 15.629C15.8468 15.4123 16.0374 15.1761 16.2068 14.9284L29.1039 19.6181C29.069 19.8503 29.0323 20.0816 29.0323 20.3226C29.0323 20.7106 29.0903 21.0832 29.1765 21.4452L23.2248 24.2235C22.3423 23.0371 20.9429 22.2581 19.3548 22.2581C18.9668 22.2581 18.5942 22.3161 18.2323 22.4023L15.2255 15.959C15.361 15.8506 15.5042 15.7548 15.63 15.629ZM33.871 17.4194C35.4716 17.4194 36.7742 18.7219 36.7742 20.3226C36.7742 21.9232 35.4716 23.2258 33.871 23.2258C32.2703 23.2258 30.9677 21.9232 30.9677 20.3226C30.9677 18.7219 32.2703 17.4194 33.871 17.4194ZM44.37 15.629C45.3135 16.5726 46.5523 17.0439 47.7919 17.0439C48.57 17.0439 49.3394 16.8358 50.0439 16.4642C51.8642 19.1574 53.131 22.2126 53.7464 25.3965C52.7371 25.7081 51.869 26.3284 51.2603 27.1635L38.58 21.3997C38.6584 21.0523 38.7097 20.6942 38.7097 20.3226C38.7097 19.7952 38.6042 19.2977 38.4474 18.8216L44.2626 15.4984C44.3013 15.54 44.3294 15.5894 44.37 15.629ZM36.2468 32.9477L35.3535 24.9048C36.3339 24.5865 37.1768 23.9758 37.7719 23.159L50.4532 28.9229C50.3739 29.2703 50.3226 29.6284 50.3226 30C50.3226 30.2942 50.3594 30.5787 50.4097 30.8584L39.8429 35.0845C39.0542 33.8903 37.7468 33.0861 36.2468 32.9477ZM33.4306 25.1168L34.3239 33.1597C33.5739 33.4035 32.8974 33.8071 32.3584 34.3568L23.8519 28.8523C24.0658 28.3074 24.1935 27.7181 24.1935 27.0968C24.1935 26.7087 24.1355 26.3361 24.0494 25.9742L30 23.1968C30.7994 24.269 32.0264 24.9871 33.4306 25.1168ZM16.4516 27.0968C16.4516 25.4961 17.7542 24.1935 19.3548 24.1935C20.9555 24.1935 22.2581 25.4961 22.2581 27.0968C22.2581 28.6974 20.9555 30 19.3548 30C17.7542 30 16.4516 28.6974 16.4516 27.0968ZM58.0645 30C58.0645 31.6006 56.7619 32.9032 55.1613 32.9032C53.5606 32.9032 52.2581 31.6006 52.2581 30C52.2581 28.3994 53.5606 27.0968 55.1613 27.0968C56.7619 27.0968 58.0645 28.3994 58.0645 30ZM47.7919 9.30677C48.5352 9.30677 49.2794 9.58936 49.8455 10.1555C50.3932 10.7032 50.6952 11.4319 50.6952 12.2081C50.6952 12.9842 50.3932 13.7129 49.8455 14.2606C48.7132 15.3919 46.8716 15.3919 45.7394 14.2606C45.1916 13.7129 44.8897 12.9842 44.8897 12.2081C44.8897 11.4319 45.1916 10.7032 45.7394 10.1555C46.3045 9.58936 47.0477 9.30677 47.7919 9.30677ZM34.6026 6.25452C37.7855 6.87 40.8387 8.13581 43.5329 9.95516C43.1671 10.6442 42.9523 11.4058 42.9523 12.2081C42.9523 12.7771 43.0655 13.3258 43.2532 13.8465L37.4874 17.1416C36.6 16.1332 35.3158 15.4839 33.871 15.4839C33.8003 15.4839 33.7345 15.5013 33.6639 15.5052L32.0845 9.18677C33.2884 8.60613 34.2039 7.54742 34.6026 6.25452ZM30 1.93548C31.6006 1.93548 32.9032 3.23806 32.9032 4.83871C32.9032 6.43935 31.6006 7.74194 30 7.74194C28.3994 7.74194 27.0968 6.43935 27.0968 4.83871C27.0968 3.23806 28.3994 1.93548 30 1.93548ZM30 9.67742C30.0706 9.67742 30.1365 9.66 30.2071 9.65613L31.7865 15.9745C30.9484 16.3781 30.2477 17.011 29.7619 17.7987L16.9558 13.1419C17.0148 12.8371 17.0468 12.5255 17.0468 12.2081C17.0468 11.4058 16.8319 10.6442 16.4661 9.95516C19.1603 8.13484 22.2135 6.87 25.3965 6.25452C26.0071 8.22871 27.8274 9.67742 30 9.67742ZM10.1555 10.1555C10.7216 9.58936 11.4658 9.30677 12.209 9.30677C12.9523 9.30677 13.6965 9.58936 14.2626 10.1555C14.8103 10.7032 15.1123 11.4319 15.1123 12.2081C15.1123 12.9842 14.8103 13.7129 14.2626 14.2606C13.1303 15.3919 11.2887 15.3919 10.1565 14.2606C9.60871 13.7129 9.30677 12.9842 9.30677 12.2081C9.30677 11.4319 9.60677 10.7042 10.1555 10.1555ZM1.93548 30C1.93548 28.3994 3.23806 27.0968 4.83871 27.0968C6.43935 27.0968 7.74194 28.3994 7.74194 30C7.74194 31.6006 6.43935 32.9032 4.83871 32.9032C3.23806 32.9032 1.93548 31.6006 1.93548 30ZM10.1555 49.8445C9.60774 49.2968 9.30581 48.5681 9.30581 47.7919C9.30581 47.0158 9.60774 46.2871 10.1555 45.7394C10.7216 45.1732 11.4648 44.8906 12.209 44.8906C12.9523 44.8906 13.6965 45.1732 14.2626 45.7394C14.8103 46.2871 15.1123 47.0158 15.1123 47.7919C15.1123 48.5681 14.8103 49.2968 14.2626 49.8445C13.1294 50.9758 11.2877 50.9758 10.1555 49.8445ZM25.3974 53.7455C22.2135 53.13 19.1603 51.8642 16.4671 50.0448C16.8329 49.3558 17.0477 48.5942 17.0477 47.7919C17.0477 47.551 17.0129 47.3177 16.979 47.0835L31.8677 40.5319C32.2703 41.0981 32.7939 41.5626 33.3968 41.9119L30.5739 50.3797C30.3832 50.3574 30.1965 50.3226 30 50.3226C27.8274 50.3226 26.0071 51.7713 25.3974 53.7455ZM30 58.0645C28.3994 58.0645 27.0968 56.7619 27.0968 55.1613C27.0968 53.5606 28.3994 52.2581 30 52.2581C31.6006 52.2581 32.9032 53.5606 32.9032 55.1613C32.9032 56.7619 31.6006 58.0645 30 58.0645ZM32.4106 50.9903L35.2335 42.5226C35.4232 42.5458 35.61 42.5806 35.8064 42.5806C36.9339 42.5806 37.9587 42.1771 38.7823 41.5287L43.53 45.5458C43.1671 46.2329 42.9532 46.9926 42.9532 47.7919C42.9532 48.5942 43.1681 49.3568 43.5339 50.0458C40.8406 51.8652 37.7874 53.131 34.6035 53.7464C34.2406 52.5726 33.4539 51.5961 32.4106 50.9903ZM49.8445 49.8445C48.7123 50.9768 46.8706 50.9768 45.7384 49.8445C45.1906 49.2968 44.8887 48.5681 44.8887 47.7919C44.8887 47.0158 45.1906 46.2871 45.7384 45.7394C46.3045 45.1732 47.0477 44.8906 47.7919 44.8906C48.5352 44.8906 49.2794 45.1732 49.8455 45.7394C50.3932 46.2871 50.6952 47.0158 50.6952 47.7919C50.6952 48.5681 50.3932 49.2958 49.8445 49.8445Z" fill="#39C0AC"/>
</svg>
