<svg width="72" height="45" viewBox="0 0 72 45" fill="none" xmlns="http://www.w3.org/2000/svg">
<path d="M60.179 22.4688C61.3171 22.4688 62.4297 22.8063 63.3761 23.4386C64.3224 24.0709 65.06 24.9696 65.4955 26.0212C65.9311 27.0727 66.0451 28.2297 65.823 29.346C65.601 30.4623 65.0529 31.4877 64.2481 32.2925C63.4433 33.0973 62.4179 33.6453 61.3017 33.8674C60.1854 34.0894 59.0283 33.9755 57.9768 33.5399C56.9253 33.1044 56.0265 32.3668 55.3942 31.4204C54.7619 30.4741 54.4244 29.3615 54.4244 28.2233C54.426 26.6976 55.0328 25.2348 56.1116 24.156C57.1905 23.0771 58.6533 22.4703 60.179 22.4688Z" fill="white"/>
<path d="M60.1783 16.7129C62.4546 16.7129 64.6798 17.3879 66.5725 18.6525C68.4651 19.9172 69.9403 21.7147 70.8114 23.8177C71.6825 25.9207 71.9104 28.2349 71.4663 30.4674C71.0223 32.7 69.9261 34.7507 68.3165 36.3603C66.7069 37.9699 64.6562 39.066 62.4236 39.5101C60.1911 39.9542 57.8769 39.7263 55.7739 38.8552C53.6709 37.9841 51.8734 36.5089 50.6087 34.6163C49.3441 32.7236 48.6691 30.4984 48.6691 28.2221C48.6728 25.1708 49.8866 22.2455 52.0442 20.0879C54.2017 17.9304 57.127 16.7166 60.1783 16.7129ZM60.1783 35.6569C61.6488 35.6569 63.0862 35.2208 64.3088 34.4039C65.5315 33.5869 66.4844 32.4258 67.0471 31.0673C67.6099 29.7087 67.7571 28.2138 67.4702 26.7716C67.1833 25.3294 66.4752 24.0047 65.4355 22.9649C64.3957 21.9251 63.071 21.217 61.6287 20.9302C60.1865 20.6433 58.6917 20.7905 57.3331 21.3533C55.9746 21.916 54.8135 22.8689 53.9965 24.0915C53.1796 25.3142 52.7435 26.7516 52.7435 28.2221C52.7457 30.1932 53.5297 32.0831 54.9235 33.4769C56.3173 34.8707 58.2071 35.6547 60.1783 35.6569Z" fill="white"/>
<path d="M11.5075 33.9771C8.32959 33.9771 5.75336 31.4009 5.75336 28.2229C5.75336 25.045 8.32959 22.4688 11.5075 22.4688C14.6855 22.4688 17.2617 25.045 17.2617 28.2229C17.2617 31.4009 14.6855 33.9771 11.5075 33.9771Z" fill="white"/>
<path d="M11.5103 16.7129C13.7866 16.7129 16.0118 17.3879 17.9045 18.6525C19.7972 19.9172 21.2723 21.7147 22.1434 23.8177C23.0145 25.9207 23.2425 28.2349 22.7984 30.4674C22.3543 32.7 21.2582 34.7507 19.6486 36.3603C18.039 37.9699 15.9882 39.066 13.7557 39.5101C11.5231 39.9542 9.20898 39.7263 7.10595 38.8552C5.00292 37.9841 3.20543 36.5089 1.94078 34.6163C0.676136 32.7236 0.00113297 30.4984 0.00113297 28.2221C0.00483704 25.1708 1.2186 22.2455 3.37619 20.0879C5.53378 17.9304 8.45904 16.7166 11.5103 16.7129ZM11.5103 35.6569C12.9808 35.6569 14.4182 35.2208 15.6409 34.4039C16.8635 33.5869 17.8164 32.4258 18.3792 31.0673C18.9419 29.7087 19.0891 28.2138 18.8022 26.7716C18.5154 25.3294 17.8073 24.0047 16.7675 22.9649C15.7277 21.9251 14.403 21.217 12.9608 20.9302C11.5186 20.6433 10.0237 20.7905 8.66516 21.3533C7.30664 21.916 6.14548 22.8689 5.32854 24.0915C4.5116 25.3142 4.07556 26.7516 4.07556 28.2221C4.07771 30.1932 4.8617 32.0831 6.25552 33.4769C7.64935 34.8707 9.53917 35.6547 11.5103 35.6569Z" fill="white"/>
<path d="M53.8208 20.4927C53.9686 20.4925 54.1138 20.4534 54.2417 20.3792C54.3696 20.305 54.4756 20.1983 54.5491 20.07C54.6226 19.9417 54.6609 19.7963 54.6601 19.6484C54.6594 19.5005 54.6197 19.3555 54.5449 19.2279L43.5318 0.415702C43.4577 0.289173 43.3518 0.18423 43.2247 0.111303C43.0975 0.0383752 42.9534 3.19714e-06 42.8068 0H36.8076C36.5848 0 36.3711 0.0885083 36.2136 0.246055C36.056 0.403602 35.9675 0.617282 35.9675 0.840087C35.9675 1.06289 36.056 1.27657 36.2136 1.43412C36.3711 1.59166 36.5848 1.68017 36.8076 1.68017H42.3251L53.0951 20.0768C53.1692 20.2035 53.2752 20.3085 53.4025 20.3815C53.5298 20.4544 53.674 20.4928 53.8208 20.4927Z" fill="white"/>
<path d="M57.5513 18.7201C57.6992 18.7199 57.8443 18.6808 57.9722 18.6066C58.1001 18.5324 58.2061 18.4258 58.2796 18.2975C58.353 18.1692 58.3913 18.0238 58.3906 17.8759C58.3899 17.7281 58.3502 17.583 58.2755 17.4555L48.3 0.415702C48.2259 0.289173 48.12 0.18423 47.9929 0.111303C47.8657 0.0383752 47.7216 3.19714e-06 47.575 0H41.5758C41.353 0 41.1393 0.0885083 40.9818 0.246055C40.8242 0.403602 40.7357 0.617282 40.7357 0.840087C40.7357 1.06289 40.8242 1.27657 40.9818 1.43412C41.1393 1.59166 41.353 1.68017 41.5758 1.68017H47.0933L56.8256 18.3042C56.8997 18.4309 57.0057 18.5359 57.133 18.6089C57.2604 18.6819 57.4046 18.7202 57.5513 18.7201Z" fill="white"/>
<path d="M48.296 2.90017C48.3695 2.77189 48.4757 2.6653 48.6036 2.59118C48.7316 2.51706 48.8769 2.47802 49.0248 2.47803H53.9236C55.2621 2.47737 56.5463 3.00726 57.4949 3.95162C58.4434 4.89598 58.979 6.17781 58.9843 7.51631C58.9896 8.85481 58.4642 10.1408 57.5231 11.0927C56.5821 12.0445 55.3021 12.5846 53.9636 12.5945C53.817 12.5945 53.673 12.5561 53.5458 12.4832C53.4186 12.4103 53.3127 12.3053 53.2386 12.1788L48.2998 3.7425C48.225 3.61486 48.1853 3.46975 48.1847 3.32184C48.184 3.17394 48.2224 3.02848 48.296 2.90017Z" fill="white"/>
<path d="M12.5445 5.17542C13.1119 4.85347 13.7557 4.69092 14.4079 4.70497C15.0601 4.71901 15.6963 4.90915 16.2493 5.25523L23.2066 9.54388H27.9656H27.9702H35.8429C36.0657 9.54388 36.2794 9.45537 36.437 9.29782C36.5945 9.14028 36.683 8.9266 36.683 8.70379C36.683 8.48099 36.5945 8.26731 36.437 8.10976C36.2794 7.95221 36.0657 7.86371 35.8429 7.86371H29.4538C30.991 5.56676 33.3419 3.93802 36.0325 3.30585C38.7231 2.67368 41.5533 3.08509 43.9526 4.45715L42.327 1.68066H36.809C36.5862 1.68066 36.3725 1.59215 36.215 1.43461C36.0574 1.27706 35.9689 1.06338 35.9689 0.840576C35.9689 0.617771 36.0574 0.40409 36.215 0.246544C36.3725 0.0889966 36.5862 0.000488343 36.809 0.000488343H42.8086C42.955 0.000432166 43.0988 0.0386522 43.2257 0.111355C43.3527 0.184058 43.4585 0.288714 43.5325 0.41493L47.3423 6.92281L54.5461 19.2273C54.6039 19.3225 54.6421 19.4283 54.6587 19.5384C54.6752 19.6486 54.6697 19.7609 54.6424 19.8689C54.6151 19.9769 54.5666 20.0784 54.4997 20.1675C54.4329 20.2565 54.349 20.3314 54.2529 20.3878C54.1568 20.4441 54.0505 20.4808 53.9401 20.4957C53.8297 20.5106 53.7174 20.5033 53.6099 20.4744C53.5023 20.4455 53.4016 20.3955 53.3135 20.3273C53.2254 20.2591 53.1518 20.1741 53.0969 20.0772L51.3425 17.0809L47.761 24.4582C46.7671 26.4859 45.2263 28.1953 43.3123 29.3935C41.3983 30.5917 39.1875 31.231 36.9294 31.2391H22.6171C22.8829 30.2558 23.0181 29.2418 23.019 28.2232C23.0191 27.7764 22.9929 27.3299 22.9406 26.8861C22.8755 26.3186 22.7674 25.757 22.6171 25.2059H23.7415L25.7157 19.9344C25.8744 19.5083 25.8804 19.0403 25.7325 18.6103C25.5847 18.1803 25.2922 17.8149 24.905 17.5765L11.0687 9.08743C10.9466 9.01216 10.8457 8.90692 10.7756 8.7817C10.7055 8.65649 10.6686 8.51545 10.6683 8.37196C10.6637 7.71948 10.8357 7.07791 11.166 6.51519C11.4963 5.95246 11.9726 5.48953 12.5445 5.17542ZM30.7072 18.4442L37.15 22.8625H33.2727C33.0499 22.8625 32.8362 22.951 32.6786 23.1085C32.5211 23.2661 32.4326 23.4798 32.4326 23.7026C32.4326 23.9254 32.5211 24.1391 32.6786 24.2966C32.8362 24.4541 33.0499 24.5427 33.2727 24.5427H40.7059C40.7101 24.5427 40.7142 24.5427 40.7182 24.5427H40.7258C41.4156 24.5426 42.0912 24.3467 42.6741 23.9778C43.2569 23.6088 43.723 23.0819 44.0181 22.4584L46.0745 18.11C46.1351 17.9819 46.1623 17.8406 46.1536 17.6992C46.1449 17.5578 46.1006 17.4209 46.0249 17.3013C45.9491 17.1816 45.8443 17.083 45.7202 17.0147C45.5961 16.9464 45.4567 16.9106 45.315 16.9106H31.1824C31.003 16.9106 30.8283 16.9679 30.6839 17.0743C30.5394 17.1807 30.4328 17.3306 30.3797 17.502C30.3266 17.6733 30.3298 17.8572 30.3887 18.0266C30.4476 18.1961 30.5592 18.3422 30.7072 18.4436V18.4442Z" fill="white"/>
<path d="M42.5043 21.7402C42.3829 21.9966 42.2074 22.2237 41.9898 22.4057C41.7721 22.5877 41.5176 22.7203 41.2437 22.7943C40.9698 22.8683 40.6831 22.882 40.4034 22.8344C40.1237 22.7868 39.8577 22.6791 39.6237 22.5186L33.8971 18.5918H43.9922L42.5043 21.7402Z" fill="white"/>
<path d="M0.858101 38.0513H70.8357C71.0585 38.0513 71.2722 38.1398 71.4297 38.2973C71.5873 38.4549 71.6758 38.6686 71.6758 38.8914V40.4662C71.6747 41.4314 71.2908 42.3567 70.6084 43.0392C69.9259 43.7217 69.0006 44.1055 68.0354 44.1066H3.65839C2.69324 44.1055 1.76791 43.7217 1.08545 43.0392C0.402977 42.3567 0.0190887 41.4314 0.018013 40.4662V38.8914C0.018013 38.6686 0.106529 38.4549 0.264076 38.2973C0.421623 38.1398 0.6353 38.0513 0.858101 38.0513Z" fill="white"/>
</svg>
