<svg width="67" height="65" viewBox="0 0 67 65" fill="none" xmlns="http://www.w3.org/2000/svg">
<path fill-rule="evenodd" clip-rule="evenodd" d="M21.1394 0.8125H61.9674C64.0783 0.8125 65.806 2.54024 65.806 4.65116V35.3605C65.806 37.4714 64.0783 39.1991 61.9674 39.1991H21.1394C19.0285 39.1991 17.3008 37.4714 17.3008 35.3605V4.64981C17.3008 2.53888 19.0272 0.8125 21.1394 0.8125Z" fill="#ECEFF1"/>
<path fill-rule="evenodd" clip-rule="evenodd" d="M21.1394 0.8125H61.9674C64.0783 0.8125 65.806 2.54024 65.806 4.65116V6.91916H17.3008V4.64981C17.3008 2.53888 19.0272 0.8125 21.1394 0.8125Z" fill="#2FB1D4"/>
<path fill-rule="evenodd" clip-rule="evenodd" d="M58.9191 64.1862H47.5291C46.5718 64.1862 45.7472 63.8179 45.1094 63.1043C44.4717 62.3908 44.1968 61.531 44.3038 60.5791C44.7398 56.6984 48.049 53.6641 52.042 53.6641H54.4035C58.3978 53.6641 61.7057 56.6971 62.1417 60.5791C62.2487 61.531 61.9738 62.3908 61.3361 63.1043C60.701 63.8179 59.8778 64.1862 58.9191 64.1862Z" fill="#FFE177"/>
<path d="M54.3727 53.0197C57.0583 52.3848 58.7208 49.6931 58.086 47.0074C57.4511 44.3218 54.7593 42.6593 52.0737 43.2941C49.3881 43.929 47.7256 46.6207 48.3604 49.3064C48.9952 51.992 51.687 53.6545 54.3727 53.0197Z" fill="#F9D0B4"/>
<path fill-rule="evenodd" clip-rule="evenodd" d="M38.4191 64.1862H27.0291C26.0718 64.1862 25.2472 63.8179 24.6094 63.1043C23.9717 62.3908 23.6968 61.531 23.8038 60.5791C24.2398 56.6984 27.549 53.6641 31.542 53.6641H33.9035C37.8978 53.6641 41.2057 56.6971 41.6417 60.5791C41.7487 61.531 41.4738 62.3908 40.8361 63.1043C40.1997 63.8179 39.3764 64.1862 38.4191 64.1862Z" fill="#FE646F"/>
<path d="M33.8766 53.0248C36.5622 52.39 38.2247 49.6982 37.5899 47.0126C36.955 44.3269 34.2632 42.6644 31.5776 43.2993C28.892 43.9341 27.2295 46.6259 27.8643 49.3115C28.4992 51.9971 31.1909 53.6596 33.8766 53.0248Z" fill="#F9D0B4"/>
<path fill-rule="evenodd" clip-rule="evenodd" d="M4.93415 42.496H23.1417C25.4111 42.496 27.2634 40.645 27.2634 38.3743V33.336C27.2634 27.8617 22.7992 23.3975 17.3248 23.3975H10.751C5.27672 23.3975 0.8125 27.8617 0.8125 33.336V38.3743C0.8125 40.6437 2.66345 42.496 4.93415 42.496Z" fill="#2FB1D4"/>
<path fill-rule="evenodd" clip-rule="evenodd" d="M14.0432 7.56226C15.9524 7.56226 17.4567 8.12282 18.7512 9.56621C21.6732 12.824 20.7308 22.6028 14.0392 22.6028C7.34488 22.6028 6.40248 12.824 9.32582 9.56621C10.6257 8.11741 12.1287 7.56226 14.0432 7.56226Z" fill="#F9D0B4"/>
<path fill-rule="evenodd" clip-rule="evenodd" d="M31.0273 10.4761H41.3193V20.768H31.0273V10.4761Z" fill="#2FB1D4"/>
<path fill-rule="evenodd" clip-rule="evenodd" d="M37.7499 15.1218L40.9129 11.9588C41.4071 11.4646 42.2141 11.4646 42.7083 11.9588C43.2025 12.453 43.2025 13.26 42.7083 13.7542C41.1295 15.333 40.2264 16.2362 38.6476 17.815C38.1534 18.3092 37.3464 18.3092 36.8521 17.815L35.0269 15.9897C34.5327 15.4955 34.5327 14.6885 35.0269 14.1943C35.5211 13.7001 36.3281 13.7001 36.8223 14.1943L37.7499 15.1218Z" fill="#ECEFF1"/>
<path fill-rule="evenodd" clip-rule="evenodd" d="M31.0273 24.9304H41.3193V35.2224H31.0273V24.9304Z" fill="#6CF5C2"/>
<path fill-rule="evenodd" clip-rule="evenodd" d="M37.7499 29.5747L40.9129 26.4117C41.4071 25.9175 42.2141 25.9175 42.7083 26.4117C43.2025 26.9059 43.2025 27.7129 42.7083 28.2071C41.1295 29.7859 40.2264 30.689 38.6476 32.2678C38.1534 32.7621 37.3464 32.7621 36.8521 32.2678L35.0269 30.4426C34.5327 29.9484 34.5327 29.1414 35.0269 28.6472C35.5211 28.153 36.3281 28.153 36.8223 28.6472L37.7499 29.5747Z" fill="#ECEFF1"/>
<path fill-rule="evenodd" clip-rule="evenodd" d="M42.1346 27.633L38.0738 31.6937C37.8992 31.8697 37.6026 31.8697 37.428 31.6937L35.6028 29.8698C35.4281 29.6938 35.4281 29.3986 35.6028 29.2226C35.6881 29.1373 35.8031 29.0912 35.9264 29.0912C36.0496 29.0912 36.1647 29.1373 36.25 29.2226L37.1775 30.1501C37.4943 30.4669 38.0089 30.4669 38.3271 30.1501L41.4901 26.9871C41.6647 26.8124 41.9613 26.8111 42.1359 26.9871C42.3106 27.1618 42.3106 27.4569 42.1346 27.633ZM40.5057 34.4099V31.561L39.2234 32.8432C38.8172 33.2495 38.2837 33.4526 37.7516 33.4526C37.2181 33.4526 36.6846 33.2495 36.2798 32.8432L34.4545 31.018C33.6421 30.207 33.6421 28.8854 34.4545 28.0744C35.267 27.262 36.5871 27.262 37.3982 28.0744L37.7502 28.4264L40.3391 25.8375C40.373 25.8037 40.4095 25.7739 40.4448 25.7427H31.8372V34.4099H40.5057ZM42.1305 25.2539V24.929C42.1305 24.4808 41.7663 24.1166 41.3181 24.1166H31.0261C30.578 24.1166 30.2137 24.4808 30.2137 24.929V35.2209C30.2137 35.6691 30.578 36.0333 31.0261 36.0333H41.3181C41.7663 36.0333 42.1305 35.6691 42.1305 35.2209V29.9348L43.2841 28.7812C44.0966 27.9688 44.0966 26.6486 43.2841 25.8362C42.9592 25.5126 42.553 25.3189 42.1305 25.2539ZM62.0225 35.2223C62.0225 35.6704 61.6583 36.0347 61.2101 36.0347H45.9407C45.4926 36.0347 45.1283 35.6704 45.1283 35.2223C45.1283 34.7727 45.4926 34.4099 45.9407 34.4099H61.2101C61.6583 34.4099 62.0225 34.7727 62.0225 35.2223ZM45.1283 30.0756C45.1283 29.6274 45.4926 29.2632 45.9407 29.2632H53.1374C53.5869 29.2632 53.9498 29.6274 53.9498 30.0756C53.9498 30.5252 53.5856 30.888 53.1374 30.888H45.9407C45.4926 30.8867 45.1283 30.5252 45.1283 30.0756ZM62.0225 20.768C62.0225 21.2162 61.6583 21.5805 61.2101 21.5805H45.9407C45.4926 21.5805 45.1283 21.2162 45.1283 20.768C45.1283 20.3185 45.4926 19.9556 45.9407 19.9556H61.2101C61.6583 19.9543 62.0225 20.3185 62.0225 20.768ZM45.1283 15.6214C45.1283 15.1732 45.4926 14.809 45.9407 14.809H53.1374C53.5869 14.809 53.9498 15.1732 53.9498 15.6214C53.9498 16.0709 53.5856 16.4338 53.1374 16.4338H45.9407C45.4926 16.4338 45.1283 16.0709 45.1283 15.6214ZM31.8386 11.2885H40.4461C40.4109 11.3197 40.3743 11.3494 40.3405 11.3833L37.7516 13.9722L37.3995 13.6201C37.0069 13.2275 36.4842 13.0122 35.9277 13.0122C35.3712 13.0122 34.8472 13.2275 34.4559 13.6201C34.0632 14.0128 33.8479 14.5355 33.8479 15.092C33.8479 15.6498 34.0646 16.1725 34.4559 16.5638L36.2811 18.389C36.6738 18.7817 37.1964 18.997 37.7529 18.997C38.3095 18.997 38.8335 18.7817 39.2248 18.389L40.507 17.1068V19.9556H31.8399V11.2885H31.8386ZM42.2673 12.8551C42.2673 12.7319 42.2199 12.6168 42.1346 12.5315C41.9585 12.3568 41.6634 12.3568 41.4873 12.5315L38.3243 15.6945C38.0075 16.0114 37.493 16.0114 37.1748 15.6945L36.2473 14.767C36.162 14.6817 36.0469 14.6357 35.9237 14.6357C35.8004 14.6357 35.6854 14.6817 35.6 14.767C35.5147 14.8523 35.4674 14.9674 35.4674 15.0906C35.4674 15.2138 35.5147 15.3289 35.6 15.4142L37.4253 17.2381C37.5999 17.4141 37.8965 17.4141 38.0711 17.2381L42.1319 13.1774C42.2199 13.0921 42.2673 12.9797 42.2673 12.8551ZM31.0261 21.5791H41.3181C41.7663 21.5791 42.1305 21.2149 42.1305 20.7667V15.4806L43.2841 14.3269C44.0966 13.5145 44.0966 12.1944 43.2841 11.3819C42.9592 11.057 42.553 10.8647 42.1305 10.7997V10.4747C42.1305 10.0266 41.7663 9.66233 41.3181 9.66233H31.0261C30.578 9.66233 30.2137 10.0266 30.2137 10.4747V20.7667C30.2137 21.2162 30.5766 21.5791 31.0261 21.5791ZM40.2308 62.5614C39.7501 63.1003 39.1395 63.3738 38.4164 63.3738H27.0264C26.3047 63.3738 25.694 63.1003 25.2133 62.5614C24.7313 62.0238 24.5295 61.3861 24.6094 60.6685C25.0061 57.1385 27.9864 54.4765 31.5407 54.4765H33.9021C37.4564 54.4765 40.4366 57.1385 40.8334 60.6685C40.916 61.3875 40.7128 62.0252 40.2308 62.5614ZM28.5374 48.1816C28.5374 45.873 30.4155 43.9964 32.7227 43.9964C35.03 43.9964 36.908 45.873 36.908 48.1816C36.908 50.4889 35.03 52.3669 32.7227 52.3669C30.4141 52.3683 28.5374 50.4903 28.5374 48.1816ZM35.8505 53.0751C37.4618 52.0406 38.5329 50.2357 38.5329 48.183C38.5329 44.9794 35.9264 42.3729 32.7227 42.3729C29.5191 42.3729 26.9126 44.9794 26.9126 48.183C26.9126 50.2357 27.9837 52.0406 29.5949 53.0751C26.1124 53.8807 23.4111 56.8 22.9968 60.4884C22.8641 61.6691 23.2121 62.7604 24.0042 63.646C24.7963 64.5315 25.8416 65 27.0291 65H38.4191C39.6066 65 40.6533 64.5315 41.444 63.646C42.2361 62.7604 42.5841 61.6691 42.4514 60.4884C42.0344 56.7987 39.3317 53.8807 35.8505 53.0751ZM60.7335 62.5614C60.2528 63.1003 59.6421 63.3738 58.9204 63.3738H47.5304C46.8087 63.3738 46.198 63.1003 45.716 62.5614C45.2353 62.0238 45.0322 61.3861 45.1121 60.6685C45.5088 57.1385 48.489 54.4765 52.0433 54.4765H54.4048C57.9604 54.4765 60.9393 57.1385 61.336 60.6685C61.4186 61.3875 61.2141 62.0252 60.7335 62.5614ZM49.0388 48.1816C49.0388 45.873 50.9168 43.9964 53.224 43.9964C55.5327 43.9964 57.4093 45.873 57.4093 48.1816C57.4093 50.4889 55.5313 52.3669 53.224 52.3669C50.9168 52.3683 49.0388 50.4903 49.0388 48.1816ZM56.3532 53.0751C57.9645 52.0406 59.0355 50.2357 59.0355 48.183C59.0355 44.9794 56.429 42.3729 53.2254 42.3729C50.0218 42.3729 47.4153 44.9794 47.4153 48.183C47.4153 50.2357 48.4863 52.0406 50.0976 53.0751C46.615 53.8807 43.9138 56.8 43.4994 60.4884C43.3667 61.6691 43.7147 62.7604 44.5068 63.646C45.2976 64.5315 46.3442 65 47.5317 65H58.9218C60.1093 65 61.1559 64.5315 61.9467 63.646C62.7388 62.7604 63.0868 61.6691 62.9541 60.4884C62.537 56.7987 59.8358 53.8807 56.3532 53.0751ZM61.967 38.3839C63.6351 38.3839 64.9932 37.0272 64.9932 35.3577V7.73149H18.1128V7.91834C18.5529 8.22435 18.9672 8.59129 19.3558 9.02458C21.3422 11.2384 21.7253 15.8055 20.2088 19.2028C19.5251 20.7342 18.5298 21.8783 17.2963 22.5851H17.3248C23.2527 22.5851 28.0757 27.4082 28.0757 33.3361V38.3744V38.3853H61.967V38.3839ZM26.4509 38.3744C26.4509 40.1983 24.9669 41.6837 23.1417 41.6837H22.6285V33.0315C22.6285 32.5833 22.2642 32.219 21.8161 32.219C21.3679 32.219 21.0036 32.5833 21.0036 33.0315V41.6837H7.07208V33.0315C7.07208 32.5833 6.70784 32.219 6.25966 32.219C5.81148 32.219 5.44725 32.5833 5.44725 33.0315V41.6837H4.93407C3.1102 41.6837 1.62483 40.1983 1.62483 38.3744V33.3361C1.62483 28.3032 5.71941 24.21 10.751 24.21H17.3234C22.3563 24.21 26.4495 28.3032 26.4495 33.3361V38.3744H26.4509ZM9.3509 18.5393C8.11468 15.7703 8.38548 11.8315 9.93042 10.1092C11.0204 8.89324 12.2512 8.376 14.0426 8.376C15.8042 8.376 17.0702 8.90949 18.1453 10.1092C19.6902 11.8315 19.9597 15.7703 18.7235 18.5407C18.0613 20.0233 16.7114 21.7903 14.0385 21.7903C11.3643 21.7903 10.013 20.0233 9.3509 18.5393ZM21.139 1.62483H61.967C63.6365 1.62483 64.9932 2.98156 64.9932 4.65108V6.10666H18.1128V4.65108C18.1128 2.98156 19.4695 1.62483 21.139 1.62483ZM61.967 0H21.139C18.5745 0 16.488 2.08655 16.488 4.65108V7.10999C15.75 6.87033 14.9417 6.75117 14.0426 6.75117C11.803 6.75117 10.1119 7.47287 8.71993 9.02458C6.73357 11.2384 6.35038 15.8042 7.86689 19.2014C8.55067 20.7342 9.54588 21.8783 10.7808 22.5851H10.751C4.82304 22.5851 0 27.4082 0 33.3361V38.3744C0 41.0947 2.21383 43.3085 4.93407 43.3085H23.1417C25.2891 43.3085 27.1198 41.9288 27.7954 40.0101H61.967C64.5315 40.0101 66.6181 37.9235 66.6181 35.359V4.65108C66.6181 2.08655 64.5315 0 61.967 0Z" fill="#222124"/>
</svg>
