<svg width="57" height="57" viewBox="0 0 57 57" fill="none" xmlns="http://www.w3.org/2000/svg">
<g clip-path="url(#clip0_1014_340)">
<path d="M47.8047 52.4033H51.4821C52.498 52.4033 53.3208 51.5804 53.3208 50.5646V45.0484C53.3208 44.0326 52.498 43.2097 51.4821 43.2097H47.8047" fill="#D05826"/>
<path d="M51.4821 50.5646V45.0484C51.4821 44.0326 50.6593 43.2097 49.6434 43.2097H47.8047V52.4033H49.6434C50.6593 52.4033 51.4821 51.5804 51.4821 50.5646Z" fill="#EF7B30"/>
<path d="M47.8047 39.5322H51.4821C52.498 39.5322 53.3208 38.7093 53.3208 37.6935V32.1773C53.3208 31.1615 52.498 30.3386 51.4821 30.3386H47.8047" fill="#CE2F23"/>
<path d="M51.4821 37.6935V32.1773C51.4821 31.1615 50.6593 30.3386 49.6434 30.3386H47.8047V39.5322H49.6434C50.6593 39.5322 51.4821 38.7093 51.4821 37.6935Z" fill="#DB4433"/>
<path d="M47.8047 26.6613H51.4821C52.498 26.6613 53.3208 25.8385 53.3208 24.8226V19.3065C53.3208 18.2906 52.498 17.4678 51.4821 17.4678H47.8047" fill="#90B244"/>
<path d="M51.4821 24.8226V19.3065C51.4821 18.2906 50.6593 17.4678 49.6434 17.4678H47.8047V26.6613H49.6434C50.6593 26.6613 51.4821 25.8385 51.4821 24.8226Z" fill="#A5BF5B"/>
<path d="M7.35547 0.919434H47.8071V56.0807H7.35547V0.919434Z" fill="#E8BB6B"/>
<path d="M11.0312 4.59668H44.128V52.4031H11.0312V4.59668Z" fill="#F8DB92"/>
<path d="M34.9362 28.5H20.2266V24.8226C20.2266 20.7609 23.5197 17.4678 27.5814 17.4678C31.6431 17.4678 34.9362 20.7609 34.9362 24.8226V28.5Z" fill="#39808C"/>
<path d="M26.2024 17.6011C22.7997 18.2475 20.2266 21.2327 20.2266 24.8226V28.5H32.1782V24.8226C32.1782 21.2327 29.6051 18.2475 26.2024 17.6011Z" fill="#3E8A9D"/>
<path d="M27.5798 17.4677C25.5489 17.4677 23.9023 15.8211 23.9023 13.7903V11.9516C23.9023 9.92075 25.5489 8.27417 27.5798 8.27417C29.6106 8.27417 31.2572 9.92075 31.2572 11.9516V13.7903C31.2572 15.8211 29.6106 17.4677 27.5798 17.4677Z" fill="#E0C090"/>
<path d="M26.6604 8.40381C25.0771 8.81366 23.9023 10.2398 23.9023 11.9515V13.7902C23.9023 15.5019 25.0771 16.9271 26.6604 17.3379C28.2437 16.928 29.4185 15.5019 29.4185 13.7902V11.9515C29.4185 10.2398 28.2437 8.81366 26.6604 8.40381Z" fill="#F1DCB9"/>
<path d="M47.8046 57H7.35295C6.84434 57 6.43359 56.5893 6.43359 56.0807V0.919355C6.43359 0.410747 6.84434 0 7.35295 0H47.8046C48.3132 0 48.7239 0.410747 48.7239 0.919355V56.0807C48.7239 56.5893 48.3132 57 47.8046 57ZM8.2723 55.1613H46.8852V1.83871H8.2723V55.1613Z" fill="black"/>
<path d="M2.75781 44.1292H13.7901V45.9679H2.75781V44.1292Z" fill="black"/>
<path d="M2.75781 38.6128H13.7901V40.4515H2.75781V38.6128Z" fill="black"/>
<path d="M2.75781 33.0967H13.7901V34.9354H2.75781V33.0967Z" fill="black"/>
<path d="M2.75781 27.5806H13.7901V29.4193H2.75781V27.5806Z" fill="black"/>
<path d="M2.75781 22.0645H13.7901V23.9032H2.75781V22.0645Z" fill="black"/>
<path d="M2.75781 16.5483H13.7901V18.387H2.75781V16.5483Z" fill="black"/>
<path d="M2.75781 11.0322H13.7901V12.8709H2.75781V11.0322Z" fill="black"/>
<path d="M44.1294 53.3227H11.0326C10.524 53.3227 10.1133 52.9119 10.1133 52.4033V45.0485H11.952V51.4839H43.2101V5.5162H11.952V11.9517H10.1133V4.59685C10.1133 4.08824 10.524 3.67749 11.0326 3.67749H44.1294C44.638 3.67749 45.0488 4.08824 45.0488 4.59685V52.4033C45.0488 52.9119 44.638 53.3227 44.1294 53.3227Z" fill="black"/>
<path d="M51.4821 53.3225H47.8047V51.4838H51.4821C51.9894 51.4838 52.4015 51.0717 52.4015 50.5645V45.0483C52.4015 44.5411 51.9894 44.129 51.4821 44.129H47.8047V42.2903H51.4821C53.0025 42.2903 54.2402 43.5279 54.2402 45.0483V50.5645C54.2402 52.0849 53.0025 53.3225 51.4821 53.3225Z" fill="black"/>
<path d="M51.4821 40.4517H47.8047V38.613H51.4821C51.9894 38.613 52.4015 38.2009 52.4015 37.6936V32.1775C52.4015 31.6702 51.9894 31.2581 51.4821 31.2581H47.8047V29.4194H51.4821C53.0025 29.4194 54.2402 30.6571 54.2402 32.1775V37.6936C54.2402 39.2141 53.0025 40.4517 51.4821 40.4517Z" fill="black"/>
<path d="M51.4821 27.5806H47.8047V25.7419H51.4821C51.9894 25.7419 52.4015 25.3298 52.4015 24.8225V19.3064C52.4015 18.7991 51.9894 18.387 51.4821 18.387H47.8047V16.5483H51.4821C53.0025 16.5483 54.2402 17.786 54.2402 19.3064V24.8225C54.2402 26.343 53.0025 27.5806 51.4821 27.5806Z" fill="black"/>
<path d="M27.5811 18.387C25.0466 18.387 22.9844 16.3247 22.9844 13.7902V11.9515C22.9844 9.417 25.0466 7.35474 27.5811 7.35474C30.1157 7.35474 32.1779 9.417 32.1779 11.9515V13.7902C32.1779 16.3247 30.1157 18.387 27.5811 18.387ZM27.5811 9.19345C26.0607 9.19345 24.8231 10.4311 24.8231 11.9515V13.7902C24.8231 15.3107 26.0607 16.5483 27.5811 16.5483C29.1016 16.5483 30.3392 15.3107 30.3392 13.7902V11.9515C30.3392 10.4311 29.1016 9.19345 27.5811 9.19345Z" fill="black"/>
<path d="M34.9337 29.4193H20.224C19.7154 29.4193 19.3047 29.0086 19.3047 28.5V24.8225C19.3047 20.2599 23.0162 16.5483 27.5789 16.5483C32.1415 16.5483 35.8531 20.2599 35.8531 24.8225V28.5C35.8531 29.0086 35.4423 29.4193 34.9337 29.4193ZM21.1434 27.5806H34.0144V24.8225C34.0144 21.2748 31.1266 18.387 27.5789 18.387C24.0312 18.387 21.1434 21.2748 21.1434 24.8225V27.5806Z" fill="black"/>
<path d="M19.3047 31.2581H35.8531V33.0968H19.3047V31.2581Z" fill="black"/>
<path d="M19.3047 34.9355H35.8531V36.7743H19.3047V34.9355Z" fill="black"/>
</g>
<defs>
<clipPath id="clip0_1014_340">
<rect width="57" height="57" fill="white"/>
</clipPath>
</defs>
</svg>
