<svg width="65" height="75" viewBox="0 0 65 75" fill="none" xmlns="http://www.w3.org/2000/svg">
<path fill-rule="evenodd" clip-rule="evenodd" d="M41.0442 61.7318C45.9591 55.2327 51.7499 41.9399 51.6179 38.7233C51.5535 37.1714 50.4684 35.9077 48.939 35.6163C47.4145 35.3201 45.9318 36.096 45.2975 37.5143C43.1161 42.3971 41.1536 45.5283 38.1367 48.9268L41.0442 61.7318Z" fill="#F5B381"/>
<path fill-rule="evenodd" clip-rule="evenodd" d="M47.1184 60.344C52.0333 53.8449 57.8241 40.5521 57.6921 37.3355C57.6277 35.7836 56.5378 34.515 55.0132 34.2236C53.4887 33.9323 52.006 34.7034 51.3717 36.1217C49.1903 41.0093 47.2279 44.1389 44.2109 47.5341L47.1184 60.344Z" fill="#F5B381"/>
<path fill-rule="evenodd" clip-rule="evenodd" d="M21.2426 65.779C23.4063 62.9537 27.0108 60.307 34.1716 61.5032C36.8086 61.9314 40.7383 62.3838 44.1383 61.764C49.5137 60.7868 63.085 43.1312 63.8207 39.1242C64.1041 37.5948 63.3185 36.1218 61.9002 35.4955C60.477 34.8757 58.8607 35.2991 57.9302 36.5403C53.9103 41.9029 50.8387 44.6541 45.386 48.1218C47.4434 41.8159 46.6964 39.2965 43.1402 40.5602C37.9741 43.3759 32.3894 44.0376 26.3781 42.55C21.7916 41.7644 18.4157 43.3759 16.2423 47.3829C14.9963 48.8334 13.7277 49.5144 12.4414 49.4274L13.0306 50.6542L21.2426 65.779Z" fill="#FDCC9A"/>
<path fill-rule="evenodd" clip-rule="evenodd" d="M30.6774 61.2115C31.7367 61.2018 32.8958 61.2936 34.1692 61.5028C35.8403 61.7717 38.0297 62.055 40.2755 62.0679C41.4716 62.0583 42.6807 61.9713 43.8301 61.762C49.2055 60.7848 62.7736 43.1293 63.5125 39.1223C63.7958 37.5929 63.0102 36.1199 61.5871 35.4936C61.5146 35.4614 61.4358 35.4292 61.3585 35.4019C60.2493 39.7501 47.0112 56.8873 41.7179 57.85C38.3179 58.4698 34.3898 58.0191 31.7512 57.5892C24.7788 56.4253 21.1775 58.9029 18.9961 61.6413L21.1131 65.5436C22.9371 63.2641 25.7431 61.1648 30.6774 61.2115Z" fill="#F5B381"/>
<path fill-rule="evenodd" clip-rule="evenodd" d="M22.1398 69.5893L15.0435 73.4402C14.546 73.7138 13.9166 73.5271 13.6477 73.0296L1.87787 51.359C1.60902 50.8616 1.79094 50.2321 2.29322 49.9633L9.38957 46.1076C9.88703 45.8388 10.5165 46.0255 10.7853 46.523L22.5552 68.1903C22.824 68.691 22.6373 69.3157 22.1398 69.5893Z" fill="#498DAA"/>
<path fill-rule="evenodd" clip-rule="evenodd" d="M11.5806 69.2242L1.87787 51.3593C1.60902 50.8619 1.79094 50.2324 2.29322 49.9636L9.38957 46.1079C9.70028 45.9389 10.0609 45.9485 10.3571 46.1031L20.0583 63.9695C20.3271 64.467 20.1452 65.0964 19.6429 65.3653L12.5466 69.221C12.2375 69.3884 11.872 69.3803 11.5806 69.2242Z" fill="#499CB9"/>
<path fill-rule="evenodd" clip-rule="evenodd" d="M11.582 10.0142H37.2918V22.8964C37.2918 28.8514 11.582 28.8514 11.582 22.8964V10.0142Z" fill="#157D7E"/>
<path fill-rule="evenodd" clip-rule="evenodd" d="M14.5055 10.0142H37.2902V22.8964C37.2902 22.9238 37.2853 22.9512 37.2805 22.9737C30.5399 25.7024 14.5039 24.7124 14.5039 20.0115V10.0142H14.5055Z" fill="#00989F"/>
<path fill-rule="evenodd" clip-rule="evenodd" d="M6.67578 9.17391L24.4376 1.12451L42.193 9.17391L24.4376 17.2233L6.67578 9.17391Z" fill="#157D7E"/>
<path fill-rule="evenodd" clip-rule="evenodd" d="M29.3121 3.33301L42.1944 9.17365L25.223 16.8673L12.3359 11.0266L29.3121 3.33301Z" fill="#00989F"/>
<path fill-rule="evenodd" clip-rule="evenodd" d="M4.38491 17.9124L6.34736 22.5488C6.67577 23.3248 6.04631 24.1603 5.21078 24.054L2.086 23.6677C1.25048 23.5679 0.844787 22.6052 1.3519 21.9338L4.38491 17.9124Z" fill="#FFC908"/>
<path fill-rule="evenodd" clip-rule="evenodd" d="M38.879 32.197C37.5878 32.197 36.543 33.2418 36.543 34.533C36.543 35.8241 37.5878 36.8689 38.879 36.8689C40.1701 36.8689 41.2149 35.8241 41.2149 34.533C41.2149 33.2418 40.1701 32.197 38.879 32.197ZM24.4399 32.197C23.1488 32.197 22.104 33.2418 22.104 34.533C22.104 35.8241 23.1488 36.8689 24.4399 36.8689C25.7262 36.8689 26.7759 35.8241 26.7759 34.533C26.7759 33.2418 25.7262 32.197 24.4399 32.197ZM9.99609 32.197C11.2872 32.197 12.332 33.2418 12.332 34.533C12.332 35.8241 11.2872 36.8689 9.99609 36.8689C8.70497 36.8689 7.66016 35.8241 7.66016 34.533C7.66016 33.2418 8.70497 32.197 9.99609 32.197Z" fill="#FDB614"/>
<path fill-rule="evenodd" clip-rule="evenodd" d="M38.8736 32.197C38.0107 32.197 37.2589 32.6623 36.8516 33.361C37.2573 34.0548 38.0107 34.5201 38.8736 34.5201C39.7365 34.5201 40.4883 34.0548 40.8956 33.361C40.4883 32.6623 39.7349 32.197 38.8736 32.197ZM22.4126 33.361C22.8135 34.0548 23.5717 34.5201 24.4346 34.5201C25.2975 34.5201 26.0493 34.0548 26.4518 33.361C26.0509 32.6623 25.2975 32.197 24.4346 32.197C23.5717 32.197 22.8151 32.6623 22.4126 33.361ZM12.0128 33.361C11.6071 34.0548 10.8537 34.5201 9.99076 34.5201C9.12786 34.5201 8.37605 34.0548 7.96875 33.361C8.37444 32.6623 9.12786 32.197 9.99076 32.197C10.8537 32.197 11.6071 32.6623 12.0128 33.361Z" fill="#FFC908"/>
<path d="M52.0627 37.3163C52.0402 37.371 52.0176 37.4209 51.9903 37.4708C51.2835 39.0034 50.5945 40.3589 49.8862 41.6002C49.0973 42.9734 48.2747 44.2339 47.3586 45.4606C51.0453 42.8687 53.5374 40.404 56.4223 36.6675C55.7509 34.9111 53.2009 34.7775 52.3976 36.5757C52.2817 36.8285 52.1722 37.0748 52.0627 37.3163ZM38.8746 33.3238C37.7976 33.3238 37.2599 34.6294 38.0213 35.386C38.7796 36.1475 40.0836 35.605 40.0836 34.5328C40.0836 33.8631 39.5443 33.3238 38.8746 33.3238ZM36.5741 31.9457C38.8005 29.9655 42.3374 31.5529 42.3374 34.5328C42.3374 37.6093 38.6041 39.1596 36.4227 36.983C35.6339 36.1893 35.2539 35.0479 35.4697 33.9033L31.0795 31.371C30.706 31.1891 30.4452 30.8011 30.4452 30.3535V28.0353C28.8853 28.2913 27.2045 28.4329 25.5625 28.478V31.2567C27.9628 32.0825 28.6969 35.1622 26.881 36.983C24.7044 39.1596 20.9711 37.6076 20.9711 34.5328C20.9711 33.0356 21.929 31.7316 23.307 31.2567V28.478C21.6601 28.4329 19.981 28.2913 18.4194 28.0353V30.3535C18.4194 30.8011 18.1586 31.1891 17.7851 31.371L13.395 33.9033C13.7878 36.03 12.1586 37.9972 9.9901 37.9972C6.91361 37.9972 5.3633 34.2591 7.53986 32.0825C8.84064 30.7866 10.9206 30.727 12.2906 31.9457L16.1656 29.7047V27.5652C12.8026 26.6798 10.4521 25.1375 10.4521 22.8966V12.1216L7.41751 10.7436L5.53717 17.7626L7.38048 22.1158C8.05663 23.7176 6.72848 25.379 5.07191 25.1729L1.94552 24.7849C0.266417 24.5789 -0.581989 22.6213 0.448334 21.2529L3.27367 17.5115L5.58707 8.88255C5.67884 8.5493 5.90583 8.28528 6.21171 8.14844L23.9687 0.0990408C24.2746 -0.0377991 24.6126 -0.0281398 24.8944 0.0990408L42.6513 8.14844C43.5497 8.55413 43.5142 9.80984 42.6513 10.1978L38.4158 12.1232V22.8982C38.4158 25.1391 36.0605 26.6814 32.6975 27.5668V29.7064L36.5741 31.9457ZM24.4356 33.3238C23.3585 33.3238 22.8208 34.6294 23.5775 35.386C24.339 36.1475 25.6446 35.605 25.6446 34.5328C25.6446 33.8631 25.102 33.3238 24.4356 33.3238ZM10.8498 33.6747C10.0883 32.9165 8.78269 33.4558 8.78269 34.5328C8.78269 35.605 10.0883 36.1475 10.8498 35.386C11.3199 34.9159 11.3199 34.1496 10.8498 33.6747ZM17.3569 25.5561C17.4664 25.5657 17.5759 25.5834 17.6757 25.6205C18.2005 25.7251 18.7575 25.8169 19.3274 25.899C22.5214 26.3514 26.3417 26.3514 29.5357 25.899C31.7669 25.5835 36.1619 24.698 36.1619 22.8966V13.1407L24.8944 18.2521C24.5885 18.3889 24.2504 18.3792 23.9687 18.2521L12.706 13.1407V22.8966C12.7076 24.083 14.633 24.9814 17.3569 25.5561ZM5.28763 22.9288L4.11081 20.1453L2.28521 22.5601L5.28763 22.9288ZM24.6175 7.58981C25.2341 7.57693 25.7492 8.06473 25.7621 8.68453C25.7798 9.30434 25.2872 9.82111 24.6674 9.83399L11.5984 10.1672L24.4356 15.9853L39.467 9.17233L24.4356 2.35448L12.1876 7.90857L24.6175 7.58981ZM22.6743 70.5748L15.578 74.4256C14.5283 74.9955 13.2227 74.6075 12.6528 73.5627L0.883002 51.8921C0.317934 50.8473 0.709135 49.5417 1.75073 48.9766L8.84708 45.121C9.89189 44.5559 11.2023 44.9423 11.7674 45.9839L13.0135 48.2795C13.2823 48.2345 13.5512 48.1379 13.8216 47.9914C14.3046 47.7306 14.802 47.3152 15.3043 46.7453C16.5005 44.5816 18.0379 43.049 19.9182 42.1539C21.8211 41.246 24.0395 41.0093 26.5622 41.4424C26.5896 41.4472 26.6169 41.452 26.6443 41.4601C29.5147 42.1668 32.2805 42.3681 34.94 42.0541C37.5738 41.7386 40.1061 40.9272 42.5387 39.6119L43.1874 39.3656L44.2741 37.0522C45.3914 34.5424 48.3986 33.7021 50.6541 35.085C52.3557 32.3884 56.2259 32.3836 58.0096 34.9063C60.191 33.3463 63.2578 34.1174 64.4942 36.4437H64.4894C64.945 37.2792 65.1092 38.324 64.9273 39.3238C64.1416 43.5867 50.3514 61.7752 44.3369 62.8667C41.056 63.4639 37.0908 63.1307 33.987 62.6107C29.072 61.7945 25.321 62.7153 22.5874 65.9013L23.5372 67.6545C24.1023 68.6993 23.7192 70.0097 22.6743 70.5748ZM14.1178 50.3128L21.4508 63.8117C24.632 60.5259 29.0446 59.4634 34.4023 60.4036C37.1633 60.8865 41.0334 61.1892 43.9393 60.6595C48.7174 59.7918 62.0327 42.616 62.7137 38.9245C62.8103 38.4174 62.7266 37.92 62.5044 37.5014C61.7832 36.141 59.8207 35.8867 58.821 37.2181C56.836 39.8695 55.0056 41.9865 52.953 43.8717C50.9857 45.6796 48.8413 47.2524 46.1126 48.9911C43.6479 51.6474 40.2945 51.7343 37.2277 51.8116C34.7275 51.8808 32.4544 51.9388 31.6687 53.6646C31.4128 54.2297 30.7463 54.4856 30.1812 54.2297C29.6161 53.9737 29.365 53.3072 29.6194 52.7421C30.9845 49.73 33.9274 49.6528 37.1761 49.5658C39.7455 49.5014 42.5515 49.4242 44.3868 47.5438C44.7023 46.5715 44.939 45.7005 45.1032 44.9342C45.2899 43.9538 45.628 42.2103 45.1579 41.5438C44.9165 41.1977 43.8797 41.4714 43.5786 41.6034C40.895 43.0507 38.1018 43.9441 35.204 44.2919C32.2934 44.6348 29.2813 44.4239 26.1597 43.6576C24.1152 43.3115 22.354 43.4885 20.8842 44.1872C19.4192 44.8907 18.1957 46.1352 17.2281 47.9254C17.1734 48.022 17.109 48.1073 17.0317 48.1862C16.3379 48.9847 15.6215 49.5819 14.8874 49.9747C14.633 50.1084 14.377 50.2227 14.1178 50.3128ZM14.5831 72.4149L21.5201 68.6461L9.84199 47.1381L2.90501 50.9069V50.9117L14.5831 72.4149ZM47.4617 41.2733C48.2602 39.9597 48.9589 38.6267 49.6656 37.1392C48.5757 36.2956 46.9224 36.6288 46.3203 37.9699C46.111 38.4448 45.9097 38.8827 45.723 39.2835C46.631 39.5894 47.2121 40.338 47.4617 41.2733Z" fill="black"/>
</svg>
