<svg width="63" height="65" viewBox="0 0 63 65" fill="none" xmlns="http://www.w3.org/2000/svg">
<path d="M30.707 22.6814H38.9621C40.146 22.6814 41.1058 23.6412 41.1058 24.8251V40.0269H30.707V22.6814Z" fill="#CECECE"/>
<path d="M30.7056 36.5729C30.4886 36.5729 30.3125 36.3968 30.3125 36.1799V25.5727C30.3125 25.3558 30.4886 25.1797 30.7056 25.1797C30.9225 25.1797 31.0986 25.3558 31.0986 25.5727V36.1799C31.0986 36.3968 30.9225 36.5729 30.7056 36.5729Z" fill="#3F3679"/>
<path d="M40.2112 23.4775C40.1315 23.4775 40.0513 23.4534 39.9816 23.4033C39.6824 23.1879 39.3292 23.074 38.9597 23.074H35.561C35.3441 23.074 35.168 22.8979 35.168 22.6809C35.168 22.4639 35.3441 22.2878 35.561 22.2878H38.9597C39.4953 22.2878 40.0076 22.4532 40.4413 22.7655C40.6173 22.8924 40.6572 23.1382 40.5303 23.3143C40.4536 23.4209 40.3333 23.4775 40.2112 23.4775Z" fill="#3F3679"/>
<path d="M21.4006 22.6814C21.3474 22.6814 21.2953 22.6864 21.2439 22.694C20.2925 22.7757 19.4097 23.3483 18.9781 24.2764L13.7491 36.1086C13.3524 36.9623 13.4184 37.9594 13.9246 38.7528C14.4309 39.5466 15.3072 40.0269 16.2484 40.0269H20.305H23.5821H30.7038V22.6814H21.4006Z" fill="#CECECE"/>
<path d="M17.7719 38.7523C17.2656 37.9589 17.1993 36.9618 17.5963 36.1081L22.8253 24.2762C23.2569 23.348 24.1397 22.7755 25.0912 22.6935C25.1425 22.6861 25.1944 22.6812 25.2479 22.6812H21.4045C21.3513 22.6812 21.2992 22.6864 21.2478 22.6935C20.2964 22.7755 19.4136 23.3478 18.982 24.2762L13.753 36.1081C13.3563 36.9618 13.4223 37.9589 13.9286 38.7523C14.4348 39.546 15.3111 40.0264 16.2523 40.0264H20.0957C19.1544 40.0266 18.2781 39.546 17.7719 38.7523Z" fill="#AFAFAF"/>
<path d="M13.5926 36.9393C13.5583 36.9393 13.5234 36.9348 13.4888 36.9254C13.2795 36.868 13.156 36.6521 13.2132 36.4425C13.2603 36.2708 13.3217 36.1023 13.3961 35.9422L18.6222 24.1169C19.0988 23.0913 20.0907 22.3982 21.2138 22.3017C21.2615 22.2941 21.3319 22.2876 21.4043 22.2876H25.784C26.001 22.2876 26.1771 22.4637 26.1771 22.6807C26.1771 22.8976 26.001 23.0737 25.784 23.0737H21.404C21.3697 23.0737 21.3364 23.0776 21.3034 23.0821C20.4376 23.1573 19.6932 23.6772 19.3381 24.4413L14.112 36.2669C14.0527 36.3937 14.0069 36.5203 13.9715 36.6498C13.9236 36.8248 13.7653 36.9393 13.5926 36.9393Z" fill="#3F3679"/>
<path d="M30.7063 25.4452C29.2612 25.4452 28.0898 24.2736 28.0898 22.8287V18.2307C28.0898 16.7856 29.2614 15.6143 30.7063 15.6143C32.1515 15.6143 33.3228 16.7858 33.3228 18.2307V22.8285C33.3228 24.2736 32.1515 25.4452 30.7063 25.4452Z" fill="#F8AF23"/>
<path d="M28.0859 18.2308V22.8286C28.0859 23.9519 28.7953 24.9071 29.7892 25.2781V15.7812C28.7953 16.1523 28.0859 17.1074 28.0859 18.2308Z" fill="#F87023"/>
<path d="M33.3188 21.732C33.1019 21.732 32.9258 21.5559 32.9258 21.339V20.301C32.9258 20.084 33.1019 19.908 33.3188 19.908C33.5358 19.908 33.7119 20.084 33.7119 20.301V21.339C33.7119 21.5559 33.5361 21.732 33.3188 21.732Z" fill="#3F3679"/>
<path d="M28.0884 21.6963C27.8714 21.6963 27.6953 21.5203 27.6953 21.3033V20.3015C27.6953 20.0845 27.8714 19.9084 28.0884 19.9084C28.3053 19.9084 28.4814 20.0845 28.4814 20.3015V21.3033C28.4814 21.5203 28.3053 21.6963 28.0884 21.6963Z" fill="#3F3679"/>
<path d="M30.7079 25.8383C29.8943 25.8383 29.132 25.5188 28.562 24.9387C28.4098 24.7838 28.4119 24.5349 28.5668 24.3829C28.7216 24.2312 28.9708 24.2327 29.1225 24.3876C29.5439 24.8163 30.107 25.0521 30.7081 25.0521C31.2603 25.0521 31.7898 24.8485 32.1986 24.4788C32.359 24.3334 32.6082 24.3454 32.7536 24.5066C32.8993 24.6675 32.887 24.9161 32.7259 25.0616C32.1722 25.5623 31.4555 25.8383 30.7079 25.8383Z" fill="#3F3679"/>
<path d="M23.7345 13.4511C24.509 13.4511 25.1369 12.8232 25.1369 12.0487C25.1369 11.2741 24.509 10.6462 23.7345 10.6462C22.9599 10.6462 22.332 11.2741 22.332 12.0487C22.332 12.8232 22.9599 13.4511 23.7345 13.4511Z" fill="#F87023"/>
<path d="M37.6837 13.4511C38.4582 13.4511 39.0861 12.8232 39.0861 12.0487C39.0861 11.2741 38.4582 10.6462 37.6837 10.6462C36.9091 10.6462 36.2812 11.2741 36.2812 12.0487C36.2812 12.8232 36.9091 13.4511 37.6837 13.4511Z" fill="#F8AF23"/>
<path d="M23.5538 13.8328C23.5373 13.8328 23.5202 13.8318 23.5032 13.8294C22.6107 13.7149 21.9375 12.9492 21.9375 12.0483C21.9375 11.3741 22.3099 10.7628 22.9094 10.4528C23.1012 10.3529 23.3392 10.4284 23.439 10.6215C23.5388 10.8141 23.4634 11.0515 23.2702 11.1511C22.9333 11.3256 22.7236 11.6694 22.7236 12.0486C22.7236 12.5551 23.1017 12.9856 23.6033 13.0498C23.8184 13.0776 23.9707 13.2744 23.9429 13.4901C23.9177 13.6882 23.7485 13.8328 23.5538 13.8328Z" fill="#3F3679"/>
<path d="M37.8573 13.8334C37.6618 13.8334 37.4923 13.6878 37.4679 13.4889C37.4409 13.2737 37.594 13.0772 37.8096 13.0505C38.313 12.9878 38.6924 12.557 38.6924 12.0487C38.6924 11.6006 38.3919 11.2015 37.9616 11.0781C37.7528 11.0181 37.6322 10.8003 37.692 10.592C37.752 10.3834 37.9703 10.2634 38.1781 10.3224C38.9437 10.542 39.4786 11.2518 39.4786 12.049C39.4786 12.9535 38.8028 13.7195 37.9063 13.8308C37.8898 13.8324 37.8736 13.8334 37.8573 13.8334Z" fill="#3F3679"/>
<path d="M30.7054 20.5297C26.8532 20.5297 23.7305 17.4069 23.7305 13.5547V10.983C23.7305 7.13079 26.8532 4.00806 30.7054 4.00806C34.5577 4.00806 37.6804 7.13079 37.6804 10.983V13.5547C37.6804 17.4069 34.5574 20.5297 30.7054 20.5297Z" fill="#F8AF23"/>
<path d="M27.5735 13.5547V10.983C27.5735 7.79766 29.7097 5.11306 32.627 4.27846C32.0162 4.10368 31.3721 4.0083 30.7054 4.0083C26.8532 4.0083 23.7305 7.13103 23.7305 10.9833V13.5549C23.7305 17.4072 26.8532 20.5299 30.7054 20.5299C31.3723 20.5299 32.0164 20.4343 32.627 20.2598C29.7094 19.4246 27.5735 16.74 27.5735 13.5547Z" fill="#F87023"/>
<path d="M30.7079 20.9229C26.645 20.9229 23.3398 17.6178 23.3398 13.5549V12.0725C23.3398 11.8555 23.5159 11.6794 23.7329 11.6794C23.9499 11.6794 24.126 11.8555 24.126 12.0725V13.5549C24.126 17.1844 27.0786 20.1368 30.7079 20.1368C34.3371 20.1368 37.2895 17.1841 37.2895 13.5549V12.1679C37.2895 11.9509 37.4656 11.7748 37.6826 11.7748C37.8996 11.7748 38.0756 11.9509 38.0756 12.1679V13.5549C38.0756 17.6178 34.7705 20.9229 30.7079 20.9229Z" fill="#3F3679"/>
<path d="M27.9292 14.9365C28.3021 14.9365 28.6045 14.6342 28.6045 14.2612C28.6045 13.8883 28.3021 13.5859 27.9292 13.5859C27.5562 13.5859 27.2539 13.8883 27.2539 14.2612C27.2539 14.6342 27.5562 14.9365 27.9292 14.9365Z" fill="#3F3679"/>
<path d="M33.4761 14.9365C33.849 14.9365 34.1513 14.6342 34.1513 14.2612C34.1513 13.8883 33.849 13.5859 33.4761 13.5859C33.1031 13.5859 32.8008 13.8883 32.8008 14.2612C32.8008 14.6342 33.1031 14.9365 33.4761 14.9365Z" fill="#3F3679"/>
<path d="M30.7056 16.305C30.4886 16.305 30.3125 16.1289 30.3125 15.9119V14.7812C30.3125 14.5643 30.4886 14.3882 30.7056 14.3882C30.9225 14.3882 31.0986 14.5643 31.0986 14.7812V15.9119C31.0986 16.1289 30.9225 16.305 30.7056 16.305Z" fill="#3F3679"/>
<path d="M30.7047 18.548C30.1963 18.548 29.7116 18.3279 29.3749 17.944C29.2318 17.7808 29.248 17.5326 29.4113 17.3893C29.575 17.2465 29.8227 17.2627 29.966 17.4257C30.1534 17.6393 30.4227 17.7619 30.7047 17.7619C30.9867 17.7619 31.256 17.6393 31.4431 17.4257C31.5865 17.2627 31.8344 17.2465 31.9979 17.3893C32.1611 17.5326 32.1774 17.7808 32.0343 17.944C31.6976 18.3279 31.2131 18.548 30.7047 18.548Z" fill="#3F3679"/>
<path d="M28.889 13.3044H26.9751C26.7581 13.3044 26.582 13.1283 26.582 12.9114C26.582 12.6944 26.7581 12.5183 26.9751 12.5183H28.889C29.106 12.5183 29.2821 12.6944 29.2821 12.9114C29.2821 13.1283 29.1063 13.3044 28.889 13.3044Z" fill="#3F3679"/>
<path d="M34.4359 13.3044H32.522C32.305 13.3044 32.1289 13.1283 32.1289 12.9114C32.1289 12.6944 32.305 12.5183 32.522 12.5183H34.4359C34.6529 12.5183 34.829 12.6944 34.829 12.9114C34.829 13.1283 34.6531 13.3044 34.4359 13.3044Z" fill="#3F3679"/>
<path d="M21.5201 34.9072H17.7837C17.5667 34.9072 17.3906 34.7311 17.3906 34.5142C17.3906 34.2972 17.5667 34.1211 17.7837 34.1211H21.5201C21.7371 34.1211 21.9132 34.2972 21.9132 34.5142C21.9132 34.7311 21.7371 34.9072 21.5201 34.9072Z" fill="#3F3679"/>
<path d="M28.0854 21.303L25.8555 22.6813L27.3255 25.6903L26.2001 26.6004L30.7022 34.0528L28.0854 21.303Z" fill="#707070"/>
<path d="M30.7048 34.4457C30.5706 34.4457 30.4412 34.3766 30.3683 34.2558L25.8662 26.8033C25.7646 26.6351 25.8028 26.4179 25.9556 26.2947L26.8376 25.5814L25.5049 22.8536C25.416 22.6723 25.4795 22.4529 25.6516 22.3466L27.8818 20.9685C27.9911 20.9009 28.1266 20.8914 28.2442 20.942C28.3619 20.9929 28.4476 21.0982 28.4735 21.2237L31.09 33.9733C31.1282 34.1609 31.0263 34.3488 30.8481 34.4182C30.8012 34.4371 30.7527 34.4457 30.7048 34.4457ZM26.7163 26.6901L29.8608 31.8953L27.8161 21.9328L26.3675 22.8282L27.6814 25.5175C27.7618 25.6821 27.7181 25.8804 27.5755 25.9955L26.7163 26.6901Z" fill="#3F3679"/>
<path d="M33.3235 21.303L35.5535 22.6813L34.0834 25.6903L35.2089 26.6004L30.707 34.0528L33.3235 21.303Z" fill="#707070"/>
<path d="M30.7057 34.4457C30.6577 34.4457 30.6093 34.4371 30.5624 34.4185C30.3842 34.3488 30.2822 34.1611 30.3205 33.9735L32.937 21.224C32.9629 21.0984 33.0486 20.9931 33.1663 20.9423C33.2839 20.8917 33.4194 20.9011 33.5287 20.9687L35.7586 22.3468C35.9305 22.4529 35.9939 22.6723 35.9054 22.8538L34.5726 25.5817L35.4549 26.2947C35.6077 26.4184 35.6459 26.6356 35.5443 26.8036L31.0422 34.256C30.9693 34.3765 30.8399 34.4457 30.7057 34.4457ZM33.5942 21.933L31.5495 31.8955L34.6939 26.6904L33.8347 25.9962C33.6924 25.8809 33.6484 25.6826 33.7289 25.518L35.0427 22.8284L33.5942 21.933Z" fill="#3F3679"/>
<path d="M45.0071 24.8057H39.6211V37.3338C39.6211 38.8211 40.8267 40.0268 42.3141 40.0268C43.8014 40.0268 45.0071 38.8211 45.0071 37.3338V24.8057Z" fill="#CECECE"/>
<path d="M42.3165 40.4198C40.6148 40.4198 39.2305 39.0355 39.2305 37.3338V24.8057C39.2305 24.5887 39.4066 24.4126 39.6235 24.4126H45.0095C45.2265 24.4126 45.4025 24.5887 45.4025 24.8057V37.3338C45.4023 39.0352 44.0179 40.4198 42.3165 40.4198ZM40.0163 25.1987V37.3338C40.0163 38.6021 41.0482 39.6337 42.316 39.6337C43.5843 39.6337 44.6159 38.6018 44.6159 37.3338V25.1987H40.0163Z" fill="#3F3679"/>
<path d="M40.3047 24.8057V23.5414C40.3047 22.0564 41.5085 20.8526 42.9935 20.8526H45.6503L48.6124 20.3141C49.1189 20.2221 49.5641 20.6584 49.4824 21.1668L49.4695 21.2459C49.2843 22.3936 48.5162 23.3629 47.4411 23.8055L45.0101 24.806L40.3047 24.8057Z" fill="#F8AF23"/>
<path d="M45.0087 25.1986H40.3032C40.0862 25.1986 39.9102 25.0225 39.9102 24.8055V23.5412C39.9102 21.8419 41.2924 20.4591 42.992 20.4591H45.6137L48.5407 19.9271C48.9034 19.8614 49.2781 19.9761 49.5419 20.2345C49.8056 20.4929 49.9277 20.8647 49.8687 21.2292L49.8559 21.3083C49.6507 22.5816 48.782 23.6777 47.5895 24.1685L45.1585 25.169C45.1109 25.1886 45.06 25.1986 45.0087 25.1986ZM40.6963 24.4125H44.9308L47.29 23.4416C48.232 23.0541 48.9178 22.1885 49.08 21.1831L49.0928 21.1037C49.1112 20.9892 49.0745 20.877 48.9914 20.7955C48.9083 20.714 48.7954 20.6808 48.6811 20.7004L45.7191 21.2389C45.6957 21.2434 45.6721 21.2452 45.6486 21.2452H42.9915C41.7256 21.2452 40.6958 22.2753 40.6958 23.5412V24.4125H40.6963Z" fill="#3F3679"/>
<path d="M23.7295 12.0484H24.9116L26.1243 10.1982C26.7712 9.21108 28.0503 8.85785 29.112 9.37249L31.1733 10.3717C31.5451 10.5519 31.9531 10.6457 32.3666 10.6457H35.0396C35.8142 10.6457 36.4421 11.2736 36.4421 12.0482H37.6792L38.6809 6.80686C39.0397 4.93039 38.0238 3.06178 36.2537 2.34301L32.1915 0.69268C31.2359 0.304337 30.1683 0.294117 29.2053 0.663856L24.7915 2.35847C24.0135 2.65719 23.4664 3.36418 23.3723 4.19222C22.3996 5.36066 22.0917 6.94522 22.5563 8.39273L23.7295 12.0484Z" fill="#707070"/>
<path d="M27.2196 4.19224C27.3136 3.3642 27.8608 2.65721 28.6388 2.35849L32.5754 0.846778L32.1954 0.692436C31.2398 0.304093 30.1722 0.293873 29.2092 0.663612L24.7954 2.35849C24.0174 2.65721 23.4703 3.36393 23.3762 4.19224C22.4035 5.36042 22.0956 6.94523 22.5602 8.39274L23.7331 12.0482H24.9152L26.1279 10.1979C26.3022 9.93197 26.5233 9.71395 26.7728 9.54441L26.4033 8.39274C25.939 6.94523 26.2469 5.36068 27.2196 4.19224Z" fill="#5B5B5B"/>
<path d="M37.68 12.4413H36.4429C36.2259 12.4413 36.0498 12.2652 36.0498 12.0483C36.0498 11.4917 35.5968 11.0386 35.0402 11.0386H32.3674C31.8976 11.0386 31.4256 10.9304 31.0027 10.7255L28.9415 9.72632C28.0605 9.29972 26.9909 9.59477 26.454 10.4136L25.2412 12.2639C25.1687 12.3748 25.045 12.4416 24.9124 12.4416H23.7303C23.5595 12.4416 23.4083 12.3313 23.3559 12.1685L22.183 8.51307C21.6861 6.96546 21.9919 5.29836 22.999 4.03035C23.1462 3.10483 23.7704 2.3305 24.6519 1.99221L29.0654 0.297331C30.1257 -0.10988 31.2886 -0.0983498 32.3404 0.329038L36.4028 1.97937C38.3398 2.76627 39.4606 4.82774 39.0683 6.88109L38.0662 12.1224C38.0306 12.3071 37.8687 12.4413 37.68 12.4413ZM36.7927 11.6552H37.3551L38.296 6.7333C38.6184 5.04654 37.6978 3.35377 36.107 2.70731L32.0446 1.05698C31.1777 0.705065 30.22 0.695632 29.3474 1.03078L24.9336 2.72566C24.2898 2.9725 23.8417 3.55161 23.7639 4.23684C23.7552 4.31309 23.7245 4.38516 23.6753 4.44411C22.7838 5.51481 22.5055 6.94607 22.9314 8.27278L24.0167 11.6552H24.6999L25.7962 9.98259C26.5491 8.83381 28.0487 8.41952 29.2845 9.01881L31.3457 10.018C31.6623 10.1713 32.0157 10.2525 32.3674 10.2525H35.0402C35.8958 10.2528 36.613 10.8536 36.7927 11.6552Z" fill="#3F3679"/>
<path d="M23.5812 40.4198C23.3642 40.4198 23.1881 40.2437 23.1881 40.0267C23.1881 39.8098 23.3642 39.6337 23.5812 39.6337C24.8843 39.6337 25.9445 38.5735 25.9445 37.2703C25.9445 35.9672 24.8843 34.907 23.5812 34.907H20.5688C20.4365 34.907 20.313 34.8404 20.2405 34.7299C20.1679 34.6195 20.1556 34.4799 20.2077 34.3585L23.615 26.4447C23.7004 26.245 23.931 26.1525 24.1315 26.239C24.3312 26.3249 24.4229 26.556 24.3372 26.7555L21.166 34.1209H23.5812C25.3177 34.1209 26.7307 35.5338 26.7307 37.2703C26.7307 39.0069 25.3177 40.4198 23.5812 40.4198Z" fill="#3F3679"/>
<path d="M23.5827 40.0267C25.1049 40.0267 26.3391 38.7928 26.3391 37.2703C26.3391 35.7481 25.1051 34.5139 23.5827 34.5139H23.5195V40.0267H23.5827Z" fill="#F8AF23"/>
<path d="M23.5812 40.42H23.5181C23.3011 40.42 23.125 40.2439 23.125 40.027V34.5142C23.125 34.2972 23.3011 34.1211 23.5181 34.1211H23.5812C23.7982 34.1211 23.9743 34.2972 23.9743 34.5142C23.9743 34.593 23.9509 34.6664 23.9111 34.728V39.8129C23.9509 39.8744 23.9743 39.9481 23.9743 40.0267C23.9743 40.2439 23.7982 40.42 23.5812 40.42Z" fill="#3F3679"/>
<path d="M12.6797 40.0266H50.3081V43.5149H12.6797V40.0266Z" fill="#63BCE7"/>
<path d="M45.5439 40.4197H37.5024C37.2855 40.4197 37.1094 40.2436 37.1094 40.0266C37.1094 39.8096 37.2855 39.6335 37.5024 39.6335H45.5439C45.7609 39.6335 45.937 39.8096 45.937 40.0266C45.937 40.2436 45.7609 40.4197 45.5439 40.4197Z" fill="#3F3679"/>
<path d="M25.3916 40.4197H17.4321C17.2152 40.4197 17.0391 40.2436 17.0391 40.0266C17.0391 39.8096 17.2152 39.6335 17.4321 39.6335H25.3916C25.6085 39.6335 25.7846 39.8096 25.7846 40.0266C25.7846 40.2436 25.6085 40.4197 25.3916 40.4197Z" fill="#3F3679"/>
<path d="M24.9331 43.9079H17.9673C17.7503 43.9079 17.5742 43.7319 17.5742 43.5149C17.5742 43.2979 17.7503 43.1218 17.9673 43.1218H24.9331C25.15 43.1218 25.3261 43.2979 25.3261 43.5149C25.3261 43.7319 25.15 43.9079 24.9331 43.9079Z" fill="#3F3679"/>
<path d="M45.0117 43.9079H38.0024C37.7855 43.9079 37.6094 43.7319 37.6094 43.5149C37.6094 43.2979 37.7855 43.1218 38.0024 43.1218H45.0117C45.2287 43.1218 45.4048 43.2979 45.4048 43.5149C45.4048 43.7319 45.2287 43.9079 45.0117 43.9079Z" fill="#3F3679"/>
<path d="M5.11056 65H0.393059C0.176091 65 0 64.8239 0 64.6069C0 64.39 0.176091 64.2139 0.393059 64.2139H5.11056C5.32753 64.2139 5.50362 64.39 5.50362 64.6069C5.50362 64.8239 5.32753 65 5.11056 65Z" fill="#3F3679"/>
<path d="M62.591 65H57.8735C57.6566 65 57.4805 64.8239 57.4805 64.6069C57.4805 64.39 57.6566 64.2139 57.8735 64.2139H62.591C62.808 64.2139 62.9841 64.39 62.9841 64.6069C62.9841 64.8239 62.808 65 62.591 65Z" fill="#3F3679"/>
<path d="M55.2019 65H7.78368C7.56672 65 7.39062 64.8239 7.39062 64.6069C7.39062 64.39 7.56672 64.2139 7.78368 64.2139H55.2021C55.4191 64.2139 55.5952 64.39 55.5952 64.6069C55.5952 64.8239 55.4191 65 55.2019 65Z" fill="#3F3679"/>
<path d="M62.5908 62.125H0.393059C0.176091 62.125 0 61.9489 0 61.7319C0 61.515 0.176091 61.3389 0.393059 61.3389H62.5908C62.8078 61.3389 62.9838 61.515 62.9838 61.7319C62.9838 61.9489 62.8078 62.125 62.5908 62.125Z" fill="#3F3679"/>
<path d="M31.4915 49.1837C35.0529 49.1837 37.94 46.2966 37.94 42.7352C37.94 39.1737 35.0529 36.2866 31.4915 36.2866C27.9301 36.2866 25.043 39.1737 25.043 42.7352C25.043 46.2966 27.9301 49.1837 31.4915 49.1837Z" fill="#707070"/>
<path d="M40.4224 61.7317H22.5586V58.1152C22.5586 53.1823 26.5576 49.1833 31.4905 49.1833C36.4234 49.1833 40.4224 53.1823 40.4224 58.1152V61.7317Z" fill="#F8AF23"/>
<path d="M40.4209 62.125H22.5571C22.3402 62.125 22.1641 61.9489 22.1641 61.7319V58.1155C22.1641 52.9735 26.3473 48.7903 31.489 48.7903C36.6307 48.7903 40.8139 52.9735 40.8139 58.1155V61.7319C40.8139 61.9489 40.6379 62.125 40.4209 62.125ZM22.9502 61.3389H40.0278V58.1155C40.0278 53.4069 36.1973 49.5764 31.489 49.5764C26.7807 49.5764 22.9502 53.4069 22.9502 58.1155V61.3389Z" fill="#3F3679"/>
<path d="M31.4898 49.5765C27.7174 49.5765 24.6484 46.5075 24.6484 42.7351C24.6484 38.9628 27.7174 35.8938 31.4898 35.8938C35.2621 35.8938 38.3311 38.9628 38.3311 42.7351C38.3311 46.5075 35.2621 49.5765 31.4898 49.5765ZM31.4898 36.6797C28.1509 36.6797 25.4346 39.396 25.4346 42.7349C25.4346 46.0738 28.1509 48.7901 31.4898 48.7901C34.8287 48.7901 37.545 46.0738 37.545 42.7349C37.545 39.396 34.8287 36.6797 31.4898 36.6797Z" fill="#3F3679"/>
<path d="M11.4446 49.1837C15.0061 49.1837 17.8932 46.2966 17.8932 42.7352C17.8932 39.1737 15.0061 36.2866 11.4446 36.2866C7.8832 36.2866 4.99609 39.1737 4.99609 42.7352C4.99609 46.2966 7.8832 49.1837 11.4446 49.1837Z" fill="#707070"/>
<path d="M20.3794 61.7317H2.51562V58.1152C2.51562 53.1823 6.51461 49.1833 11.4475 49.1833C16.3804 49.1833 20.3794 53.1823 20.3794 58.1152V61.7317Z" fill="#63BCE7"/>
<path d="M8.84334 42.7352C8.84334 39.843 10.7473 37.3958 13.3701 36.578C12.7632 36.3888 12.1178 36.2866 11.4485 36.2866C7.88715 36.2866 5 39.1738 5 42.7352C5 46.2966 7.88715 49.1834 11.4485 49.1834C12.1178 49.1834 12.7632 49.0815 13.3701 48.8923C10.7473 48.0745 8.84334 45.6273 8.84334 42.7352Z" fill="#5B5B5B"/>
<path d="M13.369 49.3927C12.7498 49.2567 12.1073 49.1831 11.4475 49.1831C6.51461 49.1831 2.51562 53.1821 2.51562 58.115V61.7314H6.35896V58.115C6.3587 53.8422 9.35984 50.2721 13.369 49.3927Z" fill="#6377E7"/>
<path d="M20.3782 62.125H2.51415C2.29718 62.125 2.12109 61.9489 2.12109 61.7319V58.1155C2.12109 52.9735 6.30429 48.7903 11.4463 48.7903C16.588 48.7903 20.7712 52.9735 20.7712 58.1155V61.7319C20.7712 61.9489 20.5951 62.125 20.3782 62.125ZM2.90721 61.3389H19.9851V58.1155C19.9851 53.4069 16.1546 49.5764 11.4463 49.5764C6.73771 49.5764 2.90721 53.4069 2.90721 58.1155V61.3389Z" fill="#3F3679"/>
<path d="M11.4471 49.5765C7.67474 49.5765 4.60547 46.5075 4.60547 42.7351C4.60547 38.9628 7.67474 35.8938 11.4471 35.8938C15.2194 35.8938 18.2884 38.9628 18.2884 42.7351C18.2884 46.5075 15.2194 49.5765 11.4471 49.5765ZM11.4471 36.6797C8.10815 36.6797 5.39159 39.396 5.39159 42.7349C5.39159 46.0738 8.10815 48.7901 11.4471 48.7901C14.786 48.7901 17.5023 46.0738 17.5023 42.7349C17.5023 39.396 14.786 36.6797 11.4471 36.6797Z" fill="#3F3679"/>
<path d="M51.5306 49.1837C55.092 49.1837 57.9791 46.2966 57.9791 42.7352C57.9791 39.1737 55.092 36.2866 51.5306 36.2866C47.9691 36.2866 45.082 39.1737 45.082 42.7352C45.082 46.2966 47.9691 49.1837 51.5306 49.1837Z" fill="#707070"/>
<path d="M42.5977 61.7317H60.4614V58.1152C60.4614 53.1823 56.4624 49.1833 51.5295 49.1833C46.5966 49.1833 42.5977 53.1823 42.5977 58.1152V61.7317Z" fill="#F46275"/>
<path d="M54.1361 42.7352C54.1361 39.843 52.2321 37.3958 49.6094 36.578C50.2163 36.3888 50.8617 36.2866 51.5309 36.2866C55.0923 36.2866 57.9794 39.1738 57.9794 42.7352C57.9794 46.2966 55.0923 49.1834 51.5309 49.1834C50.8617 49.1834 50.2163 49.0815 49.6094 48.8923C52.2321 48.0745 54.1361 45.6273 54.1361 42.7352Z" fill="#9E9E9E"/>
<path d="M49.6094 49.3927C50.2286 49.2567 50.8711 49.1831 51.5309 49.1831C56.4638 49.1831 60.4628 53.1821 60.4628 58.115V61.7314H56.6195V58.115C56.6197 53.8422 53.6186 50.2721 49.6094 49.3927Z" fill="#F48875"/>
<path d="M60.4602 62.125H42.5962C42.3792 62.125 42.2031 61.9489 42.2031 61.7319V58.1155C42.2031 52.9735 46.3863 48.7903 51.5281 48.7903C56.6701 48.7903 60.8533 52.9735 60.8533 58.1155V61.7319C60.8533 61.9489 60.6772 62.125 60.4602 62.125ZM42.9892 61.3389H60.0672V58.1155C60.0672 53.4069 56.2367 49.5764 51.5281 49.5764C46.8197 49.5764 42.9892 53.4069 42.9892 58.1155V61.3389Z" fill="#3F3679"/>
<path d="M51.5327 49.5765C47.7604 49.5765 44.6914 46.5075 44.6914 42.7351C44.6914 38.9628 47.7604 35.8938 51.5327 35.8938C55.3051 35.8938 58.3743 38.9628 58.3743 42.7351C58.3743 46.5075 55.3053 49.5765 51.5327 49.5765ZM51.5327 36.6797C48.1938 36.6797 45.4775 39.396 45.4775 42.7349C45.4775 46.0738 48.1938 48.7901 51.5327 48.7901C54.8716 48.7901 57.5882 46.0738 57.5882 42.7349C57.5882 39.396 54.8719 36.6797 51.5327 36.6797Z" fill="#3F3679"/>
<path d="M60.5119 9.00016L54.6336 3.12208C54.3904 2.8789 53.9963 2.8789 53.7531 3.12208L47.8751 9.00016C47.4828 9.39243 47.7605 10.063 48.3153 10.063H50.8597V19.7425C50.8597 20.0512 51.1099 20.3012 51.4184 20.3012H56.9681C57.2768 20.3012 57.5268 20.0509 57.5268 19.7425V10.063H60.0712C60.6262 10.063 60.9039 9.39243 60.5119 9.00016Z" fill="#F8AF23"/>
<path d="M56.23 10.063H53.6856V19.7428C53.6856 20.0514 53.4353 20.3014 53.1269 20.3014H56.9702C57.2787 20.3014 57.5289 20.0512 57.5289 19.7428V10.063H60.0733C60.628 10.063 60.9058 9.39243 60.5135 9.00016L54.6352 3.12208C54.392 2.8789 53.9979 2.8789 53.7547 3.12208L52.2734 4.60339L56.6702 9.00016C57.0622 9.39243 56.7844 10.063 56.23 10.063Z" fill="#F8D323"/>
<path d="M56.9702 20.6944H51.4202C50.8953 20.6944 50.4685 20.2675 50.4685 19.7426V10.4562H48.3169C47.9047 10.4562 47.5363 10.2101 47.3785 9.82887C47.2208 9.44812 47.3075 9.01366 47.5989 8.72227L53.477 2.84393C53.8734 2.44773 54.518 2.44799 54.9132 2.84393L60.7915 8.72227C61.0829 9.01366 61.1694 9.44812 61.0116 9.82913C60.8539 10.2099 60.4855 10.4562 60.0733 10.4562H57.9219V19.7426C57.9219 20.2675 57.4951 20.6944 56.9702 20.6944ZM54.1955 3.3329C54.1365 3.3329 54.0778 3.35543 54.033 3.40024L48.1549 9.27832C48.0572 9.37606 48.0876 9.48586 48.1054 9.52831C48.1227 9.57102 48.1788 9.67007 48.3174 9.67007H50.8621C51.079 9.67007 51.2551 9.84616 51.2551 10.0631V19.7426C51.2551 19.8341 51.3293 19.9082 51.4207 19.9082H56.9707C57.0622 19.9082 57.1363 19.8341 57.1363 19.7426V10.0631C57.1363 9.84616 57.3124 9.67007 57.5294 9.67007H60.0738C60.2122 9.67007 60.2682 9.57102 60.2861 9.52831C60.3036 9.48586 60.3343 9.37606 60.2365 9.27832L54.3577 3.39998C54.3129 3.35517 54.2542 3.3329 54.1955 3.3329Z" fill="#3F3679"/>
</svg>
