<svg width="26" height="23" viewBox="0 0 26 23" fill="none" xmlns="http://www.w3.org/2000/svg">
<path d="M18.3269 7.30997C18.3315 7.30812 18.3357 7.30626 18.3404 7.30487L18.5656 7.21433V5.38684L13.4629 7.43812V9.26561L18.3269 7.30997Z" fill="#979797"/>
<path d="M23.684 8.89701C23.1696 9.02609 22.6537 9.08274 22.1537 9.08274C20.6085 9.08274 19.2225 8.57943 18.4783 8.25024L13.4629 10.2667V20.2051C14.2146 19.5471 15.4845 18.9008 17.4201 19.2806C17.9192 19.3767 18.4309 19.5439 18.983 19.7923C19.848 20.1888 21.8737 20.7887 23.684 20.4103V10.1023C23.684 10.1023 23.684 10.1009 23.684 10.1C23.684 10.0991 23.684 10.0986 23.684 10.0977V8.89701ZM21.5315 17.325H15.2639C15.0072 17.325 14.7996 17.117 14.7996 16.8607C14.7996 16.6044 15.0072 16.3964 15.2639 16.3964H21.5315C21.7883 16.3964 21.9958 16.6044 21.9958 16.8607C21.9958 17.117 21.7883 17.325 21.5315 17.325ZM21.5315 14.9868H15.2639C15.0072 14.9868 14.7996 14.7788 14.7996 14.5225C14.7996 14.2662 15.0072 14.0582 15.2639 14.0582H21.5315C21.7883 14.0582 21.9958 14.2662 21.9958 14.5225C21.9958 14.7788 21.7883 14.9868 21.5315 14.9868ZM21.5315 12.649H15.2639C15.0072 12.649 14.7996 12.441 14.7996 12.1847C14.7996 11.9284 15.0072 11.7204 15.2639 11.7204H21.5315C21.7883 11.7204 21.9958 11.9284 21.9958 12.1847C21.9958 12.441 21.7883 12.649 21.5315 12.649Z" fill="#979797"/>
<path d="M24.6111 20.7747C24.6111 20.7807 24.6079 20.7858 24.6074 20.7923C24.6055 20.835 24.5958 20.8745 24.5828 20.9144C24.5768 20.9335 24.573 20.9525 24.5642 20.9706C24.5489 21.0031 24.5275 21.0305 24.5048 21.0588C24.489 21.0783 24.4755 21.0983 24.457 21.1155C24.4351 21.1354 24.4096 21.1494 24.3836 21.1651C24.3562 21.1819 24.3293 21.1981 24.2986 21.2093C24.2903 21.212 24.2843 21.2185 24.2759 21.2209C22.129 21.8314 19.696 21.1424 18.5975 20.6382C18.1151 20.4218 17.6703 20.2755 17.2408 20.1929C14.7512 19.7054 13.6857 21.2278 13.4609 21.609V22.7024H25.9998V10.5647H24.6107V20.7756L24.6111 20.7747Z" fill="#979797"/>
<path d="M2.31641 20.407C4.56873 20.8852 6.91298 19.8396 7.01652 19.7923C7.54954 19.5499 8.07699 19.3772 8.58307 19.2797C10.5118 18.9008 11.7821 19.5462 12.5333 20.2036V10.2657L7.5189 8.24976C6.88002 8.53252 5.44486 9.07668 3.83049 9.07668C3.33555 9.07668 2.82482 9.02142 2.31641 8.89513V10.0879C2.31641 10.0921 2.31873 10.0954 2.31873 10.0991C2.31873 10.1028 2.31641 10.1065 2.31641 10.1102V20.407ZM4.29201 11.7199H10.5601C10.8168 11.7199 11.0244 11.9279 11.0244 12.1842C11.0244 12.4405 10.8168 12.6485 10.5601 12.6485H4.29201C4.03525 12.6485 3.82771 12.4405 3.82771 12.1842C3.82771 11.9279 4.03525 11.7199 4.29201 11.7199ZM4.29201 14.0577H10.5601C10.8168 14.0577 11.0244 14.2657 11.0244 14.522C11.0244 14.7783 10.8168 14.9863 10.5601 14.9863H4.29201C4.03525 14.9863 3.82771 14.7783 3.82771 14.522C3.82771 14.2657 4.03525 14.0577 4.29201 14.0577ZM4.29201 16.3959H10.5601C10.8168 16.3959 11.0244 16.6039 11.0244 16.8602C11.0244 17.1165 10.8168 17.3245 10.5601 17.3245H4.29201C4.03525 17.3245 3.82771 17.1165 3.82771 16.8602C3.82771 16.6039 4.03525 16.3959 4.29201 16.3959Z" fill="#979797"/>
<path d="M12.5338 21.6095C12.3137 21.2344 11.2481 19.7003 8.76089 20.1916C8.32491 20.2756 7.86758 20.4256 7.40095 20.6378C6.29685 21.1401 3.85695 21.8287 1.72302 21.2195C1.71513 21.2172 1.70956 21.2112 1.70166 21.2084C1.66823 21.1968 1.63945 21.1796 1.60973 21.161C1.58652 21.1466 1.5633 21.1341 1.5438 21.1164C1.52198 21.0969 1.50619 21.0737 1.48855 21.0505C1.46951 21.0254 1.45048 21.0018 1.43655 20.9734C1.42587 20.9512 1.42076 20.9275 1.4138 20.9038C1.40312 20.8685 1.3943 20.8342 1.39197 20.7965C1.39197 20.7886 1.38733 20.7821 1.38733 20.7743V10.5634H0V22.7011H12.5333V21.6091L12.5338 21.6095Z" fill="#979797"/>
<path d="M12.5334 9.04414L12.5338 9.04228V7.43766L7.43164 5.38684V7.21433L12.5334 9.26515V9.04414Z" fill="#979797"/>
<path d="M18.8516 4.27064L21.6569 3.14285L12.9981 0L4.33984 3.14285L7.14468 4.27064C7.14468 4.27064 7.14886 4.27203 7.15072 4.27296L12.9981 6.62371L18.8465 4.2725C18.8465 4.2725 18.8502 4.2711 18.852 4.27017L18.8516 4.27064ZM12.9977 4.57011C11.8741 4.57011 11.0272 4.03059 11.0272 3.31464C11.0272 2.59869 11.8741 2.05964 12.9977 2.05964C14.1213 2.05964 14.9686 2.59916 14.9686 3.31464C14.9686 4.03013 14.1213 4.57011 12.9977 4.57011Z" fill="#979797"/>
<path d="M12.9964 2.98828C12.3524 2.98828 11.9842 3.23157 11.9531 3.32443C11.9842 3.39826 12.3524 3.64155 12.9964 3.64155C13.6195 3.64155 13.9844 3.41358 14.0355 3.31468C13.984 3.21625 13.619 2.98828 12.9964 2.98828Z" fill="#979797"/>
</svg>
