<svg width="50" height="48" viewBox="0 0 50 48" fill="none" xmlns="http://www.w3.org/2000/svg">
<path d="M45.7802 39.6977C46.0963 39.6977 46.3527 39.4412 46.3527 39.1252V15.4051C46.3527 14.6127 46.0154 13.8531 45.4268 13.3223C45.1913 13.1098 44.8301 13.1285 44.6184 13.3633C44.4063 13.5981 44.4249 13.9604 44.6597 14.1721C45.0079 14.4867 45.2077 14.9362 45.2077 15.4051V39.1252C45.2077 39.4412 45.4641 39.6977 45.7802 39.6977Z" fill="#00A198"/>
<path d="M6.4528 12.5994C4.90521 12.5994 3.64648 13.8585 3.64648 15.4053V39.1253C3.64648 39.4414 3.90293 39.6979 4.219 39.6979C4.53508 39.6979 4.79152 39.4414 4.79152 39.1253V15.4053C4.79152 14.4891 5.53662 13.7444 6.4528 13.7444H8.18825C8.50432 13.7444 8.76076 13.488 8.76076 13.1719C8.76076 12.8558 8.50432 12.5994 8.18825 12.5994H6.4528Z" fill="#00A198"/>
<path d="M11.9594 35.8138H34.452C35.6228 35.8138 36.5755 34.861 36.5755 33.6899V23.0558C36.5755 22.7397 36.319 22.4833 36.003 22.4833C35.6869 22.4833 35.4305 22.7397 35.4305 23.0558V33.6899C35.4305 34.2296 34.9914 34.6687 34.452 34.6687H11.9594C11.4201 34.6687 10.981 34.2296 10.981 33.6899V2.12309C10.981 1.58412 11.4201 1.14504 11.9594 1.14504H34.452C34.9914 1.14504 35.4305 1.58412 35.4305 2.12309V4.79932C35.4305 5.1154 35.6869 5.37184 36.003 5.37184C36.319 5.37184 36.5755 5.1154 36.5755 4.79932V2.12309C36.5755 0.952708 35.6228 0 34.452 0H11.9594C10.7886 0 9.83594 0.952708 9.83594 2.12309V33.6899C9.83594 34.861 10.7886 35.8138 11.9594 35.8138Z" fill="#00A198"/>
<path d="M42.3174 14.5538C44.1038 12.7674 44.1046 9.84345 42.3174 8.05553C40.5365 6.27536 37.6452 6.26492 35.8449 8.03093C34.9839 7.18334 33.8403 6.71742 32.6208 6.71742C28.5309 6.71742 26.4903 11.6727 29.372 14.5538L35.4465 20.6278C35.6701 20.8515 36.0324 20.8515 36.256 20.6278C37.5003 19.381 33.085 23.8055 42.3174 14.5538ZM35.8512 19.4135L30.1816 13.7442C28.0276 11.5908 29.5374 7.86246 32.6208 7.86246C34.409 7.86246 35.2404 9.10063 35.4465 9.25126C35.7097 9.51544 36.0734 9.44025 36.2631 9.24455L36.6291 8.86511C37.974 7.52029 40.1627 7.52029 41.5075 8.86511C42.838 10.1964 42.8586 12.3934 41.5011 13.7509L35.8512 19.4135Z" fill="#FEA233"/>
<path d="M13.2031 23.8201C13.2031 24.2644 13.5643 24.6252 14.0082 24.6252H18.73C19.1739 24.6252 19.5351 24.2644 19.5351 23.8201V19.0983C19.5351 18.654 19.1739 18.2932 18.73 18.2932H14.0082C13.5643 18.2932 13.2031 18.654 13.2031 19.0983V23.8201ZM14.3482 19.4383H18.3901V23.4802H14.3482V19.4383Z" fill="#FEA233"/>
<path d="M13.2031 14.5269C13.2031 14.9712 13.5643 15.332 14.0082 15.332H18.73C19.1739 15.332 19.5351 14.9712 19.5351 14.5269V9.80511C19.5351 9.36081 19.1739 9 18.73 9H14.0082C13.5643 9 13.2031 9.36081 13.2031 9.80511V14.5269ZM14.3482 10.145H18.3901V14.187H14.3482V10.145Z" fill="#FEA233"/>
<path d="M16.9408 20.3894L15.9758 21.3242L15.8029 21.1468C15.5815 20.9187 15.2188 20.9164 14.9933 21.1363C14.7667 21.357 14.7622 21.7193 14.9829 21.9459L15.5245 22.5013C15.7403 22.7293 16.1571 22.7429 16.3881 22.5192L17.7377 21.2109C17.9647 20.991 17.9703 20.6287 17.7504 20.4013C17.5301 20.1747 17.1671 20.1687 16.9408 20.3894Z" fill="#FEA233"/>
<path d="M26.3531 5.24147C26.6691 5.24147 26.9256 4.98503 26.9256 4.66895C26.9256 4.35288 26.6691 4.09644 26.3531 4.09644H19.5432C19.2271 4.09644 18.9707 4.35288 18.9707 4.66895C18.9707 4.98503 19.2271 5.24147 19.5432 5.24147H26.3531Z" fill="#00A198"/>
<path d="M30.6873 28.2764C30.6873 27.9603 30.4309 27.7039 30.1148 27.7039H13.7756C13.4596 27.7039 13.2031 27.9603 13.2031 28.2764C13.2031 28.5925 13.4596 28.8489 13.7756 28.8489H30.1148C30.4309 28.8489 30.6873 28.5925 30.6873 28.2764Z" fill="#FEA233"/>
<path d="M13.7756 30.688C13.4596 30.688 13.2031 30.9444 13.2031 31.2605C13.2031 31.5766 13.4596 31.833 13.7756 31.833H21.2605C21.5766 31.833 21.833 31.5766 21.833 31.2605C21.833 30.9444 21.5766 30.688 21.2605 30.688H13.7756Z" fill="#FEA233"/>
<path d="M48.6302 41.0955H1.3698C0.614638 41.0955 0 41.7105 0 42.4656V43.2685C0 45.6741 1.95723 47.6317 4.36285 47.6317H45.6371C48.0428 47.6317 50 45.6741 50 43.2685V42.4656C50 41.7105 49.3854 41.0955 48.6302 41.0955ZM48.855 43.2685C48.855 45.0427 47.4114 46.4867 45.6371 46.4867H4.36285C2.58864 46.4867 1.14504 45.0427 1.14504 43.2685V42.4656C1.14504 42.3411 1.24568 42.2405 1.3698 42.2405H48.6302C48.7543 42.2405 48.855 42.3411 48.855 42.4656V43.2685Z" fill="#00A198"/>
<path d="M29.0773 43.3564H20.9241C20.608 43.3564 20.3516 43.6129 20.3516 43.929C20.3516 44.245 20.608 44.5015 20.9241 44.5015H29.0773C29.3933 44.5015 29.6498 44.245 29.6498 43.929C29.6498 43.6129 29.3933 43.3564 29.0773 43.3564Z" fill="#00A198"/>
<rect x="14" y="19" width="5" height="5" fill="#FEA233"/>
<rect x="14" y="9.70679" width="5" height="5" fill="#FEA233"/>
<path d="M41 7.49997C39.8 6.29997 37.1667 7.66664 36 8.49997C35.5 8.33332 34.1 7.89999 32.5 7.49997C30.5 6.99995 29 8.49997 29 12C29 14.8 33.6667 18.5 36 20C37 19.3333 39.5 17.4 41.5 15C44 12 42.5 8.99997 41 7.49997Z" fill="#FEA233"/>
</svg>
