<svg width="50" height="41" viewBox="0 0 50 41" fill="none" xmlns="http://www.w3.org/2000/svg">
<path d="M24.7344 12.7322C28.8433 12.7322 31.9785 15.686 31.9785 19.0906C31.9783 22.3215 30.2036 25.6808 27.2822 29.2156C24.3872 32.7183 20.4986 36.2389 16.4893 39.8181C12.4798 36.2387 8.59038 32.7185 5.69531 29.2156C2.77389 25.6808 1.00018 22.3215 1 19.0906C1 15.686 4.13506 12.7322 8.24414 12.7322C9.91319 12.7322 11.1367 13.0571 12.1367 13.6511C13.1459 14.2507 14.0113 15.174 14.8809 16.5115V16.5105C15.2399 17.0653 15.8329 17.3845 16.4902 17.3845C17.1487 17.3845 17.7395 17.0631 18.0986 16.5125L18.0996 16.5105C18.9681 15.1731 19.8329 14.2496 20.8418 13.6501C21.8415 13.0562 23.0653 12.7322 24.7344 12.7322Z" stroke="#00A198" stroke-width="2"/>
<path fill-rule="evenodd" clip-rule="evenodd" d="M20.621 29.8383C20.2244 29.8383 19.9023 29.5163 19.9023 29.1196C19.9023 28.7229 20.2244 28.401 20.621 28.401H31.3289C31.6173 28.401 31.8778 28.5733 31.9905 28.8389L33.2021 31.695L35.9076 23.352C36.0107 23.034 36.3195 22.8291 36.6527 22.8576C36.9858 22.8863 37.2552 23.1409 37.3027 23.4718L38.8844 34.5168L40.316 26.9752C40.3759 26.66 40.6374 26.4226 40.9568 26.3935C41.2763 26.3643 41.5764 26.5504 41.6923 26.8496L43.1534 30.622L44.1325 28.786C44.2574 28.5519 44.501 28.4057 44.7663 28.4055L49.2816 28.4029C49.6782 28.4027 50.0005 28.7245 50.0007 29.1212C50.0009 29.5178 49.6791 29.8401 49.2824 29.8403L45.1981 29.8426L43.6837 32.6821C43.5514 32.93 43.2869 33.0782 43.0063 33.0612C42.7258 33.0444 42.4809 32.8655 42.3794 32.6034L41.2595 29.712L39.4912 39.0272C39.4257 39.3724 39.1201 39.6196 38.7688 39.6116C38.4175 39.6037 38.1235 39.3429 38.0736 38.9951L36.319 26.7429L33.9759 33.969C33.8833 34.2544 33.6233 34.4522 33.3237 34.4653C33.024 34.4785 32.7477 34.3041 32.6306 34.028L30.8531 29.8383H20.621Z" fill="#FEA233"/>
<path d="M7.93321 20.3435C9.02463 20.3435 9.9094 19.4587 9.9094 18.3673C9.9094 17.2759 9.02463 16.3911 7.93321 16.3911C6.8418 16.3911 5.95703 17.2759 5.95703 18.3673C5.95703 19.4587 6.8418 20.3435 7.93321 20.3435Z" fill="#FEA233"/>
<path fill-rule="evenodd" clip-rule="evenodd" d="M8.65026 18.3672C8.65026 18.7639 8.32819 19.0859 7.93158 19.0859C7.53486 19.0859 7.21289 18.7639 7.21289 18.3672V2.92352C7.21289 2.5266 7.53466 2.20483 7.93158 2.20483H27.1847C27.5814 2.20483 27.9034 2.52681 27.9034 2.92352C27.9034 3.32013 27.5814 3.64221 27.1847 3.64221H8.65026V18.3672Z" fill="#00A198"/>
<path fill-rule="evenodd" clip-rule="evenodd" d="M32.4795 0C32.7552 0 32.9787 0.223511 32.9787 0.499282V5.34795C32.9787 5.62362 32.7552 5.84713 32.4795 5.84713C30.9558 5.84713 26.3765 5.84713 24.8528 5.84713C24.577 5.84713 24.3535 5.62362 24.3535 5.34795C24.3535 4.24343 24.3535 1.6037 24.3535 0.499282C24.3535 0.223511 24.577 0 24.8528 0H32.4795Z" fill="#FEA233"/>
</svg>
