<svg width="42" height="50" viewBox="0 0 42 50" fill="none" xmlns="http://www.w3.org/2000/svg">
<path d="M41.0491 13.3839C41.0491 13.383 41.0491 13.3812 41.0482 13.3803C40.8955 12.3214 35.8741 8.03564 31.3062 8.03564C26.3339 8.03564 21.7285 14.1571 20.4383 14.2856C19.2598 14.2901 19.2642 16.0714 20.4428 16.0714C24.0687 16.0714 28.3142 4.99636 37.8107 12.5339C36.6866 12.8142 35.8964 13.5321 35.4857 14.6428C32.6464 12.1955 28.0776 13.5785 26.8321 16.6303C26.3964 17.7133 28.0303 18.3874 28.4857 17.3035C29.5026 14.9803 33.5678 13.9785 35.391 17.3419C36.891 20.1053 41.7098 17.9071 41.0491 13.3839ZM36.9642 16.4955C36.9928 14.8187 37.6499 14.0276 39.3044 14.208C39.2482 16.4508 37.3928 17.2669 36.9642 16.4955Z" fill="#FEA233"/>
<path d="M30.333 17.6982C30.3598 17.7295 33.017 20.8429 33.017 25C33.017 33.8946 25.8571 48.2143 21.4098 48.2143C18.2482 48.2143 3.37857 36.1027 1.91339 26.483C19.1759 33.8259 12.7223 4.63482 28.7946 4.47143C29.4304 4.46964 31.2295 4.46429 32.1982 4.46429C32.8929 4.46429 34.0589 4.8125 34.0589 7.14286C34.0589 8.32411 35.8446 8.32411 35.8446 7.14286C35.8446 3.84821 33.8804 2.67857 32.1982 2.67857C31.1295 2.67857 29.5589 2.68393 28.5571 2.68661V2.69911C24.5304 2.80268 21.7214 4.54375 19.6241 7.00893V4.48036C19.6473 3.20179 18.5241 1.78571 16.0527 1.78571C15.0196 1.78571 14.1982 2.03482 13.5848 2.51071C13.0214 1.49554 11.533 0 10.2036 0C7.27411 0 4.42054 3.45179 6.15089 5.77411C7.49464 7.57946 7.86964 9.39196 7.975 10.2321C6.13036 11.3982 0 15.9527 0 25C0 35.7036 16.9554 50 21.4098 50C27.708 50 34.8027 33.6911 34.8027 25C34.8027 20.1839 31.8098 16.6759 31.683 16.5286C30.9071 15.6348 29.5607 16.8062 30.333 17.6982ZM14.7357 16.1036C13.8857 13.7312 12.2857 10.5062 9.7375 9.91786C9.62589 9.07768 9.31518 7.66429 8.47768 6.11518C10.1848 5.74107 11.2679 4.64286 11.8036 3.03036C12.6286 4.11875 12.5098 5.44018 12.4812 8.92857C12.4812 10.1098 14.267 10.1098 14.267 8.92857V6.26339C15.5384 6.60179 16.7348 6.50268 17.8384 6.03571V9.49643C16.5714 11.592 15.608 13.9187 14.7357 16.1036ZM17.6902 4.10179C16.3116 4.93929 15.0089 4.67054 14.3196 4.4125C14.725 3.24911 17.1554 3.39911 17.6902 4.10179ZM10.2821 1.79821C10.0098 3.40982 9.11786 4.38125 7.45178 4.45536C7.15268 3.58036 8.68482 1.63839 10.2821 1.79821ZM9.12411 11.6196C11.4732 11.8991 13.1589 16.6902 13.6723 18.7402C11.0018 25.1911 8.71607 27.8777 1.80982 24.4705C2.05893 16.2777 7.91339 12.3429 9.12411 11.6196Z" fill="#00A198"/>
<path d="M22.3018 18.75V23.8705L18.9643 29.7116L15.1849 31.9794L12.976 30.5071C12.7465 30.3544 12.459 30.316 12.1983 30.4026L9.51971 31.2955C8.3956 31.6705 8.96881 33.3651 10.0849 32.9892L12.3492 32.2348L14.1411 33.4294L13.401 36.3901C13.1152 37.5339 14.8456 37.9723 15.134 36.8241L15.9376 33.6116L18.7322 31.9348V41.0714C18.7322 42.2526 20.5179 42.2526 20.5179 41.0714V36.0839L23.4581 39.0241C24.2849 39.8598 25.5572 38.6 24.7188 37.7616L20.5161 33.5589V30.5946L23.551 25.2839L25.7572 26.3866L24.9983 30.1821C24.767 31.3446 26.517 31.7008 26.7483 30.533L27.3144 27.7044L28.8135 29.2035C29.651 30.0375 30.9108 28.775 30.076 27.9401L27.3974 25.2616C27.0161 24.9785 25.5268 24.2964 24.0876 23.5553V18.75C24.0876 17.5687 22.3018 17.5687 22.3018 18.75Z" fill="#FEA233"/>
</svg>
