<svg width="50" height="50" viewBox="0 0 50 50" fill="none" xmlns="http://www.w3.org/2000/svg">
<path d="M38.3373 49.9999C38.0607 49.9999 37.7843 49.9217 37.5423 49.7654C37.4331 49.6948 34.8382 48.0081 32.213 45.4367C28.5375 41.8366 26.6738 38.3743 26.6738 35.1459C26.6738 31.3392 29.7712 28.2422 33.5784 28.2422C35.3745 28.2422 37.0715 28.9421 38.3375 30.1462C39.6039 28.942 41.301 28.2422 43.0968 28.2422C46.9035 28.2422 50.0006 31.3392 50.0006 35.1459C50.0006 38.3743 48.137 41.8366 44.4615 45.4367C41.8363 48.0081 39.2414 49.6949 39.1322 49.7654C38.8903 49.9217 38.6138 49.9999 38.3373 49.9999Z" fill="#FEA233"/>
<path d="M48.5351 20.3971L29.707 20.3972C29.3185 20.3972 28.946 20.5515 28.6713 20.8263L26.569 22.9285L24.4668 20.8263C24.0765 20.4359 23.4999 20.2982 22.9753 20.47C22.4507 20.6418 22.0672 21.0938 21.9832 21.6394L20.5004 31.2774L17.0411 1.29695C16.957 0.568337 16.347 0.014138 15.6136 0.000368437C14.8815 -0.0160378 14.2496 0.517263 14.1381 1.24216L11.4396 18.7822L10.3457 17.6883C9.77373 17.1163 8.84619 17.1163 8.27412 17.6883L5.56513 20.3971H1.46484C0.655859 20.3971 0 21.053 0 21.862C0 22.671 0.655859 23.3268 1.46484 23.3268H6.17187C6.56035 23.3268 6.93291 23.1725 7.20761 22.8977L9.30986 20.7956L11.4121 22.8977C11.8024 23.2882 12.379 23.4258 12.9036 23.2541C13.4282 23.0823 13.8117 22.6302 13.8957 22.0846L15.3785 12.4467L18.8378 42.427C18.9219 43.1556 19.5319 43.7098 20.2653 43.7236C20.9974 43.74 21.6293 43.2067 21.7408 42.4818L24.4392 24.9418L25.5332 26.0357C26.1052 26.6077 27.0327 26.6077 27.6048 26.0357L30.3138 23.3268H48.5351C49.3441 23.3268 50 22.671 50 21.862C50 21.053 49.3441 20.3971 48.5351 20.3971Z" fill="#00A198"/>
<path d="M48.5351 20.3972L29.707 20.3973C29.3186 20.3973 28.946 20.5516 28.6713 20.8264L26.569 22.9286L24.4668 20.8264C24.0765 20.436 23.4999 20.2983 22.9753 20.4701C22.4507 20.6418 22.0672 21.0939 21.9832 21.6395L20.5004 31.2775L19.414 21.8622H16.4648L18.8377 42.4273C18.9218 43.1559 19.5318 43.7101 20.2652 43.7239C20.9973 43.7403 21.6292 43.207 21.7407 42.4821L24.4392 24.942L25.5331 26.036C26.1051 26.608 27.0326 26.608 27.6047 26.036L30.3137 23.3271L48.5351 23.3269C49.3441 23.3269 50 22.671 50 21.8621C50 21.0531 49.3441 20.3972 48.5351 20.3972Z" fill="#00A198"/>
</svg>
