<svg width="43" height="50" viewBox="0 0 43 50" fill="none" xmlns="http://www.w3.org/2000/svg">
<path d="M6.66674 31.606H11.6368C11.851 31.606 12.0244 31.4326 12.0244 31.2184C12.0244 31.0042 11.851 30.8308 11.6368 30.8308H6.66674C6.10955 30.8308 5.65608 30.3773 5.65608 29.8194V5.35006C5.65608 4.79287 6.10955 4.3394 6.66674 4.3394H36.7851C37.3431 4.3394 37.7966 4.79287 37.7966 5.35006V29.8194C37.7966 30.3773 37.3431 30.8308 36.7851 30.8308H31.2587C31.0444 30.8308 30.8711 31.0042 30.8711 31.2184C30.8711 31.4326 31.0444 31.606 31.2587 31.606H36.7851C37.7701 31.606 38.5718 30.8043 38.5718 29.8194V5.35006C38.5718 4.36514 37.7701 3.56418 36.7851 3.56418H27.1361V1.17797C27.1361 0.527284 26.6088 0 25.9583 0H17.1112C16.4607 0 15.9334 0.527284 15.9334 1.17797V3.56418H6.66674C5.68182 3.56418 4.88086 4.36514 4.88086 5.35006V29.8194C4.88086 30.8043 5.68182 31.606 6.66674 31.606Z" fill="#00A198"/>
<path d="M35.1327 26.5724V8.59778C35.1327 7.64011 34.353 6.86035 33.3953 6.86035H10.0722C9.11374 6.86035 8.33398 7.64011 8.33398 8.59778V26.5724C8.33398 27.5308 9.11374 28.3106 10.0722 28.3106H33.3953C34.353 28.3106 35.1327 27.5308 35.1327 26.5724ZM9.1092 26.5724V8.59778C9.1092 8.06709 9.54148 7.63557 10.0722 7.63557H33.3953C33.926 7.63557 34.3575 8.06709 34.3575 8.59778V26.5724C34.3575 27.1031 33.926 27.5353 33.3953 27.5353H10.0722C9.54148 27.5353 9.1092 27.1031 9.1092 26.5724Z" fill="#00A198"/>
<path d="M1.06971 46.8528H7.10111V48.6046C7.10111 49.3738 7.8733 49.9999 8.82188 49.9999H10.1399C11.0961 49.9999 11.8448 49.3867 11.8448 48.6046V46.8528H30.7142V48.6046C30.7142 49.3867 31.4629 49.9999 32.4191 49.9999H33.7371C34.6857 49.9999 35.4579 49.3738 35.4579 48.6046V46.8528H41.4741C42.0722 46.8528 42.559 46.366 42.559 45.7672V35.6742C42.559 35.0671 42.0722 34.5735 41.4741 34.5735H29.9755V32.0495C29.9755 31.5907 29.6035 31.2183 29.1446 31.2183H14.4436C13.9847 31.2183 13.6127 31.5907 13.6127 32.0495V34.5735H1.06971C0.479969 34.5735 0 35.0671 0 35.6742V45.7672C0 46.366 0.479969 46.8528 1.06971 46.8528ZM11.0696 48.6046C11.0696 48.9408 10.6441 49.2247 10.1399 49.2247H8.82188C8.31845 49.2247 7.87633 48.9347 7.87633 48.6046V46.8528H11.0696V48.6046ZM34.6826 48.6046C34.6826 48.9347 34.2405 49.2247 33.7371 49.2247H32.4191C31.9149 49.2247 31.4894 48.9408 31.4894 48.6046V46.8528H34.6826V48.6046ZM1.06971 35.3487H41.4741C41.624 35.3487 41.7838 35.4797 41.7838 35.6742V44.9451C41.4689 45.1051 43.9855 44.992 1.07359 45.028C0.96571 45.028 0.866631 44.9977 0.775217 44.9526V35.6742C0.775217 35.4918 0.904673 35.3487 1.06971 35.3487Z" fill="#00A198"/>
<path d="M17.6769 16.0455C17.7079 16.0921 17.7389 16.1383 17.77 16.1693V16.1852C19.5504 18.2479 21.646 19.3463 21.8011 19.4564C21.9561 19.3035 27.5222 16.265 27.5222 12.3402C27.5222 10.7954 26.0725 9.6731 24.5454 9.6731C23.2895 9.6731 22.2352 10.3711 21.8011 11.3477C20.4459 8.25745 14.5062 9.59587 16.4831 14.1696C16.7622 14.8517 17.1808 15.4717 17.6769 16.0455ZM18.9637 11.5801C19.409 11.3574 19.7574 12.0516 19.3049 12.2781C18.4425 12.6729 18.2991 13.2946 18.5297 13.6113C18.6692 13.782 18.6227 14.0299 18.4522 14.1541C18.3344 14.2718 18.0449 14.266 17.9095 14.0765C17.4166 13.411 17.5892 12.2473 18.9637 11.5801Z" fill="#FEA233"/>
<path d="M33.0043 23.2466H23.7577L22.9507 21.4789C22.8315 21.2185 22.4291 21.1395 22.2564 21.457L20.4183 24.8751L18.7733 20.3214C18.6768 20.0542 18.2923 19.9464 18.0912 20.2298L16.0608 23.1172H11.1278C10.9136 23.1172 10.7402 23.2906 10.7402 23.5048C10.7402 23.719 10.9136 23.8924 11.1278 23.8924H16.2621C16.3886 23.8924 16.5067 23.8311 16.5793 23.7281L18.2971 21.2851L19.9838 25.9546C20.0978 26.2687 20.5303 26.3026 20.6901 26.0061L22.5699 22.5116L23.1558 23.7955C23.2194 23.9333 23.3572 24.0219 23.5086 24.0219H33.0043C33.2185 24.0219 33.3919 23.8485 33.3919 23.6343C33.3919 23.42 33.2185 23.2466 33.0043 23.2466Z" fill="#FEA233"/>
<path d="M5.64218 41.8738C6.62237 41.8738 7.41708 41.0793 7.41708 40.0989C7.41708 39.1189 6.62237 38.324 5.64218 38.324C4.6619 38.324 3.86719 39.1189 3.86719 40.0989C3.86719 41.0793 4.6619 41.8738 5.64218 41.8738Z" fill="#FEA233"/>
<path d="M12.3944 41.875C13.3748 41.875 14.1696 41.0802 14.1696 40.0997C14.1696 39.1193 13.3748 38.3245 12.3944 38.3245C11.4139 38.3245 10.6191 39.1193 10.6191 40.0997C10.6191 41.0802 11.4139 41.875 12.3944 41.875Z" fill="#FEA233"/>
<path d="M18.8573 41.875C19.8377 41.875 20.6325 41.0802 20.6325 40.0997C20.6325 39.1193 19.8377 38.3245 18.8573 38.3245C17.8768 38.3245 17.082 39.1193 17.082 40.0997C17.082 41.0802 17.8768 41.875 18.8573 41.875Z" fill="#FEA233"/>
<path d="M28.7778 43.0184H37.903C38.3376 43.0184 38.6906 42.6653 38.6906 42.2311V37.967C38.6906 37.5325 38.3376 37.1797 37.903 37.1797H28.7778C28.3433 37.1797 27.9902 37.5325 27.9902 37.967V42.2311C27.9902 42.6653 28.3433 43.0184 28.7778 43.0184ZM34.4046 41.6478H32.3432C32.1289 41.6478 31.9556 41.4744 31.9556 41.2602C31.9556 41.0459 32.1289 40.8726 32.3432 40.8726H34.4046C34.6189 40.8726 34.7922 41.0459 34.7922 41.2602C34.7922 41.4744 34.6189 41.6478 34.4046 41.6478ZM30.9055 38.933H36.2003C36.4146 38.933 36.5879 39.1064 36.5879 39.3206C36.5879 39.5349 36.4146 39.7082 36.2003 39.7082H30.9055C30.6913 39.7082 30.5179 39.5349 30.5179 39.3206C30.5179 39.1064 30.6913 38.933 30.9055 38.933Z" fill="#FEA233"/>
</svg>
