<svg width="168" height="44" viewBox="0 0 168 44" fill="none" xmlns="http://www.w3.org/2000/svg">
<path d="M20.0358 16.7569C22.9155 18.0981 25.8837 18.7636 28.3864 18.632H28.432L28.6116 0.789457C28.613 0.647654 28.5758 0.508149 28.5039 0.385875C28.4321 0.263602 28.3284 0.163163 28.2039 0.0953123C28.0793 0.0274611 27.9387 -0.00524854 27.797 0.000684872C27.6553 0.00661828 27.5179 0.0509713 27.3995 0.128996L12.3911 10.251C13.6058 12.5715 16.4121 15.0665 20.0358 16.7569Z" fill="#CCA967"/>
<path d="M27.7686 20.3452C25.1496 20.3452 22.1813 19.629 19.3193 18.2929C15.3717 16.4532 12.4034 13.8291 10.9686 11.2075L3.34677 16.3571C3.21483 16.4455 3.11293 16.5719 3.05462 16.7196C2.99631 16.8673 2.98436 17.0293 3.02034 17.1839C3.05633 17.3386 3.13856 17.4786 3.25609 17.5854C3.37361 17.6922 3.52087 17.7607 3.67826 17.7818L16.4927 19.5253C17.246 19.6277 17.9365 20 18.4361 20.5729L26.9487 30.3077C27.0533 30.4269 27.1915 30.5116 27.3452 30.5507C27.4989 30.5897 27.6608 30.5813 27.8096 30.5265C27.9583 30.4717 28.087 30.3731 28.1786 30.2437C28.2703 30.1143 28.3205 29.9602 28.3228 29.8016L28.4164 20.33C28.2056 20.3401 27.9896 20.3452 27.7686 20.3452Z" fill="#CCA967"/>
<path d="M27.7684 18.9939C25.1493 18.9939 22.181 18.2778 19.3191 16.9416C12.5879 13.8038 8.69095 8.3835 10.4623 4.6004C12.2337 0.8173 18.8762 0.318791 25.6073 3.45661C27.7239 4.42546 29.6723 5.72558 31.3794 7.30803C31.5428 7.46273 31.6381 7.67601 31.6443 7.90095C31.6504 8.12589 31.567 8.34407 31.4123 8.50749C31.2576 8.67091 31.0443 8.76618 30.8194 8.77235C30.5945 8.77852 30.3763 8.69508 30.2129 8.54039C28.6406 7.08507 26.8469 5.88922 24.8988 4.99769C19.2178 2.34825 13.3116 2.49755 11.9958 5.30894C10.6799 8.12032 14.3618 12.7587 20.0352 15.4056C22.9149 16.7468 25.8832 17.4149 28.3858 17.2807C30.7063 17.1593 32.3182 16.3799 32.923 15.0817C33.5531 13.7279 32.9433 12.1818 32.3208 11.124C32.2643 11.028 32.2272 10.9218 32.2118 10.8114C32.1964 10.7011 32.2028 10.5888 32.2308 10.4809C32.2587 10.3731 32.3077 10.2718 32.3748 10.1828C32.4419 10.0939 32.5259 10.019 32.6219 9.96253C32.7179 9.90603 32.8242 9.86901 32.9345 9.85357C33.0448 9.83813 33.1572 9.84457 33.265 9.87254C33.4828 9.92901 33.6693 10.0697 33.7834 10.2637C34.955 12.2552 35.1954 14.2214 34.4616 15.7979C33.5784 17.6907 31.4528 18.8345 28.4744 18.9762C28.2467 18.9888 28.0088 18.9939 27.7684 18.9939Z" fill="#CCA967"/>
<path d="M167.724 17.1007C167.724 17.6626 167.688 18.1701 167.615 18.6233H156.169C156.259 19.8196 156.703 20.7802 157.501 21.5052C158.298 22.2303 159.277 22.5928 160.437 22.5928C162.105 22.5928 163.283 21.8949 163.972 20.4993H167.316C166.863 21.8768 166.038 23.0097 164.842 23.8978C163.664 24.7679 162.195 25.2029 160.437 25.2029C159.005 25.2029 157.718 24.8857 156.577 24.2513C155.453 23.5988 154.565 22.6925 153.912 21.5324C153.278 20.3543 152.96 18.9948 152.96 17.4542C152.96 15.9135 153.269 14.5631 153.885 13.4031C154.519 12.2249 155.398 11.3186 156.522 10.6842C157.664 10.0498 158.969 9.73262 160.437 9.73262C161.851 9.73262 163.111 10.0408 164.216 10.657C165.322 11.2733 166.183 12.1433 166.799 13.2671C167.416 14.3728 167.724 15.6507 167.724 17.1007ZM164.488 16.1219C164.47 14.98 164.062 14.0647 163.265 13.3759C162.467 12.6871 161.48 12.3427 160.301 12.3427C159.232 12.3427 158.317 12.6871 157.555 13.3759C156.794 14.0465 156.341 14.9619 156.196 16.1219H164.488Z" fill="#CCA967"/>
<path d="M143.878 9.73262C145.056 9.73262 146.107 9.97732 147.032 10.4667C147.974 10.9561 148.708 11.6811 149.234 12.6418C149.778 13.6025 150.05 14.7625 150.05 16.1219V24.9582H146.977V16.5841C146.977 15.2428 146.642 14.2187 145.971 13.5118C145.301 12.7868 144.385 12.4243 143.225 12.4243C142.065 12.4243 141.141 12.7868 140.452 13.5118C139.782 14.2187 139.446 15.2428 139.446 16.5841V24.9582H136.374V16.5841C136.374 15.2428 136.039 14.2187 135.368 13.5118C134.697 12.7868 133.782 12.4243 132.622 12.4243C131.462 12.4243 130.537 12.7868 129.849 13.5118C129.178 14.2187 128.843 15.2428 128.843 16.5841V24.9582H125.743V9.97732H128.843V11.6902C129.35 11.0739 129.994 10.5936 130.773 10.2492C131.552 9.90481 132.386 9.73262 133.274 9.73262C134.471 9.73262 135.54 9.98638 136.483 10.4939C137.425 11.0014 138.15 11.7355 138.658 12.6962C139.111 11.7899 139.818 11.0739 140.778 10.5483C141.739 10.0045 142.772 9.73262 143.878 9.73262Z" fill="#CCA967"/>
<path d="M121.654 9.97729V24.9582H118.554V23.1909C118.065 23.8072 117.421 24.2966 116.624 24.6591C115.844 25.0035 115.011 25.1757 114.122 25.1757C112.944 25.1757 111.884 24.931 110.941 24.4416C110.017 23.9522 109.283 23.2272 108.739 22.2665C108.214 21.3058 107.951 20.1458 107.951 18.7864V9.97729H111.023V18.3242C111.023 19.6655 111.358 20.6986 112.029 21.4237C112.7 22.1306 113.615 22.484 114.775 22.484C115.935 22.484 116.85 22.1306 117.521 21.4237C118.21 20.6986 118.554 19.6655 118.554 18.3242V9.97729H121.654Z" fill="#CCA967"/>
<path d="M105.747 9.97729L96.5577 32H93.3494L96.3945 24.7135L90.4946 9.97729H93.9476L98.1618 21.3965L102.539 9.97729H105.747Z" fill="#CCA967"/>
<path d="M82.21 22.4296H89.0071V24.9582H78.6211V22.4296L85.4454 12.5058H78.6211V9.97729H89.0071V12.5058L82.21 22.4296Z" fill="#CCA967"/>
<path d="M76.4142 17.1007C76.4142 17.6626 76.378 18.1701 76.3055 18.6233H64.8591C64.9498 19.8196 65.3938 20.7802 66.1914 21.5052C66.9889 22.2303 67.9677 22.5928 69.1277 22.5928C70.7953 22.5928 71.9735 21.8949 72.6622 20.4993H76.0064C75.5533 21.8768 74.7286 23.0097 73.5323 23.8978C72.3541 24.7679 70.8859 25.2029 69.1277 25.2029C67.6958 25.2029 66.4089 24.8857 65.267 24.2513C64.1432 23.5988 63.255 22.6925 62.6025 21.5324C61.9681 20.3543 61.6509 18.9948 61.6509 17.4542C61.6509 15.9135 61.959 14.5631 62.5753 13.4031C63.2097 12.2249 64.0888 11.3186 65.2126 10.6842C66.3545 10.0498 67.6595 9.73262 69.1277 9.73262C70.5415 9.73262 71.8013 10.0408 72.9069 10.657C74.0126 11.2733 74.8736 12.1433 75.4898 13.2671C76.1061 14.3728 76.4142 15.6507 76.4142 17.1007ZM73.1788 16.1219C73.1607 14.98 72.7529 14.0647 71.9553 13.3759C71.1578 12.6871 70.1699 12.3427 68.9918 12.3427C67.9224 12.3427 67.007 12.6871 66.2457 13.3759C65.4845 14.0465 65.0313 14.9619 64.8863 16.1219H73.1788Z" fill="#CCA967"/>
<path d="M55.3204 24.9582L50.9703 17.3998H48.6049V24.9582H45.5054V6.06216H52.0306C53.4807 6.06216 54.7042 6.31592 55.7011 6.82344C56.7161 7.33096 57.4683 8.01067 57.9577 8.86258C58.4652 9.71449 58.719 10.6661 58.719 11.7174C58.719 12.9499 58.3565 14.0737 57.6314 15.0888C56.9245 16.0857 55.8279 16.7654 54.3416 17.1279L59.0181 24.9582H55.3204ZM48.6049 14.9256H52.0306C53.1907 14.9256 54.0607 14.6356 54.6407 14.0556C55.2389 13.4756 55.5379 12.6962 55.5379 11.7174C55.5379 10.7386 55.2479 9.97731 54.6679 9.43354C54.0879 8.87164 53.2088 8.5907 52.0306 8.5907H48.6049V14.9256Z" fill="#CCA967"/>
<path d="M128.204 39.112H131.132V40H127.112V31.636H128.204V39.112ZM131.883 36.688C131.883 36.016 132.019 35.428 132.291 34.924C132.563 34.412 132.935 34.016 133.407 33.736C133.887 33.456 134.419 33.316 135.003 33.316C135.579 33.316 136.079 33.44 136.503 33.688C136.927 33.936 137.243 34.248 137.451 34.624V33.424H138.555V40H137.451V38.776C137.235 39.16 136.911 39.48 136.479 39.736C136.055 39.984 135.559 40.108 134.991 40.108C134.407 40.108 133.879 39.964 133.407 39.676C132.935 39.388 132.563 38.984 132.291 38.464C132.019 37.944 131.883 37.352 131.883 36.688ZM137.451 36.7C137.451 36.204 137.351 35.772 137.151 35.404C136.951 35.036 136.679 34.756 136.335 34.564C135.999 34.364 135.627 34.264 135.219 34.264C134.811 34.264 134.439 34.36 134.103 34.552C133.767 34.744 133.499 35.024 133.299 35.392C133.099 35.76 132.999 36.192 132.999 36.688C132.999 37.192 133.099 37.632 133.299 38.008C133.499 38.376 133.767 38.66 134.103 38.86C134.439 39.052 134.811 39.148 135.219 39.148C135.627 39.148 135.999 39.052 136.335 38.86C136.679 38.66 136.951 38.376 137.151 38.008C137.351 37.632 137.451 37.196 137.451 36.7ZM149.161 33.424L147.109 40H145.981L144.397 34.78L142.813 40H141.685L139.621 33.424H140.737L142.249 38.944L143.881 33.424H144.997L146.593 38.956L148.081 33.424H149.161ZM155.908 33.424L151.948 43.096H150.82L152.116 39.928L149.464 33.424H150.676L152.74 38.752L154.78 33.424H155.908ZM163.006 36.46C163.006 36.668 162.994 36.888 162.97 37.12H157.714C157.754 37.768 157.974 38.276 158.374 38.644C158.782 39.004 159.274 39.184 159.85 39.184C160.322 39.184 160.714 39.076 161.026 38.86C161.346 38.636 161.57 38.34 161.698 37.972H162.874C162.698 38.604 162.346 39.12 161.818 39.52C161.29 39.912 160.634 40.108 159.85 40.108C159.226 40.108 158.666 39.968 158.17 39.688C157.682 39.408 157.298 39.012 157.018 38.5C156.738 37.98 156.598 37.38 156.598 36.7C156.598 36.02 156.734 35.424 157.006 34.912C157.278 34.4 157.658 34.008 158.146 33.736C158.642 33.456 159.21 33.316 159.85 33.316C160.474 33.316 161.026 33.452 161.506 33.724C161.986 33.996 162.354 34.372 162.61 34.852C162.874 35.324 163.006 35.86 163.006 36.46ZM161.878 36.232C161.878 35.816 161.786 35.46 161.602 35.164C161.418 34.86 161.166 34.632 160.846 34.48C160.534 34.32 160.186 34.24 159.802 34.24C159.25 34.24 158.778 34.416 158.386 34.768C158.002 35.12 157.782 35.608 157.726 36.232H161.878ZM165.539 34.492C165.731 34.116 166.003 33.824 166.355 33.616C166.715 33.408 167.151 33.304 167.663 33.304V34.432H167.375C166.151 34.432 165.539 35.096 165.539 36.424V40H164.447V33.424H165.539V34.492Z" fill="#CCA967"/>
</svg>
