<svg width="217" height="42" viewBox="0 0 217 42" fill="none" xmlns="http://www.w3.org/2000/svg">
<path d="M22.3588 21.9934C26.1384 23.7537 30.0342 24.6272 33.319 24.4545H33.3788L33.6146 1.03616C33.6164 0.850044 33.5675 0.666944 33.4732 0.50646C33.379 0.345977 33.2428 0.214152 33.0794 0.125097C32.9159 0.0360426 32.7314 -0.00688869 32.5454 0.000898893C32.3594 0.00868648 32.1791 0.0668998 32.0237 0.169307L12.3252 13.4544C13.9194 16.5 17.6027 19.7748 22.3588 21.9934Z" fill="#CCA967"/>
<path d="M32.5088 26.7036C29.0712 26.7036 25.1754 25.7637 21.419 24.01C16.2378 21.5955 12.342 18.1513 10.4588 14.7104L0.455131 21.4692C0.281968 21.5852 0.148225 21.7512 0.0716929 21.9451C-0.0048389 22.1389 -0.0205315 22.3515 0.0267025 22.5545C0.0739366 22.7575 0.181858 22.9413 0.336111 23.0815C0.490364 23.2216 0.683636 23.3115 0.890218 23.3391L17.7092 25.6275C18.6978 25.762 19.6041 26.2505 20.2599 27.0025L31.4327 39.7794C31.5699 39.9359 31.7513 40.047 31.953 40.0983C32.1547 40.1496 32.3672 40.1385 32.5625 40.0666C32.7578 39.9946 32.9267 39.8652 33.0469 39.6954C33.1672 39.5256 33.2331 39.3233 33.2361 39.1152L33.359 26.6836C33.0822 26.6969 32.7988 26.7036 32.5088 26.7036Z" fill="#CCA967"/>
<path d="M32.5086 24.9293C29.071 24.9293 25.1752 23.9893 21.4188 22.2357C12.5842 18.1173 7.46947 11.0032 9.79436 6.03786C12.1193 1.07255 20.8376 0.418257 29.6722 4.53664C32.4501 5.80824 35.0075 7.51466 37.248 9.59162C37.4625 9.79466 37.5876 10.0746 37.5957 10.3698C37.6038 10.6651 37.4942 10.9514 37.2912 11.1659C37.0882 11.3804 36.8082 11.5054 36.513 11.5135C36.2178 11.5216 35.9314 11.4121 35.7169 11.2091C33.6534 9.29898 31.2991 7.72943 28.7422 6.5593C21.286 3.08192 13.5341 3.27788 11.8071 6.96781C10.08 10.6577 14.9124 16.7456 22.3587 20.2197C26.1384 21.98 30.0342 22.8568 33.319 22.6808C36.3646 22.5213 38.4802 21.4984 39.274 19.7946C40.101 18.0177 39.3006 15.9884 38.4835 14.6001C38.4094 14.4741 38.3608 14.3346 38.3405 14.1898C38.3203 14.045 38.3287 13.8976 38.3654 13.756C38.4021 13.6145 38.4663 13.4815 38.5544 13.3648C38.6425 13.248 38.7527 13.1498 38.8788 13.0756C39.0048 13.0015 39.1442 12.9529 39.2891 12.9326C39.4339 12.9124 39.5813 12.9208 39.7229 12.9575C40.0087 13.0316 40.2535 13.2163 40.4032 13.4709C41.941 16.0847 42.2565 18.6653 41.2933 20.7345C40.1342 23.2188 37.3443 24.72 33.4352 24.906C33.1363 24.9226 32.8241 24.9293 32.5086 24.9293Z" fill="#CCA967"/>
<path d="M216.2 22.4448C216.2 23.1823 216.152 23.8484 216.057 24.4431H201.034C201.153 26.0133 201.735 27.2741 202.782 28.2257C203.829 29.1773 205.114 29.6531 206.636 29.6531C208.825 29.6531 210.371 28.7372 211.275 26.9054H215.664C215.07 28.7134 213.987 30.2003 212.417 31.366C210.871 32.5079 208.944 33.0789 206.636 33.0789C204.757 33.0789 203.068 32.6625 201.569 31.8299C200.094 30.9735 198.928 29.784 198.072 28.2614C197.239 26.7151 196.823 24.9308 196.823 22.9087C196.823 20.8865 197.227 19.1142 198.036 17.5916C198.869 16.0453 200.023 14.8558 201.497 14.0231C202.996 13.1905 204.709 12.7742 206.636 12.7742C208.492 12.7742 210.145 13.1786 211.596 13.9875C213.047 14.7963 214.177 15.9382 214.986 17.4132C215.795 18.8644 216.2 20.5416 216.2 22.4448ZM211.953 21.1601C211.929 19.6613 211.394 18.46 210.347 17.5559C209.301 16.6519 208.004 16.1999 206.458 16.1999C205.054 16.1999 203.853 16.6519 202.854 17.5559C201.854 18.4362 201.26 19.6376 201.069 21.1601H211.953Z" fill="#CCA967"/>
<path d="M184.901 12.7742C186.448 12.7742 187.828 13.0953 189.041 13.7377C190.278 14.38 191.241 15.3316 191.931 16.5924C192.645 17.8533 193.002 19.3759 193.002 21.1601V32.7577H188.969V21.7668C188.969 20.0063 188.529 18.6622 187.649 17.7344C186.769 16.7828 185.568 16.307 184.045 16.307C182.522 16.307 181.309 16.7828 180.405 17.7344C179.525 18.6622 179.085 20.0063 179.085 21.7668V32.7577H175.052V21.7668C175.052 20.0063 174.612 18.6622 173.732 17.7344C172.852 16.7828 171.65 16.307 170.128 16.307C168.605 16.307 167.392 16.7828 166.488 17.7344C165.608 18.6622 165.168 20.0063 165.168 21.7668V32.7577H161.1V13.0953H165.168V15.3435C165.834 14.5346 166.678 13.9042 167.701 13.4522C168.724 13.0002 169.819 12.7742 170.984 12.7742C172.554 12.7742 173.958 13.1072 175.195 13.7733C176.432 14.4395 177.384 15.403 178.05 16.6638C178.645 15.4743 179.572 14.5346 180.833 13.8447C182.094 13.131 183.45 12.7742 184.901 12.7742Z" fill="#CCA967"/>
<path d="M155.732 13.0952V32.7576H151.664V30.4381C151.022 31.2469 150.177 31.8892 149.131 32.365C148.108 32.8171 147.013 33.0431 145.848 33.0431C144.301 33.0431 142.909 32.7219 141.672 32.0796C140.459 31.4372 139.496 30.4856 138.782 29.2248C138.092 27.9639 137.747 26.4414 137.747 24.6571V13.0952H141.779V24.0505C141.779 25.8109 142.22 27.1669 143.1 28.1185C143.98 29.0463 145.181 29.5103 146.704 29.5103C148.227 29.5103 149.428 29.0463 150.308 28.1185C151.212 27.1669 151.664 25.8109 151.664 24.0505V13.0952H155.732Z" fill="#CCA967"/>
<path d="M134.855 13.0952L122.794 42H118.583L122.58 32.4364L114.836 13.0952H119.368L124.899 28.0829L130.644 13.0952H134.855Z" fill="#CCA967"/>
<path d="M103.963 29.4389H112.884V32.7576H99.2524V29.4389L108.209 16.4139H99.2524V13.0952H112.884V16.4139L103.963 29.4389Z" fill="#CCA967"/>
<path d="M96.3554 22.4448C96.3554 23.1823 96.3078 23.8484 96.2127 24.4431H81.1893C81.3083 26.0133 81.8911 27.2741 82.9379 28.2257C83.9846 29.1773 85.2693 29.6531 86.7919 29.6531C88.9805 29.6531 90.5269 28.7372 91.4309 26.9054H95.8201C95.2254 28.7134 94.1429 30.2003 92.5728 31.366C91.0265 32.5079 89.0995 33.0789 86.7919 33.0789C84.9125 33.0789 83.2234 32.6625 81.7246 31.8299C80.2496 30.9735 79.0839 29.784 78.2275 28.2614C77.3948 26.7151 76.9785 24.9308 76.9785 22.9087C76.9785 20.8865 77.3829 19.1142 78.1918 17.5916C79.0244 16.0453 80.1783 14.8558 81.6532 14.0231C83.152 13.1905 84.8649 12.7742 86.7919 12.7742C88.6475 12.7742 90.3009 13.1786 91.752 13.9875C93.2032 14.7963 94.3333 15.9382 95.1421 17.4132C95.951 18.8644 96.3554 20.5416 96.3554 22.4448ZM92.1089 21.1601C92.0851 19.6613 91.5498 18.46 90.5031 17.5559C89.4563 16.6519 88.1598 16.1999 86.6134 16.1999C85.2098 16.1999 84.0084 16.6519 83.0093 17.5559C82.0101 18.4362 81.4153 19.6376 81.225 21.1601H92.1089Z" fill="#CCA967"/>
<path d="M68.6698 32.7575L62.9603 22.8371H59.8557V32.7575H55.7876V7.95654H64.352C66.2552 7.95654 67.861 8.2896 69.1694 8.95572C70.5017 9.62184 71.4889 10.514 72.1313 11.6321C72.7974 12.7502 73.1304 13.9992 73.1304 15.379C73.1304 16.9967 72.6546 18.4717 71.703 19.8039C70.7752 21.1124 69.336 22.0045 67.3852 22.4803L73.523 32.7575H68.6698ZM59.8557 19.5898H64.352C65.8745 19.5898 67.0164 19.2092 67.7777 18.4479C68.5628 17.6866 68.9553 16.6637 68.9553 15.379C68.9553 14.0943 68.5747 13.0952 67.8134 12.3815C67.0521 11.644 65.8983 11.2752 64.352 11.2752H59.8557V19.5898Z" fill="#CCA967"/>
</svg>
