<svg width="176" height="48" viewBox="0 0 176 48" fill="none" xmlns="http://www.w3.org/2000/svg">
<path d="M18.2011 17.9039C21.2779 19.3368 24.4493 20.0479 27.1233 19.9073H27.172L27.3639 0.843492C27.3654 0.691983 27.3256 0.542929 27.2489 0.412287C27.1721 0.281644 27.0613 0.174331 26.9283 0.101836C26.7952 0.0293407 26.645 -0.00560778 26.4936 0.000731749C26.3422 0.00707128 26.1954 0.0544601 26.0689 0.137825L10.0332 10.9526C11.331 13.4319 14.3294 16.0978 18.2011 17.9039Z" fill="#9923AF"/>
<path d="M26.4639 21.7377C23.6656 21.7377 20.4942 20.9726 17.4363 19.545C13.2185 17.5794 10.0471 14.7757 8.51405 11.9746L0.370502 17.4767C0.229537 17.5711 0.120663 17.7062 0.058362 17.864C-0.00393914 18.0218 -0.0167138 18.1949 0.0217374 18.3601C0.0601885 18.5254 0.148043 18.675 0.273613 18.7891C0.399184 18.9032 0.556518 18.9764 0.724687 18.9989L14.4162 20.8617C15.221 20.9712 15.9588 21.3689 16.4927 21.981L25.5879 32.3822C25.6997 32.5095 25.8473 32.6 26.0115 32.6418C26.1757 32.6835 26.3487 32.6745 26.5077 32.6159C26.6666 32.5574 26.8041 32.452 26.902 32.3138C26.9999 32.1755 27.0536 32.0108 27.056 31.8414L27.1561 21.7215C26.9308 21.7323 26.7001 21.7377 26.4639 21.7377Z" fill="#9923AF"/>
<path d="M26.4621 20.2939C23.6638 20.2939 20.4923 19.5288 17.4344 18.1012C10.2426 14.7486 6.0789 8.95729 7.97149 4.91526C9.86408 0.873223 16.9613 0.340594 24.1531 3.69318C26.4145 4.72834 28.4964 6.11746 30.3203 7.80822C30.4949 7.9735 30.5967 8.20138 30.6033 8.44172C30.6099 8.68205 30.5207 8.91517 30.3554 9.08977C30.1902 9.26438 29.9623 9.36618 29.7219 9.37277C29.4816 9.37936 29.2485 9.29021 29.0739 9.12492C27.3941 7.57 25.4775 6.29229 23.3961 5.33974C17.3263 2.50896 11.0159 2.66848 9.60993 5.67229C8.20401 8.67611 12.1379 13.632 18.1996 16.4601C21.2764 17.893 24.4478 18.6068 27.1218 18.4635C29.6011 18.3337 31.3234 17.501 31.9695 16.114C32.6428 14.6675 31.9912 13.0155 31.3261 11.8854C31.2657 11.7828 31.2261 11.6693 31.2096 11.5514C31.1932 11.4335 31.2 11.3135 31.2299 11.1983C31.2598 11.083 31.3121 10.9748 31.3838 10.8798C31.4555 10.7847 31.5452 10.7048 31.6478 10.6444C31.7504 10.584 31.8639 10.5445 31.9818 10.528C32.0997 10.5115 32.2197 10.5184 32.3349 10.5483C32.5677 10.6086 32.7669 10.7589 32.8888 10.9661C34.1406 13.094 34.3975 15.1947 33.6134 16.8791C32.6698 18.9015 30.3987 20.1236 27.2164 20.275C26.9731 20.2885 26.719 20.2939 26.4621 20.2939Z" fill="#9923AF"/>
<path d="M176.002 18.2711C176.002 18.8715 175.964 19.4138 175.886 19.8979H163.656C163.753 21.1761 164.228 22.2025 165.08 22.9772C165.932 23.7518 166.978 24.1391 168.217 24.1391C169.999 24.1391 171.258 23.3935 171.994 21.9023H175.567C175.082 23.3742 174.201 24.5846 172.923 25.5335C171.664 26.4631 170.096 26.9279 168.217 26.9279C166.687 26.9279 165.312 26.589 164.092 25.9112C162.891 25.214 161.942 24.2457 161.245 23.0062C160.567 21.7474 160.229 20.2949 160.229 18.6488C160.229 17.0027 160.558 15.5599 161.216 14.3204C161.894 13.0616 162.833 12.0933 164.034 11.4155C165.254 10.7377 166.648 10.3987 168.217 10.3987C169.728 10.3987 171.074 10.728 172.255 11.3864C173.436 12.0449 174.356 12.9745 175.015 14.1752C175.673 15.3565 176.002 16.7218 176.002 18.2711ZM172.545 17.2254C172.526 16.0053 172.09 15.0273 171.238 14.2914C170.386 13.5554 169.331 13.1875 168.072 13.1875C166.929 13.1875 165.951 13.5554 165.138 14.2914C164.324 15.0079 163.84 15.9859 163.685 17.2254H172.545Z" fill="#9923AF"/>
<path d="M150.524 10.3987C151.783 10.3987 152.906 10.6602 153.894 11.1831C154.901 11.706 155.686 12.4806 156.247 13.507C156.828 14.5334 157.119 15.7729 157.119 17.2254V26.6664H153.836V17.7192C153.836 16.2861 153.478 15.1919 152.761 14.4366C152.045 13.662 151.067 13.2746 149.827 13.2746C148.588 13.2746 147.6 13.662 146.864 14.4366C146.148 15.1919 145.789 16.2861 145.789 17.7192V26.6664H142.507V17.7192C142.507 16.2861 142.148 15.1919 141.432 14.4366C140.715 13.662 139.737 13.2746 138.498 13.2746C137.259 13.2746 136.271 13.662 135.535 14.4366C134.818 15.1919 134.46 16.2861 134.46 17.7192V26.6664H131.148V10.6602H134.46V12.4903C135.002 11.8318 135.69 11.3186 136.523 10.9507C137.355 10.5827 138.246 10.3987 139.195 10.3987C140.473 10.3987 141.616 10.6699 142.623 11.2121C143.63 11.7544 144.405 12.5387 144.947 13.5651C145.431 12.5968 146.186 11.8318 147.213 11.2702C148.239 10.6892 149.343 10.3987 150.524 10.3987Z" fill="#9923AF"/>
<path d="M126.778 10.6602V26.6664H123.466V24.7782C122.943 25.4367 122.256 25.9596 121.403 26.3469C120.571 26.7148 119.68 26.8988 118.731 26.8988C117.472 26.8988 116.339 26.6374 115.332 26.1145C114.344 25.5916 113.56 24.817 112.979 23.7905C112.418 22.7641 112.137 21.5247 112.137 20.0722V10.6602H115.419V19.5784C115.419 21.0115 115.778 22.1154 116.494 22.89C117.211 23.6453 118.189 24.0229 119.428 24.0229C120.668 24.0229 121.646 23.6453 122.362 22.89C123.098 22.1154 123.466 21.0115 123.466 19.5784V10.6602H126.778Z" fill="#9923AF"/>
<path d="M109.781 10.6602L99.9624 34.1902H96.5346L99.7881 26.405L93.4844 10.6602H97.1737L101.676 22.861L106.353 10.6602H109.781Z" fill="#9923AF"/>
<path d="M84.6334 23.9648H91.8957V26.6664H80.7988V23.9648L88.0902 13.3618H80.7988V10.6602H91.8957V13.3618L84.6334 23.9648Z" fill="#9923AF"/>
<path d="M78.4399 18.2711C78.4399 18.8715 78.4011 19.4138 78.3237 19.8979H66.0939C66.1907 21.1761 66.6652 22.2025 67.5173 22.9772C68.3694 23.7518 69.4152 24.1391 70.6546 24.1391C72.4363 24.1391 73.6951 23.3935 74.431 21.9023H78.0041C77.52 23.3742 76.6388 24.5846 75.3606 25.5335C74.1018 26.4631 72.5331 26.9279 70.6546 26.9279C69.1247 26.9279 67.7497 26.589 66.5296 25.9112C65.3289 25.214 64.3799 24.2457 63.6827 23.0062C63.0049 21.7474 62.666 20.2949 62.666 18.6488C62.666 17.0027 62.9952 15.5599 63.6537 14.3204C64.3315 13.0616 65.2708 12.0933 66.4715 11.4155C67.6916 10.7377 69.0859 10.3987 70.6546 10.3987C72.1652 10.3987 73.5111 10.728 74.6925 11.3864C75.8738 12.0449 76.7937 12.9745 77.4522 14.1752C78.1106 15.3565 78.4399 16.7218 78.4399 18.2711ZM74.983 17.2254C74.9636 16.0053 74.5279 15.0273 73.6758 14.2914C72.8236 13.5554 71.7682 13.1875 70.5094 13.1875C69.3668 13.1875 68.3888 13.5554 67.5754 14.2914C66.762 15.0079 66.2778 15.9859 66.1229 17.2254H74.983Z" fill="#9923AF"/>
<path d="M55.9048 26.6665L51.2569 18.5907H48.7296V26.6665H45.418V6.47708H52.3898C53.9391 6.47708 55.2464 6.74821 56.3115 7.29047C57.396 7.83272 58.1997 8.55896 58.7226 9.46918C59.2649 10.3794 59.536 11.3961 59.536 12.5194C59.536 13.8363 59.1487 15.037 58.374 16.1215C57.6187 17.1866 56.4471 17.9129 54.859 18.3002L59.8555 26.6665H55.9048ZM48.7296 15.9472H52.3898C53.6293 15.9472 54.5589 15.6373 55.1786 15.0176C55.8177 14.3979 56.1372 13.5651 56.1372 12.5194C56.1372 11.4736 55.8274 10.6602 55.2076 10.0792C54.5879 9.47886 53.6486 9.17868 52.3898 9.17868H48.7296V15.9472Z" fill="#9923AF"/>
<path d="M120.028 35.7311V44.0951H118.936V40.3031H114.676V44.0951H113.584V35.7311H114.676V39.4031H118.936V35.7311H120.028ZM121.485 40.7831C121.485 40.1111 121.621 39.5231 121.893 39.0191C122.165 38.5071 122.537 38.1111 123.009 37.8311C123.489 37.5511 124.021 37.4111 124.605 37.4111C125.181 37.4111 125.681 37.5351 126.105 37.7831C126.529 38.0311 126.845 38.3431 127.053 38.7191V37.5191H128.157V44.0951H127.053V42.8711C126.837 43.2551 126.513 43.5751 126.081 43.8311C125.657 44.0791 125.161 44.2031 124.593 44.2031C124.009 44.2031 123.481 44.0591 123.009 43.7711C122.537 43.4831 122.165 43.0791 121.893 42.5591C121.621 42.0391 121.485 41.4471 121.485 40.7831ZM127.053 40.7951C127.053 40.2991 126.953 39.8671 126.753 39.4991C126.553 39.1311 126.281 38.8511 125.937 38.6591C125.601 38.4591 125.229 38.3591 124.821 38.3591C124.413 38.3591 124.041 38.4551 123.705 38.6471C123.369 38.8391 123.101 39.1191 122.901 39.4871C122.701 39.8551 122.601 40.2871 122.601 40.7831C122.601 41.2871 122.701 41.7271 122.901 42.1031C123.101 42.4711 123.369 42.7551 123.705 42.9551C124.041 43.1471 124.413 43.2431 124.821 43.2431C125.229 43.2431 125.601 43.1471 125.937 42.9551C126.281 42.7551 126.553 42.4711 126.753 42.1031C126.953 41.7271 127.053 41.2911 127.053 40.7951ZM130.566 36.4511C130.358 36.4511 130.182 36.3791 130.038 36.2351C129.894 36.0911 129.822 35.9151 129.822 35.7071C129.822 35.4991 129.894 35.3231 130.038 35.1791C130.182 35.0351 130.358 34.9631 130.566 34.9631C130.766 34.9631 130.934 35.0351 131.07 35.1791C131.214 35.3231 131.286 35.4991 131.286 35.7071C131.286 35.9151 131.214 36.0911 131.07 36.2351C130.934 36.3791 130.766 36.4511 130.566 36.4511ZM131.094 37.5191V44.0951H130.002V37.5191H131.094ZM134.047 38.5871C134.239 38.2111 134.511 37.9191 134.863 37.7111C135.223 37.5031 135.659 37.3991 136.171 37.3991V38.5271H135.883C134.659 38.5271 134.047 39.1911 134.047 40.5191V44.0951H132.955V37.5191H134.047V38.5871ZM141.723 36.6191V39.4151H144.771V40.3151H141.723V43.1951H145.131V44.0951H140.631V35.7191H145.131V36.6191H141.723ZM150.215 44.0951L148.655 41.6471L147.155 44.0951H146.015L148.139 40.8311L146.015 37.5191H147.251L148.811 39.9551L150.299 37.5191H151.439L149.327 40.7711L151.451 44.0951H150.215ZM153.618 38.7311C153.834 38.3551 154.154 38.0431 154.578 37.7951C155.01 37.5391 155.51 37.4111 156.078 37.4111C156.662 37.4111 157.19 37.5511 157.662 37.8311C158.142 38.1111 158.518 38.5071 158.79 39.0191C159.062 39.5231 159.198 40.1111 159.198 40.7831C159.198 41.4471 159.062 42.0391 158.79 42.5591C158.518 43.0791 158.142 43.4831 157.662 43.7711C157.19 44.0591 156.662 44.2031 156.078 44.2031C155.518 44.2031 155.022 44.0791 154.59 43.8311C154.166 43.5751 153.842 43.2591 153.618 42.8831V47.2151H152.526V37.5191H153.618V38.7311ZM158.082 40.7831C158.082 40.2871 157.982 39.8551 157.782 39.4871C157.582 39.1191 157.31 38.8391 156.966 38.6471C156.63 38.4551 156.258 38.3591 155.85 38.3591C155.45 38.3591 155.078 38.4591 154.734 38.6591C154.398 38.8511 154.126 39.1351 153.918 39.5111C153.718 39.8791 153.618 40.3071 153.618 40.7951C153.618 41.2911 153.718 41.7271 153.918 42.1031C154.126 42.4711 154.398 42.7551 154.734 42.9551C155.078 43.1471 155.45 43.2431 155.85 43.2431C156.258 43.2431 156.63 43.1471 156.966 42.9551C157.31 42.7551 157.582 42.4711 157.782 42.1031C157.982 41.7271 158.082 41.2871 158.082 40.7831ZM166.635 40.5551C166.635 40.7631 166.623 40.9831 166.599 41.2151H161.343C161.383 41.8631 161.603 42.3711 162.003 42.7391C162.411 43.0991 162.903 43.2791 163.479 43.2791C163.951 43.2791 164.343 43.1711 164.655 42.9551C164.975 42.7311 165.199 42.4351 165.327 42.0671H166.503C166.327 42.6991 165.975 43.2151 165.447 43.6151C164.919 44.0071 164.263 44.2031 163.479 44.2031C162.855 44.2031 162.295 44.0631 161.799 43.7831C161.311 43.5031 160.927 43.1071 160.647 42.5951C160.367 42.0751 160.227 41.4751 160.227 40.7951C160.227 40.1151 160.363 39.5191 160.635 39.0071C160.907 38.4951 161.287 38.1031 161.775 37.8311C162.271 37.5511 162.839 37.4111 163.479 37.4111C164.103 37.4111 164.655 37.5471 165.135 37.8191C165.615 38.0911 165.983 38.4671 166.239 38.9471C166.503 39.4191 166.635 39.9551 166.635 40.5551ZM165.507 40.3271C165.507 39.9111 165.415 39.5551 165.231 39.2591C165.047 38.9551 164.795 38.7271 164.475 38.5751C164.163 38.4151 163.815 38.3351 163.431 38.3351C162.879 38.3351 162.407 38.5111 162.015 38.8631C161.631 39.2151 161.411 39.7031 161.355 40.3271H165.507ZM169.168 38.5871C169.36 38.2111 169.632 37.9191 169.984 37.7111C170.344 37.5031 170.78 37.3991 171.292 37.3991V38.5271H171.004C169.78 38.5271 169.168 39.1911 169.168 40.5191V44.0951H168.076V37.5191H169.168V38.5871ZM173.885 38.4191V42.2951C173.885 42.6151 173.953 42.8431 174.089 42.9791C174.225 43.1071 174.461 43.1711 174.797 43.1711H175.601V44.0951H174.617C174.009 44.0951 173.553 43.9551 173.249 43.6751C172.945 43.3951 172.793 42.9351 172.793 42.2951V38.4191H171.941V37.5191H172.793V35.8631H173.885V37.5191H175.601V38.4191H173.885Z" fill="#4F4F4F"/>
</svg>
