<svg width="217" height="42" viewBox="0 0 217 42" fill="none" xmlns="http://www.w3.org/2000/svg">
<path d="M22.3578 21.9934C26.1374 23.7537 30.0333 24.6272 33.318 24.4545H33.3778L33.6136 1.03616C33.6154 0.850044 33.5665 0.666944 33.4723 0.50646C33.378 0.345977 33.2418 0.214152 33.0784 0.125097C32.915 0.0360426 32.7304 -0.00688869 32.5444 0.000898893C32.3585 0.00868648 32.1781 0.0668998 32.0227 0.169307L12.3242 13.4544C13.9184 16.5 17.6017 19.7748 22.3578 21.9934Z" fill="url(#paint0_linear_1183_1141)"/>
<path d="M32.5088 26.7036C29.0712 26.7036 25.1754 25.7637 21.419 24.01C16.2378 21.5955 12.342 18.1513 10.4588 14.7104L0.455131 21.4692C0.281968 21.5852 0.148225 21.7512 0.0716929 21.9451C-0.0048389 22.1389 -0.0205315 22.3515 0.0267025 22.5545C0.0739366 22.7575 0.181858 22.9413 0.336111 23.0815C0.490364 23.2216 0.683636 23.3115 0.890218 23.3391L17.7092 25.6275C18.6978 25.762 19.6041 26.2505 20.2599 27.0025L31.4327 39.7794C31.5699 39.9359 31.7513 40.047 31.953 40.0983C32.1547 40.1496 32.3672 40.1385 32.5625 40.0666C32.7578 39.9946 32.9267 39.8652 33.0469 39.6954C33.1672 39.5256 33.2331 39.3233 33.2361 39.1152L33.359 26.6836C33.0822 26.6969 32.7988 26.7036 32.5088 26.7036Z" fill="url(#paint1_linear_1183_1141)"/>
<path d="M32.5086 24.9293C29.071 24.9293 25.1752 23.9893 21.4188 22.2357C12.5842 18.1173 7.46947 11.0032 9.79436 6.03786C12.1193 1.07255 20.8376 0.418257 29.6722 4.53664C32.4501 5.80824 35.0075 7.51466 37.248 9.59162C37.4625 9.79466 37.5876 10.0746 37.5957 10.3698C37.6038 10.6651 37.4942 10.9514 37.2912 11.1659C37.0882 11.3804 36.8082 11.5054 36.513 11.5135C36.2178 11.5216 35.9314 11.4121 35.7169 11.2091C33.6534 9.29898 31.2991 7.72943 28.7422 6.5593C21.286 3.08192 13.5341 3.27788 11.8071 6.96781C10.08 10.6577 14.9124 16.7456 22.3587 20.2197C26.1384 21.98 30.0342 22.8568 33.319 22.6808C36.3646 22.5213 38.4802 21.4984 39.274 19.7946C40.101 18.0177 39.3006 15.9884 38.4835 14.6001C38.4094 14.4741 38.3608 14.3346 38.3405 14.1898C38.3203 14.045 38.3287 13.8976 38.3654 13.756C38.4021 13.6145 38.4663 13.4815 38.5544 13.3648C38.6425 13.248 38.7527 13.1498 38.8788 13.0756C39.0048 13.0015 39.1442 12.9529 39.2891 12.9326C39.4339 12.9124 39.5813 12.9208 39.7229 12.9575C40.0087 13.0316 40.2535 13.2163 40.4032 13.4709C41.941 16.0847 42.2565 18.6653 41.2933 20.7345C40.1342 23.2188 37.3443 24.72 33.4352 24.906C33.1363 24.9226 32.8241 24.9293 32.5086 24.9293Z" fill="url(#paint2_linear_1183_1141)"/>
<path d="M216.201 22.445C216.201 23.1825 216.154 23.8486 216.058 24.4434H201.035C201.154 26.0135 201.737 27.2744 202.784 28.226C203.83 29.1776 205.115 29.6534 206.638 29.6534C208.826 29.6534 210.373 28.7374 211.277 26.9056H215.666C215.071 28.7137 213.989 30.2005 212.419 31.3662C210.872 32.5081 208.945 33.0791 206.638 33.0791C204.758 33.0791 203.069 32.6628 201.57 31.8301C200.095 30.9737 198.93 29.7842 198.073 28.2616C197.241 26.7153 196.824 24.9311 196.824 22.9089C196.824 20.8868 197.229 19.1144 198.038 17.5919C198.87 16.0455 200.024 14.856 201.499 14.0234C202.998 13.1907 204.711 12.7744 206.638 12.7744C208.493 12.7744 210.147 13.1788 211.598 13.9877C213.049 14.7966 214.179 15.9385 214.988 17.4134C215.797 18.8646 216.201 20.5418 216.201 22.445ZM211.955 21.1604C211.931 19.6616 211.396 18.4602 210.349 17.5562C209.302 16.6522 208.005 16.2002 206.459 16.2002C205.056 16.2002 203.854 16.6522 202.855 17.5562C201.856 18.4364 201.261 19.6378 201.071 21.1604H211.955Z" fill="url(#paint3_linear_1183_1141)"/>
<path d="M184.903 12.7744C186.45 12.7744 187.83 13.0956 189.043 13.7379C190.28 14.3802 191.243 15.3318 191.933 16.5927C192.647 17.8536 193.004 19.3761 193.004 21.1604V32.7579H188.971V21.767C188.971 20.0065 188.531 18.6624 187.651 17.7346C186.771 16.783 185.569 16.3072 184.047 16.3072C182.524 16.3072 181.311 16.783 180.407 17.7346C179.527 18.6624 179.087 20.0065 179.087 21.767V32.7579H175.054V21.767C175.054 20.0065 174.614 18.6624 173.734 17.7346C172.854 16.783 171.652 16.3072 170.13 16.3072C168.607 16.3072 167.394 16.783 166.49 17.7346C165.61 18.6624 165.17 20.0065 165.17 21.767V32.7579H161.102V13.0956H165.17V15.3437C165.836 14.5349 166.68 13.9044 167.703 13.4524C168.726 13.0004 169.821 12.7744 170.986 12.7744C172.556 12.7744 173.96 13.1075 175.197 13.7736C176.434 14.4397 177.386 15.4032 178.052 16.6641C178.647 15.4746 179.574 14.5349 180.835 13.845C182.096 13.1313 183.452 12.7744 184.903 12.7744Z" fill="url(#paint4_linear_1183_1141)"/>
<path d="M155.735 13.0952V32.7576H151.667V30.4381C151.025 31.2469 150.18 31.8892 149.133 32.365C148.111 32.8171 147.016 33.0431 145.85 33.0431C144.304 33.0431 142.912 32.7219 141.675 32.0796C140.462 31.4372 139.499 30.4856 138.785 29.2248C138.095 27.9639 137.75 26.4414 137.75 24.6571V13.0952H141.782V24.0505C141.782 25.8109 142.223 27.1669 143.103 28.1185C143.983 29.0463 145.184 29.5103 146.707 29.5103C148.229 29.5103 149.431 29.0463 150.311 28.1185C151.215 27.1669 151.667 25.8109 151.667 24.0505V13.0952H155.735Z" fill="url(#paint5_linear_1183_1141)"/>
<path d="M134.855 13.0952L122.794 42H118.583L122.58 32.4364L114.836 13.0952H119.368L124.899 28.0829L130.644 13.0952H134.855Z" fill="url(#paint6_linear_1183_1141)"/>
<path d="M103.964 29.4389H112.886V32.7576H99.2539V29.4389L108.211 16.4139H99.2539V13.0952H112.886V16.4139L103.964 29.4389Z" fill="url(#paint7_linear_1183_1141)"/>
<path d="M96.3574 22.445C96.3574 23.1825 96.3098 23.8486 96.2146 24.4434H81.1913C81.3102 26.0135 81.8931 27.2744 82.9398 28.226C83.9866 29.1776 85.2713 29.6534 86.7938 29.6534C88.9825 29.6534 90.5288 28.7374 91.4328 26.9056H95.8221C95.2273 28.7137 94.1449 30.2005 92.5748 31.3662C91.0284 32.5081 89.1014 33.0791 86.7938 33.0791C84.9144 33.0791 83.2253 32.6628 81.7266 31.8301C80.2516 30.9737 79.0859 29.7842 78.2294 28.2616C77.3968 26.7153 76.9805 24.9311 76.9805 22.9089C76.9805 20.8868 77.3849 19.1144 78.1938 17.5919C79.0264 16.0455 80.1802 14.856 81.6552 14.0234C83.154 13.1907 84.8668 12.7744 86.7938 12.7744C88.6494 12.7744 90.3028 13.1788 91.754 13.9877C93.2052 14.7966 94.3352 15.9385 95.1441 17.4134C95.9529 18.8646 96.3574 20.5418 96.3574 22.445ZM92.1109 21.1604C92.0871 19.6616 91.5518 18.4602 90.505 17.5562C89.4583 16.6522 88.1617 16.2002 86.6154 16.2002C85.2118 16.2002 84.0104 16.6522 83.0112 17.5562C82.012 18.4364 81.4173 19.6378 81.227 21.1604H92.1109Z" fill="url(#paint8_linear_1183_1141)"/>
<path d="M68.6713 32.7575L62.9617 22.8371H59.8571V32.7575H55.7891V7.95654H64.3534C66.2566 7.95654 67.8624 8.2896 69.1709 8.95572C70.5031 9.62184 71.4904 10.514 72.1327 11.6321C72.7988 12.7502 73.1319 13.9992 73.1319 15.379C73.1319 16.9967 72.6561 18.4717 71.7045 19.8039C70.7767 21.1124 69.3374 22.0045 67.3866 22.4803L73.5244 32.7575H68.6713ZM59.8571 19.5898H64.3534C65.876 19.5898 67.0179 19.2092 67.7792 18.4479C68.5642 17.6866 68.9568 16.6637 68.9568 15.379C68.9568 14.0943 68.5761 13.0952 67.8149 12.3815C67.0536 11.644 65.8998 11.2752 64.3534 11.2752H59.8571V19.5898Z" fill="url(#paint9_linear_1183_1141)"/>
<defs>
<linearGradient id="paint0_linear_1183_1141" x1="22.9689" y1="16.0431" x2="22.9689" y2="29.9265" gradientUnits="userSpaceOnUse">
<stop stop-color="#C17CF0"/>
<stop offset="1" stop-color="#8471D6"/>
</linearGradient>
<linearGradient id="paint1_linear_1183_1141" x1="16.6795" y1="31.372" x2="16.6795" y2="45.7907" gradientUnits="userSpaceOnUse">
<stop stop-color="#C17CF0"/>
<stop offset="1" stop-color="#8471D6"/>
</linearGradient>
<linearGradient id="paint2_linear_1183_1141" x1="25.5374" y1="16.9717" x2="25.5374" y2="30.0726" gradientUnits="userSpaceOnUse">
<stop stop-color="#C17CF0"/>
<stop offset="1" stop-color="#8471D6"/>
</linearGradient>
<linearGradient id="paint3_linear_1183_1141" x1="206.513" y1="26.0834" x2="206.513" y2="37.6007" gradientUnits="userSpaceOnUse">
<stop stop-color="#C17CF0"/>
<stop offset="1" stop-color="#8471D6"/>
</linearGradient>
<linearGradient id="paint4_linear_1183_1141" x1="177.053" y1="25.8729" x2="177.053" y2="37.208" gradientUnits="userSpaceOnUse">
<stop stop-color="#C17CF0"/>
<stop offset="1" stop-color="#8471D6"/>
</linearGradient>
<linearGradient id="paint5_linear_1183_1141" x1="146.743" y1="26.1703" x2="146.743" y2="37.4852" gradientUnits="userSpaceOnUse">
<stop stop-color="#C17CF0"/>
<stop offset="1" stop-color="#8471D6"/>
</linearGradient>
<linearGradient id="paint6_linear_1183_1141" x1="124.846" y1="32.0412" x2="124.846" y2="48.4367" gradientUnits="userSpaceOnUse">
<stop stop-color="#C17CF0"/>
<stop offset="1" stop-color="#8471D6"/>
</linearGradient>
<linearGradient id="paint7_linear_1183_1141" x1="106.07" y1="25.9831" x2="106.07" y2="37.1362" gradientUnits="userSpaceOnUse">
<stop stop-color="#C17CF0"/>
<stop offset="1" stop-color="#8471D6"/>
</linearGradient>
<linearGradient id="paint8_linear_1183_1141" x1="86.6689" y1="26.0834" x2="86.6689" y2="37.6007" gradientUnits="userSpaceOnUse">
<stop stop-color="#C17CF0"/>
<stop offset="1" stop-color="#8471D6"/>
</linearGradient>
<linearGradient id="paint9_linear_1183_1141" x1="64.6568" y1="24.2126" x2="64.6568" y2="38.2804" gradientUnits="userSpaceOnUse">
<stop stop-color="#C17CF0"/>
<stop offset="1" stop-color="#8471D6"/>
</linearGradient>
</defs>
</svg>
