<svg width="168" height="48" viewBox="0 0 168 48" fill="none" xmlns="http://www.w3.org/2000/svg">
<path d="M9.55859 11.2077C10.9934 13.8293 13.9616 16.454 17.9092 18.2936C20.7711 19.6296 23.7394 20.3454 26.3584 20.3454C26.5793 20.3454 26.7951 20.3409 27.0059 20.3307L26.9121 29.8024C26.9098 29.9607 26.86 30.1146 26.7686 30.2438C26.677 30.3732 26.5481 30.4722 26.3994 30.527C26.2506 30.5818 26.0882 30.5905 25.9346 30.5515C25.781 30.5124 25.6426 30.4274 25.5381 30.3083L17.0254 20.5729C16.5258 20.0002 15.8351 19.6285 15.082 19.5261L2.26758 17.7819C2.11032 17.7608 1.96314 17.6923 1.8457 17.5856C1.72824 17.4789 1.64633 17.3389 1.61035 17.1843C1.57438 17.0297 1.58631 16.868 1.64453 16.7204C1.70284 16.5727 1.80459 16.4455 1.93652 16.3571L9.55859 11.2077ZM97.125 17.653L101.502 6.23407H104.711L95.5205 28.2565H92.3125L95.3574 20.9704L89.458 6.23407H92.9111L97.125 17.653ZM68.0908 5.98895C69.5046 5.98895 70.7645 6.29749 71.8701 6.91376C72.9757 7.53003 73.8369 8.40035 74.4531 9.52411C75.0693 10.6296 75.3769 11.9073 75.377 13.3571C75.377 13.9188 75.341 14.4265 75.2686 14.8796H63.8223C63.9129 16.0759 64.3568 17.0374 65.1543 17.7624C65.9518 18.4873 66.9308 18.8493 68.0908 18.8493C69.7584 18.8493 70.9362 18.1512 71.625 16.7556H74.9697C74.5166 18.1331 73.6914 19.2668 72.4951 20.155C71.317 21.0248 69.8488 21.4597 68.0908 21.4597C66.6591 21.4597 65.3723 21.1427 64.2305 20.5085C63.1067 19.856 62.218 18.9488 61.5654 17.7888C60.9312 16.6107 60.6143 15.2512 60.6143 13.7106C60.6143 12.1701 60.9219 10.8198 61.5381 9.65985C62.1725 8.48168 63.052 7.5755 64.1758 6.9411C65.3177 6.30671 66.6227 5.98895 68.0908 5.98895ZM159.4 5.98895C160.814 5.98895 162.074 6.29753 163.18 6.91376C164.285 7.53003 165.146 8.40032 165.763 9.52411C166.379 10.6297 166.687 11.9073 166.688 13.3571C166.688 13.9189 166.651 14.4265 166.578 14.8796H155.132C155.222 16.0759 155.666 17.0374 156.464 17.7624C157.261 18.4874 158.24 18.8492 159.4 18.8493C161.068 18.8493 162.247 18.1512 162.936 16.7556H166.279C165.826 18.1331 165.002 19.2668 163.806 20.155C162.628 21.025 161.159 21.4597 159.4 21.4597C157.969 21.4596 156.682 21.1427 155.54 20.5085C154.416 19.856 153.528 18.9488 152.875 17.7888C152.241 16.6107 151.924 15.2511 151.924 13.7106C151.924 12.1701 152.232 10.8198 152.849 9.65985C153.483 8.48181 154.362 7.57547 155.485 6.9411C156.627 6.30674 157.932 5.98899 159.4 5.98895ZM109.986 14.5807C109.986 15.922 110.322 16.9553 110.992 17.6804C111.663 18.3873 112.578 18.7409 113.738 18.7409C114.898 18.7409 115.814 18.3873 116.484 17.6804C117.173 16.9553 117.518 15.922 117.518 14.5807V6.23407H120.617V21.2145H117.518V19.4479C117.028 20.0641 116.384 20.5532 115.587 20.9157C114.808 21.26 113.974 21.4323 113.086 21.4323C111.908 21.4323 110.847 21.1873 109.904 20.6979C108.98 20.2085 108.246 19.4836 107.702 18.5231C107.177 17.5625 106.914 16.402 106.914 15.0427V6.23407H109.986V14.5807ZM50.9941 2.31903C52.4439 2.31907 53.6673 2.5724 54.6641 3.07977C55.679 3.58722 56.4315 4.2671 56.9209 5.11884C57.4284 5.97074 57.6826 6.92302 57.6826 7.9743C57.6826 9.20673 57.3197 10.3304 56.5947 11.3454C55.8878 12.3423 54.791 13.0219 53.3047 13.3845L57.9814 21.2145H54.2832L49.9336 13.6569H47.5684V21.2145H44.4688V2.31903H50.9941ZM87.9707 8.76239L81.1729 18.6862H87.9707V21.2145H77.584V18.6862L84.4082 8.76239H77.584V6.23407H87.9707V8.76239ZM142.841 5.98895C144.019 5.98895 145.071 6.23394 145.995 6.72333C146.937 7.21268 147.672 7.93765 148.197 8.89813C148.741 9.85878 149.013 11.0192 149.013 12.3786V21.2145H145.94V12.8405C145.94 11.4994 145.605 10.4751 144.935 9.76825C144.264 9.0433 143.348 8.68135 142.188 8.68134C141.028 8.68134 140.104 9.04328 139.415 9.76825C138.744 10.4751 138.409 11.4994 138.409 12.8405V21.2145H135.337V12.8405C135.337 11.4994 135.002 10.4751 134.331 9.76825C133.66 9.0433 132.745 8.68135 131.585 8.68134C130.425 8.68134 129.5 9.04328 128.812 9.76825C128.141 10.4751 127.806 11.4994 127.806 12.8405V21.2145H124.706V6.23407H127.806V7.94696C128.313 7.33069 128.957 6.84994 129.736 6.50555C130.516 6.16129 131.349 5.98897 132.237 5.98895C133.434 5.98895 134.503 6.24324 135.445 6.75067C136.388 7.25819 137.114 7.99216 137.621 8.95282C138.074 8.04673 138.781 7.33095 139.741 6.80536C140.702 6.26161 141.735 5.98897 142.841 5.98895ZM26.3867 0.000671387C26.5282 -0.00522425 26.6686 0.0277455 26.793 0.0953979C26.9175 0.163249 27.0219 0.26414 27.0938 0.386414C27.1655 0.508603 27.2025 0.648054 27.2012 0.789734L27.1572 5.10126C28.1513 5.75834 29.0921 6.49567 29.9688 7.30829C30.1321 7.46293 30.2281 7.67621 30.2344 7.90106C30.2405 8.12596 30.1566 8.3441 30.002 8.50751C29.8473 8.67093 29.6341 8.76696 29.4092 8.77313C29.1843 8.77929 28.9661 8.69539 28.8027 8.54071C28.272 8.0494 27.7154 7.58834 27.1367 7.1579L27.0342 17.2761C29.3232 17.1446 30.913 16.3689 31.5127 15.0817C32.1426 13.728 31.5326 12.1824 30.9102 11.1247C30.8537 11.0288 30.8172 10.9224 30.8018 10.8122C30.7863 10.7018 30.7924 10.589 30.8203 10.4811C30.8483 10.3733 30.8977 10.2722 30.9648 10.1833C31.0319 10.0944 31.1159 10.0191 31.2119 9.96259C31.3079 9.90619 31.4142 9.86961 31.5244 9.85419C31.6346 9.83877 31.7468 9.84486 31.8545 9.87274C32.0723 9.92921 32.259 10.0704 32.373 10.2643C33.5446 12.2558 33.7856 14.2221 33.0518 15.7985C32.1686 17.6912 30.0427 18.8345 27.0645 18.9763C26.8368 18.9889 26.5987 18.9938 26.3584 18.9938C23.7394 18.9938 20.7711 18.2781 17.9092 16.9421C11.1781 13.8043 7.28041 8.38338 9.05176 4.60028C10.6521 1.18291 16.2281 0.446302 22.2529 2.64911L25.9893 0.129578C26.1077 0.0515667 26.245 0.00660423 26.3867 0.000671387ZM67.9551 8.5993C66.8857 8.5993 65.9702 8.94381 65.209 9.63251C64.4477 10.3031 63.9946 11.2186 63.8496 12.3786H72.1416C72.1235 11.2367 71.7155 10.3213 70.918 9.63251C70.1205 8.94395 69.133 8.59935 67.9551 8.5993ZM159.265 8.5993C158.195 8.59932 157.28 8.94375 156.519 9.63251C155.757 10.3032 155.304 11.2186 155.159 12.3786H163.452C163.434 11.2367 163.026 10.3213 162.229 9.63251C161.431 8.94373 160.443 8.5993 159.265 8.5993ZM47.5684 11.1823H50.9941C52.1539 11.1823 53.0235 10.8921 53.6035 10.3122C54.2016 9.73221 54.5009 8.953 54.501 7.9743C54.501 6.99552 54.2109 6.2339 53.6309 5.69012C53.0509 5.1284 52.172 4.8474 50.9941 4.84735H47.5684V11.1823ZM20.4678 3.85223C15.8547 2.4871 11.6683 2.99719 10.5859 5.30927C9.99492 6.572 10.4134 8.20225 11.5664 9.85614L20.4678 3.85223Z" fill="url(#paint0_linear_3684_26)"/>
<path d="M83.1207 45.0007V36.6727H83.9127L87.4407 42.4687H86.9007L90.4287 36.6727H91.2207V45.0007H90.0927V38.6527L90.3567 38.7247L87.5727 43.2967H86.7807L83.9967 38.7247L84.2487 38.6527V45.0007H83.1207ZM95.5991 45.1207C95.0391 45.1207 94.5351 44.9887 94.0871 44.7247C93.6391 44.4607 93.2831 44.1047 93.0191 43.6567C92.7551 43.2007 92.6231 42.6927 92.6231 42.1327C92.6231 41.5807 92.7551 41.0847 93.0191 40.6447C93.2831 40.1967 93.6391 39.8407 94.0871 39.5767C94.5351 39.3127 95.0391 39.1807 95.5991 39.1807C96.1511 39.1807 96.6511 39.3127 97.0991 39.5767C97.5551 39.8327 97.9151 40.1847 98.1791 40.6327C98.4431 41.0807 98.5751 41.5807 98.5751 42.1327C98.5751 42.6927 98.4431 43.2007 98.1791 43.6567C97.9151 44.1047 97.5551 44.4607 97.0991 44.7247C96.6511 44.9887 96.1511 45.1207 95.5991 45.1207ZM95.5991 44.0767C95.9591 44.0767 96.2791 43.9927 96.5591 43.8247C96.8391 43.6567 97.0591 43.4287 97.2191 43.1407C97.3791 42.8447 97.4591 42.5087 97.4591 42.1327C97.4591 41.7647 97.3751 41.4367 97.2071 41.1487C97.0471 40.8607 96.8271 40.6367 96.5471 40.4767C96.2751 40.3087 95.9591 40.2247 95.5991 40.2247C95.2391 40.2247 94.9191 40.3087 94.6391 40.4767C94.3591 40.6367 94.1391 40.8607 93.9791 41.1487C93.8191 41.4367 93.7391 41.7647 93.7391 42.1327C93.7391 42.5087 93.8191 42.8447 93.9791 43.1407C94.1391 43.4287 94.3591 43.6567 94.6391 43.8247C94.9191 43.9927 95.2391 44.0767 95.5991 44.0767ZM100.492 45.0007V36.9127H101.572V45.0007H100.492ZM99.0882 40.2847V39.3007H102.976V40.2847H99.0882ZM104.046 45.0007V39.3007H105.126V45.0007H104.046ZM104.586 38.1607C104.386 38.1607 104.222 38.0967 104.094 37.9687C103.966 37.8327 103.902 37.6647 103.902 37.4647C103.902 37.2727 103.966 37.1127 104.094 36.9847C104.222 36.8487 104.386 36.7807 104.586 36.7807C104.786 36.7807 104.95 36.8487 105.078 36.9847C105.206 37.1127 105.27 37.2727 105.27 37.4647C105.27 37.6647 105.206 37.8327 105.078 37.9687C104.95 38.0967 104.786 38.1607 104.586 38.1607ZM109.322 45.1207C108.762 45.1207 108.258 44.9887 107.81 44.7247C107.362 44.4607 107.006 44.1047 106.742 43.6567C106.478 43.2007 106.346 42.6927 106.346 42.1327C106.346 41.5807 106.478 41.0847 106.742 40.6447C107.006 40.1967 107.362 39.8407 107.81 39.5767C108.258 39.3127 108.762 39.1807 109.322 39.1807C109.874 39.1807 110.374 39.3127 110.822 39.5767C111.278 39.8327 111.638 40.1847 111.902 40.6327C112.166 41.0807 112.298 41.5807 112.298 42.1327C112.298 42.6927 112.166 43.2007 111.902 43.6567C111.638 44.1047 111.278 44.4607 110.822 44.7247C110.374 44.9887 109.874 45.1207 109.322 45.1207ZM109.322 44.0767C109.682 44.0767 110.002 43.9927 110.282 43.8247C110.562 43.6567 110.782 43.4287 110.942 43.1407C111.102 42.8447 111.182 42.5087 111.182 42.1327C111.182 41.7647 111.098 41.4367 110.93 41.1487C110.77 40.8607 110.55 40.6367 110.27 40.4767C109.998 40.3087 109.682 40.2247 109.322 40.2247C108.962 40.2247 108.642 40.3087 108.362 40.4767C108.082 40.6367 107.862 40.8607 107.702 41.1487C107.542 41.4367 107.462 41.7647 107.462 42.1327C107.462 42.5087 107.542 42.8447 107.702 43.1407C107.862 43.4287 108.082 43.6567 108.362 43.8247C108.642 43.9927 108.962 44.0767 109.322 44.0767ZM117.547 45.0007V41.6767C117.547 41.2447 117.411 40.8887 117.139 40.6087C116.867 40.3287 116.515 40.1887 116.083 40.1887C115.795 40.1887 115.539 40.2527 115.315 40.3807C115.091 40.5087 114.915 40.6847 114.787 40.9087C114.659 41.1327 114.595 41.3887 114.595 41.6767L114.151 41.4247C114.151 40.9927 114.247 40.6087 114.439 40.2727C114.631 39.9367 114.899 39.6727 115.243 39.4807C115.587 39.2807 115.975 39.1807 116.407 39.1807C116.839 39.1807 117.219 39.2887 117.547 39.5047C117.883 39.7207 118.147 40.0047 118.339 40.3567C118.531 40.7007 118.627 41.0687 118.627 41.4607V45.0007H117.547ZM113.515 45.0007V39.3007H114.595V45.0007H113.515ZM124.997 45.1207C124.469 45.1207 123.997 44.9927 123.581 44.7367C123.165 44.4727 122.833 44.1167 122.585 43.6687C122.345 43.2207 122.225 42.7167 122.225 42.1567C122.225 41.5967 122.345 41.0927 122.585 40.6447C122.833 40.1967 123.165 39.8407 123.581 39.5767C123.997 39.3127 124.469 39.1807 124.997 39.1807C125.421 39.1807 125.805 39.2727 126.149 39.4567C126.493 39.6327 126.769 39.8807 126.977 40.2007C127.193 40.5127 127.313 40.8767 127.337 41.2927V43.0087C127.313 43.4167 127.197 43.7807 126.989 44.1007C126.781 44.4207 126.505 44.6727 126.161 44.8567C125.817 45.0327 125.429 45.1207 124.997 45.1207ZM125.177 44.1007C125.537 44.1007 125.849 44.0167 126.113 43.8487C126.385 43.6807 126.597 43.4527 126.749 43.1647C126.901 42.8687 126.977 42.5327 126.977 42.1567C126.977 41.7647 126.897 41.4247 126.737 41.1367C126.585 40.8487 126.373 40.6207 126.101 40.4527C125.837 40.2847 125.525 40.2007 125.165 40.2007C124.805 40.2007 124.489 40.2847 124.217 40.4527C123.945 40.6207 123.729 40.8527 123.569 41.1487C123.417 41.4367 123.341 41.7687 123.341 42.1447C123.341 42.5287 123.417 42.8687 123.569 43.1647C123.729 43.4527 123.945 43.6807 124.217 43.8487C124.497 44.0167 124.817 44.1007 125.177 44.1007ZM127.997 45.0007H126.905V43.4647L127.109 42.0727L126.905 40.6927V36.4327H127.997V45.0007ZM132.209 45.1207C131.641 45.1207 131.129 44.9927 130.673 44.7367C130.217 44.4727 129.857 44.1167 129.593 43.6687C129.329 43.2207 129.197 42.7127 129.197 42.1447C129.197 41.5847 129.325 41.0807 129.581 40.6327C129.845 40.1847 130.197 39.8327 130.637 39.5767C131.085 39.3127 131.585 39.1807 132.137 39.1807C132.665 39.1807 133.129 39.3007 133.529 39.5407C133.937 39.7807 134.253 40.1127 134.477 40.5367C134.709 40.9607 134.825 41.4407 134.825 41.9767C134.825 42.0567 134.821 42.1447 134.813 42.2407C134.805 42.3287 134.789 42.4327 134.765 42.5527H129.953V41.6527H134.189L133.793 42.0007C133.793 41.6167 133.725 41.2927 133.589 41.0287C133.453 40.7567 133.261 40.5487 133.013 40.4047C132.765 40.2527 132.465 40.1767 132.113 40.1767C131.745 40.1767 131.421 40.2567 131.141 40.4167C130.861 40.5767 130.645 40.8007 130.493 41.0887C130.341 41.3767 130.265 41.7167 130.265 42.1087C130.265 42.5087 130.345 42.8607 130.505 43.1647C130.665 43.4607 130.893 43.6927 131.189 43.8607C131.485 44.0207 131.825 44.1007 132.209 44.1007C132.529 44.1007 132.821 44.0447 133.085 43.9327C133.357 43.8207 133.589 43.6527 133.781 43.4287L134.477 44.1367C134.205 44.4567 133.869 44.7007 133.469 44.8687C133.077 45.0367 132.657 45.1207 132.209 45.1207ZM137.815 45.1207C137.495 45.1207 137.191 45.0807 136.903 45.0007C136.623 44.9127 136.363 44.7927 136.123 44.6407C135.883 44.4807 135.675 44.2927 135.499 44.0767L136.195 43.3807C136.403 43.6367 136.643 43.8287 136.915 43.9567C137.187 44.0767 137.491 44.1367 137.827 44.1367C138.163 44.1367 138.423 44.0807 138.607 43.9687C138.791 43.8487 138.883 43.6847 138.883 43.4767C138.883 43.2687 138.807 43.1087 138.655 42.9967C138.511 42.8767 138.323 42.7807 138.091 42.7087C137.859 42.6287 137.611 42.5527 137.347 42.4807C137.091 42.4007 136.847 42.3007 136.615 42.1807C136.383 42.0607 136.191 41.8967 136.039 41.6887C135.895 41.4807 135.823 41.2047 135.823 40.8607C135.823 40.5167 135.907 40.2207 136.075 39.9727C136.243 39.7167 136.475 39.5207 136.771 39.3847C137.075 39.2487 137.439 39.1807 137.863 39.1807C138.311 39.1807 138.707 39.2607 139.051 39.4207C139.403 39.5727 139.691 39.8047 139.915 40.1167L139.219 40.8127C139.059 40.6047 138.859 40.4447 138.619 40.3327C138.387 40.2207 138.123 40.1647 137.827 40.1647C137.515 40.1647 137.275 40.2207 137.107 40.3327C136.947 40.4367 136.867 40.5847 136.867 40.7767C136.867 40.9687 136.939 41.1167 137.083 41.2207C137.227 41.3247 137.415 41.4127 137.647 41.4847C137.887 41.5567 138.135 41.6327 138.391 41.7127C138.647 41.7847 138.891 41.8847 139.123 42.0127C139.355 42.1407 139.543 42.3127 139.687 42.5287C139.839 42.7447 139.915 43.0287 139.915 43.3807C139.915 43.9167 139.723 44.3407 139.339 44.6527C138.963 44.9647 138.455 45.1207 137.815 45.1207ZM141.136 45.0007V39.3007H142.216V45.0007H141.136ZM141.676 38.1607C141.476 38.1607 141.312 38.0967 141.184 37.9687C141.056 37.8327 140.992 37.6647 140.992 37.4647C140.992 37.2727 141.056 37.1127 141.184 36.9847C141.312 36.8487 141.476 36.7807 141.676 36.7807C141.876 36.7807 142.04 36.8487 142.168 36.9847C142.296 37.1127 142.36 37.2727 142.36 37.4647C142.36 37.6647 142.296 37.8327 142.168 37.9687C142.04 38.0967 141.876 38.1607 141.676 38.1607ZM146.172 47.5087C145.588 47.5087 145.068 47.4007 144.612 47.1847C144.164 46.9687 143.804 46.6647 143.532 46.2727L144.228 45.5647C144.46 45.8607 144.736 46.0847 145.056 46.2367C145.376 46.3967 145.756 46.4767 146.196 46.4767C146.78 46.4767 147.24 46.3207 147.576 46.0087C147.92 45.7047 148.092 45.2927 148.092 44.7727V43.3567L148.284 42.0727L148.092 40.8007V39.3007H149.172V44.7727C149.172 45.3167 149.044 45.7927 148.788 46.2007C148.54 46.6087 148.188 46.9287 147.732 47.1607C147.284 47.3927 146.764 47.5087 146.172 47.5087ZM146.172 44.9047C145.652 44.9047 145.184 44.7807 144.768 44.5327C144.36 44.2847 144.036 43.9447 143.796 43.5127C143.556 43.0727 143.436 42.5807 143.436 42.0367C143.436 41.4927 143.556 41.0087 143.796 40.5847C144.036 40.1527 144.36 39.8127 144.768 39.5647C145.184 39.3087 145.652 39.1807 146.172 39.1807C146.62 39.1807 147.016 39.2687 147.36 39.4447C147.704 39.6207 147.976 39.8687 148.176 40.1887C148.384 40.5007 148.496 40.8687 148.512 41.2927V42.8047C148.488 43.2207 148.372 43.5887 148.164 43.9087C147.964 44.2207 147.692 44.4647 147.348 44.6407C147.004 44.8167 146.612 44.9047 146.172 44.9047ZM146.388 43.8847C146.74 43.8847 147.048 43.8087 147.312 43.6567C147.584 43.5047 147.792 43.2927 147.936 43.0207C148.08 42.7407 148.152 42.4167 148.152 42.0487C148.152 41.6807 148.076 41.3607 147.924 41.0887C147.78 40.8087 147.576 40.5927 147.312 40.4407C147.048 40.2807 146.736 40.2007 146.376 40.2007C146.016 40.2007 145.7 40.2807 145.428 40.4407C145.156 40.5927 144.94 40.8087 144.78 41.0887C144.628 41.3607 144.552 41.6767 144.552 42.0367C144.552 42.3967 144.628 42.7167 144.78 42.9967C144.94 43.2767 145.156 43.4967 145.428 43.6567C145.708 43.8087 146.028 43.8847 146.388 43.8847ZM154.789 45.0007V41.6767C154.789 41.2447 154.653 40.8887 154.381 40.6087C154.109 40.3287 153.757 40.1887 153.325 40.1887C153.037 40.1887 152.781 40.2527 152.557 40.3807C152.333 40.5087 152.157 40.6847 152.029 40.9087C151.901 41.1327 151.837 41.3887 151.837 41.6767L151.393 41.4247C151.393 40.9927 151.489 40.6087 151.681 40.2727C151.873 39.9367 152.141 39.6727 152.485 39.4807C152.829 39.2807 153.217 39.1807 153.649 39.1807C154.081 39.1807 154.461 39.2887 154.789 39.5047C155.125 39.7207 155.389 40.0047 155.581 40.3567C155.773 40.7007 155.869 41.0687 155.869 41.4607V45.0007H154.789ZM150.757 45.0007V39.3007H151.837V45.0007H150.757ZM159.971 45.1207C159.403 45.1207 158.891 44.9927 158.435 44.7367C157.979 44.4727 157.619 44.1167 157.355 43.6687C157.091 43.2207 156.959 42.7127 156.959 42.1447C156.959 41.5847 157.087 41.0807 157.343 40.6327C157.607 40.1847 157.959 39.8327 158.399 39.5767C158.847 39.3127 159.347 39.1807 159.899 39.1807C160.427 39.1807 160.891 39.3007 161.291 39.5407C161.699 39.7807 162.015 40.1127 162.239 40.5367C162.471 40.9607 162.587 41.4407 162.587 41.9767C162.587 42.0567 162.583 42.1447 162.575 42.2407C162.567 42.3287 162.551 42.4327 162.527 42.5527H157.715V41.6527H161.951L161.555 42.0007C161.555 41.6167 161.487 41.2927 161.351 41.0287C161.215 40.7567 161.023 40.5487 160.775 40.4047C160.527 40.2527 160.227 40.1767 159.875 40.1767C159.507 40.1767 159.183 40.2567 158.903 40.4167C158.623 40.5767 158.407 40.8007 158.255 41.0887C158.103 41.3767 158.027 41.7167 158.027 42.1087C158.027 42.5087 158.107 42.8607 158.267 43.1647C158.427 43.4607 158.655 43.6927 158.951 43.8607C159.247 44.0207 159.587 44.1007 159.971 44.1007C160.291 44.1007 160.583 44.0447 160.847 43.9327C161.119 43.8207 161.351 43.6527 161.543 43.4287L162.239 44.1367C161.967 44.4567 161.631 44.7007 161.231 44.8687C160.839 45.0367 160.419 45.1207 159.971 45.1207ZM163.765 45.0007V39.3007H164.845V45.0007H163.765ZM164.845 41.7487L164.437 41.5687C164.437 40.8407 164.605 40.2607 164.941 39.8287C165.277 39.3967 165.761 39.1807 166.393 39.1807C166.681 39.1807 166.941 39.2327 167.173 39.3367C167.405 39.4327 167.621 39.5967 167.821 39.8287L167.113 40.5607C166.993 40.4327 166.861 40.3407 166.717 40.2847C166.573 40.2287 166.405 40.2007 166.213 40.2007C165.813 40.2007 165.485 40.3287 165.229 40.5847C164.973 40.8407 164.845 41.2287 164.845 41.7487Z" fill="#BDBDBD"/>
<defs>
<linearGradient id="paint0_linear_3684_26" x1="-14" y1="15.0007" x2="177.5" y2="15.0007" gradientUnits="userSpaceOnUse">
<stop stop-color="#8471D6"/>
<stop offset="1" stop-color="#C17CF0"/>
</linearGradient>
</defs>
</svg>
