<svg width="26" height="23" viewBox="0 0 26 23" fill="none" xmlns="http://www.w3.org/2000/svg">
<path d="M18.7706 19.2354H17.0372L16.8109 20.7126L16.81 20.7155L16.5117 22.6588H19.2941L18.7706 19.2354Z" fill="white"/>
<path d="M19.4164 18.3363C19.4444 18.3517 19.4744 18.3643 19.498 18.3851C19.498 18.3851 19.499 18.3851 19.4995 18.3861L22.7281 16.6429V9.87054L18.3867 12.2063V18.2691H19.1838C19.2433 18.2691 19.3008 18.2802 19.354 18.3C19.3767 18.3087 19.3951 18.3242 19.4164 18.3363Z" fill="white"/>
<path d="M16.1424 18.6785C16.1787 18.4426 16.3817 18.2681 16.62 18.2681H17.4171V12.726L15.8563 13.5661L13.229 14.9815C13.1574 15.0202 13.0782 15.0395 12.9994 15.0395C12.9206 15.0395 12.8413 15.0202 12.7698 14.9815L10.1425 13.5661L3.27344 9.87006V16.6424L12.9994 21.8825L15.8886 20.3288L16.1419 18.679L16.1424 18.6785Z" fill="white"/>
<path d="M10.4331 12.6244L13 14.0055L15.5668 12.6244L17.1079 11.7939L12.6582 7.34425C12.4692 7.15524 12.4692 6.84974 12.6582 6.66073C12.8472 6.47172 13.1527 6.47172 13.3417 6.66073L17.9964 11.3154L26 7.00394L13 0L0 7.00394L10.4331 12.6244Z" fill="white"/>
</svg>
