<svg width="27" height="22" viewBox="0 0 27 22" fill="none" xmlns="http://www.w3.org/2000/svg">
<path fill-rule="evenodd" clip-rule="evenodd" d="M17.9298 4.6991H0.849136C0.381865 4.6991 0 5.0788 0 5.54823V7.40483L9.47709 12.8755H10.9709V11.6625C10.9709 11.1617 11.3798 10.753 11.8807 10.753H14.4256C14.9266 10.753 15.3353 11.1618 15.3353 11.6625V12.8778H16.728L26.3107 7.34625V5.54839C26.3107 5.08112 25.931 4.69925 25.4616 4.69925H17.9298V4.6991Z" fill="white"/>
<path fill-rule="evenodd" clip-rule="evenodd" d="M14.4287 11.402H11.8838C11.74 11.402 11.6211 11.5187 11.6211 11.6648V15.0342C11.6211 15.1781 11.7378 15.2969 11.8838 15.2969H14.4287C14.5726 15.2969 14.6916 15.1802 14.6916 15.0342V11.6648C14.6916 11.521 14.5749 11.402 14.4287 11.402Z" fill="white"/>
<path fill-rule="evenodd" clip-rule="evenodd" d="M14.4278 15.9416H11.8807C11.3798 15.9416 10.9709 15.5328 10.9709 15.0319V13.5288C10.3982 13.5379 9.35592 13.5525 9.22996 13.4819L0 8.1531V19.7647H26.3107V8.09436L16.9752 13.4842C16.8375 13.5653 15.5814 13.5246 15.3353 13.5246V15.0319C15.3353 15.5351 14.9288 15.9416 14.4278 15.9416Z" fill="white"/>
<path fill-rule="evenodd" clip-rule="evenodd" d="M26.3107 20.4119H0V21.1509C0 21.6182 0.379706 22.0001 0.849136 22.0001H25.4616C25.9289 22.0001 26.3107 21.6204 26.3107 21.1509V20.4119Z" fill="white"/>
<path fill-rule="evenodd" clip-rule="evenodd" d="M9.34352 1.33645H16.9651C17.6456 1.33645 18.2063 1.86693 18.2514 2.53831H19.4787V1.34786C19.4787 0.604324 18.8744 0 18.1309 0H8.17989C7.43636 0 6.83203 0.60417 6.83203 1.34786V2.53831H8.05702C8.10219 1.86893 8.66088 1.33645 9.34337 1.33645H9.34352Z" fill="white"/>
<path fill-rule="evenodd" clip-rule="evenodd" d="M18.2539 3.18506V4.05223H19.4783V3.18506H18.2539Z" fill="white"/>
<path fill-rule="evenodd" clip-rule="evenodd" d="M8.05409 4.05223V3.18506H6.83203V4.05223H8.05409Z" fill="white"/>
</svg>
