<svg width="168" height="50" viewBox="0 0 168 50" fill="none" xmlns="http://www.w3.org/2000/svg">
<path fill-rule="evenodd" clip-rule="evenodd" d="M19.256 3.92749L10.1736 10.0529C8.99766 8.3661 8.57217 6.70236 9.17494 5.41452C10.2788 3.056 14.5503 2.53447 19.256 3.92749ZM26.1207 0.805158L26.0764 5.20098C27.0905 5.87129 28.0498 6.62434 28.9441 7.45337C29.1108 7.61114 29.2079 7.82866 29.2142 8.05808C29.2205 8.28749 29.1354 8.51001 28.9776 8.67668C28.8199 8.84335 28.6023 8.94052 28.3729 8.94682C28.1435 8.95311 27.921 8.86801 27.7543 8.71023C27.2129 8.20903 26.6456 7.73799 26.0553 7.29889L25.9513 17.6211C28.2855 17.487 29.9068 16.6944 30.5184 15.3817C31.161 14.0009 30.539 12.424 29.9042 11.3453C29.8465 11.2473 29.8088 11.139 29.793 11.0264C29.7773 10.9139 29.7839 10.7994 29.8124 10.6894C29.8409 10.5794 29.8908 10.476 29.9592 10.3853C30.0277 10.2946 30.1133 10.2183 30.2113 10.1607C30.3092 10.103 30.4176 10.0653 30.5301 10.0495C30.6426 10.0338 30.7572 10.0404 30.8672 10.0689C31.0893 10.1265 31.2795 10.27 31.3959 10.4678C32.5908 12.4989 32.836 14.5042 32.0875 16.1121C31.1868 18.0425 29.0189 19.2091 25.9813 19.3536C25.749 19.3665 25.5064 19.3716 25.2612 19.3716C22.5901 19.3716 19.5628 18.6413 16.6439 17.2786C9.77885 14.0784 5.80438 8.55022 7.61096 4.69188C9.24298 1.20634 14.9294 0.454643 21.0742 2.70126L24.8844 0.131562C25.0052 0.0519851 25.1453 0.00674991 25.2898 0.000698494C25.4343 -0.00535293 25.5778 0.0280073 25.7048 0.097208C25.8318 0.166409 25.9376 0.268844 26.0108 0.39355C26.0841 0.518255 26.122 0.660535 26.1207 0.805158ZM16.6439 18.6568C19.5628 20.0194 22.5901 20.7498 25.2612 20.7498C25.4866 20.7498 25.7069 20.7446 25.9219 20.7343L25.8264 30.3944C25.8241 30.5561 25.7729 30.7133 25.6794 30.8452C25.586 30.9772 25.4547 31.0778 25.303 31.1337C25.1513 31.1895 24.9861 31.1981 24.8294 31.1583C24.6727 31.1185 24.5317 31.0321 24.4251 30.9105L15.7431 20.9821C15.2336 20.3978 14.5293 20.0181 13.7611 19.9136L0.691753 18.1354C0.531226 18.114 0.381042 18.0441 0.261179 17.9352C0.141315 17.8263 0.0574532 17.6835 0.0207495 17.5257C-0.0159542 17.368 -0.00376012 17.2028 0.0557096 17.0522C0.115179 16.9015 0.219106 16.7726 0.353664 16.6824L8.12712 11.4304C9.59045 14.1042 12.6178 16.7805 16.6439 18.6568ZM167.889 18.9937C167.963 18.5315 168 18.0139 168 17.4408C168 15.9619 167.686 14.6587 167.057 13.531C166.429 12.3849 165.55 11.4975 164.423 10.869C163.295 10.2405 162.01 9.9262 160.568 9.9262C159.071 9.9262 157.74 10.2497 156.575 10.8967C155.429 11.5437 154.533 12.468 153.886 13.6697C153.257 14.8528 152.943 16.23 152.943 17.8013C152.943 19.3726 153.266 20.7591 153.913 21.9607C154.579 23.1438 155.485 24.0681 156.631 24.7336C157.796 25.3806 159.108 25.7042 160.568 25.7042C162.362 25.7042 163.859 25.2605 165.061 24.3731C166.281 23.4673 167.122 22.3119 167.584 20.907H164.173C163.471 22.3304 162.269 23.0421 160.568 23.0421C159.385 23.0421 158.387 22.6724 157.574 21.933C156.76 21.1935 156.307 20.2138 156.215 18.9937H167.889ZM163.452 13.6419C164.266 14.3444 164.682 15.2779 164.7 16.4426H156.243C156.391 15.2595 156.853 14.3259 157.629 13.6419C158.406 12.9394 159.339 12.5882 160.43 12.5882C161.631 12.5882 162.639 12.9394 163.452 13.6419ZM143.68 9.9262C144.881 9.9262 145.953 10.1758 146.896 10.6749C147.857 11.174 148.606 11.9135 149.142 12.8932C149.697 13.873 149.974 15.0561 149.974 16.4426V25.4546H146.841V16.914C146.841 15.546 146.499 14.5015 145.815 13.7806C145.131 13.0411 144.197 12.6714 143.014 12.6714C141.831 12.6714 140.888 13.0411 140.186 13.7806C139.502 14.5015 139.16 15.546 139.16 16.914V25.4546H136.026V16.914C136.026 15.546 135.684 14.5015 135 13.7806C134.316 13.0411 133.383 12.6714 132.2 12.6714C131.017 12.6714 130.074 13.0411 129.371 13.7806C128.687 14.5015 128.345 15.546 128.345 16.914V25.4546H125.184V10.1758H128.345V11.9227C128.863 11.2942 129.519 10.8043 130.314 10.4531C131.109 10.1018 131.959 9.9262 132.865 9.9262C134.085 9.9262 135.176 10.185 136.137 10.7026C137.099 11.2202 137.838 11.9689 138.356 12.9487C138.818 12.0244 139.539 11.2942 140.518 10.7581C141.498 10.2035 142.552 9.9262 143.68 9.9262ZM121.013 25.4546V10.1757H117.852V18.6886C117.852 20.0566 117.501 21.1103 116.798 21.8498C116.114 22.5707 115.181 22.9312 113.998 22.9312C112.815 22.9312 111.881 22.5707 111.197 21.8498C110.513 21.1103 110.171 20.0566 110.171 18.6886V10.1757H107.038V19.16C107.038 20.5465 107.306 21.7296 107.842 22.7094C108.397 23.6891 109.145 24.4286 110.088 24.9277C111.049 25.4268 112.131 25.6764 113.332 25.6764C114.238 25.6764 115.089 25.5008 115.883 25.1495C116.697 24.7798 117.353 24.2807 117.852 23.6522V25.4546H121.013ZM104.791 10.1757L95.4183 32.6365H92.1463L95.252 25.205L89.2347 10.1757H92.7563L97.0544 21.822L101.519 10.1757H104.791ZM87.7178 22.8757H80.7855L87.7178 12.7546V10.1757H77.1253V12.7546H84.0853L77.1253 22.8757V25.4546H87.7178V22.8757ZM74.874 17.4408C74.874 18.0139 74.837 18.5315 74.7631 18.9937H63.089C63.1815 20.2138 63.6344 21.1935 64.4478 21.933C65.2612 22.6724 66.2594 23.0421 67.4425 23.0421C69.1433 23.0421 70.3449 22.3304 71.0473 20.907H74.458C73.9959 22.3119 73.1548 23.4673 71.9347 24.3731C70.7331 25.2605 69.2357 25.7042 67.4425 25.7042C65.9821 25.7042 64.6696 25.3806 63.505 24.7336C62.3588 24.0681 61.453 23.1438 60.7875 21.9607C60.1405 20.7591 59.817 19.3726 59.817 17.8013C59.817 16.23 60.1313 14.8528 60.7598 13.6697C61.4068 12.468 62.3034 11.5437 63.4495 10.8967C64.6141 10.2497 65.9452 9.9262 67.4425 9.9262C68.8845 9.9262 70.1692 10.2405 71.2969 10.869C72.4246 11.4975 73.3027 12.3849 73.9312 13.531C74.5597 14.6587 74.874 15.9619 74.874 17.4408ZM71.5742 16.4426C71.5557 15.2779 71.1398 14.3444 70.3264 13.6419C69.513 12.9394 68.5055 12.5882 67.3039 12.5882C66.2132 12.5882 65.2797 12.9394 64.5032 13.6419C63.7268 14.3259 63.2647 15.2595 63.1168 16.4426H71.5742ZM48.9239 17.7458L53.3606 25.4546H57.1318L52.3624 17.4686C53.8782 17.0988 54.9966 16.4056 55.7176 15.3889C56.457 14.3536 56.8268 13.2075 56.8268 11.9504C56.8268 10.8782 56.568 9.90771 56.0503 9.03886C55.5512 8.17 54.784 7.47677 53.7488 6.95916C52.7321 6.44155 51.4843 6.18274 50.0054 6.18274H43.3503V25.4546H46.5115V17.7458H48.9239ZM50.0054 15.2225H46.5115V8.76156H50.0054C51.207 8.76156 52.1035 9.0481 52.6951 9.62117C53.2867 10.1758 53.5824 10.9522 53.5824 11.9504C53.5824 12.9487 53.2774 13.7436 52.6674 14.3351C52.0758 14.9267 51.1885 15.2225 50.0054 15.2225Z" fill="url(#paint0_linear_1570_23)"/>
<path d="M91.7699 40.2098C91.7699 40.9058 91.5299 41.4858 91.0499 41.9498C90.5779 42.4058 89.8539 42.6338 88.8779 42.6338H87.2699V46.1258H86.1779V37.7618H88.8779C89.8219 37.7618 90.5379 37.9898 91.0259 38.4458C91.5219 38.9018 91.7699 39.4898 91.7699 40.2098ZM88.8779 41.7338C89.4859 41.7338 89.9339 41.6018 90.2219 41.3378C90.5099 41.0738 90.6539 40.6978 90.6539 40.2098C90.6539 39.1778 90.0619 38.6618 88.8779 38.6618H87.2699V41.7338H88.8779ZM96.3911 39.4298C96.8871 39.4298 97.3351 39.5378 97.7351 39.7538C98.1351 39.9618 98.4471 40.2778 98.6711 40.7018C98.9031 41.1258 99.0191 41.6418 99.0191 42.2498V46.1258H97.9391V42.4058C97.9391 41.7498 97.7751 41.2498 97.4471 40.9058C97.1191 40.5538 96.6711 40.3778 96.1031 40.3778C95.5271 40.3778 95.0671 40.5578 94.7231 40.9178C94.3871 41.2778 94.2191 41.8018 94.2191 42.4898V46.1258H93.1271V37.2458H94.2191V40.4858C94.4351 40.1498 94.7311 39.8898 95.1071 39.7058C95.4911 39.5218 95.9191 39.4298 96.3911 39.4298ZM103.671 46.2338C103.055 46.2338 102.495 46.0938 101.991 45.8138C101.495 45.5338 101.103 45.1378 100.815 44.6258C100.535 44.1058 100.395 43.5058 100.395 42.8258C100.395 42.1538 100.539 41.5618 100.827 41.0498C101.123 40.5298 101.523 40.1338 102.027 39.8618C102.531 39.5818 103.095 39.4418 103.719 39.4418C104.343 39.4418 104.907 39.5818 105.411 39.8618C105.915 40.1338 106.311 40.5258 106.599 41.0378C106.895 41.5498 107.043 42.1458 107.043 42.8258C107.043 43.5058 106.891 44.1058 106.587 44.6258C106.291 45.1378 105.887 45.5338 105.375 45.8138C104.863 46.0938 104.295 46.2338 103.671 46.2338ZM103.671 45.2738C104.063 45.2738 104.431 45.1818 104.775 44.9978C105.119 44.8138 105.395 44.5378 105.603 44.1698C105.819 43.8018 105.927 43.3538 105.927 42.8258C105.927 42.2978 105.823 41.8498 105.615 41.4818C105.407 41.1138 105.135 40.8418 104.799 40.6658C104.463 40.4818 104.099 40.3898 103.707 40.3898C103.307 40.3898 102.939 40.4818 102.603 40.6658C102.275 40.8418 102.011 41.1138 101.811 41.4818C101.611 41.8498 101.511 42.2978 101.511 42.8258C101.511 43.3618 101.607 43.8138 101.799 44.1818C101.999 44.5498 102.263 44.8258 102.591 45.0098C102.919 45.1858 103.279 45.2738 103.671 45.2738ZM109.811 40.4498V44.3258C109.811 44.6458 109.879 44.8738 110.015 45.0098C110.151 45.1378 110.387 45.2018 110.723 45.2018H111.527V46.1258H110.543C109.935 46.1258 109.479 45.9858 109.175 45.7058C108.871 45.4258 108.719 44.9658 108.719 44.3258V40.4498H107.867V39.5498H108.719V37.8938H109.811V39.5498H111.527V40.4498H109.811ZM115.718 46.2338C115.102 46.2338 114.542 46.0938 114.038 45.8138C113.542 45.5338 113.15 45.1378 112.862 44.6258C112.582 44.1058 112.442 43.5058 112.442 42.8258C112.442 42.1538 112.586 41.5618 112.874 41.0498C113.17 40.5298 113.57 40.1338 114.074 39.8618C114.578 39.5818 115.142 39.4418 115.766 39.4418C116.39 39.4418 116.954 39.5818 117.458 39.8618C117.962 40.1338 118.358 40.5258 118.646 41.0378C118.942 41.5498 119.09 42.1458 119.09 42.8258C119.09 43.5058 118.938 44.1058 118.634 44.6258C118.338 45.1378 117.934 45.5338 117.422 45.8138C116.91 46.0938 116.342 46.2338 115.718 46.2338ZM115.718 45.2738C116.11 45.2738 116.478 45.1818 116.822 44.9978C117.166 44.8138 117.442 44.5378 117.65 44.1698C117.866 43.8018 117.974 43.3538 117.974 42.8258C117.974 42.2978 117.87 41.8498 117.662 41.4818C117.454 41.1138 117.182 40.8418 116.846 40.6658C116.51 40.4818 116.146 40.3898 115.754 40.3898C115.354 40.3898 114.986 40.4818 114.65 40.6658C114.322 40.8418 114.058 41.1138 113.858 41.4818C113.658 41.8498 113.558 42.2978 113.558 42.8258C113.558 43.3618 113.654 43.8138 113.846 44.1818C114.046 44.5498 114.31 44.8258 114.638 45.0098C114.966 45.1858 115.326 45.2738 115.718 45.2738ZM123.238 39.4418C123.806 39.4418 124.302 39.5658 124.726 39.8138C125.158 40.0618 125.478 40.3738 125.686 40.7498V39.5498H126.79V46.2698C126.79 46.8698 126.662 47.4018 126.406 47.8658C126.15 48.3378 125.782 48.7058 125.302 48.9698C124.83 49.2338 124.278 49.3658 123.646 49.3658C122.782 49.3658 122.062 49.1618 121.486 48.7538C120.91 48.3458 120.57 47.7898 120.466 47.0858H121.546C121.666 47.4858 121.914 47.8058 122.29 48.0458C122.666 48.2938 123.118 48.4178 123.646 48.4178C124.246 48.4178 124.734 48.2298 125.11 47.8538C125.494 47.4778 125.686 46.9498 125.686 46.2698V44.8898C125.47 45.2738 125.15 45.5938 124.726 45.8498C124.302 46.1058 123.806 46.2338 123.238 46.2338C122.654 46.2338 122.122 46.0898 121.642 45.8018C121.17 45.5138 120.798 45.1098 120.526 44.5898C120.254 44.0698 120.118 43.4778 120.118 42.8138C120.118 42.1418 120.254 41.5538 120.526 41.0498C120.798 40.5378 121.17 40.1418 121.642 39.8618C122.122 39.5818 122.654 39.4418 123.238 39.4418ZM125.686 42.8258C125.686 42.3298 125.586 41.8978 125.386 41.5298C125.186 41.1618 124.914 40.8818 124.57 40.6898C124.234 40.4898 123.862 40.3898 123.454 40.3898C123.046 40.3898 122.674 40.4858 122.338 40.6778C122.002 40.8698 121.734 41.1498 121.534 41.5178C121.334 41.8858 121.234 42.3178 121.234 42.8138C121.234 43.3178 121.334 43.7578 121.534 44.1338C121.734 44.5018 122.002 44.7858 122.338 44.9858C122.674 45.1778 123.046 45.2738 123.454 45.2738C123.862 45.2738 124.234 45.1778 124.57 44.9858C124.914 44.7858 125.186 44.5018 125.386 44.1338C125.586 43.7578 125.686 43.3218 125.686 42.8258ZM129.727 40.6178C129.919 40.2418 130.191 39.9498 130.543 39.7418C130.903 39.5338 131.339 39.4298 131.851 39.4298V40.5578H131.563C130.339 40.5578 129.727 41.2218 129.727 42.5498V46.1258H128.635V39.5498H129.727V40.6178ZM132.704 42.8138C132.704 42.1418 132.84 41.5538 133.112 41.0498C133.384 40.5378 133.756 40.1418 134.228 39.8618C134.708 39.5818 135.24 39.4418 135.824 39.4418C136.4 39.4418 136.9 39.5658 137.324 39.8138C137.748 40.0618 138.064 40.3738 138.272 40.7498V39.5498H139.376V46.1258H138.272V44.9018C138.056 45.2858 137.732 45.6058 137.3 45.8618C136.876 46.1098 136.38 46.2338 135.812 46.2338C135.228 46.2338 134.7 46.0898 134.228 45.8018C133.756 45.5138 133.384 45.1098 133.112 44.5898C132.84 44.0698 132.704 43.4778 132.704 42.8138ZM138.272 42.8258C138.272 42.3298 138.172 41.8978 137.972 41.5298C137.772 41.1618 137.5 40.8818 137.156 40.6898C136.82 40.4898 136.448 40.3898 136.04 40.3898C135.632 40.3898 135.26 40.4858 134.924 40.6778C134.588 40.8698 134.32 41.1498 134.12 41.5178C133.92 41.8858 133.82 42.3178 133.82 42.8138C133.82 43.3178 133.92 43.7578 134.12 44.1338C134.32 44.5018 134.588 44.7858 134.924 44.9858C135.26 45.1778 135.632 45.2738 136.04 45.2738C136.448 45.2738 136.82 45.1778 137.156 44.9858C137.5 44.7858 137.772 44.5018 137.972 44.1338C138.172 43.7578 138.272 43.3218 138.272 42.8258ZM142.313 40.7618C142.529 40.3858 142.849 40.0738 143.273 39.8258C143.705 39.5698 144.205 39.4418 144.773 39.4418C145.357 39.4418 145.885 39.5818 146.357 39.8618C146.837 40.1418 147.213 40.5378 147.485 41.0498C147.757 41.5538 147.893 42.1418 147.893 42.8138C147.893 43.4778 147.757 44.0698 147.485 44.5898C147.213 45.1098 146.837 45.5138 146.357 45.8018C145.885 46.0898 145.357 46.2338 144.773 46.2338C144.213 46.2338 143.717 46.1098 143.285 45.8618C142.861 45.6058 142.537 45.2898 142.313 44.9138V49.2458H141.221V39.5498H142.313V40.7618ZM146.777 42.8138C146.777 42.3178 146.677 41.8858 146.477 41.5178C146.277 41.1498 146.005 40.8698 145.661 40.6778C145.325 40.4858 144.953 40.3898 144.545 40.3898C144.145 40.3898 143.773 40.4898 143.429 40.6898C143.093 40.8818 142.821 41.1658 142.613 41.5418C142.413 41.9098 142.313 42.3378 142.313 42.8258C142.313 43.3218 142.413 43.7578 142.613 44.1338C142.821 44.5018 143.093 44.7858 143.429 44.9858C143.773 45.1778 144.145 45.2738 144.545 45.2738C144.953 45.2738 145.325 45.1778 145.661 44.9858C146.005 44.7858 146.277 44.5018 146.477 44.1338C146.677 43.7578 146.777 43.3178 146.777 42.8138ZM152.594 39.4298C153.09 39.4298 153.538 39.5378 153.938 39.7538C154.338 39.9618 154.65 40.2778 154.874 40.7018C155.106 41.1258 155.222 41.6418 155.222 42.2498V46.1258H154.142V42.4058C154.142 41.7498 153.978 41.2498 153.65 40.9058C153.322 40.5538 152.874 40.3778 152.306 40.3778C151.73 40.3778 151.27 40.5578 150.926 40.9178C150.59 41.2778 150.422 41.8018 150.422 42.4898V46.1258H149.33V37.2458H150.422V40.4858C150.638 40.1498 150.934 39.8898 151.31 39.7058C151.694 39.5218 152.122 39.4298 152.594 39.4298ZM163.006 42.5858C163.006 42.7938 162.994 43.0138 162.97 43.2458H157.714C157.754 43.8938 157.974 44.4018 158.374 44.7698C158.782 45.1298 159.274 45.3098 159.85 45.3098C160.322 45.3098 160.714 45.2018 161.026 44.9858C161.346 44.7618 161.57 44.4658 161.698 44.0978H162.874C162.698 44.7298 162.346 45.2458 161.818 45.6458C161.29 46.0378 160.634 46.2338 159.85 46.2338C159.226 46.2338 158.666 46.0938 158.17 45.8138C157.682 45.5338 157.298 45.1378 157.018 44.6258C156.738 44.1058 156.598 43.5058 156.598 42.8258C156.598 42.1458 156.734 41.5498 157.006 41.0378C157.278 40.5258 157.658 40.1338 158.146 39.8618C158.642 39.5818 159.21 39.4418 159.85 39.4418C160.474 39.4418 161.026 39.5778 161.506 39.8498C161.986 40.1218 162.354 40.4978 162.61 40.9778C162.874 41.4498 163.006 41.9858 163.006 42.5858ZM161.878 42.3578C161.878 41.9418 161.786 41.5858 161.602 41.2898C161.418 40.9858 161.166 40.7578 160.846 40.6058C160.534 40.4458 160.186 40.3658 159.802 40.3658C159.25 40.3658 158.778 40.5418 158.386 40.8938C158.002 41.2458 157.782 41.7338 157.726 42.3578H161.878ZM165.539 40.6178C165.731 40.2418 166.003 39.9498 166.355 39.7418C166.715 39.5338 167.151 39.4298 167.663 39.4298V40.5578H167.375C166.151 40.5578 165.539 41.2218 165.539 42.5498V46.1258H164.447V39.5498H165.539V40.6178Z" fill="#D2C7FB"/>
<defs>
<linearGradient id="paint0_linear_1570_23" x1="6.5" y1="16.1258" x2="168" y2="16.1258" gradientUnits="userSpaceOnUse">
<stop offset="0.0602992" stop-color="#FAA7F9"/>
<stop offset="1" stop-color="#B8DBFF"/>
</linearGradient>
</defs>
</svg>
