<svg width="169" height="48" viewBox="0 0 169 48" fill="none" xmlns="http://www.w3.org/2000/svg">
<path d="M20.6251 16.7569C23.5048 18.0981 26.4731 18.7636 28.9758 18.632H29.0213L29.201 0.789457C29.2023 0.647654 29.1651 0.508149 29.0933 0.385875C29.0215 0.263602 28.9177 0.163163 28.7932 0.0953123C28.6687 0.0274611 28.5281 -0.00524854 28.3864 0.000684872C28.2447 0.00661828 28.1073 0.0509713 27.9889 0.128996L12.9805 10.251C14.1951 12.5715 17.0014 15.0665 20.6251 16.7569Z" fill="#FF2249"/>
<path d="M28.3585 20.3452C25.7394 20.3452 22.7711 19.629 19.9091 18.2929C15.9615 16.4532 12.9933 13.8291 11.5585 11.2075L3.93661 16.3571C3.80468 16.4455 3.70278 16.5719 3.64447 16.7196C3.58616 16.8673 3.5742 17.0293 3.61019 17.1839C3.64618 17.3386 3.7284 17.4786 3.84593 17.5854C3.96346 17.6922 4.11071 17.7607 4.26811 17.7818L17.0826 19.5253C17.8358 19.6277 18.5263 20 19.026 20.5729L27.5386 30.3077C27.6431 30.4269 27.7814 30.5116 27.935 30.5507C28.0887 30.5897 28.2506 30.5813 28.3994 30.5265C28.5482 30.4717 28.6769 30.3731 28.7685 30.2437C28.8601 30.1143 28.9104 29.9602 28.9126 29.8016L29.0063 20.33C28.7954 20.3401 28.5795 20.3452 28.3585 20.3452Z" fill="#FF2249"/>
<path d="M28.3577 18.9939C25.7387 18.9939 22.7704 18.2778 19.9084 16.9416C13.1773 13.8038 9.28031 8.3835 11.0517 4.6004C12.823 0.8173 19.4656 0.318791 26.1967 3.45661C28.3132 4.42546 30.2617 5.72558 31.9688 7.30803C32.1322 7.46273 32.2275 7.67601 32.2336 7.90095C32.2398 8.12589 32.1564 8.34407 32.0017 8.50749C31.847 8.67091 31.6337 8.76618 31.4088 8.77235C31.1838 8.77852 30.9656 8.69508 30.8022 8.54039C29.23 7.08507 27.4362 5.88922 25.4882 4.99769C19.8072 2.34825 13.901 2.49755 12.5851 5.30894C11.2693 8.12032 14.9512 12.7587 20.6245 15.4056C23.5042 16.7468 26.4725 17.4149 28.9752 17.2807C31.2957 17.1593 32.9076 16.3799 33.5124 15.0817C34.1425 13.7279 33.5326 12.1818 32.9101 11.124C32.8536 11.028 32.8166 10.9218 32.8012 10.8114C32.7857 10.7011 32.7922 10.5888 32.8201 10.4809C32.8481 10.3731 32.897 10.2718 32.9641 10.1828C33.0312 10.0939 33.1152 10.019 33.2112 9.96253C33.3073 9.90603 33.4135 9.86901 33.5239 9.85357C33.6342 9.83813 33.7465 9.84457 33.8544 9.87254C34.0722 9.92901 34.2587 10.0697 34.3727 10.2637C35.5444 12.2552 35.7848 14.2214 35.0509 15.7979C34.1678 17.6907 32.0422 18.8345 29.0638 18.9762C28.836 18.9888 28.5981 18.9939 28.3577 18.9939Z" fill="#FF2249"/>
<path d="M168.314 17.1007C168.314 17.6626 168.278 18.1701 168.205 18.6232H156.759C156.85 19.8195 157.294 20.7802 158.091 21.5052C158.889 22.2303 159.868 22.5928 161.028 22.5928C162.695 22.5928 163.873 21.8949 164.562 20.4993H167.906C167.453 21.8768 166.628 23.0097 165.432 23.8978C164.254 24.7679 162.786 25.2029 161.028 25.2029C159.596 25.2029 158.309 24.8857 157.167 24.2513C156.043 23.5987 155.155 22.6925 154.502 21.5324C153.868 20.3543 153.551 18.9948 153.551 17.4541C153.551 15.9135 153.859 14.5631 154.475 13.4031C155.11 12.2249 155.989 11.3186 157.112 10.6842C158.254 10.0498 159.559 9.7326 161.028 9.7326C162.441 9.7326 163.701 10.0407 164.807 10.657C165.912 11.2733 166.773 12.1433 167.39 13.2671C168.006 14.3728 168.314 15.6506 168.314 17.1007ZM165.079 16.1219C165.061 14.98 164.653 14.0646 163.855 13.3759C163.058 12.6871 162.07 12.3427 160.892 12.3427C159.822 12.3427 158.907 12.6871 158.146 13.3759C157.384 14.0465 156.931 14.9619 156.786 16.1219H165.079Z" fill="white"/>
<path d="M144.469 9.7326C145.647 9.7326 146.698 9.9773 147.623 10.4667C148.565 10.9561 149.299 11.6811 149.825 12.6418C150.369 13.6024 150.641 14.7625 150.641 16.1219V24.9582H147.568V16.5841C147.568 15.2428 147.233 14.2187 146.562 13.5118C145.892 12.7868 144.976 12.4243 143.816 12.4243C142.656 12.4243 141.732 12.7868 141.043 13.5118C140.372 14.2187 140.037 15.2428 140.037 16.5841V24.9582H136.965V16.5841C136.965 15.2428 136.629 14.2187 135.959 13.5118C135.288 12.7868 134.373 12.4243 133.213 12.4243C132.053 12.4243 131.128 12.7868 130.439 13.5118C129.769 14.2187 129.433 15.2428 129.433 16.5841V24.9582H126.334V9.9773H129.433V11.6902C129.941 11.0739 130.584 10.5936 131.364 10.2492C132.143 9.9048 132.977 9.7326 133.865 9.7326C135.061 9.7326 136.131 9.98636 137.073 10.4939C138.016 11.0014 138.741 11.7355 139.249 12.6962C139.702 11.7899 140.409 11.0739 141.369 10.5483C142.33 10.0045 143.363 9.7326 144.469 9.7326Z" fill="white"/>
<path d="M122.244 9.97729V24.9582H119.145V23.1909C118.655 23.8072 118.012 24.2966 117.214 24.6591C116.435 25.0035 115.601 25.1757 114.713 25.1757C113.535 25.1757 112.474 24.931 111.532 24.4416C110.607 23.9522 109.873 23.2272 109.329 22.2665C108.804 21.3058 108.541 20.1458 108.541 18.7864V9.97729H111.613V18.3242C111.613 19.6655 111.949 20.6986 112.619 21.4237C113.29 22.1306 114.205 22.484 115.365 22.484C116.525 22.484 117.441 22.1306 118.111 21.4237C118.8 20.6986 119.145 19.6655 119.145 18.3242V9.97729H122.244Z" fill="white"/>
<path d="M106.337 9.97729L97.147 32H93.9388L96.9839 24.7135L91.084 9.97729H94.5369L98.7511 21.3965L103.129 9.97729H106.337Z" fill="white"/>
<path d="M82.7998 22.4296H89.597V24.9582H79.2109V22.4296L86.0353 12.5058H79.2109V9.97729H89.597V12.5058L82.7998 22.4296Z" fill="white"/>
<path d="M77.0036 17.1007C77.0036 17.6626 76.9673 18.1701 76.8948 18.6232H65.4485C65.5391 19.8195 65.9832 20.7802 66.7807 21.5052C67.5782 22.2303 68.557 22.5928 69.7171 22.5928C71.3846 22.5928 72.5628 21.8949 73.2516 20.4993H76.5958C76.1426 21.8768 75.3179 23.0097 74.1216 23.8978C72.9434 24.7679 71.4753 25.2029 69.7171 25.2029C68.2851 25.2029 66.9982 24.8857 65.8563 24.2513C64.7325 23.5987 63.8444 22.6925 63.1918 21.5324C62.5574 20.3543 62.2402 18.9948 62.2402 17.4541C62.2402 15.9135 62.5484 14.5631 63.1646 13.4031C63.799 12.2249 64.6781 11.3186 65.8019 10.6842C66.9438 10.0498 68.2489 9.7326 69.7171 9.7326C71.1309 9.7326 72.3906 10.0407 73.4963 10.657C74.6019 11.2733 75.4629 12.1433 76.0792 13.2671C76.6955 14.3728 77.0036 15.6506 77.0036 17.1007ZM73.7682 16.1219C73.75 14.98 73.3422 14.0646 72.5447 13.3759C71.7472 12.6871 70.7593 12.3427 69.5811 12.3427C68.5117 12.3427 67.5964 12.6871 66.8351 13.3759C66.0738 14.0465 65.6207 14.9619 65.4757 16.1219H73.7682Z" fill="white"/>
<path d="M55.9108 24.9582L51.5606 17.3998H49.1952V24.9582H46.0957V6.06216H52.6209C54.071 6.06216 55.2945 6.31592 56.2914 6.82344C57.3064 7.33096 58.0587 8.01067 58.548 8.86258C59.0556 9.71449 59.3093 10.6661 59.3093 11.7174C59.3093 12.9499 58.9468 14.0737 58.2218 15.0888C57.5149 16.0857 56.4183 16.7654 54.932 17.1279L59.6084 24.9582H55.9108ZM49.1952 14.9256H52.6209C53.781 14.9256 54.651 14.6356 55.231 14.0556C55.8292 13.4756 56.1283 12.6962 56.1283 11.7174C56.1283 10.7386 55.8383 9.97731 55.2582 9.43354C54.6782 8.87164 53.7991 8.5907 52.6209 8.5907H49.1952V14.9256Z" fill="white"/>
<path d="M89.4059 38.636V39.524H85.7699V42.344H88.7219V43.232H85.7699V47H84.6779V38.636H89.4059ZM91.2888 39.356C91.0808 39.356 90.9048 39.284 90.7608 39.14C90.6168 38.996 90.5448 38.82 90.5448 38.612C90.5448 38.404 90.6168 38.228 90.7608 38.084C90.9048 37.94 91.0808 37.868 91.2888 37.868C91.4888 37.868 91.6568 37.94 91.7928 38.084C91.9368 38.228 92.0088 38.404 92.0088 38.612C92.0088 38.82 91.9368 38.996 91.7928 39.14C91.6568 39.284 91.4888 39.356 91.2888 39.356ZM91.8168 40.424V47H90.7248V40.424H91.8168ZM95.0099 41.324V45.2C95.0099 45.52 95.0779 45.748 95.2139 45.884C95.3499 46.012 95.5859 46.076 95.9219 46.076H96.7259V47H95.7419C95.1339 47 94.6779 46.86 94.3739 46.58C94.0699 46.3 93.9179 45.84 93.9179 45.2V41.324H93.0659V40.424H93.9179V38.768H95.0099V40.424H96.7259V41.324H95.0099ZM101.253 40.304C102.053 40.304 102.701 40.548 103.197 41.036C103.693 41.516 103.941 42.212 103.941 43.124V47H102.861V43.28C102.861 42.624 102.697 42.124 102.369 41.78C102.041 41.428 101.593 41.252 101.025 41.252C100.449 41.252 99.989 41.432 99.645 41.792C99.309 42.152 99.141 42.676 99.141 43.364V47H98.049V40.424H99.141V41.36C99.357 41.024 99.649 40.764 100.017 40.58C100.393 40.396 100.805 40.304 101.253 40.304ZM111.725 43.46C111.725 43.668 111.713 43.888 111.689 44.12H106.433C106.473 44.768 106.693 45.276 107.093 45.644C107.501 46.004 107.993 46.184 108.569 46.184C109.041 46.184 109.433 46.076 109.745 45.86C110.065 45.636 110.289 45.34 110.417 44.972H111.593C111.417 45.604 111.065 46.12 110.537 46.52C110.009 46.912 109.353 47.108 108.569 47.108C107.945 47.108 107.385 46.968 106.889 46.688C106.401 46.408 106.017 46.012 105.737 45.5C105.457 44.98 105.317 44.38 105.317 43.7C105.317 43.02 105.453 42.424 105.725 41.912C105.997 41.4 106.377 41.008 106.865 40.736C107.361 40.456 107.929 40.316 108.569 40.316C109.193 40.316 109.745 40.452 110.225 40.724C110.705 40.996 111.073 41.372 111.329 41.852C111.593 42.324 111.725 42.86 111.725 43.46ZM110.597 43.232C110.597 42.816 110.505 42.46 110.321 42.164C110.137 41.86 109.885 41.632 109.565 41.48C109.253 41.32 108.905 41.24 108.521 41.24C107.969 41.24 107.497 41.416 107.105 41.768C106.721 42.12 106.501 42.608 106.445 43.232H110.597ZM115.494 47.108C114.99 47.108 114.538 47.024 114.138 46.856C113.738 46.68 113.422 46.44 113.19 46.136C112.958 45.824 112.83 45.468 112.806 45.068H113.934C113.966 45.396 114.118 45.664 114.39 45.872C114.67 46.08 115.034 46.184 115.482 46.184C115.898 46.184 116.226 46.092 116.466 45.908C116.706 45.724 116.826 45.492 116.826 45.212C116.826 44.924 116.698 44.712 116.442 44.576C116.186 44.432 115.79 44.292 115.254 44.156C114.766 44.028 114.366 43.9 114.054 43.772C113.75 43.636 113.486 43.44 113.262 43.184C113.046 42.92 112.938 42.576 112.938 42.152C112.938 41.816 113.038 41.508 113.238 41.228C113.438 40.948 113.722 40.728 114.09 40.568C114.458 40.4 114.878 40.316 115.35 40.316C116.078 40.316 116.666 40.5 117.114 40.868C117.562 41.236 117.802 41.74 117.834 42.38H116.742C116.718 42.036 116.578 41.76 116.322 41.552C116.074 41.344 115.738 41.24 115.314 41.24C114.922 41.24 114.61 41.324 114.378 41.492C114.146 41.66 114.03 41.88 114.03 42.152C114.03 42.368 114.098 42.548 114.234 42.692C114.378 42.828 114.554 42.94 114.762 43.028C114.978 43.108 115.274 43.2 115.65 43.304C116.122 43.432 116.506 43.56 116.802 43.688C117.098 43.808 117.35 43.992 117.558 44.24C117.774 44.488 117.886 44.812 117.894 45.212C117.894 45.572 117.794 45.896 117.594 46.184C117.394 46.472 117.11 46.7 116.742 46.868C116.382 47.028 115.966 47.108 115.494 47.108ZM121.764 47.108C121.26 47.108 120.808 47.024 120.408 46.856C120.008 46.68 119.692 46.44 119.46 46.136C119.228 45.824 119.1 45.468 119.076 45.068H120.204C120.236 45.396 120.388 45.664 120.66 45.872C120.94 46.08 121.304 46.184 121.752 46.184C122.168 46.184 122.496 46.092 122.736 45.908C122.976 45.724 123.096 45.492 123.096 45.212C123.096 44.924 122.968 44.712 122.712 44.576C122.456 44.432 122.06 44.292 121.524 44.156C121.036 44.028 120.636 43.9 120.324 43.772C120.02 43.636 119.756 43.44 119.532 43.184C119.316 42.92 119.208 42.576 119.208 42.152C119.208 41.816 119.308 41.508 119.508 41.228C119.708 40.948 119.992 40.728 120.36 40.568C120.728 40.4 121.148 40.316 121.62 40.316C122.348 40.316 122.936 40.5 123.384 40.868C123.832 41.236 124.072 41.74 124.104 42.38H123.012C122.988 42.036 122.848 41.76 122.592 41.552C122.344 41.344 122.008 41.24 121.584 41.24C121.192 41.24 120.88 41.324 120.648 41.492C120.416 41.66 120.3 41.88 120.3 42.152C120.3 42.368 120.368 42.548 120.504 42.692C120.648 42.828 120.824 42.94 121.032 43.028C121.248 43.108 121.544 43.2 121.92 43.304C122.392 43.432 122.776 43.56 123.072 43.688C123.368 43.808 123.62 43.992 123.828 44.24C124.044 44.488 124.156 44.812 124.164 45.212C124.164 45.572 124.064 45.896 123.864 46.184C123.664 46.472 123.38 46.7 123.012 46.868C122.652 47.028 122.236 47.108 121.764 47.108ZM128.496 42.812C128.496 41.996 128.68 41.264 129.048 40.616C129.416 39.96 129.916 39.448 130.548 39.08C131.188 38.712 131.896 38.528 132.672 38.528C133.584 38.528 134.38 38.748 135.06 39.188C135.74 39.628 136.236 40.252 136.548 41.06H135.24C135.008 40.556 134.672 40.168 134.232 39.896C133.8 39.624 133.28 39.488 132.672 39.488C132.088 39.488 131.564 39.624 131.1 39.896C130.636 40.168 130.272 40.556 130.008 41.06C129.744 41.556 129.612 42.14 129.612 42.812C129.612 43.476 129.744 44.06 130.008 44.564C130.272 45.06 130.636 45.444 131.1 45.716C131.564 45.988 132.088 46.124 132.672 46.124C133.28 46.124 133.8 45.992 134.232 45.728C134.672 45.456 135.008 45.068 135.24 44.564H136.548C136.236 45.364 135.74 45.984 135.06 46.424C134.38 46.856 133.584 47.072 132.672 47.072C131.896 47.072 131.188 46.892 130.548 46.532C129.916 46.164 129.416 45.656 129.048 45.008C128.68 44.36 128.496 43.628 128.496 42.812ZM141.042 47.108C140.426 47.108 139.866 46.968 139.362 46.688C138.866 46.408 138.474 46.012 138.186 45.5C137.906 44.98 137.766 44.38 137.766 43.7C137.766 43.028 137.91 42.436 138.198 41.924C138.494 41.404 138.894 41.008 139.398 40.736C139.902 40.456 140.466 40.316 141.09 40.316C141.714 40.316 142.278 40.456 142.782 40.736C143.286 41.008 143.682 41.4 143.97 41.912C144.266 42.424 144.414 43.02 144.414 43.7C144.414 44.38 144.262 44.98 143.958 45.5C143.662 46.012 143.258 46.408 142.746 46.688C142.234 46.968 141.666 47.108 141.042 47.108ZM141.042 46.148C141.434 46.148 141.802 46.056 142.146 45.872C142.49 45.688 142.766 45.412 142.974 45.044C143.19 44.676 143.298 44.228 143.298 43.7C143.298 43.172 143.194 42.724 142.986 42.356C142.778 41.988 142.506 41.716 142.17 41.54C141.834 41.356 141.47 41.264 141.078 41.264C140.678 41.264 140.31 41.356 139.974 41.54C139.646 41.716 139.382 41.988 139.182 42.356C138.982 42.724 138.882 43.172 138.882 43.7C138.882 44.236 138.978 44.688 139.17 45.056C139.37 45.424 139.634 45.7 139.962 45.884C140.29 46.06 140.65 46.148 141.042 46.148ZM145.442 43.688C145.442 43.016 145.578 42.428 145.85 41.924C146.122 41.412 146.494 41.016 146.966 40.736C147.446 40.456 147.978 40.316 148.562 40.316C149.138 40.316 149.638 40.44 150.062 40.688C150.486 40.936 150.802 41.248 151.01 41.624V40.424H152.114V47H151.01V45.776C150.794 46.16 150.47 46.48 150.038 46.736C149.614 46.984 149.118 47.108 148.55 47.108C147.966 47.108 147.438 46.964 146.966 46.676C146.494 46.388 146.122 45.984 145.85 45.464C145.578 44.944 145.442 44.352 145.442 43.688ZM151.01 43.7C151.01 43.204 150.91 42.772 150.71 42.404C150.51 42.036 150.238 41.756 149.894 41.564C149.558 41.364 149.186 41.264 148.778 41.264C148.37 41.264 147.998 41.36 147.662 41.552C147.326 41.744 147.058 42.024 146.858 42.392C146.658 42.76 146.558 43.192 146.558 43.688C146.558 44.192 146.658 44.632 146.858 45.008C147.058 45.376 147.326 45.66 147.662 45.86C147.998 46.052 148.37 46.148 148.778 46.148C149.186 46.148 149.558 46.052 149.894 45.86C150.238 45.66 150.51 45.376 150.71 45.008C150.91 44.632 151.01 44.196 151.01 43.7ZM153.551 43.7C153.551 43.02 153.687 42.428 153.959 41.924C154.231 41.412 154.607 41.016 155.087 40.736C155.575 40.456 156.131 40.316 156.755 40.316C157.563 40.316 158.227 40.512 158.747 40.904C159.275 41.296 159.623 41.84 159.791 42.536H158.615C158.503 42.136 158.283 41.82 157.955 41.588C157.635 41.356 157.235 41.24 156.755 41.24C156.131 41.24 155.627 41.456 155.243 41.888C154.859 42.312 154.667 42.916 154.667 43.7C154.667 44.492 154.859 45.104 155.243 45.536C155.627 45.968 156.131 46.184 156.755 46.184C157.235 46.184 157.635 46.072 157.955 45.848C158.275 45.624 158.495 45.304 158.615 44.888H159.791C159.615 45.56 159.263 46.1 158.735 46.508C158.207 46.908 157.547 47.108 156.755 47.108C156.131 47.108 155.575 46.968 155.087 46.688C154.607 46.408 154.231 46.012 153.959 45.5C153.687 44.988 153.551 44.388 153.551 43.7ZM164.512 40.304C165.008 40.304 165.456 40.412 165.856 40.628C166.256 40.836 166.568 41.152 166.792 41.576C167.024 42 167.14 42.516 167.14 43.124V47H166.06V43.28C166.06 42.624 165.896 42.124 165.568 41.78C165.24 41.428 164.792 41.252 164.224 41.252C163.648 41.252 163.188 41.432 162.844 41.792C162.508 42.152 162.34 42.676 162.34 43.364V47H161.248V38.12H162.34V41.36C162.556 41.024 162.852 40.764 163.228 40.58C163.612 40.396 164.04 40.304 164.512 40.304Z" fill="#BBBBBB"/>
</svg>
