<svg width="70" height="70" viewBox="0 0 70 70" fill="none" xmlns="http://www.w3.org/2000/svg">
<path d="M63.6966 14.5283H0.000290359C0.000290359 14.5283 0.0547384 52.4174 0.000290359 54.5139C-0.000116983 54.5319 -0.000116983 54.55 0.000426139 54.5679C0.0551457 56.5852 0.882728 58.4729 2.33056 59.8834C3.78178 61.2969 5.69737 62.0755 7.72498 62.0755H41.369C41.6396 62.0755 41.8992 61.9681 42.0905 61.7772L64.4183 39.4792C64.6096 39.288 64.717 39.029 64.717 38.7586V15.5472C64.717 14.9843 64.2601 14.5283 63.6966 14.5283Z" fill="#E0E0E2"/>
<path d="M18.5889 41.48H22.7872L26.1536 30.916L42.4541 14.6156H38.6185L22.318 30.916L18.5889 41.48Z" fill="#C6C5CA"/>
<path d="M64.1414 14.6156H60.7168V43.9235L64.868 39.7723C65.0606 39.5795 65.1688 39.3184 65.1688 39.0458V15.6429C65.1689 15.0754 64.7088 14.6156 64.1414 14.6156Z" fill="#C6C5CA"/>
<path d="M46.5242 42.2642H18.193C17.628 42.2642 17.1699 41.673 17.1699 40.9434C17.1699 40.2139 17.628 39.6227 18.193 39.6227H46.5242C47.0893 39.6227 47.5473 40.2139 47.5473 40.9434C47.5473 41.673 47.0892 42.2642 46.5242 42.2642Z" fill="#3C5156"/>
<path d="M7.92524 47.3487C8.37502 47.3487 8.81563 47.3871 9.24528 47.4575V4.99027C9.24528 4.42245 8.7783 3.96228 8.20238 3.96228C3.67966 3.96228 0 7.58918 0 12.0474V54.151C0.537203 50.3086 3.87963 47.3487 7.92524 47.3487Z" fill="#919191"/>
<path d="M55.1742 13.3123L49.0664 6.91557C48.8755 6.71587 48.6169 6.60376 48.3472 6.60376C48.0775 6.60376 47.8188 6.71601 47.628 6.91557L25.133 30.4739C25.1195 30.4881 25.1074 30.5032 25.0947 30.5183L32.7507 38.3019L55.1741 14.8187C55.5714 14.4025 55.5714 13.7283 55.1742 13.3123Z" fill="#B49077"/>
<path d="M30.377 35.5352L33.1249 38.3019L55.1783 15.43C55.569 15.0247 55.569 14.3681 55.1783 13.9629L53.1766 11.8868L30.377 35.5352Z" fill="#7B5F4C"/>
<path d="M24.9338 30.3773C24.8386 30.4712 24.7627 30.5817 24.714 30.7053L21.1932 39.6568C21.0553 40.0074 21.154 40.3978 21.4468 40.6607C21.6521 40.845 21.927 40.9434 22.2074 40.9434C22.3275 40.9434 22.4483 40.9254 22.5654 40.8882L32.5394 37.7284C32.7314 37.6676 32.8951 37.5592 33.0186 37.4212L24.9338 30.3773Z" fill="#E5B99B"/>
<path d="M22.2074 40.9434C22.3275 40.9434 22.4483 40.9239 22.5654 40.8836L32.5394 37.458C32.7314 37.3921 32.8951 37.2746 33.0186 37.125L30.0696 34.3396L22.0728 37.1242L21.1932 39.5484C21.0553 39.9284 21.154 40.3516 21.4468 40.6367C21.6521 40.8366 21.9269 40.9434 22.2074 40.9434Z" fill="#E5B99B"/>
<path d="M22.2353 40.9434C22.3585 40.9434 22.4825 40.9262 22.6026 40.8907L29.0564 38.9851L23.4624 34.3396L21.1948 39.7129C21.0534 40.0481 21.1545 40.4214 21.455 40.6729C21.6655 40.8492 21.9475 40.9434 22.2353 40.9434Z" fill="#3C5156"/>
<path d="M25.9639 36.9812L22.0972 37.9945L21.1948 39.8665C21.0534 40.1599 21.1545 40.4868 21.455 40.7069C21.6656 40.8611 21.9477 40.9435 22.2354 40.9435C22.3587 40.9435 22.4826 40.9284 22.6027 40.8973L29.0564 39.2292L25.9639 36.9812Z" fill="#304144"/>
<path d="M59.1027 10.378L52.3035 4.26056C51.8612 3.86285 51.1446 3.86285 50.7024 4.26056L46.2266 8.28773L54.6234 15.8491L59.1027 11.8188C59.3149 11.6277 59.4341 11.3688 59.4341 11.0985C59.4341 10.8283 59.3148 10.5693 59.1027 10.378Z" fill="#FF6137"/>
<path d="M62.3901 4.06151L58.8885 0.906492C58.2398 0.321933 57.3768 0 56.4592 0C55.5416 0 54.6788 0.321933 54.0299 0.906492L51.7989 2.91671L51.0004 3.63623L50.1885 4.36778L58.5641 11.8868L59.7602 10.8089L62.39 8.43929C63.0387 7.85473 63.396 7.07712 63.396 6.25033C63.396 5.42355 63.0389 4.64621 62.3901 4.06151Z" fill="#546F7A"/>
<path d="M50.2024 4.13794L50.1885 4.15052L52.717 6.42059L50.2024 4.13794Z" fill="#475D63"/>
<path d="M62.5347 3.84052L59.7386 1.3208C60.1959 1.86849 60.4468 2.53199 60.4468 3.23198C60.4468 4.078 60.0853 4.87342 59.4288 5.47184L56.7678 7.89654L55.5732 8.98536L58.6636 11.7601L59.874 10.6692L62.535 8.27114C63.1914 7.67956 63.553 6.89262 63.553 6.0559C63.553 5.21918 63.1911 4.43223 62.5347 3.84052Z" fill="#475D63"/>
<path d="M69.3662 33.097C68.9829 32.9381 68.5417 33.0259 68.2481 33.3193L33.3191 68.2485C33.0257 68.542 32.9379 68.9833 33.0967 69.3666C33.2554 69.75 33.6296 69.9999 34.0445 69.9999H68.9737C69.5403 69.9999 69.9997 69.5407 69.9997 68.974V34.0449C69.9995 33.63 69.7495 33.2556 69.3662 33.097ZM50.3451 61.7011L61.5569 50.4893V61.7011H50.3451Z" fill="#B49077"/>
<path d="M69.436 33.097C69.0943 32.9381 68.7011 33.0259 68.4395 33.3193L66.0381 36.0136V69.9999H69.086C69.5909 69.9999 70.0003 69.5407 70.0003 68.974V34.0449C70.0005 33.63 69.7776 33.2556 69.436 33.097Z" fill="#7B5F4C"/>
<path d="M69.9983 45.7594H66.0479C65.4804 45.7594 65.0205 46.2193 65.0205 46.7868C65.0205 47.3544 65.4804 47.8143 66.0479 47.8143H69.9983V45.7594Z" fill="#E0E0E2"/>
<path d="M69.9983 50.9104H66.0479C65.4804 50.9104 65.0205 51.3703 65.0205 51.9378C65.0205 52.5054 65.4804 52.9653 66.0479 52.9653H69.9983V50.9104Z" fill="#E0E0E2"/>
<path d="M69.9983 56.061H66.0479C65.4804 56.061 65.0205 56.521 65.0205 57.0885C65.0205 57.656 65.4804 58.1159 66.0479 58.1159H69.9983V56.061Z" fill="#E0E0E2"/>
<path d="M69.9983 61.212H66.0479C65.4804 61.212 65.0205 61.6721 65.0205 62.2395C65.0205 62.807 65.4804 63.2669 66.0479 63.2669H69.9983V61.212Z" fill="#E0E0E2"/>
</svg>
