<svg width="62" height="70" viewBox="0 0 62 70" fill="none" xmlns="http://www.w3.org/2000/svg">
<path d="M44.8086 14.0286L44.8236 69.4503L0.554102 69.4613L0.539062 5.07083L36.1228 5.06262L44.8086 14.0286Z" fill="white"/>
<path d="M49.3346 9.50745V64.9291H5.06641V0.538696H40.6502L49.3346 9.50745Z" fill="white"/>
<path d="M13.5218 24.3606C13.5218 24.3606 13.2716 8.87036 27.1376 8.87036C41.0036 8.87036 40.8792 24.3606 40.8792 24.3606H13.5218Z" fill="#B49077"/>
<path d="M41.567 23.4871H12.8355C11.8698 23.4871 11.0869 24.27 11.0869 25.2357C11.0869 26.2014 11.8698 26.9843 12.8355 26.9843H41.567C42.5327 26.9843 43.3156 26.2014 43.3156 25.2357C43.3156 24.27 42.5327 23.4871 41.567 23.4871Z" fill="#B49077"/>
<path d="M28.5668 6.74719H25.8352C24.4851 6.74719 23.3906 7.84165 23.3906 9.19172V14.5456C23.3906 15.8957 24.4851 16.9902 25.8352 16.9902H28.5668C29.9169 16.9902 31.0113 15.8957 31.0113 14.5456V9.19172C31.0113 7.84165 29.9169 6.74719 28.5668 6.74719Z" fill="#B49077"/>
<path d="M49.4012 9.50745H40.7168V0.538696L49.4012 9.50745Z" fill="#EBFDFF"/>
<path d="M58.1023 16.4213C58.1023 14.9406 56.902 13.7402 55.4213 13.7402C53.9406 13.7402 52.7402 14.9406 52.7402 16.4213V55.6144C52.7402 57.0952 53.9406 58.2955 55.4213 58.2955C56.902 58.2955 58.1023 57.0952 58.1023 55.6144V16.4213Z" fill="#B49077"/>
<path d="M0.555078 69.9999C0.412213 69.9999 0.2752 69.9432 0.17418 69.8422C0.0731591 69.7411 0.0164061 69.6041 0.0164061 69.4613L0 5.06675C0 4.92388 0.0567528 4.78687 0.157773 4.68585C0.258794 4.58483 0.395807 4.52808 0.538672 4.52808H5.0668C5.20966 4.52808 5.34667 4.58483 5.44769 4.68585C5.54872 4.78687 5.60547 4.92388 5.60547 5.06675C5.60547 5.20961 5.54872 5.34663 5.44769 5.44765C5.34667 5.54867 5.20966 5.60542 5.0668 5.60542H1.07734L1.09238 68.9185L33.9527 68.9103C34.0956 68.9103 34.2326 68.967 34.3336 69.0681C34.4347 69.1691 34.4914 69.3061 34.4914 69.449C34.4914 69.5918 34.4347 69.7289 34.3336 69.8299C34.2326 69.9309 34.0956 69.9876 33.9527 69.9876L0.555078 69.9999Z" fill="#34363C"/>
<path d="M36.3199 69.9917C36.1771 69.9917 36.04 69.9349 35.939 69.8339C35.838 69.7329 35.7812 69.5958 35.7812 69.453C35.7812 69.3101 35.838 69.1731 35.939 69.0721C36.04 68.9711 36.1771 68.9143 36.3199 68.9143H44.2838V64.9413C44.2838 64.7984 44.3405 64.6614 44.4416 64.5604C44.5426 64.4593 44.6796 64.4026 44.8225 64.4026C44.9653 64.4026 45.1023 64.4593 45.2034 64.5604C45.3044 64.6614 45.3611 64.7984 45.3611 64.9413V69.453C45.3611 69.5958 45.3044 69.7329 45.2034 69.8339C45.1023 69.9349 44.9653 69.9917 44.8225 69.9917H36.3199Z" fill="#34363C"/>
<path d="M33.9537 20.2782C33.8108 20.2782 33.6738 20.2214 33.5728 20.1204C33.4718 20.0194 33.415 19.8824 33.415 19.7395V10.5165C33.415 10.3736 33.4718 10.2366 33.5728 10.1356C33.6738 10.0345 33.8108 9.97778 33.9537 9.97778C34.0966 9.97778 34.2336 10.0345 34.3346 10.1356C34.4356 10.2366 34.4924 10.3736 34.4924 10.5165V19.7381C34.4926 19.809 34.4788 19.8792 34.4518 19.9447C34.4248 20.0102 34.3851 20.0697 34.3351 20.1199C34.2851 20.1701 34.2256 20.2099 34.1602 20.237C34.0947 20.2642 34.0246 20.2782 33.9537 20.2782Z" fill="#34363C"/>
<path d="M20.3365 20.2782C20.1937 20.2782 20.0566 20.2214 19.9556 20.1204C19.8546 20.0194 19.7979 19.8824 19.7979 19.7395V10.5165C19.7979 10.3736 19.8546 10.2366 19.9556 10.1356C20.0566 10.0345 20.1937 9.97778 20.3365 9.97778C20.4794 9.97778 20.6164 10.0345 20.7174 10.1356C20.8184 10.2366 20.8752 10.3736 20.8752 10.5165V19.7381C20.8754 19.809 20.8616 19.8792 20.8346 19.9447C20.8076 20.0102 20.7679 20.0697 20.7179 20.1199C20.6679 20.1701 20.6084 20.2099 20.543 20.237C20.4775 20.2642 20.4074 20.2782 20.3365 20.2782Z" fill="#34363C"/>
<path d="M41.5666 27.5229H31.757C31.6142 27.5229 31.4771 27.4661 31.3761 27.3651C31.2751 27.2641 31.2184 27.127 31.2184 26.9842C31.2184 26.8413 31.2751 26.7043 31.3761 26.6033C31.4771 26.5023 31.6142 26.4455 31.757 26.4455H41.5666C41.8877 26.4455 42.1956 26.318 42.4227 26.0909C42.6497 25.8639 42.7772 25.5559 42.7772 25.2349C42.7772 24.9138 42.6497 24.6058 42.4227 24.3788C42.1956 24.1518 41.8877 24.0242 41.5666 24.0242H12.8352C12.5141 24.0242 12.2061 24.1518 11.9791 24.3788C11.7521 24.6058 11.6245 24.9138 11.6245 25.2349C11.6245 25.5559 11.7521 25.8639 11.9791 26.0909C12.2061 26.318 12.5141 26.4455 12.8352 26.4455H28.9803C29.1231 26.4455 29.2601 26.5023 29.3612 26.6033C29.4622 26.7043 29.5189 26.8413 29.5189 26.9842C29.5189 27.127 29.4622 27.2641 29.3612 27.3651C29.2601 27.4661 29.1231 27.5229 28.9803 27.5229H12.8352C12.2285 27.5229 11.6467 27.2819 11.2178 26.8529C10.7888 26.424 10.5479 25.8422 10.5479 25.2355C10.5479 24.6289 10.7888 24.0471 11.2178 23.6182C11.6467 23.1892 12.2285 22.9482 12.8352 22.9482H41.5666C42.1732 22.9482 42.755 23.1892 43.184 23.6182C43.6129 24.0471 43.8539 24.6289 43.8539 25.2355C43.8539 25.8422 43.6129 26.424 43.184 26.8529C42.755 27.2819 42.1732 27.5229 41.5666 27.5229Z" fill="#34363C"/>
<path d="M38.7466 38.1189H15.9049C14.9819 38.1189 14.0968 38.0823 13.4441 38.0174C12.7915 37.9524 12.4248 37.8642 12.4248 37.7723C12.4248 37.6804 12.7915 37.5923 13.4441 37.5273C14.0968 37.4623 14.9819 37.4258 15.9049 37.4258H38.7466C39.6696 37.4258 40.5548 37.4623 41.2075 37.5273C41.8601 37.5923 42.2268 37.6804 42.2268 37.7723C42.2268 37.8642 41.8601 37.9524 41.2075 38.0174C40.5548 38.0823 39.6696 38.1189 38.7466 38.1189Z" fill="#34363C"/>
<path d="M38.7466 41.5842H15.9049C14.9819 41.5842 14.0968 41.5477 13.4441 41.4827C12.7915 41.4177 12.4248 41.3296 12.4248 41.2376C12.4248 41.1457 12.7915 41.0576 13.4441 40.9926C14.0968 40.9276 14.9819 40.8911 15.9049 40.8911H38.7466C39.6696 40.8911 40.5548 40.9276 41.2075 40.9926C41.8601 41.0576 42.2268 41.1457 42.2268 41.2376C42.2268 41.3296 41.8601 41.4177 41.2075 41.4827C40.5548 41.5477 39.6696 41.5842 38.7466 41.5842Z" fill="#34363C"/>
<path d="M38.7466 41.5842H15.9049C14.9819 41.5842 14.0968 41.5477 13.4441 41.4827C12.7915 41.4177 12.4248 41.3296 12.4248 41.2376C12.4248 41.1457 12.7915 41.0576 13.4441 40.9926C14.0968 40.9276 14.9819 40.8911 15.9049 40.8911H38.7466C39.6696 40.8911 40.5548 40.9276 41.2075 40.9926C41.8601 41.0576 42.2268 41.1457 42.2268 41.2376C42.2268 41.3296 41.8601 41.4177 41.2075 41.4827C40.5548 41.5477 39.6696 41.5842 38.7466 41.5842Z" fill="#34363C"/>
<path d="M38.7466 45.7426H15.9049C14.9819 45.7426 14.0968 45.7061 13.4441 45.6411C12.7915 45.5761 12.4248 45.488 12.4248 45.3961C12.4248 45.3042 12.7915 45.216 13.4441 45.1511C14.0968 45.0861 14.9819 45.0496 15.9049 45.0496H38.7466C39.6696 45.0496 40.5548 45.0861 41.2075 45.1511C41.8601 45.216 42.2268 45.3042 42.2268 45.3961C42.2268 45.488 41.8601 45.5761 41.2075 45.6411C40.5548 45.7061 39.6696 45.7426 38.7466 45.7426Z" fill="#34363C"/>
<path d="M38.7466 49.901H15.9049C14.9819 49.901 14.0968 49.8644 13.4441 49.7995C12.7915 49.7345 12.4248 49.6463 12.4248 49.5544C12.4248 49.4625 12.7915 49.3744 13.4441 49.3094C14.0968 49.2444 14.9819 49.2079 15.9049 49.2079H38.7466C39.6696 49.2079 40.5548 49.2444 41.2075 49.3094C41.8601 49.3744 42.2268 49.4625 42.2268 49.5544C42.2268 49.6463 41.8601 49.7345 41.2075 49.7995C40.5548 49.8644 39.6696 49.901 38.7466 49.901Z" fill="#34363C"/>
<path d="M38.7466 54.0594H15.9049C14.9819 54.0594 14.0968 54.0229 13.4441 53.9579C12.7915 53.8929 12.4248 53.8048 12.4248 53.7129C12.4248 53.621 12.7915 53.5328 13.4441 53.4678C14.0968 53.4028 14.9819 53.3663 15.9049 53.3663H38.7466C39.6696 53.3663 40.5548 53.4028 41.2075 53.4678C41.8601 53.5328 42.2268 53.621 42.2268 53.7129C42.2268 53.8048 41.8601 53.8929 41.2075 53.9579C40.5548 54.0229 39.6696 54.0594 38.7466 54.0594Z" fill="#34363C"/>
<path d="M61.0449 34.3163C60.9021 34.3163 60.765 34.2596 60.664 34.1585C60.563 34.0575 60.5063 33.9205 60.5063 33.7776V19.5616C60.5063 17.7692 59.6613 17.7692 59.3428 17.7692H58.1861C58.0433 17.7692 57.9063 17.7125 57.8052 17.6115C57.7042 17.5104 57.6475 17.3734 57.6475 17.2306C57.6475 17.0877 57.7042 16.9507 57.8052 16.8497C57.9063 16.7486 58.0433 16.6919 58.1861 16.6919H59.3428C60.0168 16.6919 61.5836 16.9653 61.5836 19.563V33.7694C61.5847 33.8409 61.5716 33.9118 61.545 33.9781C61.5184 34.0444 61.4789 34.1048 61.4288 34.1556C61.3786 34.2065 61.3189 34.247 61.253 34.2745C61.1871 34.3021 61.1164 34.3163 61.0449 34.3163Z" fill="#34363C"/>
<path d="M58.1023 28.8969H53.0123C52.8694 28.8969 52.7324 28.8402 52.6314 28.7391C52.5304 28.6381 52.4736 28.5011 52.4736 28.3583C52.4736 28.2154 52.5304 28.0784 52.6314 27.9774C52.7324 27.8763 52.8694 27.8196 53.0123 27.8196H58.1023C58.2452 27.8196 58.3822 27.8763 58.4832 27.9774C58.5843 28.0784 58.641 28.2154 58.641 28.3583C58.641 28.5011 58.5843 28.6381 58.4832 28.7391C58.3822 28.8402 58.2452 28.8969 58.1023 28.8969Z" fill="#34363C"/>
<path d="M49.3352 65.4664H5.06699C4.92413 65.4664 4.78711 65.4096 4.68609 65.3086C4.58507 65.2076 4.52832 65.0706 4.52832 64.9277V16.6168C4.52832 16.5461 4.54225 16.476 4.56932 16.4107C4.59639 16.3453 4.63607 16.2859 4.68609 16.2359C4.73611 16.1859 4.7955 16.1462 4.86085 16.1191C4.92621 16.0921 4.99625 16.0781 5.06699 16.0781C5.13773 16.0781 5.20778 16.0921 5.27313 16.1191C5.33849 16.1462 5.39787 16.1859 5.44789 16.2359C5.49791 16.2859 5.53759 16.3453 5.56466 16.4107C5.59173 16.476 5.60566 16.5461 5.60566 16.6168V64.3945H48.7965V9.7248L40.4225 1.07734H5.60566V13.9111C5.60566 14.054 5.54891 14.191 5.44789 14.292C5.34687 14.3931 5.20986 14.4498 5.06699 14.4498C4.92413 14.4498 4.78711 14.3931 4.68609 14.292C4.58507 14.191 4.52832 14.054 4.52832 13.9111V0.538672C4.52832 0.395807 4.58507 0.258794 4.68609 0.157773C4.78711 0.0567528 4.92413 0 5.06699 0L40.6508 0C40.723 2.2984e-05 40.7944 0.0145583 40.8609 0.0427422C40.9274 0.070926 40.9875 0.112183 41.0377 0.164062L49.7221 9.13281C49.8194 9.23325 49.8738 9.36759 49.8738 9.50742V64.9291C49.8735 65.0717 49.8166 65.2084 49.7156 65.3091C49.6146 65.4098 49.4778 65.4664 49.3352 65.4664Z" fill="#34363C"/>
<path d="M31.01 17.5288C30.8671 17.5288 30.7301 17.472 30.6291 17.371C30.528 17.27 30.4713 17.133 30.4713 16.9901V9.22859C30.4709 8.71344 30.2661 8.2195 29.9019 7.85524C29.5376 7.49098 29.0437 7.28618 28.5285 7.28582H25.8693C25.3544 7.28654 24.8608 7.4915 24.4969 7.85572C24.1329 8.21995 23.9283 8.71368 23.9279 9.22859V16.9915C23.9279 17.1343 23.8712 17.2714 23.7702 17.3724C23.6691 17.4734 23.5321 17.5302 23.3893 17.5302C23.2464 17.5302 23.1094 17.4734 23.0084 17.3724C22.9073 17.2714 22.8506 17.1343 22.8506 16.9915V9.22859C22.8517 8.4283 23.1701 7.6611 23.736 7.09521C24.3018 6.52932 25.069 6.21092 25.8693 6.20984H28.5271C29.3279 6.2102 30.0958 6.52828 30.6623 7.09424C31.2288 7.66021 31.5475 8.42783 31.5486 9.22859V16.9915C31.5483 17.1341 31.4914 17.2708 31.3904 17.3715C31.2894 17.4722 31.1526 17.5288 31.01 17.5288Z" fill="#34363C"/>
<path d="M55.4209 58.8355C54.5672 58.8348 53.7487 58.4953 53.145 57.8917C52.5413 57.288 52.2019 56.4695 52.2012 55.6158V16.4213C52.2012 15.5673 52.5404 14.7484 53.1442 14.1446C53.748 13.5408 54.567 13.2015 55.4209 13.2015C56.2748 13.2015 57.0938 13.5408 57.6976 14.1446C58.3014 14.7484 58.6406 15.5673 58.6406 16.4213V40.7217C58.6406 40.8645 58.5839 41.0015 58.4828 41.1026C58.3818 41.2036 58.2448 41.2603 58.102 41.2603C57.9591 41.2603 57.8221 41.2036 57.7211 41.1026C57.62 41.0015 57.5633 40.8645 57.5633 40.7217V16.4213C57.5633 15.8531 57.3376 15.3081 56.9358 14.9064C56.534 14.5046 55.9891 14.2789 55.4209 14.2789C54.8527 14.2789 54.3078 14.5046 53.906 14.9064C53.5042 15.3081 53.2785 15.8531 53.2785 16.4213V55.6158C53.2785 56.184 53.5042 56.7289 53.906 57.1307C54.3078 57.5325 54.8527 57.7582 55.4209 57.7582C55.9891 57.7582 56.534 57.5325 56.9358 57.1307C57.3376 56.7289 57.5633 56.184 57.5633 55.6158V42.9885C57.5633 42.8456 57.62 42.7086 57.7211 42.6076C57.8221 42.5065 57.9591 42.4498 58.102 42.4498C58.2448 42.4498 58.3818 42.5065 58.4828 42.6076C58.5839 42.7086 58.6406 42.8456 58.6406 42.9885V55.6158C58.6399 56.4695 58.3004 57.288 57.6968 57.8917C57.0931 58.4953 56.2746 58.8348 55.4209 58.8355Z" fill="#34363C"/>
<path d="M40.8785 24.0256H13.5211C13.3799 24.0256 13.2443 23.9702 13.1435 23.8712C13.0428 23.7723 12.9849 23.6377 12.9824 23.4965C13.0139 21.313 13.4147 19.1505 14.1678 17.1008C15.8084 12.6725 18.9338 9.7918 23.2131 8.76914C23.35 8.74125 23.4924 8.76766 23.6102 8.84279C23.728 8.91792 23.8121 9.0359 23.8445 9.17181C23.877 9.30772 23.8554 9.45093 23.7843 9.5712C23.7131 9.69147 23.598 9.7794 23.4633 9.81641C19.4984 10.7625 16.7203 13.3287 15.1891 17.4439C14.5462 19.2137 14.1702 21.0692 14.0734 22.9496H40.3234C40.211 21.0802 39.824 19.2376 39.175 17.4809C37.6273 13.3848 34.8492 10.8145 30.9281 9.84375C30.7894 9.80949 30.67 9.72153 30.5962 9.59923C30.5596 9.53867 30.5353 9.4715 30.5247 9.40156C30.5141 9.33162 30.5174 9.26028 30.5344 9.1916C30.5513 9.12293 30.5817 9.05827 30.6236 9.00131C30.6656 8.94436 30.7183 8.89623 30.7789 8.85966C30.9012 8.78582 31.0478 8.76359 31.1865 8.79785C35.4248 9.84649 38.5379 12.7299 40.1936 17.1377C40.9562 19.1727 41.3722 21.3212 41.424 23.4937C41.4231 23.5645 41.4083 23.6344 41.3804 23.6994C41.3525 23.7644 41.3121 23.8233 41.2614 23.8727C41.2108 23.922 41.1509 23.961 41.0852 23.9872C41.0195 24.0134 40.9493 24.0265 40.8785 24.0256Z" fill="#34363C"/>
<path d="M49.4018 10.046H40.7174C40.5745 10.046 40.4375 9.98929 40.3365 9.88826C40.2355 9.78724 40.1787 9.65023 40.1787 9.50737V0.538617C40.1787 0.431362 40.2108 0.32656 40.2708 0.237634C40.3307 0.148707 40.4159 0.079706 40.5153 0.0394679C40.6147 -0.00077029 40.7239 -0.0104132 40.8288 0.0117743C40.9338 0.0339618 41.0297 0.0869695 41.1043 0.164008L49.7887 9.13276C49.8622 9.20877 49.9118 9.30475 49.9311 9.40873C49.9505 9.51272 49.9388 9.6201 49.8976 9.7175C49.8563 9.81489 49.7873 9.89798 49.6991 9.95641C49.611 10.0148 49.5075 10.046 49.4018 10.046ZM41.2547 8.96869H48.1303L41.2547 1.86889V8.96869Z" fill="#34363C"/>
</svg>
