<svg width="70" height="63" viewBox="0 0 70 63" fill="none" xmlns="http://www.w3.org/2000/svg">
<path fill-rule="evenodd" clip-rule="evenodd" d="M29.4483 39.4215C29.4483 33.9918 29.4736 32.8688 25.8565 29.3569C23.3625 26.9386 21.8105 23.5402 21.8105 19.776C21.8105 12.4284 27.7155 6.4729 35.0002 6.4729C42.2848 6.4729 48.1855 12.4283 48.1855 19.776C48.1855 23.5402 46.6335 26.9386 44.1437 29.3569C40.5266 32.8688 40.5477 33.9918 40.5477 39.4215H29.4483Z" fill="#7B5F4C"/>
<path fill-rule="evenodd" clip-rule="evenodd" d="M29.4483 39.4216C29.4483 33.9919 29.4736 32.8688 25.8565 29.357C23.3625 26.9387 21.8105 23.5403 21.8105 19.7761C21.8105 12.664 27.3455 6.85148 34.3104 6.48975C41.271 6.85148 46.8059 12.664 46.8059 19.7761C46.8059 23.5403 45.2539 26.9387 42.7641 29.357C39.147 32.8688 39.1681 33.9919 39.1681 39.4216H29.4483Z" fill="#B49077"/>
<path d="M32.9473 22.6527H37.0522V37.4994H32.9473V22.6527Z" fill="#B49077"/>
<path d="M30.9116 21.4666H31.7571V20.6087C31.7571 20.2302 31.6477 19.9063 31.4501 19.6918C31.2944 19.5194 31.0547 19.4142 30.752 19.4142C30.4702 19.4142 30.222 19.5277 30.037 19.7085C29.8561 19.8935 29.7426 20.1501 29.7426 20.4403C29.7426 20.7557 29.852 20.9997 30.0244 21.1638C30.2346 21.3572 30.5499 21.4666 30.9116 21.4666ZM39.0836 23.8388H38.2381V40.8346H31.7569V23.8388H30.9115C29.9484 23.8388 29.0525 23.4981 28.4006 22.8883C27.7655 22.2868 27.3701 21.4541 27.3701 20.4405C27.3701 19.5067 27.7486 18.6572 28.3584 18.0389C28.9725 17.4206 29.8178 17.038 30.7515 17.038C31.7651 17.038 32.5979 17.4375 33.1951 18.0852C33.7966 18.7413 34.133 19.6372 34.133 20.6087V21.4666H35.8658V20.6087C35.8658 19.6372 36.198 18.7413 36.8037 18.0852C37.4009 17.4375 38.2337 17.038 39.2472 17.038C40.1768 17.038 41.0221 17.4208 41.6362 18.0389C42.2503 18.6572 42.6288 19.5067 42.6288 20.4405C42.6288 21.4541 42.2334 22.2868 41.5942 22.8883C40.9422 23.4981 40.0507 23.8388 39.0833 23.8388H39.0836ZM38.2383 21.4666H39.0837C39.4496 21.4666 39.765 21.3572 39.9753 21.1638C40.1477 20.9998 40.2529 20.7557 40.2529 20.4403C40.2529 20.1501 40.1394 19.8935 39.9585 19.7085C39.7777 19.5277 39.5253 19.4142 39.2477 19.4142C38.9407 19.4142 38.7051 19.5194 38.5453 19.6918C38.3476 19.9063 38.2383 20.2301 38.2383 20.6087V21.4666ZM35.8661 23.8388H34.1333V38.4583H35.8661V23.8388Z" fill="#7B5F4C"/>
<path d="M50.5033 9.45477C51.0711 9.12672 51.7944 9.3202 52.1225 9.88802C52.4505 10.4515 52.257 11.1792 51.6892 11.5072L50.2635 12.3316C49.6957 12.6555 48.9724 12.4662 48.6443 11.8983C48.3163 11.3305 48.5097 10.6072 49.0776 10.2791L50.5033 9.45477ZM33.8144 1.18609C33.8144 0.529988 34.3444 0 35.0005 0C35.6566 0 36.1866 0.529988 36.1866 1.18609V2.83481C36.1866 3.49092 35.6566 4.02091 35.0005 4.02091C34.3444 4.02091 33.8144 3.49092 33.8144 2.83481V1.18609ZM24.6794 4.26899C24.3555 3.70532 24.5448 2.982 25.1127 2.65395C25.6805 2.3259 26.4038 2.51937 26.7319 3.08289L27.5562 4.51291C27.8843 5.07643 27.6908 5.7999 27.123 6.12795C26.5594 6.45601 25.8318 6.26253 25.5038 5.69901L24.6794 4.26899ZM18.3075 11.5072C17.744 11.1792 17.5505 10.4515 17.8786 9.88802C18.2066 9.3202 18.9301 9.12672 19.4978 9.45477L20.9235 10.2791C21.487 10.6072 21.6805 11.3305 21.3524 11.8983C21.0285 12.4662 20.3009 12.6553 19.7374 12.3316L18.3074 11.5072H18.3075ZM43.2692 3.0872C43.5931 2.52353 44.3164 2.3259 44.8801 2.65395C45.4479 2.97785 45.6414 3.70116 45.3175 4.26483L44.4931 5.69485C44.1692 6.25837 43.4459 6.45615 42.8822 6.1281C42.3144 5.8042 42.1209 5.08088 42.4448 4.51722L43.2692 3.0872Z" fill="#7B5F4C"/>
<path d="M50.5033 9.45479C50.5663 9.41696 50.6337 9.38743 50.7009 9.36221C50.9616 9.45479 51.1888 9.63136 51.3359 9.88789C51.6598 10.4514 51.4705 11.179 50.9027 11.5071L49.477 12.3314C49.4098 12.3651 49.3424 12.3988 49.275 12.4197C49.0185 12.3314 48.7914 12.1506 48.6442 11.8982C48.3161 11.3304 48.5096 10.6071 49.0774 10.279L50.5031 9.45464L50.5033 9.45479ZM34.6053 0.0673828C35.0679 0.231335 35.4001 0.668739 35.4001 1.18612V2.83484C35.4001 3.35221 35.0679 3.79377 34.6053 3.95357C34.1426 3.79377 33.8146 3.35206 33.8146 2.83484V1.18612C33.8146 0.668739 34.1426 0.231335 34.6053 0.0673828ZM25.3103 2.56138C25.5668 2.64967 25.7981 2.83053 25.9453 3.08292L26.7655 4.51293C27.0936 5.07645 26.9001 5.79992 26.3366 6.12797C26.2735 6.16581 26.2062 6.19949 26.1346 6.22056C25.8781 6.13228 25.651 5.95141 25.5038 5.69903L24.6794 4.26901C24.3555 3.70534 24.5448 2.98202 25.1127 2.65397C25.1757 2.61613 25.2431 2.58661 25.3103 2.56138ZM18.5095 9.36221C18.5768 9.38743 18.644 9.41696 18.7071 9.45479L20.1371 10.2792C20.7006 10.6072 20.8941 11.3305 20.5661 11.8983C20.4189 12.1507 20.1917 12.3316 19.9352 12.4199C19.8678 12.3988 19.8006 12.3653 19.7375 12.3316L18.3075 11.5072C17.744 11.1792 17.5505 10.4516 17.8786 9.88804C18.0258 9.63151 18.2529 9.45465 18.5095 9.36221ZM43.9001 2.56138C43.9675 2.58661 44.0305 2.61613 44.0936 2.65397C44.6614 2.97787 44.8549 3.70119 44.531 4.26485L43.7066 5.69487C43.5594 5.94726 43.3323 6.12812 43.0757 6.22056C43.0085 6.19534 42.9453 6.16596 42.8822 6.12797C42.3144 5.80408 42.1209 5.08076 42.4448 4.51709L43.2692 3.08707C43.4164 2.83469 43.6436 2.65382 43.9001 2.56138Z" fill="#B49077"/>
<path fill-rule="evenodd" clip-rule="evenodd" d="M40.4465 47.6102L67.4817 43.337L65.3619 51.0757L45.9814 51.4248L65.3619 51.08L63.6627 57.2963L35.3027 59.4707V51.9507C35.3027 49.2043 37.7337 48.0393 40.4465 47.6102Z" fill="#34363C"/>
<path fill-rule="evenodd" clip-rule="evenodd" d="M64.2432 51.0969L63.7132 53.1452L62.6197 57.3763L35.3027 59.4708V54.0158C35.3027 51.2736 37.6034 50.1086 40.1605 49.6796L65.7152 45.4065L64.2432 51.097V51.0969Z" fill="#ECEFF1"/>
<path d="M45.9821 50.2473C45.3344 50.2473 44.8086 50.773 44.8086 51.425L64.2354 51.0801L64.2312 51.1012L63.819 52.6027H45.9821C45.3344 52.6027 44.8086 52.0727 44.8086 51.4251L64.2397 51.076L64.4668 50.2475H45.9821V50.2473Z" fill="#B49077"/>
<path fill-rule="evenodd" clip-rule="evenodd" d="M30.1586 47.6102L3.11914 43.337L5.23895 51.0757L24.6194 51.4248L5.23895 51.08L6.94227 57.2963L35.3023 58.5033V51.9505C35.3023 49.2042 32.867 48.0391 30.1585 47.61L30.1586 47.6102Z" fill="#34363C"/>
<path fill-rule="evenodd" clip-rule="evenodd" d="M6.35858 51.0969L6.88857 53.1452L7.98208 57.3763L35.3033 58.5035V54.0158C35.3033 51.2736 33.0028 50.1086 30.4414 49.6796L4.88672 45.4065L6.35873 51.097L6.35858 51.0969Z" fill="#ECEFF1"/>
<path d="M24.6204 50.2473C25.268 50.2473 25.7939 50.773 25.798 51.425L6.36696 51.0801L6.37111 51.1012L6.78329 52.6027H24.6202C25.2679 52.6027 25.7979 52.0727 25.7979 51.4251L6.36681 51.076L6.13965 50.2475H24.6201L24.6204 50.2473Z" fill="#B49077"/>
<path fill-rule="evenodd" clip-rule="evenodd" d="M35.0001 62.806C36.1566 62.806 37.1408 61.9228 37.2754 60.7662H68.0159C70.6614 60.7662 70.6614 56.1398 68.0159 56.1398H1.98412C-0.661373 56.1398 -0.661373 60.7662 1.98412 60.7662H32.7205C32.8592 61.9228 33.8434 62.806 35.0001 62.806Z" fill="#7B5F4C"/>
<path fill-rule="evenodd" clip-rule="evenodd" d="M69.9504 57.9231C69.778 56.9683 69.1345 56.1398 68.0158 56.1398H1.98386C0.865128 56.1398 0.217331 56.9683 0.0449219 57.9231C0.217331 58.8778 0.865128 59.7064 1.98386 59.7064H32.7202C32.8589 60.8629 33.8431 61.7462 34.9998 61.7462C36.1565 61.7462 37.1405 60.8629 37.2751 59.7064H68.0156C69.1344 59.7064 69.778 58.8778 69.9504 57.9231Z" fill="#B49077"/>
<path fill-rule="evenodd" clip-rule="evenodd" d="M33.911 39.4215H36.0895C38.0789 39.4215 39.7066 41.0492 39.7066 43.0385C39.7066 45.0279 38.0789 46.6556 36.0895 46.6556H33.911C31.9216 46.6556 30.2939 45.0279 30.2939 43.0385C30.2939 41.0492 31.9216 39.4215 33.911 39.4215Z" fill="#B4C2ED"/>
<path fill-rule="evenodd" clip-rule="evenodd" d="M33.911 39.4215H34.7058C36.6994 39.4215 38.327 41.0492 38.327 43.0385C38.327 45.0279 36.6994 46.6556 34.7058 46.6556H33.911C31.9216 46.6556 30.2939 45.0279 30.2939 43.0385C30.2939 41.0492 31.9216 39.4215 33.911 39.4215Z" fill="#C5CFF1"/>
<path fill-rule="evenodd" clip-rule="evenodd" d="M30.2773 37.4994H39.7195C40.9812 37.4994 42.0117 38.5298 42.0117 39.7873C42.0117 41.0449 40.9812 42.0752 39.7195 42.0752H30.2773C29.0197 42.0752 27.9893 41.0448 27.9893 39.7873C27.9893 38.5297 29.0197 37.4994 30.2773 37.4994Z" fill="#C5CFF1"/>
<path fill-rule="evenodd" clip-rule="evenodd" d="M30.2773 37.4994H38.3399C39.5975 37.4994 40.628 38.5298 40.628 39.7873C40.628 41.0449 39.5975 42.0752 38.3399 42.0752H30.2773C29.0197 42.0752 27.9893 41.0448 27.9893 39.7873C27.9893 38.5297 29.0197 37.4994 30.2773 37.4994Z" fill="#E8ECF9"/>
</svg>
