<svg width="70" height="70" viewBox="0 0 70 70" fill="none" xmlns="http://www.w3.org/2000/svg">
<path d="M7.7959 62.2049H63.168C63.9734 62.2049 64.7458 61.885 65.3154 61.3155C65.8849 60.7459 66.2048 59.9735 66.2048 59.1681V3.28992H18.4249L7.7959 13.9189V62.2049Z" fill="#E0E0E2"/>
<path d="M58.5763 8.52862C59.2053 8.52862 59.7151 8.01875 59.7151 7.3898C59.7151 6.76084 59.2053 6.25098 58.5763 6.25098C57.9474 6.25098 57.4375 6.76084 57.4375 7.3898C57.4375 8.01875 57.9474 8.52862 58.5763 8.52862Z" fill="#34363C"/>
<path d="M46.5802 8.52862C47.2092 8.52862 47.719 8.01875 47.719 7.3898C47.719 6.76084 47.2092 6.25098 46.5802 6.25098C45.9513 6.25098 45.4414 6.76084 45.4414 7.3898C45.4414 8.01875 45.9513 8.52862 46.5802 8.52862Z" fill="#34363C"/>
<path d="M34.5841 8.52862C35.2131 8.52862 35.723 8.01875 35.723 7.3898C35.723 6.76084 35.2131 6.25098 34.5841 6.25098C33.9552 6.25098 33.4453 6.76084 33.4453 7.3898C33.4453 8.01875 33.9552 8.52862 34.5841 8.52862Z" fill="#34363C"/>
<path d="M22.589 8.52862C23.218 8.52862 23.7278 8.01875 23.7278 7.3898C23.7278 6.76084 23.218 6.25098 22.589 6.25098C21.9601 6.25098 21.4502 6.76084 21.4502 7.3898C21.4502 8.01875 21.9601 8.52862 22.589 8.52862Z" fill="#34363C"/>
<path d="M41.9717 27.6931V35.5889H37.4164C37.215 35.5889 37.0219 35.509 36.8796 35.3666C36.7372 35.2242 36.6572 35.0311 36.6572 34.8297V28.4523C36.6572 28.251 36.7372 28.0579 36.8796 27.9155C37.0219 27.7731 37.215 27.6931 37.4164 27.6931H41.9717Z" fill="#B49077"/>
<path d="M57.915 16.4567V34.8297C57.915 35.0311 57.8351 35.2242 57.6927 35.3666C57.5503 35.5089 57.3572 35.5889 57.1558 35.5889H52.6005V16.4567C52.6005 16.2554 52.6805 16.0623 52.8229 15.9199C52.9653 15.7775 53.1584 15.6975 53.3598 15.6975H57.1558C57.3572 15.6975 57.5503 15.7775 57.6927 15.9199C57.8351 16.0623 57.915 16.2554 57.915 16.4567Z" fill="#7B5F4C"/>
<path d="M47.2852 23.7452V35.589H41.9707V24.5045C41.9707 24.3031 42.0506 24.11 42.193 23.9676C42.3354 23.8252 42.5285 23.7452 42.7299 23.7452H47.2852Z" fill="#7B5F4C"/>
<path d="M52.6006 19.6454V35.5889H47.2861V20.4046C47.2861 20.2032 47.3661 20.0101 47.5085 19.8678C47.6508 19.7254 47.8439 19.6454 48.0453 19.6454H52.6006Z" fill="#B49077"/>
<path d="M15.3861 62.2054H7.79395V13.9194L12.3492 9.36414V59.1686C12.3495 59.9739 12.6696 60.7462 13.239 61.3157C13.8085 61.8851 14.5807 62.2052 15.3861 62.2054Z" fill="#919191"/>
<path d="M7.7959 13.9192H15.388C16.1935 13.9192 16.9659 13.5992 17.5354 13.0297C18.1049 12.4602 18.4249 11.6877 18.4249 10.8823V3.29016L7.7959 13.9192Z" fill="#919191"/>
<path d="M31.5115 25.7628H14.8087C14.5067 25.7628 14.217 25.6428 14.0035 25.4292C13.7899 25.2156 13.6699 24.926 13.6699 24.6239C13.6699 24.3219 13.7899 24.0322 14.0035 23.8187C14.217 23.6051 14.5067 23.4851 14.8087 23.4851H31.5115C31.8135 23.4851 32.1032 23.6051 32.3167 23.8187C32.5303 24.0322 32.6503 24.3219 32.6503 24.6239C32.6503 24.926 32.5303 25.2156 32.3167 25.4292C32.1032 25.6428 31.8135 25.7628 31.5115 25.7628Z" fill="#34363C"/>
<path d="M26.9346 30.9257H20.9923C20.6903 30.9257 20.4006 30.8057 20.1871 30.5922C19.9735 30.3786 19.8535 30.0889 19.8535 29.7869C19.8535 29.4849 19.9735 29.1952 20.1871 28.9816C20.4006 28.7681 20.6903 28.6481 20.9923 28.6481H26.9346C27.2366 28.6481 27.5263 28.7681 27.7398 28.9816C27.9534 29.1952 28.0734 29.4849 28.0734 29.7869C28.0734 30.0889 27.9534 30.3786 27.7398 30.5922C27.5263 30.8057 27.2366 30.9257 26.9346 30.9257Z" fill="#34363C"/>
<path d="M17.466 30.9257H14.8087C14.5067 30.9257 14.217 30.8057 14.0035 30.5922C13.7899 30.3786 13.6699 30.0889 13.6699 29.7869C13.6699 29.4849 13.7899 29.1952 14.0035 28.9816C14.217 28.7681 14.5067 28.6481 14.8087 28.6481H17.466C17.768 28.6481 18.0577 28.7681 18.2713 28.9816C18.4848 29.1952 18.6048 29.4849 18.6048 29.7869C18.6048 30.0889 18.4848 30.3786 18.2713 30.5922C18.0577 30.8057 17.768 30.9257 17.466 30.9257Z" fill="#34363C"/>
<path d="M31.5108 20.5995H19.0597C18.7577 20.5995 18.468 20.4796 18.2545 20.266C18.0409 20.0524 17.9209 19.7628 17.9209 19.4607C17.9209 19.1587 18.0409 18.869 18.2545 18.6555C18.468 18.4419 18.7577 18.3219 19.0597 18.3219H31.5108C31.8129 18.3219 32.1025 18.4419 32.3161 18.6555C32.5297 18.869 32.6497 19.1587 32.6497 19.4607C32.6497 19.7628 32.5297 20.0524 32.3161 20.266C32.1025 20.4796 31.8129 20.5995 31.5108 20.5995Z" fill="#34363C"/>
<path d="M15.9474 20.6002C16.5764 20.6002 17.0862 20.0903 17.0862 19.4613C17.0862 18.8324 16.5764 18.3225 15.9474 18.3225C15.3185 18.3225 14.8086 18.8324 14.8086 19.4613C14.8086 20.0903 15.3185 20.6002 15.9474 20.6002Z" fill="#34363C"/>
<path d="M30.3732 30.9255C31.0022 30.9255 31.512 30.4156 31.512 29.7866C31.512 29.1577 31.0022 28.6478 30.3732 28.6478C29.7442 28.6478 29.2344 29.1577 29.2344 29.7866C29.2344 30.4156 29.7442 30.9255 30.3732 30.9255Z" fill="#34363C"/>
<path d="M56.3952 50.0322H39.6925C39.3905 50.0322 39.1008 49.9122 38.8873 49.6986C38.6737 49.485 38.5537 49.1954 38.5537 48.8933C38.5537 48.5913 38.6737 48.3016 38.8873 48.0881C39.1008 47.8745 39.3905 47.7545 39.6925 47.7545H56.3952C56.6973 47.7545 56.9869 47.8745 57.2005 48.0881C57.4141 48.3016 57.5341 48.5913 57.5341 48.8933C57.5341 49.1954 57.4141 49.485 57.2005 49.6986C56.9869 49.9122 56.6973 50.0322 56.3952 50.0322Z" fill="#34363C"/>
<path d="M51.8172 55.1949H45.8751C45.5731 55.1949 45.2835 55.0749 45.0699 54.8613C44.8563 54.6478 44.7363 54.3581 44.7363 54.0561C44.7363 53.754 44.8563 53.4644 45.0699 53.2508C45.2835 53.0372 45.5731 52.9172 45.8751 52.9172H51.8172C52.1193 52.9172 52.4089 53.0372 52.6225 53.2508C52.8361 53.4644 52.956 53.754 52.956 54.0561C52.956 54.3581 52.8361 54.6478 52.6225 54.8613C52.4089 55.0749 52.1193 55.1949 51.8172 55.1949Z" fill="#34363C"/>
<path d="M42.3498 55.1949H39.6925C39.3905 55.1949 39.1008 55.0749 38.8873 54.8613C38.6737 54.6478 38.5537 54.3581 38.5537 54.0561C38.5537 53.754 38.6737 53.4644 38.8873 53.2508C39.1008 53.0372 39.3905 52.9172 39.6925 52.9172H42.3498C42.6518 52.9172 42.9415 53.0372 43.155 53.2508C43.3686 53.4644 43.4886 53.754 43.4886 54.0561C43.4886 54.3581 43.3686 54.6478 43.155 54.8613C42.9415 55.0749 42.6518 55.1949 42.3498 55.1949Z" fill="#34363C"/>
<path d="M56.3956 44.8696H43.9445C43.6425 44.8696 43.3528 44.7496 43.1392 44.536C42.9256 44.3224 42.8057 44.0328 42.8057 43.7307C42.8057 43.4287 42.9256 43.139 43.1392 42.9255C43.3528 42.7119 43.6425 42.5919 43.9445 42.5919H56.3956C56.6976 42.5919 56.9873 42.7119 57.2009 42.9255C57.4144 43.139 57.5344 43.4287 57.5344 43.7307C57.5344 44.0328 57.4144 44.3224 57.2009 44.536C56.9873 44.7496 56.6976 44.8696 56.3956 44.8696Z" fill="#34363C"/>
<path d="M40.8302 44.8692C41.4592 44.8692 41.969 44.3593 41.969 43.7304C41.969 43.1014 41.4592 42.5916 40.8302 42.5916C40.2013 42.5916 39.6914 43.1014 39.6914 43.7304C39.6914 44.3593 40.2013 44.8692 40.8302 44.8692Z" fill="#34363C"/>
<path d="M55.257 55.1952C55.8859 55.1952 56.3958 54.6854 56.3958 54.0564C56.3958 53.4275 55.8859 52.9176 55.257 52.9176C54.628 52.9176 54.1182 53.4275 54.1182 54.0564C54.1182 54.6854 54.628 55.1952 55.257 55.1952Z" fill="#34363C"/>
<path d="M35.6835 54.4042V49.9118C35.6835 49.5329 35.5419 49.1677 35.2864 48.8879C35.0309 48.6081 34.68 48.4339 34.3027 48.3996L30.952 48.0949C30.7018 47.2895 30.3772 46.5092 29.9823 45.7641L32.1385 43.1764C32.381 42.8853 32.506 42.514 32.4888 42.1355C32.4717 41.757 32.3136 41.3985 32.0457 41.1306L28.869 37.9539C28.601 37.686 28.2426 37.5279 27.8641 37.5107C27.4855 37.4936 27.1143 37.6185 26.8232 37.8611L24.2355 40.0173C23.4904 39.6224 22.7101 39.2977 21.9047 39.0476L21.6 35.6969C21.5656 35.3196 21.3915 34.9687 21.1117 34.7132C20.8319 34.4577 20.4666 34.316 20.0877 34.316H15.5958C15.2169 34.316 14.8517 34.4577 14.5719 34.7132C14.2921 34.9687 14.1179 35.3196 14.0836 35.6969L13.7788 39.0476C12.9735 39.2977 12.1932 39.6224 11.448 40.0173L8.86034 37.8611C8.56925 37.6185 8.19798 37.4936 7.81945 37.5107C7.44092 37.5279 7.08249 37.686 6.81456 37.9539L3.63785 41.1306C3.36992 41.3985 3.21184 41.757 3.19468 42.1355C3.17751 42.514 3.30249 42.8853 3.54508 43.1764L5.70124 45.7641C5.30631 46.5092 4.98168 47.2895 4.73158 48.0949L1.38086 48.3996C1.00352 48.4339 0.652643 48.6081 0.397147 48.8879C0.141651 49.1677 -4.788e-06 49.5329 1.21379e-10 49.9118V54.4042C-4.788e-06 54.7831 0.141651 55.1484 0.397147 55.4282C0.652643 55.708 1.00352 55.8821 1.38086 55.9164L4.73158 56.2212C4.98168 57.0266 5.30631 57.8069 5.70124 58.552L3.54508 61.1397C3.30249 61.4308 3.17751 61.802 3.19468 62.1806C3.21184 62.5591 3.36992 62.9175 3.63785 63.1855L6.81456 66.3622C7.08249 66.6301 7.44092 66.7882 7.81945 66.8053C8.19798 66.8225 8.56925 66.6975 8.86034 66.4549L11.448 64.2988C12.1932 64.6937 12.9735 65.0183 13.7788 65.2685L14.0836 68.6192C14.1179 68.9965 14.2921 69.3474 14.5719 69.6029C14.8517 69.8584 15.2169 70 15.5958 70H20.0882C20.4671 70 20.8323 69.8584 21.1121 69.6029C21.3919 69.3474 21.5661 68.9965 21.6004 68.6192L21.9052 65.2685C22.7105 65.0183 23.4908 64.6937 24.2359 64.2988L26.8237 66.4549C27.1147 66.6975 27.486 66.8225 27.8645 66.8053C28.2431 66.7882 28.6015 66.6301 28.8694 66.3622L32.0461 63.1855C32.3141 62.9175 32.4721 62.5591 32.4893 62.1806C32.5065 61.802 32.3815 61.4308 32.1389 61.1397L29.9827 58.552C30.3777 57.8069 30.7023 57.0266 30.9524 56.2212L34.3031 55.9164C34.6804 55.882 35.0311 55.7078 35.2865 55.428C35.542 55.1482 35.6835 54.7831 35.6835 54.4042ZM17.842 58.6165C16.5646 58.6165 15.3159 58.2377 14.2538 57.5281C13.1918 56.8184 12.364 55.8097 11.8751 54.6296C11.3863 53.4495 11.2584 52.1509 11.5076 50.898C11.7568 49.6452 12.3719 48.4944 13.2752 47.5912C14.1784 46.688 15.3292 46.0728 16.582 45.8236C17.8348 45.5744 19.1334 45.7023 20.3135 46.1912C21.4937 46.68 22.5024 47.5078 23.212 48.5699C23.9217 49.632 24.3005 50.8807 24.3005 52.158C24.2985 53.8703 23.6174 55.5119 22.4066 56.7227C21.1958 57.9334 19.5543 58.6145 17.842 58.6165Z" fill="#B49077"/>
<path d="M6.8149 37.9531L3.63683 41.1312C3.36904 41.3991 3.21108 41.7575 3.19394 42.1359C3.1768 42.5143 3.30173 42.8855 3.5442 43.1765L5.70037 45.7624C6.99428 43.313 8.99667 41.3106 11.4461 40.0167L8.86022 37.8605C8.56918 37.618 8.19802 37.4931 7.8196 37.5102C7.44118 37.5274 7.08283 37.6853 6.8149 37.9531Z" fill="#B49077"/>
<path d="M5.70037 58.5537L3.5442 61.1396C3.30173 61.4306 3.1768 61.8018 3.19394 62.1802C3.21108 62.5586 3.36904 62.917 3.63683 63.1849L6.8149 66.3615C7.08255 66.6296 7.44082 66.788 7.81929 66.8054C8.19776 66.8228 8.56907 66.6981 8.86022 66.4556L11.4461 64.2994C8.99667 63.0055 6.99428 61.0031 5.70037 58.5537Z" fill="#B49077"/>
<path d="M4.11592 52.158C4.1152 50.7805 4.322 49.4107 4.72936 48.0947L1.38123 48.3999C1.00388 48.4342 0.652991 48.6084 0.39757 48.8882C0.14215 49.1681 0.000678163 49.5334 0.000977035 49.9123V54.4038C0.000678163 54.7827 0.14215 55.148 0.39757 55.4279C0.652991 55.7077 1.00388 55.8819 1.38123 55.9162L4.72936 56.2214C4.322 54.9054 4.1152 53.5356 4.11592 52.158Z" fill="#B49077"/>
<path d="M17.8416 43.8066C16.1899 43.8066 14.5752 44.2964 13.2018 45.2141C11.8285 46.1318 10.758 47.4361 10.1259 48.9621C9.49385 50.4881 9.32847 52.1673 9.65071 53.7873C9.97295 55.4073 10.7683 56.8953 11.9363 58.0633C13.1043 59.2313 14.5923 60.0266 16.2123 60.3489C17.8323 60.6711 19.5115 60.5057 21.0375 59.8736C22.5635 59.2416 23.8678 58.1711 24.7855 56.7978C25.7032 55.4244 26.193 53.8097 26.193 52.158C26.1905 49.9438 25.3098 47.8211 23.7442 46.2554C22.1785 44.6898 20.0558 43.8091 17.8416 43.8066ZM17.8416 55.9541C17.0908 55.9541 16.3569 55.7314 15.7326 55.3143C15.1084 54.8972 14.6218 54.3043 14.3345 53.6107C14.0472 52.917 13.972 52.1538 14.1185 51.4174C14.2649 50.6811 14.6265 50.0047 15.1574 49.4738C15.6883 48.9429 16.3647 48.5813 17.101 48.4349C17.8374 48.2884 18.6006 48.3636 19.2943 48.6509C19.9879 48.9382 20.5808 49.4248 20.9979 50.049C21.415 50.6733 21.6377 51.4072 21.6377 52.158C21.6365 53.1644 21.2361 54.1293 20.5245 54.8409C19.8128 55.5525 18.848 55.9529 17.8416 55.9541Z" fill="#7B5F4C"/>
<path d="M62.4082 11.3883V42.7114L65.516 49.3885C65.577 49.5196 65.6742 49.6305 65.7961 49.7083C65.9181 49.786 66.0597 49.8273 66.2043 49.8273C66.3489 49.8273 66.4905 49.786 66.6124 49.7083C66.7344 49.6305 66.8316 49.5196 66.8926 49.3885L70.0003 42.7114V11.3883H62.4082Z" fill="#B49077"/>
<path fill-rule="evenodd" clip-rule="evenodd" d="M70.0003 6.83293H62.4082V3.79607C62.4082 2.78929 62.8081 1.82374 63.52 1.11184C64.2319 0.399942 65.1975 0 66.2043 0C67.2111 0 68.1766 0.399942 68.8885 1.11184C69.6004 1.82374 70.0003 2.78929 70.0003 3.79607V6.83293Z" fill="#F4644D"/>
<path d="M62.4082 6.83289H70.0003V11.3882H62.4082V6.83289Z" fill="#E6F0F6"/>
<path d="M62.4082 6.83289H65.4451V11.3882H62.4082V6.83289Z" fill="#AACFE2"/>
<path d="M67.7227 47.6043L66.8921 49.3885C66.831 49.5194 66.7338 49.63 66.612 49.7076C66.4901 49.7852 66.3487 49.8264 66.2043 49.8264C66.0598 49.8264 65.9184 49.7852 65.7966 49.7076C65.6747 49.63 65.5776 49.5194 65.5164 49.3885L62.4082 42.712V11.3883H65.4451V42.712L67.7227 47.6043Z" fill="#7B5F4C"/>
<path fill-rule="evenodd" clip-rule="evenodd" d="M65.4451 0.0759277V6.83294H62.4082V3.79608C62.4083 2.92104 62.7106 2.07287 63.2639 1.39501C63.8173 0.717147 64.5877 0.251188 65.4451 0.0759277Z" fill="#E8533A"/>
</svg>
