<svg width="70" height="70" viewBox="0 0 70 70" fill="none" xmlns="http://www.w3.org/2000/svg">
<path d="M30.6188 18.1908C23.7676 18.1908 18.1916 23.7668 18.1916 30.618C18.0791 38.5694 25.943 44.6955 33.6194 42.6701C33.7069 42.4826 33.9569 42.02 34.0445 41.8575C35.9198 38.2569 39.0203 35.3688 42.671 33.6185C44.6839 25.9422 38.5703 18.0782 30.6188 18.1908Z" fill="#B49077"/>
<path d="M32.8927 56.6977C31.4424 52.6219 31.5924 48.1711 32.9927 44.1079C24.7287 45.5707 16.8523 39.057 16.9273 30.618C16.9273 23.0792 23.0659 16.9406 30.6047 16.9406C39.0438 16.8655 45.5574 24.7419 44.0947 33.0059C48.1079 31.6057 52.4837 31.4682 56.5219 32.8309L56.7219 32.2433V32.9059C57.5846 33.1935 58.5472 33.606 59.3599 34.0436V28.1676C59.3599 27.1674 58.5347 26.3422 57.5346 26.3422H53.9339C50.8209 26.3422 50.8834 22.8291 49.5706 20.7287C48.9455 19.541 49.1581 18.1033 50.1082 17.1531L52.6462 14.6151C53.3713 13.9525 53.3838 12.7148 52.6712 12.0272L49.2081 8.57656C48.5454 7.85143 47.2702 7.83893 46.6201 8.56406L44.0696 11.1145C43.107 12.0647 41.6692 12.2772 40.469 11.6396C38.3311 10.3394 34.8805 10.3894 34.868 7.30134V3.70069C34.868 2.70051 34.0429 1.87537 33.0427 1.87537H28.1418C27.1416 1.87537 26.3165 2.70051 26.3165 3.70069V7.30134C26.3165 10.4144 22.8034 10.3519 20.703 11.6646C19.5153 12.2897 18.0775 12.0647 17.1273 11.127L14.5894 8.58907C14.2643 8.239 13.7767 8.02646 13.3392 8.02646C12.8391 8.02646 12.364 8.2015 12.0014 8.56406L8.55081 12.0272C7.81318 12.6898 7.81317 13.965 8.5383 14.6151L11.0888 17.1656C13.2892 19.266 10.6637 22.0415 10.2011 24.2169C9.78853 25.5046 8.60082 26.3547 7.27558 26.3547H3.67494C2.67476 26.3547 1.84961 27.1799 1.84961 28.1801V33.0809C1.84961 34.0811 2.67476 34.9063 3.67494 34.9063H7.27558C10.3886 34.9063 10.3261 38.4194 11.6389 40.5198C12.264 41.7075 12.0514 43.1452 11.1013 44.0954L8.56331 46.6334C7.83818 47.296 7.82568 48.5337 8.5383 49.2213L12.0014 52.6719C12.339 53.0345 12.8016 53.2345 13.2141 53.222C13.7017 53.2845 14.2018 53.0845 14.5769 52.6844L17.1273 50.134C19.2652 47.9586 21.9907 50.5466 24.1786 51.0216C25.4663 51.4342 26.3165 52.6219 26.3165 53.9472V57.5478C26.3165 58.548 27.1416 59.3731 28.1418 59.3731H33.0052L33.9303 59.2856C33.5553 58.448 33.1677 57.5853 32.8676 56.6977H32.8927Z" fill="white"/>
<path d="M33.5683 58.4106L33.9558 59.2857L33.0307 59.3733H28.1673C26.7921 59.3608 26.1795 58.1105 26.342 56.8728H30.1552C29.03 53.8223 29.1425 47.0711 30.2302 44.2831C31.1553 44.3331 32.118 44.1705 33.0057 44.108C31.3554 48.7589 31.5054 53.9348 33.5683 58.4106Z" fill="#DFF7EB"/>
<path d="M59.036 35.2813C56.6106 33.9561 53.9726 33.2559 51.2096 33.1559C49.9344 33.1059 48.6216 33.2059 47.4214 33.431H47.2589L47.1964 33.4685C26.6052 38.0818 29.5807 67.5871 50.622 68.1247C68.6377 67.9997 74.7763 44.0329 59.036 35.2813Z" fill="#B49077"/>
<path d="M30.6173 25.6171C24.0286 25.7921 24.0286 35.4438 30.6173 35.6189C37.206 35.4438 37.206 25.7921 30.6173 25.6171Z" fill="#B49077"/>
<path d="M61.0359 34.2811C61.461 33.5185 61.1609 29.0552 61.2484 28.1675C61.2484 26.1297 59.5856 24.4669 57.5478 24.4669H53.9471C53.422 24.4669 52.972 24.1293 52.8094 23.6417C52.4219 22.379 51.8968 21.1163 51.2467 19.8535C51.0091 19.391 51.0966 18.8409 51.4592 18.4783L54.0096 15.9278C55.4474 14.5401 55.4474 12.0647 54.0096 10.6894L50.5465 7.23879C49.1713 5.78853 46.7083 5.78853 45.3081 7.23879L42.7576 9.78925C42.3951 10.1518 41.8325 10.2393 41.3699 9.98928C40.1197 9.35167 38.8569 8.82658 37.6067 8.43901C37.1066 8.27648 36.7691 7.8264 36.7691 7.3013V3.70066C36.7691 1.6628 35.1063 0 33.0684 0H28.1675C26.1297 0 24.4669 1.6628 24.4669 3.70066V7.3013C24.4669 7.8264 24.1293 8.27648 23.6417 8.43901C22.379 8.82658 21.1163 9.35167 19.8535 10.0018C19.391 10.2393 18.8409 10.1518 18.4783 9.78925C17.1906 8.63904 15.3027 5.93856 13.2899 6.1511C12.3022 6.1511 11.377 6.55117 10.6894 7.23879L7.23879 10.7019C5.78853 12.0772 5.78853 14.5526 7.23879 15.9403L9.78925 18.4908C10.1518 18.8534 10.2393 19.4035 9.98928 19.8785C9.35167 21.1288 8.82658 22.3915 8.43901 23.6417C8.27648 24.1418 7.8264 24.4794 7.3013 24.4794H3.70066C1.6628 24.4794 0 26.1422 0 28.18V33.0809C0 35.1188 1.6628 36.7816 3.70066 36.7816H7.3013C7.8264 36.7816 8.27648 37.1191 8.43901 37.6067C8.82658 38.8694 9.35167 40.1322 10.0018 41.3949C10.2393 41.8575 10.1518 42.4076 9.78925 42.7701L7.23879 45.3206C5.80104 46.6958 5.80104 49.1838 7.23879 50.559L10.7019 54.0096C12.0772 55.4599 14.5526 55.4599 15.9403 54.0096L18.4908 51.4592C18.8534 51.0966 19.416 51.0091 19.8785 51.2592C21.1288 51.8968 22.3915 52.4219 23.6417 52.8094C24.1418 52.972 24.4794 53.422 24.4794 53.9471V57.5478C24.4794 59.5856 26.1422 61.2484 28.18 61.2484C29.0927 61.1984 33.4935 61.4235 34.2936 61.0359C37.8318 66.5994 43.9829 70 50.634 70C69.9375 69.9125 77.2388 44.658 61.0484 34.2811H61.0359ZM28.1675 58.748C27.5049 58.748 26.9673 58.2104 26.9673 57.5478V53.9471C27.0298 50.5715 23.3542 50.3215 21.0288 49.0463C19.6035 48.2836 17.8657 48.5337 16.703 49.6839L14.1525 52.2343C13.9275 52.4719 13.6149 52.6344 13.3024 52.5969C12.9898 52.5969 12.6898 52.4719 12.4647 52.2343L8.98911 48.7712C8.52652 48.3211 8.52652 47.521 9.00161 47.0834L11.5521 44.533C14.0025 42.195 11.477 39.3195 10.8019 36.8316C10.3143 35.3063 8.90159 34.2686 7.2888 34.2686H3.68816C3.02554 34.2686 2.48794 33.731 2.48794 33.0684V28.1675C2.48794 27.5049 3.02554 26.9673 3.68816 26.9673C6.32613 26.9048 9.76424 27.6299 10.8144 24.3919C11.477 21.9164 13.99 19.0159 11.5521 16.703L9.00161 14.1525C8.52652 13.7149 8.51402 12.9148 9.00161 12.4647L12.4647 8.98911C12.9273 8.52652 13.6899 8.51402 14.1525 8.98911L16.703 11.5396C19.0409 13.99 21.9289 11.477 24.4044 10.7894C25.9296 10.3018 26.9673 8.88909 26.9673 7.2763V3.67566C26.9673 3.01304 27.5049 2.47544 28.1675 2.47544H33.0684C33.731 2.47544 34.2686 3.01304 34.2686 3.67566C34.3311 6.32613 33.5935 9.73924 36.8441 10.8019C39.3195 11.477 42.22 13.9775 44.533 11.5396L47.0834 8.98911C47.5335 8.51402 48.2961 8.50152 48.7712 8.98911L52.2468 12.4522C52.7094 12.9023 52.7094 13.7024 52.2343 14.14L49.6839 16.6905C47.2334 19.0284 49.7589 21.9164 50.434 24.3919C50.9216 25.9171 52.3343 26.9548 53.9471 26.9548H57.5478C58.2104 26.9548 58.748 27.4924 58.748 28.155V33.0184C58.723 33.0059 58.6855 32.9934 58.648 32.9809C54.3722 31.0055 49.2963 30.693 44.8205 32.1182C45.8082 23.7542 39.0195 16.2529 30.618 16.3029C10.6519 17.2656 12.2147 46.0332 32.1307 44.808C30.693 49.3213 31.043 54.4222 33.0309 58.7355H28.1675V58.748ZM33.1934 42.1325C25.9546 43.8453 18.7158 38.0693 18.8159 30.618C18.8159 24.1043 24.1043 18.8159 30.618 18.8159C38.0693 18.7158 43.8453 25.9546 42.1325 33.1934C38.2693 35.0938 35.0938 38.2693 33.1934 42.1325ZM50.6215 67.4995C31.4306 67.162 27.2924 40.6573 45.4956 34.5437C45.5456 34.5187 45.5956 34.5187 45.6457 34.4937C46.2208 34.3311 46.7959 34.1811 47.3835 34.0686C47.396 34.0686 47.4085 34.0561 47.421 34.0561C49.3088 33.706 51.2717 33.681 53.172 33.9561C73.6256 37.6567 71.4003 66.8869 50.6215 67.4995Z" fill="#2C2E33"/>
<path d="M56.0473 63.9365C54.622 64.4241 49.5211 66.2369 49.3711 63.7489C49.3711 63.0613 49.9337 62.4987 50.6213 62.4987C52.1716 62.4987 53.6844 62.1987 55.0971 61.6236C56.6224 61.0109 57.5601 63.3239 56.0473 63.9365Z" fill="#2C2E33"/>
<path d="M64.3853 54.7972C63.9977 56.46 60.4721 63.3363 58.3842 61.2859C57.9217 60.7733 57.9717 59.9732 58.4843 59.5231C60.1471 58.0603 61.3473 56.1725 61.9849 54.0721C62.46 52.5093 64.8479 53.222 64.3853 54.7972Z" fill="#2C2E33"/>
<path d="M61.8479 44.7331C61.7604 43.2203 60.7852 37.7443 58.4223 40.1197C57.1346 42.1451 55.4968 43.6454 53.5589 44.558C50.5459 46.0583 48.258 45.1206 45.4075 46.8084C42.757 48.4462 41.4067 51.8468 41.3817 56.8727C40.6941 58.1104 38.2187 60.3983 40.069 61.5736C41.8693 62.2862 42.1694 59.5982 43.1696 58.673C51.7211 60.7234 62.198 54.3848 61.8479 44.7331ZM57.7097 50.6591C56.647 52.3094 55.0592 53.5846 55.0467 53.5971C52.2837 55.7975 48.708 56.7977 45.1324 56.4601C46.5952 55.1224 48.333 54.0222 50.2583 53.2721C50.9084 53.022 51.221 52.2969 50.971 51.6593C50.0083 49.3214 45.2449 53.2346 44.0697 54.1097C44.6448 50.134 46.2701 48.3212 49.7832 48.0961C52.8588 47.9586 56.9595 46.1083 59.1224 43.3703C59.735 45.8833 59.2224 48.2962 57.7097 50.6591Z" fill="#2C2E33"/>
<path d="M30.6176 23.7418C21.5285 24.0294 21.5285 37.2067 30.6176 37.4943C39.7067 37.2067 39.7067 24.0294 30.6176 23.7418ZM30.6176 34.9938C24.8416 34.8438 24.8541 26.3923 30.6176 26.2423C36.3937 26.3923 36.3812 34.8438 30.6176 34.9938Z" fill="#2C2E33"/>
<path d="M47.6075 63.2613C47.3825 65.6117 43.9694 64.2114 45.4697 62.3861C45.5697 62.2611 45.7197 62.1736 45.8697 62.1111C45.9447 62.0736 46.0323 62.0611 46.1073 62.036C46.8449 61.8735 47.62 62.4986 47.6075 63.2613Z" fill="#2C2E33"/>
</svg>
