<svg width="70" height="66" viewBox="0 0 70 66" fill="none" xmlns="http://www.w3.org/2000/svg">
<path d="M25.7031 15.3125H15.8594V23.5156H17.5C17.5 22.9119 17.99 22.4219 18.5938 22.4219H24.6094C25.2131 22.4219 25.7031 22.9119 25.7031 23.5156H28.3659C28.2898 23.4237 28.216 23.3291 28.1548 23.2225L25.9673 19.4332C25.6752 18.9273 25.5976 18.3378 25.7491 17.7734C25.9005 17.2091 26.262 16.7371 26.7684 16.4451L28.5102 15.4394C28.4621 15.0259 28.4375 14.6163 28.4375 14.2188H26.7969C26.7969 14.8225 26.3069 15.3125 25.7031 15.3125Z" fill="white"/>
<path d="M51.9816 16.4456C52.4874 16.7377 52.8495 17.2091 53.0009 17.774C53.1524 18.3384 53.0748 18.9279 52.7827 19.4337L50.5952 23.223C49.992 24.2676 48.6511 24.6263 47.6071 24.0237L45.8626 23.0163C45.2074 23.4992 44.4992 23.9072 43.75 24.2337V26.25V29.5312C44.3538 29.5312 44.8438 30.0212 44.8438 30.625V48.125H67.8125V17.5C67.8125 16.2936 66.8314 15.3125 65.625 15.3125H53.0469C52.4431 15.3125 51.9531 14.8225 51.9531 14.2188H50.3125C50.3125 14.6169 50.2879 15.0259 50.2398 15.4394L51.9816 16.4456ZM55.2344 21.875H64.5313C65.135 21.875 65.625 22.365 65.625 22.9688V44.8438C65.625 45.4475 65.135 45.9375 64.5313 45.9375H55.2344H48.125C47.5213 45.9375 47.0313 45.4475 47.0313 44.8438V33.3594C47.0313 33.0006 47.2073 32.6643 47.5027 32.4598L54.1406 27.8644V22.9688C54.1406 22.365 54.6306 21.875 55.2344 21.875Z" fill="white"/>
<path d="M44.8447 59.0625V62.8906H65.626C66.8324 62.8906 67.8135 61.9095 67.8135 60.7031V59.0625H44.8447Z" fill="white"/>
<path d="M32.8876 23.0164L32.0225 23.5157H33.6516C33.3924 23.356 33.1326 23.1968 32.8876 23.0164Z" fill="white"/>
<path d="M33.906 39.375V31.7188H18.5935C17.9898 31.7188 17.4998 31.2287 17.4998 30.625H15.8591V47.5781C15.8591 49.9904 13.8964 51.9531 11.4841 51.9531H7.65602C5.85953 51.9531 4.26758 52.8276 3.27008 54.1691L2.18945 57.5832C2.27531 60.5248 4.69414 62.8906 7.65602 62.8906H33.906V52.5C33.906 51.8962 34.396 51.4062 34.9998 51.4062V40.4688C34.396 40.4688 33.906 39.9788 33.906 39.375ZM27.3435 53.5123V57.9688H30.6248C31.2285 57.9688 31.7185 58.4587 31.7185 59.0625C31.7185 59.6663 31.2285 60.1562 30.6248 60.1562H11.4841C10.8804 60.1562 10.3904 59.6663 10.3904 59.0625C10.3904 58.4587 10.8804 57.9688 11.4841 57.9688H25.156V53.5123C21.1496 52.9747 18.0466 49.5425 18.0466 45.3906C18.0466 43.0232 19.0868 40.7657 20.862 39.2148C20.8084 38.9063 20.781 38.5941 20.781 38.2812C20.781 35.2658 23.2343 32.8125 26.2498 32.8125C29.2652 32.8125 31.7185 35.2658 31.7185 38.2812C31.7185 38.5941 31.6912 38.9063 31.6376 39.2148C33.4127 40.7657 34.4529 43.0232 34.4529 45.3906C34.4529 49.542 31.3499 52.9747 27.3435 53.5123Z" fill="white"/>
<path d="M65.625 13.125H53.0469C52.4431 13.125 51.9531 13.615 51.9531 14.2188C51.9531 14.8225 52.4431 15.3125 53.0469 15.3125H65.625C66.8314 15.3125 67.8125 16.2936 67.8125 17.5V48.125H44.8438V30.625C44.8438 30.0212 44.3537 29.5312 43.75 29.5312C43.1463 29.5312 42.6562 30.0212 42.6562 30.625V49.2188C42.6562 49.8225 43.1463 50.3125 43.75 50.3125H67.8125V56.875H43.75C43.1463 56.875 42.6562 57.365 42.6562 57.9688V62.8906H36.0938V52.5C36.0938 51.8963 35.6037 51.4062 35 51.4062C34.3963 51.4062 33.9062 51.8963 33.9062 52.5V62.8906H7.65625C4.69438 62.8906 2.27555 60.5248 2.18969 57.5832L3.27031 54.1691C4.26781 52.8276 5.85977 51.9531 7.65625 51.9531H11.4844C13.8966 51.9531 15.8594 49.9904 15.8594 47.5781V30.625V23.5156V15.3125H25.7031C26.3069 15.3125 26.7969 14.8225 26.7969 14.2188C26.7969 13.615 26.3069 13.125 25.7031 13.125H15.8594V4.375C15.8594 1.96273 13.8966 0 11.4844 0H7.65625C3.43438 0 0 3.43438 0 7.65625V57.4219C0 61.6437 3.43438 65.0781 7.65625 65.0781H35H43.75H65.625C68.0373 65.0781 70 63.1154 70 60.7031V57.9688V49.2188V17.5C70 15.0877 68.0373 13.125 65.625 13.125ZM65.625 62.8906H44.8438V59.0625H67.8125V60.7031C67.8125 61.9095 66.8314 62.8906 65.625 62.8906ZM7.65625 2.1875H11.4844C12.6908 2.1875 13.6719 3.16859 13.6719 4.375V47.5781C13.6719 48.7845 12.6908 49.7656 11.4844 49.7656H7.65625C5.51578 49.7656 3.5782 50.6483 2.1875 52.0685V7.65625C2.1875 4.64078 4.64078 2.1875 7.65625 2.1875Z" fill="#34363C"/>
<path d="M41.5625 28.4375H37.1875C35.9811 28.4375 35 27.4564 35 26.25V24.2337C34.5308 24.0291 34.0851 23.782 33.6514 23.5156H32.0223L31.1429 24.0231C30.2045 24.5645 29.033 24.325 28.3659 23.5156H25.7031C25.7031 24.1194 25.2131 24.6094 24.6094 24.6094H18.5938C17.99 24.6094 17.5 24.1194 17.5 23.5156H15.8594V30.625H17.5C17.5 30.0213 17.99 29.5312 18.5938 29.5312H35C35.6038 29.5312 36.0938 30.0213 36.0938 30.625V39.375C36.0938 39.9788 35.6038 40.4688 35 40.4688V51.4062C35.6038 51.4062 36.0938 51.8962 36.0938 52.5V62.8906H42.6562V57.9688C42.6562 57.365 43.1462 56.875 43.75 56.875H67.8125V50.3125H43.75C43.1462 50.3125 42.6562 49.8225 42.6562 49.2188V30.625C42.6562 30.0213 43.1462 29.5312 43.75 29.5312V26.25C43.75 27.4564 42.7689 28.4375 41.5625 28.4375ZM40.4688 57.9688C40.4688 58.5725 39.9788 59.0625 39.375 59.0625C38.7712 59.0625 38.2812 58.5725 38.2812 57.9688V55.7812C38.2812 55.1775 38.7712 54.6875 39.375 54.6875C39.9788 54.6875 40.4688 55.1775 40.4688 55.7812V57.9688ZM40.4688 50.3125C40.4688 50.9163 39.9788 51.4062 39.375 51.4062C38.7712 51.4062 38.2812 50.9163 38.2812 50.3125V48.125C38.2812 47.5212 38.7712 47.0312 39.375 47.0312C39.9788 47.0312 40.4688 47.5212 40.4688 48.125V50.3125ZM40.4688 42.6562C40.4688 43.26 39.9788 43.75 39.375 43.75C38.7712 43.75 38.2812 43.26 38.2812 42.6562V40.4688C38.2812 39.865 38.7712 39.375 39.375 39.375C39.9788 39.375 40.4688 39.865 40.4688 40.4688V42.6562ZM40.4688 35C40.4688 35.6038 39.9788 36.0938 39.375 36.0938C38.7712 36.0938 38.2812 35.6038 38.2812 35V32.8125C38.2812 32.2087 38.7712 31.7188 39.375 31.7188C39.9788 31.7188 40.4688 32.2087 40.4688 32.8125V35ZM61.25 52.5H63.4375C64.0412 52.5 64.5312 52.99 64.5312 53.5938C64.5312 54.1975 64.0412 54.6875 63.4375 54.6875H61.25C60.6463 54.6875 60.1562 54.1975 60.1562 53.5938C60.1562 52.99 60.6463 52.5 61.25 52.5ZM53.5938 52.5H55.7812C56.385 52.5 56.875 52.99 56.875 53.5938C56.875 54.1975 56.385 54.6875 55.7812 54.6875H53.5938C52.99 54.6875 52.5 54.1975 52.5 53.5938C52.5 52.99 52.99 52.5 53.5938 52.5ZM45.9375 52.5H48.125C48.7287 52.5 49.2188 52.99 49.2188 53.5938C49.2188 54.1975 48.7287 54.6875 48.125 54.6875H45.9375C45.3337 54.6875 44.8438 54.1975 44.8438 53.5938C44.8438 52.99 45.3337 52.5 45.9375 52.5Z" fill="#B49077"/>
<path d="M32.2646 45.3905C32.2646 43.4721 31.3311 41.6515 29.7671 40.5195C29.3826 40.2411 29.2213 39.7468 29.3684 39.2956C29.4756 38.9647 29.5303 38.6235 29.5303 38.2811C29.5303 36.4715 28.0581 34.9999 26.249 34.9999C24.44 34.9999 22.9678 36.4715 22.9678 38.2811C22.9678 38.6235 23.0225 38.9647 23.1296 39.295C23.2762 39.7462 23.1154 40.2406 22.731 40.5189C21.1669 41.6515 20.2334 43.4721 20.2334 45.3905C20.2334 48.3338 22.3591 50.7854 25.1553 51.3017V47.578V39.9218C25.1553 39.318 25.6453 38.828 26.249 38.828C26.8528 38.828 27.3428 39.318 27.3428 39.9218V44.9371L29.0304 43.25C29.4575 42.8229 30.1499 42.8229 30.5775 43.25C31.0047 43.6771 31.0047 44.3695 30.5775 44.7966L27.3428 48.0314V51.3017C30.1389 50.7854 32.2646 48.3338 32.2646 45.3905Z" fill="#B49077"/>
<path d="M31.6378 39.2148C31.6914 38.9063 31.7188 38.5941 31.7188 38.2812C31.7188 35.2658 29.2655 32.8125 26.25 32.8125C23.2345 32.8125 20.7813 35.2658 20.7813 38.2812C20.7813 38.5941 20.8086 38.9063 20.8622 39.2148C19.087 40.7657 18.0469 43.0232 18.0469 45.3906C18.0469 49.542 21.1498 52.9747 25.1563 53.5123V57.9688H11.4844C10.8806 57.9688 10.3906 58.4587 10.3906 59.0625C10.3906 59.6663 10.8806 60.1562 11.4844 60.1562H30.625C31.2288 60.1562 31.7188 59.6663 31.7188 59.0625C31.7188 58.4587 31.2288 57.9688 30.625 57.9688H27.3438V53.5123C31.3502 52.9747 34.4531 49.5425 34.4531 45.3906C34.4531 43.0232 33.413 40.7657 31.6378 39.2148ZM27.3438 48.0315L30.578 44.7967C31.0051 44.3696 31.0051 43.6773 30.578 43.2502C30.1509 42.823 29.4585 42.823 29.0309 43.2502L27.3438 44.9373V39.9219C27.3438 39.3181 26.8538 38.8281 26.25 38.8281C25.6463 38.8281 25.1563 39.3181 25.1563 39.9219V47.5781V51.3023C22.3601 50.7861 20.2344 48.3345 20.2344 45.3912C20.2344 43.4727 21.1679 41.6522 22.732 40.5202C23.1164 40.2418 23.2777 39.7474 23.1306 39.2963C23.0234 38.9648 22.9688 38.6236 22.9688 38.2812C22.9688 36.4716 24.4409 35 26.25 35C28.0591 35 29.5313 36.4716 29.5313 38.2812C29.5313 38.6236 29.4766 38.9648 29.3694 39.2952C29.2228 39.7463 29.3836 40.2407 29.768 40.5191C31.3321 41.6516 32.2656 43.4722 32.2656 45.3906C32.2656 48.3339 30.1399 50.7855 27.3438 51.3018V48.0315Z" fill="#34363C"/>
<path d="M2.1875 52.0685C3.5782 50.6483 5.51578 49.7656 7.65625 49.7656H11.4844C12.6908 49.7656 13.6719 48.7845 13.6719 47.5781V4.375C13.6719 3.16859 12.6908 2.1875 11.4844 2.1875H7.65625C4.64078 2.1875 2.1875 4.64078 2.1875 7.65625V52.0685Z" fill="#B49077"/>
<path d="M30.6247 14.2187C30.6247 14.6256 30.6575 15.0505 30.722 15.4831C30.8232 16.1569 30.5098 16.8115 29.9241 17.1495L27.8619 18.34L30.0494 22.1293L32.1133 20.9377C32.3676 20.7905 32.6481 20.7184 32.9281 20.7184C33.2902 20.7184 33.6511 20.8398 33.9519 21.0777C34.6152 21.6021 35.3535 22.0276 36.1465 22.342C36.7787 22.593 37.1872 23.1908 37.1872 23.8645V26.25H41.5622V23.8645C41.5622 23.1913 41.9707 22.5936 42.6029 22.3426C43.3959 22.0276 44.1341 21.6021 44.798 21.0777C45.3313 20.656 46.0531 20.6008 46.6366 20.9377L48.7005 22.1293L50.888 18.34L48.8258 17.1495C48.2401 16.8115 47.9267 16.1574 48.0279 15.4831C48.0919 15.0505 48.1247 14.6256 48.1247 14.2187C48.1247 13.8119 48.0919 13.387 48.0273 12.9544C47.9262 12.2806 48.2395 11.626 48.8252 11.288L50.888 10.097L48.7005 6.3082L46.6366 7.49984C46.0531 7.83672 45.3313 7.78203 44.798 7.35984C44.1347 6.83539 43.3964 6.40992 42.6034 6.09492C41.9707 5.84445 41.5622 5.24672 41.5622 4.57297V2.1875H37.1872V4.57297C37.1872 5.24672 36.7787 5.84445 36.1459 6.09547C35.3535 6.40992 34.6147 6.83594 33.9513 7.36039C33.4187 7.78203 32.6968 7.83727 32.1127 7.50039L30.0488 6.30875L27.8613 10.0975L29.9236 11.2886C30.5093 11.6266 30.8227 12.2806 30.7215 12.9549C30.6575 13.387 30.6247 13.8119 30.6247 14.2187ZM39.3747 8.75C42.3902 8.75 44.8434 11.2033 44.8434 14.2187C44.8434 17.2342 42.3902 19.6875 39.3747 19.6875C36.3592 19.6875 33.9059 17.2342 33.9059 14.2187C33.9059 11.2033 36.3592 8.75 39.3747 8.75Z" fill="#B49077"/>
<path d="M26.7679 16.4451C26.2615 16.7371 25.9 17.2091 25.7485 17.7734C25.597 18.3378 25.6747 18.9273 25.9667 19.4332L28.1542 23.2225C28.216 23.3291 28.2898 23.4237 28.3653 23.5156C29.0325 24.325 30.2044 24.5645 31.1423 24.0231L32.0217 23.5156L32.8869 23.0163C33.1319 23.1968 33.3916 23.3565 33.6508 23.5156C34.0845 23.782 34.5302 24.0291 34.9994 24.2337V26.25C34.9994 27.4564 35.9805 28.4375 37.1869 28.4375H41.5619C42.7683 28.4375 43.7494 27.4564 43.7494 26.25V24.2337C44.4987 23.9066 45.2069 23.4987 45.862 23.0158L47.6066 24.0231C48.6505 24.6258 49.9915 24.267 50.5947 23.2225L52.7822 19.4332C53.0742 18.9273 53.1519 18.3378 53.0004 17.7734C52.8489 17.2091 52.4874 16.7371 51.981 16.4451L50.2392 15.4394C50.2873 15.0259 50.3119 14.6169 50.3119 14.2188C50.3119 13.8212 50.2873 13.4116 50.2392 12.9981L51.9816 11.9924C52.4874 11.7004 52.8494 11.2284 53.0009 10.6641C53.1524 10.0997 53.0748 9.5107 52.7822 9.0043L50.5947 5.21555C49.9915 4.17102 48.6511 3.81172 47.6066 4.41492L45.8626 5.42172C45.2074 4.93883 44.4992 4.53086 43.75 4.20383V2.1875C43.75 0.981094 42.7689 0 41.5625 0H37.1875C35.9811 0 35 0.981094 35 2.1875V4.20383C34.2508 4.53086 33.5426 4.93883 32.8874 5.42172L31.1434 4.41492C30.0989 3.81172 28.7585 4.17102 28.1553 5.21555L25.9678 9.0043C25.6758 9.5107 25.5981 10.0997 25.7496 10.6641C25.9005 11.2284 26.2626 11.7004 26.769 11.9924L28.5113 12.9981C28.4616 13.4116 28.4369 13.8206 28.4369 14.2188C28.4369 14.6163 28.4616 15.0259 28.5097 15.4394L26.7679 16.4451ZM29.9239 11.2886L27.8616 10.0975L30.0491 6.30875L32.113 7.50039C32.6965 7.83727 33.4184 7.78203 33.9516 7.36039C34.6155 6.83594 35.3538 6.40992 36.1462 6.09547C36.7784 5.84445 37.1869 5.24672 37.1869 4.57297V2.1875H41.5619V4.57297C41.5619 5.24672 41.9705 5.84445 42.6032 6.09492C43.3956 6.40992 44.1344 6.83539 44.7978 7.35984C45.331 7.78203 46.0529 7.83727 46.6364 7.49984L48.7003 6.3082L50.8878 10.097L48.825 11.288C48.2393 11.626 47.9259 12.2801 48.0271 12.9544C48.0916 13.387 48.1244 13.8119 48.1244 14.2188C48.1244 14.6256 48.0916 15.0505 48.0271 15.4826C47.9259 16.1569 48.2393 16.8109 48.825 17.1489L50.8873 18.3395L48.6998 22.1287L46.6358 20.9371C46.0523 20.6002 45.3305 20.6549 44.7973 21.0771C44.1339 21.6016 43.3951 22.0276 42.6021 22.342C41.9705 22.593 41.5619 23.1908 41.5619 23.8645V26.25H37.1869V23.8645C37.1869 23.1913 36.7784 22.5936 36.1457 22.342C35.3533 22.0276 34.6144 21.6016 33.9511 21.0777C33.6503 20.8392 33.2894 20.7184 32.9273 20.7184C32.6473 20.7184 32.3668 20.7905 32.1125 20.9377L30.0486 22.1293L27.8611 18.34L29.9233 17.1495C30.5091 16.8115 30.8224 16.1574 30.7212 15.4831C30.6573 15.0505 30.6244 14.6256 30.6244 14.2188C30.6244 13.8119 30.6573 13.387 30.7218 12.9549C30.823 12.2806 30.5096 11.6266 29.9239 11.2886Z" fill="#34363C"/>
<path d="M39.374 17.5C41.1862 17.5 42.6553 16.0309 42.6553 14.2188C42.6553 12.4066 41.1862 10.9375 39.374 10.9375C37.5618 10.9375 36.0928 12.4066 36.0928 14.2188C36.0928 16.0309 37.5618 17.5 39.374 17.5Z" fill="white"/>
<path d="M39.375 19.6875C42.3905 19.6875 44.8438 17.2342 44.8438 14.2188C44.8438 11.2033 42.3905 8.75 39.375 8.75C36.3595 8.75 33.9062 11.2033 33.9062 14.2188C33.9062 17.2342 36.3595 19.6875 39.375 19.6875ZM39.375 10.9375C41.1841 10.9375 42.6562 12.4091 42.6562 14.2188C42.6562 16.0284 41.1841 17.5 39.375 17.5C37.5659 17.5 36.0938 16.0284 36.0938 14.2188C36.0938 12.4091 37.5659 10.9375 39.375 10.9375Z" fill="#34363C"/>
<path d="M54.1406 30.5249L49.2188 33.9325V43.75H54.1406V30.5249Z" fill="#B49077"/>
<path d="M47.5027 32.4599C47.2073 32.6644 47.0312 33.0007 47.0312 33.3595V44.8439C47.0312 45.4476 47.5213 45.9376 48.125 45.9376H55.2344H64.5312C65.135 45.9376 65.625 45.4476 65.625 44.8439V22.9689C65.625 22.3651 65.135 21.8751 64.5312 21.8751H55.2344C54.6306 21.8751 54.1406 22.3651 54.1406 22.9689V27.8645L47.5027 32.4599ZM63.4375 43.7501H56.3281V24.0626H63.4375V43.7501ZM49.2188 33.9326L54.1406 30.5256V43.7501H49.2188V33.9326Z" fill="#34363C"/>
<path d="M56.3281 43.75H63.4375V24.0625H56.3281V43.75ZM58.5156 26.25H61.25C61.8537 26.25 62.3438 26.74 62.3438 27.3438C62.3438 27.9475 61.8537 28.4375 61.25 28.4375H58.5156C57.9119 28.4375 57.4219 27.9475 57.4219 27.3438C57.4219 26.74 57.9119 26.25 58.5156 26.25ZM58.5156 30.625H61.25C61.8537 30.625 62.3438 31.115 62.3438 31.7188C62.3438 32.3225 61.8537 32.8125 61.25 32.8125H58.5156C57.9119 32.8125 57.4219 32.3225 57.4219 31.7188C57.4219 31.115 57.9119 30.625 58.5156 30.625ZM58.5156 35H61.25C61.8537 35 62.3438 35.49 62.3438 36.0938C62.3438 36.6975 61.8537 37.1875 61.25 37.1875H58.5156C57.9119 37.1875 57.4219 36.6975 57.4219 36.0938C57.4219 35.49 57.9119 35 58.5156 35ZM58.5156 39.375H61.25C61.8537 39.375 62.3438 39.865 62.3438 40.4688C62.3438 41.0725 61.8537 41.5625 61.25 41.5625H58.5156C57.9119 41.5625 57.4219 41.0725 57.4219 40.4688C57.4219 39.865 57.9119 39.375 58.5156 39.375Z" fill="#B49077"/>
<path d="M58.5156 28.4375H61.25C61.8537 28.4375 62.3438 27.9475 62.3438 27.3438C62.3438 26.74 61.8537 26.25 61.25 26.25H58.5156C57.9119 26.25 57.4219 26.74 57.4219 27.3438C57.4219 27.9475 57.9119 28.4375 58.5156 28.4375Z" fill="#34363C"/>
<path d="M58.5156 32.8125H61.25C61.8537 32.8125 62.3438 32.3225 62.3438 31.7188C62.3438 31.115 61.8537 30.625 61.25 30.625H58.5156C57.9119 30.625 57.4219 31.115 57.4219 31.7188C57.4219 32.3225 57.9119 32.8125 58.5156 32.8125Z" fill="#34363C"/>
<path d="M58.5156 37.1874H61.25C61.8537 37.1874 62.3438 36.6974 62.3438 36.0936C62.3438 35.4899 61.8537 34.9999 61.25 34.9999H58.5156C57.9119 34.9999 57.4219 35.4899 57.4219 36.0936C57.4219 36.6974 57.9119 37.1874 58.5156 37.1874Z" fill="#34363C"/>
<path d="M58.5156 41.5625H61.25C61.8537 41.5625 62.3438 41.0725 62.3438 40.4688C62.3438 39.865 61.8537 39.375 61.25 39.375H58.5156C57.9119 39.375 57.4219 39.865 57.4219 40.4688C57.4219 41.0725 57.9119 41.5625 58.5156 41.5625Z" fill="#34363C"/>
<path d="M18.5938 31.7188H33.9062V39.375C33.9062 39.9788 34.3962 40.4688 35 40.4688C35.6038 40.4688 36.0938 39.9788 36.0938 39.375V30.625C36.0938 30.0213 35.6038 29.5312 35 29.5312H18.5938C17.99 29.5312 17.5 30.0213 17.5 30.625C17.5 31.2287 17.99 31.7188 18.5938 31.7188Z" fill="#34363C"/>
<path d="M18.5938 24.6094H24.6094C25.2131 24.6094 25.7031 24.1194 25.7031 23.5156C25.7031 22.9119 25.2131 22.4219 24.6094 22.4219H18.5938C17.99 22.4219 17.5 22.9119 17.5 23.5156C17.5 24.1194 17.99 24.6094 18.5938 24.6094Z" fill="#34363C"/>
<path d="M39.375 31.7188C38.7713 31.7188 38.2812 32.2088 38.2812 32.8125V35C38.2812 35.6037 38.7713 36.0938 39.375 36.0938C39.9787 36.0938 40.4688 35.6037 40.4688 35V32.8125C40.4688 32.2088 39.9787 31.7188 39.375 31.7188Z" fill="#34363C"/>
<path d="M39.375 39.375C38.7713 39.375 38.2812 39.865 38.2812 40.4688V42.6562C38.2812 43.26 38.7713 43.75 39.375 43.75C39.9787 43.75 40.4688 43.26 40.4688 42.6562V40.4688C40.4688 39.865 39.9787 39.375 39.375 39.375Z" fill="#34363C"/>
<path d="M39.375 47.0312C38.7713 47.0312 38.2812 47.5213 38.2812 48.125V50.3125C38.2812 50.9162 38.7713 51.4062 39.375 51.4062C39.9787 51.4062 40.4688 50.9162 40.4688 50.3125V48.125C40.4688 47.5213 39.9787 47.0312 39.375 47.0312Z" fill="#34363C"/>
<path d="M39.375 54.6875C38.7713 54.6875 38.2812 55.1775 38.2812 55.7812V57.9688C38.2812 58.5725 38.7713 59.0625 39.375 59.0625C39.9787 59.0625 40.4688 58.5725 40.4688 57.9688V55.7812C40.4688 55.1775 39.9787 54.6875 39.375 54.6875Z" fill="#34363C"/>
<path d="M61.25 54.6875H63.4375C64.0412 54.6875 64.5312 54.1975 64.5312 53.5938C64.5312 52.99 64.0412 52.5 63.4375 52.5H61.25C60.6463 52.5 60.1562 52.99 60.1562 53.5938C60.1562 54.1975 60.6463 54.6875 61.25 54.6875Z" fill="#34363C"/>
<path d="M53.5928 54.6875H55.7803C56.384 54.6875 56.874 54.1975 56.874 53.5938C56.874 52.99 56.384 52.5 55.7803 52.5H53.5928C52.989 52.5 52.499 52.99 52.499 53.5938C52.499 54.1975 52.989 54.6875 53.5928 54.6875Z" fill="#34363C"/>
<path d="M45.9385 54.6875H48.126C48.7297 54.6875 49.2197 54.1975 49.2197 53.5938C49.2197 52.99 48.7297 52.5 48.126 52.5H45.9385C45.3347 52.5 44.8447 52.99 44.8447 53.5938C44.8447 54.1975 45.3347 54.6875 45.9385 54.6875Z" fill="#34363C"/>
</svg>
