<svg width="166" height="31" viewBox="0 0 166 31" fill="none" xmlns="http://www.w3.org/2000/svg">
<path d="M7.96849 11.2077C9.40333 13.8292 12.3717 16.4531 16.3191 18.2927C19.181 19.6287 22.1493 20.3454 24.7683 20.3454C24.9892 20.3454 25.206 20.3399 25.4167 20.3298L25.323 29.8015C25.3207 29.9598 25.2699 30.1145 25.1785 30.2438C25.0869 30.373 24.9578 30.4713 24.8093 30.5261C24.6607 30.5808 24.4989 30.5894 24.3454 30.5505C24.1918 30.5114 24.0535 30.4265 23.949 30.3073L15.4363 20.5729C14.9367 20.0002 14.2459 19.6277 13.4929 19.5251L0.678453 17.7819C0.521058 17.7609 0.373128 17.6924 0.255602 17.5856C0.138106 17.4788 0.0562323 17.3379 0.0202502 17.1833C-0.0155214 17.0289 -0.00376245 16.8669 0.0544299 16.7194C0.112726 16.572 0.214777 16.4454 0.346422 16.3571L7.96849 11.2077ZM95.5349 17.653L99.9128 6.23309H103.121L93.9314 28.2565H90.7224L93.7683 20.9694L87.8679 6.23309H91.321L95.5349 17.653ZM66.5007 5.98895C67.9142 5.989 69.1745 6.29668 70.28 6.91278C71.3855 7.52899 72.2468 8.39953 72.863 9.52313C73.4792 10.6287 73.7878 11.9072 73.7878 13.3571C73.7878 13.9187 73.7509 14.4266 73.6785 14.8796H62.2322C62.3228 16.0758 62.7677 17.0364 63.5652 17.7614C64.3626 18.4862 65.341 18.8492 66.5007 18.8493C68.1681 18.8492 69.3471 18.1511 70.0359 16.7556H73.3796C72.9266 18.1328 72.1019 19.2659 70.906 20.154C69.7279 21.024 68.2588 21.4586 66.5007 21.4587C65.069 21.4586 63.7822 21.1418 62.6404 20.5075C61.5167 19.855 60.6288 18.9486 59.9763 17.7888C59.342 16.6107 59.0242 15.2511 59.0242 13.7106C59.0242 12.1701 59.3327 10.8188 59.949 9.65887C60.5833 8.48114 61.4622 7.57437 62.5857 6.94012C63.7274 6.30593 65.0329 5.989 66.5007 5.98895ZM157.811 5.98895C159.225 5.98904 160.485 6.2966 161.591 6.91278C162.696 7.52896 163.556 8.39964 164.173 9.52313C164.789 10.6287 165.097 11.9072 165.097 13.3571C165.097 13.9187 165.061 14.4266 164.989 14.8796H153.543C153.633 16.0757 154.077 17.0364 154.875 17.7614C155.672 18.4864 156.651 18.8493 157.811 18.8493C159.478 18.8491 160.657 18.151 161.345 16.7556H164.689C164.236 18.1328 163.412 19.2659 162.216 20.154C161.038 21.0239 159.569 21.4586 157.811 21.4587C156.379 21.4587 155.092 21.1419 153.95 20.5075C152.826 19.855 151.938 18.9486 151.286 17.7888C150.652 16.6107 150.334 15.2511 150.334 13.7106C150.334 12.1701 150.642 10.8188 151.259 9.65887C151.893 8.48105 152.773 7.5744 153.896 6.94012C155.038 6.30603 156.343 5.98895 157.811 5.98895ZM108.396 14.5807C108.396 15.9215 108.732 16.9545 109.402 17.6794C110.073 18.3862 110.988 18.7399 112.148 18.7399C113.308 18.7399 114.224 18.3862 114.894 17.6794C115.583 16.9545 115.927 15.9216 115.927 14.5807V6.23309H119.027V21.2145H115.927V19.447C115.438 20.0629 114.795 20.5523 113.998 20.9147C113.218 21.2591 112.384 21.4313 111.496 21.4313C110.318 21.4313 109.258 21.1872 108.315 20.6979C107.391 20.2085 106.657 19.4828 106.113 18.5222C105.588 17.5616 105.324 16.4018 105.324 15.0427V6.23309H108.396V14.5807ZM49.404 2.31805C50.854 2.31809 52.0781 2.57229 53.0749 3.07977C54.0896 3.58722 54.8415 4.26718 55.3308 5.11883C55.8382 5.97058 56.0924 6.92227 56.0925 7.97333C56.0925 9.20563 55.7294 10.3295 55.0046 11.3444C54.2978 12.3412 53.2015 13.0219 51.7156 13.3845L56.3913 21.2145H52.6941L48.3435 13.6559H45.9783V21.2145H42.8786V2.31805H49.404ZM86.3806 8.76239L79.5837 18.6862H86.3806V21.2145H75.9949V18.6862L82.8191 8.76239H75.9949V6.23309H86.3806V8.76239ZM141.251 5.98895C142.429 5.98899 143.481 6.23308 144.405 6.72235C145.347 7.21171 146.082 7.93759 146.607 8.89813C147.151 9.85858 147.422 11.0186 147.423 12.3776V21.2145H144.35V12.8405C144.35 11.4994 144.015 10.4751 143.344 9.76825C142.674 9.04334 141.758 8.68042 140.598 8.68036C139.439 8.68042 138.515 9.04358 137.826 9.76825C137.155 10.4751 136.819 11.4994 136.819 12.8405V21.2145H133.747V12.8405C133.747 11.4995 133.411 10.4751 132.741 9.76825C132.07 9.04334 131.155 8.68042 129.995 8.68036C128.835 8.68042 127.911 9.04358 127.222 9.76825C126.552 10.4751 126.216 11.4994 126.216 12.8405V21.2145H123.117V6.23309H126.216V7.94598C126.723 7.32995 127.367 6.84986 128.146 6.50555C128.925 6.16135 129.759 5.98901 130.647 5.98895C131.843 5.98899 132.914 6.24222 133.856 6.74969C134.798 7.25711 135.524 7.9915 136.031 8.95184C136.484 8.04594 137.192 7.32987 138.152 6.80438C139.112 6.26095 140.145 5.98903 141.251 5.98895ZM24.7966 0.000669906C24.9382 -0.00519988 25.0794 0.0275971 25.2038 0.0953965C25.3281 0.163174 25.4319 0.263439 25.5036 0.385436C25.5753 0.507453 25.6123 0.647259 25.6111 0.788756L25.5671 5.0993C26.5615 5.75655 27.5027 6.49442 28.3796 7.30731C28.5429 7.46191 28.638 7.67627 28.6443 7.90106C28.6503 8.12567 28.5672 8.34422 28.4128 8.50751C28.2582 8.67085 28.0439 8.7659 27.8191 8.77215C27.5943 8.77821 27.376 8.69433 27.2126 8.53973C26.6819 8.04845 26.1253 7.58734 25.5466 7.15692L25.4441 17.2761C27.7331 17.1446 29.3239 16.3689 29.9236 15.0817C30.5533 13.728 29.9435 12.1813 29.321 11.1237C29.2646 11.0277 29.2271 10.9215 29.2117 10.8112C29.1963 10.7011 29.2033 10.5888 29.2312 10.4811C29.2592 10.3735 29.3077 10.2711 29.3747 10.1823C29.4417 10.0937 29.5261 10.0189 29.6218 9.96258C29.7177 9.90627 29.8242 9.86865 29.9343 9.85321C30.0445 9.83783 30.1576 9.84481 30.2654 9.87274C30.4829 9.92929 30.6699 10.0697 30.7839 10.2634C31.9553 12.2546 32.1952 14.2212 31.4617 15.7975C30.5785 17.6903 28.4526 18.8345 25.4744 18.9763C25.2468 18.9889 25.0085 18.9938 24.7683 18.9938C22.1493 18.9938 19.181 18.2771 16.3191 16.9411C9.58806 13.8033 5.69131 8.38334 7.46263 4.60028C9.06302 1.18333 14.6376 0.445954 20.6619 2.64813L24.3992 0.1286C24.5174 0.0507873 24.6552 0.0066365 24.7966 0.000669906ZM66.365 8.5993C65.2959 8.59934 64.38 8.94309 63.6189 9.63153C62.8578 10.302 62.4046 11.218 62.2595 12.3776H70.5525C70.5342 11.2361 70.1262 10.3201 69.3288 9.63153C68.5314 8.94291 67.5429 8.59936 66.365 8.5993ZM157.675 8.5993C156.606 8.5994 155.69 8.94337 154.929 9.63153C154.168 10.302 153.714 11.218 153.569 12.3776H161.862C161.844 11.2361 161.436 10.3201 160.638 9.63153C159.841 8.943 158.852 8.59936 157.675 8.5993ZM45.9783 11.1813H49.404C50.5639 11.1813 51.4344 10.8912 52.0144 10.3112C52.6121 9.73127 52.9119 8.95172 52.9119 7.97333C52.9117 6.99507 52.6214 6.23376 52.0417 5.69012C51.4618 5.12831 50.582 4.84642 49.404 4.84637H45.9783V11.1813ZM18.8786 3.85126C14.2658 2.48608 10.0787 2.99667 8.99584 5.30829C8.40488 6.57088 8.82357 8.20146 9.9763 9.85516L18.8786 3.85126Z" fill="#005ECD"/>
</svg>
