<svg width="168" height="46" viewBox="0 0 168 46" fill="none" xmlns="http://www.w3.org/2000/svg">
<path d="M9.55834 11.2077C10.9932 13.8292 13.9615 16.4531 17.9089 18.2927C20.7708 19.6287 23.7392 20.3454 26.3581 20.3454C26.579 20.3454 26.7958 20.3399 27.0066 20.3298L26.9128 29.8015C26.9105 29.9598 26.8597 30.1145 26.7683 30.2438C26.6768 30.373 26.5477 30.4713 26.3992 30.5261C26.2506 30.5808 26.0888 30.5894 25.9353 30.5505C25.7816 30.5114 25.6434 30.4265 25.5388 30.3073L17.0261 20.5729C16.5266 20.0002 15.8358 19.6277 15.0828 19.5251L2.2683 17.7819C2.1109 17.7609 1.96297 17.6924 1.84545 17.5856C1.72795 17.4788 1.64608 17.3379 1.61009 17.1833C1.57432 17.0289 1.58608 16.8669 1.64427 16.7194C1.70257 16.572 1.80462 16.4454 1.93627 16.3571L9.55834 11.2077ZM97.1247 17.653L101.503 6.23309H104.711L95.5212 28.2565H92.3122L95.3581 20.9694L89.4578 6.23309H92.9109L97.1247 17.653ZM68.0906 5.98895C69.5041 5.989 70.7644 6.29668 71.8699 6.91278C72.9754 7.52899 73.8366 8.39953 74.4529 9.52313C75.0691 10.6287 75.3776 11.9072 75.3777 13.3571C75.3777 13.9187 75.3407 14.4266 75.2683 14.8796H63.822C63.9127 16.0758 64.3576 17.0364 65.155 17.7614C65.9524 18.4862 66.9308 18.8492 68.0906 18.8493C69.758 18.8492 70.937 18.1511 71.6257 16.7556H74.9695C74.5164 18.1328 73.6917 19.2659 72.4958 20.154C71.3177 21.024 69.8486 21.4586 68.0906 21.4587C66.6588 21.4586 65.372 21.1418 64.2302 20.5075C63.1065 19.855 62.2187 18.9486 61.5661 17.7888C60.9319 16.6107 60.614 15.2511 60.614 13.7106C60.6141 12.1701 60.9226 10.8188 61.5388 9.65887C62.1732 8.48114 63.052 7.57437 64.1755 6.94012C65.3173 6.30593 66.6227 5.989 68.0906 5.98895ZM159.401 5.98895C160.815 5.98904 162.075 6.2966 163.18 6.91278C164.286 7.52896 165.146 8.39964 165.762 9.52313C166.379 10.6287 166.687 11.9072 166.687 13.3571C166.687 13.9187 166.651 14.4266 166.579 14.8796H155.133C155.223 16.0757 155.667 17.0364 156.465 17.7614C157.262 18.4864 158.241 18.8493 159.401 18.8493C161.068 18.8491 162.247 18.151 162.935 16.7556H166.279C165.826 18.1328 165.001 19.2659 163.805 20.154C162.627 21.0239 161.159 21.4586 159.401 21.4587C157.969 21.4587 156.682 21.1419 155.54 20.5075C154.416 19.855 153.528 18.9486 152.876 17.7888C152.241 16.6107 151.924 15.2511 151.924 13.7106C151.924 12.1701 152.232 10.8188 152.848 9.65887C153.483 8.48105 154.362 7.5744 155.486 6.94012C156.628 6.30603 157.933 5.98895 159.401 5.98895ZM109.986 14.5807C109.986 15.9215 110.322 16.9545 110.992 17.6794C111.663 18.3862 112.578 18.7399 113.738 18.7399C114.898 18.7399 115.814 18.3862 116.484 17.6794C117.173 16.9545 117.517 15.9216 117.517 14.5807V6.23309H120.617V21.2145H117.517V19.447C117.028 20.0629 116.385 20.5523 115.588 20.9147C114.808 21.2591 113.974 21.4313 113.086 21.4313C111.908 21.4313 110.847 21.1872 109.905 20.6979C108.981 20.2085 108.247 19.4828 107.703 18.5222C107.177 17.5616 106.914 16.4018 106.914 15.0427V6.23309H109.986V14.5807ZM50.9939 2.31805C52.4438 2.31809 53.6679 2.57229 54.6648 3.07977C55.6795 3.58722 56.4313 4.26718 56.9206 5.11883C57.4281 5.97058 57.6823 6.92227 57.6824 7.97333C57.6824 9.20563 57.3192 10.3295 56.5945 11.3444C55.8877 12.3412 54.7913 13.0219 53.3054 13.3845L57.9812 21.2145H54.2839L49.9333 13.6559H47.5681V21.2145H44.4685V2.31805H50.9939ZM87.9704 8.76239L81.1736 18.6862H87.9704V21.2145H77.5847V18.6862L84.4089 8.76239H77.5847V6.23309H87.9704V8.76239ZM142.841 5.98895C144.019 5.98899 145.071 6.23308 145.995 6.72235C146.937 7.21171 147.671 7.93759 148.197 8.89813C148.741 9.85858 149.012 11.0186 149.012 12.3776V21.2145H145.94V12.8405C145.94 11.4994 145.605 10.4751 144.934 9.76825C144.264 9.04334 143.348 8.68042 142.188 8.68036C141.029 8.68042 140.104 9.04358 139.416 9.76825C138.745 10.4751 138.409 11.4994 138.409 12.8405V21.2145H135.337V12.8405C135.337 11.4995 135.001 10.4751 134.331 9.76825C133.66 9.04334 132.745 8.68042 131.585 8.68036C130.425 8.68042 129.501 9.04358 128.812 9.76825C128.142 10.4751 127.805 11.4994 127.805 12.8405V21.2145H124.707V6.23309H127.805V7.94598C128.313 7.32995 128.957 6.84986 129.736 6.50555C130.515 6.16135 131.349 5.98901 132.237 5.98895C133.433 5.98899 134.504 6.24222 135.446 6.74969C136.388 7.25711 137.113 7.9915 137.621 8.95184C138.074 8.04594 138.782 7.32987 139.742 6.80438C140.702 6.26095 141.735 5.98903 142.841 5.98895ZM26.3865 0.000669906C26.528 -0.00519988 26.6693 0.0275971 26.7937 0.0953965C26.9179 0.163174 27.0217 0.263439 27.0935 0.385436C27.1652 0.507453 27.2021 0.647259 27.2009 0.788756L27.157 5.0993C28.1514 5.75655 29.0925 6.49442 29.9695 7.30731C30.1328 7.46191 30.2278 7.67627 30.2341 7.90106C30.2402 8.12567 30.157 8.34422 30.0027 8.50751C29.848 8.67085 29.6337 8.7659 29.4089 8.77215C29.1841 8.77821 28.9658 8.69433 28.8025 8.53973C28.2717 8.04845 27.7151 7.58734 27.1365 7.15692L27.0339 17.2761C29.3229 17.1446 30.9137 16.3689 31.5134 15.0817C32.1431 13.728 31.5333 12.1813 30.9109 11.1237C30.8544 11.0277 30.8169 10.9215 30.8015 10.8112C30.7861 10.7011 30.7932 10.5888 30.821 10.4811C30.849 10.3735 30.8976 10.2711 30.9646 10.1823C31.0316 10.0937 31.1159 10.0189 31.2117 9.96258C31.3075 9.90627 31.4141 9.86865 31.5242 9.85321C31.6344 9.83783 31.7475 9.84481 31.8552 9.87274C32.0727 9.92929 32.2598 10.0697 32.3738 10.2634C33.5452 12.2546 33.785 14.2212 33.0515 15.7975C32.1684 17.6903 30.0424 18.8345 27.0642 18.9763C26.8366 18.9889 26.5984 18.9938 26.3581 18.9938C23.7391 18.9938 20.7708 18.2771 17.9089 16.9411C11.1779 13.8033 7.28116 8.38334 9.05248 4.60028C10.6529 1.18333 16.2275 0.445954 22.2517 2.64813L25.989 0.1286C26.1073 0.0507873 26.245 0.0066365 26.3865 0.000669906ZM67.9548 8.5993C66.8857 8.59934 65.9699 8.94309 65.2087 9.63153C64.4476 10.302 63.9945 11.218 63.8494 12.3776H72.1423C72.124 11.2361 71.716 10.3201 70.9187 9.63153C70.1213 8.94291 69.1328 8.59936 67.9548 8.5993ZM159.264 8.5993C158.196 8.5994 157.28 8.94337 156.519 9.63153C155.758 10.302 155.304 11.218 155.159 12.3776H163.452C163.434 11.2361 163.026 10.3201 162.228 9.63153C161.431 8.943 160.442 8.59936 159.264 8.5993ZM47.5681 11.1813H50.9939C52.1538 11.1813 53.0243 10.8912 53.6042 10.3112C54.2019 9.73127 54.5017 8.95172 54.5017 7.97333C54.5016 6.99507 54.2112 6.23376 53.6316 5.69012C53.0516 5.12831 52.1719 4.84642 50.9939 4.84637H47.5681V11.1813ZM20.4685 3.85126C15.8556 2.48608 11.6685 2.99667 10.5857 5.30829C9.99473 6.57088 10.4134 8.20146 11.5661 9.85516L20.4685 3.85126Z" fill="#005ECD"/>
<path d="M50.0461 45.1204C49.3901 45.1204 48.8301 45.0004 48.3661 44.7604C47.9021 44.5204 47.4901 44.1724 47.1301 43.7164L47.8981 42.9484C48.1621 43.3164 48.4661 43.5964 48.8101 43.7884C49.1541 43.9724 49.5781 44.0644 50.0821 44.0644C50.5781 44.0644 50.9741 43.9564 51.2701 43.7404C51.5741 43.5244 51.7261 43.2284 51.7261 42.8524C51.7261 42.5404 51.6541 42.2884 51.5101 42.0964C51.3661 41.9044 51.1701 41.7484 50.9221 41.6284C50.6821 41.5004 50.4181 41.3884 50.1301 41.2924C49.8421 41.1884 49.5541 41.0804 49.2661 40.9684C48.9781 40.8484 48.7141 40.7044 48.4741 40.5364C48.2341 40.3604 48.0381 40.1324 47.8861 39.8524C47.7421 39.5724 47.6701 39.2204 47.6701 38.7964C47.6701 38.3244 47.7821 37.9244 48.0061 37.5964C48.2381 37.2604 48.5501 37.0044 48.9421 36.8284C49.3421 36.6444 49.7901 36.5524 50.2861 36.5524C50.8301 36.5524 51.3181 36.6604 51.7501 36.8764C52.1821 37.0844 52.5341 37.3604 52.8061 37.7044L52.0381 38.4724C51.7901 38.1844 51.5221 37.9684 51.2341 37.8244C50.9541 37.6804 50.6301 37.6084 50.2621 37.6084C49.8141 37.6084 49.4581 37.7084 49.1941 37.9084C48.9301 38.1004 48.7981 38.3724 48.7981 38.7244C48.7981 39.0044 48.8701 39.2324 49.0141 39.4084C49.1661 39.5764 49.3621 39.7204 49.6021 39.8404C49.8421 39.9604 50.1061 40.0724 50.3941 40.1764C50.6901 40.2724 50.9821 40.3804 51.2701 40.5004C51.5581 40.6204 51.8221 40.7724 52.0621 40.9564C52.3021 41.1404 52.4941 41.3804 52.6381 41.6764C52.7901 41.9644 52.8661 42.3284 52.8661 42.7684C52.8661 43.5044 52.6101 44.0804 52.0981 44.4964C51.5941 44.9124 50.9101 45.1204 50.0461 45.1204ZM56.5363 45.1204C56.0163 45.1204 55.5443 44.9924 55.1203 44.7364C54.6963 44.4724 54.3603 44.1164 54.1123 43.6684C53.8723 43.2204 53.7523 42.7164 53.7523 42.1564C53.7523 41.5964 53.8723 41.0924 54.1123 40.6444C54.3603 40.1964 54.6923 39.8404 55.1083 39.5764C55.5323 39.3124 56.0083 39.1804 56.5363 39.1804C56.9683 39.1804 57.3523 39.2724 57.6883 39.4564C58.0323 39.6324 58.3083 39.8804 58.5163 40.2004C58.7243 40.5124 58.8403 40.8764 58.8643 41.2924V43.0084C58.8403 43.4164 58.7243 43.7804 58.5163 44.1004C58.3163 44.4204 58.0443 44.6724 57.7003 44.8564C57.3643 45.0324 56.9763 45.1204 56.5363 45.1204ZM56.7163 44.1004C57.2523 44.1004 57.6843 43.9204 58.0123 43.5604C58.3403 43.1924 58.5043 42.7244 58.5043 42.1564C58.5043 41.7644 58.4283 41.4244 58.2763 41.1364C58.1323 40.8404 57.9243 40.6124 57.6523 40.4524C57.3803 40.2844 57.0643 40.2004 56.7043 40.2004C56.3443 40.2004 56.0243 40.2844 55.7443 40.4524C55.4723 40.6204 55.2563 40.8524 55.0963 41.1484C54.9443 41.4364 54.8683 41.7684 54.8683 42.1444C54.8683 42.5284 54.9443 42.8684 55.0963 43.1644C55.2563 43.4524 55.4763 43.6804 55.7563 43.8484C56.0363 44.0164 56.3563 44.1004 56.7163 44.1004ZM58.4323 45.0004V43.4644L58.6363 42.0724L58.4323 40.6924V39.3004H59.5243V45.0004H58.4323ZM61.0967 45.0004V36.4324H62.1767V45.0004H61.0967ZM66.3968 45.1204C65.8288 45.1204 65.3168 44.9924 64.8608 44.7364C64.4048 44.4724 64.0448 44.1164 63.7808 43.6684C63.5168 43.2204 63.3848 42.7124 63.3848 42.1444C63.3848 41.5844 63.5128 41.0804 63.7688 40.6324C64.0328 40.1844 64.3848 39.8324 64.8248 39.5764C65.2728 39.3124 65.7728 39.1804 66.3248 39.1804C66.8528 39.1804 67.3168 39.3004 67.7168 39.5404C68.1248 39.7804 68.4408 40.1124 68.6648 40.5364C68.8968 40.9604 69.0128 41.4404 69.0128 41.9764C69.0128 42.0564 69.0088 42.1444 69.0008 42.2404C68.9928 42.3284 68.9768 42.4324 68.9528 42.5524H64.1408V41.6524H68.3768L67.9808 42.0004C67.9808 41.6164 67.9128 41.2924 67.7768 41.0284C67.6408 40.7564 67.4488 40.5484 67.2008 40.4044C66.9528 40.2524 66.6528 40.1764 66.3008 40.1764C65.9328 40.1764 65.6088 40.2564 65.3288 40.4164C65.0488 40.5764 64.8328 40.8004 64.6808 41.0884C64.5288 41.3764 64.4528 41.7164 64.4528 42.1084C64.4528 42.5084 64.5328 42.8604 64.6928 43.1644C64.8528 43.4604 65.0808 43.6924 65.3768 43.8604C65.6728 44.0204 66.0128 44.1004 66.3968 44.1004C66.7168 44.1004 67.0088 44.0444 67.2728 43.9324C67.5448 43.8204 67.7768 43.6524 67.9688 43.4284L68.6648 44.1364C68.3928 44.4564 68.0568 44.7004 67.6568 44.8684C67.2648 45.0364 66.8448 45.1204 66.3968 45.1204ZM72.0024 45.1204C71.6824 45.1204 71.3784 45.0804 71.0904 45.0004C70.8104 44.9124 70.5504 44.7924 70.3104 44.6404C70.0704 44.4804 69.8624 44.2924 69.6864 44.0764L70.3824 43.3804C70.5904 43.6364 70.8304 43.8284 71.1024 43.9564C71.3744 44.0764 71.6784 44.1364 72.0144 44.1364C72.3504 44.1364 72.6104 44.0804 72.7944 43.9684C72.9784 43.8484 73.0704 43.6844 73.0704 43.4764C73.0704 43.2684 72.9944 43.1084 72.8424 42.9964C72.6984 42.8764 72.5104 42.7804 72.2784 42.7084C72.0464 42.6284 71.7984 42.5524 71.5344 42.4804C71.2784 42.4004 71.0344 42.3004 70.8024 42.1804C70.5704 42.0604 70.3784 41.8964 70.2264 41.6884C70.0824 41.4804 70.0104 41.2044 70.0104 40.8604C70.0104 40.5164 70.0944 40.2204 70.2624 39.9724C70.4304 39.7164 70.6624 39.5204 70.9584 39.3844C71.2624 39.2484 71.6264 39.1804 72.0504 39.1804C72.4984 39.1804 72.8944 39.2604 73.2384 39.4204C73.5904 39.5724 73.8784 39.8044 74.1024 40.1164L73.4064 40.8124C73.2464 40.6044 73.0464 40.4444 72.8064 40.3324C72.5744 40.2204 72.3104 40.1644 72.0144 40.1644C71.7024 40.1644 71.4624 40.2204 71.2944 40.3324C71.1344 40.4364 71.0544 40.5844 71.0544 40.7764C71.0544 40.9684 71.1264 41.1164 71.2704 41.2204C71.4144 41.3244 71.6024 41.4124 71.8344 41.4844C72.0744 41.5564 72.3224 41.6324 72.5784 41.7124C72.8344 41.7844 73.0784 41.8844 73.3104 42.0124C73.5424 42.1404 73.7304 42.3124 73.8744 42.5284C74.0264 42.7444 74.1024 43.0284 74.1024 43.3804C74.1024 43.9164 73.9104 44.3404 73.5264 44.6524C73.1504 44.9644 72.6424 45.1204 72.0024 45.1204ZM77.9996 45.0004V36.6724H79.1276V45.0004H77.9996ZM78.7676 45.0004V43.9684H83.5436V45.0004H78.7676ZM78.7676 41.2324V40.2484H83.1476V41.2324H78.7676ZM78.7676 37.7044V36.6724H83.4836V37.7044H78.7676ZM88.6298 45.0004L86.8538 42.5044L86.6498 42.3124L84.4058 39.3004H85.7138L87.3338 41.5204L87.5378 41.6884L89.9378 45.0004H88.6298ZM84.2978 45.0004L86.6498 41.8324L87.2617 42.6244L85.5698 45.0004H84.2978ZM87.6217 42.3004L86.9978 41.5324L88.5698 39.3004H89.8298L87.6217 42.3004ZM93.3968 45.1204C92.8288 45.1204 92.3168 44.9924 91.8608 44.7364C91.4048 44.4724 91.0448 44.1164 90.7808 43.6684C90.5168 43.2204 90.3848 42.7124 90.3848 42.1444C90.3848 41.5844 90.5128 41.0804 90.7688 40.6324C91.0328 40.1844 91.3848 39.8324 91.8248 39.5764C92.2728 39.3124 92.7728 39.1804 93.3248 39.1804C93.8528 39.1804 94.3168 39.3004 94.7168 39.5404C95.1248 39.7804 95.4408 40.1124 95.6648 40.5364C95.8968 40.9604 96.0128 41.4404 96.0128 41.9764C96.0128 42.0564 96.0088 42.1444 96.0008 42.2404C95.9928 42.3284 95.9768 42.4324 95.9528 42.5524H91.1408V41.6524H95.3768L94.9808 42.0004C94.9808 41.6164 94.9128 41.2924 94.7768 41.0284C94.6408 40.7564 94.4488 40.5484 94.2008 40.4044C93.9528 40.2524 93.6528 40.1764 93.3008 40.1764C92.9328 40.1764 92.6088 40.2564 92.3288 40.4164C92.0488 40.5764 91.8328 40.8004 91.6808 41.0884C91.5288 41.3764 91.4528 41.7164 91.4528 42.1084C91.4528 42.5084 91.5328 42.8604 91.6928 43.1644C91.8528 43.4604 92.0808 43.6924 92.3768 43.8604C92.6728 44.0204 93.0128 44.1004 93.3968 44.1004C93.7168 44.1004 94.0088 44.0444 94.2728 43.9324C94.5448 43.8204 94.7768 43.6524 94.9688 43.4284L95.6648 44.1364C95.3928 44.4564 95.0568 44.7004 94.6568 44.8684C94.2648 45.0364 93.8448 45.1204 93.3968 45.1204ZM99.7944 45.1204C99.2344 45.1204 98.7264 44.9884 98.2704 44.7244C97.8224 44.4604 97.4664 44.1044 97.2024 43.6564C96.9464 43.2004 96.8184 42.6964 96.8184 42.1444C96.8184 41.5844 96.9464 41.0804 97.2024 40.6324C97.4664 40.1844 97.8224 39.8324 98.2704 39.5764C98.7264 39.3124 99.2344 39.1804 99.7944 39.1804C100.234 39.1804 100.642 39.2644 101.018 39.4324C101.394 39.5924 101.718 39.8284 101.99 40.1404L101.27 40.8604C101.094 40.6524 100.878 40.4964 100.622 40.3924C100.374 40.2804 100.098 40.2244 99.7944 40.2244C99.4344 40.2244 99.1144 40.3084 98.8344 40.4764C98.5544 40.6364 98.3344 40.8604 98.1744 41.1484C98.0144 41.4364 97.9344 41.7684 97.9344 42.1444C97.9344 42.5204 98.0144 42.8524 98.1744 43.1404C98.3344 43.4284 98.5544 43.6564 98.8344 43.8244C99.1144 43.9924 99.4344 44.0764 99.7944 44.0764C100.098 44.0764 100.374 44.0244 100.622 43.9204C100.878 43.8084 101.098 43.6484 101.282 43.4404L101.99 44.1604C101.726 44.4644 101.402 44.7004 101.018 44.8684C100.642 45.0364 100.234 45.1204 99.7944 45.1204ZM105.354 45.1204C104.89 45.1204 104.47 45.0164 104.094 44.8084C103.726 44.5924 103.438 44.2964 103.23 43.9204C103.022 43.5444 102.918 43.1084 102.918 42.6124V39.3004H103.998V42.5644C103.998 42.8764 104.05 43.1484 104.154 43.3804C104.266 43.6044 104.426 43.7764 104.634 43.8964C104.842 44.0164 105.086 44.0764 105.366 44.0764C105.79 44.0764 106.122 43.9444 106.362 43.6804C106.602 43.4084 106.722 43.0364 106.722 42.5644V39.3004H107.802V42.6124C107.802 43.1084 107.698 43.5444 107.49 43.9204C107.282 44.2964 106.994 44.5924 106.626 44.8084C106.266 45.0164 105.842 45.1204 105.354 45.1204ZM110.125 45.0004V36.9124H111.205V45.0004H110.125ZM108.721 40.2844V39.3004H112.609V40.2844H108.721ZM113.679 45.0004V39.3004H114.759V45.0004H113.679ZM114.219 38.1604C114.019 38.1604 113.855 38.0964 113.727 37.9684C113.599 37.8324 113.535 37.6644 113.535 37.4644C113.535 37.2724 113.599 37.1124 113.727 36.9844C113.855 36.8484 114.019 36.7804 114.219 36.7804C114.419 36.7804 114.583 36.8484 114.711 36.9844C114.839 37.1124 114.903 37.2724 114.903 37.4644C114.903 37.6644 114.839 37.8324 114.711 37.9684C114.583 38.0964 114.419 38.1604 114.219 38.1604ZM118.307 45.0004L115.691 39.3004H116.891L118.991 44.1124H118.295L120.407 39.3004H121.559L118.943 45.0004H118.307ZM124.897 45.1204C124.329 45.1204 123.817 44.9924 123.361 44.7364C122.905 44.4724 122.545 44.1164 122.281 43.6684C122.017 43.2204 121.885 42.7124 121.885 42.1444C121.885 41.5844 122.013 41.0804 122.269 40.6324C122.533 40.1844 122.885 39.8324 123.325 39.5764C123.773 39.3124 124.273 39.1804 124.825 39.1804C125.353 39.1804 125.817 39.3004 126.217 39.5404C126.625 39.7804 126.941 40.1124 127.165 40.5364C127.397 40.9604 127.513 41.4404 127.513 41.9764C127.513 42.0564 127.509 42.1444 127.501 42.2404C127.493 42.3284 127.477 42.4324 127.453 42.5524H122.641V41.6524H126.877L126.481 42.0004C126.481 41.6164 126.413 41.2924 126.277 41.0284C126.141 40.7564 125.949 40.5484 125.701 40.4044C125.453 40.2524 125.153 40.1764 124.801 40.1764C124.433 40.1764 124.109 40.2564 123.829 40.4164C123.549 40.5764 123.333 40.8004 123.181 41.0884C123.029 41.3764 122.953 41.7164 122.953 42.1084C122.953 42.5084 123.033 42.8604 123.193 43.1644C123.353 43.4604 123.581 43.6924 123.877 43.8604C124.173 44.0204 124.513 44.1004 124.897 44.1004C125.217 44.1004 125.509 44.0444 125.773 43.9324C126.045 43.8204 126.277 43.6524 126.469 43.4284L127.165 44.1364C126.893 44.4564 126.557 44.7004 126.157 44.8684C125.765 45.0364 125.345 45.1204 124.897 45.1204ZM135.171 45.1204C134.579 45.1204 134.027 45.0124 133.515 44.7964C133.003 44.5724 132.555 44.2644 132.171 43.8724C131.787 43.4724 131.487 43.0124 131.271 42.4924C131.063 41.9724 130.959 41.4164 130.959 40.8244C130.959 40.2244 131.063 39.6684 131.271 39.1564C131.487 38.6364 131.783 38.1804 132.159 37.7884C132.543 37.3964 132.987 37.0924 133.491 36.8764C134.003 36.6604 134.555 36.5524 135.147 36.5524C135.739 36.5524 136.287 36.6604 136.791 36.8764C137.303 37.0924 137.751 37.3964 138.135 37.7884C138.519 38.1804 138.819 38.6364 139.035 39.1564C139.251 39.6764 139.359 40.2364 139.359 40.8364C139.359 41.4284 139.251 41.9844 139.035 42.5044C138.819 43.0244 138.519 43.4804 138.135 43.8724C137.759 44.2644 137.315 44.5724 136.803 44.7964C136.299 45.0124 135.755 45.1204 135.171 45.1204ZM135.147 44.0404C135.747 44.0404 136.271 43.9044 136.719 43.6324C137.175 43.3524 137.535 42.9724 137.799 42.4924C138.063 42.0044 138.195 41.4484 138.195 40.8244C138.195 40.3604 138.119 39.9364 137.967 39.5524C137.815 39.1604 137.603 38.8204 137.331 38.5324C137.059 38.2444 136.739 38.0244 136.371 37.8724C136.003 37.7124 135.595 37.6324 135.147 37.6324C134.555 37.6324 134.031 37.7684 133.575 38.0404C133.127 38.3124 132.771 38.6884 132.507 39.1684C132.251 39.6484 132.123 40.2004 132.123 40.8244C132.123 41.2884 132.195 41.7204 132.339 42.1204C132.491 42.5124 132.699 42.8524 132.963 43.1404C133.235 43.4204 133.555 43.6404 133.923 43.8004C134.299 43.9604 134.707 44.0404 135.147 44.0404ZM141.53 45.0004V38.6764C141.53 38.2364 141.622 37.8524 141.806 37.5244C141.998 37.1884 142.262 36.9244 142.598 36.7324C142.934 36.5324 143.322 36.4324 143.762 36.4324C144.21 36.4324 144.578 36.5284 144.866 36.7204C145.154 36.9124 145.366 37.1764 145.502 37.5124C145.646 37.8404 145.718 38.2124 145.718 38.6284H144.926C144.918 38.2604 144.818 37.9684 144.626 37.7524C144.434 37.5284 144.146 37.4164 143.762 37.4164C143.386 37.4164 143.098 37.5284 142.898 37.7524C142.706 37.9684 142.61 38.2684 142.61 38.6524V45.0004H141.53ZM140.126 40.2844V39.3004H147.818V40.2844H140.126ZM144.926 45.0004V38.4484C144.926 38.0244 145.018 37.6564 145.202 37.3444C145.386 37.0244 145.638 36.7724 145.958 36.5884C146.286 36.4044 146.666 36.3124 147.098 36.3124C147.426 36.3124 147.71 36.3684 147.95 36.4804C148.19 36.5924 148.41 36.7564 148.61 36.9724L147.902 37.6684C147.798 37.5564 147.682 37.4724 147.554 37.4164C147.426 37.3524 147.27 37.3204 147.086 37.3204C146.742 37.3204 146.474 37.4204 146.282 37.6204C146.098 37.8204 146.006 38.0964 146.006 38.4484V45.0004H144.926ZM148.906 45.0004V39.3004H149.986V45.0004H148.906ZM149.446 38.1604C149.246 38.1604 149.082 38.0964 148.954 37.9684C148.826 37.8324 148.762 37.6644 148.762 37.4644C148.762 37.2724 148.826 37.1124 148.954 36.9844C149.082 36.8484 149.246 36.7804 149.446 36.7804C149.646 36.7804 149.81 36.8484 149.938 36.9844C150.066 37.1124 150.13 37.2724 150.13 37.4644C150.13 37.6644 150.066 37.8324 149.938 37.9684C149.81 38.0964 149.646 38.1604 149.446 38.1604ZM154.181 45.1204C153.621 45.1204 153.113 44.9884 152.657 44.7244C152.209 44.4604 151.853 44.1044 151.589 43.6564C151.333 43.2004 151.205 42.6964 151.205 42.1444C151.205 41.5844 151.333 41.0804 151.589 40.6324C151.853 40.1844 152.209 39.8324 152.657 39.5764C153.113 39.3124 153.621 39.1804 154.181 39.1804C154.621 39.1804 155.029 39.2644 155.405 39.4324C155.781 39.5924 156.105 39.8284 156.377 40.1404L155.657 40.8604C155.481 40.6524 155.265 40.4964 155.009 40.3924C154.761 40.2804 154.485 40.2244 154.181 40.2244C153.821 40.2244 153.501 40.3084 153.221 40.4764C152.941 40.6364 152.721 40.8604 152.561 41.1484C152.401 41.4364 152.321 41.7684 152.321 42.1444C152.321 42.5204 152.401 42.8524 152.561 43.1404C152.721 43.4284 152.941 43.6564 153.221 43.8244C153.501 43.9924 153.821 44.0764 154.181 44.0764C154.485 44.0764 154.761 44.0244 155.009 43.9204C155.265 43.8084 155.485 43.6484 155.669 43.4404L156.377 44.1604C156.113 44.4644 155.789 44.7004 155.405 44.8684C155.029 45.0364 154.621 45.1204 154.181 45.1204ZM159.971 45.1204C159.403 45.1204 158.891 44.9924 158.435 44.7364C157.979 44.4724 157.619 44.1164 157.355 43.6684C157.091 43.2204 156.959 42.7124 156.959 42.1444C156.959 41.5844 157.087 41.0804 157.343 40.6324C157.607 40.1844 157.959 39.8324 158.399 39.5764C158.847 39.3124 159.347 39.1804 159.899 39.1804C160.427 39.1804 160.891 39.3004 161.291 39.5404C161.699 39.7804 162.015 40.1124 162.239 40.5364C162.471 40.9604 162.587 41.4404 162.587 41.9764C162.587 42.0564 162.583 42.1444 162.575 42.2404C162.567 42.3284 162.551 42.4324 162.527 42.5524H157.715V41.6524H161.951L161.555 42.0004C161.555 41.6164 161.487 41.2924 161.351 41.0284C161.215 40.7564 161.023 40.5484 160.775 40.4044C160.527 40.2524 160.227 40.1764 159.875 40.1764C159.507 40.1764 159.183 40.2564 158.903 40.4164C158.623 40.5764 158.407 40.8004 158.255 41.0884C158.103 41.3764 158.027 41.7164 158.027 42.1084C158.027 42.5084 158.107 42.8604 158.267 43.1644C158.427 43.4604 158.655 43.6924 158.951 43.8604C159.247 44.0204 159.587 44.1004 159.971 44.1004C160.291 44.1004 160.583 44.0444 160.847 43.9324C161.119 43.8204 161.351 43.6524 161.543 43.4284L162.239 44.1364C161.967 44.4564 161.631 44.7004 161.231 44.8684C160.839 45.0364 160.419 45.1204 159.971 45.1204ZM163.765 45.0004V39.3004H164.845V45.0004H163.765ZM164.845 41.7484L164.437 41.5684C164.437 40.8404 164.605 40.2604 164.941 39.8284C165.277 39.3964 165.761 39.1804 166.393 39.1804C166.681 39.1804 166.941 39.2324 167.173 39.3364C167.405 39.4324 167.621 39.5964 167.821 39.8284L167.113 40.5604C166.993 40.4324 166.861 40.3404 166.717 40.2844C166.573 40.2284 166.405 40.2004 166.213 40.2004C165.813 40.2004 165.485 40.3284 165.229 40.5844C164.973 40.8404 164.845 41.2284 164.845 41.7484Z" fill="#7C7E82"/>
</svg>
