<svg width="169" height="46" viewBox="0 0 169 46" fill="none" xmlns="http://www.w3.org/2000/svg">
<path d="M20.6251 16.7569C23.5048 18.0981 26.4731 18.7636 28.9758 18.632H29.0213L29.201 0.789457C29.2023 0.647654 29.1651 0.508149 29.0933 0.385875C29.0215 0.263602 28.9177 0.163163 28.7932 0.0953123C28.6687 0.0274611 28.5281 -0.00524854 28.3864 0.000684872C28.2447 0.00661828 28.1073 0.0509713 27.9889 0.128996L12.9805 10.251C14.1951 12.5715 17.0014 15.0665 20.6251 16.7569Z" fill="#1C5540"/>
<path d="M28.3585 20.3452C25.7394 20.3452 22.7711 19.629 19.9091 18.2929C15.9615 16.4532 12.9933 13.8291 11.5585 11.2075L3.93661 16.3571C3.80468 16.4455 3.70278 16.5719 3.64447 16.7196C3.58616 16.8673 3.5742 17.0293 3.61019 17.1839C3.64618 17.3386 3.7284 17.4786 3.84593 17.5854C3.96346 17.6922 4.11071 17.7607 4.26811 17.7818L17.0826 19.5253C17.8358 19.6277 18.5263 20 19.026 20.5729L27.5386 30.3077C27.6431 30.4269 27.7814 30.5116 27.935 30.5507C28.0887 30.5897 28.2506 30.5813 28.3994 30.5265C28.5482 30.4717 28.6769 30.3731 28.7685 30.2437C28.8601 30.1143 28.9104 29.9602 28.9126 29.8016L29.0063 20.33C28.7954 20.3401 28.5795 20.3452 28.3585 20.3452Z" fill="#1C5540"/>
<path d="M28.3577 18.9939C25.7387 18.9939 22.7704 18.2778 19.9084 16.9416C13.1773 13.8038 9.28031 8.3835 11.0517 4.6004C12.823 0.8173 19.4656 0.318791 26.1967 3.45661C28.3132 4.42546 30.2617 5.72558 31.9688 7.30803C32.1322 7.46273 32.2275 7.67601 32.2336 7.90095C32.2398 8.12589 32.1564 8.34407 32.0017 8.50749C31.847 8.67091 31.6337 8.76618 31.4088 8.77235C31.1838 8.77852 30.9656 8.69508 30.8022 8.54039C29.23 7.08507 27.4362 5.88922 25.4882 4.99769C19.8072 2.34825 13.901 2.49755 12.5851 5.30894C11.2693 8.12032 14.9512 12.7587 20.6245 15.4056C23.5042 16.7468 26.4725 17.4149 28.9752 17.2807C31.2957 17.1593 32.9076 16.3799 33.5124 15.0817C34.1425 13.7279 33.5326 12.1818 32.9101 11.124C32.8536 11.028 32.8166 10.9218 32.8012 10.8114C32.7857 10.7011 32.7922 10.5888 32.8201 10.4809C32.8481 10.3731 32.897 10.2718 32.9641 10.1828C33.0312 10.0939 33.1152 10.019 33.2112 9.96253C33.3073 9.90603 33.4135 9.86901 33.5239 9.85357C33.6342 9.83813 33.7465 9.84457 33.8544 9.87254C34.0722 9.92901 34.2587 10.0697 34.3727 10.2637C35.5444 12.2552 35.7848 14.2214 35.0509 15.7979C34.1678 17.6907 32.0422 18.8345 29.0638 18.9762C28.836 18.9888 28.5981 18.9939 28.3577 18.9939Z" fill="#1C5540"/>
<path d="M168.314 17.1007C168.314 17.6626 168.278 18.1701 168.205 18.6233H156.759C156.85 19.8196 157.294 20.7802 158.091 21.5053C158.889 22.2303 159.868 22.5928 161.028 22.5928C162.695 22.5928 163.873 21.895 164.562 20.4993H167.906C167.453 21.8768 166.628 23.0097 165.432 23.8979C164.254 24.7679 162.786 25.2029 161.028 25.2029C159.596 25.2029 158.309 24.8857 157.167 24.2513C156.043 23.5988 155.155 22.6925 154.502 21.5325C153.868 20.3543 153.551 18.9949 153.551 17.4542C153.551 15.9135 153.859 14.5631 154.475 13.4031C155.11 12.2249 155.989 11.3186 157.112 10.6842C158.254 10.0498 159.559 9.73264 161.028 9.73264C162.441 9.73264 163.701 10.0408 164.807 10.657C165.912 11.2733 166.773 12.1434 167.39 13.2671C168.006 14.3728 168.314 15.6507 168.314 17.1007ZM165.079 16.1219C165.061 14.98 164.653 14.0647 163.855 13.3759C163.058 12.6871 162.07 12.3427 160.892 12.3427C159.822 12.3427 158.907 12.6871 158.146 13.3759C157.384 14.0465 156.931 14.9619 156.786 16.1219H165.079Z" fill="#232323"/>
<path d="M144.467 9.73264C145.645 9.73264 146.696 9.97733 147.621 10.4667C148.563 10.9561 149.297 11.6811 149.823 12.6418C150.367 13.6025 150.639 14.7625 150.639 16.1219V24.9582H147.566V16.5841C147.566 15.2428 147.231 14.2187 146.56 13.5118C145.89 12.7868 144.974 12.4243 143.814 12.4243C142.654 12.4243 141.73 12.7868 141.041 13.5118C140.37 14.2187 140.035 15.2428 140.035 16.5841V24.9582H136.963V16.5841C136.963 15.2428 136.627 14.2187 135.957 13.5118C135.286 12.7868 134.371 12.4243 133.211 12.4243C132.051 12.4243 131.126 12.7868 130.438 13.5118C129.767 14.2187 129.432 15.2428 129.432 16.5841V24.9582H126.332V9.97733H129.432V11.6902C129.939 11.0739 130.583 10.5936 131.362 10.2492C132.141 9.90483 132.975 9.73264 133.863 9.73264C135.06 9.73264 136.129 9.98639 137.071 10.4939C138.014 11.0014 138.739 11.7355 139.247 12.6962C139.7 11.7899 140.407 11.0739 141.367 10.5483C142.328 10.0045 143.361 9.73264 144.467 9.73264Z" fill="#232323"/>
<path d="M122.242 9.97733V24.9582H119.143V23.1909C118.653 23.8072 118.01 24.2966 117.212 24.6591C116.433 25.0035 115.599 25.1757 114.711 25.1757C113.533 25.1757 112.472 24.931 111.53 24.4416C110.605 23.9522 109.871 23.2272 109.328 22.2665C108.802 21.3059 108.539 20.1458 108.539 18.7864V9.97733H111.611V18.3242C111.611 19.6655 111.947 20.6987 112.617 21.4237C113.288 22.1306 114.203 22.484 115.363 22.484C116.523 22.484 117.439 22.1306 118.109 21.4237C118.798 20.6987 119.143 19.6655 119.143 18.3242V9.97733H122.242Z" fill="#232323"/>
<path d="M106.335 9.97733L97.1451 32H93.9368L96.9819 24.7135L91.082 9.97733H94.535L98.7492 21.3965L103.127 9.97733H106.335Z" fill="#232323"/>
<path d="M82.7998 22.4297H89.597V24.9582H79.2109V22.4297L86.0353 12.5059H79.2109V9.97733H89.597V12.5059L82.7998 22.4297Z" fill="#232323"/>
<path d="M77.0016 17.1007C77.0016 17.6626 76.9654 18.1701 76.8929 18.6233H65.4465C65.5372 19.8196 65.9812 20.7802 66.7788 21.5053C67.5763 22.2303 68.5551 22.5928 69.7151 22.5928C71.3827 22.5928 72.5609 21.895 73.2496 20.4993H76.5938C76.1407 21.8768 75.316 23.0097 74.1197 23.8979C72.9415 24.7679 71.4733 25.2029 69.7151 25.2029C68.2832 25.2029 66.9963 24.8857 65.8544 24.2513C64.7306 23.5988 63.8424 22.6925 63.1899 21.5325C62.5555 20.3543 62.2383 18.9949 62.2383 17.4542C62.2383 15.9135 62.5464 14.5631 63.1627 13.4031C63.7971 12.2249 64.6762 11.3186 65.8 10.6842C66.9419 10.0498 68.2469 9.73264 69.7151 9.73264C71.1289 9.73264 72.3887 10.0408 73.4943 10.657C74.6 11.2733 75.461 12.1434 76.0772 13.2671C76.6935 14.3728 77.0016 15.6507 77.0016 17.1007ZM73.7662 16.1219C73.7481 14.98 73.3403 14.0647 72.5427 13.3759C71.7452 12.6871 70.7573 12.3427 69.5792 12.3427C68.5098 12.3427 67.5944 12.6871 66.8331 13.3759C66.0719 14.0465 65.6187 14.9619 65.4737 16.1219H73.7662Z" fill="#232323"/>
<path d="M55.9088 24.9582L51.5586 17.3998H49.1932V24.9582H46.0938V6.06219H52.619C54.069 6.06219 55.2925 6.31595 56.2894 6.82347C57.3045 7.33099 58.0567 8.01071 58.5461 8.86261C59.0536 9.71452 59.3074 10.6661 59.3074 11.7174C59.3074 12.95 58.9449 14.0737 58.2198 15.0888C57.5129 16.0857 56.4163 16.7654 54.93 17.1279L59.6064 24.9582H55.9088ZM49.1932 14.9257H52.619C53.779 14.9257 54.6491 14.6356 55.2291 14.0556C55.8272 13.4756 56.1263 12.6962 56.1263 11.7174C56.1263 10.7386 55.8363 9.97734 55.2563 9.43357C54.6763 8.87167 53.7972 8.59073 52.619 8.59073H49.1932V14.9257Z" fill="#232323"/>
<path d="M78.2809 45V36.672H79.4089V45H78.2809ZM79.0489 41.34V40.308H83.3929V41.34H79.0489ZM79.0489 37.704V36.672H83.5969V37.704H79.0489ZM84.8978 45V39.3H85.9778V45H84.8978ZM85.4378 38.16C85.2378 38.16 85.0738 38.096 84.9458 37.968C84.8178 37.832 84.7538 37.664 84.7538 37.464C84.7538 37.272 84.8178 37.112 84.9458 36.984C85.0738 36.848 85.2378 36.78 85.4378 36.78C85.6378 36.78 85.8018 36.848 85.9298 36.984C86.0578 37.112 86.1218 37.272 86.1218 37.464C86.1218 37.664 86.0578 37.832 85.9298 37.968C85.8018 38.096 85.6378 38.16 85.4378 38.16ZM91.6013 45V41.676C91.6013 41.244 91.4653 40.888 91.1933 40.608C90.9213 40.328 90.5693 40.188 90.1373 40.188C89.8493 40.188 89.5933 40.252 89.3693 40.38C89.1453 40.508 88.9693 40.684 88.8413 40.908C88.7133 41.132 88.6493 41.388 88.6493 41.676L88.2053 41.424C88.2053 40.992 88.3013 40.608 88.4933 40.272C88.6853 39.936 88.9533 39.672 89.2973 39.48C89.6413 39.28 90.0293 39.18 90.4613 39.18C90.8933 39.18 91.2733 39.288 91.6013 39.504C91.9373 39.72 92.2013 40.004 92.3933 40.356C92.5853 40.7 92.6813 41.068 92.6813 41.46V45H91.6013ZM87.5693 45V39.3H88.6493V45H87.5693ZM96.5676 45.12C96.0476 45.12 95.5756 44.992 95.1516 44.736C94.7276 44.472 94.3916 44.116 94.1436 43.668C93.9036 43.22 93.7836 42.716 93.7836 42.156C93.7836 41.596 93.9036 41.092 94.1436 40.644C94.3916 40.196 94.7236 39.84 95.1396 39.576C95.5636 39.312 96.0396 39.18 96.5676 39.18C96.9996 39.18 97.3836 39.272 97.7196 39.456C98.0636 39.632 98.3396 39.88 98.5476 40.2C98.7556 40.512 98.8716 40.876 98.8956 41.292V43.008C98.8716 43.416 98.7556 43.78 98.5476 44.1C98.3476 44.42 98.0756 44.672 97.7316 44.856C97.3956 45.032 97.0076 45.12 96.5676 45.12ZM96.7476 44.1C97.2836 44.1 97.7156 43.92 98.0436 43.56C98.3716 43.192 98.5356 42.724 98.5356 42.156C98.5356 41.764 98.4596 41.424 98.3076 41.136C98.1636 40.84 97.9556 40.612 97.6836 40.452C97.4116 40.284 97.0956 40.2 96.7356 40.2C96.3756 40.2 96.0556 40.284 95.7756 40.452C95.5036 40.62 95.2876 40.852 95.1276 41.148C94.9756 41.436 94.8996 41.768 94.8996 42.144C94.8996 42.528 94.9756 42.868 95.1276 43.164C95.2876 43.452 95.5076 43.68 95.7876 43.848C96.0676 44.016 96.3876 44.1 96.7476 44.1ZM98.4636 45V43.464L98.6676 42.072L98.4636 40.692V39.3H99.5556V45H98.4636ZM105.16 45V41.676C105.16 41.244 105.024 40.888 104.752 40.608C104.48 40.328 104.128 40.188 103.696 40.188C103.408 40.188 103.152 40.252 102.928 40.38C102.704 40.508 102.528 40.684 102.4 40.908C102.272 41.132 102.208 41.388 102.208 41.676L101.764 41.424C101.764 40.992 101.86 40.608 102.052 40.272C102.244 39.936 102.512 39.672 102.856 39.48C103.2 39.28 103.588 39.18 104.02 39.18C104.452 39.18 104.832 39.288 105.16 39.504C105.496 39.72 105.76 40.004 105.952 40.356C106.144 40.7 106.24 41.068 106.24 41.46V45H105.16ZM101.128 45V39.3H102.208V45H101.128ZM110.306 45.12C109.746 45.12 109.238 44.988 108.782 44.724C108.334 44.46 107.978 44.104 107.714 43.656C107.458 43.2 107.33 42.696 107.33 42.144C107.33 41.584 107.458 41.08 107.714 40.632C107.978 40.184 108.334 39.832 108.782 39.576C109.238 39.312 109.746 39.18 110.306 39.18C110.746 39.18 111.154 39.264 111.53 39.432C111.906 39.592 112.23 39.828 112.502 40.14L111.782 40.86C111.606 40.652 111.39 40.496 111.134 40.392C110.886 40.28 110.61 40.224 110.306 40.224C109.946 40.224 109.626 40.308 109.346 40.476C109.066 40.636 108.846 40.86 108.686 41.148C108.526 41.436 108.446 41.768 108.446 42.144C108.446 42.52 108.526 42.852 108.686 43.14C108.846 43.428 109.066 43.656 109.346 43.824C109.626 43.992 109.946 44.076 110.306 44.076C110.61 44.076 110.886 44.024 111.134 43.92C111.39 43.808 111.61 43.648 111.794 43.44L112.502 44.16C112.238 44.464 111.914 44.7 111.53 44.868C111.154 45.036 110.746 45.12 110.306 45.12ZM113.585 45V39.3H114.665V45H113.585ZM114.125 38.16C113.925 38.16 113.761 38.096 113.633 37.968C113.505 37.832 113.441 37.664 113.441 37.464C113.441 37.272 113.505 37.112 113.633 36.984C113.761 36.848 113.925 36.78 114.125 36.78C114.325 36.78 114.489 36.848 114.617 36.984C114.745 37.112 114.809 37.272 114.809 37.464C114.809 37.664 114.745 37.832 114.617 37.968C114.489 38.096 114.325 38.16 114.125 38.16ZM118.681 45.12C118.161 45.12 117.689 44.992 117.265 44.736C116.841 44.472 116.505 44.116 116.257 43.668C116.017 43.22 115.897 42.716 115.897 42.156C115.897 41.596 116.017 41.092 116.257 40.644C116.505 40.196 116.837 39.84 117.253 39.576C117.677 39.312 118.153 39.18 118.681 39.18C119.113 39.18 119.497 39.272 119.833 39.456C120.177 39.632 120.453 39.88 120.661 40.2C120.869 40.512 120.985 40.876 121.009 41.292V43.008C120.985 43.416 120.869 43.78 120.661 44.1C120.461 44.42 120.189 44.672 119.845 44.856C119.509 45.032 119.121 45.12 118.681 45.12ZM118.861 44.1C119.397 44.1 119.829 43.92 120.157 43.56C120.485 43.192 120.649 42.724 120.649 42.156C120.649 41.764 120.573 41.424 120.421 41.136C120.277 40.84 120.069 40.612 119.797 40.452C119.525 40.284 119.209 40.2 118.849 40.2C118.489 40.2 118.169 40.284 117.889 40.452C117.617 40.62 117.401 40.852 117.241 41.148C117.089 41.436 117.013 41.768 117.013 42.144C117.013 42.528 117.089 42.868 117.241 43.164C117.401 43.452 117.621 43.68 117.901 43.848C118.181 44.016 118.501 44.1 118.861 44.1ZM120.577 45V43.464L120.781 42.072L120.577 40.692V39.3H121.669V45H120.577ZM123.241 45V36.432H124.321V45H123.241ZM127.638 45L131.046 36.672H131.862L135.258 45H134.034L131.238 37.956H131.658L128.838 45H127.638ZM129.258 43.116V42.132H133.638V43.116H129.258ZM138.462 45.12C137.934 45.12 137.462 44.992 137.046 44.736C136.63 44.472 136.298 44.116 136.05 43.668C135.81 43.22 135.69 42.716 135.69 42.156C135.69 41.596 135.81 41.092 136.05 40.644C136.298 40.196 136.63 39.84 137.046 39.576C137.462 39.312 137.934 39.18 138.462 39.18C138.886 39.18 139.27 39.272 139.614 39.456C139.958 39.632 140.234 39.88 140.442 40.2C140.658 40.512 140.778 40.876 140.802 41.292V43.008C140.778 43.416 140.662 43.78 140.454 44.1C140.246 44.42 139.97 44.672 139.626 44.856C139.282 45.032 138.894 45.12 138.462 45.12ZM138.642 44.1C139.002 44.1 139.314 44.016 139.578 43.848C139.85 43.68 140.062 43.452 140.214 43.164C140.366 42.868 140.442 42.532 140.442 42.156C140.442 41.764 140.362 41.424 140.202 41.136C140.05 40.848 139.838 40.62 139.566 40.452C139.302 40.284 138.99 40.2 138.63 40.2C138.27 40.2 137.954 40.284 137.682 40.452C137.41 40.62 137.194 40.852 137.034 41.148C136.882 41.436 136.806 41.768 136.806 42.144C136.806 42.528 136.882 42.868 137.034 43.164C137.194 43.452 137.41 43.68 137.682 43.848C137.962 44.016 138.282 44.1 138.642 44.1ZM141.462 45H140.37V43.464L140.574 42.072L140.37 40.692V36.432H141.462V45ZM144.99 45L142.374 39.3H143.574L145.674 44.112H144.978L147.09 39.3H148.242L145.626 45H144.99ZM149.175 45V39.3H150.255V45H149.175ZM149.715 38.16C149.515 38.16 149.351 38.096 149.223 37.968C149.095 37.832 149.031 37.664 149.031 37.464C149.031 37.272 149.095 37.112 149.223 36.984C149.351 36.848 149.515 36.78 149.715 36.78C149.915 36.78 150.079 36.848 150.207 36.984C150.335 37.112 150.399 37.272 150.399 37.464C150.399 37.664 150.335 37.832 150.207 37.968C150.079 38.096 149.915 38.16 149.715 38.16ZM153.659 45.12C153.339 45.12 153.035 45.08 152.747 45C152.467 44.912 152.207 44.792 151.967 44.64C151.727 44.48 151.519 44.292 151.343 44.076L152.039 43.38C152.247 43.636 152.487 43.828 152.759 43.956C153.031 44.076 153.335 44.136 153.671 44.136C154.007 44.136 154.267 44.08 154.451 43.968C154.635 43.848 154.727 43.684 154.727 43.476C154.727 43.268 154.651 43.108 154.499 42.996C154.355 42.876 154.167 42.78 153.935 42.708C153.703 42.628 153.455 42.552 153.191 42.48C152.935 42.4 152.691 42.3 152.459 42.18C152.227 42.06 152.035 41.896 151.883 41.688C151.739 41.48 151.667 41.204 151.667 40.86C151.667 40.516 151.751 40.22 151.919 39.972C152.087 39.716 152.319 39.52 152.615 39.384C152.919 39.248 153.283 39.18 153.707 39.18C154.155 39.18 154.551 39.26 154.895 39.42C155.247 39.572 155.535 39.804 155.759 40.116L155.063 40.812C154.903 40.604 154.703 40.444 154.463 40.332C154.231 40.22 153.967 40.164 153.671 40.164C153.359 40.164 153.119 40.22 152.951 40.332C152.791 40.436 152.711 40.584 152.711 40.776C152.711 40.968 152.783 41.116 152.927 41.22C153.071 41.324 153.259 41.412 153.491 41.484C153.731 41.556 153.979 41.632 154.235 41.712C154.491 41.784 154.735 41.884 154.967 42.012C155.199 42.14 155.387 42.312 155.531 42.528C155.683 42.744 155.759 43.028 155.759 43.38C155.759 43.916 155.567 44.34 155.183 44.652C154.807 44.964 154.299 45.12 153.659 45.12ZM159.572 45.12C159.012 45.12 158.508 44.988 158.06 44.724C157.612 44.46 157.256 44.104 156.992 43.656C156.728 43.2 156.596 42.692 156.596 42.132C156.596 41.58 156.728 41.084 156.992 40.644C157.256 40.196 157.612 39.84 158.06 39.576C158.508 39.312 159.012 39.18 159.572 39.18C160.124 39.18 160.624 39.312 161.072 39.576C161.528 39.832 161.888 40.184 162.152 40.632C162.416 41.08 162.548 41.58 162.548 42.132C162.548 42.692 162.416 43.2 162.152 43.656C161.888 44.104 161.528 44.46 161.072 44.724C160.624 44.988 160.124 45.12 159.572 45.12ZM159.572 44.076C159.932 44.076 160.252 43.992 160.532 43.824C160.812 43.656 161.032 43.428 161.192 43.14C161.352 42.844 161.432 42.508 161.432 42.132C161.432 41.764 161.348 41.436 161.18 41.148C161.02 40.86 160.8 40.636 160.52 40.476C160.248 40.308 159.932 40.224 159.572 40.224C159.212 40.224 158.892 40.308 158.612 40.476C158.332 40.636 158.112 40.86 157.952 41.148C157.792 41.436 157.712 41.764 157.712 42.132C157.712 42.508 157.792 42.844 157.952 43.14C158.112 43.428 158.332 43.656 158.612 43.824C158.892 43.992 159.212 44.076 159.572 44.076ZM163.765 45V39.3H164.845V45H163.765ZM164.845 41.748L164.437 41.568C164.437 40.84 164.605 40.26 164.941 39.828C165.277 39.396 165.761 39.18 166.393 39.18C166.681 39.18 166.941 39.232 167.173 39.336C167.405 39.432 167.621 39.596 167.821 39.828L167.113 40.56C166.993 40.432 166.861 40.34 166.717 40.284C166.573 40.228 166.405 40.2 166.213 40.2C165.813 40.2 165.485 40.328 165.229 40.584C164.973 40.84 164.845 41.228 164.845 41.748Z" fill="#868686"/>
</svg>
