<svg width="45" height="45" viewBox="0 0 45 45" fill="none" xmlns="http://www.w3.org/2000/svg">
<path d="M44.3418 18.6939C43.9777 18.6939 43.6826 18.9891 43.6826 19.3531V27.7811C43.6826 27.9025 43.5839 28.0012 43.4625 28.0012H37.1513V9.38817C37.1513 8.53985 36.4611 7.84973 35.6128 7.84973H27.4404C27.0763 7.84973 26.7812 8.14487 26.7812 8.50891C26.7812 8.87295 27.0763 9.16809 27.4404 9.16809H35.6128C35.7341 9.16809 35.8329 9.26688 35.8329 9.38817V30.5959C35.8329 30.96 36.128 31.2551 36.4921 31.2551C36.8562 31.2551 37.1513 30.96 37.1513 30.5959V29.3196H43.4625C44.3108 29.3196 45.001 28.6295 45.001 27.7811V19.3531C45.001 18.9891 44.7059 18.6939 44.3418 18.6939Z" fill="#BB9A65"/>
<path d="M43.4616 0H17.2189C16.3706 0 15.6805 0.690205 15.6805 1.53844V7.8496H9.36923C8.52091 7.8496 7.83079 8.5398 7.83079 9.38804V15.6804H1.53844C0.690205 15.6805 0 16.3707 0 17.219V43.4616C0 44.3098 0.690205 45 1.53844 45H27.7811C28.6293 45 29.3195 44.3098 29.3195 43.4616V37.1692H35.6119C36.4602 37.1692 37.1504 36.4791 37.1504 35.6308V33.5106C37.1504 33.1465 36.8554 32.8514 36.4912 32.8514C36.1271 32.8514 35.832 33.1465 35.832 33.5106V35.6308C35.832 35.7521 35.7332 35.8508 35.6119 35.8508H29.3195V17.219C29.3195 16.3707 28.6293 15.6806 27.7811 15.6806H21.9633C21.9632 15.6806 21.9631 15.6806 21.9629 15.6806H11.3313C11.3311 15.6806 11.331 15.6806 11.3309 15.6806H9.14915V9.38821C9.14915 9.26684 9.24785 9.16813 9.36923 9.16813H24.5248C24.889 9.16813 25.184 8.873 25.184 8.50896C25.184 8.14491 24.889 7.84978 24.5248 7.84978H16.9988V1.53844C16.9988 1.41706 17.0975 1.31836 17.2189 1.31836H43.4616C43.5829 1.31836 43.6816 1.41715 43.6816 1.53844V16.4384C43.6816 16.8024 43.9767 17.0975 44.3408 17.0975C44.705 17.0975 45 16.8024 45 16.4384V1.53844C45 0.690205 44.3098 0 43.4616 0ZM28.0012 17.219V21.4856L27.7451 21.2295C27.4878 20.972 27.0704 20.9721 26.813 21.2295C26.5555 21.487 26.5555 21.9044 26.8131 22.1617L28.0013 23.3498V26.8015L27.7452 26.5454C27.4879 26.288 27.0705 26.2881 26.8131 26.5454C26.5556 26.8029 26.5556 27.2203 26.8131 27.4777L28.0013 28.6658V32.1174L27.7453 31.8614C27.488 31.6039 27.0706 31.604 26.8131 31.8614C26.5557 32.1188 26.5557 32.5362 26.8132 32.7936L28.0014 33.9817V37.4333L27.7454 37.1773C27.4881 36.9199 27.0707 36.92 26.8132 37.1773C26.5558 37.4347 26.5558 37.8521 26.8133 38.1096L28.0015 39.2977V42.7493L27.7455 42.4933C27.4881 42.2358 27.0708 42.2358 26.8133 42.4933C26.5559 42.7507 26.5559 43.1681 26.8134 43.4254L27.0694 43.6815H23.6179L22.4297 42.4933C22.1723 42.2358 21.7549 42.2358 21.4975 42.4933C21.2401 42.7507 21.2401 43.1681 21.4975 43.4254L21.7529 43.6816H18.3014L17.1132 42.4934C16.8558 42.236 16.4384 42.236 16.181 42.4934C15.9236 42.7509 15.9236 43.1682 16.181 43.4256L16.437 43.6816H12.9854L11.7972 42.4934C11.5398 42.236 11.1224 42.236 10.865 42.4934C10.6076 42.7509 10.6076 43.1683 10.865 43.4256L11.1211 43.6816H7.66942L6.48123 42.4934C6.22389 42.236 5.80649 42.236 5.54906 42.4934C5.29163 42.7509 5.29163 43.1682 5.54906 43.4256L5.805 43.6816H1.53844C1.41706 43.6816 1.31836 43.5829 1.31836 43.4616V39.195L1.57438 39.4509C1.70306 39.5797 1.87181 39.644 2.04047 39.644C2.20913 39.644 2.37788 39.5797 2.50655 39.4509C2.76398 39.1935 2.76398 38.7761 2.50655 38.5188L1.31836 37.3306V33.879L1.57438 34.1351C1.70306 34.2637 1.87181 34.3281 2.04047 34.3281C2.20913 34.3281 2.37788 34.2638 2.50655 34.1351C2.76398 33.8776 2.76398 33.4602 2.50655 33.2029L1.31836 32.0146V28.563L1.57438 28.819C1.70306 28.9477 1.87181 29.0121 2.04047 29.0121C2.20913 29.0121 2.37788 28.9477 2.50655 28.819C2.76398 28.5616 2.76398 28.1442 2.50655 27.8868L1.31836 26.6986V23.2471L1.57438 23.5031C1.70306 23.6318 1.87181 23.6962 2.04047 23.6962C2.20913 23.6962 2.37788 23.6319 2.50655 23.5031C2.76398 23.2457 2.76398 22.8283 2.50655 22.5709L1.31836 21.3826V17.8911L1.57438 18.147C1.70306 18.2758 1.87181 18.3401 2.04047 18.3401C2.20913 18.3401 2.37788 18.2758 2.50655 18.147C2.76398 17.8896 2.76398 17.4722 2.50655 17.2149L2.29052 16.9988H5.74207L6.89027 18.147C7.01895 18.2757 7.1877 18.3401 7.35636 18.3401C7.52502 18.3401 7.69377 18.2758 7.82244 18.147C8.07987 17.8896 8.07987 17.4722 7.82244 17.2149L7.60641 16.9988H11.058L12.2062 18.147C12.3348 18.2758 12.5036 18.3401 12.6722 18.3401C12.8409 18.3401 13.0097 18.2758 13.1383 18.147C13.3958 17.8896 13.3958 17.4722 13.1383 17.2149L12.9223 16.9988H16.3738L17.5221 18.147C17.6507 18.2757 17.8195 18.3401 17.9881 18.3401C18.1568 18.3401 18.3255 18.2758 18.4542 18.147C18.7117 17.8896 18.7117 17.4722 18.4542 17.2149L18.2382 16.9988H21.6897L22.838 18.147C22.9667 18.2758 23.1354 18.3401 23.3041 18.3401C23.4728 18.3401 23.6415 18.2758 23.7703 18.147C24.0277 17.8896 24.0277 17.4722 23.7702 17.2149L23.5542 16.9988H27.7807C27.9025 16.9988 28.0012 17.0976 28.0012 17.219Z" fill="#54595F"/>
<path d="M4.2335 39.8355L2.89229 41.1768C2.63486 41.4342 2.63486 41.8516 2.89229 42.1089C3.02096 42.2376 3.18971 42.302 3.35838 42.302C3.52704 42.302 3.69579 42.2377 3.82446 42.1089L5.16576 40.7676C5.42319 40.5102 5.42319 40.0928 5.16576 39.8355C4.90833 39.5781 4.49093 39.5781 4.2335 39.8355Z" fill="#BB9A65"/>
<path d="M3.35838 36.9861C3.52704 36.9861 3.69579 36.9217 3.82446 36.793L5.16576 35.4517C5.42319 35.1942 5.42319 34.7768 5.16576 34.5195C4.90833 34.2621 4.49093 34.2621 4.23359 34.5195L2.89229 35.8608C2.63486 36.1182 2.63486 36.5356 2.89229 36.793C3.02096 36.9216 3.18963 36.9861 3.35838 36.9861Z" fill="#BB9A65"/>
<path d="M9.54804 39.8355L8.20675 41.1768C7.94931 41.4342 7.94931 41.8516 8.20675 42.1089C8.33542 42.2376 8.50417 42.302 8.67283 42.302C8.84149 42.302 9.01024 42.2377 9.13891 42.1089L10.4802 40.7676C10.7376 40.5102 10.7376 40.0928 10.4802 39.8355C10.2228 39.5781 9.80539 39.5781 9.54804 39.8355Z" fill="#BB9A65"/>
<path d="M7.82201 38.5187L6.48071 37.1774C6.22328 36.92 5.80589 36.92 5.54854 37.1774C5.29111 37.4349 5.29111 37.8523 5.54854 38.1096L6.88984 39.4509C7.01851 39.5796 7.18726 39.644 7.35592 39.644C7.52459 39.644 7.69334 39.5797 7.82201 39.4509C8.07944 39.1936 8.07944 38.7762 7.82201 38.5187Z" fill="#BB9A65"/>
<path d="M3.35838 31.67C3.52704 31.67 3.69579 31.6057 3.82446 31.4769L5.16576 30.1356C5.42319 29.8782 5.42319 29.4608 5.16576 29.2034C4.90833 28.946 4.49093 28.946 4.23359 29.2034L2.89229 30.5448C2.63486 30.8022 2.63486 31.2196 2.89229 31.4769C3.02096 31.6057 3.18963 31.67 3.35838 31.67Z" fill="#BB9A65"/>
<path d="M5.54854 32.7937L6.88984 34.135C7.01851 34.2638 7.18726 34.3281 7.35592 34.3281C7.52459 34.3281 7.69334 34.2638 7.82201 34.135C8.07944 33.8776 8.07944 33.4603 7.82201 33.2028L6.48071 31.8615C6.22337 31.6041 5.80597 31.6041 5.54854 31.8615C5.29111 32.1189 5.29111 32.5363 5.54854 32.7937Z" fill="#BB9A65"/>
<path d="M8.67283 36.9861C8.84149 36.9861 9.01024 36.9217 9.13891 36.793L10.4802 35.4517C10.7376 35.1942 10.7376 34.7768 10.4802 34.5195C10.2228 34.2621 9.80539 34.2621 9.54804 34.5195L8.20675 35.8608C7.94931 36.1182 7.94931 36.5356 8.20675 36.793C8.33542 36.9216 8.50417 36.9861 8.67283 36.9861Z" fill="#BB9A65"/>
<path d="M14.8645 39.8355L13.5232 41.1768C13.2657 41.4342 13.2657 41.8516 13.5232 42.1089C13.6518 42.2376 13.8206 42.302 13.9892 42.302C14.1579 42.302 14.3266 42.2377 14.4553 42.1089L15.7966 40.7676C16.0541 40.5102 16.0541 40.0928 15.7966 39.8355C15.5392 39.5781 15.1218 39.5781 14.8645 39.8355Z" fill="#BB9A65"/>
<path d="M13.1384 38.5188L11.7971 37.1775C11.5397 36.92 11.1223 36.9201 10.8649 37.1775C10.6075 37.4349 10.6075 37.8523 10.8649 38.1096L12.2062 39.4509C12.3349 39.5797 12.5037 39.644 12.6723 39.644C12.841 39.644 13.0097 39.5797 13.1384 39.4509C13.3959 39.1935 13.3959 38.7762 13.1384 38.5188Z" fill="#BB9A65"/>
<path d="M3.35838 26.3541C3.52704 26.3541 3.69579 26.2898 3.82446 26.161L5.16576 24.8197C5.42319 24.5623 5.42319 24.1449 5.16576 23.8875C4.90833 23.6301 4.49093 23.6301 4.23359 23.8875L2.89229 25.2288C2.63486 25.4863 2.63486 25.9037 2.89229 26.161C3.02096 26.2897 3.18963 26.3541 3.35838 26.3541Z" fill="#BB9A65"/>
<path d="M9.54804 29.2034L8.20675 30.5448C7.94931 30.8022 7.94931 31.2196 8.20675 31.4769C8.33542 31.6056 8.50417 31.67 8.67283 31.67C8.84149 31.67 9.01024 31.6057 9.13891 31.4769L10.4802 30.1356C10.7376 29.8782 10.7376 29.4608 10.4802 29.2034C10.2228 28.946 9.80539 28.946 9.54804 29.2034Z" fill="#BB9A65"/>
<path d="M6.48071 26.5455C6.22328 26.2881 5.80589 26.2881 5.54854 26.5455C5.29111 26.8029 5.29111 27.2203 5.54854 27.4777L6.88984 28.819C7.01851 28.9476 7.18726 29.0121 7.35592 29.0121C7.52459 29.0121 7.69334 28.9477 7.82201 28.819C8.07944 28.5615 8.07944 28.1441 7.82201 27.8868L6.48071 26.5455Z" fill="#BB9A65"/>
<path d="M12.2062 34.135C12.3349 34.2637 12.5037 34.3281 12.6723 34.3281C12.841 34.3281 13.0097 34.2638 13.1384 34.135C13.3958 33.8776 13.3958 33.4602 13.1384 33.2028L11.7971 31.8615C11.5397 31.6041 11.1223 31.6041 10.8649 31.8615C10.6075 32.119 10.6075 32.5364 10.8649 32.7937L12.2062 34.135Z" fill="#BB9A65"/>
<path d="M13.9892 36.9861C14.1579 36.9861 14.3266 36.9217 14.4553 36.793L15.7966 35.4517C16.0541 35.1942 16.0541 34.7768 15.7966 34.5195C15.5392 34.2621 15.1218 34.2621 14.8645 34.5195L13.5232 35.8608C13.2657 36.1182 13.2657 36.5356 13.5232 36.793C13.6518 36.9216 13.8206 36.9861 13.9892 36.9861Z" fill="#BB9A65"/>
<path d="M20.1809 39.8355L18.8396 41.1768C18.5821 41.4342 18.5821 41.8516 18.8396 42.1089C18.9682 42.2376 19.137 42.302 19.3056 42.302C19.4743 42.302 19.6431 42.2377 19.7717 42.1089L21.113 40.7676C21.3705 40.5102 21.3705 40.0928 21.113 39.8355C20.8557 39.5781 20.4383 39.5781 20.1809 39.8355Z" fill="#BB9A65"/>
<path d="M18.4548 38.5187L17.1135 37.1774C16.8561 36.92 16.4387 36.92 16.1814 37.1774C15.9239 37.4349 15.9239 37.8523 16.1814 38.1096L17.5227 39.4509C17.6513 39.5796 17.8201 39.644 17.9887 39.644C18.1574 39.644 18.3261 39.5797 18.4548 39.4509C18.7123 39.1936 18.7123 38.7762 18.4548 38.5187Z" fill="#BB9A65"/>
<path d="M3.35838 21.0382C3.52704 21.0382 3.69579 20.9738 3.82446 20.8451L5.16576 19.5038C5.42319 19.2464 5.42319 18.829 5.16576 18.5716C4.90833 18.3142 4.49093 18.3142 4.23359 18.5716L2.89229 19.9129C2.63486 20.1703 2.63486 20.5877 2.89229 20.8451C3.02096 20.9738 3.18963 21.0382 3.35838 21.0382Z" fill="#BB9A65"/>
<path d="M9.54804 23.8875L8.20675 25.2288C7.94931 25.4863 7.94931 25.9037 8.20675 26.161C8.33542 26.2897 8.50417 26.3541 8.67283 26.3541C8.84149 26.3541 9.01024 26.2898 9.13891 26.161L10.4802 24.8197C10.7376 24.5623 10.7376 24.1449 10.4802 23.8875C10.2228 23.6301 9.80539 23.6301 9.54804 23.8875Z" fill="#BB9A65"/>
<path d="M5.54854 22.1617L6.88984 23.503C7.01851 23.6318 7.18726 23.6961 7.35592 23.6961C7.52459 23.6961 7.69334 23.6318 7.82201 23.503C8.07944 23.2456 8.07944 22.8283 7.82201 22.5709L6.48071 21.2296C6.22337 20.9721 5.80597 20.9721 5.54854 21.2296C5.29111 21.4869 5.29111 21.9043 5.54854 22.1617Z" fill="#BB9A65"/>
<path d="M14.8645 29.2034L13.5232 30.5448C13.2657 30.8022 13.2657 31.2196 13.5232 31.4769C13.6518 31.6056 13.8206 31.67 13.9892 31.67C14.1579 31.67 14.3266 31.6057 14.4553 31.4769L15.7966 30.1356C16.0541 29.8782 16.0541 29.4608 15.7966 29.2034C15.5392 28.946 15.1218 28.946 14.8645 29.2034Z" fill="#BB9A65"/>
<path d="M11.7971 26.5455C11.5397 26.288 11.1223 26.2881 10.8649 26.5455C10.6075 26.803 10.6075 27.2203 10.8649 27.4777L12.2062 28.819C12.3349 28.9478 12.5037 29.0121 12.6723 29.0121C12.841 29.0121 13.0097 28.9478 13.1384 28.819C13.3958 28.5616 13.3958 28.1442 13.1384 27.8868L11.7971 26.5455Z" fill="#BB9A65"/>
<path d="M17.5227 34.135C17.6513 34.2638 17.8201 34.3281 17.9887 34.3281C18.1574 34.3281 18.3261 34.2638 18.4548 34.135C18.7123 33.8776 18.7123 33.4603 18.4548 33.2028L17.1135 31.8615C16.8562 31.6041 16.4388 31.6041 16.1814 31.8615C15.9239 32.119 15.9239 32.5363 16.1814 32.7937L17.5227 34.135Z" fill="#BB9A65"/>
<path d="M19.3056 36.9861C19.4743 36.9861 19.6431 36.9217 19.7717 36.793L21.113 35.4517C21.3705 35.1942 21.3705 34.7768 21.113 34.5195C20.8556 34.2621 20.4382 34.2621 20.1809 34.5195L18.8396 35.8608C18.5821 36.1182 18.5821 36.5356 18.8396 36.793C18.9683 36.9216 19.137 36.9861 19.3056 36.9861Z" fill="#BB9A65"/>
<path d="M25.4953 39.8355L24.154 41.1768C23.8966 41.4342 23.8966 41.8516 24.154 42.1089C24.2828 42.2376 24.4515 42.302 24.6202 42.302C24.7888 42.302 24.9576 42.2377 25.0864 42.1089L26.4277 40.7676C26.6851 40.5102 26.6851 40.0928 26.4277 39.8355C26.1701 39.5781 25.7528 39.5781 25.4953 39.8355Z" fill="#BB9A65"/>
<path d="M23.7712 38.5188L22.4299 37.1775C22.1725 36.92 21.7551 36.9201 21.4978 37.1775C21.2403 37.4349 21.2403 37.8523 21.4978 38.1096L22.8391 39.4509C22.9678 39.5797 23.1366 39.644 23.3052 39.644C23.4739 39.644 23.6426 39.5797 23.7714 39.4509C24.0287 39.1935 24.0287 38.7762 23.7712 38.5188Z" fill="#BB9A65"/>
<path d="M8.67283 21.0382C8.84149 21.0382 9.01024 20.9738 9.13891 20.8451L10.4802 19.5038C10.7376 19.2464 10.7376 18.829 10.4802 18.5716C10.2228 18.3142 9.80539 18.3142 9.54804 18.5716L8.20675 19.9129C7.94931 20.1703 7.94931 20.5877 8.20675 20.8451C8.33542 20.9738 8.50417 21.0382 8.67283 21.0382Z" fill="#BB9A65"/>
<path d="M14.8645 23.8875L13.5232 25.2288C13.2657 25.4863 13.2657 25.9037 13.5232 26.161C13.6518 26.2897 13.8206 26.3541 13.9892 26.3541C14.1579 26.3541 14.3266 26.2898 14.4553 26.161L15.7966 24.8197C16.0541 24.5623 16.0541 24.1449 15.7966 23.8875C15.5392 23.6301 15.1218 23.6301 14.8645 23.8875Z" fill="#BB9A65"/>
<path d="M10.865 22.1617L12.2063 23.503C12.335 23.6317 12.5037 23.6961 12.6724 23.6961C12.8411 23.6961 13.0098 23.6318 13.1385 23.503C13.3959 23.2456 13.3959 22.8282 13.1385 22.5709L11.7972 21.2296C11.5398 20.9721 11.1224 20.9721 10.865 21.2296C10.6075 21.4869 10.6075 21.9043 10.865 22.1617Z" fill="#BB9A65"/>
<path d="M20.1809 29.2034L18.8396 30.5448C18.5821 30.8022 18.5821 31.2196 18.8396 31.4769C18.9682 31.6056 19.137 31.67 19.3056 31.67C19.4743 31.67 19.6431 31.6057 19.7717 31.4769L21.113 30.1356C21.3705 29.8782 21.3705 29.4608 21.113 29.2034C20.8557 28.946 20.4383 28.946 20.1809 29.2034Z" fill="#BB9A65"/>
<path d="M17.1135 26.5455C16.8561 26.2881 16.4387 26.2881 16.1814 26.5455C15.9239 26.8029 15.9239 27.2203 16.1814 27.4777L17.5227 28.819C17.6513 28.9476 17.8201 29.0121 17.9887 29.0121C18.1574 29.0121 18.3261 28.9477 18.4548 28.819C18.7123 28.5615 18.7123 28.1441 18.4548 27.8868L17.1135 26.5455Z" fill="#BB9A65"/>
<path d="M22.839 34.135C22.9677 34.2637 23.1365 34.3281 23.3051 34.3281C23.4738 34.3281 23.6426 34.2638 23.7713 34.135C24.0287 33.8776 24.0287 33.4602 23.7713 33.2028L22.4299 31.8615C22.1725 31.6041 21.7551 31.6041 21.4978 31.8615C21.2403 32.119 21.2403 32.5364 21.4978 32.7937L22.839 34.135Z" fill="#BB9A65"/>
<path d="M25.4953 34.5195L24.154 35.8608C23.8966 36.1182 23.8966 36.5356 24.154 36.793C24.2828 36.9216 24.4515 36.9861 24.6202 36.9861C24.7888 36.9861 24.9576 36.9217 25.0864 36.793L26.4277 35.4517C26.6851 35.1942 26.6851 34.7768 26.4277 34.5195C26.1701 34.2621 25.7528 34.2621 25.4953 34.5195Z" fill="#BB9A65"/>
<path d="M13.9892 21.0382C14.1579 21.0382 14.3266 20.9738 14.4553 20.8451L15.7966 19.5038C16.0541 19.2464 16.0541 18.829 15.7966 18.5716C15.5392 18.3142 15.1218 18.3142 14.8645 18.5716L13.5232 19.9129C13.2657 20.1703 13.2657 20.5877 13.5232 20.8451C13.6518 20.9738 13.8206 21.0382 13.9892 21.0382Z" fill="#BB9A65"/>
<path d="M21.113 23.8875C20.8556 23.6301 20.4382 23.6301 20.1809 23.8875L18.8396 25.2288C18.5821 25.4863 18.5821 25.9037 18.8396 26.161C18.9682 26.2897 19.137 26.3541 19.3056 26.3541C19.4743 26.3541 19.6431 26.2898 19.7717 26.161L21.113 24.8197C21.3705 24.5623 21.3705 24.1449 21.113 23.8875Z" fill="#BB9A65"/>
<path d="M16.1814 22.1617L17.5227 23.503C17.6513 23.6318 17.8201 23.6961 17.9887 23.6961C18.1574 23.6961 18.3261 23.6318 18.4548 23.503C18.7123 23.2456 18.7123 22.8283 18.4548 22.5709L17.1135 21.2296C16.8562 20.9721 16.4388 20.9721 16.1814 21.2296C15.9239 21.4869 15.9239 21.9043 16.1814 22.1617Z" fill="#BB9A65"/>
<path d="M25.4953 29.2034L24.154 30.5448C23.8966 30.8022 23.8966 31.2196 24.154 31.4769C24.2828 31.6056 24.4515 31.67 24.6202 31.67C24.7888 31.67 24.9576 31.6057 25.0864 31.4769L26.4277 30.1356C26.6851 29.8782 26.6851 29.4608 26.4277 29.2034C26.1701 28.946 25.7528 28.946 25.4953 29.2034Z" fill="#BB9A65"/>
<path d="M23.7712 27.8868L22.4299 26.5455C22.1725 26.288 21.7551 26.2881 21.4978 26.5455C21.2403 26.803 21.2403 27.2203 21.4978 27.4777L22.8391 28.819C22.9678 28.9478 23.1366 29.0121 23.3052 29.0121C23.4739 29.0121 23.6426 28.9478 23.7714 28.819C24.0287 28.5616 24.0287 28.1442 23.7712 27.8868Z" fill="#BB9A65"/>
<path d="M19.3056 21.0382C19.4743 21.0382 19.6431 20.9738 19.7717 20.8451L21.113 19.5038C21.3705 19.2464 21.3705 18.829 21.113 18.5716C20.8556 18.3142 20.4382 18.3142 20.1809 18.5716L18.8396 19.9129C18.5821 20.1703 18.5821 20.5877 18.8396 20.8451C18.9683 20.9738 19.137 21.0382 19.3056 21.0382Z" fill="#BB9A65"/>
<path d="M25.4953 23.8875L24.154 25.2288C23.8966 25.4863 23.8966 25.9037 24.154 26.161C24.2828 26.2897 24.4515 26.3541 24.6202 26.3541C24.7888 26.3541 24.9576 26.2898 25.0864 26.161L26.4277 24.8197C26.6851 24.5623 26.6851 24.1449 26.4277 23.8875C26.1701 23.6301 25.7528 23.6301 25.4953 23.8875Z" fill="#BB9A65"/>
<path d="M21.4977 22.1617L22.839 23.503C22.9678 23.6317 23.1366 23.6961 23.3052 23.6961C23.4739 23.6961 23.6426 23.6318 23.7714 23.503C24.0288 23.2456 24.0288 22.8282 23.7714 22.5709L22.43 21.2296C22.1726 20.9721 21.7552 20.9721 21.4978 21.2296C21.2403 21.4869 21.2403 21.9043 21.4977 22.1617Z" fill="#BB9A65"/>
<path d="M24.154 20.8451C24.2828 20.9738 24.4515 21.0382 24.6202 21.0382C24.7888 21.0382 24.9576 20.9738 25.0863 20.8451L26.4276 19.5038C26.6851 19.2464 26.6851 18.829 26.4276 18.5716C26.1701 18.3142 25.7528 18.3142 25.4954 18.5716L24.1541 19.9129C23.8966 20.1703 23.8966 20.5876 24.154 20.8451Z" fill="#BB9A65"/>
</svg>
