<svg width="50" height="33" viewBox="0 0 50 33" fill="none" xmlns="http://www.w3.org/2000/svg">
<rect x="19.4824" y="20.6719" width="4.90421" height="11" fill="#BB9A65"/>
<rect x="44.0039" y="20.6719" width="4.90421" height="11" fill="#BB9A65"/>
<rect x="1.0918" y="20.6719" width="14.7126" height="7" fill="#BB9A65"/>
<path d="M13.3533 0.671875H24.3877L25.6138 8.67188H12.7402L13.3533 0.671875Z" fill="#BB9A65"/>
<path d="M22.7328 32.3438H21.2328C20.4036 32.3419 19.6089 32.0724 19.0226 31.5941C18.4362 31.1159 18.1058 30.4678 18.1035 29.7914V22.2398C18.1058 21.5635 18.4362 20.9154 19.0226 20.4371C19.6089 19.9589 20.4036 19.6894 21.2328 19.6875H22.7328C22.9857 19.6889 23.2375 19.7149 23.4828 19.7648C24.1628 19.8992 24.7674 20.2165 25.1991 20.6656C25.6308 21.1146 25.8644 21.6692 25.8621 22.2398V29.7914C25.8599 30.4678 25.5294 31.1159 24.9431 31.5941C24.3567 32.0724 23.5621 32.3419 22.7328 32.3438ZM21.2328 21.0938C21.0483 21.0938 20.8656 21.1234 20.6951 21.181C20.5246 21.2386 20.3697 21.323 20.2392 21.4294C20.1087 21.5359 20.0052 21.6622 19.9346 21.8013C19.864 21.9403 19.8277 22.0893 19.8277 22.2398V29.7914C19.8277 30.0954 19.9757 30.3869 20.2392 30.6018C20.5027 30.8168 20.8601 30.9375 21.2328 30.9375H22.7328C23.1055 30.9375 23.4629 30.8168 23.7264 30.6018C23.99 30.3869 24.138 30.0954 24.138 29.7914V22.2398C24.1375 21.9839 24.032 21.7355 23.8382 21.5341C23.6445 21.3328 23.3737 21.1901 23.069 21.1289C22.9573 21.119 22.8446 21.119 22.7328 21.1289L21.2328 21.0938Z" fill="black"/>
<path d="M46.8715 32.3438H45.3715C44.5423 32.3419 43.7476 32.0724 43.1613 31.5941C42.5749 31.1159 42.2445 30.4678 42.2422 29.7914V22.2398C42.24 21.6692 42.4736 21.1146 42.9053 20.6656C43.3369 20.2165 43.9416 19.8992 44.6215 19.7648C44.8669 19.7149 45.1186 19.6889 45.3715 19.6875H46.8715C47.7008 19.6894 48.4954 19.9589 49.0818 20.4371C49.6681 20.9154 49.9985 21.5635 50.0008 22.2398V29.7914C49.9985 30.4678 49.6681 31.1159 49.0818 31.5941C48.4954 32.0724 47.7008 32.3419 46.8715 32.3438ZM45.3715 21.0938C45.2598 21.0839 45.147 21.0839 45.0353 21.0938C44.7233 21.1563 44.4471 21.3042 44.2526 21.5128C44.0581 21.7213 43.957 21.9779 43.9663 22.2398V29.7914C43.9663 30.0954 44.1144 30.3869 44.3779 30.6018C44.6414 30.8168 44.9988 30.9375 45.3715 30.9375H46.8715C47.2442 30.9375 47.6016 30.8168 47.8651 30.6018C48.1286 30.3869 48.2767 30.0954 48.2767 29.7914V22.2398C48.2767 22.0893 48.2403 21.9403 48.1697 21.8013C48.0991 21.6622 47.9956 21.5359 47.8651 21.4294C47.7346 21.323 47.5797 21.2386 47.4092 21.181C47.2388 21.1234 47.056 21.0938 46.8715 21.0938H45.3715Z" fill="black"/>
<path d="M16.3793 28.8281H0V20.3906H16.3793V28.8281ZM1.72414 27.4219H14.6552V21.7969H1.72414V27.4219Z" fill="black"/>
<path d="M14.6543 27.4219H16.3784V32.3438H14.6543V27.4219Z" fill="black"/>
<path d="M0 27.4219H1.72414V32.3438H0V27.4219Z" fill="black"/>
<path d="M41.38 32.3438H26.7249C26.039 32.3438 25.3812 32.1215 24.8962 31.7259C24.4111 31.3303 24.1387 30.7938 24.1387 30.2344V26.0156H43.9663V30.2344C43.9663 30.7938 43.6938 31.3303 43.2088 31.7259C42.7238 32.1215 42.066 32.3438 41.38 32.3438ZM25.8628 27.4219V30.2344C25.8628 30.4209 25.9536 30.5997 26.1153 30.7316C26.277 30.8634 26.4962 30.9375 26.7249 30.9375H41.38C41.6087 30.9375 41.828 30.8634 41.9896 30.7316C42.1513 30.5997 42.2421 30.4209 42.2421 30.2344V27.4219H25.8628Z" fill="black"/>
<path d="M43.9663 27.4219H24.1387V25.3125C24.1387 24.3801 24.5928 23.4859 25.4011 22.8266C26.2095 22.1673 27.3058 21.7969 28.449 21.7969H39.6559C40.7991 21.7969 41.8954 22.1673 42.7038 22.8266C43.5121 23.4859 43.9663 24.3801 43.9663 25.3125V27.4219ZM25.8628 26.0156H42.2421V25.3125C42.2421 24.7531 41.9696 24.2165 41.4846 23.8209C40.9996 23.4254 40.3418 23.2031 39.6559 23.2031H28.449C27.7631 23.2031 27.1053 23.4254 26.6203 23.8209C26.1353 24.2165 25.8628 24.7531 25.8628 25.3125V26.0156Z" fill="black"/>
<path d="M43.9658 25.3125H42.2416C42.2416 24.7531 41.9692 24.2165 41.4842 23.8209C40.9992 23.4254 40.3413 23.2031 39.6554 23.2031H28.4485C27.7626 23.2031 27.1048 23.4254 26.6198 23.8209C26.1348 24.2165 25.8623 24.7531 25.8623 25.3125H24.1382V22.2398C24.1377 21.9839 24.0322 21.7355 23.8384 21.5341C23.6447 21.3328 23.3739 21.1901 23.0692 21.1289L22.4141 21.0023V15.4688C22.4141 14.1634 23.0498 12.9115 24.1815 11.9885C25.3132 11.0654 26.8481 10.5469 28.4485 10.5469H39.6554C41.2559 10.5469 42.7908 11.0654 43.9225 11.9885C45.0541 12.9115 45.6899 14.1634 45.6899 15.4688V21.0023L45.0347 21.1289C44.7301 21.1901 44.4593 21.3328 44.2656 21.5341C44.0718 21.7355 43.9663 21.9839 43.9658 22.2398V25.3125ZM28.4485 21.7969H39.6554C40.5881 21.7969 41.4955 22.0436 42.2416 22.5V22.2398C42.2392 21.7666 42.3995 21.3023 42.7042 20.8997C43.009 20.497 43.446 20.172 43.9658 19.9617V15.4688C43.9658 14.5363 43.5117 13.6421 42.7033 12.9828C41.895 12.3235 40.7986 11.9531 39.6554 11.9531H28.4485C27.3054 11.9531 26.209 12.3235 25.4007 12.9828C24.5923 13.6421 24.1382 14.5363 24.1382 15.4688V19.9617C24.6579 20.172 25.095 20.497 25.3998 20.8997C25.7045 21.3023 25.8648 21.7666 25.8623 22.2398V22.5C26.6084 22.0436 27.5159 21.7969 28.4485 21.7969Z" fill="black"/>
<path d="M6.03516 23.9062H10.3455V25.3125H6.03516V23.9062Z" fill="black"/>
<path d="M10.9916 21.7969H5.3882L3.16406 15.4688H13.2158L10.9916 21.7969ZM6.6813 20.3906H9.69854L10.9227 16.875H5.45717L6.6813 20.3906Z" fill="black"/>
<path d="M8.19012 16.875C7.97001 16.8737 7.75058 16.8548 7.53495 16.8187C5.91915 16.5943 4.45163 15.9134 3.38936 14.8953C2.32709 13.8772 1.73777 12.5868 1.72461 11.25V10.5468H2.58668C4.19077 10.54 5.74683 10.9929 6.98323 11.8265L7.30219 12.0304V12.3609C7.29685 13.2168 7.60613 14.0544 8.19012 14.7656C8.78419 14.0594 9.10545 13.2243 9.11254 12.3679V12.0375L9.4315 11.8335C10.6576 11.0036 12.2003 10.5486 13.7936 10.5468H14.6556V11.25C14.6618 12.6104 14.0678 13.9272 12.982 14.96C11.8962 15.9927 10.3912 16.6724 8.74185 16.875C8.55839 16.8899 8.37358 16.8899 8.19012 16.875ZM10.8194 12.6914C10.7561 13.5332 10.4615 14.3526 9.95737 15.089C10.7184 14.8047 11.3835 14.3741 11.8955 13.834C12.4075 13.2939 12.7512 12.6605 12.897 11.9882C12.1479 12.0946 11.4377 12.3374 10.8194 12.6984V12.6914ZM3.50047 11.9882C3.65642 12.6574 4.00397 13.287 4.51481 13.8259C5.02565 14.3647 5.68534 14.7975 6.44013 15.089C5.93845 14.3518 5.64399 13.5328 5.57806 12.6914C4.9582 12.3353 4.24819 12.0974 3.50047 11.9953V11.9882Z" fill="black"/>
<path d="M8.18878 16.8117L7.57671 16.3195C7.43016 16.1929 7.28361 16.0664 7.14568 15.9328C6.03943 14.8432 5.47064 13.4565 5.55034 12.0433C5.63004 10.6302 6.3525 9.29193 7.57671 8.2898L8.18878 7.79761L8.80085 8.2898C9.44936 8.81558 9.9632 9.4413 10.3125 10.1306C10.6617 10.8198 10.8395 11.5588 10.8353 12.3046V12.3398C10.8305 13.6444 10.2697 14.9071 9.24913 15.9117C9.09396 16.0664 8.9474 16.1929 8.80085 16.3195L8.18878 16.8117ZM8.18878 9.87886C7.58831 10.593 7.26694 11.4387 7.26694 12.3046C7.26694 13.1706 7.58831 14.0163 8.18878 14.7304C8.78285 14.0242 9.10411 13.1892 9.1112 12.3328C9.12366 11.4565 8.80127 10.5988 8.18878 9.87886Z" fill="black"/>
<path d="M18.1035 7.73438H19.8277V24.6094H18.1035V7.73438Z" fill="black"/>
<path d="M25.9479 9.14062H11.9824L13.0083 0H24.9221L25.9479 9.14062ZM13.879 7.73438H24.0514L23.3531 1.40625H14.5772L13.879 7.73438Z" fill="black"/>
</svg>
