<svg width="40" height="40" viewBox="0 0 40 40" fill="none" xmlns="http://www.w3.org/2000/svg">
<path d="M39.2188 26.6666V39.1666H20C20 38.814 20 27.0191 20 26.6666H39.2188Z" fill="#BB9A65"/>
<path d="M23.125 10.625H39.2188V13.75H23.125V10.625Z" fill="#BB9A65"/>
<path d="M39.2188 10.625H23.125L28.0469 7.5H34.2969L39.2188 10.625Z" fill="#BB9A65"/>
<path d="M28.0469 0.78125H34.2969V7.5H28.0469V0.78125Z" fill="#BB9A65"/>
<path d="M39.6375 9.96547L35.0781 7.07055V0.78125C35.0781 0.349844 34.7283 0 34.2969 0H28.0469C27.6155 0 27.2656 0.349844 27.2656 0.78125V7.07055L22.7063 9.96539C22.4844 10.1059 22.3438 10.361 22.3438 10.6249V13.7499C22.3438 14.1813 22.6936 14.5312 23.125 14.5312H39.2188C39.6502 14.5312 40 14.1813 40 13.7499V10.6249C40 10.3609 39.8609 10.1071 39.6375 9.96547ZM28.2739 8.28125H34.0698L36.5308 9.84375H25.813L28.2739 8.28125ZM33.5156 1.5625V6.71875H28.8281V1.5625H33.5156ZM38.4375 12.9688H23.9062V11.4062H38.4375V12.9688Z" fill="#54595F"/>
<path d="M0.78125 14.5312H20C20.4314 14.5312 20.7812 14.1814 20.7812 13.75V0.78125C20.7812 0.349844 20.4314 0 20 0H0.78125C0.349766 0 0 0.349844 0 0.78125V13.75C0 14.1814 0.349766 14.5312 0.78125 14.5312ZM19.2188 12.9688H11.1719V1.5625H19.2188V12.9688ZM1.5625 1.5625H9.60938V12.9688H1.5625V1.5625Z" fill="#54595F"/>
<path d="M7.26562 4.6875C6.83414 4.6875 6.48438 5.03734 6.48438 5.46875V9.0625C6.48438 9.49391 6.83414 9.84375 7.26562 9.84375C7.69711 9.84375 8.04688 9.49391 8.04688 9.0625V5.46875C8.04688 5.03734 7.69711 4.6875 7.26562 4.6875Z" fill="#54595F"/>
<path d="M13.5156 9.84375C13.9471 9.84375 14.2969 9.49391 14.2969 9.0625V5.46875C14.2969 5.03734 13.9471 4.6875 13.5156 4.6875C13.0841 4.6875 12.7344 5.03734 12.7344 5.46875V9.0625C12.7344 9.49391 13.0841 9.84375 13.5156 9.84375Z" fill="#54595F"/>
<path d="M23.125 29.0625C22.6936 29.0625 22.3438 29.4123 22.3438 29.8438V36.0938C22.3438 36.5252 22.6936 36.875 23.125 36.875H36.0938C36.5252 36.875 36.875 36.5252 36.875 36.0938V29.8438C36.875 29.4123 36.5252 29.0625 36.0938 29.0625H23.125ZM35.3125 35.3125H23.9062V30.625H35.3125V35.3125Z" fill="#54595F"/>
<path d="M11.9531 29.0625H8.82812C8.39664 29.0625 8.04688 29.4123 8.04688 29.8438C8.04688 30.2752 8.39664 30.625 8.82812 30.625H11.9531C12.3846 30.625 12.7344 30.2752 12.7344 29.8438C12.7344 29.4123 12.3846 29.0625 11.9531 29.0625Z" fill="#54595F"/>
<path d="M11.9531 35.3125H8.82812C8.39664 35.3125 8.04688 35.6623 8.04688 36.0938C8.04688 36.5252 8.39664 36.875 8.82812 36.875H11.9531C12.3846 36.875 12.7344 36.5252 12.7344 36.0938C12.7344 35.6623 12.3846 35.3125 11.9531 35.3125Z" fill="#54595F"/>
<path d="M10.3906 40C10.8221 40 11.1719 39.6502 11.1719 39.2188C11.1719 38.7873 10.8221 38.4375 10.3906 38.4375C9.95915 38.4375 9.60938 38.7873 9.60938 39.2188C9.60938 39.6502 9.95915 40 10.3906 40Z" fill="#54595F"/>
<path d="M39.2188 25.9375H36.875V23.5938C36.875 23.1623 36.5252 22.8125 36.0938 22.8125H34.5312C34.0998 22.8125 33.75 23.1623 33.75 23.5938C33.75 24.0252 34.0998 24.375 34.5312 24.375H35.3125V25.9375H27.2656V24.375H28.0469C28.4783 24.375 28.8281 24.0252 28.8281 23.5938C28.8281 23.1623 28.4783 22.8125 28.0469 22.8125H26.4844C26.053 22.8125 25.7031 23.1623 25.7031 23.5938V25.9375H0.78125C0.349766 25.9375 0 26.2873 0 26.7188V39.2188C0 39.6502 0.349766 40 0.78125 40H6.875C7.30648 40 7.65625 39.6502 7.65625 39.2188C7.65625 38.7873 7.30648 38.4375 6.875 38.4375H1.5625V33.75H19.2188V38.4375H13.9062C13.4748 38.4375 13.125 38.7873 13.125 39.2188C13.125 39.6502 13.4748 40 13.9062 40H39.2188C39.6502 40 40 39.6502 40 39.2188V26.7188C40 26.2873 39.6502 25.9375 39.2188 25.9375ZM1.5625 32.1875V27.5H19.2188V32.1875H1.5625ZM38.4375 38.4375H20.7812V27.5H38.4375V38.4375Z" fill="#54595F"/>
</svg>
