<svg width="47" height="44" viewBox="0 0 47 44" fill="none" xmlns="http://www.w3.org/2000/svg">
<path fill-rule="evenodd" clip-rule="evenodd" d="M44.0844 22.0001V24.8478L40.5973 26.19C40.1552 28.0479 39.4186 29.8223 38.4173 31.4485L39.9349 34.8655L35.9076 38.8929L32.4916 37.3757C30.8652 38.3774 29.0901 39.114 27.2317 39.5561L25.8898 43.0423H20.1943L18.8522 39.5553C16.9943 39.1131 15.2199 38.3765 13.5937 37.3752L10.1766 38.8929L6.14937 34.8656L7.66653 31.4496C6.66481 29.8232 5.92831 28.048 5.48609 26.1897L2 24.8478V22H13.1095C13.1095 27.4862 17.5559 31.9328 23.0422 31.9328C28.5284 31.9328 32.975 27.4863 32.975 22.0001H44.0844Z" fill="#BB9A65"/>
<path fill-rule="evenodd" clip-rule="evenodd" d="M24.2145 21.7921C24.2145 22.3237 23.7814 22.7567 23.2501 22.7567C22.7188 22.7567 22.2857 22.3237 22.2857 21.7921C22.2857 21.2608 22.7188 20.8275 23.2501 20.8275C23.7813 20.8275 24.2145 21.2607 24.2145 21.7921ZM21.4927 20.0354V23.5501H25.0073V20.0354H21.4927ZM20.7428 25.0499H25.7574C26.1718 25.0499 26.5074 24.7132 26.5074 24.3002V19.2852C26.5074 18.8708 26.1718 18.5355 25.7574 18.5355H20.7428C20.3286 18.5355 19.9928 18.8708 19.9928 19.2852V24.3002C19.9928 24.7132 20.3286 25.0499 20.7428 25.0499ZM14.4837 6.74259C15.037 6.74259 15.4873 7.19269 15.4873 7.74562C15.4873 8.29894 15.037 8.74866 14.4837 8.74866C13.9304 8.74866 13.4804 8.29894 13.4804 7.74562C13.4804 7.19269 13.9304 6.74259 14.4837 6.74259ZM28.1751 16.9239C28.1751 16.8939 28.1482 16.8675 28.1187 16.8675H18.3815C18.3519 16.8675 18.325 16.8939 18.325 16.9239V26.6605C18.325 26.6905 18.3519 26.717 18.3815 26.717H28.1187C28.1483 26.717 28.1751 26.6905 28.1751 26.6605V16.9239ZM23.2501 1.49981C23.8034 1.49981 24.2536 1.94991 24.2536 2.50322C24.2536 3.057 23.8033 3.50709 23.2501 3.50709C22.6968 3.50709 22.2465 3.057 22.2465 2.50322C22.2465 1.94991 22.6967 1.49981 23.2501 1.49981ZM32.0164 6.74259C32.5697 6.74259 33.0199 7.19269 33.0199 7.74562C33.0199 8.29894 32.5697 8.74866 32.0164 8.74866C31.4629 8.74866 31.0129 8.29894 31.0129 7.74562C31.0128 7.19269 31.4629 6.74259 32.0164 6.74259ZM14.4837 10.2488C15.6031 10.2488 16.5531 9.51103 16.8725 8.49572H18.7791V15.3676H18.3815C17.5232 15.3676 16.8251 16.0657 16.8251 16.9239V26.6605C16.8251 27.5193 17.5232 28.2169 18.3815 28.2169H28.1187C28.977 28.2169 29.6751 27.5193 29.6751 26.6605V16.9239C29.6751 16.0657 28.977 15.3676 28.1187 15.3676H27.721V8.49572H29.6276C29.947 9.51112 30.897 10.2488 32.0164 10.2488C33.3967 10.2488 34.5199 9.12581 34.5199 7.74553C34.5199 6.36572 33.3968 5.24259 32.0164 5.24259C30.897 5.24259 29.9472 5.98041 29.6278 6.99534H26.971C26.5567 6.99534 26.221 7.33116 26.221 7.74553V15.3676H24V4.89187C25.0152 4.57331 25.7535 3.62278 25.7535 2.50331C25.7535 1.1235 24.6305 0 23.25 0C21.8694 0 20.7465 1.1235 20.7465 2.50331C20.7465 3.62287 21.485 4.57331 22.5 4.89187V15.3676H20.279V7.74553C20.279 7.33116 19.9433 6.99534 19.529 6.99534H16.8724C16.5528 5.98041 15.6029 5.24259 14.4836 5.24259C13.1033 5.24259 11.9803 6.36562 11.9803 7.74553C11.9804 9.12591 13.1034 10.2488 14.4837 10.2488ZM43.5421 24.1246V22.5422H33.9067C33.5206 28.0845 28.8885 32.4747 23.2499 32.4747C17.6117 32.4747 12.9796 28.0845 12.5934 22.5422H2.958V24.1246L5.96362 25.2816C6.19444 25.3707 6.36647 25.5675 6.42384 25.8084C6.84788 27.5898 7.55081 29.2856 8.51316 30.8482C8.64272 31.0582 8.66034 31.3198 8.56003 31.5457L7.25175 34.4912L10.5507 37.7905L13.4973 36.4817C13.7232 36.3816 13.9844 36.3983 14.195 36.5285C15.7579 37.4914 17.4533 38.1934 19.2337 38.6175C19.4743 38.6744 19.6712 38.8469 19.76 39.0777L20.9172 42.0841H25.5826L26.7396 39.0787C26.8284 38.8478 27.0253 38.6753 27.2658 38.6184C29.0474 38.1944 30.7432 37.4915 32.3061 36.5286C32.5166 36.3993 32.7777 36.3817 33.0037 36.4818L35.9492 37.7906L39.2482 34.4913L37.9395 31.5449C37.8392 31.319 37.8566 31.0573 37.9864 30.8472C38.9487 29.2834 39.6517 27.5885 40.0753 25.8083C40.1326 25.5674 40.3048 25.3706 40.5355 25.2823L43.5421 24.1246ZM2.50359 15.1744C1.95009 15.1744 1.5 14.7243 1.5 14.1713C1.5 13.6171 1.95009 13.167 2.50359 13.167C3.05691 13.167 3.507 13.6171 3.507 14.1713C3.507 14.7243 3.05691 15.1744 2.50359 15.1744ZM13.0217 13.167C13.5752 13.167 14.0252 13.6171 14.0252 14.1713C14.0252 14.7243 13.5751 15.1744 13.0217 15.1744C12.4684 15.1744 12.0181 14.7243 12.0181 14.1713C12.0181 13.6171 12.4685 13.167 13.0217 13.167ZM33.4782 15.1744C32.9249 15.1744 32.4746 14.7243 32.4746 14.1713C32.4746 13.6171 32.9249 13.167 33.4782 13.167C34.0317 13.167 34.4817 13.6171 34.4817 14.1713C34.4817 14.7243 34.0317 15.1744 33.4782 15.1744ZM43.9964 13.167C44.5499 13.167 45 13.6171 45 14.1713C45 14.7243 44.5499 15.1744 43.9964 15.1744C43.4431 15.1744 42.993 14.7243 42.993 14.1713C42.9931 13.6171 43.4431 13.167 43.9964 13.167ZM42.5627 16.2215C42.9692 16.5066 43.4635 16.6742 43.9965 16.6742C45.377 16.6742 46.4999 15.5512 46.4999 14.1713C46.4999 12.7902 45.3769 11.6671 43.9965 11.6671C42.6162 11.6671 41.493 12.7901 41.493 14.1713C41.493 14.4657 41.5447 14.7489 41.6386 15.0115L39.4812 16.1363C39.2335 16.2656 39.0779 16.5216 39.0779 16.8008V21.0424H38.3968V16.8008C38.3968 16.5216 38.2414 16.2656 37.9937 16.1363L35.8361 15.0115C35.9303 14.7489 35.982 14.4657 35.982 14.1713C35.982 12.7902 34.8589 11.6671 33.4783 11.6671C32.0979 11.6671 30.9747 12.7901 30.9747 14.1713C30.9747 15.5512 32.0978 16.6742 33.4783 16.6742C34.0115 16.6742 34.5058 16.5065 34.9123 16.2215L36.897 17.2558V21.0424H33.1829C32.7687 21.0424 32.4329 21.3777 32.4329 21.7921C32.4329 26.8556 28.3136 30.9749 23.25 30.9749C18.1868 30.9749 14.0675 26.8556 14.0675 21.7921C14.0675 21.3777 13.7317 21.0424 13.3175 21.0424H9.60337V17.2558L11.5881 16.2215C11.9945 16.5066 12.4889 16.6742 13.0219 16.6742C14.4023 16.6742 15.5254 15.5512 15.5254 14.1713C15.5254 12.7902 14.4023 11.6671 13.0219 11.6671C11.6413 11.6671 10.5183 12.7901 10.5183 14.1713C10.5183 14.4657 10.5698 14.7489 10.664 15.0115L8.50641 16.1363C8.25853 16.2656 8.10328 16.5216 8.10328 16.8008V21.0424H7.422V16.8008C7.422 16.5216 7.26656 16.2656 7.01869 16.1363L4.86141 15.0115C4.95534 14.7489 5.00691 14.4657 5.00691 14.1713C5.00691 12.7902 3.88387 11.6671 2.5035 11.6671C1.12303 11.6671 0 12.7901 0 14.1713C0 15.5512 1.12303 16.6742 2.5035 16.6742C3.03647 16.6742 3.53072 16.5065 3.93712 16.2215L5.922 17.2558V21.0424H2.208C1.79381 21.0424 1.458 21.3777 1.458 21.7921V24.6405C1.458 24.9507 1.64897 25.2282 1.93856 25.3395L5.06072 26.5415C5.49534 28.2104 6.15647 29.8051 7.03078 31.2936L5.67197 34.3529C5.54597 34.6371 5.60766 34.9689 5.82712 35.1882L9.85434 39.2157C10.0737 39.435 10.4058 39.4959 10.6891 39.3706L13.7496 38.011C15.2387 38.8856 16.8333 39.5466 18.5002 39.9809L19.7024 43.1037C19.8137 43.3932 20.0921 43.5847 20.4022 43.5847H26.0977C26.4079 43.5847 26.6861 43.3932 26.7977 43.1037L27.9995 39.9817C29.6673 39.5466 31.2624 38.8856 32.7516 38.011L35.811 39.3706C36.0946 39.4959 36.4264 39.435 36.6458 39.2157L40.673 35.1882C40.8923 34.9688 40.9539 34.6371 40.8279 34.3529L39.4688 31.2926C40.3431 29.8033 41.0043 28.2085 41.4384 26.5415L44.5613 25.3395C44.8508 25.2283 45.0419 24.9499 45.0419 24.6405V21.7921C45.0419 21.3777 44.7066 21.0424 44.2922 21.0424H40.5779V17.2558L42.5627 16.2215Z" fill="#54595F"/>
</svg>
