<svg width="55" height="50" viewBox="0 0 55 50" fill="none" xmlns="http://www.w3.org/2000/svg">
<path d="M48.4533 10.4113C48.451 10.4169 48.4476 10.4225 48.4453 10.4271L48.4543 10.4113H48.4533Z" fill="#54595F"/>
<path d="M41.965 31.8766L37.6504 34.7243L37.96 29.5656L41.965 31.8766Z" fill="#54595F"/>
<path d="M54.0587 11.9074L53.3049 13.2126L48.457 10.4113L49.2085 9.11053C49.5938 8.44381 50.4492 8.21442 51.1149 8.59751L53.5457 10.0033C53.5468 10.0033 53.5468 10.0045 53.5479 10.0045C53.8677 10.1887 54.0971 10.4881 54.1942 10.8498C54.2915 11.2125 54.2429 11.5876 54.0587 11.9074Z" fill="#54595F"/>
<path d="M52.514 14.58L47.0682 24.0114L47.0536 24.0374L43.1752 30.7533L38.3262 27.953L47.665 11.7797L52.514 14.58Z" fill="#54595F"/>
<path d="M48.4571 10.4112H48.4582L48.4492 10.427C48.4514 10.4224 48.4548 10.4168 48.4571 10.4112Z" fill="#54595F"/>
<path d="M45.2753 0H9.81419C8.01179 0 6.54492 1.46453 6.54492 3.26587V18.2334H8.12473V3.26587C8.12473 2.3359 8.88295 1.57874 9.81419 1.57874H45.2753C46.2054 1.57874 46.9613 2.3359 46.9613 3.26587V9.84048L47.8394 8.31948C48.027 7.99626 48.2665 7.72059 48.5411 7.4979V3.26587C48.5411 1.46453 47.0755 0 45.2753 0Z" fill="#54595F"/>
<path d="M46.9636 43.4065C46.9636 44.4845 46.5409 45.4993 45.7748 46.2621C45.0096 47.024 43.9968 47.4444 42.9151 47.4503C40.6871 47.4479 38.8754 45.6347 38.8754 43.4063V41.4939C38.8754 41.0577 38.5218 40.7043 38.0857 40.7043H8.12706V36.86H6.54725V40.7043H2.24081C1.80475 40.7043 1.45117 41.0577 1.45117 41.4939V43.4063C1.45117 46.507 3.97379 49.0296 7.07459 49.0296H42.9195C42.9277 49.0296 42.9357 49.0286 42.9438 49.0284C44.4332 49.016 45.8315 48.4339 46.889 47.382C47.9558 46.3197 48.5435 44.9083 48.5435 43.4065V24.6194L46.9637 27.3563L46.9636 43.4065Z" fill="#54595F"/>
<path d="M3.736 32.1557C4.17333 32.4913 4.64569 32.7636 5.14066 32.9659C5.37344 33.0598 5.54636 33.2598 5.60846 33.5027L6.05937 35.2815H8.6133L9.06189 33.5039C9.12409 33.2587 9.29924 33.0587 9.53308 32.9637C10.0337 32.7637 10.505 32.4925 10.9343 32.158C11.1321 32.0032 11.3921 31.9535 11.6339 32.0213L13.3968 32.5197L14.6726 30.307L13.3606 29.029C13.1809 28.8539 13.095 28.6029 13.13 28.3543C13.2046 27.8175 13.2046 27.2729 13.13 26.7361C13.095 26.4875 13.1809 26.2377 13.3606 26.0614L14.6726 24.7833L13.3968 22.5728L11.6305 23.0724C11.3887 23.1413 11.1287 23.0894 10.9298 22.9345C10.5094 22.6056 10.0381 22.3334 9.52968 22.1231C9.29913 22.0282 9.12621 21.8293 9.06528 21.5875L8.61437 19.8121H6.05937L5.60846 21.5875C5.54625 21.8315 5.37228 22.0316 5.13833 22.1253C4.64452 22.3253 4.17439 22.5977 3.73929 22.9355C3.54153 23.0904 3.28052 23.1401 3.0386 23.0724L1.27569 22.574L0.00116763 24.7832L1.31316 26.0613C1.49287 26.2376 1.57874 26.4874 1.54372 26.736C1.46909 27.2728 1.46909 27.8174 1.54372 28.3542C1.57874 28.6028 1.49287 28.8536 1.31316 29.0289L0 30.3069L1.27697 32.5196L3.03988 32.0212C3.27945 31.9534 3.53824 32.0031 3.736 32.1557ZM7.33517 24.7549C8.87432 24.7549 10.1264 26.0071 10.1264 27.5462C10.1264 29.0842 8.87432 30.3352 7.33517 30.3352C5.79719 30.3352 4.54623 29.0842 4.54623 27.5462C4.54623 26.0071 5.79719 24.7549 7.33517 24.7549Z" fill="#54595F"/>
<path d="M33.1095 16.3144H22.01H16.6861C15.8445 16.3144 15.1598 15.6296 15.1598 14.7881V5.88915L17.4759 8.63723C17.632 8.82256 17.8553 8.91799 18.0801 8.91799C18.2598 8.91799 18.4404 8.85695 18.5885 8.73212C18.9219 8.45115 18.9645 7.95299 18.6834 7.61948L14.974 3.21814C14.824 3.04013 14.603 2.93738 14.3702 2.93738C14.1374 2.93738 13.9164 3.04013 13.7664 3.21814L10.057 7.61948C9.77588 7.95299 9.81844 8.45115 10.1519 8.73212C10.4853 9.01331 10.9834 8.97075 11.2645 8.63723L13.5806 5.88915V14.788C13.5806 16.5004 14.9736 17.8936 16.6861 17.8936H22.01H33.1095C33.9529 17.8936 34.6391 18.5783 34.6391 19.4199V24.7439C34.6391 25.5854 33.9529 26.2702 33.1095 26.2702H25.066H20.623C18.9105 26.2702 17.5174 27.6634 17.5174 29.3759V34.6997C17.5174 36.4121 18.9105 37.8053 20.623 37.8053H33.449C33.885 37.8053 34.2386 37.4518 34.2386 37.0157C34.2386 36.5795 33.885 36.226 33.449 36.226H20.623C19.7813 36.226 19.0966 35.5413 19.0966 34.6997V29.3759C19.0966 28.5342 19.7813 27.8494 20.623 27.8494H25.0659H33.1094C34.8236 27.8494 36.2182 26.4564 36.2182 24.7439V19.4199C36.2183 17.7075 34.8237 16.3144 33.1095 16.3144Z" fill="#BB9A65"/>
<path d="M23.8738 24.4338C24.028 24.5881 24.2303 24.6653 24.4324 24.6653C24.6344 24.6653 24.8364 24.5882 24.9904 24.4343L26.2278 23.198L27.4652 24.4343C27.6193 24.5882 27.8212 24.6653 28.0232 24.6653C28.2254 24.6653 28.4276 24.5881 28.5817 24.4338C28.89 24.1253 28.8898 23.6253 28.5812 23.3171L27.3449 22.0818L28.5812 20.8466C28.8897 20.5383 28.8899 20.0384 28.5817 19.7299C28.2735 19.4211 27.7734 19.4212 27.465 19.7294L26.2277 20.9657L24.9903 19.7294C24.6818 19.4213 24.1819 19.4212 23.8736 19.7299C23.5654 20.0384 23.5656 20.5383 23.8742 20.8466L25.1105 22.0818L23.8742 23.3171C23.5658 23.6252 23.5656 24.1253 23.8738 24.4338Z" fill="#BB9A65"/>
<path d="M26.2259 13.9178C27.7456 13.9178 28.9819 12.6815 28.9819 11.1619C28.9819 9.64226 27.7456 8.40594 26.2259 8.40594C24.7078 8.40594 23.4727 9.64226 23.4727 11.1619C23.4727 12.6815 24.7077 13.9178 26.2259 13.9178Z" fill="#BB9A65"/>
<path d="M22.6133 32.0377C22.6133 33.5573 23.8496 34.7936 25.3692 34.7936C26.8888 34.7936 28.1253 33.5573 28.1253 32.0377C28.1253 30.5179 26.8889 29.2816 25.3692 29.2816C23.8496 29.2817 22.6133 30.5179 22.6133 32.0377Z" fill="#BB9A65"/>
</svg>
