<svg width="41" height="45" viewBox="0 0 41 45" fill="none" xmlns="http://www.w3.org/2000/svg">
<path fill-rule="evenodd" clip-rule="evenodd" d="M15.9132 16.2273C17.0237 16.4998 17.9694 17.2282 18.5193 18.2341C17.4689 19.9334 15.597 20.9508 13.598 20.9091C11.6019 20.8674 9.77357 19.7733 8.79492 18.0304C12.146 18.2292 12.919 15.4931 15.9132 16.2273Z" fill="#BB9A65"/>
<path fill-rule="evenodd" clip-rule="evenodd" d="M25.7438 15.5018C24.705 15.9771 23.9126 16.8714 23.5605 17.9596C24.9136 19.4329 26.9427 20.0818 28.897 19.6667C30.8514 19.2486 32.4411 17.8325 33.0764 15.9354C29.8204 16.7579 28.5479 14.2177 25.7438 15.5018Z" fill="#BB9A65"/>
<path fill-rule="evenodd" clip-rule="evenodd" d="M22.0684 13.8802C22.4477 14.9607 22.3516 16.1488 21.8104 17.1575C19.8114 17.2041 17.9395 16.1925 16.8832 14.4932C15.827 12.7968 15.7475 10.6688 16.6747 8.89771C18.3372 11.8123 21.051 10.9685 22.0684 13.8802Z" fill="#BB9A65"/>
<path fill-rule="evenodd" clip-rule="evenodd" d="M24.7181 36.1912C24.9761 35.5346 25.3747 34.9429 25.9111 34.4231L30.1613 30.3154C29.3281 29.5977 28.9459 29.361 28.6734 29.1933C28.266 28.943 28.0604 28.814 27.4057 28.0109C26.784 27.2466 26.4077 26.6724 26.1274 26.2428C25.8742 25.8577 25.7229 25.6239 25.6298 25.5803C25.4921 25.5085 25.0139 25.6715 23.851 26.0585C23.045 26.3281 19.2516 25.3301 17.9703 25.1894C16.1362 24.9857 14.8414 25.8354 13.7832 27.0012C12.6998 28.1894 11.4961 27.0313 11.017 28.1234C10.7037 28.8383 10.4069 29.4542 10.0742 30.0536L14.594 34.4221C15.0451 34.8566 15.3971 35.3435 15.6503 35.8741C18.6473 36.0069 21.7268 36.1883 24.7181 36.1912Z" fill="#BB9A65"/>
<path fill-rule="evenodd" clip-rule="evenodd" d="M8.09574 35.3774C7.67771 35.0884 7.33921 34.778 7.24609 34.5035L8.09574 35.3774Z" fill="#BB9A65"/>
<path d="M35.1462 29.0148C35.0055 28.8033 34.7999 28.6491 34.5739 28.5608C34.3926 28.492 34.1976 28.4677 33.9997 28.4891L26.8485 35.3988C26.1065 36.1165 25.7428 36.9739 25.7428 38.0079V43.6411H31.6263L31.7175 40.9661C31.7233 40.7711 31.8106 40.5975 31.9454 40.4763L37.7116 35.4482C38.7863 34.5084 39.2179 33.2378 39.1442 31.8217L38.6544 22.5619C38.5913 21.3572 36.6835 21.3931 36.634 22.6084L36.3945 28.4512C36.8368 29.2097 36.8562 29.941 36.5894 30.651C36.3334 31.33 35.8145 31.9488 35.1704 32.5394L32.281 35.5084C32.0201 35.7751 31.5914 35.7809 31.3218 35.5219C31.0551 35.261 31.0492 34.8314 31.3082 34.5627L34.2005 31.5938C34.217 31.5773 34.2306 31.5637 34.2471 31.5501C34.7505 31.0855 35.152 30.6239 35.3188 30.1728C35.4566 29.812 35.4265 29.4299 35.1462 29.0148ZM33.0599 41.3046L32.961 44.2881C32.9639 44.7003 32.6642 45 32.282 45H25.0639C24.6895 45 24.3878 44.6945 24.3878 44.3211V38.0088C24.3878 37.8517 24.3937 37.6955 24.4072 37.5442C21.6245 37.5307 18.7982 37.3735 16.0659 37.2503C16.1018 37.4977 16.1183 37.7508 16.1183 38.0088V44.3211C16.1183 44.6954 15.8157 45 15.4394 45H8.22509C7.84295 45 7.54324 44.7003 7.54615 44.2881L7.44722 41.3046L1.90413 36.4657C0.516172 35.2533 -0.086148 33.5734 0.00987409 31.7528L0.499683 22.493C0.653901 19.5619 5.10777 19.6415 5.2261 22.5532L5.42106 27.3067C5.91281 27.1147 6.45499 27.0701 6.99136 27.202C7.11744 27.232 7.22802 27.298 7.31337 27.3863L9.06504 29.0797L9.77987 27.5812C9.91178 27.2786 10.0573 27.0419 10.2144 26.8606C7.38514 24.4028 5.55102 20.9799 5.06994 17.2652L4.88857 17.8064C4.77024 18.1614 4.38518 18.3505 4.03116 18.2322C3.67908 18.1138 3.48704 17.7288 3.60537 17.3748L4.53455 14.6115C4.69944 14.1245 5.34055 13.9732 5.70039 14.4L7.61114 16.5668C7.85846 16.8471 7.83422 17.2729 7.55294 17.5212C7.27263 17.7685 6.84587 17.7443 6.59854 17.463L6.43947 17.2816C6.66255 18.8354 7.14848 20.333 7.86137 21.7132C8.76631 23.4591 10.0311 25.0129 11.5946 26.2524C11.7401 26.2437 11.8885 26.2466 12.0349 26.2466C12.3376 26.2495 12.6343 26.2524 12.7827 26.0875C14.1106 24.6307 15.8176 23.5851 18.1222 23.8383C18.7652 23.9101 20.7283 24.33 21.6604 24.5124C21.7952 23.8722 21.8146 23.0304 21.6546 22.4775C21.5198 22.0158 21.5557 21.9664 21.3083 21.4494C20.7943 20.3747 19.8816 19.5115 18.7846 19.044C16.0543 22.7093 10.4375 22.3407 8.20473 18.3621C7.94673 17.9034 8.28717 17.3117 8.85942 17.3563C10.2619 17.431 11.1795 16.8995 12.0437 16.4019C13.193 15.7424 14.2628 15.1236 16.0747 15.5688C16.4927 15.6735 16.8942 15.8297 17.2628 16.0363C15.2696 14.0925 14.7856 11.0548 16.0776 8.58243C16.3278 8.10426 17.0038 8.10135 17.2657 8.56012C18.7972 11.2439 21.5712 10.3991 22.7118 13.6551C22.932 14.2846 23.0144 14.947 22.965 15.5959C22.9184 16.1682 22.77 16.7346 22.5169 17.2622C22.5557 17.5096 22.5799 17.7569 22.5915 18.0042C22.7128 17.8617 22.8389 17.7239 22.9737 17.5969C23.1803 17.0227 23.4936 16.4999 23.8922 16.0518C24.3267 15.562 24.8602 15.1614 25.4674 14.883C27.1667 14.1052 28.3296 14.5115 29.5827 14.9432C30.5284 15.2729 31.5371 15.6221 32.9154 15.2758C33.4265 15.1498 33.8911 15.6386 33.7214 16.1478C32.2946 20.4125 26.9853 21.8587 23.5896 18.9247C23.3364 19.238 23.1357 19.593 23.0008 19.978C22.8137 20.5221 22.7564 21.1215 22.8718 21.7433C23.1492 22.6695 23.2133 23.6899 22.9979 24.7452C23.2394 24.7811 23.3723 24.7917 23.4402 24.7704C24.9911 24.2505 25.607 24.0449 26.2443 24.3688C26.6623 24.5774 26.8902 24.9265 27.2666 25.4988C27.4867 25.8373 27.7729 26.2689 28.1734 26.7936C29.1414 26.1254 30.0347 25.3281 30.8077 24.4377C31.0522 24.1545 31.4789 24.1244 31.7621 24.3688C32.0453 24.6133 32.0754 25.0429 31.831 25.3232C31.0143 26.2689 30.0881 27.105 29.0677 27.8198C29.1773 27.911 29.2714 27.9682 29.3897 28.0429C29.7059 28.2379 30.1598 28.5162 31.1414 29.3707L33.1976 27.3853C33.283 27.297 33.3926 27.2311 33.5196 27.201C34.056 27.0691 34.5972 27.1127 35.0899 27.3058L35.2849 22.5522C35.4032 19.6405 39.8542 19.5609 40.0113 22.492L40.5011 31.7519C40.5971 33.5724 39.9948 35.2513 38.6069 36.4647L33.0599 41.3046ZM24.7176 36.1912C24.9756 35.5346 25.3742 34.9429 25.9106 34.423L30.1608 30.3154C29.3276 29.5977 28.9455 29.361 28.6729 29.1932C28.2656 28.943 28.0599 28.814 27.4053 28.0109C26.7835 27.2466 26.4072 26.6724 26.1269 26.2427C25.8738 25.8577 25.7224 25.6239 25.6293 25.5803C25.4916 25.5085 25.0134 25.6714 23.8505 26.0584C23.0445 26.3281 19.2511 25.33 17.9699 25.1894C16.1358 24.9857 14.8409 25.8354 13.7827 27.0012C12.6993 28.1894 11.4957 27.0313 11.0165 28.1234C10.7032 28.8382 10.4064 29.4541 10.0738 30.0535L14.5936 34.4221C15.0446 34.8566 15.3967 35.3435 15.6498 35.874C18.6469 36.0069 21.7264 36.1883 24.7176 36.1912ZM5.37062 28.9954C5.09322 29.4376 5.03212 29.7703 5.18342 30.1719C5.35413 30.6229 5.75277 31.0846 6.2581 31.5492C6.27459 31.5627 6.28816 31.5763 6.30174 31.5928L9.19404 34.5617C9.45495 34.8314 9.4501 35.2601 9.18046 35.521C8.91374 35.779 8.48503 35.7741 8.22412 35.5074L5.33473 32.5385C4.69168 31.9478 4.1718 31.329 3.91574 30.65C3.64901 29.941 3.66841 29.2097 4.11069 28.4503L3.87112 22.6075C3.82166 21.3922 1.91383 21.3563 1.85078 22.5609L1.36097 31.8207C1.28435 33.2368 1.71887 34.5064 2.79354 35.4473L8.55584 40.4763C8.69356 40.5975 8.78086 40.7702 8.78668 40.9661L8.87785 43.6411H14.7585V38.0079C14.7585 36.9826 14.4015 36.1214 13.6557 35.3988L6.50155 28.49C6.30659 28.4677 6.11067 28.4929 5.92929 28.5618C5.70912 28.6462 5.5132 28.7946 5.37062 28.9954ZM17.3278 18.6774C16.5111 18.6027 15.6508 18.7404 14.8147 19.1419C14.4791 19.3039 14.0747 19.1613 13.9127 18.8228C13.7536 18.4872 13.8962 18.0828 14.2318 17.9237C15.065 17.5222 15.9146 17.3272 16.742 17.3049C16.4393 17.1148 16.1067 16.9722 15.7526 16.8869C13.5005 16.334 12.5577 18.2506 10.0747 18.6463C12.0272 20.753 15.3589 20.7636 17.3278 18.6774ZM18.966 17.6628C19.7991 17.9625 20.5663 18.4378 21.2036 19.0488C21.2501 18.6395 21.2531 18.2263 21.2172 17.8199C20.2026 17.7453 19.2347 17.432 18.385 16.9131C18.6003 17.14 18.7982 17.3903 18.966 17.6628ZM20.9184 16.4233C20.6352 15.593 20.1677 14.82 19.5324 14.1692C19.2715 13.9024 19.2764 13.4737 19.546 13.2128C19.8127 12.9519 20.2414 12.9568 20.5023 13.2264C20.9146 13.6474 21.2666 14.1119 21.5605 14.6037C21.5305 14.433 21.4839 14.2652 21.4286 14.1032C20.6585 11.9063 18.5693 12.206 16.8535 10.306C16.1484 13.1401 18.031 15.9771 20.9184 16.4233ZM25.7321 16.269C26.4412 16.1779 27.1948 16.2467 27.9455 16.5086C28.3005 16.6328 28.4848 17.0169 28.3635 17.3689C28.2394 17.7239 27.8524 17.9101 27.5003 17.787C26.5081 17.4407 25.4906 17.5503 24.6323 18.0372C26.9475 19.8762 30.3645 19.2855 31.9319 16.7831C29.3364 16.8597 27.9397 14.9849 25.7321 16.269ZM35.6195 12.8074C35.7378 12.4524 36.12 12.2604 36.475 12.3787C36.83 12.4999 37.022 12.8821 36.9037 13.2361L35.9745 15.9994C35.8096 16.4892 35.1665 16.6376 34.8057 16.2138L32.895 14.047C32.6477 13.7667 32.6748 13.3409 32.9551 13.0926C33.2325 12.8423 33.6622 12.8695 33.9095 13.1508L34.0686 13.3292C33.3043 8.0257 29.5565 3.55534 24.319 1.96079C18.5703 0.207174 12.389 2.34294 8.93022 7.14307C8.71296 7.44859 8.29008 7.51746 7.98746 7.29729C7.68485 7.08002 7.61598 6.65714 7.83325 6.35452C11.6276 1.08398 18.4015 -1.25546 24.7118 0.665946C30.5294 2.43896 34.67 7.43792 35.4342 13.3486L35.6195 12.8074Z" fill="#54595F"/>
</svg>
