<svg width="75" height="75" viewBox="0 0 75 75" fill="none" xmlns="http://www.w3.org/2000/svg">
<path d="M75 21.9727V70.6055H52.6509C46.5095 70.6055 43.2797 74.7697 42.9507 75H32.0493C31.7156 74.7665 28.5319 70.6055 22.3491 70.6055H0V17.5781H4.39453V66.2109H22.3682C29.2356 66.2109 33.0583 70.0856 34.0107 70.6055H40.9893C41.9413 70.0857 45.7649 66.2109 52.6318 66.2109H70.6055V21.9727H75Z" fill="#B49077"/>
<path d="M30.8979 63.5698C28.229 62.4155 25.3418 61.8164 22.3682 61.8164H8.78906V8.78906H13.1836V53.0273H19.7754C25.7637 53.0273 30.6621 57.7163 30.8979 63.5698Z" fill="#B49077"/>
<path d="M52.631 13.1836C47.9766 13.1836 43.4937 14.4029 39.542 16.7345C39.6441 17.7327 39.6964 18.7477 39.6964 19.7754V66.1188C39.9907 65.9054 40.3271 65.6688 40.7105 65.4171C47.4951 60.8922 52.1698 61.8164 66.2101 61.8164V13.1836H52.631Z" fill="#B49077"/>
<path d="M35.3027 64.0137C35.3027 55.5327 28.3373 48.6328 19.7754 48.6328H17.5781V0C28.5631 0 35.3027 8.87124 35.3027 19.7754V64.0137Z" fill="#B49077"/>
</svg>
