<svg width="130" height="80" viewBox="0 0 130 80" fill="none" xmlns="http://www.w3.org/2000/svg">
<path d="M109.13 40.7461C111.194 40.7461 113.211 41.3581 114.928 42.5048C116.644 43.6515 117.981 45.2813 118.771 47.1882C119.561 49.0951 119.768 51.1933 119.365 53.2177C118.962 55.242 117.968 57.1014 116.509 58.5609C115.049 60.0204 113.19 61.0143 111.166 61.4169C109.141 61.8196 107.043 61.6129 105.136 60.8231C103.229 60.0332 101.599 58.6957 100.453 56.9795C99.3061 55.2634 98.6941 53.2457 98.6941 51.1818C98.697 48.4149 99.7974 45.7623 101.754 43.8058C103.71 41.8494 106.363 40.749 109.13 40.7461Z" fill="#B49077"/>
<path d="M109.13 30.3081C113.258 30.3081 117.293 31.5322 120.725 33.8256C124.157 36.1189 126.833 39.3786 128.412 43.1923C129.992 47.0061 130.405 51.2026 129.6 55.2512C128.795 59.2999 126.807 63.0188 123.888 65.9377C120.969 68.8566 117.25 70.8444 113.201 71.6498C109.153 72.4551 104.956 72.0418 101.143 70.4621C97.3288 68.8824 94.0691 66.2072 91.7757 62.7749C89.4824 59.3427 88.2583 55.3074 88.2583 51.1794C88.265 45.6461 90.4661 40.3413 94.3788 36.4286C98.2915 32.5159 103.596 30.3148 109.13 30.3081ZM109.13 64.662C111.796 64.662 114.403 63.8713 116.62 62.3898C118.837 60.9083 120.565 58.8026 121.586 56.339C122.606 53.8754 122.873 51.1645 122.353 48.5491C121.833 45.9338 120.549 43.5314 118.663 41.6458C116.778 39.7603 114.375 38.4762 111.76 37.9559C109.145 37.4357 106.434 37.7027 103.97 38.7232C101.506 39.7436 99.4008 41.4717 97.9193 43.6889C96.4378 45.9061 95.647 48.5128 95.647 51.1794C95.6509 54.7541 97.0727 58.1811 99.6003 60.7088C102.128 63.2364 105.555 64.6581 109.13 64.662Z" fill="#B49077"/>
<path d="M20.8708 61.6159C15.1077 61.6159 10.4358 56.944 10.4358 51.181C10.4358 45.418 15.1077 40.7461 20.8708 40.7461C26.6338 40.7461 31.3057 45.418 31.3057 51.181C31.3057 56.944 26.6338 61.6159 20.8708 61.6159Z" fill="#B49077"/>
<path d="M20.8718 30.3081C24.9998 30.3081 29.035 31.5322 32.4673 33.8256C35.8996 36.1189 38.5747 39.3786 40.1544 43.1923C41.7341 47.0061 42.1474 51.2026 41.3421 55.2512C40.5368 59.2999 38.549 63.0188 35.6301 65.9377C32.7112 68.8566 28.9923 70.8444 24.9436 71.6498C20.895 72.4551 16.6984 72.0418 12.8847 70.4621C9.07095 68.8824 5.8113 66.2072 3.51793 62.7749C1.22456 59.3427 0.000473022 55.3074 0.000473022 51.1794C0.0071907 45.6461 2.20829 40.3413 6.12096 36.4286C10.0336 32.5159 15.3385 30.3148 20.8718 30.3081ZM20.8718 64.662C23.5384 64.662 26.1451 63.8713 28.3623 62.3898C30.5795 60.9083 32.3076 58.8026 33.3281 56.339C34.3486 53.8754 34.6156 51.1645 34.0953 48.5491C33.5751 45.9338 32.291 43.5314 30.4054 41.6458C28.5199 39.7603 26.1175 38.4762 23.5021 37.9559C20.8868 37.4357 18.1759 37.7027 15.7123 38.7232C13.2486 39.7436 11.1429 41.4717 9.66145 43.6889C8.17997 45.9061 7.38923 48.5128 7.38923 51.1794C7.39313 54.7541 8.81486 58.1811 11.3425 60.7088C13.8701 63.2364 17.2972 64.6581 20.8718 64.662Z" fill="#B49077"/>
<path d="M97.6038 37.1624C97.8719 37.1622 98.1352 37.0912 98.3672 36.9566C98.5991 36.822 98.7914 36.6286 98.9246 36.3959C99.0578 36.1632 99.1273 35.8995 99.126 35.6314C99.1246 35.3632 99.0525 35.1002 98.917 34.8689L78.9453 0.753855C78.8109 0.524401 78.6189 0.334092 78.3883 0.201842C78.1576 0.0695915 77.8964 5.79786e-06 77.6305 0H66.7513C66.3472 0 65.9597 0.160505 65.674 0.446209C65.3883 0.731912 65.2278 1.11941 65.2278 1.52346C65.2278 1.9275 65.3883 2.315 65.674 2.6007C65.9597 2.8864 66.3472 3.04691 66.7513 3.04691H76.7571L96.2878 36.4083C96.4222 36.638 96.6144 36.8285 96.8453 36.9608C97.0761 37.0931 97.3377 37.1626 97.6038 37.1624Z" fill="#B49077"/>
<path d="M104.363 33.9479C104.631 33.9477 104.894 33.8767 105.126 33.7421C105.358 33.6075 105.55 33.4142 105.683 33.1815C105.817 32.9489 105.886 32.6852 105.885 32.4171C105.883 32.149 105.811 31.886 105.676 31.6546L87.5859 0.753855C87.4516 0.524401 87.2596 0.334092 87.0289 0.201842C86.7983 0.0695915 86.537 5.79786e-06 86.2712 0H75.3919C74.9879 0 74.6004 0.160505 74.3147 0.446209C74.029 0.731912 73.8685 1.11941 73.8685 1.52346C73.8685 1.9275 74.029 2.315 74.3147 2.6007C74.6004 2.8864 74.9879 3.04691 75.3919 3.04691H85.3977L103.047 33.1938C103.181 33.4235 103.373 33.614 103.604 33.7463C103.835 33.8786 104.097 33.9481 104.363 33.9479Z" fill="#B49077"/>
<path d="M87.5839 5.25968C87.7173 5.02704 87.9098 4.83375 88.1419 4.69933C88.3739 4.56492 88.6373 4.49413 88.9055 4.49414H97.7893C100.217 4.49295 102.545 5.45388 104.266 7.16643C105.986 8.87898 106.957 11.2035 106.967 13.6308C106.976 16.0581 106.023 18.3903 104.317 20.1164C102.61 21.8425 100.289 22.8218 97.8619 22.8398C97.596 22.8398 97.3348 22.7703 97.1042 22.638C96.8735 22.5058 96.6815 22.3154 96.5472 22.086L87.5908 6.7872C87.4553 6.55573 87.3833 6.29258 87.3821 6.02436C87.3809 5.75614 87.4505 5.49236 87.5839 5.25968Z" fill="#B49077"/>
<path d="M22.7489 9.38546C23.7778 8.80161 24.9454 8.50683 26.1281 8.53231C27.3108 8.55778 28.4646 8.90258 29.4674 9.53019L42.0841 17.3074H50.7142H50.7226H64.9994C65.4035 17.3074 65.791 17.1469 66.0767 16.8612C66.3624 16.5755 66.5229 16.188 66.5229 15.784C66.5229 15.3799 66.3624 14.9924 66.0767 14.7067C65.791 14.421 65.4035 14.2605 64.9994 14.2605H53.413C56.2007 10.0951 60.4639 7.14148 65.3432 5.99508C70.2224 4.84867 75.3549 5.59475 79.7058 8.08291L76.758 3.04789H66.7514C66.3474 3.04789 65.9599 2.88738 65.6742 2.60168C65.3885 2.31597 65.2279 1.92848 65.2279 1.52443C65.2279 1.12039 65.3885 0.732889 65.6742 0.447185C65.9599 0.161482 66.3474 0.000976675 66.7514 0.000976675H77.6314C77.8968 0.000874801 78.1575 0.0701849 78.3878 0.202028C78.6181 0.333872 78.8099 0.523659 78.9441 0.752546L85.853 12.5543L98.9166 34.8678C99.0214 35.0405 99.0908 35.2323 99.1208 35.432C99.1508 35.6318 99.1408 35.8355 99.0913 36.0313C99.0418 36.2272 98.9539 36.4112 98.8326 36.5728C98.7114 36.7343 98.5592 36.8701 98.3849 36.9723C98.2107 37.0745 98.0179 37.141 97.8177 37.168C97.6175 37.195 97.414 37.1819 97.2189 37.1294C97.0238 37.077 96.8411 36.9863 96.6814 36.8627C96.5217 36.739 96.3882 36.5848 96.2887 36.409L93.1072 30.9754L86.6122 44.3538C84.81 48.0309 82.0157 51.1308 78.5448 53.3037C75.0739 55.4766 71.0647 56.6359 66.9698 56.6507H41.0152C41.4972 54.8675 41.7422 53.0286 41.7439 51.1815C41.7441 50.3711 41.6966 49.5614 41.6017 48.7566C41.4836 47.7276 41.2876 46.709 41.0152 45.7097H43.0541L46.6342 36.15C46.9221 35.3773 46.9329 34.5287 46.6648 33.7489C46.3967 32.9691 45.8662 32.3065 45.164 31.8742L20.0727 16.4797C19.8512 16.3432 19.6682 16.1523 19.5411 15.9253C19.414 15.6982 19.347 15.4424 19.3465 15.1822C19.3382 13.999 19.6501 12.8355 20.249 11.815C20.848 10.7946 21.7118 9.95508 22.7489 9.38546ZM55.686 33.4477L67.3697 41.46H60.3384C59.9344 41.46 59.5469 41.6205 59.2612 41.9062C58.9755 42.192 58.815 42.5794 58.815 42.9835C58.815 43.3875 58.9755 43.775 59.2612 44.0607C59.5469 44.3464 59.9344 44.507 60.3384 44.507H73.8182C73.8258 44.507 73.8332 44.507 73.8405 44.507H73.8543C75.1052 44.5069 76.3304 44.1517 77.3873 43.4825C78.4443 42.8134 79.2895 41.8579 79.8247 40.7273L83.5538 32.8416C83.6637 32.6094 83.7131 32.3532 83.6973 32.0968C83.6816 31.8404 83.6013 31.5921 83.4639 31.3751C83.3264 31.158 83.1364 30.9793 82.9113 30.8554C82.6862 30.7315 82.4335 30.6666 82.1766 30.6666H56.5478C56.2225 30.6665 55.9057 30.7706 55.6437 30.9635C55.3818 31.1565 55.1885 31.4283 55.0922 31.739C54.9959 32.0497 55.0016 32.3832 55.1084 32.6904C55.2153 32.9977 55.4177 33.2627 55.686 33.4467V33.4477Z" fill="#B49077"/>
<path d="M77.0703 39.4247C76.8503 39.8898 76.5319 40.3016 76.1373 40.6317C75.7426 40.9617 75.281 41.2022 74.7843 41.3364C74.2876 41.4706 73.7677 41.4954 73.2605 41.4091C72.7533 41.3228 72.2709 41.1274 71.8466 40.8365L61.4617 33.7153H79.7686L77.0703 39.4247Z" fill="#B49077"/>
<path d="M1.55132 69.0049H128.452C128.856 69.0049 129.244 69.1654 129.529 69.4511C129.815 69.7368 129.976 70.1243 129.976 70.5283V73.3843C129.974 75.1346 129.277 76.8126 128.04 78.0502C126.802 79.2878 125.124 79.984 123.374 79.9859H6.62951C4.87924 79.984 3.20123 79.2878 1.96359 78.0502C0.725967 76.8126 0.0298157 75.1346 0.0278625 73.3843V70.5283C0.0278625 70.1243 0.188385 69.7368 0.474091 69.4511C0.759781 69.1654 1.14728 69.0049 1.55132 69.0049Z" fill="#B49077"/>
</svg>
