<svg width="75" height="75" viewBox="0 0 75 75" fill="none" xmlns="http://www.w3.org/2000/svg">
<path d="M19.8823 55.4439C15.573 68.981 7.39721 74.4808 6.93043 74.7848C6.65278 74.9659 6.31456 75.0293 5.99017 74.961C5.66579 74.8928 5.3818 74.6984 5.20069 74.4208C5.01959 74.1431 4.95619 73.8049 5.02445 73.4805C5.09271 73.1561 5.28704 72.8722 5.56469 72.6911C5.66567 72.6246 12.6563 67.8763 16.8694 56.3723C11.7145 58.0339 6.67597 60.0368 1.78716 62.3677C1.48831 62.5074 1.14634 62.5232 0.835828 62.4118C0.525318 62.3004 0.271454 62.0707 0.129596 61.7729C-0.0122617 61.4751 -0.0306062 61.1332 0.0785633 60.8219C0.187733 60.5106 0.41556 60.2551 0.712364 60.1111C6.24567 57.4736 11.9672 55.2509 17.8298 53.4611C19.1981 48.6729 19.9193 43.7232 19.9743 38.7437H1.24976C0.918304 38.7437 0.600422 38.612 0.366047 38.3776C0.131671 38.1432 0 37.8254 0 37.4939C0 37.1624 0.131671 36.8446 0.366047 36.6102C0.600422 36.3758 0.918304 36.2441 1.24976 36.2441H19.9743C19.9183 31.3857 19.2302 26.5552 17.9272 21.8744C11.9608 20.0977 6.18065 17.7466 0.667997 14.8542C0.52275 14.7778 0.393983 14.6735 0.289047 14.5473C0.184112 14.4211 0.105063 14.2754 0.0564143 14.1186C0.00776565 13.9619 -0.00952992 13.7971 0.00551476 13.6336C0.0205594 13.4702 0.0676498 13.3113 0.144097 13.1661C0.220545 13.0208 0.324852 12.892 0.451064 12.7871C0.577276 12.6822 0.722921 12.6031 0.879683 12.5545C1.03644 12.5058 1.20125 12.4885 1.3647 12.5036C1.52815 12.5186 1.68703 12.5657 1.83227 12.6422C6.69177 15.1916 11.7662 17.3086 16.9968 18.9686C12.7986 7.20895 5.66667 2.36387 5.56469 2.29676C5.28704 2.11565 5.09271 1.83167 5.02445 1.50728C4.95619 1.18289 5.01959 0.844673 5.20069 0.567028C5.3818 0.289383 5.66579 0.0950542 5.99017 0.0267923C6.31456 -0.0414696 6.65278 0.0219269 6.93043 0.203035C7.40096 0.509477 15.7099 6.09616 19.9893 19.8796C23.601 20.906 27.2679 21.7267 30.9725 22.3381C31.2823 22.3887 31.5618 22.5541 31.7552 22.8014C31.9487 23.0488 32.0419 23.3598 32.0165 23.6728C31.991 23.9857 31.8487 24.2776 31.6178 24.4904C31.387 24.7032 31.0845 24.8213 30.7705 24.8212C30.702 24.8211 30.6336 24.8156 30.566 24.8047C27.2392 24.2561 23.976 23.5329 20.7699 22.675C21.8498 27.1189 22.4215 31.6712 22.4741 36.2441H26.245C26.5764 36.2441 26.8943 36.3758 27.1287 36.6102C27.3631 36.8446 27.4947 37.1624 27.4947 37.4939C27.4947 37.8254 27.3631 38.1432 27.1287 38.3776C26.8943 38.612 26.5764 38.7437 26.245 38.7437H22.4741C22.4224 43.4249 21.8253 48.0842 20.6948 52.6273C24.0144 51.7083 27.3394 50.9331 30.6606 50.3357C30.8222 50.3067 30.9879 50.3098 31.1482 50.3448C31.3086 50.3798 31.4605 50.4461 31.5952 50.5398C31.73 50.6335 31.8449 50.7529 31.9336 50.891C32.0222 51.0292 32.0827 51.1835 32.1117 51.345C32.1407 51.5066 32.1377 51.6722 32.1026 51.8326C32.0676 51.993 32.0013 52.1448 31.9076 52.2796C31.8139 52.4143 31.6946 52.5293 31.5564 52.6179C31.4182 52.7066 31.264 52.7671 31.1024 52.7961C27.3183 53.4803 23.5731 54.3642 19.8823 55.4439ZM53.4065 10.8639C43.229 8.84815 33.4328 5.24051 24.3788 0.173791C24.0936 0.0141532 23.7572 -0.0274033 23.4418 0.0580284C23.1263 0.14346 22.8568 0.349081 22.6911 0.630818C22.5255 0.912555 22.4767 1.24799 22.5554 1.56522C22.6341 1.88245 22.8339 2.15623 23.1121 2.32788C27.0543 4.61284 31.1782 6.56909 35.4417 8.17676C37.1052 10.6353 38.4038 13.3218 39.2972 16.1526C39.4045 16.4663 39.632 16.7245 39.9297 16.8704C40.2273 17.0163 40.5708 17.038 40.8844 16.9307C41.1981 16.8234 41.4563 16.5959 41.6022 16.2983C41.7481 16.0006 41.7698 15.6572 41.6625 15.3435C40.9897 13.3439 40.1615 11.4 39.1854 9.52963C43.6733 11.0475 48.2442 12.3084 52.8756 13.306C58.4221 14.4782 63.3973 17.521 66.9674 21.9246C70.5376 26.3281 72.4859 31.8249 72.4859 37.4939C72.4859 43.1629 70.5376 48.6597 66.9674 53.0632C63.3973 57.4668 58.4221 60.5096 52.8756 61.6818C48.2442 62.6794 43.6733 63.9402 39.1854 65.4581C40.1615 63.5877 40.9897 61.6438 41.6625 59.6442C41.7698 59.3305 41.7481 58.9871 41.6022 58.6894C41.4563 58.3918 41.1981 58.1643 40.8844 58.057C40.5708 57.9497 40.2273 57.9714 39.9297 58.1173C39.632 58.2632 39.4045 58.5214 39.2972 58.8351C38.4033 61.6655 37.1048 64.3519 35.4421 66.8108C31.1784 68.4184 27.0545 70.3747 23.1121 72.6597C22.9669 72.7409 22.8394 72.8504 22.7371 72.9815C22.6348 73.1127 22.5597 73.263 22.5162 73.4236C22.4727 73.5841 22.4617 73.7518 22.4839 73.9167C22.506 74.0816 22.5609 74.2403 22.6452 74.3838C22.7295 74.5272 22.8417 74.6523 22.975 74.7518C23.1083 74.8513 23.2601 74.9232 23.4216 74.9632C23.5831 75.0033 23.7509 75.0107 23.9153 74.985C24.0797 74.9594 24.2373 74.9011 24.3788 74.8138C33.4328 69.7471 43.229 66.1394 53.4065 64.1237C59.5107 62.8304 64.9853 59.4793 68.9136 54.6314C72.842 49.7836 74.9856 43.7333 74.9856 37.4937C74.9856 31.254 72.842 25.2037 68.9136 20.3559C64.9853 15.508 59.5107 12.1572 53.4065 10.8639ZM29.9943 37.4939C29.9943 33.539 31.167 29.673 33.3642 26.3846C35.5614 23.0963 38.6844 20.5333 42.3382 19.0198C45.9921 17.5064 50.0126 17.1104 53.8915 17.882C57.7704 18.6535 61.3334 20.558 64.1299 23.3545C66.9264 26.151 68.8308 29.714 69.6024 33.5928C70.374 37.4717 69.978 41.4923 68.4645 45.1461C66.951 48.7999 64.3881 51.9229 61.0997 54.1201C57.8114 56.3173 53.9453 57.4901 49.9904 57.4901C44.689 57.484 39.6064 55.3754 35.8577 51.6267C32.109 47.878 30.0003 42.7954 29.9943 37.4939ZM35.0835 28.3798C33.6428 30.7213 32.7792 33.3717 32.5638 36.1125L36.6349 33.1545L35.0835 28.3798ZM32.5798 39.1902C32.8282 41.7217 33.6303 44.1675 34.9293 46.3545H42.017L44.1416 43.5064L41.8579 36.1657L38.3243 35.0174L32.5798 39.1902ZM44.3183 35.6608L46.4438 42.493H53.5371L55.6626 35.6614L49.9904 31.5398L44.3183 35.6608ZM55.84 43.5058L57.9639 46.3547H65.0513C66.3503 44.1678 67.1525 41.7219 67.4009 39.1905L61.657 35.017L58.1234 36.1653L55.84 43.5058ZM63.346 33.1539L67.4171 36.1119C67.2017 33.3711 66.3381 30.7207 64.8973 28.3791L63.346 33.1539ZM43.2956 53.6533L41.7364 48.8542H36.7101C38.4987 50.9481 40.7546 52.592 43.2956 53.6533ZM49.9904 54.9906C51.2581 54.9879 52.5217 54.8471 53.7589 54.5709L55.9479 47.8333L53.8302 44.9925H46.1507L44.033 47.8333L46.222 54.5709C47.4592 54.8471 48.7228 54.9879 49.9904 54.9906ZM63.2708 48.8542H58.2445L56.6853 53.6533C59.2263 52.592 61.4822 50.9481 63.2708 48.8542ZM56.9791 21.4635L51.2402 25.6337V29.358L57.3417 33.7909L60.8846 32.6393L63.0703 25.9122C61.3861 24.0056 59.3078 22.4877 56.9791 21.4635ZM49.9904 19.9972C48.619 20.0024 47.253 20.1693 45.9207 20.4945L49.9904 23.4518L54.0602 20.4945C52.7279 20.1693 51.3619 20.0024 49.9904 19.9972ZM36.9106 25.9127L39.0963 32.6398L42.6392 33.7914L48.7407 29.358V25.6337L43.0018 21.464C40.6731 22.4882 38.5948 24.0061 36.9106 25.9127Z" fill="#B49077"/>
</svg>
