<svg width="130" height="80" viewBox="0 0 130 80" fill="none" xmlns="http://www.w3.org/2000/svg">
<path d="M109.129 40.7461C111.193 40.7461 113.211 41.3581 114.927 42.5048C116.643 43.6515 117.981 45.2813 118.771 47.1882C119.56 49.0951 119.767 51.1933 119.364 53.2177C118.962 55.242 117.968 57.1014 116.508 58.5609C115.049 60.0204 113.19 61.0143 111.165 61.4169C109.141 61.8196 107.043 61.6129 105.136 60.8231C103.229 60.0332 101.599 58.6957 100.452 56.9795C99.3057 55.2634 98.6936 53.2457 98.6936 51.1818C98.6965 48.4149 99.7969 45.7623 101.753 43.8058C103.71 41.8494 106.362 40.749 109.129 40.7461Z" fill="#00A198"/>
<path d="M109.129 30.3081C113.257 30.3081 117.292 31.5322 120.725 33.8256C124.157 36.1189 126.832 39.3786 128.412 43.1923C129.991 47.0061 130.405 51.2026 129.599 55.2512C128.794 59.2999 126.806 63.0188 123.887 65.9377C120.969 68.8566 117.25 70.8444 113.201 71.6498C109.152 72.4551 104.956 72.0418 101.142 70.4621C97.3283 68.8824 94.0686 66.2072 91.7753 62.7749C89.4819 59.3427 88.2578 55.3074 88.2578 51.1794C88.2645 45.6461 90.4656 40.3413 94.3783 36.4286C98.291 32.5159 103.596 30.3148 109.129 30.3081ZM109.129 64.662C111.796 64.662 114.402 63.8713 116.62 62.3898C118.837 60.9083 120.565 58.8026 121.585 56.339C122.606 53.8754 122.873 51.1645 122.353 48.5491C121.832 45.9338 120.548 43.5314 118.663 41.6458C116.777 39.7603 114.375 38.4762 111.759 37.9559C109.144 37.4357 106.433 37.7027 103.97 38.7232C101.506 39.7436 99.4003 41.4717 97.9188 43.6889C96.4373 45.9061 95.6466 48.5128 95.6466 51.1794C95.6505 54.7541 97.0722 58.1811 99.5998 60.7088C102.127 63.2364 105.555 64.6581 109.129 64.662Z" fill="#00A198"/>
<path d="M20.8703 61.6159C15.1072 61.6159 10.4354 56.944 10.4354 51.181C10.4354 45.418 15.1072 40.7461 20.8703 40.7461C26.6333 40.7461 31.3052 45.418 31.3052 51.181C31.3052 56.944 26.6333 61.6159 20.8703 61.6159Z" fill="#00A198"/>
<path d="M20.8713 30.3081C24.9993 30.3081 29.0346 31.5322 32.4668 33.8256C35.8991 36.1189 38.5742 39.3786 40.1539 43.1923C41.7336 47.0061 42.147 51.2026 41.3416 55.2512C40.5363 59.2999 38.5485 63.0188 35.6296 65.9377C32.7107 68.8566 28.9918 70.8444 24.9431 71.6498C20.8945 72.4551 16.698 72.0418 12.8842 70.4621C9.07048 68.8824 5.81083 66.2072 3.51746 62.7749C1.22408 59.3427 0 55.3074 0 51.1794C0.00671768 45.6461 2.20781 40.3413 6.12049 36.4286C10.0332 32.5159 15.338 30.3148 20.8713 30.3081ZM20.8713 64.662C23.5379 64.662 26.1447 63.8713 28.3619 62.3898C30.5791 60.9083 32.3072 58.8026 33.3276 56.339C34.3481 53.8754 34.6151 51.1645 34.0949 48.5491C33.5746 45.9338 32.2905 43.5314 30.405 41.6458C28.5194 39.7603 26.117 38.4762 23.5017 37.9559C20.8863 37.4357 18.1754 37.7027 15.7118 38.7232C13.2482 39.7436 11.1425 41.4717 9.66098 43.6889C8.17949 45.9061 7.38876 48.5128 7.38876 51.1794C7.39266 54.7541 8.81439 58.1811 11.342 60.7088C13.8696 63.2364 17.2967 64.6581 20.8713 64.662Z" fill="#00A198"/>
<path d="M97.6033 37.1624C97.8714 37.1622 98.1348 37.0912 98.3667 36.9566C98.5986 36.822 98.7909 36.6286 98.9241 36.3959C99.0574 36.1632 99.1268 35.8995 99.1255 35.6314C99.1241 35.3632 99.0521 35.1002 98.9165 34.8689L78.9448 0.753855C78.8105 0.524401 78.6185 0.334092 78.3878 0.201842C78.1572 0.0695915 77.8959 5.79786e-06 77.63 0H66.7508C66.3467 0 65.9593 0.160505 65.6735 0.446209C65.3878 0.731912 65.2273 1.11941 65.2273 1.52346C65.2273 1.9275 65.3878 2.315 65.6735 2.6007C65.9593 2.8864 66.3467 3.04691 66.7508 3.04691H76.7566L96.2873 36.4083C96.4217 36.638 96.6139 36.8285 96.8448 36.9608C97.0757 37.0931 97.3372 37.1626 97.6033 37.1624Z" fill="#00A198"/>
<path d="M104.363 33.9479C104.631 33.9477 104.895 33.8767 105.126 33.7421C105.358 33.6075 105.551 33.4142 105.684 33.1815C105.817 32.9489 105.887 32.6852 105.885 32.4171C105.884 32.149 105.812 31.886 105.676 31.6546L87.5864 0.753855C87.4521 0.524401 87.2601 0.334092 87.0294 0.201842C86.7988 0.0695915 86.5375 5.79786e-06 86.2717 0H75.3924C74.9884 0 74.6009 0.160505 74.3152 0.446209C74.0295 0.731912 73.869 1.11941 73.869 1.52346C73.869 1.9275 74.0295 2.315 74.3152 2.6007C74.6009 2.8864 74.9884 3.04691 75.3924 3.04691H85.3982L103.047 33.1938C103.182 33.4235 103.374 33.614 103.605 33.7463C103.836 33.8786 104.097 33.9481 104.363 33.9479Z" fill="#00A198"/>
<path d="M87.5825 5.25968C87.7159 5.02704 87.9084 4.83375 88.1404 4.69933C88.3725 4.56492 88.6359 4.49413 88.9041 4.49414H97.7879C100.215 4.49295 102.544 5.45388 104.264 7.16643C105.984 8.87898 106.956 11.2035 106.965 13.6308C106.975 16.0581 106.022 18.3903 104.315 20.1164C102.609 21.8425 100.288 22.8218 97.8605 22.8398C97.5946 22.8398 97.3334 22.7703 97.1027 22.638C96.8721 22.5058 96.68 22.3154 96.5457 22.086L87.5893 6.7872C87.4538 6.55573 87.3818 6.29258 87.3806 6.02436C87.3794 5.75614 87.4491 5.49236 87.5825 5.25968Z" fill="#00A198"/>
<path d="M22.7485 9.38546C23.7773 8.80161 24.9449 8.50683 26.1276 8.53231C27.3103 8.55778 28.4641 8.90258 29.4669 9.53019L42.0836 17.3074H50.7138H50.7221H64.999C65.403 17.3074 65.7905 17.1469 66.0762 16.8612C66.3619 16.5755 66.5224 16.188 66.5224 15.784C66.5224 15.3799 66.3619 14.9924 66.0762 14.7067C65.7905 14.421 65.403 14.2605 64.999 14.2605H53.4126C56.2002 10.0951 60.4634 7.14148 65.3427 5.99508C70.222 4.84867 75.3544 5.59475 79.7054 8.08291L76.7575 3.04789H66.7509C66.3469 3.04789 65.9594 2.88738 65.6737 2.60168C65.388 2.31597 65.2275 1.92848 65.2275 1.52443C65.2275 1.12039 65.388 0.732889 65.6737 0.447185C65.9594 0.161482 66.3469 0.000976675 66.7509 0.000976675H77.6309C77.8963 0.000874801 78.1571 0.0701849 78.3873 0.202028C78.6176 0.333872 78.8094 0.523659 78.9436 0.752546L85.8525 12.5543L98.9162 34.8678C99.0209 35.0405 99.0904 35.2323 99.1203 35.432C99.1503 35.6318 99.1403 35.8355 99.0908 36.0313C99.0413 36.2272 98.9534 36.4112 98.8321 36.5728C98.7109 36.7343 98.5587 36.8701 98.3845 36.9723C98.2102 37.0745 98.0174 37.141 97.8172 37.168C97.617 37.195 97.4135 37.1819 97.2184 37.1294C97.0234 37.077 96.8407 36.9863 96.681 36.8627C96.5213 36.739 96.3877 36.5848 96.2882 36.409L93.1067 30.9754L86.6117 44.3538C84.8095 48.0309 82.0152 51.1308 78.5443 53.3037C75.0734 55.4766 71.0642 56.6359 66.9693 56.6507H41.0147C41.4967 54.8675 41.7417 53.0286 41.7434 51.1815C41.7436 50.3711 41.6961 49.5614 41.6012 48.7566C41.4832 47.7276 41.2871 46.709 41.0147 45.7097H43.0536L46.6337 36.15C46.9216 35.3773 46.9324 34.5287 46.6643 33.7489C46.3962 32.9691 45.8658 32.3065 45.1636 31.8742L20.0722 16.4797C19.8507 16.3432 19.6677 16.1523 19.5406 15.9253C19.4135 15.6982 19.3466 15.4424 19.3461 15.1822C19.3378 13.999 19.6496 12.8355 20.2486 11.815C20.8475 10.7946 21.7113 9.95508 22.7485 9.38546ZM55.6856 33.4477L67.3692 41.46H60.3379C59.9339 41.46 59.5464 41.6205 59.2607 41.9062C58.975 42.192 58.8145 42.5794 58.8145 42.9835C58.8145 43.3875 58.975 43.775 59.2607 44.0607C59.5464 44.3464 59.9339 44.507 60.3379 44.507H73.8177C73.8253 44.507 73.8327 44.507 73.8401 44.507H73.8538C75.1047 44.5069 76.3299 44.1517 77.3869 43.4825C78.4438 42.8134 79.289 41.8579 79.8242 40.7273L83.5534 32.8416C83.6632 32.6094 83.7126 32.3532 83.6969 32.0968C83.6811 31.8404 83.6008 31.5921 83.4634 31.3751C83.326 31.158 83.1359 30.9793 82.9108 30.8554C82.6858 30.7315 82.4331 30.6666 82.1762 30.6666H56.5473C56.222 30.6665 55.9052 30.7706 55.6433 30.9635C55.3813 31.1565 55.1881 31.4283 55.0917 31.739C54.9954 32.0497 55.0011 32.3832 55.108 32.6904C55.2148 32.9977 55.4172 33.2627 55.6856 33.4467V33.4477Z" fill="#00A198"/>
<path d="M77.0698 39.4247C76.8498 39.8898 76.5315 40.3016 76.1368 40.6317C75.7421 40.9617 75.2805 41.2022 74.7838 41.3364C74.2871 41.4706 73.7673 41.4954 73.2601 41.4091C72.7529 41.3228 72.2704 41.1274 71.8461 40.8365L61.4612 33.7153H79.7681L77.0698 39.4247Z" fill="#00A198"/>
<path d="M1.55084 69.0049H128.452C128.856 69.0049 129.243 69.1654 129.529 69.4511C129.815 69.7368 129.975 70.1243 129.975 70.5283V73.3843C129.973 75.1346 129.277 76.8126 128.039 78.0502C126.802 79.2878 125.124 79.984 123.373 79.9859H6.62904C4.87877 79.984 3.20075 79.2878 1.96312 78.0502C0.725494 76.8126 0.0293427 75.1346 0.0273895 73.3843V70.5283C0.0273895 70.1243 0.187912 69.7368 0.473618 69.4511C0.759308 69.1654 1.1468 69.0049 1.55084 69.0049Z" fill="#00A198"/>
</svg>
