<svg width="75" height="75" viewBox="0 0 75 75" fill="none" xmlns="http://www.w3.org/2000/svg">
<path d="M72.803 4.29888H70.7014V2.19727C70.7014 0.983789 69.7176 0 68.5041 0C67.2906 0 66.3068 0.983789 66.3068 2.19727V4.29888H64.2051C62.9916 4.29888 62.0078 5.28267 62.0078 6.49614C62.0078 7.70962 62.9916 8.69341 64.2051 8.69341H66.3068V10.7952C66.3068 12.0086 67.2906 12.9924 68.5041 12.9924C69.7176 12.9924 70.7014 12.0086 70.7014 10.7952V8.69341H72.803C74.0165 8.69341 75.0002 7.70962 75.0002 6.49614C75.0002 5.28267 74.0165 4.29888 72.803 4.29888Z" fill="#00A198"/>
<path d="M10.795 47.0215H8.69341V44.9199C8.69341 43.7064 7.70962 42.7227 6.49614 42.7227C5.28267 42.7227 4.29888 43.7064 4.29888 44.9199V47.0215H2.19727C0.983789 47.0215 0 48.0053 0 49.2188C0 50.4323 0.983789 51.4161 2.19727 51.4161H4.29888V53.5177C4.29888 54.7311 5.28267 55.7149 6.49614 55.7149C7.70962 55.7149 8.69341 54.7311 8.69341 53.5177V51.4161H10.795C12.0085 51.4161 12.9923 50.4323 12.9923 49.2188C12.9923 48.0053 12.0086 47.0215 10.795 47.0215Z" fill="#00A198"/>
<path d="M7.56445 10.6484C8.77797 10.6484 9.76172 9.66469 9.76172 8.45117C9.76172 7.23766 8.77797 6.25391 7.56445 6.25391C6.35094 6.25391 5.36719 7.23766 5.36719 8.45117C5.36719 9.66469 6.35094 10.6484 7.56445 10.6484Z" fill="#00A198"/>
<path d="M66.1738 46.0674C67.3873 46.0674 68.3711 45.0836 68.3711 43.8701C68.3711 42.6566 67.3873 41.6729 66.1738 41.6729C64.9603 41.6729 63.9766 42.6566 63.9766 43.8701C63.9766 45.0836 64.9603 46.0674 66.1738 46.0674Z" fill="#00A198"/>
<path d="M63.0215 27.4585H55.4204C55.126 34.4399 53.4268 40.96 50.563 46.0107C50.173 46.6986 43.5142 58.8867 43.5142 58.8867H31.4878C31.4878 58.8867 24.8301 46.7007 24.439 46.0107C21.5752 40.96 19.876 34.4399 19.5815 27.4585H11.9805C12.336 31.6236 13.693 35.5069 15.808 38.867C19.371 45.5402 22.934 52.2135 26.4971 58.8867H26.1309C24.9254 58.8867 23.9336 59.8786 23.9336 61.084C23.9336 62.2894 24.9254 63.2812 26.1309 63.2812H27.9795V68.833C27.9795 72.2329 30.7466 75 34.1465 75H40.8555C44.2554 75 47.0225 72.2329 47.0225 68.833V63.2812H48.8711C50.0765 63.2812 51.0684 62.2894 51.0684 61.084C51.0684 59.8786 50.0765 58.8867 48.8711 58.8867H48.5049C52.0677 52.2139 55.6305 45.541 59.1933 38.8682C61.3086 35.5077 62.6658 31.6241 63.0215 27.4585Z" fill="#00A198"/>
<path d="M49.3398 2.55029C49.7632 3.16846 50.1719 3.82031 50.563 4.51025C53.4268 9.5625 55.126 16.0825 55.4204 23.064H63.0215C62.2598 14.1416 56.9058 6.51123 49.3398 2.55029Z" fill="#00A198"/>
<path d="M24.439 4.51025C24.8301 3.82031 25.2388 3.16846 25.6621 2.55029C18.0962 6.51123 12.7422 14.1416 11.9805 23.064H19.5815C19.876 16.0825 21.5752 9.5625 24.439 4.51025Z" fill="#00A198"/>
<path d="M51.019 27.4585H39.6973V50.5225C45.6768 48.5947 50.4712 38.9795 51.019 27.4585Z" fill="#00A198"/>
<path d="M35.3022 50.5225V27.4585H23.9805C24.5283 38.9795 29.3228 48.5947 35.3022 50.5225Z" fill="#00A198"/>
<path d="M35.3022 23.064V0C29.3228 1.92773 24.5283 11.543 23.9805 23.064H35.3022Z" fill="#00A198"/>
<path d="M39.6973 0V23.064H51.019C50.4712 11.543 45.6768 1.92773 39.6973 0Z" fill="#00A198"/>
<path d="M67.4141 25.2612C67.4141 24.0478 66.4303 23.064 65.2168 23.064H63.0195V27.4585H65.2168C66.4303 27.4585 67.4141 26.4747 67.4141 25.2612Z" fill="#00A198"/>
<path d="M9.7832 23.064C8.56973 23.064 7.58594 24.0478 7.58594 25.2612C7.58594 26.4747 8.56973 27.4585 9.7832 27.4585H11.9805V23.064H9.7832Z" fill="#00A198"/>
</svg>
