<svg width="35" height="16" viewBox="0 0 35 16" fill="none" xmlns="http://www.w3.org/2000/svg">
<path d="M33.6518 2.39499H1.20009C0.601377 2.39499 0.152344 1.79624 0.152344 1.19749C0.152344 0.598747 0.601377 0 1.34977 0H33.8014C34.4001 0 34.9989 0.44906 34.9989 1.19749C34.9989 1.94593 34.2505 2.39499 33.6518 2.39499Z" fill="url(#paint0_linear_1193_213)"/>
<path d="M17.1845 15.195H1.19742C0.598711 15.195 0 14.7459 0 13.9975C0 13.249 0.449033 12.8 1.19742 12.8H17.1845C17.7832 12.8 18.382 13.249 18.382 13.9975C18.382 14.7459 17.7832 15.195 17.1845 15.195Z" fill="url(#paint1_linear_1193_213)"/>
<defs>
<linearGradient id="paint0_linear_1193_213" x1="32.5103" y1="1.22941" x2="6.99093" y2="4.3294" gradientUnits="userSpaceOnUse">
<stop stop-color="#B10083"/>
<stop offset="1" stop-color="#E80567"/>
</linearGradient>
<linearGradient id="paint1_linear_1193_213" x1="17.0692" y1="14.0294" x2="3.46465" y2="14.9012" gradientUnits="userSpaceOnUse">
<stop stop-color="#B10083"/>
<stop offset="1" stop-color="#E80567"/>
</linearGradient>
</defs>
</svg>
