<svg width="164" height="32" viewBox="0 0 164 32" fill="none" xmlns="http://www.w3.org/2000/svg">
<path d="M16.894 16.6185C19.7499 17.9486 22.6937 18.6086 25.1757 18.4781H25.2208L25.399 0.782936C25.4004 0.642304 25.3635 0.503951 25.2922 0.382688C25.221 0.261424 25.1181 0.161816 24.9946 0.094525C24.8711 0.0272343 24.7317 -0.00520518 24.5911 0.000679215C24.4506 0.00656361 24.3144 0.0505503 24.1969 0.127931L9.3125 10.1663C10.5171 12.4676 13.3002 14.9421 16.894 16.6185Z" fill="#FF8C33"/>
<path d="M24.564 20.1769C21.9666 20.1769 19.0228 19.4667 16.1845 18.1416C12.2695 16.3171 9.32575 13.7147 7.90281 11.1147L0.343903 16.2218C0.213058 16.3094 0.112 16.4348 0.054172 16.5813C-0.00365634 16.7278 -0.0155139 16.8884 0.0201768 17.0418C0.0558674 17.1952 0.137414 17.3341 0.25397 17.44C0.370525 17.5459 0.516564 17.6138 0.67266 17.6347L13.3813 19.3638C14.1283 19.4654 14.8131 19.8346 15.3086 20.4028L23.7509 30.0572C23.8546 30.1754 23.9917 30.2594 24.1441 30.2981C24.2965 30.3369 24.4571 30.3285 24.6046 30.2742C24.7522 30.2198 24.8798 30.122 24.9707 29.9937C25.0615 29.8654 25.1114 29.7125 25.1136 29.5553L25.2065 20.1618C24.9974 20.1719 24.7832 20.1769 24.564 20.1769Z" fill="#FF8C33"/>
<path d="M24.5628 18.8371C21.9654 18.8371 19.0216 18.1269 16.1833 16.8018C9.50776 13.6899 5.64298 8.31434 7.3997 4.56249C9.15642 0.810642 15.7441 0.316251 22.4196 3.42815C24.5187 4.38899 26.4511 5.67838 28.144 7.24776C28.3061 7.40118 28.4006 7.61269 28.4067 7.83578C28.4128 8.05886 28.3301 8.27524 28.1767 8.43731C28.0232 8.59938 27.8117 8.69387 27.5886 8.69998C27.3656 8.7061 27.1492 8.62335 26.9871 8.46993C25.4279 7.02664 23.6489 5.84066 21.717 4.9565C16.0829 2.32895 10.2255 2.47701 8.92051 5.26518C7.61552 8.05334 11.267 12.6534 16.8935 15.2785C19.7494 16.6086 22.6932 17.2711 25.1752 17.1381C27.4765 17.0176 29.0751 16.2447 29.6749 14.9572C30.2998 13.6146 29.695 12.0812 29.0776 11.0322C29.0216 10.937 28.9849 10.8316 28.9695 10.7222C28.9542 10.6128 28.9606 10.5014 28.9884 10.3944C29.0161 10.2875 29.0646 10.187 29.1312 10.0988C29.1977 10.0106 29.281 9.93635 29.3762 9.88033C29.4715 9.8243 29.5768 9.78758 29.6863 9.77227C29.7957 9.75696 29.9071 9.76335 30.014 9.79108C30.2301 9.84709 30.415 9.98661 30.5281 10.179C31.6901 12.154 31.9285 14.104 31.2007 15.6675C30.3249 17.5446 28.2168 18.679 25.263 18.8195C25.0371 18.8321 24.8012 18.8371 24.5628 18.8371Z" fill="#FF8C33"/>
<path d="M163.362 16.9596C163.362 17.5168 163.326 18.0202 163.254 18.4695H151.902C151.992 19.656 152.433 20.6087 153.224 21.3277C154.015 22.0468 154.985 22.4063 156.136 22.4063C157.79 22.4063 158.958 21.7142 159.641 20.3301H162.958C162.508 21.6962 161.69 22.8197 160.504 23.7006C159.336 24.5634 157.879 24.9948 156.136 24.9948C154.716 24.9948 153.439 24.6802 152.307 24.0511C151.192 23.4039 150.312 22.5052 149.664 21.3547C149.035 20.1863 148.721 18.8381 148.721 17.3101C148.721 15.7821 149.026 14.4429 149.637 13.2925C150.267 12.124 151.138 11.2252 152.253 10.5961C153.385 9.96692 154.68 9.65234 156.136 9.65234C157.538 9.65234 158.787 9.95793 159.884 10.5691C160.98 11.1803 161.834 12.0431 162.445 13.1577C163.057 14.2542 163.362 15.5215 163.362 16.9596ZM160.153 15.9889C160.135 14.8564 159.731 13.9486 158.94 13.2655C158.149 12.5824 157.169 12.2409 156.001 12.2409C154.94 12.2409 154.033 12.5824 153.278 13.2655C152.523 13.9306 152.073 14.8384 151.929 15.9889H160.153Z" fill="white"/>
<path d="M139.715 9.65234C140.884 9.65234 141.926 9.89502 142.843 10.3804C143.778 10.8657 144.506 11.5848 145.027 12.5375C145.567 13.4902 145.836 14.6407 145.836 15.9889V24.7521H142.789V16.4473C142.789 15.117 142.457 14.1014 141.792 13.4003C141.127 12.6813 140.219 12.3218 139.068 12.3218C137.918 12.3218 137.001 12.6813 136.318 13.4003C135.653 14.1014 135.32 15.117 135.32 16.4473V24.7521H132.273V16.4473C132.273 15.117 131.941 14.1014 131.276 13.4003C130.611 12.6813 129.703 12.3218 128.552 12.3218C127.402 12.3218 126.485 12.6813 125.802 13.4003C125.137 14.1014 124.804 15.117 124.804 16.4473V24.7521H121.73V9.89502H124.804V11.5937C125.308 10.9826 125.946 10.5062 126.719 10.1647C127.492 9.82312 128.319 9.65234 129.199 9.65234C130.386 9.65234 131.446 9.90401 132.381 10.4073C133.316 10.9107 134.035 11.6387 134.538 12.5914C134.988 11.6926 135.689 10.9826 136.642 10.4613C137.594 9.92198 138.619 9.65234 139.715 9.65234Z" fill="white"/>
<path d="M117.674 9.89502V24.7521H114.6V22.9995C114.115 23.6107 113.476 24.096 112.685 24.4555C111.913 24.7971 111.086 24.9679 110.205 24.9679C109.036 24.9679 107.985 24.7252 107.05 24.2398C106.133 23.7545 105.405 23.0354 104.866 22.0827C104.345 21.13 104.084 19.9795 104.084 18.6313V9.89502H107.131V18.1729C107.131 19.5032 107.463 20.5278 108.129 21.2468C108.794 21.9479 109.701 22.2984 110.852 22.2984C112.002 22.2984 112.91 21.9479 113.575 21.2468C114.258 20.5278 114.6 19.5032 114.6 18.1729V9.89502H117.674Z" fill="white"/>
<path d="M101.896 9.89502L92.7825 31.7358H89.6007L92.6207 24.5095L86.7695 9.89502H90.194L94.3734 21.2199L98.7146 9.89502H101.896Z" fill="white"/>
<path d="M78.5553 22.2445H85.2963V24.7521H74.9961V22.2445L81.764 12.4027H74.9961V9.89502H85.2963V12.4027L78.5553 22.2445Z" fill="white"/>
<path d="M72.8074 16.9596C72.8074 17.5168 72.7715 18.0202 72.6996 18.4695H61.3478C61.4376 19.656 61.8781 20.6087 62.669 21.3277C63.4599 22.0468 64.4306 22.4063 65.5811 22.4063C67.2349 22.4063 68.4033 21.7142 69.0864 20.3301H72.403C71.9536 21.6962 71.1357 22.8197 69.9493 23.7006C68.7808 24.5634 67.3248 24.9948 65.5811 24.9948C64.161 24.9948 62.8847 24.6802 61.7522 24.0511C60.6377 23.4039 59.7569 22.5052 59.1098 21.3547C58.4806 20.1863 58.166 18.8381 58.166 17.3101C58.166 15.7821 58.4716 14.4429 59.0828 13.2925C59.7119 12.124 60.5838 11.2252 61.6983 10.5961C62.8308 9.96692 64.125 9.65234 65.5811 9.65234C66.9832 9.65234 68.2325 9.95793 69.3291 10.5691C70.4256 11.1803 71.2795 12.0431 71.8907 13.1577C72.5018 14.2542 72.8074 15.5215 72.8074 16.9596ZM69.5987 15.9889C69.5807 14.8564 69.1763 13.9486 68.3853 13.2655C67.5944 12.5824 66.6147 12.2409 65.4463 12.2409C64.3857 12.2409 63.4779 12.5824 62.7229 13.2655C61.9679 13.9306 61.5185 14.8384 61.3747 15.9889H69.5987Z" fill="white"/>
<path d="M51.8883 24.7521L47.574 17.2562H45.2282V24.7521H42.1543V6.01221H48.6256C50.0637 6.01221 51.2771 6.26387 52.2658 6.7672C53.2724 7.27052 54.0184 7.94462 54.5038 8.78949C55.0071 9.63436 55.2588 10.5781 55.2588 11.6207C55.2588 12.8431 54.8992 13.9576 54.1802 14.9642C53.4791 15.9529 52.3916 16.627 50.9176 16.9865L55.5554 24.7521H51.8883ZM45.2282 14.8025H48.6256C49.7761 14.8025 50.6389 14.5148 51.2142 13.9396C51.8074 13.3644 52.104 12.5914 52.104 11.6207C52.104 10.65 51.8164 9.89501 51.2411 9.35573C50.6659 8.79848 49.7941 8.51985 48.6256 8.51985H45.2282V14.8025Z" fill="white"/>
</svg>
