<svg width="169" height="43" viewBox="0 0 169 43" fill="none" xmlns="http://www.w3.org/2000/svg">
<path d="M20.6251 16.7569C23.5048 18.0981 26.4731 18.7636 28.9758 18.632H29.0213L29.201 0.789457C29.2023 0.647654 29.1651 0.508149 29.0933 0.385875C29.0215 0.263602 28.9177 0.163163 28.7932 0.0953123C28.6687 0.0274611 28.5281 -0.00524854 28.3864 0.000684872C28.2447 0.00661828 28.1073 0.0509713 27.9889 0.128996L12.9805 10.251C14.1951 12.5715 17.0014 15.0665 20.6251 16.7569Z" fill="#FF8C33"/>
<path d="M28.3585 20.3452C25.7394 20.3452 22.7711 19.629 19.9091 18.2929C15.9615 16.4532 12.9933 13.8291 11.5585 11.2075L3.93661 16.3571C3.80468 16.4455 3.70278 16.5719 3.64447 16.7196C3.58616 16.8673 3.5742 17.0293 3.61019 17.1839C3.64618 17.3386 3.7284 17.4786 3.84593 17.5854C3.96346 17.6922 4.11071 17.7607 4.26811 17.7818L17.0826 19.5253C17.8358 19.6277 18.5263 20 19.026 20.5729L27.5386 30.3077C27.6431 30.4269 27.7814 30.5116 27.935 30.5507C28.0887 30.5897 28.2506 30.5813 28.3994 30.5265C28.5482 30.4717 28.6769 30.3731 28.7685 30.2437C28.8601 30.1143 28.9104 29.9602 28.9126 29.8016L29.0063 20.33C28.7954 20.3401 28.5795 20.3452 28.3585 20.3452Z" fill="#FF8C33"/>
<path d="M28.3577 18.9939C25.7387 18.9939 22.7704 18.2778 19.9084 16.9416C13.1773 13.8038 9.28031 8.3835 11.0517 4.6004C12.823 0.8173 19.4656 0.318791 26.1967 3.45661C28.3132 4.42546 30.2617 5.72558 31.9688 7.30803C32.1322 7.46273 32.2275 7.67601 32.2336 7.90095C32.2398 8.12589 32.1564 8.34407 32.0017 8.50749C31.847 8.67091 31.6337 8.76618 31.4088 8.77235C31.1838 8.77852 30.9656 8.69508 30.8022 8.54039C29.23 7.08507 27.4362 5.88922 25.4882 4.99769C19.8072 2.34825 13.901 2.49755 12.5851 5.30894C11.2693 8.12032 14.9512 12.7587 20.6245 15.4056C23.5042 16.7468 26.4725 17.4149 28.9752 17.2807C31.2957 17.1593 32.9076 16.3799 33.5124 15.0817C34.1425 13.7279 33.5326 12.1818 32.9101 11.124C32.8536 11.028 32.8166 10.9218 32.8012 10.8114C32.7857 10.7011 32.7922 10.5888 32.8201 10.4809C32.8481 10.3731 32.897 10.2718 32.9641 10.1828C33.0312 10.0939 33.1152 10.019 33.2112 9.96253C33.3073 9.90603 33.4135 9.86901 33.5239 9.85357C33.6342 9.83813 33.7465 9.84457 33.8544 9.87254C34.0722 9.92901 34.2587 10.0697 34.3727 10.2637C35.5444 12.2552 35.7848 14.2214 35.0509 15.7979C34.1678 17.6907 32.0422 18.8345 29.0638 18.9762C28.836 18.9888 28.5981 18.9939 28.3577 18.9939Z" fill="#FF8C33"/>
<path d="M168.312 17.1007C168.312 17.6626 168.276 18.1701 168.203 18.6233H156.757C156.848 19.8196 157.292 20.7802 158.089 21.5053C158.887 22.2303 159.866 22.5928 161.026 22.5928C162.693 22.5928 163.871 21.895 164.56 20.4993H167.904C167.451 21.8768 166.627 23.0097 165.43 23.8979C164.252 24.7679 162.784 25.2029 161.026 25.2029C159.594 25.2029 158.307 24.8857 157.165 24.2513C156.041 23.5988 155.153 22.6925 154.5 21.5325C153.866 20.3543 153.549 18.9949 153.549 17.4542C153.549 15.9135 153.857 14.5631 154.473 13.4031C155.108 12.2249 155.987 11.3186 157.111 10.6842C158.252 10.0498 159.557 9.73264 161.026 9.73264C162.439 9.73264 163.699 10.0408 164.805 10.657C165.911 11.2733 166.772 12.1434 167.388 13.2671C168.004 14.3728 168.312 15.6507 168.312 17.1007ZM165.077 16.1219C165.059 14.98 164.651 14.0647 163.853 13.3759C163.056 12.6871 162.068 12.3427 160.89 12.3427C159.82 12.3427 158.905 12.6871 158.144 13.3759C157.382 14.0465 156.929 14.9619 156.784 16.1219H165.077Z" fill="#083C2F"/>
<path d="M144.467 9.73264C145.645 9.73264 146.696 9.97733 147.621 10.4667C148.563 10.9561 149.297 11.6811 149.823 12.6418C150.367 13.6025 150.639 14.7625 150.639 16.1219V24.9582H147.566V16.5841C147.566 15.2428 147.231 14.2187 146.56 13.5118C145.89 12.7868 144.974 12.4243 143.814 12.4243C142.654 12.4243 141.73 12.7868 141.041 13.5118C140.37 14.2187 140.035 15.2428 140.035 16.5841V24.9582H136.963V16.5841C136.963 15.2428 136.627 14.2187 135.957 13.5118C135.286 12.7868 134.371 12.4243 133.211 12.4243C132.051 12.4243 131.126 12.7868 130.438 13.5118C129.767 14.2187 129.432 15.2428 129.432 16.5841V24.9582H126.332V9.97733H129.432V11.6902C129.939 11.0739 130.583 10.5936 131.362 10.2492C132.141 9.90483 132.975 9.73264 133.863 9.73264C135.06 9.73264 136.129 9.98639 137.071 10.4939C138.014 11.0014 138.739 11.7355 139.247 12.6962C139.7 11.7899 140.407 11.0739 141.367 10.5483C142.328 10.0045 143.361 9.73264 144.467 9.73264Z" fill="#083C2F"/>
<path d="M122.242 9.97733V24.9582H119.143V23.1909C118.653 23.8072 118.01 24.2966 117.212 24.6591C116.433 25.0035 115.599 25.1757 114.711 25.1757C113.533 25.1757 112.472 24.931 111.53 24.4416C110.605 23.9522 109.871 23.2272 109.328 22.2665C108.802 21.3059 108.539 20.1458 108.539 18.7864V9.97733H111.611V18.3242C111.611 19.6655 111.947 20.6987 112.617 21.4237C113.288 22.1306 114.203 22.484 115.363 22.484C116.523 22.484 117.439 22.1306 118.109 21.4237C118.798 20.6987 119.143 19.6655 119.143 18.3242V9.97733H122.242Z" fill="#083C2F"/>
<path d="M106.335 9.97733L97.1451 32H93.9368L96.9819 24.7135L91.082 9.97733H94.535L98.7492 21.3965L103.127 9.97733H106.335Z" fill="#083C2F"/>
<path d="M82.7979 22.4297H89.595V24.9582H79.209V22.4297L86.0333 12.5059H79.209V9.97733H89.595V12.5059L82.7979 22.4297Z" fill="#083C2F"/>
<path d="M77.0016 17.1007C77.0016 17.6626 76.9654 18.1701 76.8929 18.6233H65.4465C65.5372 19.8196 65.9812 20.7802 66.7788 21.5053C67.5763 22.2303 68.5551 22.5928 69.7151 22.5928C71.3827 22.5928 72.5609 21.895 73.2496 20.4993H76.5938C76.1407 21.8768 75.316 23.0097 74.1197 23.8979C72.9415 24.7679 71.4733 25.2029 69.7151 25.2029C68.2832 25.2029 66.9963 24.8857 65.8544 24.2513C64.7306 23.5988 63.8424 22.6925 63.1899 21.5325C62.5555 20.3543 62.2383 18.9949 62.2383 17.4542C62.2383 15.9135 62.5464 14.5631 63.1627 13.4031C63.7971 12.2249 64.6762 11.3186 65.8 10.6842C66.9419 10.0498 68.2469 9.73264 69.7151 9.73264C71.1289 9.73264 72.3887 10.0408 73.4943 10.657C74.6 11.2733 75.461 12.1434 76.0772 13.2671C76.6935 14.3728 77.0016 15.6507 77.0016 17.1007ZM73.7662 16.1219C73.7481 14.98 73.3403 14.0647 72.5427 13.3759C71.7452 12.6871 70.7573 12.3427 69.5792 12.3427C68.5098 12.3427 67.5944 12.6871 66.8331 13.3759C66.0719 14.0465 65.6187 14.9619 65.4737 16.1219H73.7662Z" fill="#083C2F"/>
<path d="M55.9088 24.9582L51.5586 17.3998H49.1932V24.9582H46.0938V6.06219H52.619C54.069 6.06219 55.2925 6.31595 56.2894 6.82347C57.3045 7.33099 58.0567 8.01071 58.5461 8.86261C59.0536 9.71452 59.3074 10.6661 59.3074 11.7174C59.3074 12.95 58.9449 14.0737 58.2198 15.0888C57.5129 16.0857 56.4163 16.7654 54.93 17.1279L59.6064 24.9582H55.9088ZM49.1932 14.9257H52.619C53.779 14.9257 54.6491 14.6356 55.2291 14.0556C55.8272 13.4756 56.1263 12.6962 56.1263 11.7174C56.1263 10.7386 55.8363 9.97734 55.2563 9.43357C54.6763 8.87167 53.7972 8.59073 52.619 8.59073H49.1932V14.9257Z" fill="#083C2F"/>
<path d="M79.6133 33.636L76.4573 42H75.1973L72.0413 33.636H73.2053L75.8333 40.848L78.4613 33.636H79.6133ZM81.3747 34.356C81.1667 34.356 80.9907 34.284 80.8467 34.14C80.7027 33.996 80.6307 33.82 80.6307 33.612C80.6307 33.404 80.7027 33.228 80.8467 33.084C80.9907 32.94 81.1667 32.868 81.3747 32.868C81.5747 32.868 81.7427 32.94 81.8787 33.084C82.0227 33.228 82.0947 33.404 82.0947 33.612C82.0947 33.82 82.0227 33.996 81.8787 34.14C81.7427 34.284 81.5747 34.356 81.3747 34.356ZM81.9027 35.424V42H80.8107V35.424H81.9027ZM84.8558 36.492C85.0478 36.116 85.3198 35.824 85.6718 35.616C86.0318 35.408 86.4678 35.304 86.9798 35.304V36.432H86.6918C85.4678 36.432 84.8558 37.096 84.8558 38.424V42H83.7638V35.424H84.8558V36.492ZM89.5724 36.324V40.2C89.5724 40.52 89.6404 40.748 89.7764 40.884C89.9124 41.012 90.1484 41.076 90.4844 41.076H91.2884V42H90.3044C89.6964 42 89.2404 41.86 88.9364 41.58C88.6324 41.3 88.4804 40.84 88.4804 40.2V36.324H87.6284V35.424H88.4804V33.768H89.5724V35.424H91.2884V36.324H89.5724ZM98.4435 35.424V42H97.3515V41.028C97.1435 41.364 96.8515 41.628 96.4755 41.82C96.1075 42.004 95.6995 42.096 95.2515 42.096C94.7395 42.096 94.2795 41.992 93.8715 41.784C93.4635 41.568 93.1395 41.248 92.8995 40.824C92.6675 40.4 92.5515 39.884 92.5515 39.276V35.424H93.6315V39.132C93.6315 39.78 93.7955 40.28 94.1235 40.632C94.4515 40.976 94.8995 41.148 95.4675 41.148C96.0515 41.148 96.5115 40.968 96.8475 40.608C97.1835 40.248 97.3515 39.724 97.3515 39.036V35.424H98.4435ZM99.8793 38.688C99.8793 38.016 100.015 37.428 100.287 36.924C100.559 36.412 100.931 36.016 101.403 35.736C101.883 35.456 102.415 35.316 102.999 35.316C103.575 35.316 104.075 35.44 104.499 35.688C104.923 35.936 105.239 36.248 105.447 36.624V35.424H106.551V42H105.447V40.776C105.231 41.16 104.907 41.48 104.475 41.736C104.051 41.984 103.555 42.108 102.987 42.108C102.403 42.108 101.875 41.964 101.403 41.676C100.931 41.388 100.559 40.984 100.287 40.464C100.015 39.944 99.8793 39.352 99.8793 38.688ZM105.447 38.7C105.447 38.204 105.347 37.772 105.147 37.404C104.947 37.036 104.675 36.756 104.331 36.564C103.995 36.364 103.623 36.264 103.215 36.264C102.807 36.264 102.435 36.36 102.099 36.552C101.763 36.744 101.495 37.024 101.295 37.392C101.095 37.76 100.995 38.192 100.995 38.688C100.995 39.192 101.095 39.632 101.295 40.008C101.495 40.376 101.763 40.66 102.099 40.86C102.435 41.052 102.807 41.148 103.215 41.148C103.623 41.148 103.995 41.052 104.331 40.86C104.675 40.66 104.947 40.376 105.147 40.008C105.347 39.632 105.447 39.196 105.447 38.7ZM109.489 33.12V42H108.397V33.12H109.489ZM119.493 40.14H115.845L115.173 42H114.021L117.045 33.684H118.305L121.317 42H120.165L119.493 40.14ZM119.181 39.252L117.669 35.028L116.157 39.252H119.181ZM124.963 42.108C124.459 42.108 124.007 42.024 123.607 41.856C123.207 41.68 122.891 41.44 122.659 41.136C122.427 40.824 122.299 40.468 122.275 40.068H123.403C123.435 40.396 123.587 40.664 123.859 40.872C124.139 41.08 124.503 41.184 124.951 41.184C125.367 41.184 125.695 41.092 125.935 40.908C126.175 40.724 126.295 40.492 126.295 40.212C126.295 39.924 126.167 39.712 125.911 39.576C125.655 39.432 125.259 39.292 124.723 39.156C124.235 39.028 123.835 38.9 123.523 38.772C123.219 38.636 122.955 38.44 122.731 38.184C122.515 37.92 122.407 37.576 122.407 37.152C122.407 36.816 122.507 36.508 122.707 36.228C122.907 35.948 123.191 35.728 123.559 35.568C123.927 35.4 124.347 35.316 124.819 35.316C125.547 35.316 126.135 35.5 126.583 35.868C127.031 36.236 127.271 36.74 127.303 37.38H126.211C126.187 37.036 126.047 36.76 125.791 36.552C125.543 36.344 125.207 36.24 124.783 36.24C124.391 36.24 124.079 36.324 123.847 36.492C123.615 36.66 123.499 36.88 123.499 37.152C123.499 37.368 123.567 37.548 123.703 37.692C123.847 37.828 124.023 37.94 124.231 38.028C124.447 38.108 124.743 38.2 125.119 38.304C125.591 38.432 125.975 38.56 126.271 38.688C126.567 38.808 126.819 38.992 127.027 39.24C127.243 39.488 127.355 39.812 127.363 40.212C127.363 40.572 127.263 40.896 127.063 41.184C126.863 41.472 126.579 41.7 126.211 41.868C125.851 42.028 125.435 42.108 124.963 42.108ZM131.232 42.108C130.728 42.108 130.276 42.024 129.876 41.856C129.476 41.68 129.16 41.44 128.928 41.136C128.696 40.824 128.568 40.468 128.544 40.068H129.672C129.704 40.396 129.856 40.664 130.128 40.872C130.408 41.08 130.772 41.184 131.22 41.184C131.636 41.184 131.964 41.092 132.204 40.908C132.444 40.724 132.564 40.492 132.564 40.212C132.564 39.924 132.436 39.712 132.18 39.576C131.924 39.432 131.528 39.292 130.992 39.156C130.504 39.028 130.104 38.9 129.792 38.772C129.488 38.636 129.224 38.44 129 38.184C128.784 37.92 128.676 37.576 128.676 37.152C128.676 36.816 128.776 36.508 128.976 36.228C129.176 35.948 129.46 35.728 129.828 35.568C130.196 35.4 130.616 35.316 131.088 35.316C131.816 35.316 132.404 35.5 132.852 35.868C133.3 36.236 133.54 36.74 133.572 37.38H132.48C132.456 37.036 132.316 36.76 132.06 36.552C131.812 36.344 131.476 36.24 131.052 36.24C130.66 36.24 130.348 36.324 130.116 36.492C129.884 36.66 129.768 36.88 129.768 37.152C129.768 37.368 129.836 37.548 129.972 37.692C130.116 37.828 130.292 37.94 130.5 38.028C130.716 38.108 131.012 38.2 131.388 38.304C131.86 38.432 132.244 38.56 132.54 38.688C132.836 38.808 133.088 38.992 133.296 39.24C133.512 39.488 133.624 39.812 133.632 40.212C133.632 40.572 133.532 40.896 133.332 41.184C133.132 41.472 132.848 41.7 132.48 41.868C132.12 42.028 131.704 42.108 131.232 42.108ZM135.738 34.356C135.53 34.356 135.354 34.284 135.21 34.14C135.066 33.996 134.994 33.82 134.994 33.612C134.994 33.404 135.066 33.228 135.21 33.084C135.354 32.94 135.53 32.868 135.738 32.868C135.938 32.868 136.106 32.94 136.242 33.084C136.386 33.228 136.458 33.404 136.458 33.612C136.458 33.82 136.386 33.996 136.242 34.14C136.106 34.284 135.938 34.356 135.738 34.356ZM136.266 35.424V42H135.174V35.424H136.266ZM140.455 42.108C139.951 42.108 139.499 42.024 139.099 41.856C138.699 41.68 138.383 41.44 138.151 41.136C137.919 40.824 137.791 40.468 137.767 40.068H138.895C138.927 40.396 139.079 40.664 139.351 40.872C139.631 41.08 139.995 41.184 140.443 41.184C140.859 41.184 141.187 41.092 141.427 40.908C141.667 40.724 141.787 40.492 141.787 40.212C141.787 39.924 141.659 39.712 141.403 39.576C141.147 39.432 140.751 39.292 140.215 39.156C139.727 39.028 139.327 38.9 139.015 38.772C138.711 38.636 138.447 38.44 138.223 38.184C138.007 37.92 137.899 37.576 137.899 37.152C137.899 36.816 137.999 36.508 138.199 36.228C138.399 35.948 138.683 35.728 139.051 35.568C139.419 35.4 139.839 35.316 140.311 35.316C141.039 35.316 141.627 35.5 142.075 35.868C142.523 36.236 142.763 36.74 142.795 37.38H141.703C141.679 37.036 141.539 36.76 141.283 36.552C141.035 36.344 140.699 36.24 140.275 36.24C139.883 36.24 139.571 36.324 139.339 36.492C139.107 36.66 138.991 36.88 138.991 37.152C138.991 37.368 139.059 37.548 139.195 37.692C139.339 37.828 139.515 37.94 139.723 38.028C139.939 38.108 140.235 38.2 140.611 38.304C141.083 38.432 141.467 38.56 141.763 38.688C142.059 38.808 142.311 38.992 142.519 39.24C142.735 39.488 142.847 39.812 142.855 40.212C142.855 40.572 142.755 40.896 142.555 41.184C142.355 41.472 142.071 41.7 141.703 41.868C141.343 42.028 140.927 42.108 140.455 42.108ZM145.729 36.324V40.2C145.729 40.52 145.797 40.748 145.933 40.884C146.069 41.012 146.305 41.076 146.641 41.076H147.445V42H146.461C145.853 42 145.397 41.86 145.093 41.58C144.789 41.3 144.637 40.84 144.637 40.2V36.324H143.785V35.424H144.637V33.768H145.729V35.424H147.445V36.324H145.729ZM148.36 38.688C148.36 38.016 148.496 37.428 148.768 36.924C149.04 36.412 149.412 36.016 149.884 35.736C150.364 35.456 150.896 35.316 151.48 35.316C152.056 35.316 152.556 35.44 152.98 35.688C153.404 35.936 153.72 36.248 153.928 36.624V35.424H155.032V42H153.928V40.776C153.712 41.16 153.388 41.48 152.956 41.736C152.532 41.984 152.036 42.108 151.468 42.108C150.884 42.108 150.356 41.964 149.884 41.676C149.412 41.388 149.04 40.984 148.768 40.464C148.496 39.944 148.36 39.352 148.36 38.688ZM153.928 38.7C153.928 38.204 153.828 37.772 153.628 37.404C153.428 37.036 153.156 36.756 152.812 36.564C152.476 36.364 152.104 36.264 151.696 36.264C151.288 36.264 150.916 36.36 150.58 36.552C150.244 36.744 149.976 37.024 149.776 37.392C149.576 37.76 149.476 38.192 149.476 38.688C149.476 39.192 149.576 39.632 149.776 40.008C149.976 40.376 150.244 40.66 150.58 40.86C150.916 41.052 151.288 41.148 151.696 41.148C152.104 41.148 152.476 41.052 152.812 40.86C153.156 40.66 153.428 40.376 153.628 40.008C153.828 39.632 153.928 39.196 153.928 38.7ZM160.081 35.304C160.881 35.304 161.529 35.548 162.025 36.036C162.521 36.516 162.769 37.212 162.769 38.124V42H161.689V38.28C161.689 37.624 161.525 37.124 161.197 36.78C160.869 36.428 160.421 36.252 159.853 36.252C159.277 36.252 158.817 36.432 158.473 36.792C158.137 37.152 157.969 37.676 157.969 38.364V42H156.877V35.424H157.969V36.36C158.185 36.024 158.477 35.764 158.845 35.58C159.221 35.396 159.633 35.304 160.081 35.304ZM165.885 36.324V40.2C165.885 40.52 165.953 40.748 166.089 40.884C166.225 41.012 166.461 41.076 166.797 41.076H167.601V42H166.617C166.009 42 165.553 41.86 165.249 41.58C164.945 41.3 164.793 40.84 164.793 40.2V36.324H163.941V35.424H164.793V33.768H165.885V35.424H167.601V36.324H165.885Z" fill="#697B77"/>
</svg>
