<svg width="218" height="43" viewBox="0 0 218 43" fill="none" xmlns="http://www.w3.org/2000/svg">
<path d="M22.5451 22.1766C26.3562 23.9515 30.2845 24.8323 33.5966 24.6581H33.6569L33.8947 1.04479C33.8965 0.857123 33.8472 0.672498 33.7522 0.510678C33.6571 0.348858 33.5198 0.215935 33.355 0.126139C33.1902 0.0363428 33.0041 -0.00694606 32.8166 0.000906379C32.6291 0.00875882 32.4472 0.0674569 32.2905 0.170717L12.428 13.5665C14.0355 16.6374 17.7495 19.9395 22.5451 22.1766Z" fill="#B81DFF"/>
<path d="M32.7795 26.9255C29.3133 26.9255 25.385 25.9778 21.5974 24.2095C16.3731 21.7749 12.4448 18.302 10.5459 14.8325L0.458921 21.6476C0.284316 21.7646 0.149459 21.9319 0.0722899 22.1274C-0.0048792 22.3229 -0.0207025 22.5372 0.0269249 22.7419C0.0745523 22.9466 0.183373 23.1319 0.33891 23.2732C0.494448 23.4146 0.68933 23.5052 0.897631 23.533L17.8566 25.8405C18.8535 25.9761 19.7674 26.4687 20.4286 27.2269L31.6944 40.1103C31.8328 40.268 32.0157 40.3801 32.2191 40.4318C32.4225 40.4835 32.6367 40.4723 32.8336 40.3998C33.0306 40.3273 33.2009 40.1968 33.3221 40.0255C33.4434 39.8543 33.5099 39.6503 33.5129 39.4405L33.6368 26.9054C33.3577 26.9188 33.0719 26.9255 32.7795 26.9255Z" fill="#B81DFF"/>
<path d="M32.7795 25.1367C29.3134 25.1367 25.3851 24.189 21.5974 22.4208C12.6892 18.2681 7.53189 11.0947 9.87615 6.08801C12.2204 1.08135 21.0113 0.421613 29.9195 4.57429C32.7206 5.85648 35.2992 7.57711 37.5584 9.67137C37.7747 9.87609 37.9008 10.1584 37.909 10.456C37.9171 10.7537 37.8067 11.0425 37.602 11.2588C37.3972 11.475 37.115 11.6011 36.8173 11.6093C36.5196 11.6175 36.2308 11.507 36.0146 11.3023C33.9339 9.37629 31.5599 7.79367 28.9818 6.61379C21.4635 3.10746 13.647 3.30504 11.9056 7.02571C10.1642 10.7464 15.0369 16.885 22.5452 20.388C26.3562 22.1629 30.2845 23.047 33.5966 22.8695C36.6676 22.7088 38.8009 21.6773 39.6013 19.9593C40.4352 18.1676 39.6281 16.1214 38.8042 14.7216C38.7295 14.5945 38.6805 14.4539 38.66 14.3078C38.6396 14.1618 38.6481 14.0132 38.6851 13.8704C38.7221 13.7277 38.7869 13.5937 38.8757 13.4759C38.9645 13.3582 39.0757 13.2592 39.2028 13.1844C39.3299 13.1096 39.4704 13.0606 39.6165 13.0402C39.7625 13.0198 39.9111 13.0283 40.0539 13.0653C40.3421 13.14 40.5889 13.3262 40.7399 13.5829C42.2905 16.2185 42.6086 18.8207 41.6374 20.907C40.4687 23.412 37.6555 24.9258 33.7139 25.1133C33.4124 25.13 33.0976 25.1367 32.7795 25.1367Z" fill="#B81DFF"/>
<path d="M218 22.6315C218 23.3751 217.952 24.0468 217.856 24.6465H202.708C202.828 26.2297 203.415 27.5011 204.471 28.4606C205.526 29.4201 206.822 29.8999 208.357 29.8999C210.564 29.8999 212.123 28.9763 213.034 27.1293H217.46C216.861 28.9523 215.769 30.4516 214.186 31.627C212.627 32.7784 210.684 33.3541 208.357 33.3541C206.462 33.3541 204.759 32.9344 203.247 32.0948C201.76 31.2312 200.585 30.0318 199.721 28.4966C198.882 26.9374 198.462 25.1382 198.462 23.0993C198.462 21.0603 198.87 19.2732 199.685 17.7379C200.525 16.1787 201.688 14.9793 203.175 14.1397C204.687 13.3002 206.414 12.8804 208.357 12.8804C210.228 12.8804 211.895 13.2882 213.358 14.1038C214.822 14.9194 215.961 16.0708 216.777 17.558C217.592 19.0213 218 20.7125 218 22.6315ZM213.718 21.3361C213.694 19.8249 213.154 18.6135 212.099 17.702C211.043 16.7904 209.736 16.3346 208.177 16.3346C206.762 16.3346 205.55 16.7904 204.543 17.702C203.535 18.5895 202.936 19.8009 202.744 21.3361H213.718Z" fill="#B81DFF"/>
<path d="M186.442 12.8804C188.001 12.8804 189.392 13.2042 190.615 13.8519C191.863 14.4996 192.834 15.4591 193.53 16.7304C194.25 18.0018 194.609 19.537 194.609 21.3361V33.0303H190.544V21.9478C190.544 20.1727 190.1 18.8174 189.212 17.8819C188.325 16.9224 187.113 16.4426 185.578 16.4426C184.043 16.4426 182.819 16.9224 181.908 17.8819C181.02 18.8174 180.576 20.1727 180.576 21.9478V33.0303H176.51V21.9478C176.51 20.1727 176.067 18.8174 175.179 17.8819C174.292 16.9224 173.08 16.4426 171.545 16.4426C170.01 16.4426 168.786 16.9224 167.875 17.8819C166.987 18.8174 166.543 20.1727 166.543 21.9478V33.0303H162.442V13.2042H166.543V15.4711C167.215 14.6555 168.067 14.0198 169.098 13.564C170.13 13.1083 171.233 12.8804 172.409 12.8804C173.992 12.8804 175.407 13.2162 176.654 13.8879C177.902 14.5595 178.861 15.531 179.533 16.8024C180.133 15.603 181.068 14.6555 182.34 13.9598C183.611 13.2402 184.978 12.8804 186.442 12.8804Z" fill="#B81DFF"/>
<path d="M157.029 13.2041V33.0302H152.927V30.6914C152.28 31.507 151.428 32.1546 150.373 32.6344C149.341 33.0902 148.238 33.3181 147.062 33.3181C145.503 33.3181 144.1 32.9942 142.852 32.3465C141.629 31.6989 140.658 30.7393 139.938 29.468C139.242 28.1966 138.894 26.6614 138.894 24.8623V13.2041H142.96V24.2506C142.96 26.0257 143.404 27.393 144.292 28.3525C145.179 29.2881 146.391 29.7558 147.926 29.7558C149.461 29.7558 150.673 29.2881 151.56 28.3525C152.472 27.393 152.927 26.0257 152.927 24.2506V13.2041H157.029Z" fill="#B81DFF"/>
<path d="M135.979 13.2041L123.817 42.3495H119.571L123.601 32.7064L115.793 13.2041H120.362L125.94 28.3166L131.733 13.2041H135.979Z" fill="#B81DFF"/>
<path d="M104.829 29.6839H113.824V33.0302H100.079V29.6839L109.111 16.5504H100.079V13.2041H113.824V16.5504L104.829 29.6839Z" fill="#B81DFF"/>
<path d="M97.1581 22.6315C97.1581 23.3751 97.1101 24.0468 97.0142 24.6465H81.8657C81.9857 26.2297 82.5734 27.5011 83.6288 28.4606C84.6843 29.4201 85.9797 29.8999 87.5149 29.8999C89.7218 29.8999 91.281 28.9763 92.1926 27.1293H96.6184C96.0187 28.9523 94.9272 30.4516 93.344 31.627C91.7848 32.7784 89.8417 33.3541 87.5149 33.3541C85.6198 33.3541 83.9167 32.9344 82.4055 32.0948C80.9182 31.2312 79.7428 30.0318 78.8792 28.4966C78.0396 26.9374 77.6198 25.1382 77.6198 23.0993C77.6198 21.0603 78.0276 19.2732 78.8432 17.7379C79.6828 16.1787 80.8462 14.9793 82.3335 14.1397C83.8447 13.3002 85.5719 12.8804 87.5149 12.8804C89.386 12.8804 91.0531 13.2882 92.5164 14.1038C93.9797 14.9194 95.1191 16.0708 95.9347 17.558C96.7503 19.0213 97.1581 20.7125 97.1581 22.6315ZM92.8762 21.3361C92.8522 19.8249 92.3125 18.6135 91.257 17.702C90.2016 16.7904 88.8942 16.3346 87.335 16.3346C85.9197 16.3346 84.7083 16.7904 83.7008 17.702C82.6933 18.5895 82.0936 19.8009 81.9017 21.3361H92.8762Z" fill="#B81DFF"/>
<path d="M69.2419 33.0305L63.4847 23.0275H60.3543V33.0305H56.2523V8.02295H64.888C66.8071 8.02295 68.4263 8.35878 69.7456 9.03045C71.0889 9.70211 72.0844 10.6017 72.7321 11.7291C73.4038 12.8565 73.7396 14.1159 73.7396 15.5072C73.7396 17.1384 73.2599 18.6257 72.3003 19.969C71.3648 21.2883 69.9135 22.1879 67.9465 22.6676L74.1354 33.0305H69.2419ZM60.3543 19.7531H64.888C66.4233 19.7531 67.5747 19.3693 68.3423 18.6017C69.1339 17.834 69.5297 16.8026 69.5297 15.5072C69.5297 14.2119 69.1459 13.2044 68.3783 12.4847C67.6107 11.7411 66.4473 11.3693 64.888 11.3693H60.3543V19.7531Z" fill="#B81DFF"/>
</svg>
