<svg width="169" height="42" viewBox="0 0 169 42" fill="none" xmlns="http://www.w3.org/2000/svg">
<path d="M17.9086 17.0902C20.9359 18.458 24.0563 19.1368 26.6873 19.0026H26.7352L26.9241 0.805158C26.9255 0.660535 26.8864 0.518255 26.8108 0.39355C26.7353 0.268844 26.6263 0.166409 26.4954 0.097208C26.3645 0.0280073 26.2166 -0.00535293 26.0677 0.000698494C25.9187 0.00674991 25.7743 0.0519851 25.6498 0.131562L9.87212 10.4549C11.149 12.8215 14.0992 15.3662 17.9086 17.0902Z" fill="#B81DFF"/>
<path d="M26.0382 20.7498C23.2849 20.7498 20.1645 20.0194 17.1558 18.6567C13.0058 16.7805 9.88543 14.1042 8.37709 11.4304L0.364542 16.6824C0.225845 16.7725 0.118722 16.9015 0.0574231 17.0521C-0.00387577 17.2028 -0.0164449 17.368 0.0213877 17.5257C0.0592203 17.6835 0.145661 17.8263 0.269212 17.9352C0.392762 18.0441 0.547565 18.1139 0.713029 18.1354L14.1843 19.9136C14.9762 20.0181 15.7021 20.3977 16.2274 20.9821L25.1763 30.9105C25.2862 31.0321 25.4315 31.1185 25.5931 31.1583C25.7546 31.1981 25.9248 31.1895 26.0812 31.1336C26.2376 31.0778 26.3729 30.9772 26.4693 30.8452C26.5656 30.7132 26.6184 30.556 26.6208 30.3944L26.7192 20.7343C26.4975 20.7446 26.2705 20.7498 26.0382 20.7498Z" fill="#B81DFF"/>
<path d="M26.0382 19.3716C23.2849 19.3716 20.1645 18.6413 17.1558 17.2786C10.0796 14.0784 5.9829 8.55023 7.84505 4.69189C9.70719 0.833547 16.6902 0.325123 23.7664 3.52535C25.9914 4.51347 28.0398 5.83945 29.8343 7.45337C30.0061 7.61115 30.1063 7.82867 30.1128 8.05808C30.1193 8.2875 30.0315 8.51002 29.8689 8.67669C29.7063 8.84336 29.4821 8.94053 29.2456 8.94682C29.0091 8.95311 28.7798 8.86801 28.608 8.71024C26.9552 7.22598 25.0695 6.00634 23.0215 5.09708C17.0494 2.39495 10.8404 2.54722 9.45713 5.41452C8.07383 8.28182 11.9444 13.0125 17.9086 15.712C20.9359 17.0799 24.0564 17.7612 26.6873 17.6244C29.1267 17.5005 30.8213 16.7056 31.4571 15.3817C32.1194 14.0009 31.4783 12.4241 30.8239 11.3453C30.7645 11.2473 30.7256 11.139 30.7094 11.0264C30.6932 10.9139 30.6999 10.7994 30.7293 10.6894C30.7587 10.5794 30.8102 10.4761 30.8807 10.3853C30.9513 10.2946 31.0395 10.2183 31.1405 10.1607C31.2415 10.103 31.3531 10.0653 31.4691 10.0495C31.5851 10.0338 31.7032 10.0404 31.8166 10.0689C32.0456 10.1265 32.2416 10.27 32.3615 10.4678C33.5932 12.4989 33.8459 14.5042 33.0745 16.1121C32.1461 18.0425 29.9115 19.2091 26.7804 19.3536C26.541 19.3665 26.2909 19.3716 26.0382 19.3716Z" fill="#B81DFF"/>
<path d="M169 17.4408C169 18.0139 168.963 18.5315 168.888 18.9937H157.121C157.214 20.2138 157.67 21.1935 158.49 21.933C159.31 22.6724 160.316 23.0422 161.509 23.0422C163.223 23.0422 164.435 22.3304 165.143 20.907H168.581C168.115 22.3119 167.267 23.4673 166.037 24.3732C164.826 25.2605 163.316 25.7042 161.509 25.7042C160.037 25.7042 158.714 25.3807 157.54 24.7336C156.384 24.0681 155.471 23.1438 154.801 21.9607C154.148 20.7591 153.822 19.3726 153.822 17.8013C153.822 16.23 154.139 14.8528 154.773 13.6697C155.425 12.4681 156.329 11.5437 157.484 10.8967C158.658 10.2497 160 9.92621 161.509 9.92621C162.962 9.92621 164.258 10.2405 165.394 10.869C166.531 11.4975 167.416 12.3849 168.05 13.531C168.683 14.6587 169 15.9619 169 17.4408ZM165.674 16.4426C165.655 15.278 165.236 14.3444 164.416 13.6419C163.596 12.9395 162.58 12.5882 161.369 12.5882C160.27 12.5882 159.329 12.9395 158.546 13.6419C157.763 14.3259 157.298 15.2595 157.148 16.4426H165.674Z" fill="#B81DFF"/>
<path d="M144.485 9.92621C145.696 9.92621 146.777 10.1758 147.727 10.6749C148.696 11.174 149.451 11.9135 149.991 12.8932C150.55 13.873 150.83 15.0561 150.83 16.4426V25.4546H147.671V16.914C147.671 15.546 147.326 14.5015 146.637 13.7806C145.947 13.0411 145.006 12.6714 143.814 12.6714C142.621 12.6714 141.671 13.0411 140.963 13.7806C140.273 14.5015 139.928 15.546 139.928 16.914V25.4546H136.77V16.914C136.77 15.546 136.425 14.5015 135.736 13.7806C135.046 13.0411 134.105 12.6714 132.913 12.6714C131.72 12.6714 130.77 13.0411 130.062 13.7806C129.372 14.5015 129.027 15.546 129.027 16.914V25.4546H125.841V10.1758H129.027V11.9227C129.549 11.2942 130.211 10.8043 131.012 10.4531C131.813 10.1018 132.67 9.92621 133.583 9.92621C134.813 9.92621 135.913 10.185 136.882 10.7026C137.851 11.2202 138.596 11.9689 139.118 12.9487C139.584 12.0244 140.31 11.2942 141.298 10.7581C142.286 10.2035 143.348 9.92621 144.485 9.92621Z" fill="#B81DFF"/>
<path d="M121.636 10.1758V25.4546H118.45V23.6522C117.947 24.2807 117.285 24.7798 116.465 25.1496C115.664 25.5008 114.807 25.6764 113.894 25.6764C112.683 25.6764 111.592 25.4268 110.623 24.9277C109.673 24.4286 108.918 23.6891 108.359 22.7094C107.819 21.7296 107.549 20.5465 107.549 19.16V10.1758H110.707V18.6886C110.707 20.0566 111.052 21.1103 111.742 21.8498C112.431 22.5707 113.372 22.9312 114.565 22.9312C115.757 22.9312 116.698 22.5707 117.388 21.8498C118.096 21.1103 118.45 20.0566 118.45 18.6886V10.1758H121.636Z" fill="#B81DFF"/>
<path d="M105.284 10.1758L95.8361 32.6365H92.5378L95.6684 25.205L89.6029 10.1758H93.1528L97.4853 21.822L101.986 10.1758H105.284Z" fill="#B81DFF"/>
<path d="M81.0859 22.8758H88.0739V25.4546H77.3963V22.8758L84.4122 12.7546H77.3963V10.1758H88.0739V12.7546L81.0859 22.8758Z" fill="#B81DFF"/>
<path d="M75.127 17.4408C75.127 18.0139 75.0897 18.5315 75.0152 18.9937H63.2475C63.3407 20.2138 63.7972 21.1935 64.6171 21.933C65.437 22.6724 66.4433 23.0422 67.6359 23.0422C69.3503 23.0422 70.5615 22.3304 71.2696 20.907H74.7077C74.2418 22.3119 73.394 23.4673 72.1641 24.3732C70.9528 25.2605 69.4435 25.7042 67.6359 25.7042C66.1638 25.7042 64.8407 25.3807 63.6668 24.7336C62.5114 24.0681 61.5983 23.1438 60.9275 21.9607C60.2753 20.7591 59.9492 19.3726 59.9492 17.8013C59.9492 16.23 60.266 14.8528 60.8995 13.6697C61.5518 12.4681 62.4555 11.5437 63.6109 10.8967C64.7848 10.2497 66.1265 9.92621 67.6359 9.92621C69.0894 9.92621 70.3845 10.2405 71.5212 10.869C72.6579 11.4975 73.543 12.3849 74.1766 13.531C74.8102 14.6587 75.127 15.9619 75.127 17.4408ZM71.8007 16.4426C71.7821 15.278 71.3628 14.3444 70.5429 13.6419C69.723 12.9395 68.7074 12.5882 67.4962 12.5882C66.3967 12.5882 65.4557 12.9395 64.673 13.6419C63.8904 14.3259 63.4245 15.2595 63.2754 16.4426H71.8007Z" fill="#B81DFF"/>
<path d="M53.441 25.4546L48.9687 17.7458H46.5369V25.4546H43.3504V6.18274H50.0588C51.5496 6.18274 52.8074 6.44155 53.8323 6.95916C54.8759 7.47677 55.6492 8.17 56.1523 9.03886C56.6741 9.90771 56.935 10.8782 56.935 11.9504C56.935 13.2075 56.5623 14.3536 55.8169 15.3889C55.0902 16.4056 53.9628 17.0988 52.4347 17.4686L57.2424 25.4546H53.441ZM46.5369 15.2225H50.0588C51.2515 15.2225 52.1459 14.9267 52.7422 14.3351C53.3572 13.7436 53.6646 12.9487 53.6646 11.9504C53.6646 10.9522 53.3665 10.1758 52.7702 9.62117C52.1739 9.0481 51.2701 8.76156 50.0588 8.76156H46.5369V15.2225Z" fill="#B81DFF"/>
<path d="M166.426 32.9316C166.622 32.5556 166.899 32.2636 167.258 32.0556C167.625 31.8476 168.069 31.7436 168.591 31.7436V32.8716H168.297C167.05 32.8716 166.426 33.5356 166.426 34.8636V38.4396H165.313V31.8636H166.426V32.9316Z" fill="#B81DFF"/>
<path d="M163.843 34.8996C163.843 35.1076 163.831 35.3276 163.807 35.5596H158.449C158.489 36.2076 158.714 36.7156 159.122 37.0836C159.537 37.4436 160.039 37.6236 160.626 37.6236C161.107 37.6236 161.507 37.5156 161.825 37.2996C162.151 37.0756 162.379 36.7796 162.51 36.4116H163.709C163.529 37.0436 163.171 37.5596 162.632 37.9596C162.094 38.3516 161.425 38.5476 160.626 38.5476C159.99 38.5476 159.419 38.4076 158.914 38.1276C158.416 37.8476 158.025 37.4516 157.739 36.9396C157.454 36.4196 157.311 35.8196 157.311 35.1396C157.311 34.4596 157.45 33.8636 157.727 33.3516C158.004 32.8396 158.392 32.4476 158.889 32.1756C159.395 31.8956 159.974 31.7556 160.626 31.7556C161.262 31.7556 161.825 31.8916 162.314 32.1636C162.804 32.4356 163.179 32.8116 163.44 33.2916C163.709 33.7636 163.843 34.2996 163.843 34.8996ZM162.693 34.6716C162.693 34.2556 162.6 33.8996 162.412 33.6036C162.225 33.2996 161.968 33.0716 161.641 32.9196C161.323 32.7596 160.969 32.6796 160.577 32.6796C160.014 32.6796 159.533 32.8556 159.134 33.2076C158.742 33.5596 158.518 34.0476 158.461 34.6716H162.693Z" fill="#B81DFF"/>
<path d="M153.169 31.7436C153.984 31.7436 154.645 31.9876 155.15 32.4756C155.656 32.9556 155.909 33.6516 155.909 34.5636V38.4396H154.808V34.7196C154.808 34.0636 154.641 33.5636 154.306 33.2196C153.972 32.8676 153.515 32.6916 152.936 32.6916C152.349 32.6916 151.88 32.8716 151.529 33.2316C151.187 33.5916 151.016 34.1156 151.016 34.8036V38.4396H149.902V31.8636H151.016V32.7996C151.236 32.4636 151.533 32.2036 151.909 32.0196C152.292 31.8356 152.712 31.7436 153.169 31.7436Z" fill="#B81DFF"/>
<path d="M144.4 31.7556C144.979 31.7556 145.485 31.8796 145.917 32.1276C146.358 32.3756 146.684 32.6876 146.896 33.0636V31.8636H148.021V38.5836C148.021 39.1836 147.891 39.7156 147.63 40.1796C147.369 40.6516 146.994 41.0196 146.504 41.2836C146.023 41.5476 145.461 41.6796 144.816 41.6796C143.936 41.6796 143.202 41.4756 142.614 41.0676C142.027 40.6596 141.681 40.1036 141.575 39.3996H142.676C142.798 39.7996 143.051 40.1196 143.434 40.3596C143.817 40.6076 144.278 40.7316 144.816 40.7316C145.428 40.7316 145.925 40.5436 146.309 40.1676C146.7 39.7916 146.896 39.2636 146.896 38.5836V37.2036C146.676 37.5876 146.349 37.9076 145.917 38.1636C145.485 38.4196 144.979 38.5476 144.4 38.5476C143.805 38.5476 143.263 38.4036 142.773 38.1156C142.292 37.8276 141.913 37.4236 141.636 36.9036C141.359 36.3836 141.22 35.7916 141.22 35.1276C141.22 34.4556 141.359 33.8676 141.636 33.3636C141.913 32.8516 142.292 32.4556 142.773 32.1756C143.263 31.8956 143.805 31.7556 144.4 31.7556ZM146.896 35.1396C146.896 34.6436 146.794 34.2116 146.59 33.8436C146.386 33.4756 146.109 33.1956 145.758 33.0036C145.416 32.8036 145.037 32.7036 144.621 32.7036C144.205 32.7036 143.826 32.7996 143.483 32.9916C143.14 33.1836 142.867 33.4636 142.663 33.8316C142.46 34.1996 142.358 34.6316 142.358 35.1276C142.358 35.6316 142.46 36.0716 142.663 36.4476C142.867 36.8156 143.14 37.0996 143.483 37.2996C143.826 37.4916 144.205 37.5876 144.621 37.5876C145.037 37.5876 145.416 37.4916 145.758 37.2996C146.109 37.0996 146.386 36.8156 146.59 36.4476C146.794 36.0716 146.896 35.6356 146.896 35.1396Z" fill="#B81DFF"/>
<path d="M139.2 30.7956C138.988 30.7956 138.809 30.7236 138.662 30.5796C138.515 30.4356 138.442 30.2596 138.442 30.0516C138.442 29.8436 138.515 29.6676 138.662 29.5236C138.809 29.3796 138.988 29.3076 139.2 29.3076C139.404 29.3076 139.576 29.3796 139.714 29.5236C139.861 29.6676 139.934 29.8436 139.934 30.0516C139.934 30.2596 139.861 30.4356 139.714 30.5796C139.576 30.7236 139.404 30.7956 139.2 30.7956ZM139.739 31.8636V38.4396H138.626V31.8636H139.739Z" fill="#B81DFF"/>
<path d="M134.608 38.5476C134.094 38.5476 133.633 38.4636 133.225 38.2956C132.818 38.1196 132.495 37.8796 132.259 37.5756C132.022 37.2636 131.892 36.9076 131.867 36.5076H133.017C133.05 36.8356 133.205 37.1036 133.482 37.3116C133.768 37.5196 134.139 37.6236 134.595 37.6236C135.019 37.6236 135.354 37.5316 135.598 37.3476C135.843 37.1636 135.965 36.9316 135.965 36.6516C135.965 36.3636 135.835 36.1516 135.574 36.0156C135.313 35.8716 134.909 35.7316 134.363 35.5956C133.865 35.4676 133.458 35.3396 133.14 35.2116C132.83 35.0756 132.561 34.8796 132.332 34.6236C132.112 34.3596 132.002 34.0156 132.002 33.5916C132.002 33.2556 132.104 32.9476 132.308 32.6676C132.512 32.3876 132.801 32.1676 133.176 32.0076C133.552 31.8396 133.98 31.7556 134.461 31.7556C135.203 31.7556 135.802 31.9396 136.259 32.3076C136.716 32.6756 136.96 33.1796 136.993 33.8196H135.88C135.855 33.4756 135.713 33.1996 135.452 32.9916C135.199 32.7836 134.856 32.6796 134.424 32.6796C134.025 32.6796 133.706 32.7636 133.47 32.9316C133.233 33.0996 133.115 33.3196 133.115 33.5916C133.115 33.8076 133.185 33.9876 133.323 34.1316C133.47 34.2676 133.649 34.3796 133.861 34.4676C134.082 34.5476 134.383 34.6396 134.767 34.7436C135.248 34.8716 135.639 34.9996 135.941 35.1276C136.243 35.2476 136.5 35.4316 136.712 35.6796C136.932 35.9276 137.046 36.2516 137.054 36.6516C137.054 37.0116 136.952 37.3356 136.748 37.6236C136.544 37.9116 136.255 38.1396 135.88 38.3076C135.513 38.4676 135.089 38.5476 134.608 38.5476Z" fill="#B81DFF"/>
<path d="M130.765 34.8996C130.765 35.1076 130.753 35.3276 130.728 35.5596H125.371C125.411 36.2076 125.636 36.7156 126.043 37.0836C126.459 37.4436 126.961 37.6236 127.548 37.6236C128.029 37.6236 128.429 37.5156 128.747 37.2996C129.073 37.0756 129.301 36.7796 129.432 36.4116H130.631C130.451 37.0436 130.092 37.5596 129.554 37.9596C129.016 38.3516 128.347 38.5476 127.548 38.5476C126.912 38.5476 126.341 38.4076 125.835 38.1276C125.338 37.8476 124.946 37.4516 124.661 36.9396C124.376 36.4196 124.233 35.8196 124.233 35.1396C124.233 34.4596 124.372 33.8636 124.649 33.3516C124.926 32.8396 125.313 32.4476 125.811 32.1756C126.317 31.8956 126.896 31.7556 127.548 31.7556C128.184 31.7556 128.747 31.8916 129.236 32.1636C129.725 32.4356 130.1 32.8116 130.361 33.2916C130.631 33.7636 130.765 34.2996 130.765 34.8996ZM129.615 34.6716C129.615 34.2556 129.521 33.8996 129.334 33.6036C129.146 33.2996 128.889 33.0716 128.563 32.9196C128.245 32.7596 127.89 32.6796 127.499 32.6796C126.936 32.6796 126.455 32.8556 126.056 33.2076C125.664 33.5596 125.44 34.0476 125.383 34.6716H129.615Z" fill="#B81DFF"/>
<path d="M118.654 30.0756C119.584 30.0756 120.387 30.2476 121.064 30.5916C121.749 30.9276 122.271 31.4116 122.63 32.0436C122.997 32.6756 123.181 33.4196 123.181 34.2756C123.181 35.1316 122.997 35.8756 122.63 36.5076C122.271 37.1316 121.749 37.6116 121.064 37.9476C120.387 38.2756 119.584 38.4396 118.654 38.4396H116V30.0756H118.654ZM118.654 37.5396C119.755 37.5396 120.595 37.2556 121.174 36.6876C121.753 36.1116 122.043 35.3076 122.043 34.2756C122.043 33.2356 121.749 32.4236 121.162 31.8396C120.583 31.2556 119.747 30.9636 118.654 30.9636H117.113V37.5396H118.654Z" fill="#B81DFF"/>
</svg>
